<?xml version="1.0" encoding="UTF-8"?>
<svg width="1024px" height="1024px" viewBox="0 0 1024 1024" version="1.1" xmlns="http://www.w3.org/2000/svg" xmlns:xlink="http://www.w3.org/1999/xlink">
    <title>eICSA</title>
    <defs>
        <linearGradient x1="30.3462345%" y1="88.3921021%" x2="69.6518016%" y2="11.607868%" id="linearGradient-1">
            <stop stop-color="#56BEF0" offset="0%"></stop>
            <stop stop-color="#5A9CFA" offset="33%"></stop>
            <stop stop-color="#6D5AFA" offset="67%"></stop>
            <stop stop-color="#9256F0" offset="100%"></stop>
        </linearGradient>
    </defs>
    <g id="eICSA" stroke="none" stroke-width="1" fill="none" fill-rule="evenodd">
        <circle id="Oval" fill="#627EEA" fill-rule="nonzero" cx="512" cy="512" r="512"></circle>
        <path d="M402.049304,101.577086 C628.7219,40.8559804 861.69367,175.376709 922.422914,402.049304 C983.14402,628.7219 848.623291,861.69367 621.950695,922.422914 C395.286238,983.14402 162.30633,848.623291 101.577086,621.950695 C40.8559804,395.286238 175.376709,162.30633 402.049304,101.577086 Z" id="path" fill="#FFFFFF" fill-rule="nonzero"></path>
        <path d="M527.568888,843.414672 L527.568888,696.108411 L782.709843,696.108411 L527.568888,843.414672 Z M241.225049,696.108411 L496.658989,696.108411 L496.658989,843.58558 L241.225049,696.108411 Z M363.440415,378.700041 L237.733646,329.812267 L471.559955,194.811369 L363.440415,378.700041 L363.440415,378.700041 Z M656.937967,379.489473 L546.279225,191.295551 L786.095445,329.763436 L656.937967,379.497611 L656.937967,379.489473 Z M651.501471,431.22571 L789.065986,665.198511 L536.887433,665.198511 L651.501471,431.22571 Z M487.185813,665.198511 L230.832226,665.198511 L369.788419,428.865555 L487.169536,665.198511 L487.185813,665.198511 Z M396.677916,383.16806 L509.957245,190.497982 L623.236573,383.16806 L396.669777,383.16806 L396.677916,383.16806 Z M512.024415,645.71502 L396.979039,414.077959 L625.48279,414.077959 L512.024415,645.71502 Z M806.832261,356.384364 L806.832261,634.394412 L672.832394,406.501046 L806.78343,354.919439 C806.807845,355.407747 806.832261,355.896055 806.832261,356.384364 L806.832261,356.384364 Z M217.135185,356.384364 C217.135185,355.912332 217.159601,355.44844 217.184016,354.976409 L347.594819,405.695338 L217.135185,627.566238 L217.135185,356.384364 Z M189.570196,686.545711 C194.021938,698.891767 202.713821,709.545021 214.384383,716.29181 L483.840902,871.858616 C492.524647,876.871912 502.258254,879.37856 511.991861,879.37856 C521.725468,879.37856 531.459076,876.871912 540.14282,871.858616 L809.59934,716.29181 C826.966829,706.265218 837.750298,687.579297 837.750298,667.526113 L837.750298,356.392502 C837.750298,345.983402 834.836727,335.940533 829.611831,327.289342 C829.3514,326.817311 829.066554,326.361557 828.76543,325.930218 C823.98815,318.507936 817.477376,312.176208 809.607478,307.634943 L540.126543,152.06 C530.873106,146.713027 520.423314,144.222656 510.054906,144.57261 C510.022352,144.57261 509.997937,144.57261 509.965383,144.57261 C509.468936,144.57261 508.980628,144.605163 508.49232,144.653994 C499.930653,145.182995 491.466646,147.64895 483.824625,152.06 L214.359968,307.626805 C206.49007,312.16807 199.979296,318.499797 195.202015,325.92208 C194.892754,326.369696 194.599769,326.833588 194.331199,327.321896 C189.114442,335.964949 186.209009,345.991541 186.209009,356.392502 L186.209009,667.526113 C186.209009,673.475333 187.16121,679.302475 188.951672,684.820356 C189.114442,685.406326 189.309765,685.984157 189.545781,686.545711" id="path" fill="url(#linearGradient-1)" fill-rule="nonzero"></path>
    </g>
</svg>