<?xml version="1.0" encoding="UTF-8"?>
<svg width="100px" height="100px" viewBox="0 0 100 100" version="1.1" xmlns="http://www.w3.org/2000/svg" xmlns:xlink="http://www.w3.org/1999/xlink">
    <title>MAXI</title>
    <g id="MAXI" stroke="none" stroke-width="1" fill="none" fill-rule="evenodd">
        <circle id="Oval" fill="#FFD700" cx="50" cy="50" r="50"></circle>
        <circle id="Oval-Copy-2" fill="#0F00B3" cx="50" cy="50" r="42"></circle>
        <path d="M50.4,60.4 L63.8,31 L75.7,31 L75.7,31.6 C72.0333333,31.3333333 70.1333333,33.4333333 70,37.9 C69.8,44.6 70,57.9 70,63.6 C70,67.4 72,69.3333333 76,69.4 L76,70 L56.8,70 L56.8,69.4 C61.4666667,69.6 63.8333333,67.0333333 63.9,61.7 C63.9666667,56.3666667 64,47.0333333 64,33.7 L47.6,69.3 L31.9,34.6 C31.8333333,48.8 31.8,58.1 31.8,62.5 C31.8,66.9 34.0666667,69.2 38.6,69.4 L38.6,70 L24,70 L24,69.4 C28.3333333,69.5333333 30.5666667,65.2666667 30.7,56.6 C30.9,43.6 30.8,41.5 30.8,36.9 C30.8,33.8333333 28.9333333,32.0666667 25.2,31.6 L25.2,31 L37.2,31 L50.4,60.4 Z" id="Path-3" fill="#FFD700"></path>
    </g>
</svg>