<svg width="1024" height="1024" viewBox="0 0 1024 1024" fill="none" xmlns="http://www.w3.org/2000/svg">
<g clip-path="url(#clip0_159_116)">
<path d="M512 1024C794.77 1024 1024 794.77 1024 512C1024 229.23 794.77 0 512 0C229.23 0 0 229.23 0 512C0 794.77 229.23 1024 512 1024Z" fill="black"/>
<path d="M44 620.06L140.334 485.448L140.025 536.391L46.7789 403.94H128.601L182.943 484.213L148.053 484.522L201.16 403.94H279.586L186.339 533.612V482.978L284.217 620.06H200.851L146.509 536.082L180.164 535.773L127.057 620.06H44Z" fill="#FF00FF"/>
<path d="M404.736 625C387.239 625 370.978 622.221 355.951 616.664C341.131 611.107 328.266 603.285 317.356 593.199C306.446 582.908 297.904 570.867 291.729 557.076C285.759 543.286 282.775 528.26 282.775 512C282.775 495.534 285.759 480.508 291.729 466.923C297.904 453.133 306.446 441.195 317.356 431.109C328.266 420.818 341.131 412.893 355.951 407.336C370.978 401.779 387.239 399 404.736 399C422.438 399 438.7 401.779 453.52 407.336C468.341 412.893 481.206 420.818 492.116 431.109C503.025 441.195 511.465 453.133 517.434 466.923C523.609 480.508 526.697 495.534 526.697 512C526.697 528.26 523.609 543.286 517.434 557.076C511.465 570.867 503.025 582.908 492.116 593.199C481.206 603.285 468.341 611.107 453.52 616.664C438.7 622.221 422.438 625 404.736 625ZM404.736 566.03C411.529 566.03 417.807 564.795 423.57 562.325C429.54 559.855 434.686 556.356 439.009 551.828C443.537 547.094 447.036 541.434 449.506 534.847C451.977 528.055 453.212 520.439 453.212 512C453.212 503.561 451.977 496.048 449.506 489.462C447.036 482.669 443.537 477.009 439.009 472.481C434.686 467.747 429.54 464.145 423.57 461.675C417.807 459.205 411.529 457.97 404.736 457.97C397.943 457.97 391.562 459.205 385.593 461.675C379.829 464.145 374.683 467.747 370.154 472.481C365.832 477.009 362.435 482.669 359.965 489.462C357.495 496.048 356.26 503.561 356.26 512C356.26 520.439 357.495 528.055 359.965 534.847C362.435 541.434 365.832 547.094 370.154 551.828C374.683 556.356 379.829 559.855 385.593 562.325C391.562 564.795 397.943 566.03 404.736 566.03Z" fill="#FF0080"/>
<path d="M553.144 620.06V403.94H613.044L722.964 535.464H695.175V403.94H766.191V620.06H706.291L596.371 488.536H624.16V620.06H553.144Z" fill="#FFA500"/>
<path d="M867.993 484.213H964.327V536.699H867.993V484.213ZM872.933 565.104H981V620.06H801.3V403.94H976.986V458.896H872.933V565.104Z" fill="#FFFF28"/>
</g>
<defs>
<clipPath id="clip0_159_116">
<rect width="1024" height="1024" fill="white"/>
</clipPath>
</defs>
</svg>
