<svg width="1024" height="1024" viewBox="0 0 1024 1024" fill="none" xmlns="http://www.w3.org/2000/svg">
<g clip-path="url(#clip0_107_311)">
<path d="M1024 512C1024 229.23 794.77 0 512 0C229.23 0 0 229.23 0 512C0 794.77 229.23 1024 512 1024C794.77 1024 1024 794.77 1024 512Z" fill="#00A3FF"/>
<path opacity="0.6" d="M722.024 475.624L727.756 484.418C792.408 583.596 777.968 713.484 693.04 796.696C643.078 845.652 577.596 870.132 512.112 870.138L722.024 475.624Z" fill="white"/>
<path opacity="0.2" d="M512.088 595.528L722 475.624L512.088 870.138V595.528Z" fill="white"/>
<path d="M301.976 475.624L296.244 484.418C231.592 583.596 246.032 713.484 330.96 796.696C380.922 845.652 446.404 870.132 511.888 870.138L301.976 475.624Z" fill="white"/>
<path opacity="0.6" d="M511.828 595.528L301.916 475.624L511.828 870.138V595.528Z" fill="white"/>
<path opacity="0.2" d="M512.166 327.666V534.466L692.982 431.132L512.166 327.666Z" fill="white"/>
<path opacity="0.6" d="M512.112 327.666L331.166 431.13L512.112 534.466V327.666Z" fill="white"/>
<path d="M512.112 153.75L331.166 431.198L512.112 327.444V153.75Z" fill="white"/>
<path opacity="0.6" d="M512.166 327.412L693.12 431.17L512.166 153.584V327.412Z" fill="white"/>
</g>
<defs>
<clipPath id="clip0_107_311">
<rect width="1024" height="1024" fill="white"/>
</clipPath>
</defs>
</svg>
