<?xml version="1.0" encoding="UTF-8"?>
<svg width="200px" height="200px" viewBox="0 0 200 200" version="1.1" xmlns="http://www.w3.org/2000/svg" xmlns:xlink="http://www.w3.org/1999/xlink">
    <title>pFET</title>
    <defs>
        <linearGradient x1="73.6030662%" y1="5.86412217%" x2="26.4426677%" y2="94.3102781%" id="linearGradient-1">
            <stop stop-color="#00EAFF" offset="0%"></stop>
            <stop stop-color="#0080FF" offset="25.2530882%"></stop>
            <stop stop-color="#8000FF" offset="49.7394282%"></stop>
            <stop stop-color="#E619E6" offset="74.9912298%"></stop>
            <stop stop-color="#FF0000" offset="99.9136118%"></stop>
        </linearGradient>
    </defs>
    <g id="Page-1" stroke="none" stroke-width="1" fill="none" fill-rule="evenodd">
        <g id="pFET">
            <circle id="bg" fill="url(#linearGradient-1)" cx="100" cy="100" r="100"></circle>
            <path d="M154.460048,95.5430308 C155.46392,97.0453282 155.999999,98.8124746 155.999999,100.61919 C155.999999,103.043034 155.036971,105.367318 153.323433,107.081496 C151.609894,108.793758 149.285608,109.756786 146.862403,109.756786 C145.05505,109.756786 143.288543,109.221983 141.785606,108.216835 C140.283309,107.212963 139.11223,105.785972 138.420434,104.117107 C137.728637,102.446966 137.548029,100.610257 137.90031,98.8367274 C138.253229,97.0644757 139.123081,95.436454 140.401374,94.1587985 C141.67903,92.881143 143.30705,92.0112919 145.07994,91.6577343 C146.852192,91.3054544 148.68954,91.4860614 150.359044,92.178497 C152.028548,92.8696563 153.455538,94.0407335 154.460049,95.5430308 L154.460048,95.5430308 Z M154.460048,141.786245 C155.46392,143.288543 155.999999,145.055689 155.999999,146.862404 C155.999999,149.286248 155.036971,151.610533 153.323433,153.32471 C151.609894,155.036973 149.285608,156 146.862403,156 C145.05505,156 143.288543,155.465198 141.785606,154.460049 C140.283309,153.456177 139.11223,152.029186 138.420434,150.360321 C137.728637,148.69018 137.548029,146.853471 137.90031,145.079942 C138.253229,143.30769 139.123081,141.679668 140.401374,140.402013 C141.67903,139.124357 143.30705,138.254506 145.07994,137.900949 C146.852192,137.548669 148.68954,137.729276 150.359044,138.421711 C152.028548,139.112871 153.455538,140.283948 154.460049,141.786245 L154.460048,141.786245 Z M134.070679,44 L156,44 L156,65.9293212 L134.070679,65.9293212 L134.070679,44 Z M108.889432,141.786245 C109.893305,143.288543 110.429383,145.055689 110.429383,146.862404 C110.429383,149.286248 109.466356,151.610533 107.752817,153.32471 C106.039278,155.036973 103.714992,156 101.291787,156 C99.4844346,156 97.717927,155.465198 96.2149908,154.460049 C94.7126935,153.456177 93.5416148,152.029186 92.8498181,150.360321 C92.1580214,148.69018 91.9774129,146.853471 92.3296942,145.079942 C92.682613,143.30769 93.5524656,141.679668 94.8307585,140.402013 C96.108414,139.124357 97.7364342,138.254506 99.5093248,137.900949 C101.281577,137.548669 103.118924,137.729276 104.788428,138.421711 C106.457932,139.112871 107.884923,140.283948 108.889434,141.786245 L108.889432,141.786245 Z M90.3271501,89.6548822 L112.256471,89.6548822 L112.256471,111.584203 L90.3271501,111.584203 L90.3271501,89.6548822 Z M89.7180026,44 L112.865619,44 L112.865619,67.1476162 L89.7180026,67.1476162 L89.7180026,44 Z M44.0713179,44.0207907 L68.4372304,44.0207907 L68.4372304,68.3867032 L44.0713179,68.3867032 L44.0713179,44.0207907 Z M44,134.070679 L65.9293212,134.070679 L65.9293212,156 L44,156 L44,134.070679 Z M44,89.0457347 L67.1476162,89.0457347 L67.1476162,112.193351 L44,112.193351 L44,89.0457347 Z" id="FET" fill="#FFFFFF" fill-rule="nonzero"></path>
        </g>
    </g>
</svg>