<?xml version="1.0" encoding="UTF-8"?>
<svg width="1024px" height="1024px" viewBox="0 0 1024 1024" version="1.1" xmlns="http://www.w3.org/2000/svg" xmlns:xlink="http://www.w3.org/1999/xlink">
    <title>eUSDT</title>
    <g id="Page-1" stroke="none" stroke-width="1" fill="none" fill-rule="evenodd">
        <g id="eUSDT">
            <circle id="Oval" fill="#627EEA" fill-rule="nonzero" cx="512" cy="512" r="512"></circle>
            <g id="USDT" transform="translate(87.000000, 87.000000)">
                <circle id="Oval" fill="#009393" cx="425" cy="425" r="425"></circle>
                <path d="M671.644373,198.082596 L671.644373,287.416777 L487.418864,287.416777 L487.418864,349.355306 C616.805856,355.974239 713.881455,383.159799 714.60177,415.744532 L714.60177,483.672736 C713.877386,516.257469 616.805856,543.442009 487.418864,550.060942 L487.418864,702.064897 L365.089528,702.064897 L365.089528,550.060942 C235.701518,543.442009 138.625919,516.257469 137.905605,483.672736 L137.905605,415.744532 C138.629989,383.159799 235.701518,355.974239 365.089528,349.355306 L365.089528,287.416777 L180.863002,287.416777 L180.863002,198.082596 L671.644373,198.082596 Z M487.418864,397.562353 L487.418864,462.411581 C467.704834,463.420229 447.240985,463.951579 426.254196,463.951579 C405.26639,463.951579 384.802541,463.420229 365.089528,462.411581 L365.089528,397.562353 C255.103208,403.188956 168.469117,423.676033 144.517644,449.708124 C172.762517,480.406104 288.173578,503.393894 426.254196,503.393894 C564.333797,503.393894 679.745876,480.406104 707.989731,449.708124 C684.038258,423.676033 597.404166,403.188956 487.418864,397.562353 Z" id="Shape" fill="#FFFFFF"></path>
            </g>
        </g>
    </g>
</svg>