<?xml version="1.0" encoding="UTF-8"?>
<svg width="911px" height="838px" viewBox="0 0 911 838" version="1.1" xmlns="http://www.w3.org/2000/svg" xmlns:xlink="http://www.w3.org/1999/xlink">
    <title>PLN</title>
    <defs>
        <linearGradient x1="76.2262818%" y1="8.13145089%" x2="23.6511094%" y2="91.8930887%" id="linearGradient-1">
            <stop stop-color="#00EAFF" offset="0%"></stop>
            <stop stop-color="#0080FF" offset="25%"></stop>
            <stop stop-color="#8000FF" offset="50%"></stop>
            <stop stop-color="#E619E6" offset="75%"></stop>
            <stop stop-color="#FF0000" offset="100%"></stop>
        </linearGradient>
    </defs>
    <g id="Page-1" stroke="none" stroke-width="1" fill="none" fill-rule="evenodd">
        <g id="PLN">
            <path d="M238.771294,0 L676.228707,1 C692.545069,1 707.622006,9.75995286 715.780185,23.9800708 L908.156704,359.296094 C910.017091,362.827866 911,366.899527 911,371.175781 C911,385.053923 899.820542,396.304374 886.029978,396.304374 L710,396 C705.333333,402.666667 703,410.666667 703,420 C703,429.333333 705.333333,437 710,443 L886.029978,441.695626 C899.820542,441.695626 911,452.946077 911,466.824219 C911,471.109749 910.014212,475.183691 908.144694,478.719161 L712.780185,815.019929 C704.622006,829.240048 689.545069,838 673.228707,838 L237.771294,838 C221.454933,838 206.377993,829.240048 198.219814,815.019929 L2.83733889,476.687208 C0.973279959,473.157615 0,469.103262 0,464.824219 C0,451.084859 10.9569874,439.920897 24.5570959,439.698992 L202,440 C206.666667,436 209,428.666667 209,418 C209,407.333333 206.666667,399.333333 202,394 L24.9700208,394.304374 C11.1794586,394.304374 0,383.053923 0,369.175781 C0,364.932311 0.947148349,360.918917 2.77686335,357.410781 L199.219814,22.9800708 C207.377993,8.75995286 222.454933,0 238.771294,0 Z M364.669866,148.823799 C361.918758,148.777701 359.647384,150.963056 359.58729,153.713894 L358.11603,221.061141 L357.344094,221.061498 C348.204764,221.048256 312.566015,220.482539 250.427847,219.364347 C247.666862,219.315133 245.389055,221.513779 245.34023,224.274771 C245.339676,224.30612 245.339416,224.337474 245.339763,224.368829 L245.377445,268.218617 C245.380534,270.964074 247.597188,273.193066 250.342589,273.210937 C274.79883,273.394291 286.811869,273.71622 286.381706,274.176722 C308.640996,274.57615 309.495015,291.504588 309.438361,303.340655 C309.400591,311.231367 307.974179,401.398334 305.159125,573.841558 C304.061194,580.83471 299.750329,591.939464 284.198094,591.69211 C284.340933,591.823275 283.100653,591.891019 280.477256,591.895343 L279.985034,591.89543 C274.487516,591.888805 263.623908,591.636127 247.39421,591.137395 C244.634052,591.053769 242.329498,593.224362 242.246873,595.984549 C242.245412,596.03334 242.244666,596.08215 242.245486,596.130964 L242.202655,638.555954 C242.200711,641.280505 244.380951,643.504591 247.105001,643.556878 C310.65574,644.808533 346.609392,645.534693 354.965958,645.735358 L353.520723,712.090758 C353.460593,714.851527 355.649894,717.138317 358.410663,717.198447 L358.432117,717.198868 L404.25931,718.000244 C407.020312,718.048525 409.297686,715.849431 409.345967,713.088429 C409.346245,713.072531 409.346447,713.056631 409.346573,713.040731 L409.865861,647.678946 C414.623961,647.861385 420.530591,647.9241 426.834332,647.932012 L428.949255,647.932708 C442.069272,647.925586 456.514426,647.717384 465.758362,647.871962 L466.151574,713.97766 C466.167735,716.694488 468.350403,718.901236 471.066889,718.947204 L518.021929,719.741764 C520.782957,719.788485 523.059088,717.588104 523.10581,714.827076 C523.106444,714.789597 523.106657,714.752112 523.106448,714.714629 L522.727124,646.615499 C615.208027,642.940645 663.856845,620.609868 670.381706,533.176722 C675.381706,466.176722 622.381706,433.176722 572.381706,427.176722 C622.381706,400.176722 657.940975,381.502033 653.66134,315.339378 C649.381706,249.176722 599.720088,231.26838 528.89082,223.797727 L530.340891,156.474265 C530.400355,153.713482 528.210503,151.427219 525.44972,151.367755 L525.425188,151.367287 L477.469021,150.569789 C474.717796,150.524037 472.44665,152.70985 472.387056,155.46081 L470.979155,220.452755 C461.347999,220.284114 446.683269,220.239016 433.628277,220.237802 L431.468489,220.237992 C425.754877,220.23951 420.432141,220.248823 416.083507,220.258936 L417.511163,154.735075 C417.571316,151.974306 415.382034,149.687498 412.621266,149.627345 C412.612884,149.627163 412.604502,149.627001 412.596119,149.626861 L364.669866,148.823799 Z" id="bg" fill="url(#linearGradient-1)" fill-rule="nonzero"></path>
            <path d="M430,452 C358.666667,549.333333 319.666667,603 313,613 C307.748039,620.877941 310.784443,630.253812 315,633 C318.811078,635.482693 323.029118,632.122059 333,625 C354,610 408.598407,566.522575 468,525 C529.961787,481.687813 591.362881,442.594929 598,438 C611,429 614,419 589,414 C572.333333,410.666667 537,403 483,391 C540.333333,310.333333 571.666667,266.666667 577,260 C585,250 577,236 563,245 C549,254 320.140026,398.655228 312,404 C303.859974,409.344772 301,414.666667 301,419 C301,423.333333 300,427 312,429 C320,430.333333 359.333333,438 430,452 Z" id="Lightning" fill="#FFAD31"></path>
        </g>
    </g>
</svg>