<?xml version="1.0" encoding="UTF-8"?>
<svg width="269px" height="228px" viewBox="0 0 269 228" version="1.1" xmlns="http://www.w3.org/2000/svg" xmlns:xlink="http://www.w3.org/1999/xlink">
    <title>HOC</title>
    <defs>
        <linearGradient x1="55.3805705%" y1="50.0001503%" x2="94.5359943%" y2="50.0001503%" id="linearGradient-1">
            <stop stop-color="#06B2BC" offset="0%"></stop>
            <stop stop-color="#01F6D9" offset="100%"></stop>
        </linearGradient>
    </defs>
    <g id="Page-1" stroke="none" stroke-width="1" fill="none" fill-rule="evenodd">
        <g id="logo-hoc-optimized" transform="translate(0.941155, 0.708323)" fill="url(#linearGradient-1)" fill-rule="nonzero">
            <path d="M117.468,47.8066298 C112.227,46.9936298 107.628,44.5196298 102.521,43.3066298 C94.025,41.2916298 84.349,41.6216298 76.2,44.8216298 C67.486,48.2426298 59.503,54.2086298 53.143,61.0356298 C49.008,65.4756298 44.986,71.9896298 39.318,74.5436298 C31.374,78.1216298 22.356,74.5216298 14.135,74.5216298 C11.616,74.5216298 6.415,74.0936298 4.874,76.6336298 C6.024,76.3596298 7.124,76.6316298 8.286,76.6336298 C11.886,76.6396298 17.106,77.0436298 19.983,79.4486298 C21.813,80.9786298 22.84,83.5926298 24.418,85.4066298 C27.303,88.7226298 31.287,90.2746298 35.582,90.7416298 C42.582,91.5016298 49.838,91.4076298 56.866,91.0996298 C62.486,90.8536298 68.003,90.8096298 73.6,90.0726298 C81.143,89.0806298 88.587,86.9166298 96.184,86.3966298 C101.409,86.0376298 106.57,86.4366298 111.782,86.5446298 C102.537,95.7886298 91.375,105.30163 88.122,118.55163 C86.973,123.22563 87.906,128.65963 88.67,133.33663 C88.825,134.28163 90.004,137.74963 89.01,138.25863 C87.702,138.93063 85.76,139.07163 84.324,139.38263 C81.445,140.00463 78.588,140.72863 75.712,141.36663 C73.942,141.75963 71.677,142.77963 69.863,142.66663 C69.106,142.61863 68.419,141.90863 67.751,141.58763 C66.543,141.00763 65.194,140.66463 63.851,140.64763 C61.973,140.62663 60.168,141.02363 58.653,142.19563 C57.596,143.01363 56.572,144.82463 55.078,144.79363 C52.457,144.73863 49.784,142.36963 47.118,141.88463 C40.397,140.66463 33.087,140.77763 26.321,141.43263 C21.173,141.93063 16.033,142.55963 10.886,143.05763 C7.745,143.36163 5.188,142.93663 3.412,146.00963 L13.81,145.84663 L13.81,146.00963 L5.524,147.07863 L2.147,147.66363 L0.65,150.39663 L9.423,149.73163 L20.147,148.93363 L20.147,149.09663 L14.46,150.00363 L0,152.50863 L0.162,154.13363 L14.297,153.97063 L14.297,154.13363 C9.697,154.33063 4.851,155.71763 0.325,156.57063 L0.943,160.95663 L1.42,162.57463 L3.574,162.46463 L9.098,161.76963 L9.098,161.93163 L1.787,164.20663 L2.274,165.66863 L13.485,163.00863 L22.909,160.79463 L22.909,160.95663 L15.597,163.23163 L3.087,167.29363 L4.125,169.13063 L6.661,168.69463 L12.835,167.29363 L12.835,167.45563 L4.874,171.03063 C5.105,172.01463 6.494,174.59563 7.637,174.65363 C9.337,174.74163 11.912,173.02463 13.485,172.39463 C18.431,170.41463 23.461,167.72263 28.595,166.31863 L28.595,166.48063 L23.071,169.20263 L8.286,176.71663 L8.286,176.87963 C9.879,177.39863 11.432,178.03963 12.998,178.63563 C13.665,178.88863 14.543,179.40163 15.272,179.32163 C16.415,179.19663 17.812,178.23263 18.847,177.73363 C21.156,176.61963 23.503,175.56263 25.833,174.49263 C34.738,170.40263 44.481,166.20563 52.153,160.01363 C53.405,159.00363 54.637,157.95363 55.49,156.57063 C56.249,155.33863 56.595,153.71563 57.855,152.85463 C60.029,151.36963 63.887,153.23863 66.451,152.38663 C68.069,151.84863 68.603,150.04563 70.033,149.49963 C73.163,148.30663 76.835,147.95263 80.099,147.20363 C84.212,146.25963 88.567,144.72863 92.772,144.38463 C93.075,146.43663 94.184,148.50263 95.002,150.39663 C96.612,154.12763 98.349,157.80563 99.79,161.60663 C100.656,163.89363 101.97,167.35163 100.83,169.73063 C99.398,172.72063 96.117,174.16963 93.422,175.74163 L93.422,175.90463 C98.691,175.48863 103.995,175.19463 109.182,174.04863 C112.449,173.32663 116.021,171.37463 119.418,172.00563 C118.732,173.81363 116.948,175.38163 115.518,176.62363 C112.235,179.47463 108.775,181.55063 104.633,182.94463 C103.479,183.33363 102.119,183.98863 100.896,184.05763 C100.154,184.09963 99.654,183.41963 99.109,183.01463 C98.239,182.36963 97.24,181.83263 96.184,181.57463 C92.714,180.72663 90.346,182.89063 87.411,184.31163 C85.378,185.29463 83.235,186.03163 81.074,186.67363 C80.362,186.88363 78.792,186.94663 78.317,187.55863 C77.782,188.24663 78.151,190.13463 77.987,191.01463 L84.973,189.06463 C84.817,189.90463 84.949,190.86663 84.65,191.66463 C84.098,193.13263 82.911,194.43263 82.049,195.72663 C80.189,198.51463 78.284,201.30263 77.188,204.49963 C76.503,206.49663 76.688,208.59463 76.688,210.67363 L76.688,220.58463 C77.928,220.24563 81.322,219.49163 82.044,218.40463 C82.836,217.21263 82.204,213.88463 82.212,212.46063 C82.226,209.52063 83.678,206.67863 85.347,204.33763 C85.854,203.62563 86.524,202.44163 87.411,202.17563 C88.293,201.91063 89.787,202.48663 90.66,202.71263 C91.9,200.69463 93.186,198.70463 94.449,196.70163 C95.009,195.81163 95.535,194.52163 96.377,193.86863 C97.125,193.28763 98.38,193.09863 99.271,192.80163 C101.232,192.14863 103.174,191.43463 105.121,190.73963 C110.725,188.73863 116.367,186.48663 121.692,183.82563 C125.839,181.75363 129.943,179.54563 134.202,177.71563 C136.462,176.74563 138.872,175.61463 141.352,175.41763 C140.888,177.02763 139.804,178.53763 138.947,179.96663 C136.515,184.01963 133.012,189.62463 128.191,191.04963 C125.335,191.89463 122.007,190.29463 119.255,191.81163 C117.529,192.76363 116.64,194.65063 115.341,196.05163 C113.284,198.27063 110.341,200.40163 107.395,201.25063 L108.532,203.85063 L114.869,200.43763 C116.207,204.65963 113.035,208.45463 112.215,212.46063 C111.565,215.63363 113.092,219.65463 114.638,222.37163 C115.596,224.05663 116.949,226.06463 118.93,226.60763 C120.433,227.01963 122.256,226.52463 121.941,224.64663 C121.648,222.89863 120.703,221.31763 120.256,219.60963 C119.841,218.02563 119.886,216.04763 119.906,214.41063 C119.925,212.83563 120.248,210.77963 121.856,210.05863 C123.315,209.40463 125.278,209.87363 126.491,208.66863 C127.853,207.31663 128.781,204.94363 128.671,203.03763 C128.627,202.24763 127.919,201.37763 128.142,200.60063 C128.542,199.20363 130.676,198.14663 131.766,197.33063 C141.418,190.10263 150.48,182.18663 160.849,175.96963 C164.712,173.65263 169.613,172.12263 173.034,169.19463 C175.117,167.41163 176.551,164.82863 177.421,162.25663 L177.583,162.25663 L178.396,169.08063 L178.558,169.08063 C179.297,167.41463 179.716,165.60763 180.291,163.88063 C181.829,159.26363 184.646,152.74563 182.377,147.95963 C181.065,145.18963 177.636,143.35463 175.309,141.49263 C170.873,137.94463 166.691,134.20763 162.961,129.92463 C168.548,128.59063 174.649,128.65163 180.345,128.10963 C182.756,127.87963 185.995,127.31563 188.143,128.71363 C190.67,130.35763 190.743,133.40963 190.743,136.09863 C194.359,134.08563 198.001,131.45563 201.142,128.76563 C203.087,127.10063 205.058,124.54963 207.478,123.58563 C209.275,122.86963 210.848,124.50063 212.353,125.25263 C214.829,126.49163 218.796,127.91463 221.613,127.27563 C223.389,126.87363 224.793,124.03263 225.683,122.61363 C226.106,121.93963 226.49,121.01263 227.307,120.75563 C230.592,119.72363 234.607,119.76763 238.023,119.31763 C245.12,118.38463 252.211,117.41763 259.307,116.48463 C261.327,116.21963 264.487,116.41463 266.287,115.43563 C267.891,114.56463 267.677,111.71863 266.764,110.44263 C265.355,108.47563 260.686,110.04463 258.658,110.31063 C250.642,111.36463 242.628,112.42463 234.612,113.46863 C231.822,113.83263 228.132,114.99363 225.351,114.60863 C224.394,114.47663 223.803,113.49263 223.076,112.95563 C222.202,112.31063 221.051,112.13663 219.989,112.24263 C218.318,112.40863 216.726,113.09263 215.277,113.90863 C214.217,114.50663 212.977,115.37063 211.703,115.01163 C208.808,114.19363 206.018,111.06163 203.742,109.19663 C199.102,105.39463 194.058,102.07963 189.606,98.0526298 C186.287,95.0496298 184.996,91.5166298 183.294,87.5186298 C181.163,82.5146298 179.054,77.4206298 177.367,72.2466298 C176.387,69.2386298 175.647,64.7186298 177.832,62.0166298 C179.459,60.0056298 182.072,60.5006298 184.245,61.1046298 C185.355,61.4136298 186.767,62.0956298 187.812,61.2906298 C191.155,58.7136298 188.789,52.1326298 194.156,51.4976298 C194.966,51.4016298 195.8,51.6256298 196.593,51.7746298 C196.593,49.9326298 196.221,45.3006298 198.224,44.2936298 C199.097,43.8546298 201.039,44.9836298 201.954,45.2146298 C204.43,45.8426298 207.414,46.3416298 209.916,45.6006298 L209.916,45.4386298 C206.692,45.1816298 202.222,43.9296298 200.979,40.7266298 C209.114,37.5716298 217.657,33.9976298 224.863,29.0246298 C226.714,27.7466298 228.401,26.2206298 229.623,24.3166298 C230.009,23.7176298 230.732,22.6596298 230.445,21.9036298 C230.139,21.0966298 228.999,21.5456298 228.438,21.7536298 C226.624,22.4296298 224.985,23.5276298 223.238,24.3526298 C215.862,27.8366298 207.028,30.0766298 198.868,28.6566298 C197.37,28.3966298 196.609,27.1436298 195.59,26.1506298 C193.674,24.2826298 191.59,22.6016298 189.444,21.0076298 C184.028,16.9836298 178.798,13.1836298 174.009,8.39462981 C172.538,6.92362981 171.083,5.47462981 169.785,3.84462981 C168.822,2.63462981 167.983,1.17462981 166.535,0.48662981 C164.706,-0.38337019 162.146,0.15662981 160.199,0.26462981 C155.525,0.52462981 150.853,1.66362981 146.551,3.49562981 C144.212,4.49262981 141.976,5.65962981 140.615,7.90662981 C138.488,11.4186298 137.757,16.3366298 136.595,20.2546298 C136.367,21.0226298 135.308,23.7086298 136.111,24.3096298 C136.981,24.9606298 138.636,22.9246298 139.075,22.3666298 C140.755,20.2336298 142.023,17.6996298 143.431,15.3806298 C143.881,14.6386298 144.421,13.1616298 145.414,13.0666298 C146.704,12.9436298 148.358,13.6546298 149.638,13.8776298 C151.71,14.2386298 154.315,14.3346298 156.137,15.4576298 C160.497,18.1436298 161.263,25.2726298 161.892,29.8406298 C162.267,32.5596298 163.094,37.0596298 161.638,39.5826298 C161.158,40.4156298 160.061,40.7276298 159.224,41.0746298 C157.318,41.8616298 155.381,42.5116298 153.537,43.4486298 C152.889,43.7786298 151.813,44.1716298 151.43,44.8226298 C151.004,45.5466298 151.137,47.1916298 151.1,48.0376298 C139.862,48.0686298 128.692,49.5476298 117.468,47.8066298 Z M181.32,112.86463 C179.206,113.48863 176.232,111.82063 174.334,110.96463 C171.582,109.72463 167.896,108.41063 165.794,106.17463 C163.925,104.18763 163.28,101.06063 163.463,98.4046298 C163.652,95.6556298 166.817,92.4036298 169.783,94.0046298 C171.309,94.8296298 172.161,97.1156298 172.988,98.5676298 C174.172,100.64363 175.411,102.69163 176.641,104.74163 C178.159,107.27063 180.43,110.05163 181.321,112.86463 M166.048,123.42563 C163.018,124.66863 159.21,125.54463 155.974,124.55563 C152.499,123.49563 149.696,120.72263 147.201,118.22563 C145.195,116.22063 142.638,113.69963 142.213,110.75263 C141.759,107.60163 144.38,102.21063 148.338,103.55563 C150.248,104.20563 152.036,107.17063 153.348,108.64063 C155.171,110.68163 156.953,112.76063 158.762,114.81463 C161.027,117.38763 164.607,120.31763 166.048,123.42563" id="HOC"></path>
        </g>
    </g>
</svg>