<?xml version="1.0" encoding="UTF-8"?>
<svg width="100px" height="100px" viewBox="0 0 100 100" version="1.1" xmlns="http://www.w3.org/2000/svg" xmlns:xlink="http://www.w3.org/1999/xlink">
    <title>TWO</title>
    <g id="main" stroke="none" stroke-width="1" fill="none" fill-rule="evenodd">
        <g id="TWO" fill-rule="nonzero">
            <circle id="Oval" fill="#00CCFF" cx="50" cy="50" r="50"></circle>
            <path d="M71,72 L71,65.6081081 L37.2238095,65.6081081 L37.2238095,53.4054054 L69.6333333,53.4054054 L69.6333333,29 L30,29 L30,35.3918919 L62.5071429,35.3918919 L62.5071429,47.0135135 L30,47.0135135 L30,72 L71,72 Z M90,49.95116 C90,27.973138 72.026862,10 49.95116,10 C27.8754579,10 10,27.973138 10,49.95116 C10,72.1245421 27.8754579,90 49.95116,90 C72.026862,90 90,72.1245421 90,49.95116 Z M84,50.4514768 C84,69.5696203 68.4382979,85 49.4510638,85 C30.4638298,85 15,69.5696203 15,50.4514768 C15,31.5274262 30.4638298,16 49.4510638,16 C68.4382979,16 84,31.5274262 84,50.4514768 Z" id="Shape" fill="#FFFFFF"></path>
        </g>
    </g>
</svg>