<?xml version="1.0" encoding="UTF-8"?>
<svg width="1024px" height="1024px" viewBox="0 0 1024 1024" version="1.1" xmlns="http://www.w3.org/2000/svg" xmlns:xlink="http://www.w3.org/1999/xlink">
    <title>pSHIB</title>
    <defs>
        <linearGradient x1="76.2262818%" y1="0.519209642%" x2="23.6511094%" y2="99.5097915%" id="linearGradient-1">
            <stop stop-color="#00EAFF" offset="0%"></stop>
            <stop stop-color="#0080FF" offset="25.2530882%"></stop>
            <stop stop-color="#8000FF" offset="49.7394282%"></stop>
            <stop stop-color="#E619E6" offset="74.9912298%"></stop>
            <stop stop-color="#FF0000" offset="99.9136118%"></stop>
        </linearGradient>
    </defs>
    <g id="Page-1" stroke="none" stroke-width="1" fill="none" fill-rule="evenodd">
        <g id="pSHIB">
            <circle id="Oval" fill="url(#linearGradient-1)" fill-rule="nonzero" cx="512" cy="512" r="512"></circle>
            <g id="SHIB" transform="translate(110.000000, 52.000000)">
                <g id="Group_931" transform="translate(162.329168, 393.441896)" fill="#000000" fill-rule="nonzero">
                    <path d="M482.010947,47.0277284 C481.593628,49.251358 475.055634,55.9222468 468.517641,60.7864363 C449.32098,74.8230975 414.961737,87.8869209 380.04607,94.1408784 C360.153878,97.754277 340.261685,98.3101844 334.280117,95.3916703 C330.385142,93.4459949 329.828717,91.9172488 331.21978,86.9140832 C334.141011,76.4908197 343.600235,65.0947184 358.345497,54.3935007 C365.857234,48.9734038 396.321501,30.4894834 410.510338,22.7067809 C433.880186,9.92091062 452.798636,2.2771841 465.596409,0.470485835 C469.630491,-0.0854215669 474.499209,-0.22439868 476.029378,0.470485835 C478.533291,1.44332353 481.315415,8.80909582 482.428264,17.7036142 C482.98469,22.4288266 482.706478,43.2753537 482.010947,47.0277284 Z" id="Path_8575"></path>
                    <path d="M154.276639,93.0290636 C153.442002,94.6967858 149.268815,96.5034851 144.539202,97.1983696 C139.809589,97.8932531 125.342541,97.4763228 117.135272,96.5034851 C87.6447486,92.6121333 56.3458445,83.5786388 33.5324202,72.4604907 C20.7346466,66.2065332 11.5536347,59.9525747 4.73742801,53.1427098 L0.842453067,49.1123809 L0.425135298,43.8312611 C-0.270396767,34.6587895 -0.131290144,20.205197 0.98155969,15.0630544 C1.67709071,10.7547722 3.20725936,6.58546621 5.29385346,2.83309151 C6.40670329,1.44332353 6.40670329,1.44332353 11.4145281,1.44332353 C17.5352027,1.44332353 22.6821341,2.41616122 31.0285084,5.05672111 C48.1385758,10.3378409 73.5950185,23.1237112 104.61571,41.7466086 C130.211259,57.0340616 139.809589,64.538811 147.182221,74.8230975 C152.190045,81.2160321 155.528595,90.2495265 154.276639,93.0290636 Z" id="Path_8576"></path>
                    <path d="M351.251078,286.484832 C351.251078,286.901762 349.581804,293.572651 347.49521,301.494331 C345.408617,309.416012 343.739341,315.808946 343.739341,316.086899 C342.209173,316.225877 340.81811,316.364854 339.287941,316.225877 L334.836542,316.225877 L328.715867,330.679468 C325.377318,338.601149 322.31698,345.966921 321.899661,347.078736 L321.065024,349.024412 L318.143793,344.299199 L315.222561,339.573986 L315.222561,301.077401 L314.109711,301.355354 C311.744905,301.911261 294.91305,304.134891 287.540419,304.829775 C257.076152,307.887266 226.472778,307.192382 196.147617,302.8841 C191.278899,302.189215 187.105712,301.633308 186.966606,301.772285 C186.8275,301.911261 186.966606,310.80578 187.244819,321.784951 L187.662138,341.519662 L185.297331,345.13306 C184.045375,347.078736 182.793418,348.746458 182.793418,348.885435 C182.3761,349.302365 180.985038,347.078736 177.785594,340.685801 C174.307937,334.014912 171.804026,326.927093 169.995645,319.561321 L169.0219,315.530992 L164.709607,315.808946 L160.397314,316.225877 L159.284464,311.083733 C158.728039,308.304197 158.032508,303.995914 157.754296,301.633308 L157.336977,297.186049 L153.720214,293.989582 C151.63362,292.182882 149.547027,290.376184 149.129708,290.09823 C148.434177,289.542322 148.155965,288.569485 148.155965,287.735623 L148.155965,286.067901 L165.544244,286.206878 L182.932525,286.345855 L183.488949,288.152554 L184.045375,289.959253 L190.026943,290.237207 C193.365493,290.376184 203.937567,290.654137 213.396793,290.93209 L230.785072,291.349022 L235.236472,284.40018 L239.826978,277.451337 L245.66944,277.451337 L245.530334,262.997745 L245.391228,248.544153 L237.740384,245.208709 C213.118579,234.368515 198.65153,221.999576 193.226387,206.990077 C192.113537,203.932586 192.113537,202.820771 191.835325,188.923087 C191.696218,175.164379 191.696218,173.913588 192.669962,170.856097 C194.617449,163.907255 200.042592,158.487158 206.997905,156.680458 C209.362711,155.985575 215.622492,155.985575 248.451565,155.985575 L287.1231,156.124551 L291.435394,158.209205 C296.582325,160.710787 298.947132,162.517487 301.868362,166.408837 C305.206912,170.856097 306.180656,174.330518 306.180656,182.808105 C306.180656,194.899091 305.346018,205.322355 304.094062,209.49166 C302.285681,215.189711 299.503556,220.609808 296.0259,225.473997 C289.070588,234.368515 276.41192,243.263033 264.866101,247.293362 L261.527552,248.544153 L261.666658,263.136722 L261.805764,277.729291 L264.866101,278.007244 L267.926439,278.285198 L272.099627,284.539156 L276.133707,290.793114 L294.773943,290.793114 C305.067806,290.793114 314.109711,290.93209 314.944349,291.071067 C316.335411,291.349022 316.613624,291.210045 318.004686,288.847438 L319.673962,286.345855 L335.671179,286.345855 C347.634316,285.789948 351.251078,286.067901 351.251078,286.484832 Z" id="Path_8577"></path>
                    <path d="M277.802983,326.371186 C275.159964,327.899932 273.351582,328.594815 272.934263,328.316862 C272.516945,328.177885 270.569458,326.510163 268.482864,324.981418 L264.726996,321.923928 L260.832021,326.093233 C252.34654,335.265704 252.068328,335.682635 249.564415,335.821612 C245.66944,336.238542 244.834803,335.543657 240.105191,328.455839 C237.601278,324.842441 235.653791,321.784951 235.653791,321.784951 C235.653791,321.784951 233.845409,321.506996 231.758816,321.36802 L227.863841,320.951089 L226.055461,324.703464 L224.247079,328.455839 L221.047636,327.483001 C218.543723,326.64914 216.039811,325.676302 213.675005,324.564488 L209.501818,322.479834 L209.501818,314.558154 L246.504077,314.697131 L283.506338,314.836109 L283.645444,318.588483 C283.784551,323.035741 283.923657,322.896765 277.802983,326.371186 Z" id="Path_8578"></path>
                </g>
                <path d="M787.897756,550.261333 C787.758651,549.705425 787.758651,548.732586 787.619544,547.203841 C754.234046,543.590444 658.94627,541.366814 570.4747,614.329658 C570.4747,614.329658 541.95792,483.691424 408.415927,483.691424 C274.873934,483.691424 225.352112,614.329658 225.352112,614.329658 C150.512953,533.862065 50.3564598,539.699092 14.1888367,544.980212 C14.1888367,545.814073 14.0497305,546.786911 14.0497305,547.620772 C12.9368806,567.772414 13.4933055,577.361817 16.8318553,590.008709 C27.2648236,629.617111 59.3983655,673.255839 109.754825,716.060708 C192.244827,786.105038 304.086245,836.692609 388.801947,842.529636 C477.134411,848.505641 607.476961,796.945231 694.279255,721.619781 C707.911668,709.528796 720.709442,696.742926 732.672578,683.123195 C741.297166,673.116863 754.09494,655.883734 753.121196,655.883734 C752.842984,655.883734 753.121196,655.605781 753.677622,655.327826 C754.09494,655.049873 754.512258,654.632943 754.234046,654.354989 C754.09494,654.216012 754.373153,653.799081 754.790471,653.660104 C755.20779,653.521128 755.486002,653.243174 755.346896,652.965221 C755.20779,652.687266 755.346896,652.409313 755.903321,652.270336 C756.32064,652.131359 756.459746,651.714429 756.32064,651.436476 C756.181533,651.158521 756.32064,650.880568 756.598852,650.880568 C756.877064,650.880568 757.155278,650.463637 757.155278,650.185684 C757.155278,649.907729 757.43349,649.490799 757.711702,649.490799 C757.989914,649.490799 758.268128,649.212846 758.268128,648.934892 C758.685446,647.823077 759.380977,646.711262 760.076508,645.738424 C762.163101,642.541957 770.509477,627.671434 771.622327,625.169852 C779.551382,607.241839 784.559207,591.259501 786.924013,575.277165 C787.758651,567.633438 788.454182,553.596776 787.897756,550.261333 Z M440.132151,719.813083 C437.489132,721.341828 435.680751,722.036712 435.263432,721.758758 C434.846113,721.619781 432.898626,719.95206 430.812032,718.423314 L427.056164,715.365824 L423.161189,719.535129 C414.675708,728.7076 414.397496,729.124532 411.893583,729.263508 C407.998608,729.680439 407.163972,728.985554 402.434359,721.897735 C399.930446,718.284338 397.98296,715.226847 397.98296,715.226847 C397.98296,715.226847 396.174578,714.948893 394.087985,714.809916 L390.19301,714.392986 L388.384629,718.145361 L386.576247,721.897735 L383.376804,720.924898 C380.872891,720.091036 378.368979,719.118198 376.004173,718.006384 L371.830986,715.921731 L371.830986,708.000051 L408.833246,708.139027 L445.835507,708.278005 L445.974612,712.030379 C446.113719,716.477638 446.252826,716.338661 440.132151,719.813083 Z M509.685271,694.797251 C507.598678,702.71893 505.929403,709.111865 505.929403,709.389819 C504.399234,709.528796 503.008172,709.667773 501.478004,709.528796 L497.026603,709.528796 L491.045035,724.121365 C487.706486,732.043045 484.646149,739.408818 484.22883,740.520633 L483.394192,742.466308 L480.472961,737.741096 L477.55173,733.015883 L477.55173,694.519297 L476.43888,694.797251 C474.074074,695.353158 457.242218,697.576788 449.869587,698.271671 C419.405321,701.329163 388.801947,700.634278 358.476786,696.325996 C353.608068,695.631111 349.43488,695.075204 349.295774,695.214181 C349.156668,695.353158 349.295774,704.247676 349.573987,715.226847 L349.991306,734.961559 L347.6265,738.574956 C346.374543,740.520633 345.122587,742.188355 345.122587,742.327331 C344.705268,742.744262 343.314206,740.520633 340.114762,734.127697 C336.637106,727.456809 334.133194,720.36899 332.324813,713.003217 L331.351069,708.972889 L327.038775,709.250842 L322.726482,709.667773 L321.613633,704.52563 C321.057207,701.746093 320.361676,697.437811 320.083464,695.075204 L319.666145,690.627945 L316.049382,687.431477 C313.962788,685.624779 311.876195,683.81808 311.458876,683.540126 C310.763345,682.984218 310.485133,682.011381 310.485133,681.17752 L310.485133,679.509798 L327.873413,679.648775 L345.261693,679.787751 L345.818118,681.59445 L346.374543,683.40115 L352.356111,683.679103 C355.694662,683.81808 366.266736,684.096033 375.725961,684.373987 L393.11424,684.790918 L397.565641,677.842076 L402.156147,670.893234 L407.998608,670.893234 L407.859503,656.439641 L407.720396,641.98605 L400.069553,638.650605 C375.447748,627.810411 360.980699,615.441473 355.555555,600.431973 C354.442705,597.374483 354.442705,596.262668 354.164493,582.364983 C354.025386,568.606276 354.025386,567.355484 354.999131,564.297994 C356.946617,557.349151 362.371761,551.929054 369.327073,550.122355 C371.691879,549.427471 377.951661,549.427471 410.780733,549.427471 L449.452268,549.566448 L453.764562,551.651101 C458.911494,554.152683 461.2763,555.959383 464.197531,559.850734 C467.53608,564.297994 468.509824,567.772414 468.509824,576.250002 C468.509824,588.340988 467.675187,598.764251 466.42323,602.933557 C464.614849,608.631607 461.832724,614.051704 458.355068,618.915893 C451.399756,627.810411 438.741088,636.70493 427.19527,640.735258 L423.85672,641.98605 L423.995827,656.578618 L424.134932,671.171187 L427.19527,671.449141 L430.255607,671.727094 L434.428795,677.981053 L438.462876,684.23501 L457.103112,684.23501 C467.396975,684.23501 476.43888,684.373987 477.273517,684.512964 C478.664579,684.790918 478.942793,684.65194 480.333855,682.289335 L482.00313,679.787751 L498.000348,679.787751 C510.380803,679.787751 513.997565,679.926728 513.997565,680.343658 C513.580246,680.204682 511.771865,687.014547 509.685271,694.797251 Z" id="Path_8579" fill="#FFFFFF" fill-rule="nonzero"></path>
                <path d="M13.9106243,544.980212 C5.14693098,546.231004 0,547.620772 0,547.620772" id="Path_8580"></path>
                <path d="M800,549.010541 C800,549.010541 795.5486,548.037703 787.619544,547.203841" id="Path_8581"></path>
                <path d="M786.784907,536.085694 C786.506694,529.831736 785.95027,521.076194 785.532951,516.767912 C779.551382,453.672425 763.415058,402.112016 732.811685,347.494115 C731.559728,345.409463 730.446878,343.32481 729.751347,341.657088 C729.473135,341.240158 729.334029,340.823227 729.194922,340.545273 L729.194922,340.545273 C733.507216,327.620427 751.173709,273.558434 765.22344,211.713738 C784.280995,127.771724 796.383237,29.654071 759.380977,0.190979945 C759.380977,0.190979945 695.392106,-4.53423277 609.70266,79.4077814 C586.471917,102.616915 565.188663,127.771724 546.270214,154.594255 L540.288646,152.64858 C505.790297,141.391455 470.039993,134.442612 434.011476,132.080006 C423.161189,131.246144 382.681272,131.246144 369.46618,132.080006 C329.542688,134.720566 298.939315,140.696571 264.162754,152.787556 C262.771692,153.343463 261.519735,153.760394 260.267779,154.177325 C240.653799,127.49377 218.814118,102.477938 194.748739,79.5467583 C105.581638,-4.81218646 39.2279604,0.0520031001 39.2279604,0.0520031001 C2.50466314e-13,30.4879321 13.3541993,133.052844 33.6637107,219.774395 C47.01791,277.171833 63.4324467,327.620427 69.5531213,345.826393 C69.1358025,346.799232 68.579377,347.911047 68.0229526,348.883884 C35.6111981,414.480955 18.0838115,477.715419 13.9106243,544.980212 C50.2173535,539.699092 150.234741,533.723088 225.213006,614.329658 C225.213006,614.329658 274.734829,483.691424 408.276821,483.691424 C541.818814,483.691424 570.335593,614.329658 570.335593,614.329658 C658.807164,541.366814 754.09494,543.729421 787.480439,547.203841 C787.341332,544.424304 787.06312,540.254999 786.784907,536.085694 Z M95.8442006,293.432123 C95.8442006,293.432123 43.8184664,163.488774 57.1726656,89.2751374 C57.1726656,89.2751374 57.1726656,89.2751374 57.1726656,89.2751374 C59.3983655,76.7672214 63.5715533,65.7880507 70.1095467,57.4494399 C70.1095467,57.4494399 129.090592,63.2864674 224.239262,168.90887 C224.239262,168.90887 206.15545,177.664412 181.950965,196.287308 C181.950965,196.287308 181.811858,196.426285 181.672752,196.426285 C155.381673,216.577928 121.717961,248.542602 95.8442006,293.432123 L95.8442006,293.432123 Z M316.605808,486.470961 C315.77117,488.138683 311.597983,489.945381 306.86837,490.640266 C302.138758,491.33515 287.671709,490.91822 279.46444,489.945381 C249.973917,486.05403 218.675013,477.020535 195.861589,465.902388 C183.063815,459.648429 173.882803,453.394472 167.066596,446.584606 L163.171621,442.554278 L162.754304,437.273157 C162.058772,428.100685 162.197878,413.647094 163.310728,408.50495 C164.006259,404.196668 165.536428,400.027363 167.623022,396.274988 C168.735872,394.885219 168.735872,394.885219 173.743696,394.885219 C179.864371,394.885219 185.011302,395.858057 193.357677,398.498618 C210.467744,403.779738 235.924187,416.565607 266.944879,435.188505 C292.540427,450.475958 302.138758,457.980707 309.511389,468.264993 C314.519214,474.657929 317.857763,483.691424 316.605808,486.470961 Z M644.340115,440.469624 C643.922796,442.693254 637.384803,449.364143 630.846809,454.228332 C611.650148,468.264993 577.290905,481.328817 542.375239,487.582775 C522.483046,491.196173 502.590854,491.75208 496.609286,488.833566 C492.714311,486.887891 492.157885,485.359146 493.548948,480.355979 C496.470179,469.932716 505.929403,458.536614 520.674665,447.835398 C528.186402,442.415301 558.650669,423.93138 572.839506,416.148677 C596.209355,403.362808 615.127804,395.719081 627.925578,393.912382 C631.959659,393.356474 636.828377,393.217497 638.358546,393.912382 C640.862459,394.885219 643.644583,402.250993 644.757433,411.14551 C645.313858,415.870724 645.035646,436.71725 644.340115,440.469624 Z M621.248479,196.287308 L620.970265,196.148332 C597.600417,177.525435 580.073031,168.769893 580.073031,168.769893 C672.022256,63.1474905 728.91671,57.310463 728.91671,57.310463 C735.176491,65.7880507 739.210572,76.6282445 741.436272,89.1361605 C741.436272,89.1361605 741.436272,89.1361605 741.436272,89.1361605 C754.373153,163.349796 704.155799,293.432123 704.155799,293.432123 C683.150756,256.047351 654.912189,222.970862 621.248479,196.287308 L621.248479,196.287308 Z" id="Path_8582" fill="#FFA409" fill-rule="nonzero"></path>
                <path d="M546.131107,154.594255 C545.852895,154.872208 545.713789,155.28914 545.435576,155.567093" id="Path_8583"></path>
                <path d="M729.055816,340.406296 C728.360285,342.351973 728.082072,343.32481 728.082072,343.32481" id="Path_8584"></path>
                <g id="Group_934" transform="translate(580.073031, 57.310464)" fill-rule="nonzero">
                    <g id="Group_933">
                        <g id="Group_932" fill="#FF9300">
                            <path d="M161.502347,31.8256975 C150.65206,30.435929 99.3218572,30.1579754 41.1754478,138.976844 L40.8972353,138.837868 C17.5273865,120.214971 0,111.459429 0,111.459429 C91.9492263,5.83702748 148.843679,0 148.843679,0 C155.242566,8.47758752 159.276648,19.3177814 161.502347,31.8256975 Z" id="Path_8585"></path>
                        </g>
                        <path d="M124.221874,236.121659 C103.077726,198.597911 74.9782647,165.660398 41.1754478,138.976844 C99.3218572,30.1579754 150.512955,30.435929 161.502347,31.8256975 C161.502347,31.8256975 161.502347,31.8256975 161.502347,31.8256975 C174.439228,106.17831 124.221874,236.121659 124.221874,236.121659 Z" id="Path_8586" fill="#FF8300"></path>
                        <path d="M163.588941,32.242628 C162.89341,32.1036512 162.197878,31.9646743 161.502347,31.8256975 L163.588941,32.242628 Z" id="Path_8587" fill="#FF8300"></path>
                    </g>
                </g>
                <path d="M264.440967,160.014352 C263.049904,158.068677 261.519735,156.123 260.128673,154.177325" id="Path_8588"></path>
                <path d="M69.5531213,345.826393 C71.0832899,350.551607 72.0570332,353.053189 72.0570332,353.053189" id="Path_8589"></path>
                <g id="Group_937" transform="translate(54.946965, 57.310464)" fill-rule="nonzero">
                    <g id="Group_936">
                        <g id="Group_935" transform="translate(2.086594, 0.000000)" fill="#FF9300">
                            <path d="M167.205703,111.459429 C167.205703,111.459429 149.121892,120.214971 124.917405,138.837868 C124.917405,138.837868 124.7783,138.976844 124.639193,138.976844 C64.4061903,30.0189985 11.4067119,30.435929 0,31.8256975 C2.22569988,19.3177814 6.39888715,8.33861068 12.9368806,0 C13.0759868,0 72.0570336,5.83702748 167.205703,111.459429 Z" id="Path_8590"></path>
                        </g>
                        <path d="M126.864893,138.976844 C100.434707,159.267464 66.7709964,191.093162 40.8972353,236.121659 C40.8972353,236.121659 -11.1284994,106.17831 2.22569988,31.8256975 C2.22569988,31.8256975 2.22569988,31.8256975 2.22569988,31.8256975 C13.4933055,30.435929 66.6318902,30.1579754 126.864893,138.976844 Z" id="Path_8591" fill="#FF8300"></path>
                        <path d="M2.22569988,31.8256975 C1.53016866,31.9646743 0.695531212,32.1036512 0,32.242628 L2.22569988,31.8256975 Z" id="Path_8592" fill="#FF8300"></path>
                    </g>
                </g>
                <path d="M563.519388,365.561105 C563.519388,365.561105 519.00539,368.340642 524.56964,333.596431 C530.133889,298.85222 564.910451,294.682914 574.647887,296.072683 C584.385324,297.462451 623.335072,311.360136 616.379759,340.545273 C609.424448,369.73041 599.687011,364.171337 594.122761,365.561105 C588.558511,366.950874 563.519388,365.561105 563.519388,365.561105 Z" id="Path_8593" fill="#FFFFFF" fill-rule="nonzero"></path>
                <path d="M235.228656,365.561105 C235.228656,365.561105 190.714658,368.340642 196.278907,333.596431 C201.843158,298.85222 236.619718,294.682914 246.357155,296.072683 C256.094592,297.462451 295.04434,311.360136 288.089028,340.545273 C281.133715,369.73041 271.396278,364.171337 265.832029,365.561105 C260.267779,366.950874 235.228656,365.561105 235.228656,365.561105 Z" id="Path_8594" fill="#FFFFFF" fill-rule="nonzero"></path>
            </g>
        </g>
    </g>
</svg>