<?xml version="1.0" encoding="UTF-8"?>
<svg width="686px" height="686px" viewBox="0 0 686 686" version="1.1" xmlns="http://www.w3.org/2000/svg" xmlns:xlink="http://www.w3.org/1999/xlink">
    <title>MORE</title>
    <g id="Page-1" stroke="none" stroke-width="1" fill="none" fill-rule="evenodd">
        <g id="MORE">
            <circle id="Oval" fill="#0DFF00" cx="343" cy="343" r="343"></circle>
            <path d="M281.25,237.85 C282.044,238.644 282.011,239.681 281.129,241.615 C280.480585,243.037831 279.139825,251.865078 278.101902,261.474649 L278.004,262.392 C276.754,274.244 275.202,283.437 273.512,289 C272.091,293.675 270.232,300.65 269.38,304.5 C268.526,308.356 266.734,312.945 265.389,314.718 C263.695,316.95 262.99,319.095 263.088,321.718 C263.252,326.089 260.215,340.552 256.657,352.346 C251.839,368.316 250.758,372.799 251.452,373.922 C251.839,374.548 250.995,377.039 249.577,379.458 C248.16,381.877 247,384.614 247,385.541 C247,386.468 245.221,392.688 243.046,399.363 C237.039,417.804 232.995,431.332 232.991,433 C232.989,433.825 232.263,435.85 231.377,437.5 C230.491,439.15 228.441,444.1 226.822,448.5 C223.785,456.753 223.52,457.604 222.541,462.25 C222.223,463.762 221.408,465.001001 220.731,465.001001 C219.797,465.001001 219.669,462.894 220.201,456.251 C220.454936,453.076468 220.873752,447.322158 221.286431,441.385456 L221.366182,440.234783 L221.445504,439.083418 C221.603535,436.78257 221.75734,434.500745 221.897,432.377 C222.445,424.059 223.769,413.709 224.839,409.377 C225.91,405.045 227.038,398.508 227.346,394.851 C227.654,391.194 228.902,384.444 230.121,379.851 C231.339,375.258 232.24,369.555 232.123,367.178 C232.005,364.785 232.807,360.46 233.918,357.489 C235.253915,353.919493 236.793228,348.683442 237.964768,344.052109 L238.161894,343.264514 C239.257319,338.839845 239.974887,335.10831 239.791,334.152 C239.558342,332.944166 235.256747,340.216388 230.67082,348.807475 L230.312966,349.479455 C229.835237,350.378651 229.3555,351.290077 228.877999,352.205699 L228.520358,352.893078 L228.163955,353.581277 L227.588462,354.699412 C223.5791,362.519448 220.01246,370.11524 219.524,372.5 C218.961,375.25 217.262,379.117 215.75,381.094 C214.238,383.071 213,385.582 213,386.674 C213,387.98408 210.030829,393.314137 206.715692,398.580147 L206.281536,399.266318 C202.505587,405.204176 198.43328,410.83328 197.854,410.254 C197.355,409.755 196.697,406.906 196.392,403.923 C196.154,401.603667 195.28142,395.528272 194.269704,389.060944 L194.12428,388.134737 C194.099903,387.980046 194.07546,387.825223 194.050958,387.670315 L193.754545,385.810193 L193.605023,384.882487 C193.530123,384.419571 193.455056,383.958333 193.38,383.5 C189.946,362.529 189.238,347.81 191.357,341.431 C192.565,337.793 192.754,335.628 192.07,333.243 C191.498,331.251 191.497,328.755 192.065,326.773 C192.574,324.998 192.723,322.702 192.396,321.671 C191.962,320.304 190.715,322.192 187.791,328.648 C184.464,335.993 183.728,338.783 183.466,345.033 C183.425908,345.991013 183.374441,346.868855 183.298582,347.710868 L183.254707,348.16686 C182.766977,352.923067 181.401526,356.768434 176.713,368.033 C174.59756,373.11607 172.159224,379.210592 169.731502,385.434992 L169.261843,386.6411 C169.183618,386.842309 169.105427,387.043594 169.02728,387.244926 L168.325468,389.057364 C168.24769,389.258707 168.16999,389.460009 168.09238,389.661238 L167.62788,390.867512 C167.478445,391.256201 167.329429,391.644399 167.180913,392.031891 L166.736946,393.192034 C162.461334,404.382131 158.674471,414.798065 157.356,419.207 C156.071,423.504 154.474,425.808 153.475,424.808 C152.806,424.139 158.722,379.648 159.832,377 C160.788,374.72 161.915,369.253 163.957,357 C164.369,354.525 165.712,350.25 166.94,347.5 C168.169,344.75 170.727,334.227 172.625,324.115 C173.197679,321.062321 173.885281,317.724843 174.620178,314.385808 L174.897849,313.134151 C176.52899,305.838843 178.346,298.705509 179.641,294.699 C182.151,286.937 183.041,282.642 182.647,280.21 C182.263,277.846 182.704,275.54 184.043,272.916 C185.119,270.806 186,268.211 186,267.15 C186,266.803896 186.125985,266.130956 186.349299,265.21501 L186.459174,264.775315 C187.119777,262.189396 188.415984,258.029466 189.835162,253.79521 L190.109245,252.981048 L190.228751,252.628272 L190.589111,251.57247 C192.837494,245.022012 195.166137,238.926314 195.65,238.917 C196.118,238.908 196.86,241.285 197.299,244.2 C197.739,247.115 198.965,252.2 200.025,255.5 C201.309,259.498 202.09,265.393 202.366,273.167 C202.593,279.584 203.08,285.32 203.447,285.914 C203.814,286.507 204.31,290.372 204.549,294.502 C204.789,298.632 205.742,305.496 206.668,309.756 C207.594,314.015 208.251,318.85 208.13,320.5 C208.08127,321.15967 208.056655,322.152163 208.052398,323.396275 L208.052073,324.099347 C208.060864,327.97695 208.236158,333.859015 208.485452,339.7464 L208.533039,340.849859 C208.541107,341.033616 208.549242,341.217257 208.55744,341.40072 L208.607375,342.498875 C209.0295,351.62425 209.597,360 209.957,360 C210.363,360 211.469,358.087 212.413,355.75 C213.358,353.412 215.195,349.417 216.497,346.871 C217.799,344.326 219.184,340.536 219.575,338.45 C219.967,336.365 221.572,332.214 223.143,329.227 C224.715,326.241 226,323.229 226,322.536 C226,321.842 227.3,319.64 228.888,317.641 C230.477,315.642 232.055,312.543 232.395,310.753 C232.705689,309.123022 235.348195,304.545276 238.470253,300.162332 L238.930348,299.522681 C239.084711,299.310171 239.24,299.098489 239.396,298.888 C243.358,293.541 246.386,288.232 247.382,284.888 C248.462,281.257 251.678,275.874 257.243,268.381 C269.369428,252.050034 273.181811,246.883796 275.738559,243.229534 L275.909102,242.98536 C276.162304,242.622207 276.404287,242.272296 276.642351,241.925648 L276.814278,241.674883 L277.156486,241.173403 L277.328,240.921 C279.377,237.902 280.457,237.057 281.25,237.85 Z M461.01,222.625 C461.49,223.114 461.031,229.902 459.971,238 C459.952684,238.139912 459.934422,238.279692 459.916216,238.419308 L459.807694,239.254782 C458.837673,246.751765 458.054947,253.585632 458.036,254.767 L458,257.034 L462.983,254.509 C473.054,249.405 486.41,247.602 495.5,250.118 C501.192,251.694 508.172,259.044 510.856,266.288 C513.725,274.032 513.562,277.632 510.001,285.16 C508.351,288.647 506.982,292.4 506.959,293.5 C506.935,294.6 506.148,296.923 505.208,298.662 C504.085576,300.740545 498.757135,306.677192 493.256446,312.340037 L492.568255,313.046167 C486.945464,318.796373 481.318323,324.081838 479.978,324.507 C478.065,325.114 477.882,325.686 478.429,329.348 C478.77,331.631 479.392,336.2 479.811,339.5 C480.23,342.8 481.13,346.503 481.811,347.729 C482.501,348.972 482.762,351.102 482.4,352.541 C481.997,354.147 482.434,356.636 483.555,359.122 C485.129,362.612 485.192,363.58 484.052,366.732 C482.786,370.234 482.842,370.423 485.882,372.922 C487.989,374.654 489.015,376.383 489.009,378.191 C489.004,379.671 489.407,381.134 489.904,381.441 C490.402,381.748 490.81,385.037 490.811,388.75 C490.812,392.849 491.634,398.053 492.902,402 C496.067,411.85 496.011,411.805 501.813,409.088 L506.757,406.772 L508.892,398.636 C510.066,394.161 511.021,389.108 511.014,387.407 C511.006,385.705 511.923,381.655 513.051,378.407 C514.18,375.158 515.463,369.8 515.902,366.5 C516.342,363.2 516.882,359.825 517.101,359 C517.439,357.731 515.848,357.515 506.75,357.6 C500.837,357.655 496,357.396 496,357.024 C496,355.652 500.627,352.067 504.82,350.191 C507.362,349.054 510.181,346.726 511.669,344.537 C513.06,342.49 515.719,340.18 517.579,339.402 C521.657,337.699 523.894,334.529 524.67,329.356 C524.935,327.5885 526.214583,323.011972 527.708403,318.401301 L527.966435,317.611083 C528.182963,316.953153 528.402929,316.297762 528.624,315.653 C531.881,306.153 532.59,300.322 531.124,295.078 C530.547,293.017 529.423,292.45 523.561,291.265 C519.774,290.499 515.286,289.297 513.588,288.593 L510.5,287.312 L520.517,282.311 L520.885084,282.127588 L521.625222,281.761119 L521.810856,281.66968 L522.740669,281.214435 C527.577751,278.857938 532.380933,276.699533 534.064,276.144 C538.067,274.823 543.244,269.074 547.477,261.25 C549.04,258.362 550.685,256 551.133,256 C551.582,256 552.688,254.537 553.592,252.75 C554.496,250.962 556.983,247.208 559.118,244.408 C561.253,241.607 563,238.842 563,238.265 C563,237.258 565.229,236 567.012,236 C567.479,236 567.451,237.427 566.951,239.172 C566.368934,241.200461 565.893683,245.421285 565.612182,249.821403 L565.56014,250.674736 L565.520125,251.395305 C565.405472,253.556381 565.339733,255.703057 565.333109,257.599127 L565.333104,258.221545 C565.343799,261.181905 565.510879,263.423652 565.877,263.959 C566.746,265.227 567.825,265.172 574.131,263.536 C578.199,262.481 585.365,261.582 590.443,261.489 C595.424,261.398 600.762,260.802 602.305,260.165 C605.014,259.047 612.666,259.335 639,261.546 C647.414,262.252 659,265.83 659,267.722 C659,269.295 656.473,269.823 646.5,270.332 C637.278,270.804 629.613,272.255 618.982,275.544 C614.848,276.823 608.998,278.184 605.982,278.568 C602.967,278.953 596.498,280.594 591.607,282.216 C586.716,283.838 579.141,285.525 574.775,285.965 C570.408,286.405 566.309,287.287 565.667,287.925 C564.98713,288.600783 563.164701,295.376403 561.48326,303.009231 L561.306842,303.815626 C561.189652,304.355031 561.073377,304.897752 560.958462,305.441977 L560.789824,306.246436 C560.62228,307.051555 560.458177,307.858009 560.298941,308.659965 L560.141382,309.460205 C559.855692,310.92377 559.587965,312.365682 559.347,313.75 C558.657,317.711 558.039,317.674 574.042,314.632 C585.176,312.515 588.624,312.305 606.478,312.655 C617.466,312.87 628.266,313.511 630.478,314.079 C638.044,316.023 641.018,317.161 640.543,317.931 C640.281,318.354 635.89,319.251 630.784,319.924 C625.678,320.597 617.45,322.212 612.5,323.512 C611.978947,323.648947 611.450416,323.786305 610.919507,323.922859 L610.122,324.126937 C605.865928,325.210521 601.621053,326.203895 600,326.486 C598.075,326.821 594.475,327.934 592,328.96 C589.525,329.986 583.718,331.517 579.095,332.362 C573.194,333.44 567.843,335.328 561.13,338.699 L551.569,343.5 L547.679,353.5 C545.54,359 543.197,367.1 542.472,371.5 C541.747,375.9 540.423,381.225 539.529,383.333 C537.917,387.135 537.921,387.16 540.079,386.475 C549.588,383.457 560.763,380.785 567.348,379.955 C571.665,379.411 577.013,378.558 579.233,378.059 C581.806,377.481 584.218,377.521 585.885,378.169 C587.323,378.729 595.475,379.286 604,379.408 C604.31554,379.41252 604.630604,379.417712 604.945065,379.423558 L605.886514,379.443047 C620.916702,379.785774 634.26604,381.59956 631.915,383.053 C631.195,383.498 627.432,383.856 623.553,383.849 C617.608,383.839 614.169,384.652 601.665,389.026 C590.574,392.906 586.037,394.057 583.685,393.587 C581.239,393.098 576.639,394.445 563.02,399.639 C553.384,403.313 544.6,407.111 543.5,408.08 C542.4,409.048 539.475,410.632 537,411.6 C530.49,414.146 525.99,417.161 521.829,421.767 C517.622,426.424 509.017,443.238 505.59,453.5 C504.025,458.186 502.671,460.615 501.494,460.849 C499.937,461.158 499.802,460.587 500.318,455.849 C501.586,444.179 502.775,436.173 503.385,435.187 C503.737,434.616 503.492,432.979 502.84,431.548 C501.872,429.424 501.962,428.303 503.327,425.44 C504.247,423.51 505,421.722 505,421.466 C505,420.425 498.974,421.211 490,423.423 C484.775,424.71 480.163,425.565 479.75,425.323 C478.122,424.366 479.206,423.245 483.874,421.059 C486.554,419.804 490.04,417.746 491.62,416.486 L494.493,414.195 L488.497,405.538 C485.198,400.777 480.448,393.421 477.941,389.191 C475.433,384.961 471.742,379.118 469.739,376.207 C467.735,373.296 466.345,370.265 466.649,369.472 C466.954,368.679 466.018,366.622 464.57,364.901 C462.929,362.95 462.154,361.09 462.513,359.96 C463.396,357.177 460.573,351.508 455.359,345.595 C450.834,340.461 450.469,340.26 446.569,340.757 C445.905889,340.841444 445.271134,340.926503 444.703495,341.006298 L444.095259,341.093536 C443.583406,341.168556 443.153202,341.236107 442.843406,341.290311 L442.634241,341.328369 C442.448864,341.363741 442.336667,341.390778 442.314,341.407 C442.297,341.419 442.228389,341.603889 442.115222,341.939 L442.042032,342.157912 C441.41464,344.05052 439.7932,349.2998 437.958,355.399 C437.649327,356.425173 437.328748,357.467982 437.001865,358.511223 L436.720265,359.405158 C436.295942,360.745085 435.863842,362.078076 435.435869,363.369693 L435.151295,364.224264 C433.638225,368.745254 432.210769,372.646462 431.404,374.38 C430.092,377.196 429.015,381.101 429.01,383.059 C429.004,385.016 428.339,387.491 427.532,388.559 C426.724,389.626 426.049,392.233 426.032,394.352 C426.011,396.827 423.79,403.261 419.816,412.352 C416.415,420.133 411.802,431.871 409.566,438.435 C403.478,456.303 401.3,454.726 404.462,434.739 C405.0241,431.1823 405.84688,424.43962 406.573963,417.60139 L406.697602,416.428763 C406.963167,413.888541 407.21272,411.3595 407.428,409 C407.487071,408.351786 407.548918,407.698602 407.613152,407.043297 L407.711245,406.059104 C407.761138,405.566569 407.812264,405.073641 407.86446,404.581522 L407.970229,403.598719 C408.773466,396.241133 409.792768,389.245857 410.475,386.668 C411.323,383.461 411.75,380.404 411.422,379.875 C411.095,379.345 411.265,378.37 411.798,377.706 C412.332,377.043 413.095,374.925 413.492,373 C413.89,371.075 415.01,368.15 415.98,366.5 C417.228,364.379 417.928,360.313 418.371,352.619 L418.997,341.739 L415.748,342.353 C413.962,342.691 409.575,343.634 406,344.448 C398.691,346.114 392,346.44 392,345.13 C392,344.457888 397.35855,340.795905 403.231851,337.193562 L403.874383,336.800962 C403.981735,336.735617 404.089198,336.670328 404.196745,336.605115 L405.166111,336.020701 L405.857832,335.607859 C409.428454,333.485905 412.925522,331.549867 415.286,330.469 C418.319,329.081 421.271,327.378 421.845,326.686 C422.527958,325.863264 423.870329,320.866187 425.014026,315.598973 L425.197613,314.743078 C426.196274,310.02942 427,305.26875 427,303.231 C427,301.382 427.534,298.886 428.187,297.684 C428.84,296.483 429.698,293.25 430.093,290.5 C430.488,287.75 431.127,284.713 431.513,283.75 C432.458,281.391 431.072,281.463 416.126,284.554 C413.093411,285.181232 410.263309,285.713798 408.035447,286.087369 L407.512528,286.173941 C405.042953,286.577297 403.426786,286.759786 403.288,286.621 C402.242,285.575 404.255,284.101 411.288,280.761 C415.312,278.85 420.156,275.938 422.052,274.289 C423.948,272.64 427.075,270.551 429,269.648 C434.129,267.242 440.771,260.783 441.572,257.423 C441.955,255.815 442.835,253.825 443.528,253 C444.845,251.431 450.137,241.645 456.439,229.125 C458.529,224.972 460.526,222.133 461.01,222.625 Z M130.378,229.521 C129.572,233.359 128.512,241.45 128.022,247.5 C127.908047,248.906977 127.774353,250.363332 127.629282,251.800945 L127.540942,252.660718 C127.078155,257.085632 126.522116,261.199512 126.122,262.973 C125.567,265.433 125.287,267.62 125.5,267.834 C125.714,268.047 128.701,267.272 132.138,266.111 C140.811,263.182 147.027,263.31 150.813,266.496 C157.207,271.876 160.107,288.448 156.201,297.279 C152.772,305.031 139,318.137 139,313.648 C139,312.876 139.708,311.657 140.573,310.939 C145.79,306.61 147.874,293.874 144,290 C142.895,288.895 140.667,288 139.02,288 C135.201,288 128.142,290.728 125.26,293.317 C122.101,296.156 119.387,304.081 118.171,314.017 C117.599,318.698 116.651,323.788 116.065,325.329 C114.471,329.522 114.597,329.704 119.988,330.997 C122.732,331.655 126.095,333.074 127.462,334.149 C128.829,335.224 132.322,336.897 135.224,337.866 C139.476,339.287 140.843,340.318 142.268,343.18 C143.795,346.247 143.881,347.467 142.897,352.116 C142.27,355.077 141.095,358.85 140.286,360.5 C137.864,365.437 111.333,390.544 104.932,393.956 C99.3958625,396.906112 97.8956098,398.762115 94.4964534,408.859655 L94.2126726,409.70834 C93.9724219,410.431363 93.7225,411.19425 93.461,412 C92.479,415.025 89.894,421.325 87.716,426 C85.539,430.675 82.515,438.1 80.997,442.5 C79.119,447.943 77.673,450.612 76.473,450.851 C75.257,451.094 74.884,450.745 75.274,449.729 C75.3147694,449.622755 75.3566919,449.468218 75.3995797,449.269076 L75.4514962,449.00893 C75.9052459,446.572861 76.4552502,439.471651 76.8899517,431.85071 L76.9395859,430.9693 L76.9639966,430.527307 L77.0283647,429.333246 C77.0429897,429.057029 77.0574358,428.780727 77.0716931,428.504533 L77.1138894,427.676467 C77.1416297,427.124894 77.1685758,426.574522 77.1946493,426.026891 L77.2330951,425.207691 C77.6422881,416.359459 77.810656,408.438123 77.401,408.051 C76.419,407.122 69.318,408.126 55.876,411.095 C45.336,413.423 34.039,413.588 29.95,411.474 C26.444,409.661 26.112,408.005 29.25,407.989 C33.69,407.966 60.656,398.087 68.329,393.672 C76.643,388.888 79.613,386.592 81.115,383.786 C81.6243976,382.833711 83.0096262,377.077706 84.3082016,371.034911 L84.5022177,370.126906 C84.5344053,369.975401 84.5665086,369.823858 84.5985127,369.672348 L84.7892256,368.764242 C85.9880052,363.022523 87,357.531542 87,356.164 C87,354.435 86.297,354.2 81.12,354.2 C73.957,354.2 67.816,351.637 63.109,346.683 C58.949,342.304 57.796,335.15 60.293,329.205 C61.148,327.167 62.106,323.987 62.422,322.139 C63.2,317.57 70.844,306.318 76.834,300.922 C83.242,295.149 94.096,286.055 101,280.674 C106.034,276.751 106.722,275.715 109.121,268.444 C113.447,255.335 126.628,224.358 129.198,221.262 C131.385,218.626 131.903,222.253 130.378,229.521 Z M355.5,247.456 C361.95,248.1 373.537,253.823 379.409,259.265 C385.269,264.696 390.595,273.731 392.04,280.692 C393.964,289.959 391.655,311.924 387.505,323.846 C382.695,337.661 380.629,342.159 376.763,347.224 C374.374,350.354 372.525,354.675 370.613,361.599 C369.109,367.045 366.279,374.425 364.324,378 C357.313,390.818 342.99,407.266 328.985,418.582 C322.249,424.024 310.664,430.161 307.332,430.053431 C306.324,430.019 302.09,429.881 297.922,429.746 C291.364,429.533 289.847,429.121 286.657,426.688 C282.236,423.315 279.419,417.993 274.649,404 C266.673,380.605 266.157,370.936 271.883,352.203 C272.006173,351.799904 272.129146,351.395796 272.25161,350.991765 L272.495766,350.184128 L272.738013,349.378632 C274.546319,343.350277 276.146981,337.665865 276.494,336 C278.374,326.979 297.4,296.345 304.945,290.194 C307.100667,288.435633 308.877883,286.517477 308.993969,285.836929 L309.005196,285.716397 C309.129469,285.003852 311.466892,282.246973 314.307,279.474 C317.225,276.624 320.923,271.704 322.524,268.54 C326.195,261.284 332.261,255.922 342.482,250.899 C349.461,247.469 351.148,247.022 355.5,247.456 Z M341.584,284.532 C339.433,285.272 336.735,286.978 335.587,288.324 C334.439,289.67 331.025,292.555 328,294.735 C318.337,301.697 311.825,310.299 308.493,320.5 C308.255294,321.227941 307.739554,322.519239 307.015982,324.218259 L306.76719,324.799486 C304.973113,328.970794 302.089978,335.267776 299.009626,341.713301 L298.346856,343.096039 L297.902619,344.018255 C297.82846,344.171895 297.75425,344.325485 297.68,344.479 L288.5,363.457 L288.501,371.479 C288.502,380.093 290.526,385.903 297.094,396.144 C301.968,403.743 310.138,405.453 318.41,400.605 C328.691,394.58 349,368.446 349,361.241 C349,360.239 351.191,355.949 353.868,351.708 C359.86,342.22 362.384,333.922 361.48,326.685 C361.011,322.935 361.285,320.328 362.454,317.406 C363.7,314.293 363.837,312.701 363.04,310.606 C362.468,309.101 361.99,306.212 361.978,304.185 C361.965,301.999 361.13,299.483 359.928,298 C358.813,296.625 356.792,293.813 355.438,291.75 C353.502,288.803 352.335,288 349.987,288 C347.697,288 347,287.547 347,286.059 C347,283.289 346.012,283.01 341.584,284.532 Z M108.52,350.25 C108.29,350.938 107.595,355.1 106.975,359.5 C106.356,363.9 105.588,368.597 105.269,369.939 C104.75,372.12 105.352,371.857 110.977,367.439 C117.387,362.404 122,356.774 122,353.983 C122,350.385 109.62,346.956 108.52,350.25 Z M93.493,311.07 C86.754,315.994 84.063,319.144 83.386,322.899 C83.029,324.88 82.302,327.34 81.771,328.367 C80.552,330.721 82.3,332.549 86.635,333.454 C89.214,333.992 90.112,333.672 91.706,331.647 C92.4720976,330.673244 93.9278275,326.274455 95.2429119,321.568491 L95.4606479,320.781854 C97.0457412,315.000167 98.3518293,309.018366 97.863,308.529 C97.656,308.322 95.689,309.465 93.493,311.07 Z M466.5,275.062 C463.2,276.674 459.768,277.995 458.872,277.997 C456.312,278.002 455.151,280.116 453.05,288.598 C452.355773,291.400021 451.568056,295.016371 450.811874,298.756627 L450.650363,299.559756 C448.853233,308.54358 447.287794,317.954485 447.667,318.333 C447.888,318.554 451.991,317.641 456.784,316.304 C465.349,313.915 465.652,313.723 474.272,305.187 C483.739,295.811 484.559,294.2 485.636,282.86 C486.229,276.619 486.124,276.131 483.883,274.719 C482.573,273.893 479.475,272.972 477,272.673 C473.349,272.232 471.367,272.683 466.5,275.062 Z" fill="#000000"></path>
        </g>
    </g>
</svg>