<?xml version="1.0" encoding="UTF-8"?>
<svg width="1024px" height="1024px" viewBox="0 0 1024 1024" version="1.1" xmlns="http://www.w3.org/2000/svg" xmlns:xlink="http://www.w3.org/1999/xlink">
    <title>pCRO</title>
    <defs>
        <linearGradient x1="76.2262818%" y1="0.519209642%" x2="23.6511094%" y2="99.5097915%" id="linearGradient-1">
            <stop stop-color="#00EAFF" offset="0%"></stop>
            <stop stop-color="#0080FF" offset="25.2530882%"></stop>
            <stop stop-color="#8000FF" offset="49.7394282%"></stop>
            <stop stop-color="#E619E6" offset="74.9912298%"></stop>
            <stop stop-color="#FF0000" offset="99.9136118%"></stop>
        </linearGradient>
    </defs>
    <g id="Page-1" stroke="none" stroke-width="1" fill="none" fill-rule="evenodd">
        <g id="pCRO" fill-rule="nonzero">
            <path d="M512,1024 C795.73504,1024 1024,795.73504 1024,512 C1024,228.26496 795.73504,0 512,0 C228.26496,0 0,228.26496 0,512 C0,795.73504 228.26496,1024 512,1024 Z" id="Path" fill="url(#linearGradient-1)"></path>
            <path d="M694.356195,206 L328.439282,206 L285.936824,392.568874 L739.22468,392.568874 L694.356195,206 Z M284.77532,456.350898 L393.354474,524.867079 L393.354474,648.858988 L475.993363,727.96247 L475.993363,764.587639 L396.925024,839 L329.600786,839 L162,547.289774 L284.77532,456.350898 Z M739.22468,455.145839 L862,547.246736 L695.560718,837.751904 L629.441003,837.751904 L550.372665,764.544602 L550.372665,727.919432 L631.807031,648.81595 L631.807031,524.824041 L739.22468,455.145839 Z M630.645526,420.930786 L591.756637,524.867079 L603.543756,641.800788 L421.746805,641.800788 L433.533923,524.867079 L394.558997,420.930786 L630.645526,420.930786 Z" id="CRO" fill="#FFFFFF"></path>
        </g>
    </g>
</svg>