<?xml version="1.0" encoding="UTF-8"?>
<svg width="100px" height="100px" viewBox="0 0 100 100" version="1.1" xmlns="http://www.w3.org/2000/svg" xmlns:xlink="http://www.w3.org/1999/xlink">
    <title>HDRN</title>
    <defs>
        <linearGradient x1="25.0045223%" y1="93.2909751%" x2="74.9917832%" y2="6.71021596%" id="linearGradient-1">
            <stop stop-color="#56BEF0" offset="0%"></stop>
            <stop stop-color="#5A9CFA" offset="33%"></stop>
            <stop stop-color="#6D5AFA" offset="67%"></stop>
            <stop stop-color="#9256F0" offset="100%"></stop>
        </linearGradient>
    </defs>
    <g id="Page-1" stroke="none" stroke-width="1" fill="none" fill-rule="evenodd">
        <g id="HDRN" fill-rule="nonzero">
            <path d="M37.0645027,1.7149513 C63.7317796,-5.42870819 91.1401334,10.3972599 98.2847269,37.0646241 C105.429321,63.7319883 89.6024468,91.1404317 62.9351699,98.2850487 C36.2688505,105.428708 8.85953926,89.6027401 1.71494569,62.9353759 C-5.42869042,36.2689692 10.3972258,8.85956826 37.0645027,1.7149513 Z" id="path16" fill="url(#linearGradient-1)"></path>
            <path d="M51.8314642,88.9899614 L51.8314642,71.659813 L81.8479489,71.659813 L51.8314642,88.9899614 Z M18.144064,71.659813 L48.1950174,71.659813 L48.1950174,89.0100682 L18.144064,71.659813 Z M32.5222953,34.3176519 L17.7333121,28.5661491 L45.2421996,12.6836905 L32.5222953,34.3176519 L32.5222953,34.3176519 Z M67.051306,34.4105262 L54.0326731,12.2700649 L82.2462538,28.5604043 L67.051306,34.4114837 L67.051306,34.4105262 Z M66.4117203,40.4971424 L82.595728,68.0233543 L52.9277601,68.0233543 L66.4117203,40.4971424 Z M47.0805297,68.0233543 L16.921383,68.0233543 L33.2691169,40.219477 L47.0786148,68.0233543 L47.0805297,68.0233543 Z M36.4325767,34.8433012 L49.7595129,12.1762331 L63.0864492,34.8433012 L36.4316193,34.8433012 L36.4325767,34.8433012 Z M50.0027087,65.7311789 L36.4680029,38.4797599 L63.3507091,38.4797599 L50.0027087,65.7311789 Z M84.6858711,31.6922781 L84.6858711,64.3993426 L68.9212325,37.5883584 L84.6801263,31.5199341 C84.6829987,31.5773821 84.6858711,31.6348301 84.6858711,31.6922781 L84.6858711,31.6922781 Z M15.3099717,31.6922781 C15.3099717,31.636745 15.3128441,31.5821694 15.3157165,31.5266363 L30.6581136,37.4935692 L15.3099717,63.596028 L15.3099717,31.6922781 Z M12.0670424,70.5347896 C12.590775,71.9872667 13.6133462,73.2405907 14.986349,74.0343306 L46.6870122,92.3363077 C47.7086259,92.9261072 48.8537524,93.221007 49.9988789,93.221007 C51.1440054,93.221007 52.2891318,92.9261072 53.3107455,92.3363077 L85.0114087,74.0343306 C87.0546361,72.8547316 88.3232754,70.6563879 88.3232754,68.2971898 L88.3232754,31.6932356 C88.3232754,30.4686356 87.9805034,29.2871216 87.3658118,28.2693344 C87.3351729,28.2138013 87.3016617,28.1601832 87.2662355,28.1094375 C86.7042044,27.2362278 85.9382335,26.4913186 85.0123662,25.9570522 L53.3088306,7.65411761 C52.2201945,7.02506195 50.9908112,6.73207712 49.7710025,6.77324819 C49.7671727,6.77324819 49.7643003,6.77324819 49.7604704,6.77324819 C49.7020651,6.77324819 49.6446173,6.77707806 49.5871695,6.78282286 C48.5799178,6.8450582 47.5841556,7.13517063 46.6850972,7.65411761 L14.9834766,25.9560947 C14.0576093,26.4903612 13.2916384,27.2352703 12.7296072,28.10848 C12.6932236,28.1611407 12.6587549,28.2157163 12.6271586,28.2731643 C12.0134244,29.289994 11.6716099,30.469593 11.6716099,31.6932356 L11.6716099,68.2971898 C11.6716099,68.997098 11.7836332,69.6826442 11.9942752,70.3318066 C12.0134244,70.4007443 12.0364036,70.4687244 12.06417,70.5347896" id="path" fill="#FFFFFF"></path>
        </g>
    </g>
</svg>