<svg width="40" height="40" viewBox="0 0 40 40" fill="none" xmlns="http://www.w3.org/2000/svg">
<g clip-path="url(#clip0_46_15)">
<path d="M40 20C40 8.9543 31.0457 0 20 0C8.9543 0 0 8.9543 0 20C0 31.0457 8.9543 40 20 40C31.0457 40 40 31.0457 40 20Z" fill="#2876C9"/>
<path d="M39.875 20C39.875 9.02334 30.9767 0.125 20 0.125C9.02334 0.125 0.125 9.02334 0.125 20C0.125 30.9767 9.02334 39.875 20 39.875C30.9767 39.875 39.875 30.9767 39.875 20Z" stroke="black" stroke-opacity="0.1" stroke-width="0.25"/>
<path fill-rule="evenodd" clip-rule="evenodd" d="M24.1784 6.00494C24.2793 5.99508 24.3809 6.01192 24.4732 6.05377C27.4322 6.99686 30.0146 8.85651 31.8471 11.3639C33.6796 13.8713 34.6672 16.8964 34.6672 20.0021C34.6672 23.1077 33.6796 26.1329 31.8471 28.6403C30.0146 31.1476 27.4322 33.0073 24.4732 33.9504C24.3809 33.9922 24.2793 34.0091 24.1784 33.9992C24.0776 33.9893 23.9811 33.9531 23.8987 33.8942C23.8163 33.8353 23.7509 33.7557 23.7089 33.6635C23.667 33.5713 23.6501 33.4697 23.6598 33.3688V32.2302C23.6582 32.0638 23.7075 31.9009 23.8014 31.7635C23.8952 31.626 24.0289 31.5207 24.1844 31.4616C26.5341 30.6036 28.5633 29.0441 29.997 26.9943C31.4307 24.9445 32.1996 22.5035 32.1996 20.0021C32.1996 17.5006 31.4307 15.0597 29.997 13.0099C28.5633 10.9601 26.5341 9.40051 24.1844 8.54251C24.0338 8.47638 23.9047 8.36927 23.812 8.23339C23.7192 8.09751 23.6665 7.93831 23.6598 7.77393V6.63529C23.6501 6.53446 23.667 6.43283 23.7089 6.34062C23.7509 6.2484 23.8163 6.16884 23.8987 6.10992C23.9811 6.051 24.0776 6.01479 24.1784 6.00494ZM15.8156 31.462C13.4659 30.604 11.4367 29.0444 10.003 26.9946C8.56935 24.9448 7.80041 22.5038 7.80041 20.0024C7.80041 17.501 8.56935 15.06 10.003 13.0102C11.4367 10.9604 13.4659 9.40084 15.8156 8.54284C15.9662 8.47671 16.0953 8.36961 16.188 8.23372C16.2808 8.09784 16.3335 7.93864 16.3402 7.77426V6.63562C16.3499 6.53479 16.333 6.43316 16.2911 6.34095C16.2491 6.24873 16.1837 6.16917 16.1013 6.11025C16.0188 6.05133 15.9224 6.01512 15.8216 6.00527C15.7207 5.99541 15.6191 6.01226 15.5268 6.05411C12.5678 6.99719 9.98543 8.85684 8.15292 11.3642C6.32041 13.8716 5.33276 16.8968 5.33276 20.0024C5.33276 23.108 6.32041 26.1332 8.15292 28.6406C9.98543 31.148 12.5678 33.0076 15.5268 33.9507C15.6191 33.9925 15.7207 34.0094 15.8216 33.9995C15.9224 33.9897 16.0188 33.9535 16.1013 33.8946C16.1837 33.8356 16.2491 33.7561 16.2911 33.6638C16.333 33.5716 16.3499 33.47 16.3402 33.3692V32.2305C16.3335 32.0662 16.2808 31.907 16.188 31.7711C16.0953 31.6352 15.9662 31.5281 15.8156 31.462ZM25.348 22.9015C25.348 20.0549 23.6156 19.0952 20.2648 18.6357C17.7882 18.2778 17.3124 17.6963 17.3124 16.5414C17.3124 15.3865 18.1501 14.6667 19.7524 14.6667C21.2123 14.6667 22.0541 15.175 22.3997 16.3503C22.4364 16.4789 22.5136 16.5923 22.6198 16.6736C22.726 16.7549 22.8556 16.7998 22.9894 16.8017H24.2704C24.354 16.8034 24.437 16.7867 24.5135 16.7527C24.59 16.7187 24.658 16.6682 24.7128 16.6049C24.7675 16.5416 24.8076 16.4671 24.8303 16.3865C24.8529 16.3059 24.8575 16.2214 24.8437 16.1388C24.4371 14.2804 23.1846 13.1621 21.2204 12.8124V10.8523C21.2204 10.6905 21.1561 10.5354 21.0418 10.421C20.9274 10.3066 20.7722 10.2423 20.6104 10.2423H19.3905C19.2287 10.2423 19.0735 10.3066 18.9591 10.421C18.8447 10.5354 18.7805 10.6905 18.7805 10.8523V12.7432C16.3405 13.0848 14.7993 14.6952 14.7993 16.761C14.7993 19.4327 16.4259 20.4697 19.8256 20.9292C22.1395 21.3074 22.7982 21.8076 22.7982 23.1211C22.7982 24.4346 21.6799 25.317 20.1021 25.317C17.9753 25.317 17.2555 24.3858 17.0156 23.178C16.9877 23.0394 16.9131 22.9146 16.8044 22.8243C16.6956 22.734 16.5591 22.6838 16.4178 22.6819H15.027C14.944 22.6814 14.8619 22.699 14.7865 22.7335C14.711 22.7681 14.644 22.8187 14.5901 22.8818C14.5363 22.945 14.4969 23.0191 14.4747 23.0991C14.4525 23.179 14.4481 23.2629 14.4618 23.3448C14.8155 25.378 16.1209 26.8664 18.7805 27.2243V29.1518C18.7805 29.3136 18.8447 29.4687 18.9591 29.5831C19.0735 29.6975 19.2287 29.7618 19.3905 29.7618H20.6104C20.7722 29.7618 20.9274 29.6975 21.0418 29.5831C21.1561 29.4687 21.2204 29.3136 21.2204 29.1518V27.2243C23.7417 26.8257 25.348 25.0852 25.348 22.9015Z" fill="white"/>
<g style="mix-blend-mode:soft-light" opacity="0.25">
<path d="M40 20C40 8.9543 31.0457 0 20 0C8.9543 0 0 8.9543 0 20C0 31.0457 8.9543 40 20 40C31.0457 40 40 31.0457 40 20Z" fill="url(#paint0_linear_46_15)"/>
</g>
</g>
<defs>
<linearGradient id="paint0_linear_46_15" x1="20" y1="0" x2="20" y2="40" gradientUnits="userSpaceOnUse">
<stop stop-color="white"/>
<stop offset="0.0666667" stop-color="#FDFDFD"/>
<stop offset="0.133333" stop-color="#F6F6F6"/>
<stop offset="0.2" stop-color="#EAEAEA"/>
<stop offset="0.266667" stop-color="#D9D9D9"/>
<stop offset="0.333333" stop-color="#C4C4C4"/>
<stop offset="0.4" stop-color="#AAAAAA"/>
<stop offset="0.466667" stop-color="#8E8E8E"/>
<stop offset="0.533333" stop-color="#717171"/>
<stop offset="0.6" stop-color="#555555"/>
<stop offset="0.666667" stop-color="#3B3B3B"/>
<stop offset="0.733333" stop-color="#262626"/>
<stop offset="0.8" stop-color="#151515"/>
<stop offset="0.866667" stop-color="#090909"/>
<stop offset="0.933333" stop-color="#020202"/>
<stop offset="1"/>
</linearGradient>
<clipPath id="clip0_46_15">
<rect width="40" height="40" fill="white"/>
</clipPath>
</defs>
</svg>
