<?xml version="1.0" encoding="UTF-8"?>
<svg width="1024px" height="1024px" viewBox="0 0 1024 1024" version="1.1" xmlns="http://www.w3.org/2000/svg" xmlns:xlink="http://www.w3.org/1999/xlink">
    <title>WBTC from Ethereum</title>
    <g id="WBTC-from-Ethereum" stroke="none" stroke-width="1" fill="none" fill-rule="evenodd">
        <circle id="Oval" fill="#627EEA" fill-rule="nonzero" cx="512" cy="512" r="512"></circle>
        <g id="WBTC" transform="translate(87.000000, 87.000000)" fill-rule="nonzero">
            <path d="M424.662265,0.000133587169 C537.467017,-0.0892412556 645.679802,44.671009 725.460667,124.42019 C805.241533,204.169371 850.044755,312.364358 849.999966,425.169119 C849.9066,659.824085 659.654945,850 424.999924,850 C190.344902,850 0.0933184603,659.823929 3.4216253e-05,425.168963 C-0.0931130113,190.513997 190.007317,0.1868766 424.662265,0.000133587169 Z M666.626867,690.519651 C529.63704,815.787952 319.687488,815.787952 182.697663,690.519651 L157.369896,715.847415 C308.54131,855.216194 541.3742,855.216194 692.545615,715.847415 L666.626867,690.519651 Z M133.983924,158.13007 C-5.38487358,309.301461 -5.38487358,542.134314 133.983924,693.305705 L159.311691,667.133683 C34.1976999,530.181121 34.1976999,320.410394 159.311691,183.457833 L133.983924,158.13007 Z M715.678309,157.032534 L715.678309,157.623515 L690.350542,182.951278 C815.618863,319.941082 815.618863,529.890602 690.350542,666.880406 L715.678309,692.208169 C855.047107,541.036778 855.047107,308.203925 715.678309,157.032534 Z M692.292337,134.490824 C541.120923,-4.8779511 308.288033,-4.8779511 157.116618,134.490824 L183.035366,159.818588 C320.025192,34.5502863 529.974744,34.5502863 666.96457,159.818588 L692.292337,134.490824 Z" id="Shape" fill="#FFFFFF"></path>
            <path d="M584.649327,340.743242 C579.583774,287.892643 533.993793,270.163209 476.33091,264.759953 L476.33091,191.984847 L431.75404,191.984847 L431.75404,263.409139 C420.018841,263.409139 408.030364,263.409139 396.126314,263.409139 L396.126314,191.984847 L351.887147,191.984847 L351.887147,265.266508 L261.467019,265.266508 L261.467019,312.967129 C261.467019,312.967129 294.393116,312.376148 293.88656,312.967129 C306.226338,311.609626 317.424365,320.269433 319.214328,332.553932 L319.214328,533.149816 C318.95806,537.360886 317.009138,541.289183 313.811071,544.040755 C310.672538,546.845234 306.525676,548.247849 302.32915,547.924345 C302.920131,548.4309 269.909608,547.924345 269.909608,547.924345 L261.467019,601.197073 L351.042888,601.197073 L351.042888,675.660697 L395.619758,675.660697 L395.619758,602.29461 L431.247484,602.29461 L431.247484,675.322994 L475.90878,675.322994 L475.90878,601.703629 C551.216675,597.144631 603.729578,578.570938 610.314798,508.075331 C615.633629,451.341141 588.955048,426.013378 546.319973,415.797847 C572.238721,403.04954 588.27964,379.410294 584.649327,340.743242 Z M522.174168,499.29504 C522.174168,554.678415 427.279467,548.346474 397.054999,548.346474 L397.054999,450.074753 C427.279467,450.159179 522.174168,441.463314 522.174168,499.29504 Z M501.489825,360.836601 C501.489825,411.492127 422.29834,405.329038 397.139424,405.329038 L397.139424,316.00646 C422.29834,316.00646 501.489825,308.070428 501.489825,360.836601 Z" id="Shape" fill="#F09242"></path>
        </g>
    </g>
</svg>