<?xml version="1.0" encoding="UTF-8"?>
<svg width="795px" height="795px" viewBox="0 0 795 795" version="1.1" xmlns="http://www.w3.org/2000/svg" xmlns:xlink="http://www.w3.org/1999/xlink">
    <title>HELGO</title>
    <defs>
        <linearGradient x1="50%" y1="0%" x2="50%" y2="40.2371138%" id="linearGradient-1">
            <stop stop-color="#AF1500" offset="0%"></stop>
            <stop stop-color="#7E0C00" offset="100%"></stop>
        </linearGradient>
    </defs>
    <g id="Page-1" stroke="none" stroke-width="1" fill="none" fill-rule="evenodd">
        <g id="HELGO" transform="translate(0.000000, -0.000000)">
            <path d="M795,397.5 C795,177.966812 617.033188,0 397.5,0 C177.966812,0 0,177.966812 0,397.5 L795,397.5 Z" id="red" fill="url(#linearGradient-1)"></path>
            <circle id="red" fill="#C91A00" cx="395" cy="398" r="215"></circle>
            <path d="M395,141.5 C464.333333,141.5 524.833333,165.5 576.5,213.5 L398,189 L257.5,220 L254,257 L397,323.5 L538.5,257 L525,218 L713,213.5 L649,330 L795,397.5 C795,614.837856 620.574728,791.436507 404.073389,794.946746 L397.5,795 C177.966812,795 0,617.033188 0,397.5 L134,323.5 L76.5,213.5 L207.012088,218.185634 C265.491872,167.061878 328.15451,141.5 395,141.5 Z" id="black" fill="#000000"></path>
            <path d="M392.5,175.5 C434.166667,175.5 471.333333,184.5 504,202.5 L737,201 L665,320 L787.448993,319.999102 C792.402842,345.065825 795,370.979613 795,397.5 C795,448.478922 785.403344,497.216424 767.918028,542.00451 L569.499261,542.000999 C557.165927,558.667319 538.666174,575.00032 514,591 L400.5,789.5 L292,599 C264.083333,582.906863 241.344291,564.224913 223.782872,542.954152 L223.001,542 L27.0819718,542.00451 C9.59665633,497.216424 0,448.478922 0,397.5 C0,370.979613 2.59715794,345.065825 7.55100723,319.999102 L125,320 L56.5,205.5 L281.5,207 C313.833333,186 350.833333,175.5 392.5,175.5 Z M443,542 L353,542 L363,614 L323.5,610 L399.5,740 L474,613 L432,613 L443,542 Z M329.5,542 L262.500999,542.000914 C285.834047,563.333747 310.833714,577.833443 337.5,585.5 L329.5,542 Z M530.499,542 L466,542 L455.5,585.5 C483.15,577.6 507.874531,563.361484 529.673594,542.784453 L530.499,542 Z M111.444767,364.573242 L70.5243572,364.573242 L70.5243572,497 L111.444767,497 L111.444767,443.433105 L156.159123,443.433105 L156.159123,497 L197.260197,497 L197.260197,364.573242 L156.159123,364.573242 L156.159123,410.913574 L111.444767,410.913574 L111.444767,364.573242 Z M333.474868,364.573242 L223.811782,364.573242 L223.811782,497 L335.462173,497 L335.462173,467.009766 L264.822524,467.009766 L264.822524,440.903809 L328.506606,440.903809 L328.506606,413.894531 L264.822524,413.894531 L264.822524,392.847168 L333.474868,392.847168 L333.474868,364.573242 Z M528.942785,362.314941 C543.576574,362.314941 554.521805,363.639811 561.778478,366.289551 C569.035151,368.93929 575.057287,373.049398 579.844884,378.619873 C584.632482,384.190348 588.230708,391.251302 590.639562,399.802734 L551.164464,406.848633 C549.538488,401.85026 546.783361,398.026204 542.899084,395.376465 C539.014806,392.726725 534.0616,391.401855 528.039464,391.401855 C519.066483,391.401855 511.915197,394.518311 506.585607,400.751221 C501.256017,406.984131 498.591222,416.845378 498.591222,430.334961 C498.591222,444.667643 501.286128,454.905273 506.675939,461.047852 C512.06575,467.19043 519.578364,470.261719 529.213781,470.261719 C533.790604,470.261719 538.156652,469.599284 542.311925,468.274414 C546.467199,466.949544 551.224686,464.691243 556.584386,461.499512 L556.584386,449.033691 L529.213781,449.033691 L529.213781,421.482422 L592.446203,421.482422 L592.446203,477.939941 C580.341711,486.190267 569.637365,491.805908 560.333166,494.786865 C551.028966,497.767822 539.993403,499.258301 527.226476,499.258301 C511.508703,499.258301 498.69661,496.578451 488.790197,491.21875 C478.883784,485.859049 471.205562,477.87972 465.755529,467.280762 C460.305496,456.681803 457.58048,444.51709 457.58048,430.786621 C457.58048,416.333496 460.561437,403.762288 466.523351,393.072998 C472.485265,382.383708 481.217362,374.26888 492.71964,368.728516 C501.692622,364.452799 513.767004,362.314941 528.942785,362.314941 Z M676.429917,362.314941 C698.470933,362.314941 715.453354,368.231689 727.377183,380.065186 C739.301011,391.898682 745.262925,408.474609 745.262925,429.792969 C745.262925,445.269857 742.658351,457.961507 737.449204,467.86792 C732.240057,477.774333 724.712388,485.482666 714.866196,490.99292 C705.020005,496.503174 692.749904,499.258301 678.055893,499.258301 C663.120998,499.258301 650.760565,496.879557 640.974595,492.12207 C631.188625,487.364583 623.254461,479.836914 617.172104,469.539063 C611.089748,459.241211 608.048569,446.353841 608.048569,430.876953 C608.048569,409.257487 614.070705,392.425618 626.114976,380.381348 C638.159246,368.337077 654.930893,362.314941 676.429917,362.314941 Z M393.875575,364.573242 L393.875575,464.390137 L457.740321,464.390137 L457.740321,497 L352.955164,497 L352.955164,364.573242 L393.875575,364.573242 Z M676.339585,393.298828 C684.951239,393.298828 691.771307,396.174398 696.79979,401.925537 C701.828273,407.676676 704.342515,416.785156 704.342515,429.250977 C704.342515,444.06543 701.93366,454.333171 697.115952,460.054199 C692.298244,465.775228 685.493231,468.635742 676.700913,468.635742 C668.149481,468.635742 661.389634,465.715007 656.421372,459.873535 C651.45311,454.032064 648.968979,444.426758 648.968979,431.057617 C648.968979,417.568034 651.468166,407.902507 656.466538,402.061035 C661.46491,396.219564 668.089259,393.298828 676.339585,393.298828 Z M692,225 L546,225 L565,263 L417.5,320 L639,320 L692,225 Z M247.5,230.5 L100.5,230.5 L152,320 L376.5,320 L232,260.5 L247.5,230.5 Z M398,204.5 C348.666667,204.5 304.833333,220.833333 266.5,253.5 L399.5,299 L526.5,253.5 C490.166667,220.833333 447.333333,204.5 398,204.5 Z" id="white" fill="#FFFFFF"></path>
        </g>
    </g>
</svg>