<?xml version="1.0" encoding="UTF-8"?>
<svg width="1024px" height="1024px" viewBox="0 0 1024 1024" version="1.1" xmlns="http://www.w3.org/2000/svg" xmlns:xlink="http://www.w3.org/1999/xlink">
    <title>image</title>
    <g id="image" stroke="none" stroke-width="1" fill="none" fill-rule="evenodd">
        <circle id="Oval" fill="#000000" cx="512" cy="512" r="512"></circle>
        <g id="?" transform="translate(329.000000, 228.000000)" fill="#FFFFFF" fill-rule="nonzero">
            <path d="M127.945393,387.130062 L127.945393,357.23981 C127.945393,333.268978 130.934077,314.057172 136.911445,299.604392 C142.888814,285.151611 152.057998,272.785661 164.419,262.506541 C176.780001,252.227422 192.315892,241.649512 211.026671,230.772813 C229.410181,219.493969 242.602522,207.33191 250.603694,194.286636 C258.604866,181.241362 262.605451,167.68871 262.605451,153.628678 C262.605451,140.188776 259.445609,128.476781 253.125925,118.492693 C246.806241,108.508604 237.895674,100.765439 226.394225,95.2631977 C214.892776,89.7609559 201.315799,87.0098351 185.663296,87.0098351 C168.581339,87.0098351 153.753592,90.4910177 141.180054,97.453383 C128.606515,104.415748 118.979341,114.288965 112.298532,127.073033 C105.617723,139.857101 102.277319,155.122627 102.277319,172.869611 L0,172.869611 C0,138.935362 7.78487296,109.005648 23.3546189,83.0804678 C38.9243648,57.1552877 60.7310372,36.8272481 88.7746362,22.0963489 C116.818235,7.36544962 149.503793,0 186.831309,0 C222.119974,0 253.194576,6.14867998 280.055115,18.4460399 C306.915654,30.7433999 327.954936,47.7396517 343.172962,69.4347955 C358.390987,91.1299392 366,116.078885 366,144.281632 C366,171.296737 359.93141,195.729847 347.794231,217.580963 C335.657052,239.432079 317.590466,258.366706 293.594475,274.384844 C278.634127,284.280611 265.929869,293.409672 255.4817,301.772027 C245.033532,310.134382 237.09819,319.116867 231.675675,328.719481 C226.25316,338.322096 223.541903,350.142144 223.541903,364.179625 L223.541903,387.130062 L127.945393,387.130062 Z M176.911661,552 C159.97265,552 145.517313,546.019507 133.545649,534.05852 C121.573986,522.097534 115.588154,507.655089 115.588154,490.731185 C115.588154,473.694531 121.573986,459.222959 133.545649,447.316468 C145.517313,435.409978 159.97265,429.456733 176.911661,429.456733 C193.963524,429.456733 208.448014,435.409978 220.365133,447.316468 C232.282252,459.222959 238.240812,473.694531 238.240812,490.731185 C238.240812,507.655089 232.282252,522.097534 220.365133,534.05852 C208.448014,546.019507 193.963524,552 176.911661,552 Z" id="Shape"></path>
        </g>
    </g>
</svg>