<?xml version="1.0" encoding="UTF-8"?>
<svg width="283px" height="223px" viewBox="0 0 283 223" version="1.1" xmlns="http://www.w3.org/2000/svg" xmlns:xlink="http://www.w3.org/1999/xlink">
    <title>BEAN</title>
    <defs>
        <linearGradient x1="-3.44063498e-15%" y1="60.1021713%" x2="100%" y2="60.1021713%" id="linearGradient-1">
            <stop stop-color="#1295D5" offset="0%"></stop>
            <stop stop-color="#362E83" offset="19.3428396%"></stop>
            <stop stop-color="#E4056A" offset="44.1189195%"></stop>
            <stop stop-color="#E11938" offset="57.1890328%"></stop>
            <stop stop-color="#E67B13" offset="69.1278383%"></stop>
            <stop stop-color="#E4DF0A" offset="80.7658386%"></stop>
            <stop stop-color="#189A42" offset="100%"></stop>
        </linearGradient>
    </defs>
    <g id="Page-1" stroke="none" stroke-width="1" fill="none" fill-rule="evenodd">
        <path d="M160.5,9 C171.5,11 182.5,29.5 190,47.5 C196,62.8333333 199,76 199,87 C199,98 197.308549,109.653375 193.925647,121.960124 C192.582184,128.648161 191.267257,141.042547 189.980866,159.143284 C190.420259,177.191009 191.426637,188.476581 193,193 C201,216 208.5,217 208.5,221.5 C208.5,223.614555 198.487604,222.509934 185.356149,216.403127 C162.864617,202.853175 148.412567,191.052133 142,181 C123.5,152 110.5,114 113.5,77.5 C116.5,41 140.535058,5.37001058 160.5,9 Z M255,43.5 C278,79 285,112.5 282,149 C279,185.5 251.964942,220.629989 232,217 C221,215 211.740031,199.28782 207,181 C203.278005,166.63993 202.50665,150.645468 203.5,142.5 C206,122 211.296703,102.165978 211.5,76 C211.616855,60.9598025 208.919989,46.8949684 206,38.5 C198,15.5 184.5,5.5 184.5,1 C184.5,-3.5 232,8 255,43.5 Z M271.250395,117.661463 C271.029736,117.651755 270.842256,117.822034 270.831647,118.042693 L270.780405,119.034251 C269.7007,139.446828 267.607232,154.935411 264.5,165.5 C261.332886,176.268188 253.952914,188.992346 242.357823,203.670689 C242.24578,203.812639 242.242914,204.012107 242.350833,204.157218 C242.482665,204.334484 242.733238,204.371315 242.910504,204.239483 C257.836749,193.044251 267.200439,180.798462 271,167.5 C274.779541,154.271606 274.987849,137.769583 271.624925,117.99393 C271.59347,117.809156 271.43761,117.671365 271.250395,117.661463 Z M91,93.5 L91.150042,93.2648167 C92.8844624,90.6356282 100.197846,82.0118244 101.5,83.5 C102.07098,84.1525482 102.61228,86.020431 103,88 C103.38772,89.979569 95.9049695,94.6575598 91,103 C89.5646106,105.44133 88.0976425,108.182822 86.6902898,110.991419 L86.2699636,111.835778 C80.8313445,122.832557 76.4381799,134.495524 78.5,133 C81.143359,131.082662 101,96 103,99 C103.949343,100.424015 104.529053,106.033988 105.105068,112.221947 L111.624296,142.073794 C114.192422,149.638719 116.162355,156.012934 115.5,158 C114.5,161 108.222607,164.207657 83.4065646,173.468688 C70.7224552,178.202235 53.8987544,177.811484 41.6786071,175.422901 L40.6944673,175.224136 L39.8144159,175.034977 C29.2200809,172.691154 22.7783937,168.837446 23.7425471,167.557971 C25.8279161,164.790593 29.9216647,168.937054 45.5,158.5 C50.7870485,154.957824 58.1511767,147.997697 64.5,139.5 C73.0431071,124.02692 77.9993394,114.853112 79.3686968,111.978576 C86.4706009,100.725128 90.347702,94.565603 91,93.5 Z M77,40.5 C95,34 111.5,34 113,36.5 C113.751836,37.7530594 110.444993,42.735339 108.5,48.5 C106.564505,54.2365118 105.996329,60.7542831 104.5,62.5 C101.5,66 96.2225516,67.3857035 89.3245565,76.6891697 C80.0178968,89.2412507 73.5014533,100.093845 67.3309361,110.754148 L62,120 C58.8947383,125.368287 51.7159501,135.027741 42.995254,142.102357 L42.5,142.5 C31.1101539,151.549911 18.1915324,156.867623 10.5,153 C-3.46009068,145.980285 -2.93009043,112.748168 12.1396498,88.9114112 C27.2093901,65.0746547 59,47 77,40.5 Z M176.22326,45.1488859 C176.011094,45.2104361 175.888995,45.4323271 175.950545,45.6444934 C182.239541,66.8371505 184.588859,83.7891314 183,96.5 L182.850784,97.716714 L182.63034,99.6009401 C181.222773,111.972463 180.067902,128.766151 179.165725,149.982004 C179.159083,150.173007 179.2886,150.341937 179.474749,150.385233 C179.68992,150.435278 179.90492,150.301417 179.954965,150.086246 C185.390174,127.51384 188.738851,108.818502 190,94 C191.265544,79.1298625 186.825385,62.9083744 176.681799,45.3342328 C176.590039,45.1740373 176.400564,45.0974494 176.22326,45.1488859 Z M33.2729237,75.6208567 C33.1534024,75.5399228 32.9936981,75.5524329 32.8887272,75.651487 C21.6562795,86.2545471 15.1370932,95.4993775 11.3311683,105.385978 L10.9726809,106.332466 C7.38935732,115.955582 5.71531826,125.633205 9.57980749,138.996867 C9.62772833,139.160088 9.79889257,139.253557 9.96211352,139.205636 C10.0957269,139.166408 10.186401,139.042412 10.1832796,138.903194 C9.86054469,124.755703 12.1309557,115.584038 15.0958363,107.595101 L15.2553228,107.168232 C18.2402515,99.2313573 24.1304717,89.7361533 32.9259833,76.6826199 L33.3539741,76.049092 C33.4497066,75.9084763 33.4133216,75.7168783 33.2729237,75.6208567 Z" id="BEAN" fill="url(#linearGradient-1)"></path>
    </g>
</svg>