<?xml version="1.0" encoding="UTF-8"?>
<svg width="258px" height="259px" viewBox="0 0 258 259" version="1.1" xmlns="http://www.w3.org/2000/svg" xmlns:xlink="http://www.w3.org/1999/xlink">
    <title>GIFF</title>
    <g id="Page-1" stroke="none" stroke-width="1" fill="none" fill-rule="evenodd">
        <g id="GIFF" transform="translate(0.000000, 0.013258)">
            <path d="M129,128.896366 C129,143.410111 130.157,143.990141 159.154,144.008142 C184.48,144.023143 186.353,144.263155 185.412,147.368315 C182.042,158.488886 169.814,173.756671 159.463,179.76798 C148.314,186.242313 143.707,187.397372 129,187.400372 C116.639,187.402372 114.911,187.17136 108.526,184.660231 C99.001,180.914039 93.417,177.140845 86.069,169.488452 L79.834,162.995118 L42.417,162.995118 C0.25,162.995118 3.605,162.192077 7.072,171.457553 L9.144,176.995837 L27.072,176.995837 C37.271,176.995837 45,177.390858 45,177.912884 C45,178.41691 44.662,178.978939 44.25,179.162949 C43.838,179.345958 40.594,183.321162 37.042,187.996403 C33.491,192.671643 30.319,196.721851 29.994,196.996865 C28.196,198.519943 25,204.067229 25,205.666311 C25,208.093435 49.94,232.998715 52.37,232.998715 C53.841,232.998715 60.56,228.590489 63,226.024357 C63.516,225.481329 67.945,222.039152 76.309,215.680825 L81.119,212.023637 L85.809,214.382759 C88.389,215.679825 93.425,217.776933 97,219.043998 C100.575,220.310063 103.617,221.42212 103.76,221.515125 C103.903,221.60813 104.939,229.028511 106.061,238.003972 C107.184,246.980434 108.546,255.150854 109.087,256.161906 C109.987,257.843992 111.634,258 128.464,258 C143.312,258 147.14,257.716985 148.327,256.529924 C149.135,255.721883 150.089,252.233704 150.446,248.779526 C151.05,242.939226 152.501,231.634645 153.574,224.401273 C153.965,221.762138 154.658,221.119105 158.267,220.05005 C160.595,219.361014 165.764,217.294908 169.754,215.459814 L177.008,212.124643 L190.418,222.561179 C197.794,228.301474 204.661,232.998715 205.679,232.998715 C208.078,232.998715 233,208.052433 233,205.65131 C233,204.233237 222.619,189.401475 219.944,186.996351 C219.638,186.721337 217.74,184.314213 215.727,181.646076 L212.067,176.796827 L214.586,171.825572 C217.436,166.201283 223,149.765438 223,146.971294 C223,144.471166 225.714,143.791131 234.804,144.013142 C250.31,144.392162 250.905,144.289157 254.6,140.593967 C257.874,137.319799 258,136.910777 258,129.543399 C258,120.381928 256.294,116.431725 251.466,114.413621 C246.298,112.25451 138.763,112.387517 134.763,114.557629 C130.656,116.785743 129,120.907955 129,128.896366 Z" id="Path" fill="#34BBF1"></path>
            <path d="M0,121.993011 L70,121.993011 L70,135.99373 L0,135.99373 L0,121.993011 Z M106.495,17.9876663 C104.198,37.5696726 104.56,36.5066179 99.702,37.9456919 C97.391,38.6307271 92.203,40.7068338 88.174,42.559929 L80.848,45.9291021 L67.345,35.4585641 C59.918,29.7002682 53.083,24.988026 52.156,24.988026 C49.984,24.988026 25,49.9893108 25,52.1624225 C25,53.067469 29.488,59.5858039 34.973,66.6491669 C40.458,73.7125299 44.958,79.8288442 44.973,80.2408653 C44.988,80.6528865 36.932,80.9909039 27.072,80.9909039 L9.144,80.9909039 L7.072,86.5291885 C3.606,95.7936646 0.282,94.9916234 42.154,94.9916234 L79.308,94.9916234 L84.6,89.1443229 C96.058,76.4816722 111.192,69.7613268 128.5,69.6503211 C145.633,69.5403155 159.301,75.2696099 171.647,87.7362505 L178.831,94.9916234 L189.831,94.9916234 L200.831,94.9916234 L216.564,74.7815848 C225.217,63.6660136 232.518,53.7235027 232.79,52.6864494 C233.156,51.2863774 229.963,47.4731815 220.406,37.8946893 C213.151,30.6233156 206.719,24.988026 205.675,24.988026 C204.655,24.988026 197.746,29.7022683 190.322,35.4635643 L176.823,45.9391027 L172.662,43.8089932 C170.373,42.636933 165.125,40.4448203 161,38.9377429 L153.5,36.196602 L151.358,18.9677166 C149.932,7.4991273 148.762,1.45081649 147.858,0.877787047 C147.111,0.40476274 138.278,0.0107424917 128.229,0.00174202922 C110.219,-0.0132587416 109.944,0.0187429029 109.018,2.23685689 C108.501,3.47392046 107.366,10.5622847 106.495,17.9876663 Z" id="Shape" fill="#FFFFFF"></path>
        </g>
    </g>
</svg>