<?xml version="1.0" encoding="UTF-8"?>
<svg width="1000px" height="1000px" viewBox="0 0 1000 1000" version="1.1" xmlns="http://www.w3.org/2000/svg" xmlns:xlink="http://www.w3.org/1999/xlink">
    <title>pUNI</title>
    <defs>
        <linearGradient x1="76.2262818%" y1="0.519209642%" x2="23.6511094%" y2="99.5097915%" id="linearGradient-1">
            <stop stop-color="#00EAFF" offset="0%"></stop>
            <stop stop-color="#0080FF" offset="25.2530882%"></stop>
            <stop stop-color="#8000FF" offset="49.7394282%"></stop>
            <stop stop-color="#E619E6" offset="74.9912298%"></stop>
            <stop stop-color="#FF0000" offset="99.9136118%"></stop>
        </linearGradient>
    </defs>
    <g id="Page-1" stroke="none" stroke-width="1" fill="none" fill-rule="evenodd">
        <g id="pUNI" fill-rule="nonzero">
            <circle id="Oval" fill="url(#linearGradient-1)" cx="500" cy="500" r="500"></circle>
            <path d="M499.296002,694.568575 C525.05614,701.166335 548.100562,715.948558 560.083661,733.556524 C571.795189,750.769775 576.819265,765.766346 582.049631,799.136788 C584.115141,812.300939 586.358219,825.519984 587.037148,828.513025 C590.967104,845.807309 598.612889,859.632805 608.086562,866.575613 C623.132676,877.598891 649.044268,878.286375 674.532834,868.332227 C678.859702,866.643578 682.614702,865.475115 682.87844,865.739131 C683.502124,866.359942 677.862566,870.476813 671.346079,874.480108 L670.644774,874.908433 C670.292689,875.122214 669.93864,875.3353 669.583453,875.547134 L668.871811,875.968969 C668.515478,876.178889 668.15856,876.387188 667.801886,876.593312 L667.089107,877.002492 L666.378452,877.404884 C664.842059,878.268666 663.330975,879.077695 661.912587,879.786816 C649.72842,885.880072 640.040624,888.235294 627.167082,888.235294 C603.822365,888.235294 584.441549,876.34678 568.26998,852.107072 C565.592106,848.093738 560.105145,837.342611 555.120686,826.474491 L554.558732,825.243993 C553.812796,823.603613 553.081158,821.966259 552.375205,820.354701 C535.297526,781.366753 526.868359,769.491309 507.041018,756.491841 C489.788384,745.183638 467.537787,743.15778 450.796961,751.373611 C428.810102,762.166855 422.673627,790.293595 438.422172,808.121138 C444.681376,815.205104 456.353734,821.316656 465.897912,822.503418 C483.753748,824.727939 499.100158,811.129862 499.100158,793.082742 C499.100158,781.366753 494.600946,774.677504 483.273275,769.561887 C467.804135,762.574641 451.178206,770.740806 451.256544,785.290381 C451.290491,791.493426 453.990539,795.388299 460.200129,798.200973 C464.184921,800.007253 464.278927,800.148409 461.027901,799.473995 C446.835671,796.528007 443.511529,779.398405 454.922761,768.027465 C468.624073,754.377108 496.956308,760.399785 506.685885,779.032444 C510.772516,786.861401 511.247766,802.448738 507.683388,811.859172 C499.708582,832.928086 476.452648,844.006258 452.862472,837.978352 C436.800575,833.871744 430.261966,829.427928 410.896818,809.462125 C377.248046,774.763766 364.183882,768.040534 315.674395,760.457293 L306.378288,759.006518 L316.956527,750.066607 C352.485411,720.034254 396.694142,698.701325 436.962474,692.153232 C454.316947,689.330101 483.226272,690.448898 499.296002,694.568575 Z M670.568933,519.124116 C671.289642,519.124116 674.292598,520.747416 677.238106,522.734062 C683.100398,526.683831 694.856318,533.336485 726.178452,550.432105 C765.26388,571.762421 787.548424,588.280345 802.701599,607.153492 C815.974664,623.681873 824.187095,642.502739 828.13794,665.456354 C830.378406,678.458436 829.06494,709.745514 825.732965,722.836472 C815.225231,764.11952 790.80206,796.546305 755.965162,815.466505 C750.862748,818.237354 746.279976,820.514156 745.783836,820.524664 C745.287695,820.535068 747.149528,815.801098 749.917471,810.005839 C761.636832,785.483818 762.971188,761.630984 754.111164,735.080492 C748.684953,718.823968 737.626241,698.988866 715.292085,665.461582 C691.924649,630.38184 684.431229,618.472231 678.509984,606.421394 L678.117406,605.61754 C678.052312,605.483445 677.987373,605.349267 677.922569,605.214976 L677.535214,604.407616 C677.213508,603.733256 676.894202,603.054465 676.574845,602.367241 C663.855368,574.993336 660.933362,548.560474 667.902831,523.912981 C668.649653,521.280674 669.848224,519.124116 670.568933,519.124116 Z M142.352578,111.764706 C143.747344,111.764706 362.429112,297.686164 385.050508,324.087656 L391.296656,331.378129 L390.750901,342.715087 C390.032804,357.669834 385.356026,367.605684 374.179808,377.915335 C361.293211,389.801235 345.620393,396.176805 321.001378,399.543648 C305.903039,401.608715 300.408935,403.888132 294.309018,410.616592 C288.457171,417.067967 286.221927,425.108659 284.605554,445.490089 C282.103961,477.038567 278.40902,490.377856 263.490858,521.678004 C249.07667,551.916862 246.152052,563.342696 248.674536,579.539098 C251.747996,599.280096 262.874599,613.633621 288.927199,631.461165 C308.811988,645.067082 317.833912,653.844926 322.787484,664.400295 C325.83222,670.885652 326.229132,673.246102 326.169073,684.520325 C326.080289,701.757101 323.312348,708.702524 311.525094,721.281136 C292.47852,741.599831 258.613013,758.183105 216.905874,767.609222 C199.478285,771.548534 198.710573,771.543307 198.710573,767.509891 C198.710573,762.441326 192.234633,749.483682 180.987912,732.045627 C167.955084,711.839335 162.857892,701.736189 157.974825,686.436393 C152.39455,668.961741 150.819957,657.154261 151.629449,638.874494 C152.382007,621.871435 154.220897,614.172592 160.813885,600.897454 L161.310527,599.904581 C162.014606,598.506309 162.689671,597.203462 163.379632,595.934629 L163.699293,595.351206 L163.970145,594.863882 C164.0155,594.782822 164.060969,594.701833 164.106563,594.620895 L164.381736,594.135773 C164.474027,593.974188 164.566917,593.812684 164.660499,593.651125 L164.943424,593.166154 C169.268852,585.804315 175.225773,578.057162 191.741105,557.440264 C228.648737,511.360508 241.966193,484.436213 246.70303,446.323958 C250.928058,412.32354 256.782516,395.894492 269.872792,381.271724 C277.727479,372.504336 279.463971,369.153176 279.463971,362.780222 C279.463971,359.646025 216.222413,219.852227 216.905874,220.913775 C259.459064,287.011613 295.256466,349.953788 299.823571,354.290431 C306.283842,360.425509 314.188585,367.137775 322.064164,367.137775 C329.028409,367.137775 342.938622,363.23506 349.701801,359.387238 C361.867689,352.462727 360.401325,341.204189 353.298681,331.378129 C349.108561,325.578658 292.291225,278.871787 241.883713,226.772474 C188.845707,171.954382 142.202276,111.764706 142.352578,111.764706 Z M184.609738,637.303475 C184.609738,639.444348 185.79264,640.999684 188.456132,642.372039 C192.939676,644.682824 193.266084,647.281148 189.738264,652.590201 C186.16344,657.967218 186.45068,662.695961 190.550367,665.908579 C197.15687,671.086931 206.510425,668.240274 211.406549,659.556535 C216.522018,650.488538 213.80369,638.832671 205.249183,633.139358 C197.167316,627.757113 184.609738,630.292702 184.609738,637.303475 Z M625.618602,496.771722 L630.156982,501.871655 C636.437076,508.926866 641.398481,517.955654 645.605231,529.980096 C648.814476,539.157884 649.174832,541.886908 649.154145,556.799832 C649.127828,571.443512 648.725694,574.512359 645.761907,582.772628 C641.087741,595.798235 635.28812,605.036145 625.555932,614.951081 C608.065673,632.768169 585.580061,642.63344 553.132472,646.726979 C548.706979,647.282798 537.634262,648.141153 526.088432,648.847498 L524.728288,648.929868 C522.005125,649.093098 519.269174,649.246924 516.600861,649.385426 C480.178925,651.283196 456.207504,655.198982 434.667172,662.771767 C431.572821,663.861809 428.807491,664.523153 428.525474,664.24084 C427.852392,663.571086 436.434431,658.205856 445.954031,653.107289 L446.760549,652.677171 L447.570418,652.248986 C448.246392,651.893158 448.924693,651.540038 449.602414,651.191359 L450.415215,650.775188 C451.768802,650.085493 453.115425,649.416339 454.431842,648.781589 C471.341331,640.627214 488.174039,636.139046 525.473278,629.889254 L527.259008,629.590895 L529.208045,629.262702 C529.424641,629.226012 529.641227,629.189251 529.857779,629.152424 L531.156502,628.930706 L532.453316,628.707621 C533.316979,628.558489 534.178633,628.408592 535.036811,628.258213 L536.321288,628.032321 C551.699318,625.318168 565.713191,622.495113 569.797571,621.240388 C616.398222,606.936529 640.353975,570.026719 632.687299,524.339065 C631.486116,517.192364 629.404938,508.066856 628.062747,504.059581 L625.618602,496.771722 Z M571.071868,364.581274 C571.421778,364.581274 575.124553,367.325985 579.302579,370.682372 C598.71734,386.269709 620.45874,392.927591 680.645808,401.718504 C716.062407,406.891628 735.9942,411.068815 754.377512,417.172527 C812.815032,436.573704 848.97062,475.943298 857.590408,529.569698 C860.097224,545.151806 858.629692,574.373816 854.566562,589.772945 C853.464282,593.953971 851.584435,599.288671 849.48642,604.524036 L849.102682,605.474548 C845.179447,615.121278 840.626592,624.169113 838.977305,624.703951 C838.259207,624.936598 837.551554,622.176204 837.368765,618.419872 C836.384318,598.284159 826.21866,578.679089 809.148814,563.993585 C789.739275,547.297908 763.660562,534.005671 699.901282,508.307346 C604.159219,469.716727 570.437331,436.220813 570.437331,379.703318 C570.437331,371.388154 570.724569,364.581274 571.071868,364.581274 Z M436.513336,408.308421 C450.353046,415.353176 460.401196,431.400579 458.220789,442.98064 C455.562521,457.104133 432.682609,468.404494 406.36366,468.587475 C392.920864,468.684193 387.956847,466.875299 382.823098,460.010911 C379.645187,455.763146 378.441394,442.005615 380.564353,434.160973 C384.042559,421.305275 395.276225,409.042958 406.833688,405.49052 C414.181791,403.232015 429.371524,404.674948 436.513336,408.308421 Z M399.955614,424.387193 C399.955614,430.574552 410.322339,437.326539 419.824736,437.326539 C426.149222,437.326539 434.802958,433.551909 437.599622,429.573387 C441.657531,423.801654 439.881869,417.562014 432.977682,413.343004 C419.832569,405.307539 399.955614,411.954965 399.955614,424.387193 Z M404.977078,166.666791 C439.550239,174.893079 471.008159,195.967221 504.589039,233.394606 L513.509122,243.338296 L526.270379,241.283686 C580.036345,232.633929 634.73192,239.508773 680.478687,260.663951 C684.154821,262.364584 688.450486,264.557124 692.75176,266.883256 L693.744181,267.422265 L695.22952,268.237531 C704.778833,273.511659 713.768542,279.107695 715.383479,281.047994 C716.174692,281.99688 717.623945,288.103206 718.605781,294.619931 C722.005648,317.168374 720.303104,334.452204 713.414584,347.360181 C709.664806,354.384025 709.455905,356.61116 711.975776,362.623381 C713.989062,367.420088 719.598061,370.969913 725.152225,370.962071 C736.521676,370.949001 748.758068,352.551604 754.427126,326.952611 L756.678038,316.786729 L761.140691,321.844836 C785.613475,349.600387 804.832392,387.451241 808.135644,414.393835 L808.994749,421.417678 L804.882006,415.031653 C797.802865,404.042359 790.689776,396.561064 781.58168,390.527931 C765.16204,379.653652 747.802345,375.952215 701.823174,373.526414 C660.298825,371.335874 636.797431,367.786049 613.494494,360.179282 C573.845033,347.237324 553.855792,330.00316 506.759,268.145245 C485.840149,240.672007 472.90916,225.468929 460.048675,213.227525 C430.823388,185.411852 402.107296,170.823066 365.345895,165.116684 C355.253353,163.548278 354.827716,163.365298 359.577609,162.633375 C368.677871,161.232266 390.168589,163.143107 404.977078,166.666791 Z M737.435619,176.835287 C737.595196,176.835287 737.399352,177.834904 736.963604,179.402502 L736.825798,179.889389 C736.487995,181.063205 736.038301,182.494181 735.516339,184.034268 C731.871012,194.796145 731.273032,209.518245 733.785069,226.645234 C736.973425,248.375493 738.785644,251.512304 761.730836,274.986107 C763.883042,277.188148 766.105544,279.505311 768.32044,281.851165 L769.341876,282.935588 C769.662734,283.277046 769.98318,283.618826 770.302974,283.960667 L771.260168,284.986106 C779.057416,293.357678 786.321067,301.606676 789.548653,305.8471 L797.797641,316.687396 L789.548653,308.939473 C786.220261,305.815342 781.46562,301.711804 776.403587,297.519932 L775.420301,296.707739 C775.09146,296.436799 774.76164,296.165732 774.431141,295.894774 L773.437909,295.082476 C772.663374,294.45058 771.886776,293.820595 771.111945,293.195573 L770.18324,292.448121 C761.836945,285.746012 753.875456,279.764949 751.123875,278.347722 C747.687449,276.575425 747.178252,276.606793 745.057905,278.718912 C743.104678,280.666349 742.692098,283.588812 742.420526,297.41692 C741.9975,318.966813 739.065049,332.800149 731.983295,346.630873 C728.152568,354.109553 727.549366,352.515008 731.014516,344.071758 C731.695507,342.412549 732.215554,340.998088 732.611824,339.434262 L732.704571,339.055874 C733.668932,334.984841 733.841592,329.7283 733.846101,316.674154 L733.846051,315.427282 C733.845882,315.003908 733.845568,314.572719 733.845128,314.133509 C733.80596,272.215258 728.83672,262.138252 699.681936,244.877948 C692.297276,240.504711 680.128778,234.197106 672.642278,230.861631 C665.155779,227.523541 659.207315,224.619376 659.424051,224.402414 C659.891445,223.936009 669.216081,226.399121 679.293512,229.423608 L680.225638,229.704318 C680.381269,229.751345 680.537021,229.798488 680.692861,229.845739 L681.628746,230.130454 L682.703532,230.459807 L683.777145,230.791371 C690.032304,232.730726 696.118342,234.751015 700.12324,236.293542 C706.990104,238.937499 711.543861,240.653029 714.669039,241.707074 L715.176827,241.876668 C717.898573,242.776258 719.461208,243.132478 720.546044,243.15094 L720.730576,243.150775 C721.240448,243.140829 721.643273,243.051289 722.021316,242.906986 C723.407899,242.376341 724.076382,238.335084 724.750089,226.459639 C725.794595,208.049172 728.288354,195.907099 733.304596,184.815858 C735.289159,180.426936 737.14838,176.835287 737.435619,176.835287 Z M355.378693,184.266915 L360.042414,185.119082 C368.8006,186.716242 383.89894,192.344205 390.970248,196.641635 C410.371953,208.438659 418.772395,223.968488 427.319069,263.850427 C427.534724,264.857272 427.7562,265.875558 427.98186,266.898699 L428.254556,268.128375 C428.391804,268.743956 428.530321,269.360336 428.669755,269.976093 L428.949741,271.206351 C431.104064,280.625479 433.418446,289.674766 434.617558,293.224049 C437.051258,300.428259 446.242913,317.254636 453.716356,328.181195 C459.100786,336.051978 455.525964,339.782168 443.623813,338.705196 C425.449402,337.063599 400.830388,320.054241 384.948668,298.167141 C364.460676,269.933227 351.785592,226.64262 354.530032,194.281185 L355.378693,184.266915 Z" id="UNI" fill="#FFFFFF"></path>
        </g>
    </g>
</svg>