<?xml version="1.0" encoding="UTF-8"?>
<svg width="553px" height="545px" viewBox="0 0 553 545" version="1.1" xmlns="http://www.w3.org/2000/svg" xmlns:xlink="http://www.w3.org/1999/xlink">
    <title>9MM</title>
    <g id="Page-1" stroke="none" stroke-width="1" fill="none" fill-rule="evenodd">
        <path d="M276.5,0.0490308878 L456.801925,65.6245337 L552.738575,231.791686 L519.594222,420.218857 L372.43665,544.08378 L180.56335,544.08378 L33.9425967,420.218857 L0.26142528,231.791686 L96.1980755,65.6245337 L276.5,0.0490308878 Z M486.946425,424.5 L66.0514253,424.5 L187.115,526.083 L365.884,526.083 L486.946425,424.5 Z M119.247425,300.233031 L57.895,406.5 L181.344425,406.5 L119.247425,300.233031 Z M432.802425,296.858031 L368.733425,406.5 L496.104,406.5 L432.802425,296.858031 Z M225.494,378.519 L225.493425,406.499031 L253.769425,406.499031 L253.769,378.781 L241.644643,393.056399 L237.280286,393.056399 L225.494,378.519 Z M295.894,378.519 L295.893425,406.499031 L324.169425,406.499031 L324.169,378.781 L312.044643,393.056399 L307.680286,393.056399 L295.894,378.519 Z M348.590425,150.999031 L205.407425,150.999031 L129.608425,282.286031 L201.999425,406.169031 L202,341 L222.70693,341 L239.981,362.308 L256.968828,341 L293.10693,341 L310.381,362.308 L327.368828,341 L348.400475,341 L348.400425,405.618031 L422.441425,278.913031 L348.590425,150.999031 Z M219.901,347.634 L208,347.634 L208,401.117 L219.494,401.117 L219.494,362.388345 L239.951,385.834 L259.769583,362.388345 L259.769,401.117 L272,401.117 L272,347.634 L259.803,347.634 L240.01953,371.713532 L219.901,347.634 Z M290.301,347.634 L278.4,347.634 L278.4,401.117 L289.894,401.117 L289.894,362.388345 L310.351,385.834 L330.169583,362.388345 L330.169,401.117 L342.4,401.117 L342.4,347.634 L330.203,347.634 L310.41953,371.713532 L290.301,347.634 Z M256.552425,26.415 L108.51,80.298 L19.125,235.118 L46.4814253,390.269 L256.552425,26.415 Z M297.712425,26.876 L506.750425,388.941 L533.874,235.118 L444.489,80.298 L297.712425,26.876 Z M275,173 C305.375661,173 330.000949,196.952766 330.000949,226.5 L329.995764,227.980318 C329.915914,237.894582 328.683272,255.888174 311.499289,282.858645 C299.447965,301.773344 286.219218,317.57243 271.813047,330.255901 L234.755007,315.485946 L236.584905,313.994379 L238.347488,312.545319 C245.839498,306.35816 251.43547,301.36829 255.135405,297.575712 L255.75406,296.934807 L256.406811,296.244739 C260.489037,291.887122 265.624449,285.638876 271.813047,277.5 C257.772436,277.33629 247.722546,275.101802 241.663374,270.796536 C227.968313,261.065686 220,244.260464 220,226.5 C220,196.952766 244.624339,173 275,173 Z M275,211 C266.715729,211 260,218.163444 260,227 C260,235.836556 266.715729,243 275,243 C283.284271,243 290,235.836556 290,227 C290,218.163444 283.284271,211 275,211 Z M276.999,27 L215.799425,132.999031 L338.197425,132.999031 L276.999,27 Z" id="9MM" fill="#FFFFFF" fill-rule="nonzero"></path>
    </g>
</svg>