<svg width="40" height="40" viewBox="0 0 40 40" fill="none" xmlns="http://www.w3.org/2000/svg">
<g clip-path="url(#clip0_61_219)">
<path d="M20 40C31.0457 40 40 31.0457 40 20C40 8.9543 31.0457 0 20 0C8.9543 0 0 8.9543 0 20C0 31.0457 8.9543 40 20 40Z" fill="#3D8130"/>
<g style="mix-blend-mode:soft-light" opacity="0.25">
<path d="M40 20C40 8.9543 31.0457 0 20 0C8.9543 0 0 8.9543 0 20C0 31.0457 8.9543 40 20 40C31.0457 40 40 31.0457 40 20Z" fill="url(#paint0_linear_61_219)"/>
</g>
<path d="M39.875 20C39.875 9.02334 30.9767 0.125 20 0.125C9.02334 0.125 0.125 9.02334 0.125 20C0.125 30.9767 9.02334 39.875 20 39.875C30.9767 39.875 39.875 30.9767 39.875 20Z" stroke="black" stroke-opacity="0.1" stroke-width="0.25"/>
<path d="M27.6172 26.5156L27.6094 26.5078L27.6172 26.5156Z" fill="#3D8130"/>
<path d="M11.8828 15.8594L10.9844 17.6094L10.0547 19.4453L9.39844 21.1641L8.96094 22.9922L8.6875 24.9922L8.52344 26.7187L8.33594 27.8516L8.52344 28.7344L8.84375 29.4922L9.4375 30.5391L10.8125 31.3984L11.8281 31.7969C12.0781 31.875 12.3437 31.9531 12.5703 32.0234L13.7734 32.2422L15.4922 32.3203H16.9141C17.0781 32.3203 18.5156 32.2422 18.5234 32.2344L20.3516 32.2656L22.1172 32.0469L22.8828 31.7266L23.4063 31.1016L23.4297 30.2734C23.3984 30.2031 23.2969 29.9375 23.2656 29.8359C23.2422 29.7656 22.8906 29.3516 22.5703 28.9922L22.5625 28.9844C22.4219 28.7812 22.1953 28.4297 22.1953 28.3125C22.1953 28.1953 22.3359 27.8516 22.3672 27.7891L22.3828 27.7578L23.1172 27.5469L23.6016 27.8984L24.0391 27.6562L24.5313 27.1641L25.3906 26.5313L26.1719 26.0859L26.7891 25.9687L27.6016 26.5234L27.5469 26.4609L27.8828 26.1641L28.1953 25.6484V25.1094L28.1328 24.9531L27.7344 25.2734L27.0234 25.4766H27.0078L25.9141 25.4531L24.3281 25.6172L23.8281 25.6719L23.4453 25.6172L22.4219 25.4766L21.2656 25.2578L19.3984 24.9531H19.3906L17.6016 24.2109L16.0312 23.3047L15.0703 22.6562L14.9766 22.1953L15.1016 21.7656L15.4844 21.4844L16.375 21.6875L18.3203 22.2891C19.2734 22.4844 20.7266 22.7734 20.8203 22.7813C20.8672 22.7813 21.0547 22.8125 21.5234 22.8906C22.0234 22.9687 22.7109 23.0859 22.8516 23.0859C23.0938 23.0859 24.9609 23.1875 25.0703 23.1953C25.1719 23.1953 26.6875 23.1641 26.8516 23.1641C26.9609 23.1641 27.5469 22.9687 27.8984 22.8437L28.4297 22.2109L28.9375 21.3281C28.9688 21.0703 28.9375 20.8125 28.8438 20.5703C28.7187 20.2422 28.4844 19.9609 28.1875 19.7734C28.0312 20.0703 27.8281 20.2578 27.5938 20.3437C27.5078 20.375 27.4063 20.3906 27.3125 20.3906C27.1719 20.3906 27.0313 20.3594 26.9141 20.2969L26.9922 20.1562C27.1641 20.2422 27.3594 20.2578 27.5469 20.1953C27.7578 20.1172 27.9375 19.9297 28.0781 19.6406C27.9062 19.7031 27.7187 19.7422 27.5312 19.7422C27.4141 19.7422 27.2969 19.7344 27.1797 19.7031L27.1953 19.625L27.2109 19.5469C27.2187 19.5469 27.8203 19.6953 28.2734 19.3438C28.5937 19.1016 28.7734 18.6641 28.8047 18.0625L28.2813 18.6797L27.6484 18.9688C27.3672 19.0391 26.4297 19.2734 26.3438 19.2734C26.3125 19.2734 26.1875 19.2578 25.8828 19.2031C25.5 19.1406 24.9297 19.0547 24.7813 19.0547C24.5156 19.0547 24.1406 18.7656 24.1016 18.7344L24.0547 18.7031L24.3516 17.8359L25.1719 16.9062L26.0391 16.2891H27.1172L28.1328 16.3984L28.5703 16.8984L28.7813 17.2109V16.3672L27.9375 16.0625C27.8438 16.0469 27.0078 15.9297 26.8047 15.9297C26.6094 15.9297 25.8594 16.0469 25.7344 16.0625L24.6484 16.7656L24.5625 16.6328L25.6719 15.9141H25.6875C25.7266 15.9062 26.5703 15.7734 26.7969 15.7734C27.0156 15.7734 27.9219 15.9062 27.9609 15.9141L27.9766 15.9219L28.8906 16.2578L28.9766 16.3047L28.9844 16.2422L28.5547 15.8672L27.7813 15.4922L26.8438 15.4141L25.7656 15.6016L25.3359 15.7891L25.2734 15.6406L25.7266 15.4453L26.8359 15.25L27.8203 15.3359L27.8594 15.3594L27.5625 14.8984L26.7266 14.1641L26.7344 14.1562L23.4844 14.25C23.4844 14.25 23.0625 14.3047 22.5781 14.3672L23.0391 15.0312L23.2734 15.4453L23.1562 15.8594L23 15.8125L23.1016 15.4609L22.8984 15.1094L22.4062 14.3984L22.4375 14.375C21.8281 14.4531 21.1797 14.5312 21.1406 14.5312C21.0703 14.5312 18.4609 14.7266 18.3516 14.7266C18.1328 14.7109 17.9141 14.6875 17.7031 14.6406C17.6641 14.6172 15.9219 13.9844 15.8594 13.9453C15.7969 13.9062 15.1875 13.3203 15.1875 13.3203L14 12.9531L12.9609 14.2344L11.8828 15.8594ZM24.5625 19.4453C24.7187 19.5156 24.8594 19.6016 25.0078 19.6875L25.8984 19.7891L26.4063 19.6797L26.4375 19.8359L25.9063 19.9453L25.2891 19.875C25.5547 20.0703 25.7969 20.2891 26.0156 20.5391C26.1719 20.7187 26.3125 20.9141 26.4297 21.1172L26.2891 21.1953C26.1484 20.9609 25.9844 20.7344 25.7891 20.5391C25.5313 20.2734 25.2422 20.0312 24.9297 19.8359L24.4766 19.5781L24.5625 19.4453ZM15.6328 16.5234L16.3438 15.8438L16.9609 15.3359L17.8437 15.1641L18.7734 15.1328H19.7656L20.5859 15.1641L22.25 15.1953L22.7734 15.5156L23.4141 16.1016L23.7812 16.5547L23.9531 17.4766L23.7969 17.5078L23.6328 16.625L23.2969 16.2031L22.6797 15.6406L22.2109 15.3516L20.9063 15.3281L21.4766 15.6406C21.7812 15.7969 22.3047 16.0781 22.3594 16.1953C22.3984 16.2578 22.8125 16.6641 23.1953 17.0234L23.2031 17.0312L23.7891 17.7891L23.875 18.4141L23.7188 18.4375L23.6406 17.8594L23.0859 17.1406C22.8906 16.9609 22.2813 16.3828 22.2266 16.2734C22.1797 16.2109 21.7734 15.9766 21.4141 15.7891L20.5781 15.3281L19.7734 15.3047H18.7891L17.8672 15.3281L17.0469 15.4844L16.4609 15.9609L15.7969 16.6016L15.7266 17.0234L15.8672 17.1484L16.2188 16.9609L16.7969 16.2422L17.8437 15.8438L19.2031 15.7031L20.3516 15.8125L21.8438 16.5859L22.4609 16.9531L23.0547 17.7422L23.3281 18.6016L23.7266 18.8594V19.2109L23.3594 19.5469L22.7031 19.8203L22.4219 20.0547L22.125 20.5391L21.9766 20.7812L21.9609 20.7891C21.7656 20.8906 21.4219 21.0703 21.3281 21.0703C21.2578 21.0859 20.8203 21.2812 20.4297 21.4766L20.3906 21.4844C20.3594 21.4922 19.6719 21.7031 19.5 21.7344L19.4766 21.5781C19.625 21.5547 20.2734 21.3594 20.3359 21.3359C20.7266 21.1484 21.2109 20.9219 21.2969 20.9219C21.4844 20.8516 21.6641 20.7656 21.8438 20.6641L21.9141 20.5469L22.2734 19.9609L22.3594 19.8906C22.1094 19.8672 21.7813 19.8281 21.6953 19.7812C21.6563 19.7656 21.4219 19.7344 20.1953 19.7344C19.8906 19.7344 19.1719 19.5703 19.0703 19.5391C18.9922 19.5156 18.2578 19.2969 18.25 19.2969L18.2344 19.2891L18.2188 19.2734C18.2109 19.2656 17.5313 18.6172 17.0313 18.3281L17.1094 18.1875C17.5938 18.4687 18.2109 19.0469 18.3203 19.1484C18.4375 19.1797 19.0469 19.3672 19.125 19.3906C19.2109 19.4219 19.9141 19.5781 20.1953 19.5781C21.6719 19.5781 21.7344 19.6172 21.7734 19.6484C21.8281 19.6797 22.1797 19.7187 22.4766 19.7422L22.4688 19.7969L22.5859 19.6953L23.2422 19.4219L23.5313 19.1562V18.9609L23.3281 18.8281L23.3359 18.8516L22.6563 19.1016L21.7188 19.2109C21.6719 19.2109 21.4687 19.2187 21.2422 19.2187C20.9766 19.2187 20.6875 19.2109 20.6016 19.1797C20.4766 19.1406 19.6875 18.9687 19.2969 18.8828H19.2891L19.2813 18.875C18.7891 18.6094 18.1797 18.2734 18.1328 18.1875C18.0938 18.1406 17.7891 17.9844 17.5312 17.8594H17.5234L16.6562 17.3516L16.5391 17.375L16.5234 17.2734L16.25 17.1172L15.8281 17.3437L15.5313 17.0859L15.6328 16.5234ZM15.9922 20.2656L16.0312 20.4219L15.5 20.5469L15.2344 20.6094L15.2188 20.5469L15.1953 20.4531L15.9922 20.2656ZM16.3281 21.0078L16.2891 21.1641C16.1094 21.125 15.9219 21.1328 15.7422 21.1641C15.4453 21.2187 15.0078 21.3906 14.5859 21.875L14.4688 21.7734C15.3359 20.7578 16.2891 20.9922 16.3281 21.0078Z" fill="#5CCA47"/>
<path d="M17.3984 17.0547C17.4453 17.0469 18.5547 16.9141 18.6953 16.9141C18.75 16.9141 18.9063 16.9297 19.1094 16.9453C19.3828 16.9687 19.8437 17.0078 19.9141 17C20.0234 16.9687 21.1172 16.875 21.2422 16.8594L21.8906 16.8125L21.7578 16.7344L20.2969 15.9766L19.1953 15.8672L17.8672 16L16.8828 16.375L16.3828 17L16.7031 17.1875L17.3984 17.0547Z" fill="#5CCA47"/>
<path d="M21.25 17.0234C20.7656 17.0703 20.0234 17.1406 19.9453 17.1563C19.875 17.1719 19.625 17.1562 19.0938 17.1094C18.9141 17.0937 18.7422 17.0781 18.6953 17.0781C18.5859 17.0781 17.7422 17.1797 17.4219 17.2109L16.9062 17.3047L17.6094 17.7188C17.8281 17.8203 18.2031 18.0078 18.2656 18.1016C18.3281 18.1641 18.8594 18.4687 19.3516 18.7344C19.4766 18.7578 20.5078 18.9844 20.6641 19.0391C20.7734 19.0781 21.375 19.0703 21.7266 19.0625L22.6484 18.9531L23.2031 18.7422L23.1719 18.7266L22.8906 17.8359L22.3359 17.0938L22.0078 16.8984L22.0156 16.9766L21.25 17.0234Z" fill="#5CCA47"/>
<path d="M28.4687 16.9609L28.0781 16.5234L27.125 16.4141H26.1094L25.2891 17L24.5078 17.8828L24.2578 18.6094C24.3828 18.7031 24.6328 18.8594 24.7969 18.8594C24.9609 18.8594 25.4922 18.9453 25.9219 19.0156C26.125 19.0469 26.3281 19.0781 26.3594 19.0781C26.4297 19.0703 27.1641 18.8906 27.6172 18.7812L28.1953 18.5156L28.6562 17.9844L28.6172 17.7344L27.1953 17.1562L25.375 17.1016L25.3828 16.9453L27.2344 17L28.7656 17.625L28.8281 18.0234C28.8281 18 28.8281 17.9766 28.8281 17.9531V17.5156L28.4687 16.9609Z" fill="#5CCA47"/>
<path d="M26.7656 26.125L26.2344 26.2266L25.4844 26.6563L24.6406 27.2813L24.4062 27.5156L24.9375 27.8906L24.9766 28.1875L24.6172 28.5469L24.5078 28.4375L24.8125 28.1328L24.7969 27.9844L24.2969 27.6328L24.1484 27.7813L23.8359 27.9531L23.75 28.375L24.1875 28.7578L24.8203 28.7344C24.9375 28.6484 25.1328 28.5234 25.2266 28.5156C25.3203 28.4609 25.4141 28.3984 25.5 28.3281C25.7109 28.1641 25.7969 28.1094 25.8594 28.1094C26.0469 28.0156 26.2266 27.9141 26.3984 27.7969L26.4219 27.7813L27.1875 27.8672L27.4531 28.1328L27.3984 28.1875C27.2344 28.3672 27.0469 28.6016 27.0391 28.6562C27.0391 28.6953 27.0312 28.7344 27.0156 28.7656L27.1953 28.6641L28.0391 28.0625L28.1328 28.1953L27.2734 28.8047L26.875 29.0234C26.8594 29.0469 26.8438 29.0703 26.8359 29.0781L26.8047 29.0547L26.1953 29.3906L25.7734 30L25.625 30.3594L25.9297 30.7891L26.2656 31.1719L26.6641 31.2188L27.0313 31.1406L27.0234 31.0625L27.4297 30.4219L28.1953 29.6797L28.3047 29.7969L27.5469 30.5312L27.1797 31.1016L27.2031 31.5313L27.5938 31.7969L28.1094 31.8516L28.3984 31.7656L28.3437 31.6797L28.3828 31.6328C28.3984 31.6094 28.8203 31.1328 28.9063 31.0547C28.9688 30.9922 29.3281 30.5781 29.5078 30.375L29.625 30.4766C29.6016 30.5 29.1016 31.0859 29.0156 31.1641C28.9531 31.2266 28.6484 31.5625 28.5391 31.6875L28.8125 32.0937H29.2734L29.6719 31.9141L30 31.4297L30.4375 30.9609L30.5547 31.0703L30.1172 31.5313L29.7813 32.0391L29.3047 32.25H28.7266L28.4844 31.8906L28.1172 32L27.5313 31.9453L27.0469 31.6094L27.0313 31.2969L26.6641 31.375L26.1797 31.3125L25.8125 30.8906L25.2656 30.5625L24.6953 29.9297L24.5547 28.9453L24.7109 28.9219L24.8281 29.7656L25.5078 29.2266L26.2422 28.5234L26.6641 27.9453L26.4609 27.9219C26.2344 28.0703 25.9688 28.2344 25.875 28.25C25.7813 28.3047 25.6875 28.3672 25.6016 28.4375C25.3828 28.6016 25.2969 28.6562 25.2422 28.6562C25.125 28.7109 25.0078 28.7812 24.9062 28.8594L24.8828 28.875L24.1406 28.9063L23.5859 28.4141L23.6641 28.0391L23.6094 28.0703L23.1094 27.7109L22.5234 27.8828C22.4609 28.0234 22.4141 28.1641 22.3828 28.3125C22.3906 28.375 22.5625 28.6641 22.7187 28.8906C22.9297 29.125 23.4141 29.6797 23.4453 29.7969C23.4688 29.8828 23.5703 30.1328 23.6094 30.2266L23.6172 30.2422L23.5938 31.3047L23.8984 31.7578C24.0547 31.8516 25.2031 32.5234 25.3359 32.6016C25.4297 32.6562 26.2578 32.8906 26.7656 33.0312L28.4766 33.1953L29.8516 33.0078L31.0313 32.4688L31.6719 31.8516L31.5234 31.3047L30.7344 29.8359L30.1641 28.9687L29.1719 27.8906L27.7109 27.0859L27.4922 26.6172L26.7656 26.125Z" fill="#5CCA47"/>
<path d="M28.0078 22.9609L27.9844 22.9688C27.8281 23.0234 27.0312 23.3047 26.8594 23.3047C26.6953 23.3047 25.0938 23.3281 25.0781 23.3359C25.0547 23.3359 23.1016 23.2266 22.8594 23.2266C22.7031 23.2266 22.0703 23.125 21.5078 23.0312C21.1953 22.9766 20.875 22.9297 20.8281 22.9297C20.7188 22.9297 18.6953 22.5156 18.2891 22.4375H18.2813L16.3359 21.8359L15.5234 21.6563L15.2422 21.8672L15.1484 22.2031L15.2188 22.5625L16.125 23.1719L17.6797 24.0703L19.4453 24.8047L21.2969 25.1016L22.4531 25.3203L23.8359 25.5078L25.9141 25.2891H25.9219L27.0078 25.3125L27.6641 25.125L28.2188 24.6797L28.6719 23.9844L28.7734 23.6641L28.625 23.3047C27.9688 23.8984 27.8984 23.9219 27.8594 23.9297L27.1875 24.0937L25.3203 24.1797H25.3125L23.3594 24.0703L21.4219 23.7188L19.8594 23.75H19.8516L18.2266 23.3359L16.7891 22.8359L16.0234 22.3672L16.1094 22.2344L16.8672 22.6953L18.2813 23.1875L19.8828 23.5938L21.4453 23.5625H21.4531L23.3906 23.9141L25.3281 24.0234L27.1797 23.9453L27.8281 23.7812C27.8672 23.7656 28.0859 23.5938 28.5469 23.1719C28.6094 23.1172 28.6484 23.0781 28.6641 23.0625L29.2578 22.25L29.4609 21.8672C29.4297 21.7344 29.3984 21.6094 29.3828 21.4766C29.3047 21.3516 29.2188 21.2422 29.1172 21.1328C29.1172 21.2031 29.1172 21.2734 29.1016 21.3438V21.3594L28.5625 22.2891L28.0078 22.9609Z" fill="#C24E2B"/>
<path d="M31.6484 31.25L30.8516 29.7656L30.2734 28.8828L29.2734 27.7656L27.8281 26.9766L27.6172 26.5234L27.5781 26.5469C27.5781 26.5469 27.7109 27.0313 27.8047 27.0781C27.8984 27.125 29.1484 27.7656 29.2109 27.7969C29.2734 27.8281 30.3594 29.125 30.3594 29.125L31.2344 30.6484L31.7578 31.8203C31.7578 31.8203 31.0859 32.5078 31.0469 32.5156C31.0078 32.5234 29.7109 33.1562 29.6719 33.1562C29.6328 33.1562 28.375 33.2969 28.3047 33.2812C28.2344 33.2578 26.6875 33.125 26.5703 33.1172C26.4453 33.1094 25.0156 32.5391 25.0156 32.5391L23.7812 31.7969L23.4297 31.25L22.9375 31.8047C22.9375 31.8047 22.2422 32.1563 22.1484 32.1563C22.0547 32.1563 20.3516 32.3828 20.2187 32.3828H16.7891C16.7891 32.3828 13.3984 32.3203 13.25 32.25C13.2031 32.2266 12.9297 32.1406 12.5703 32.0234L12.2812 31.9688L11.8281 31.7969C11.2734 31.625 10.7734 31.4766 10.7734 31.4766L9.375 30.5703C9.375 30.5703 8.78906 29.5547 8.76562 29.5C8.74219 29.4453 8.38281 28.5938 8.38281 28.5547C8.38281 28.5156 8.25781 27.8359 8.25781 27.8359L8.50781 26.2812L8.61719 24.6484L8.88281 22.8672C8.88281 22.8672 9.32812 21.0781 9.33594 21C9.34375 20.9141 10.0625 19.1484 10.0625 19.1484L10.8203 17.7813L11.8203 15.7187L12.9219 14.1641L13.9922 12.8906L14.0625 12.9141L13.9375 12.8125L12.8984 14.1016L11.7422 15.7812L10.8359 17.5469L9.90625 19.375L9.24219 21.1094L8.79687 22.9531L8.52344 24.9688L8.35938 26.6953L8.16406 27.8594L8.35938 28.7812L8.69531 29.5625L9.3125 30.6562L10.7266 31.5469L12.2187 32.1328L13.7422 32.4141L15.4844 32.5H16.9062C17.0703 32.5 18.4375 32.4219 18.5234 32.4141L20.3594 32.4453H20.3672L22.1563 32.2266H22.1641L22.9844 31.8828L23.4063 31.375L23.7578 31.8984L23.7734 31.9062C23.7891 31.9141 25.0937 32.6719 25.2266 32.7578C25.3672 32.8437 26.5625 33.1719 26.7031 33.2031L28.4531 33.3672L29.8594 33.1719H29.8672L31.0859 32.6172L31.1016 32.6094L31.8281 31.9062L31.6484 31.25Z" fill="black"/>
<path d="M12.9219 14.1641L11.8203 15.7187L10.8203 17.7813L10.0625 19.1484C10.0625 19.1484 9.34375 20.9141 9.33594 21C9.32813 21.0859 8.88281 22.8672 8.88281 22.8672L8.61719 24.6484L8.50781 26.2812L8.25781 27.8359C8.25781 27.8359 8.38281 28.5156 8.38281 28.5547C8.38281 28.5938 8.74219 29.4453 8.76562 29.5C8.78906 29.5547 9.375 30.5703 9.375 30.5703L10.7734 31.4766C10.7734 31.4766 11.2734 31.625 11.8281 31.7969L10.8125 31.3984L9.4375 30.5391L8.84375 29.4922L8.52344 28.7344L8.33594 27.8516L8.52344 26.7188L8.6875 24.9922L8.96094 22.9922L9.39844 21.1641L10.0547 19.4453L10.9844 17.6094L11.8828 15.8594L13.0313 14.1953L14.0703 12.9141L14 12.8906L12.9219 14.1641Z" fill="black"/>
<path d="M26.7969 25.9609L26.1797 26.0781L25.3984 26.5234L24.5391 27.1563L24.0469 27.6484L23.6094 27.8906L23.125 27.5391L22.3906 27.75L22.375 27.7813C22.3437 27.8516 22.2031 28.1875 22.2031 28.3047C22.2031 28.4219 22.4375 28.7813 22.5703 28.9766L22.5781 28.9844C22.8984 29.3438 23.25 29.7578 23.2734 29.8281C23.2969 29.9297 23.4062 30.1953 23.4375 30.2656L23.4141 31.0938L22.8906 31.7188L22.125 32.0391L20.3594 32.2578L18.5312 32.2266C18.5156 32.2266 17.0781 32.3125 16.9219 32.3125H15.5L13.7812 32.2344L12.5781 32.0156C12.9297 32.125 13.2109 32.2188 13.2578 32.2422C13.3984 32.3125 16.7969 32.375 16.7969 32.375H20.2266C20.3594 32.375 22.0703 32.1484 22.1563 32.1484C22.25 32.1484 22.9453 31.7969 22.9453 31.7969L23.4375 31.2422L23.7891 31.7891L25.0234 32.5313C25.0234 32.5313 26.4531 33.0937 26.5781 33.1094C26.7031 33.1172 28.2422 33.25 28.3125 33.2734C28.3828 33.2969 29.6406 33.1484 29.6797 33.1484C29.7187 33.1484 31.0156 32.5234 31.0547 32.5078C31.0938 32.5 31.7656 31.8125 31.7656 31.8125L31.2422 30.6406L30.3672 29.1172C30.3672 29.1172 29.2813 27.8203 29.2188 27.7891C29.1562 27.7578 27.9063 27.1172 27.8125 27.0703C27.7187 27.0234 27.5859 26.5391 27.5859 26.5391L27.625 26.5156V26.5078L26.7969 25.9609ZM27.7031 27.0859L29.1641 27.8906L30.1406 28.9688L30.7109 29.8359L31.5 31.3047L31.6484 31.8516L31.0078 32.4688L29.8281 33.0078L28.4531 33.1953L26.7422 33.0312C26.2344 32.8906 25.4063 32.6562 25.3125 32.6016C25.1797 32.5234 24.0313 31.8516 23.875 31.7578L23.5703 31.3047L23.5938 30.2422V30.2344C23.5547 30.1406 23.4531 29.8906 23.4297 29.8047C23.3984 29.6875 22.9141 29.1328 22.7031 28.8984C22.5469 28.6641 22.3672 28.375 22.3672 28.3203C22.3984 28.1719 22.4453 28.0313 22.5078 27.8906L23.0938 27.7188L23.5938 28.0781L23.6484 28.0469L23.5703 28.4219L24.125 28.9141L24.8672 28.8828L24.8906 28.8672C24.9922 28.7891 25.1094 28.7188 25.2266 28.6641C25.2891 28.6641 25.3672 28.6094 25.5859 28.4453C25.6719 28.375 25.7656 28.3125 25.8594 28.2578C25.9531 28.25 26.2266 28.0781 26.4453 27.9297L26.6484 27.9531L26.2266 28.5313L25.4922 29.2344L24.8125 29.7734L24.6953 28.9297L24.5391 28.9531L24.6797 29.9375L25.25 30.5703L25.7969 30.8984L26.1641 31.3203L26.6484 31.3828L27.0156 31.3047L27.0312 31.6172L27.5156 31.9531L28.1016 32.0078L28.4687 31.8984L28.7109 32.2578H29.2891L29.7656 32.0469L30.1016 31.5391L30.5391 31.0781L30.4219 30.9688L29.9844 31.4375L29.6563 31.9219L29.2578 32.1016H28.7969L28.5234 31.6953C28.6328 31.5703 28.9375 31.2344 29 31.1719C29.0859 31.0859 29.5859 30.5078 29.6094 30.4844L29.4922 30.3828C29.3125 30.5938 28.9531 31 28.8906 31.0625C28.8047 31.1484 28.3828 31.625 28.3672 31.6406L28.3281 31.6875L28.3828 31.7734L28.0938 31.8594L27.5781 31.8047L27.1875 31.5391L27.1641 31.1094L27.5312 30.5391L28.2891 29.8047L28.1797 29.6875L27.4141 30.4297L27.0078 31.0703L27.0156 31.1484L26.6484 31.2266L26.25 31.1797L25.9141 30.7969L25.6094 30.3672L25.7578 30.0078L26.1797 29.3984L26.7891 29.0625L26.8203 29.0859C26.8281 29.0703 26.8437 29.0547 26.8594 29.0313L27.2578 28.8125L28.1172 28.2031L28.0234 28.0703L27.1797 28.6719L27 28.7734C27.0156 28.7422 27.0234 28.7031 27.0234 28.6641C27.0312 28.6016 27.2188 28.375 27.3828 28.1953L27.4375 28.1406L27.1719 27.875L26.4062 27.7891L26.3828 27.8047C26.2109 27.9219 26.0312 28.0313 25.8437 28.1172C25.7812 28.1172 25.6953 28.1797 25.4844 28.3359C25.3984 28.4063 25.3047 28.4688 25.2109 28.5234C25.1172 28.5313 24.9297 28.6563 24.8047 28.7422L24.1719 28.7656L23.7344 28.3828L23.8203 27.9609L24.1328 27.7891L24.2812 27.6406L24.7813 27.9922L24.7969 28.1406L24.4922 28.4453L24.6016 28.5547L24.9609 28.1953L24.9219 27.8984L24.3906 27.5234L24.625 27.2891L25.4688 26.6641L26.2188 26.2344L26.75 26.1328L27.4688 26.625L27.7031 27.0859ZM25.5625 30.5781L25.3516 30.4531L24.8828 29.9375L25.6016 29.375L26.3438 28.6562L26.8281 27.9844L27.1016 28.0156L27.2187 28.1328C27.0703 28.2969 26.8672 28.5391 26.8672 28.6484C26.8437 28.7422 26.7969 28.8281 26.7422 28.8984L26.0625 29.2734L25.6094 29.9219L25.4219 30.3906L25.5625 30.5781Z" fill="black"/>
<path d="M27.4766 14.6562L27.875 15.1797C27.875 15.1797 28.0703 15.4844 28.1406 15.5078C28.2109 15.5312 28.8594 15.9062 28.8594 15.9062L29.125 16.2031L29.0703 16.375L28.8672 16.3125L28.8984 17.3203H28.9609V16.4141L29.1406 16.5156L29.1875 16.1328L28.6797 15.6875L28.1328 15.4219L28.1562 15.4062L27.7344 14.7422L26.8828 13.9922L26.7891 14.1016H26.875L27.4766 14.6562Z" fill="black"/>
<path d="M28.8047 18.7734C28.8047 18.7734 28.5156 19.3516 28.4844 19.3672C28.4531 19.3906 28.1953 19.5 28.1953 19.5L28.2188 19.6406C28.3359 19.7266 28.4531 19.8203 28.5547 19.9219C28.5703 19.9453 28.7422 20.2891 28.8828 20.5469H29.0234C28.8906 20.1562 28.625 19.8203 28.2734 19.6094C28.2891 19.5781 28.3047 19.5391 28.3203 19.5078C28.3438 19.4922 28.375 19.4766 28.3984 19.4531C28.7813 19.1641 28.9766 18.6641 29 17.9609V17.4688L28.9063 17.3281L28.9297 18.0859L28.8047 18.7734Z" fill="black"/>
<path d="M27.6172 14.8594L27.9141 15.3203L27.875 15.2969L26.8906 15.2109L25.7812 15.4062L25.3281 15.6016L25.3906 15.75L25.8203 15.5625L26.8984 15.375L27.8359 15.4531L28.6094 15.8281L29.0391 16.2031L29.0312 16.2656L28.9453 16.2188L28.0312 15.8828L28.0156 15.875C27.9766 15.8672 27.0781 15.7344 26.8516 15.7344C26.625 15.7344 25.7812 15.8672 25.7422 15.875H25.7266L24.6172 16.5937L24.7031 16.7266L25.7891 16.0234C25.9141 16.0078 26.6641 15.8906 26.8594 15.8906C27.0625 15.8906 27.8984 16.0156 27.9922 16.0234L28.8359 16.3281V17.1875L28.625 16.875L28.1875 16.375L27.1719 16.2656H26.0937L25.2266 16.8828L24.4062 17.8125L24.1094 18.6797L24.1563 18.7109C24.1953 18.7422 24.5703 19.0313 24.8359 19.0313C24.9844 19.0313 25.5625 19.125 25.9375 19.1797C26.2422 19.2266 26.3672 19.25 26.3984 19.25C26.4844 19.25 27.4219 19.0156 27.7031 18.9453L28.3359 18.6562L28.8594 18.0391C28.8281 18.6406 28.6484 19.0781 28.3281 19.3203C27.8672 19.6719 27.2656 19.5234 27.2656 19.5234L27.25 19.6016L27.2344 19.6797C27.3516 19.7031 27.4688 19.7187 27.5859 19.7187C27.7734 19.7187 27.9609 19.6875 28.1328 19.6172C27.9922 19.9063 27.8125 20.0938 27.6016 20.1719C27.4219 20.2344 27.2188 20.2188 27.0469 20.1328L26.9688 20.2734C27.0938 20.3359 27.2344 20.3672 27.3672 20.3672C27.4609 20.3672 27.5547 20.3516 27.6484 20.3203C27.8828 20.2344 28.0781 20.0469 28.2422 19.75C28.5391 19.9375 28.7734 20.2187 28.8984 20.5469H28.9219C28.7891 20.2891 28.6094 19.9453 28.5937 19.9219C28.4844 19.8203 28.375 19.7266 28.2578 19.6406L28.2344 19.5C28.2344 19.5 28.4922 19.3906 28.5234 19.3672C28.5547 19.3437 28.8438 18.7734 28.8438 18.7734L28.9687 18.0938L28.9453 17.3359L28.9141 16.3281L29.1172 16.3906L29.1719 16.2188L28.9062 15.9219C28.9062 15.9219 28.2578 15.5391 28.1875 15.5234C28.1172 15.5 27.9219 15.1953 27.9219 15.1953L27.5234 14.6719L26.9141 14.125H26.8281L26.8203 14.1328L27.6172 14.8594ZM28.8359 18.0234L28.7734 17.625L27.2422 17L25.3906 16.9453L25.3828 17.1016L27.2031 17.1563L28.625 17.7344L28.6641 17.9844L28.2031 18.5156L27.625 18.7812C27.1719 18.8906 26.4375 19.0703 26.3672 19.0781C26.3359 19.0781 26.1328 19.0469 25.9297 19.0156C25.5 18.9453 24.9687 18.8594 24.8047 18.8594C24.6484 18.8594 24.3984 18.7031 24.2656 18.6094L24.5156 17.8828L25.2969 17L26.1172 16.4141H27.1328L28.0859 16.5234L28.4766 16.9609L28.8438 17.5156V17.9531C28.8359 17.9766 28.8359 18 28.8359 18.0234Z" fill="black"/>
<path d="M23.8438 25.6562L24.3438 25.6016H23.4609L23.8438 25.6562Z" fill="black"/>
<path d="M28.2891 25.6328C28.2656 25.6719 27.8125 26.4062 27.8125 26.4062L27.6094 26.5156L27.6563 26.5703L28.0156 26.2578L28.3594 25.6797V25.6016H28.2891C28.2969 25.6172 28.2969 25.625 28.2891 25.6328Z" fill="black"/>
<path d="M28.2891 25.6328C28.2891 25.625 28.2969 25.6094 28.2969 25.6016H28.2109V25.6328L27.8984 26.1484L27.5625 26.4453L27.6172 26.5078L27.625 26.5156L27.8281 26.4062C27.8203 26.4062 28.2734 25.6797 28.2891 25.6328Z" fill="black"/>
<path d="M29.0391 20.8437L29.1094 20.9453C29.0937 20.8125 29.0703 20.6797 29.0234 20.5469H28.8828C28.9688 20.7109 29.0391 20.8437 29.0391 20.8437Z" fill="black"/>
<path d="M29.5469 21.7187C29.5391 21.7578 29.4453 22.0703 29.4219 22.1172C29.3984 22.1719 28.6641 23.1797 28.6641 23.1797L28.8359 23.5312C28.8359 23.5312 28.8672 23.7812 28.8438 23.8203C28.8203 23.8594 28.1719 24.8672 28.1719 24.8672L28.2734 25.1484C28.2734 25.1484 28.2969 25.5 28.2891 25.6094H28.3594V25.0703L28.2734 24.8359L28.3437 24.7812L28.8203 24.0469L28.9453 23.6484L28.7578 23.1875C28.7734 23.1719 28.7812 23.1641 28.7812 23.1641L29.3906 22.3281L29.6328 21.8828L29.625 21.8516C29.5938 21.7266 29.5625 21.5938 29.5469 21.4609C29.5469 21.4297 29.5469 21.3438 29.1406 20.9141L29.1094 20.9453L29.3516 21.2891C29.3516 21.2891 29.5547 21.6797 29.5469 21.7187Z" fill="black"/>
<path d="M28.8828 20.5469H28.8594C28.9531 20.7891 28.9844 21.0469 28.9531 21.3047L28.4375 22.1875L27.9063 22.8203C27.5469 22.9453 26.9609 23.1406 26.8594 23.1406C26.6953 23.1406 25.1797 23.1641 25.0781 23.1719C24.9609 23.1641 23.1016 23.0625 22.8594 23.0625C22.7188 23.0625 22.0313 22.9531 21.5313 22.8672C21.0703 22.7891 20.875 22.7578 20.8281 22.7578C20.7266 22.75 19.2813 22.4609 18.3281 22.2656L16.3828 21.6641L15.4922 21.4609L15.1094 21.7422L14.9844 22.1719L15.0781 22.6328L16.0391 23.2812L17.6094 24.1875L19.3984 24.9297H19.4062L21.2734 25.2344L22.4297 25.4531L23.4531 25.5938H24.3438L25.9297 25.4297L27.0234 25.4531H27.0391L27.75 25.25L28.1484 24.9297L28.2109 25.0859V25.5938H28.2969C28.3047 25.4844 28.2812 25.1328 28.2812 25.1328L28.1797 24.8516C28.1797 24.8516 28.8281 23.8438 28.8516 23.8047C28.875 23.7656 28.8438 23.5156 28.8438 23.5156L28.6719 23.1641C28.6719 23.1641 29.4141 22.1562 29.4297 22.1016C29.4531 22.0469 29.5391 21.7422 29.5547 21.7031C29.5625 21.6641 29.3594 21.2734 29.3594 21.2734L29.1172 20.9297L29.0469 20.8281C29.0391 20.8438 28.9688 20.7109 28.8828 20.5469ZM29.1094 21.3438C29.1172 21.2734 29.125 21.2031 29.125 21.1328C29.2266 21.2344 29.3125 21.3516 29.3906 21.4766C29.4063 21.6094 29.4297 21.7422 29.4688 21.8672L29.2656 22.25L28.6719 23.0625C28.6562 23.0781 28.6094 23.1172 28.5547 23.1719C28.0937 23.5938 27.8828 23.7578 27.8359 23.7812L27.1875 23.9453L25.3359 24.0234L23.3984 23.9141L21.4609 23.5625H21.4531L19.8906 23.5938L18.2891 23.1875L16.875 22.6953L16.1172 22.2344L16.0312 22.3672L16.7969 22.8359L18.2344 23.3359L19.8594 23.75H19.8672L21.4297 23.7188L23.3672 24.0703L25.3203 24.1797H25.3281L27.1953 24.0937L27.8672 23.9297C27.8984 23.9219 27.9766 23.8984 28.6328 23.3047L28.7812 23.6641L28.6797 23.9844L28.2266 24.6797L27.6719 25.125L27.0156 25.3125L25.9297 25.2891H25.9219L23.8438 25.5078L22.4609 25.3203L21.3047 25.1016L19.4531 24.8047L17.6875 24.0703L16.1328 23.1719L15.2266 22.5625L15.1562 22.2031L15.25 21.8672L15.5312 21.6563L16.3437 21.8359L18.2891 22.4375H18.2969C18.7031 22.5234 20.7188 22.9297 20.8359 22.9297C20.875 22.9297 21.2031 22.9844 21.5156 23.0312C22.0781 23.125 22.7109 23.2266 22.8672 23.2266C23.1094 23.2266 25.0625 23.3359 25.0859 23.3359C25.1016 23.3359 26.7031 23.3047 26.8672 23.3047C27.0391 23.3047 27.8359 23.0234 27.9922 22.9688L28.0156 22.9609L28.5781 22.2891L29.1172 21.3594L29.1094 21.3438Z" fill="black"/>
<path d="M15.7422 21.1641C15.9219 21.125 16.1094 21.125 16.2891 21.1641L16.3281 21.0078C16.2891 21 15.3359 20.7578 14.4688 21.7734L14.5859 21.875C15.0078 21.3828 15.4453 21.2188 15.7422 21.1641Z" fill="black"/>
<path d="M15.4922 20.5469L16.0234 20.4219L15.9922 20.2656L15.1953 20.4531L15.2188 20.5469H15.4922Z" fill="black"/>
<path d="M15.2344 20.6094L15.4922 20.5469H15.2188L15.2344 20.6094Z" fill="black"/>
<path d="M24.9453 19.8438C25.2578 20.0469 25.5469 20.2812 25.8047 20.5469H26.0234C25.8047 20.2969 25.5625 20.0781 25.2969 19.8828L25.9141 19.9531L26.4453 19.8438L26.4141 19.6875L25.9062 19.7969L25.0156 19.6953C24.875 19.6016 24.7266 19.5234 24.5703 19.4531L24.5 19.5938L24.9453 19.8438Z" fill="black"/>
<path d="M26.2969 21.2031L26.4375 21.125C26.3203 20.9219 26.1797 20.7266 26.0234 20.5469H25.8047C25.9922 20.75 26.1563 20.9687 26.2969 21.2031Z" fill="black"/>
<path d="M16.25 17.1172L16.5234 17.2734L16.5391 17.375L16.6562 17.3516L17.5234 17.8594H17.5312C17.7891 17.9844 18.0937 18.1406 18.1328 18.1875C18.1875 18.2656 18.7891 18.6016 19.2812 18.875L19.2891 18.8828H19.2969C19.6953 18.9687 20.4766 19.1406 20.6016 19.1797C20.6953 19.2109 20.9844 19.2187 21.2422 19.2187C21.4687 19.2187 21.6797 19.2109 21.7187 19.2109L22.6562 19.1016L23.3359 18.8516L23.3281 18.8281L23.5312 18.9609V19.1562L23.2422 19.4219L22.5859 19.6953L22.4687 19.7969L22.4766 19.7422C22.1797 19.7187 21.8281 19.6719 21.7734 19.6484C21.7344 19.625 21.6719 19.5781 20.1953 19.5781C19.9141 19.5781 19.2109 19.4219 19.125 19.3906C19.0469 19.3672 18.4375 19.1797 18.3203 19.1484C18.2187 19.0469 17.6016 18.4766 17.1094 18.1875L17.0312 18.3281C17.5391 18.625 18.2187 19.2656 18.2187 19.2734L18.2344 19.2891L18.25 19.2969C18.2578 19.2969 18.9922 19.5156 19.0703 19.5391C19.1641 19.5703 19.8828 19.7344 20.1953 19.7344C21.4219 19.7344 21.6484 19.7656 21.6953 19.7812C21.7812 19.8281 22.1094 19.8672 22.3594 19.8906L22.2734 19.9609L21.9141 20.5469H22.1016L22.3984 20.0625L22.6797 19.8281L23.3359 19.5547L23.7031 19.2187V18.8672L23.3047 18.6094L23.0312 17.75L22.4375 16.9609L21.8203 16.5937L20.3281 15.8203L19.1797 15.7109L17.8203 15.8516L16.7734 16.25L16.1953 16.9687L15.8437 17.1563L15.7031 17.0312L15.7734 16.6094L16.4375 15.9687L17.0234 15.4922L17.8437 15.3359L18.7656 15.3125H19.75L20.5547 15.3359L21.3906 15.7969C21.75 15.9844 22.1641 16.2187 22.2031 16.2812C22.2578 16.3906 22.8672 16.9687 23.0625 17.1484L23.6172 17.8672L23.6953 18.4453L23.8516 18.4219L23.7656 17.7969L23.1797 17.0391L23.1719 17.0312C22.7891 16.6797 22.375 16.2734 22.3359 16.2031C22.2812 16.0859 21.7578 15.8047 21.4531 15.6484L20.8828 15.3359L22.1875 15.3594L22.6562 15.6484L23.2734 16.2109L23.6094 16.6328L23.7734 17.5156L23.9297 17.4844L23.7578 16.5625L23.3906 16.1094L22.75 15.5234L22.2266 15.2031L20.5625 15.1719L19.7422 15.1406H18.75L17.8203 15.1719L16.9375 15.3437L16.3203 15.8516L15.6094 16.5313L15.5156 17.0938L15.8125 17.3516L16.25 17.1172ZM22.3437 17.0859L22.8984 17.8281L23.1797 18.7188L23.2109 18.7344L22.6562 18.9453L21.7344 19.0547C21.3828 19.0625 20.7812 19.0703 20.6719 19.0313C20.5156 18.9766 19.4844 18.7578 19.3594 18.7266C18.8672 18.4609 18.3281 18.1563 18.2734 18.0938C18.2109 18.0078 17.8359 17.8203 17.6172 17.7109L16.9141 17.2969L17.4297 17.2031C17.75 17.1641 18.5937 17.0703 18.7031 17.0703C18.75 17.0703 18.9219 17.0859 19.1016 17.1016C19.6328 17.1484 19.8828 17.1641 19.9531 17.1484C20.0312 17.1328 20.7734 17.0547 21.2578 17.0156L22.0234 16.9609L22.0156 16.8828L22.3437 17.0859ZM16.875 16.3828L17.8594 16.0078L19.1875 15.875L20.2891 15.9844L21.75 16.7422L21.8828 16.8203L21.2344 16.8672C21.1094 16.875 20.0156 16.9766 19.9062 17.0078C19.8359 17.0234 19.3828 16.9766 19.1016 16.9531C18.8984 16.9375 18.7422 16.9219 18.6875 16.9219C18.5469 16.9219 17.4375 17.0547 17.3906 17.0625L16.6875 17.1953L16.3672 17.0078L16.875 16.3828Z" fill="black"/>
<path d="M21.8438 20.6641C21.6641 20.7656 21.4844 20.8437 21.2969 20.9219C21.2109 20.9219 20.7266 21.1484 20.3359 21.3359C20.2656 21.3594 19.625 21.5547 19.4766 21.5781L19.5 21.7344C19.6641 21.7031 20.3594 21.4922 20.3906 21.4844L20.3984 21.4766C20.7891 21.2891 21.2344 21.0859 21.2969 21.0703C21.3906 21.0625 21.7344 20.8906 21.9297 20.7891L21.9453 20.7813L22.0937 20.5391H21.9062L21.8438 20.6641Z" fill="black"/>
<path d="M22.5938 14.2656L22.4922 14.3359C22.5391 14.3281 22.5859 14.3281 22.6328 14.3203L22.5938 14.2656Z" fill="black"/>
<path d="M22.9609 15.0703L23.1641 15.4219L23.0625 15.7734L23.2188 15.8203L23.3359 15.4063L23.1016 14.9922L22.6406 14.3281C22.5937 14.3359 22.5469 14.3359 22.5 14.3438L22.4688 14.3672L22.9609 15.0703Z" fill="black"/>
<path d="M27.7422 14.8828L28.4375 14.8125C28.4375 14.8125 30.1719 15.3281 30.2422 15.3984C30.3125 15.4688 31.1875 15.8516 31.1875 15.8516L31.7031 15.8984L31.7734 15.4297L31.3906 14.8828L30.2891 14.0703L29.0313 13.4609L28.2422 13.1875L27.9609 9.20312L27.2969 8.21094L26.3047 7.39844L25.0234 6.76562L23.6953 6.74219L21.1953 7.05469L18.8984 7.50781L18.7656 7.11719C18.5859 7.07031 18.4063 7.03906 18.2266 7.01562C18.0938 7.01562 16.875 7.39062 16.875 7.39062L16.1328 7.78125L15.9766 8.23437L14.9141 8.82031L14.0547 9.89844L13.5625 10.9375C13.5625 10.9375 13.3125 11.9766 13.3125 12.0391C13.3125 12.1016 13.4453 12.6719 13.5391 12.7109C13.6328 12.75 14.3281 12.9375 14.3281 12.9375L15.2422 13.3906L16.5625 14.1562L18.2031 14.6953C18.2031 14.6953 19.7578 14.5859 19.9141 14.5859C20.0703 14.5859 22.4141 14.3359 22.5469 14.3359C22.6797 14.3359 25.25 14.1328 25.3203 14.1328C25.3906 14.1328 26.9219 14.1094 26.9219 14.1094L27.5312 14.6484L27.7422 14.8828Z" fill="#FD3A3A"/>
<path d="M27.1328 17.0938L27.3359 17.5234L27.4609 18.0156L27.3984 18.3281L27.1328 19.0078L26.2891 19.1484L24.9297 18.9063L24.7656 18.4297L24.8281 18L24.9688 17.3203L25.3203 16.9297L25.5469 17.0547L27.0469 17.0938" fill="black"/>
<path d="M20.9453 17.0313L21.1953 17.5078L21.2188 18.0859L21.0937 18.6016L20.8281 19.0156L20.3984 19.0391L18.75 18.5469L18.0938 17.9688L18.1797 17.6016L18.4062 17.25L18.7109 17.0078L19.8672 17.0391C19.8516 17.0313 20.8984 17.1172 20.9453 17.0313Z" fill="black"/>
<path d="M31.5625 14.9453L30.9219 14.3828L30 13.7656L28.4844 13.2109L28.2734 13.125L28.2109 11.8203C28.1328 11.1797 28.0234 10.2109 28.0234 10.1328C28.0234 10.0234 27.9687 9.22656 27.9687 9.19531V9.17969L27.5156 8.35938L26.7578 7.57812L25.5937 6.91406L24.625 6.64062H23.2969L21.9922 6.80469C21.4687 6.89062 20.6484 7.02344 20.5547 7.02344C20.4141 7.02344 19.3203 7.27344 19.1953 7.29688L18.8125 7.39844L18.875 7.36719L18.75 7.11719L18.3438 6.96094L17.75 7.01563L16.7969 7.25L16.0781 7.71094L15.9297 8.09375L16.0312 8.13281L15.6328 8.23438H15.6172L14.7734 8.76562L14.1875 9.42969L13.6563 10.3203L13.2344 11.7734V12.2969L13.5078 12.7813L15.2188 13.3906L15.7891 13.9062L17.0625 14.4844L18.1875 14.7656L20.2891 14.625L23.3281 14.2969L25.4922 14.1328L27.2891 14.1562L29.1875 14.4297L30.6875 15.1406L30.7578 15L29.2422 14.2813L27.3125 14.0078L25.4922 13.9766L23.3203 14.1406L20.2813 14.4687L18.2109 14.6016L17.1328 14.3359L15.8906 13.7656L15.3125 13.2422L13.625 12.6406L13.4063 12.25V11.7891L13.8125 10.3828L14.3281 9.52344L14.8906 8.88281L15.6953 8.375L19.2422 7.44531C19.7031 7.34375 20.4766 7.17188 20.5703 7.17188C20.7109 7.17188 21.8984 6.97656 22.0312 6.95312L23.3125 6.78906H24.6094L25.5234 7.05469L26.6563 7.70312L27.3828 8.45312L27.8047 9.22656C27.8203 9.51562 27.8594 10.0547 27.8594 10.1328C27.8594 10.2422 28.0312 11.6797 28.0547 11.8359L28.1172 13.0625L27.1953 12.7109L25.375 12.5156L24 12.375L22.6484 12.4844L21.0859 12.6484L19.2656 13.0625L17.8984 13.3906L16.9844 13.4453L15.8125 13.2109L16.4063 13.6406L16.8906 13.9219L18 14.1953L19.0859 14.2266H19.0937L20.0625 14.1172L21.4297 13.8984L22.7656 13.6797L24.2656 13.5703L25.3047 13.5156L26.5547 13.5938L28.25 13.8125L30.4375 14.2266L30.8203 14.4766L31.4297 15.0078L31.6016 15.4062L31.5625 15.7031L31.2344 15.7266L30.5937 15.4297L29.4141 14.9609L28.4844 14.6797L27.6719 14.7656L27.6875 14.9219L28.4687 14.8438L29.3516 15.1094L30.5234 15.5703L31.2031 15.8828L31.6953 15.8516L31.7656 15.3828L31.5625 14.9453ZM16.0938 8.10938L16.2109 7.8125L16.8594 7.39844L17.7734 7.17969L18.3281 7.125L18.6406 7.24219L18.7266 7.41406L16.0938 8.10938ZM28.2734 13.6875L26.5625 13.4687L25.2969 13.3828L24.25 13.4375L22.7422 13.5469L21.3906 13.7656L20.0234 13.9844L19.0703 14.0937L18.0156 14.0703L16.9375 13.8047L16.4844 13.5391H16.4766L16.9531 13.6328L17.8984 13.5781L19.2813 13.25L21.0859 12.8437L22.6406 12.6797L23.9766 12.5703L25.3359 12.7031L27.1328 12.8906L28.4141 13.3828L29.9141 13.9297L30.0859 14.0469L28.2734 13.6875Z" fill="black"/>
<path d="M20.4304 18.3263C20.691 18.2488 20.8493 18.0083 20.7841 17.7891C20.7189 17.5699 20.4549 17.455 20.1943 17.5325C19.9338 17.61 19.7754 17.8506 19.8406 18.0697C19.9058 18.2889 20.1699 18.4038 20.4304 18.3263Z" fill="white"/>
<path d="M19.1562 18.2812C19.2684 18.2812 19.3594 18.1903 19.3594 18.0781C19.3594 17.9659 19.2684 17.875 19.1562 17.875C19.0441 17.875 18.9531 17.9659 18.9531 18.0781C18.9531 18.1903 19.0441 18.2812 19.1562 18.2812Z" fill="white"/>
<path d="M19.0313 17.6484C19.1434 17.6484 19.2344 17.5575 19.2344 17.4453C19.2344 17.3331 19.1434 17.2422 19.0313 17.2422C18.9191 17.2422 18.8281 17.3331 18.8281 17.4453C18.8281 17.5575 18.9191 17.6484 19.0313 17.6484Z" fill="white"/>
<path d="M25.6484 18.5391C25.752 18.5391 25.8359 18.4551 25.8359 18.3516C25.8359 18.248 25.752 18.1641 25.6484 18.1641C25.5449 18.1641 25.4609 18.248 25.4609 18.3516C25.4609 18.4551 25.5449 18.5391 25.6484 18.5391Z" fill="white"/>
<path d="M25.625 17.8281C25.7372 17.8281 25.8281 17.7372 25.8281 17.625C25.8281 17.5128 25.7372 17.4219 25.625 17.4219C25.5128 17.4219 25.4219 17.5128 25.4219 17.625C25.4219 17.7372 25.5128 17.8281 25.625 17.8281Z" fill="white"/>
<path d="M26.7422 18.4063C26.945 18.4063 27.1094 18.2419 27.1094 18.0391C27.1094 17.8363 26.945 17.6719 26.7422 17.6719C26.5394 17.6719 26.375 17.8363 26.375 18.0391C26.375 18.2419 26.5394 18.4063 26.7422 18.4063Z" fill="white"/>
</g>
<defs>
<linearGradient id="paint0_linear_61_219" x1="20" y1="0" x2="20" y2="40" gradientUnits="userSpaceOnUse">
<stop stop-color="white"/>
<stop offset="0.0666667" stop-color="#FDFDFD"/>
<stop offset="0.133333" stop-color="#F6F6F6"/>
<stop offset="0.2" stop-color="#EAEAEA"/>
<stop offset="0.266667" stop-color="#D9D9D9"/>
<stop offset="0.333333" stop-color="#C4C4C4"/>
<stop offset="0.4" stop-color="#AAAAAA"/>
<stop offset="0.466667" stop-color="#8E8E8E"/>
<stop offset="0.533333" stop-color="#717171"/>
<stop offset="0.6" stop-color="#555555"/>
<stop offset="0.666667" stop-color="#3B3B3B"/>
<stop offset="0.733333" stop-color="#262626"/>
<stop offset="0.8" stop-color="#151515"/>
<stop offset="0.866667" stop-color="#090909"/>
<stop offset="0.933333" stop-color="#020202"/>
<stop offset="1"/>
</linearGradient>
<clipPath id="clip0_61_219">
<rect width="40" height="40" fill="white"/>
</clipPath>
</defs>
</svg>
