<svg xmlns="http://www.w3.org/2000/svg" xmlns:xlink="http://www.w3.org/1999/xlink" viewBox="0 0 290.66 290.66" xmlns:v="https://vecta.io/nano"><style><![CDATA[.P,.m,.u,.f,.v,.T,.p,.s,.W,.X,.g,.o,.a,.c{mix-blend-mode:multiply}.t,.r,.q,.Q{mix-blend-mode:screen}.h,.i{mix-blend-mode:overlay}.A{isolation:isolate}.Ak{opacity:.4}.Al{opacity:.5}.Am{fill:#0a1726}.An{fill:#1b3e68}.Ao{fill:#ff9e1f}.Ap{fill:#0f213a}.Aq{fill:#fff}.Ar{fill:#efc494}.As{opacity:.7}.At{fill:#474442}.Au{fill:#363331}.Av{fill:#1d1d1b}.Aw{fill:#ffc81a}.Ax{fill:#a45433}.Ay{fill:#fcfd00}.Az{fill:#f9e000}.BA{fill:#e88610}.BB{fill:#e29e7b}.BC{fill:#008b00}.BD{fill:#004a00}.BE{stroke-miterlimit:10}]]></style><defs><radialGradient id="A" cx="145.33" cy="145.33" fx="145.33" fy="145.33" r="145.33" gradientUnits="userSpaceOnUse"><stop offset="0" stop-color="#fff"/><stop offset=".33" stop-color="#fdfdfd"/><stop offset=".45" stop-color="#f7f7f6"/><stop offset=".54" stop-color="#edecea"/><stop offset=".61" stop-color="#dfdcd9"/><stop offset=".66" stop-color="#ccc8c3"/><stop offset=".72" stop-color="#b5afa8"/><stop offset=".76" stop-color="#9a9187"/><stop offset=".81" stop-color="#7b7063"/><stop offset=".82" stop-color="#726658"/><stop offset=".82" stop-color="#796a54"/><stop offset=".83" stop-color="#8e7549"/><stop offset=".85" stop-color="#af8737"/><stop offset=".85" stop-color="#c3922e"/><stop offset=".89" stop-color="#e2c675"/><stop offset=".94" stop-color="#ead287"/><stop offset=".97" stop-color="#fffac2"/><stop offset="1" stop-color="#c3922e"/></radialGradient><radialGradient id="B" cx="146.64" cy="149.31" fx="146.64" fy="149.31" r="133.68" gradientTransform="translate(.3 6.45) scale(.99 .93)" gradientUnits="userSpaceOnUse"><stop offset="0" stop-color="#027fad"/><stop offset=".62" stop-color="#066494"/><stop offset="1" stop-color="#095a8b"/></radialGradient><radialGradient id="C" cx="81.81" cy="196.08" fx="81.81" fy="196.08" r="75.04" gradientTransform="translate(368.44 172.35) rotate(135.12)" gradientUnits="userSpaceOnUse"><stop offset="0" stop-color="#6b6b6a"/><stop offset=".06" stop-color="#656563"/><stop offset=".48" stop-color="#3d3c35"/><stop offset=".81" stop-color="#242318"/><stop offset="1" stop-color="#1b1a0e"/></radialGradient><radialGradient id="D" cx="92.71" cy="133" fx="92.71" fy="133" r="75.04" gradientTransform="translate(213.58 -30.61) rotate(148.74) scale(1 -1)" gradientUnits="userSpaceOnUse"><stop offset="0" stop-color="#1b1a0e"/><stop offset=".19" stop-color="#242318"/><stop offset=".52" stop-color="#3d3c35"/><stop offset=".94" stop-color="#656563"/><stop offset="1" stop-color="#6b6b6a"/></radialGradient><radialGradient id="E" cx="117.62" cy="127.03" fx="117.62" fy="127.03" r="66.47" gradientTransform="translate(-17.73 -2.09) rotate(.67) scale(1.1 1)" xlink:href="#C"/><radialGradient id="F" cx="118.27" cy="126.66" fx="118.27" fy="126.66" r="66.47" gradientTransform="translate(-35.77 -2.09) rotate(.61) scale(1.21 1) skewX(-.11)" xlink:href="#C"/><path id="G" d="M176.21,131.91c-4.98-4.81-12.14-7.16-11.92-12.42,7.67,2.75,15.9,7.69,21.35,15.61-1.98.41-5.66.45-9.43-3.19Z"/><path id="H" d="M124.83 119.02v4.6c2.16-1.74 3.69-3.57 3.58-6.04l-3.58 1.44z"/><path id="I" d="M167.96 120.51l-6.27-2.31c-.5 1.79-.68 5.29 4.36 7.77l2.77 1.24-.86-6.7z"/><path id="J" d="M146.12,122.5c6.49.01,7.15-5.89,6.96-9.43-2.52-.4-5.13-.66-7.86-.73-1.85-.05-4.13.12-6.66.53-.08,3.23.64,9.62,7.57,9.63Z"/><path id="K" d="M158.2 79.86c-.05 1.38.95 2.52 2.29 2.65 1.27.12 2.47-.78 2.74-2.19-.08-.04-.17-.07-.26-.11-.17 1.15-1.25 2.05-2.44 1.94s-2.11-1.09-2.03-2.36l-.3.06z"/><path id="L" d="M158.57 79.79c-.06 1.14.8 2.13 1.96 2.24s2.2-.71 2.35-1.84c-.62-.23-1.35-.39-2.13-.47a8.65 8.65 0 0 0-2.18.07z"/><path id="M" d="M158.79 79.89h.02c.12 0 .21-.08.21-.17 0-.28.07-.51.23-.69.11-.12.22-.17.22-.17.1-.04.14-.15.09-.23-.06-.09-.19-.12-.29-.08-.03.01-.71.3-.68 1.16 0 .09.09.17.2.18z"/><path id="N" d="M158.55 81.35c-.02.23.15.43.38.45s.44-.15.46-.38-.15-.43-.38-.45-.44.15-.46.38z"/><path id="O" d="M167.59 74.45c-1.47-3.82-4.33-6.4-7.57-6.33-3.24.06-6.01 2.75-7.32 6.63 1.82-1.7 4.45-2.79 7.39-2.85s5.61.93 7.5 2.55z"/></defs><g class="A"><path d="M145.33 290.66c-19.61 0-38.65-3.84-56.57-11.43-8.61-3.64-16.92-8.15-24.69-13.4a146.69 146.69 0 0 1-39.24-39.24c-5.25-7.77-9.76-16.08-13.4-24.69C3.84 183.98 0 164.94 0 145.33s3.84-38.65 11.43-56.57c3.64-8.61 8.15-16.92 13.4-24.69a146.69 146.69 0 0 1 39.24-39.24c7.77-5.25 16.08-9.76 24.69-13.4C106.68 3.84 125.72 0 145.33 0s38.65 3.84 56.57 11.43c8.61 3.64 16.92 8.15 24.69 13.4a146.69 146.69 0 0 1 39.24 39.24c5.25 7.77 9.76 16.08 13.4 24.69 7.58 17.93 11.43 36.96 11.43 56.57s-3.84 38.65-11.43 56.57c-3.64 8.61-8.15 16.92-13.4 24.69a146.69 146.69 0 0 1-39.24 39.24c-7.77 5.25-16.08 9.76-24.69 13.4-17.92 7.58-36.96 11.43-56.57 11.43zm0-265.67c-66.35 0-120.34 53.98-120.34 120.34s53.98 120.34 120.34 120.34 120.34-53.98 120.34-120.34S211.68 24.99 145.33 24.99z" fill="url(#A)"/><path d="M145.33,273.28c-70.72,0-128.25-57.4-128.25-127.95S74.61,17.38,145.33,17.38s128.25,57.4,128.25,127.95-57.53,127.95-128.25,127.95Z" fill="url(#B)"/><path d="M145.33 17.88c70.55 0 127.75 57.06 127.75 127.45s-57.2 127.45-127.75 127.45S17.58 215.72 17.58 145.33 74.78 17.88 145.33 17.88m0-1c-34.39 0-66.72 13.36-91.04 37.62s-37.71 56.52-37.71 90.83 13.39 66.57 37.71 90.83 56.65 37.62 91.04 37.62 66.72-13.36 91.04-37.62 37.71-56.52 37.71-90.83-13.39-66.57-37.71-90.83-56.65-37.62-91.04-37.62h0z" fill="#b5832c"/><path d="M137.01 124.18c4.55-4.53 8.94-8.03 13.12-10.44 8.3-4.79 14.31-4.43 17.89-3.29 6.12 1.95 9.47 7.39 9.62 11.74.3 8.72-9.91 16.37-10.35 16.69-1.12.83-2.71.59-3.54-.53s-.6-2.71.53-3.54c2.37-1.76 8.47-7.42 8.3-12.44-.07-2.16-2.02-5.79-6.1-7.1-12.87-4.11-30.57 16.82-37.58 26.01-.85 1.11-2.44 1.33-3.55.48s-1.33-2.44-.48-3.55c4.15-5.44 8.2-10.12 12.13-14.03z" fill="url(#C)"/><path d="M130.51 139.23s-.15-.31-.43-.71l-.51-.66c-.2-.22-.42-.46-.67-.65-.12-.11-.25-.2-.38-.29l-.39-.25-.38-.21c-.12-.07-.25-.11-.36-.16l-.31-.13-.25-.09-.22-.09h.23l.27.01c.11 0 .22.03.35.06s.27.05.4.1c.14.05.29.09.44.17.14.08.3.14.44.24s.29.19.42.31c.13.11.26.23.38.36.12.12.22.26.32.39a4.05 4.05 0 0 1 .43.77c.2.48.22.82.22.82zm-2.11 2.56s-.2-.25-.52-.57l-.57-.53-.34-.27c-.11-.1-.24-.18-.36-.26-.24-.18-.5-.33-.74-.47l-.36-.19c-.11-.07-.23-.11-.33-.16l-.28-.13-.22-.1-.19-.1.22.01c.14.01.34.03.56.09.12.03.24.05.37.1l.4.15.41.2.41.25c.26.19.51.39.71.61.11.1.19.22.28.33l.22.32c.26.41.33.72.33.72zm39.18-3.11s-.08-.02-.21-.08c-.14-.05-.32-.15-.53-.28-.11-.06-.21-.15-.33-.23-.11-.09-.24-.17-.35-.29l-.34-.35c-.12-.12-.21-.26-.31-.39l-.28-.41c-.09-.14-.14-.29-.21-.43l-.18-.41c-.07-.13-.08-.27-.11-.39-.12-.49-.15-.81-.15-.81s.18.29.38.72c.06.11.09.23.17.34l.22.37.23.39.28.38c.09.13.17.27.28.38l.29.35c.09.12.2.21.29.31.1.09.18.2.27.28l.43.39a1.52 1.52 0 0 0 .17.15zm2.2-1.88s-.32-.09-.75-.33c-.11-.06-.22-.13-.34-.21l-.36-.25c-.23-.2-.49-.41-.71-.66l-.32-.37c-.11-.12-.19-.26-.27-.39l-.23-.38a1.62 1.62 0 0 1-.1-.18l-.07-.18-.26-.77s.21.26.47.65c.06.1.14.2.23.31l.27.33c.17.24.4.46.6.69.1.12.21.23.32.34l.32.32.6.55.44.38.17.15zm2.09-2.11s-.33-.08-.77-.3c-.22-.11-.47-.26-.73-.44s-.51-.39-.75-.63l-.34-.37c-.11-.13-.21-.25-.29-.39-.09-.13-.17-.26-.23-.39l-.17-.37c-.09-.23-.15-.44-.17-.58l-.04-.22.12.2.12.22a3.16 3.16 0 0 1 .18.27c.06.1.15.2.22.31s.17.22.26.33c.09.12.2.22.3.34s.22.22.33.34c.22.23.46.44.68.63l.63.53.64.51zm2.24-2.72s-.34.02-.83-.11c-.12-.03-.25-.07-.39-.12-.13-.06-.28-.1-.42-.18-.29-.13-.57-.32-.84-.52-.14-.1-.26-.22-.38-.33s-.23-.24-.33-.35c-.11-.12-.19-.24-.28-.36-.09-.11-.15-.24-.22-.34-.13-.21-.21-.41-.26-.54l-.08-.21s.06.06.15.17l.17.2c.06.08.14.15.22.25l.26.28.3.3.7.6.38.28.38.25c.25.16.5.29.71.4l.74.33zm1.98-3.24s-.32.13-.83.15c-.13.01-.26 0-.41 0l-.46-.05-.48-.11c-.16-.04-.32-.11-.48-.17l-.46-.22c-.15-.08-.28-.18-.42-.26-.13-.09-.25-.19-.36-.28-.12-.09-.2-.2-.29-.29-.18-.18-.3-.35-.39-.47l-.13-.19.19.13.21.15.28.19.33.22.37.22.84.41c.15.06.29.13.44.17l.44.14.8.18a6.69 6.69 0 0 0 .81.09zm1.33-3.82s-.24.26-.73.47a3.09 3.09 0 0 1-.4.14c-.15.04-.3.08-.47.09-.33.05-.68.03-1.03 0l-.51-.11-.48-.17-.43-.2-.36-.22c-.22-.13-.37-.29-.49-.38l-.17-.16.22.09c.14.05.32.16.56.24.12.04.24.09.37.15l.42.14c.14.05.3.07.45.12.15.04.32.06.47.09l.48.05c.16 0 .31.02.47 0 .3 0 .58-.05.82-.09.48-.1.8-.24.8-.24zm.11-3.98s-.17.3-.57.64c-.19.17-.44.35-.73.5-.15.07-.29.16-.46.21a3.11 3.11 0 0 1-.49.16c-.17.05-.34.07-.51.1s-.34.02-.5.03c-.16 0-.32-.02-.47-.03-.15 0-.29-.05-.41-.07-.13-.03-.24-.05-.34-.09l-.25-.1-.22-.09h.23c.07 0 .16.01.26.02s.22 0 .34 0h.4l.44-.03.46-.06.47-.1c.31-.07.61-.19.89-.3l.75-.36.71-.44zm-1.34-3.79s-.11.32-.41.73a5.22 5.22 0 0 1-1.32 1.28c-.14.1-.29.18-.43.26-.14.09-.3.14-.44.21s-.29.11-.43.15c-.14.05-.27.08-.4.1a2.55 2.55 0 0 1-.6.07h-.23l.21-.09.55-.22.35-.16.39-.19.8-.48c.27-.17.52-.37.75-.55l.62-.54.59-.57zm-2.65-3.44a1.64 1.64 0 0 0 .06.23c.03.15.05.38.02.64-.02.13-.04.28-.09.43a3.25 3.25 0 0 1-.17.46 2.68 2.68 0 0 1-.27.45c-.11.14-.21.29-.35.41-.25.26-.54.48-.82.65-.28.18-.57.3-.81.39-.24.1-.46.14-.61.18l-.23.05.2-.13.53-.32.34-.22.37-.26c.13-.08.25-.2.37-.3.13-.1.24-.22.36-.33s.21-.24.32-.36l.27-.39.2-.39.15-.37c.15-.47.16-.83.16-.83zm-3.33-2.35s.23.28.36.81c.04.13.06.28.07.43 0 .16.02.32 0 .49-.02.35-.12.7-.26 1.05l-.26.48-.31.42c-.11.13-.23.24-.33.35l-.34.27c-.2.17-.41.27-.54.35l-.21.11.16-.18c.1-.12.27-.25.43-.46l.27-.31.27-.37c.1-.12.16-.27.26-.4.09-.14.15-.29.22-.44l.17-.46.11-.46c.03-.15.04-.3.05-.44v-.41c-.02-.51-.12-.85-.12-.85zm-3.46-1.24l.18.17a2.61 2.61 0 0 1 .38.53c.14.24.26.54.35.88.03.17.08.35.08.53.02.18 0 .37-.01.56s-.08.37-.12.55c-.06.18-.14.34-.2.5l-.26.43c-.09.13-.19.24-.28.34-.17.21-.36.34-.48.44l-.2.15.14-.21.16-.23c.07-.08.12-.19.19-.3l.21-.36.19-.42.15-.46c.03-.16.08-.32.09-.48.02-.16.04-.33.03-.49 0-.16-.02-.32-.03-.48l-.09-.45-.12-.4c-.08-.25-.17-.45-.23-.59s-.11-.22-.11-.22zm-4.3-.37s.09.03.24.1a2.98 2.98 0 0 1 .58.36c.11.09.23.19.34.31a2.64 2.64 0 0 1 .32.41c.09.16.2.32.25.5.08.18.11.37.15.56.03.19.02.39.03.58l-.09.55-.17.49-.21.4c-.06.13-.14.23-.21.32l-.18.23-.16.19.09-.24.11-.26c.05-.1.09-.22.13-.34l.14-.41.1-.46c.03-.16.02-.33.05-.49-.01-.17 0-.34-.04-.5-.03-.16-.05-.33-.12-.49a3.04 3.04 0 0 0-.19-.45c-.08-.14-.15-.28-.25-.4l-.26-.34c-.17-.2-.34-.36-.45-.47l-.19-.17zm-3.64.48s.34.11.75.45a4 4 0 0 1 .32.29 3.79 3.79 0 0 1 .31.37c.09.14.2.28.27.45l.11.24.09.26c.06.17.08.35.11.53s.02.35.02.52-.04.33-.06.48c-.01.15-.07.29-.11.42-.07.26-.18.45-.25.59l-.11.21s.01-.09.04-.24l.05-.27c.03-.1.03-.22.04-.34 0-.13.04-.26.03-.4v-.44l-.06-.46c-.04-.15-.05-.32-.12-.47l-.07-.23-.1-.22c-.06-.15-.14-.28-.21-.42l-.24-.37c-.08-.12-.16-.22-.24-.32l-.41-.45c-.1-.11-.17-.16-.17-.16zm-1.91 5.8s0-.09-.02-.24a7.42 7.42 0 0 0-.08-.61l-.08-.4c-.03-.14-.08-.28-.12-.43l-.17-.44c-.06-.15-.13-.29-.22-.43-.07-.15-.18-.27-.27-.4s-.21-.24-.3-.36c-.1-.11-.22-.21-.32-.31s-.22-.17-.31-.25c-.1-.07-.19-.16-.28-.21l-.23-.15-.2-.14.23.06.27.08c.1.03.21.09.33.14.12.06.26.11.38.21.12.09.27.17.39.29s.26.23.36.37c.11.14.23.28.31.44.09.16.17.32.23.49.08.16.1.34.16.5l.07.48a2.09 2.09 0 0 1 .01.43c-.01.53-.15.86-.15.86zm-3.76 1.81s-.02-.35-.14-.83c-.02-.12-.07-.25-.11-.38-.05-.13-.09-.27-.16-.41l-.09-.21-.12-.21c-.07-.14-.17-.27-.26-.41-.09-.13-.2-.25-.3-.38-.12-.11-.22-.23-.33-.34l-.33-.29-.32-.24c-.19-.16-.38-.26-.5-.35l-.19-.14.23.06c.14.05.36.09.59.22l.38.19c.13.08.26.17.39.27l.38.34.34.41c.09.15.2.3.27.46a3.26 3.26 0 0 1 .2.48c.06.15.08.32.12.46l.04.43c.02.53-.1.86-.1.86zm-3.4 2.17s-.06-.34-.21-.82l-.13-.38c-.04-.14-.12-.27-.17-.41l-.22-.42c-.08-.14-.16-.28-.27-.4-.09-.14-.2-.25-.31-.37-.1-.13-.23-.22-.34-.33s-.24-.18-.35-.27-.23-.15-.33-.22c-.11-.06-.2-.14-.3-.18l-.24-.12-.21-.12s.09.01.24.04l.27.05c.11.02.22.07.34.11.12.05.26.09.39.17s.28.14.41.25.28.2.4.33.25.26.35.41c.11.14.2.3.29.46.09.15.14.32.21.47l.13.46a2.3 2.3 0 0 1 .07.42c.06.53-.02.87-.02.87zm-3.13 2.38l-.35-.77-.41-.74-.26-.39-.3-.38c-.1-.12-.21-.25-.33-.35-.11-.11-.23-.22-.35-.31-.11-.1-.23-.18-.35-.26a3.13 3.13 0 0 0-.34-.21l-.3-.16-.24-.11-.21-.1s.09 0 .24.02c.08 0 .17.02.27.04s.22.06.34.1l.2.06.2.1c.14.06.28.13.42.23.14.09.28.19.41.31a3.34 3.34 0 0 1 .37.38c.12.13.21.28.31.42l.25.44c.14.29.25.58.31.83.14.5.12.85.12.85zm-2.84 2.43s-.15-.31-.41-.74l-.46-.71c-.08-.13-.19-.25-.28-.38l-.32-.37-.34-.34c-.12-.11-.23-.22-.35-.3l-.36-.25-.34-.2-.3-.16-.25-.1-.22-.09.24.01c.08 0 .17.01.27.02.1.02.22.05.35.09.13.03.26.08.4.15.14.06.28.13.42.22s.28.18.41.3c.14.11.26.24.38.36a5.12 5.12 0 0 1 .6.83 4.3 4.3 0 0 1 .36.81c.17.49.19.84.19.84zm-2.95 2.8l-.45-.7-.5-.67c-.09-.12-.2-.23-.3-.36-.11-.11-.21-.24-.34-.34-.12-.11-.23-.23-.36-.32l-.37-.28c-.12-.09-.24-.17-.37-.23l-.35-.19-.3-.15-.25-.09-.22-.09h.23c.07 0 .17.01.27.02.1.02.22.04.34.08.13.02.26.07.4.13a2.76 2.76 0 0 1 .43.2c.29.15.57.38.82.61.25.24.47.51.65.79.18.27.32.54.41.78a3.4 3.4 0 0 1 .24.82zm-2.49 2.54s-.18-.29-.48-.68l-.53-.64-.68-.65c-.12-.11-.25-.2-.37-.3s-.26-.18-.38-.27-.25-.15-.37-.23l-.34-.19c-.11-.05-.21-.12-.3-.15l-.24-.11-.21-.1s.08 0 .23.02a2.42 2.42 0 0 1 .6.12 2.23 2.23 0 0 1 .39.13c.14.06.29.11.42.19.14.08.29.15.43.26.14.1.28.19.41.31.13.11.25.23.37.36.12.12.22.26.32.38.19.26.35.52.45.75.22.46.27.8.27.8zm-2.49 2.72s-.19-.28-.5-.66l-.25-.3-.29-.33-.69-.64c-.12-.11-.25-.2-.37-.29-.13-.1-.25-.18-.38-.26-.12-.09-.25-.15-.38-.22-.12-.07-.24-.13-.35-.18-.22-.11-.41-.18-.55-.24l-.21-.09h.23a2.29 2.29 0 0 1 .61.09 2.25 2.25 0 0 1 .4.12c.14.05.29.1.43.18s.3.15.43.25c.14.09.28.19.41.31a4.12 4.12 0 0 1 .37.35c.12.12.22.25.33.37a4.85 4.85 0 0 1 .46.74 2.96 2.96 0 0 1 .3.79zm-2.79 3.24l-.5-.67c-.15-.2-.34-.41-.55-.64l-.33-.33c-.12-.1-.23-.22-.36-.31l-.38-.29-.39-.25c-.13-.08-.26-.14-.39-.2l-.36-.16-.32-.12-.25-.07-.22-.07h.23c.15 0 .37 0 .62.05a2.22 2.22 0 0 1 .41.1c.14.04.3.09.44.17.15.07.3.14.45.24.15.09.29.19.43.3a4.44 4.44 0 0 1 .71.73c.2.26.36.51.47.75.23.46.29.8.29.8z" class="Av"/><path d="M162.87 157.35c5.49-3.33 9.93-6.76 13.28-10.24 6.63-6.91 7.73-12.83 7.48-16.59-.43-6.41-4.9-10.97-9.1-12.16-8.39-2.38-18.27 5.7-18.68 6.05-1.08.89-1.23 2.49-.33 3.57.89 1.08 2.48 1.23 3.56.33 2.27-1.88 9.23-6.45 14.07-5.08 2.08.59 5.14 3.35 5.43 7.62.9 13.48-23.65 25.65-34.25 30.26a2.53 2.53 0 0 0 2.02 4.64c6.27-2.73 11.79-5.54 16.53-8.41z" fill="url(#D)"/><path d="M146.7 160.06a6.59 6.59 0 0 0 .59.59c.16.18.34.41.52.65.17.25.34.52.47.81.08.14.13.29.19.44.06.14.1.29.15.44.05.14.07.29.11.42s.05.27.07.39.05.23.05.33l.03.26.03.23.05-.23c.02-.07.03-.16.05-.26s.02-.22.03-.35c0-.13.02-.27 0-.42s-.02-.31-.06-.46c-.04-.16-.06-.33-.13-.49-.06-.16-.11-.33-.2-.48a3.3 3.3 0 0 0-.26-.45c-.09-.15-.2-.27-.3-.4a3.55 3.55 0 0 0-.65-.6c-.41-.31-.75-.41-.75-.41zm-3 1.44s.19.25.43.64l.38.68c.07.12.12.26.18.39.07.13.12.27.17.41l.28.83.1.39c.04.13.05.25.08.36l.06.31c.02.09.03.17.04.24l.05.21s.02-.08.04-.21c.02-.14.06-.33.05-.57v-.38l-.05-.43c-.03-.15-.05-.3-.1-.45l-.15-.45c-.12-.3-.26-.59-.43-.84-.07-.13-.17-.24-.25-.35l-.25-.29c-.33-.35-.62-.49-.62-.49zm12.41-37.3s0 .08.02.23.07.35.14.59c.03.12.09.24.15.38.06.13.11.28.2.4l.25.41c.08.14.2.26.3.39l.33.37c.11.12.25.21.37.31l.36.28c.11.1.24.14.35.2a6.48 6.48 0 0 0 .75.34s-.24-.24-.61-.54c-.09-.08-.2-.15-.29-.25l-.3-.31-.33-.32-.3-.36c-.1-.12-.22-.23-.3-.36l-.27-.37c-.09-.12-.16-.24-.24-.36l-.21-.33-.28-.51-.1-.2zm2.35-1.69s0 .33.14.8c.03.12.07.25.12.38l.16.41c.14.27.28.58.47.85l.29.4c.09.14.21.25.31.36l.31.31.15.14c.05.04.11.08.16.11l.69.44s-.2-.27-.52-.61c-.09-.08-.16-.18-.24-.29l-.26-.34c-.19-.22-.35-.49-.53-.75-.1-.12-.17-.26-.25-.4l-.24-.39-.39-.71-.27-.52-.1-.2zm2.55-1.53s0 .33.11.82c.06.24.13.52.25.81a5.94 5.94 0 0 0 .43.88c.09.14.17.29.28.41l.31.37.32.32c.11.09.21.19.32.25.21.15.39.25.52.3l.21.09-.16-.16c-.05-.05-.11-.11-.19-.17l-.22-.24c-.09-.08-.16-.19-.25-.29s-.17-.22-.26-.34c-.09-.11-.17-.25-.26-.37s-.17-.27-.25-.4c-.17-.27-.31-.55-.45-.81l-.36-.74-.34-.74zm3.18-1.52s-.1.32-.09.83c0 .13 0 .26.02.4s.03.3.07.45c.06.31.17.63.3.94.07.16.15.3.23.45s.18.28.26.41c.09.13.19.24.28.36.09.11.19.2.28.29.17.18.35.3.46.39l.19.13-.13-.19-.15-.21-.19-.27-.21-.32-.22-.37-.42-.83-.18-.43-.15-.43-.22-.79-.14-.8zm3.61-1.14s-.2.28-.34.77c-.04.12-.07.26-.1.4l-.06.46c-.01.16-.02.32 0 .49 0 .17.03.34.05.51l.11.5c.04.16.11.32.16.47l.19.42c.06.13.14.24.21.35.13.22.27.38.36.49l.15.17-.08-.22-.1-.24-.12-.31-.13-.37-.13-.41-.2-.91-.06-.47-.03-.46.02-.82c.04-.48.11-.81.11-.81zm4.03-.38s-.31.17-.63.59a2.03 2.03 0 0 0-.23.36c-.07.13-.15.28-.2.43-.13.31-.2.66-.24 1.01l-.01.52.05.5.09.46.13.4c.08.25.19.43.26.57l.11.21-.03-.23c-.02-.15-.08-.35-.1-.6a3.24 3.24 0 0 0-.06-.4c0-.14-.02-.29-.03-.44-.02-.15 0-.31-.01-.47l.02-.48.06-.47.11-.45c.07-.29.19-.55.29-.78.21-.44.42-.72.42-.72zm3.9.85s-.33.1-.76.4a4.32 4.32 0 0 0-.66.59l-.31.39a3.99 3.99 0 0 0-.27.44c-.09.15-.15.32-.22.47-.07.16-.1.32-.15.48s-.06.31-.08.46c-.03.14-.02.29-.03.42v.35l.03.27.04.23.05-.23.04-.26c.01-.1.05-.21.07-.33.03-.12.05-.25.1-.38l.13-.42.17-.43.21-.43c.14-.29.33-.55.5-.8l.53-.64c.33-.36.6-.58.6-.58zm3.35 2.2s-.34.03-.81.22c-.47.18-1.06.52-1.56.98-.13.11-.24.24-.36.36s-.21.26-.31.38-.17.26-.25.38-.14.25-.19.36c-.11.23-.17.43-.22.57l-.06.22.13-.18.35-.48.24-.31.28-.33.66-.66c.23-.22.48-.41.72-.6l.67-.47.7-.43zm2.71 3.4s-.07-.05-.21-.12c-.14-.06-.35-.13-.62-.17-.13-.01-.28-.03-.44-.02-.16 0-.32.02-.49.06-.17.03-.33.09-.5.15-.16.08-.33.14-.48.24-.31.18-.6.41-.83.65-.24.23-.43.48-.57.7-.16.21-.24.42-.32.55l-.11.22.17-.17.44-.44.3-.28c.1-.1.23-.19.34-.29.11-.11.25-.19.38-.29s.27-.18.41-.27c.13-.1.29-.15.43-.23l.44-.17.43-.1c.14-.03.27-.04.4-.05.5-.03.84.04.84.04zm1.49 3.8s-.22-.29-.7-.55c-.12-.07-.26-.12-.4-.18-.15-.04-.31-.1-.48-.12-.34-.07-.71-.05-1.08 0-.18.05-.36.07-.53.14-.17.06-.34.12-.48.2l-.42.24-.35.26c-.22.15-.36.34-.47.44l-.16.18.22-.11c.14-.07.31-.2.55-.31l.37-.19.42-.18c.14-.07.3-.09.46-.15.15-.06.32-.07.48-.11.16-.02.32-.05.49-.05.16 0 .32-.02.47 0 .16 0 .3.03.44.05l.39.1c.49.14.8.32.8.32zm.37 3.66s-.04-.08-.13-.21a3.69 3.69 0 0 0-.42-.5c-.19-.2-.46-.38-.77-.55-.16-.07-.32-.16-.5-.2-.17-.06-.36-.09-.55-.12s-.38-.01-.56-.02c-.18.01-.36.05-.53.08l-.48.15c-.15.05-.28.13-.4.19-.25.11-.42.27-.55.36l-.19.15.23-.08.26-.1c.1-.04.21-.07.34-.11l.4-.11a3.98 3.98 0 0 0 .45-.09l.48-.03c.16.01.33 0 .49.03.16.02.33.04.48.09.16.04.31.09.46.15l.41.19.36.21a4.95 4.95 0 0 1 .51.37l.19.16zm-.67 4.26s0-.09-.04-.25a2.79 2.79 0 0 0-.21-.65c-.06-.13-.13-.27-.22-.4a3.03 3.03 0 0 0-.32-.41c-.13-.12-.26-.27-.43-.37-.15-.12-.33-.2-.51-.28s-.37-.11-.56-.17l-.56-.04-.51.04c-.16.03-.31.08-.44.11a1.51 1.51 0 0 0-.36.13l-.27.12-.23.11.25-.03c.08-.01.17-.03.28-.05s.23-.04.37-.04l.43-.04.47.01c.16.01.32.05.49.07l.48.16c.15.07.31.13.44.23.14.08.27.19.39.29l.33.33c.1.11.19.22.26.34l.34.55.12.23zm-1.34 3.41s-.02-.36-.25-.84c-.06-.12-.12-.25-.21-.38-.08-.13-.18-.26-.29-.39-.12-.12-.23-.26-.37-.37l-.21-.17-.23-.15c-.15-.1-.33-.16-.49-.24-.16-.07-.34-.1-.5-.15-.16-.04-.33-.04-.48-.06s-.3 0-.43 0c-.27 0-.48.07-.63.1l-.23.06s.09 0 .24.02a3.13 3.13 0 0 1 .27.02c.1 0 .22.03.34.04.12.02.26.03.4.07l.43.11.44.17c.14.07.29.13.43.22l.21.12.19.15c.13.09.24.21.36.31.1.11.22.21.3.32l.25.31a4.45 4.45 0 0 1 .34.51l.12.21zm-6.09.48l.23.07.57.22.37.17c.13.06.25.15.39.22l.38.27c.13.09.25.2.36.32.13.1.22.24.33.35.1.12.18.26.28.38.09.13.15.26.22.38.08.12.12.25.17.37s.11.22.13.32l.09.26.09.22v-.24l-.01-.28c0-.11-.03-.22-.06-.36-.03-.13-.05-.28-.11-.42s-.1-.3-.19-.45c-.09-.14-.16-.31-.28-.44-.11-.14-.22-.29-.36-.41-.13-.13-.27-.24-.42-.34-.14-.11-.3-.18-.45-.27-.15-.07-.3-.14-.45-.18a2.28 2.28 0 0 0-.41-.11c-.52-.12-.87-.06-.87-.06zm-2.66 3.21s.33.1.77.33c.11.05.22.13.35.2l.36.25.18.14c.06.05.11.11.17.16.12.1.22.23.33.35l.29.38.25.4.2.39.16.37c.11.23.16.43.22.57l.09.22v-.24c-.01-.15 0-.37-.07-.63-.03-.13-.05-.27-.1-.41l-.17-.45-.24-.45-.32-.43c-.13-.13-.24-.27-.38-.38a2.53 2.53 0 0 0-.42-.31c-.14-.1-.29-.16-.42-.23-.14-.06-.27-.11-.4-.14-.51-.15-.86-.11-.86-.11zm-2.92 2.78s.32.14.75.4l.34.22c.12.07.23.18.36.27l.35.32.33.36a2.82 2.82 0 0 1 .29.39c.1.13.16.27.24.4s.12.27.18.4.09.26.14.38c.03.12.09.23.1.33l.06.26.06.23s0-.09.02-.24l.01-.28c.01-.11-.01-.23-.02-.36-.02-.13-.02-.28-.07-.42-.05-.15-.07-.31-.14-.46s-.12-.32-.23-.47c-.1-.15-.19-.3-.31-.44-.11-.14-.24-.27-.37-.39-.13-.13-.28-.22-.41-.32-.14-.09-.28-.18-.42-.24-.13-.07-.27-.12-.39-.17-.5-.18-.85-.19-.85-.19zm-3.06 2.47l.66.52c.19.16.4.36.62.58l.32.35c.1.13.21.24.29.38.09.13.19.26.26.4.08.13.16.27.22.41.07.14.12.27.17.4a2.07 2.07 0 0 1 .12.38l.09.33.05.26.05.23s.02-.08.04-.23c0-.08.02-.17.03-.27l-.01-.36-.01-.21c-.02-.07-.03-.14-.05-.22-.03-.15-.06-.31-.13-.46-.06-.16-.12-.32-.21-.47-.08-.16-.18-.3-.28-.45s-.22-.27-.33-.41l-.37-.35c-.25-.21-.51-.38-.74-.5-.46-.25-.8-.32-.8-.32zm-3.04 2.17l.62.57.58.61c.11.11.19.24.3.36l.28.39.25.41.21.42.16.41c.04.13.09.26.11.38l.08.33c.01.1.03.19.04.26l.04.23s.02-.08.04-.23l.04-.27v-.36c0-.13-.02-.27-.05-.42-.02-.15-.06-.31-.12-.46a2.72 2.72 0 0 0-.19-.47c-.07-.16-.17-.31-.26-.46-.2-.29-.42-.56-.66-.78a4.09 4.09 0 0 0-.7-.55c-.44-.28-.77-.38-.77-.38zm-3.42 2.2l.58.61.53.65c.1.12.18.25.27.38l.25.41.23.42c.07.14.14.28.18.43.06.14.1.28.14.41l.1.38.07.33.03.26.04.23.05-.23.05-.27v-.35c0-.13 0-.27-.03-.42-.02-.15-.04-.31-.1-.46-.08-.32-.23-.64-.4-.94a5.14 5.14 0 0 0-.61-.82 4.32 4.32 0 0 0-.66-.59c-.41-.31-.74-.43-.74-.43zm-3.07 1.81s.24.24.54.63l.49.67c.16.26.34.52.47.82.08.14.14.29.2.43.07.14.11.29.17.43s.09.28.13.41l.1.38c.02.12.06.23.08.33l.05.26.05.23.03-.23c.02-.15.05-.36.03-.61 0-.13 0-.27-.03-.41-.03-.15-.03-.3-.08-.46-.05-.15-.07-.32-.15-.47l-.2-.47-.26-.44c-.09-.15-.2-.27-.29-.4-.21-.25-.42-.46-.62-.62-.39-.33-.71-.46-.71-.46zm-3.23 1.76s.23.25.52.64c.08.1.15.21.23.32l.25.36.46.82a2.69 2.69 0 0 1 .19.43l.16.43c.05.14.08.28.12.42.04.13.07.26.09.38l.1.59.04.23.05-.23a3.12 3.12 0 0 0 .06-.61l-.02-.41c-.02-.15-.03-.3-.07-.46s-.07-.32-.14-.48l-.2-.48c-.07-.16-.16-.3-.25-.45-.08-.15-.19-.27-.29-.41-.2-.25-.41-.47-.61-.63-.38-.34-.7-.48-.7-.48zm-3.81 1.94s.23.25.53.65l.49.69.24.4.22.43c.07.14.14.29.19.44a3.81 3.81 0 0 1 .15.44c.05.14.08.29.1.42l.07.39.04.34.01.26.02.23s.03-.08.06-.23c.04-.14.09-.35.1-.62.02-.13.02-.27 0-.42 0-.15-.01-.31-.06-.47-.03-.16-.06-.33-.13-.49-.05-.17-.12-.33-.19-.49a4.64 4.64 0 0 0-.54-.86 4.72 4.72 0 0 0-.61-.64c-.39-.34-.71-.48-.71-.48z" class="Av"/><path d="M137.02,176.29h-15.11c-1.86,0-3.37,1.51-3.37,3.37v1.5c0,1.86,1.51,3.37,3.37,3.37h16c.08,0,.15-.02.22-.02-1.36-2.44-1.73-5.45-1.11-8.21Z" fill="#434852"/><path d="M133.85 187.27v-2.9l-1.5-.02 1.5 2.92zm-7.8.12v-3.02l1.5-.02-1.5 3.04z" fill="#2c2f33"/><path d="M129.39,110.9c-1.45-.2-2.91-.39-4.38-.36-.34,0-.66-.03-.95-.09-6.07,1.68-10.52,7.25-10.52,13.85v40.36h15.68c-2.01-7.78-3.17-16.86-3.17-26.57s1.23-19.28,3.34-27.2Z" fill="#f8ac25"/><path d="M124.7 110.81c-2.32-.23-4.63-.73-6.97-.69h-.2c-2.24 8.07-3.54 17.65-3.54 27.93 0 9.7 1.16 18.79 3.17 26.57h16.82v-40.36c0-6.15-3.86-11.39-9.29-13.44z" fill="#f9bc36"/><path d="M137.49,173.61c-2.26-3.9-4.42-8.12-8.28-8.95-9.76-.74-12.25-2.28-15.68-4.22v14.8c0,5.12,6.44,9.28,14.38,9.28h3.75c2.2,0,4.26-.33,6.12-.9-1.57-3.04-1.67-6.87-.29-10.01Z" fill="#34363b"/><g fill="#434852"><path d="M116.49 162.03s13.76 3.94 16.29 2.65c2.69-1.38 0 10.32 0 10.32 0 1.82-.86 3.52-2.34 4.94-6.15-2.02-10.82-10.3-13.95-17.91zm18.58 25.92h-.38a.84.84 0 0 1-.84-.84v-6.95a.84.84 0 0 1 .84-.84h.38a.84.84 0 0 1 .84.84v6.95a.84.84 0 0 1-.84.84z"/><rect x="123.98" y="179.3" width="2.06" height="8.64" rx=".84"/></g><path d="M131.8,116.83c-.5-.55-.93-1.15-1.28-1.79-1.88-3.39-.69-6.87.76-8.26,3.37-3.22,11.46-2.86,14.29-2.45,1.35.2,2.6-.64,2.82-1.86.21-1.22-.7-2.37-2.05-2.57-.52-.08-12.79-1.8-18.63,3.79-2.92,2.8-4.41,8.29-1.59,13.37.46.82,1.09,1.73,1.95,2.66.85-1.3,2.09-2.34,3.73-2.89Z" fill="url(#E)"/><path d="M146.01 99.86a1.16 1.16 0 0 0 .09.18c.06.12.12.29.17.51.03.11.04.23.06.35.01.13.05.26.03.4v.43c0 .15-.04.29-.06.44l-.09.43c-.04.14-.11.27-.16.4l-.16.37c-.04.12-.13.22-.19.31-.26.38-.46.6-.46.6s.08-.29.24-.69c.04-.1.1-.2.12-.32l.1-.37.11-.39.07-.41c.03-.14.07-.27.07-.41s.03-.27.04-.4c.02-.13.01-.26.02-.38 0-.12.02-.24 0-.34l-.02-.52c0-.13-.01-.2-.01-.2zm-2.8-.23s.16.26.28.68c.04.1.06.22.08.34s.06.25.07.39c.02.27.05.56.03.86l-.04.43c0 .14-.05.28-.08.41s-.07.26-.11.38c-.02.06-.03.12-.05.18-.03.05-.05.11-.08.16l-.36.65s.03-.29.13-.7c.03-.1.05-.21.06-.33s.03-.24.05-.37c.05-.26.05-.54.07-.81a1.89 1.89 0 0 0 .01-.41v-.4l-.03-.72-.03-.51c0-.13-.01-.2-.01-.2zm-2.89-.02s.17.25.31.67c.07.21.15.46.19.73.05.27.07.57.08.86 0 .15 0 .3-.03.44l-.07.42a2.22 2.22 0 0 1-.11.39c-.05.12-.08.24-.14.34a2.6 2.6 0 0 1-.29.47c-.08.11-.13.16-.13.16l.06-.19.07-.22.07-.28c.03-.1.04-.22.07-.34s.03-.24.05-.37.02-.26.03-.4c.02-.14 0-.28.01-.42l-.03-.82-.06-.72-.08-.72zm-3.42.27s.25.2.49.59c.07.09.12.2.18.32.05.12.12.24.16.37.1.26.17.56.21.85.02.15.02.3.03.44l-.02.43c0 .14-.04.27-.06.4s-.06.24-.09.35a2.86 2.86 0 0 1-.2.5l-.09.18s0-.07.01-.2c0-.06.01-.14.02-.23l.02-.29c0-.11.02-.22.02-.34v-.38c0-.26-.02-.54-.06-.82-.02-.14-.03-.28-.07-.41l-.09-.4c-.06-.26-.14-.49-.21-.7-.14-.41-.28-.68-.28-.68zm-3.59.76s.31.12.67.43a3.2 3.2 0 0 1 .28.26c.09.1.19.2.27.32l.25.37c.08.13.14.27.21.41l.16.43c.04.14.07.29.1.43s.03.28.05.4c.02.13 0 .25 0 .36 0 .22-.04.41-.06.54l-.04.2s-.01-.07-.04-.2l-.04-.23c0-.09-.04-.19-.06-.29l-.07-.34-.1-.37-.29-.78-.18-.38-.2-.36-.42-.62c-.27-.35-.49-.57-.49-.57zm-3.56 1.51s.34 0 .82.17c.12.04.24.1.37.17s.26.14.38.24c.26.18.49.41.7.66l.27.39.21.41.15.39c.04.13.06.25.09.36.06.22.05.42.07.55v.21l-.09-.19c-.06-.12-.11-.3-.21-.5l-.15-.33-.19-.35c-.06-.12-.15-.24-.22-.36s-.17-.24-.26-.36l-.29-.33-.31-.3c-.21-.19-.43-.34-.63-.46-.4-.24-.71-.36-.71-.36zm-2.84 2.41s.33-.08.83-.03c.25.01.54.07.84.15.15.05.31.09.46.16a4.54 4.54 0 0 1 .45.21c.15.08.28.18.42.26.14.09.25.2.36.3.12.1.2.21.3.31s.16.21.23.3c.06.1.13.18.17.27l.11.22.08.19-.15-.15-.17-.18c-.06-.07-.15-.14-.23-.22l-.27-.25-.32-.26-.36-.25c-.13-.08-.25-.17-.39-.23-.26-.16-.55-.27-.82-.38l-.76-.25c-.46-.13-.79-.18-.79-.18zm-1.72 3.19s.3-.13.78-.19c.48-.08 1.15-.08 1.79.04l.48.11c.16.03.3.1.45.15.14.05.27.12.4.18s.24.12.34.19a2.6 2.6 0 0 1 .46.34l.16.14-.2-.08-.53-.21-.35-.12-.4-.12-.88-.21c-.3-.07-.61-.1-.9-.14l-.8-.06-.8-.02zm-.58 3.81s.04-.07.12-.18c.09-.11.23-.26.44-.41.11-.07.22-.15.36-.21a1.92 1.92 0 0 1 .44-.17c.16-.05.32-.09.49-.11.17-.01.35-.05.52-.04a4.11 4.11 0 0 1 1.01.12 4.76 4.76 0 0 1 .83.27c.24.09.41.21.54.28l.2.12-.23-.05-.58-.14-.39-.08-.43-.07c-.15-.03-.3-.03-.46-.05s-.32-.02-.48-.02c-.16-.01-.32.02-.47.02l-.45.07-.41.11a3 3 0 0 0-.36.14c-.43.2-.68.41-.68.41zm.64 3.57s.04-.32.32-.73c.07-.11.15-.21.25-.32l.34-.31c.25-.21.57-.36.9-.48.17-.04.34-.11.51-.13.17-.03.34-.06.51-.06h.47l.42.04c.26.02.46.1.61.13l.22.06h-.24c-.15 0-.36-.01-.61.01l-.4.02-.44.06c-.15.01-.3.06-.46.09s-.3.09-.46.13a2.77 2.77 0 0 0-.43.18c-.13.07-.28.13-.39.22-.13.07-.24.16-.35.24l-.28.25c-.33.33-.5.61-.5.61zm1.5 2.96v-.22c0-.14.03-.34.11-.57.06-.24.19-.5.37-.76.1-.12.19-.26.32-.38.12-.13.26-.23.4-.34s.31-.18.46-.27c.16-.07.33-.12.48-.18l.47-.1c.15-.03.3-.02.43-.03.26-.03.48.02.64.03l.24.03s-.09.02-.24.04l-.27.04c-.1 0-.22.04-.34.07l-.39.09-.42.14-.42.19-.4.24c-.13.09-.26.18-.36.29-.12.1-.21.21-.31.32l-.25.33-.2.32-.25.51-.08.2z" class="Av"/><g fill="#dd9d65"><path d="M137.53 115.15c-1.04.83-1.59 2.36-1.5 3.67.1 1.39.61 2.74 1.63 3.72 1.99 1.94 4.68 2.05 7.27 2.38l-.66-.09c.76.1 1.51.25 2.22.54l-.6-.25.39.18c1.17.59 2.76.35 3.42-.9.6-1.14.35-2.79-.9-3.42-.89-.45-1.8-.76-2.78-.92l-2.93-.36.66.09c-.81-.11-1.6-.27-2.36-.59l.6.25-.56-.28c-.02-.01-.31-.21-.31-.21.04-.02.52.44.16.11l-.21-.21c-.27-.27.3.46.16.22l-.29-.51.25.6c-.11-.27-.19-.54-.23-.82l.09.66a2.97 2.97 0 0 1 0-.73l-.09.66c.03-.2.08-.4.15-.59l-.25.6c.06-.13.34-.55.05-.18s.06-.02.16-.11c.47-.38.73-1.2.73-1.77 0-.61-.27-1.35-.73-1.77s-1.1-.76-1.77-.73c-.7.03-1.22.29-1.77.73h0z"/><path d="M137.98,119.58c3.22,0,3.22-5,0-5s-3.22,5,0,5h0Z"/><path d="M137.9,119.57c3.22,0,3.22-5,0-5s-3.22,5,0,5h0Z"/><path d="M138.47,119.5c3.22,0,3.22-5,0-5s-3.22,5,0,5h0Z"/><path d="M138.36,119.5c3.22,0,3.22-5,0-5s-3.22,5,0,5h0Z"/><path d="M138.64,119.48c3.22,0,3.22-5,0-5s-3.22,5,0,5h0Z"/></g><path d="M115.3 121.74c-4.5 3.79-9.18 7.09-11.26 9.62-1.02 1.71-1.69 3.56-1.56 5.73.08 1.44 1.45 4.61 2.12 5.6 8.5-.17 17.59-8.11 17.59-8.11l1.68-16.67s-2.75-1.07-8.57 3.82zm70.33 13.36c-1.98.41-5.66.45-9.43-3.19-4.98-4.81-12.14-7.16-11.92-12.42-1.83-.66-3.63-1.19-5.36-1.61 1.24 2.82 1.81 6.01 2.47 8.91.91 4.03 2.11 7.99 3.05 12.01-.39-2.6-.72-4.33-.72-4.33 19.85 3.74 18.72 34.02 18.72 34.02 4.6-.72 7.62 2.45 7.62 2.45 3.8-15.08 1.13-27.78-4.43-35.85z" class="Ay"/><path class="P Az" d="M185.63 135.1c-1.98.41-5.66.45-9.43-3.19-4.98-4.81-12.14-7.16-11.92-12.42-1.83-.66-3.63-1.19-5.36-1.61 1.24 2.82 1.81 6.01 2.47 8.91.91 4.03 2.11 7.99 3.05 12.01-.39-2.6-.72-4.33-.72-4.33 19.85 3.74 18.72 34.02 18.72 34.02 4.6-.72 7.62 2.45 7.62 2.45 3.8-15.08 1.13-27.78-4.43-35.85zm1.34 31.92c-2.95-.47-1.44-5.14-2.8-14.49-2-13.7-8.56-19.44-4.53-17.25 4.03 2.2 5.9-.11 7.48 2.72 4.14 7.42 4.62 17.6 4.31 23.95-.13 2.6-1.5 5.53-4.45 5.06z"/><path class="Q Ak An" d="M187.35 142.27c2.62 5.27 3.9 13.43 3.11 19.18s-2.41 4.62-2.19 1.37c.36-5.54-.5-14.53-3.74-20.72-2.44-4.67.87-3.77 2.82.17z"/><use xlink:href="#G" class="Aw"/><g class="Ao"><use xlink:href="#G"/><path class="T" d="M164.28 119.49c-.22 5.26 6.94 7.61 11.92 12.42 3.77 3.64 7.45 3.59 9.43 3.19-5.45-7.91-13.68-12.85-21.35-15.61zm10.28 5.29c1.29.79 6.63 4.4 9.1 8.06 1.29 1.91-2.76 1.5-5.65-.97s-4.75-7.88-3.45-7.09z"/></g><path d="M190.06 170.94s-2.72-2.85-6.93-2.53c0 0-.07.84-1.65 1.25s-3.26-1.41-4.94.46-3.12 2.54-1.73 3.4 3.21-.57 4.27-1.53c1.05-.96 2.97 1.29 2.78 5.08s-1.34 7.46 0 7.66 2.88-2.77 3.16-4.35l-.38 4.35c.05 1.35 2.06 1.45 2.54-1.52 0 0 .05 2.11 1.05 2.21 1.01.1 1.77-1.63 2.06-3.84 0 0 .53 2.06 1.2 1.68s1.1-5.47-1.44-12.32z" class="Ar"/><path d="M185.24 173.82v.41 1.07l-.04 1.51c0 .27-.03.56-.05.84 0 .29-.05.58-.07.87l-.1.86-.14.83-.17.77-.18.68-.19.57c-.05.17-.13.31-.18.43l-.16.38s.1-.11.25-.32c.07-.11.18-.23.27-.39l.3-.54a9.37 9.37 0 0 0 .54-1.46l.19-.85.12-.89.05-.9v-.87c-.01-.56-.07-1.09-.13-1.53l-.21-1.06-.11-.4zm2.38 1.8l.01 1.52-.01 1.54-.08 1.76-.2 1.74-.15.79-.18.7-.19.58c-.05.18-.13.32-.18.44l-.17.39s.1-.11.26-.33c.08-.11.19-.23.28-.4l.31-.56.28-.7.24-.81.17-.88.1-.92a15.71 15.71 0 0 0 .02-1.81c-.03-.58-.09-1.11-.16-1.56a10.39 10.39 0 0 0-.23-1.09l-.11-.41zm1.65 0l.08.31c.06.19.12.47.2.8l.24 1.13.1.64a3.74 3.74 0 0 1 .09.66l.07.66c.03.22.03.43.03.64s.02.41.03.6c.02.19.01.37 0 .54-.04.67-.01 1.15-.01 1.15s.17-.43.34-1.11c.05-.17.09-.36.1-.56l.05-.63c0-.22.05-.45.01-.68l-.06-.7c-.03-.47-.17-.92-.27-1.35l-.2-.6c-.07-.19-.13-.36-.22-.52-.29-.64-.59-1-.59-1z" fill="#8f513d"/><path class="W Ar As" d="M176.54 170.13c1.68-1.87 3.36-.05 4.94-.46s1.65-1.25 1.65-1.25c4.21-.32 6.93 2.53 6.93 2.53 2.54 6.86 2.11 11.94 1.44 12.32s-1.2-1.68-1.2-1.68c-.29 2.21-1.05 3.93-2.06 3.84-.9-.09-1.03-1.78-1.05-2.14.62-1.45 1.03-4.05.43-7.99 0 0 1.44 3.92.83 8.2s3.24-2.14.83-8.34c0 0 1.44 1.47 1.8 4.42s1.13-3.13-.71-6.83c-1.37-2.75-4.11-3.96-6.95-2.95s-4.19-1.44-5.97-.1c-1.78 1.35-2.77 2.45-2.45 3.09.32.65 2.63-.04 4.21-1.69 1.58-1.66 3.3.63 3.93 4.16.63 3.52-2.03 8.41-.66 8.56 1.37.14 2.87-3.42 2.84-8.95 0 0 .99 3.96.13 8.52-.32 1.71.87 1.86 1.71-.02-.52 2.81-2.46 2.7-2.51 1.38-.04-1.21.38-4.35.38-4.35-.29 1.58-1.82 4.56-3.16 4.35-1.34-.2-.19-3.87 0-7.66s-1.73-6.04-2.78-5.08-2.88 2.4-4.27 1.53c-1.39-.86.05-1.53 1.73-3.4z"/><path d="M169.54 134.39l-.73-7.19-2.77-1.24c-5.03-2.48-4.86-5.98-4.36-7.77-3.45-1.15-7.12-2.15-11.06-2.78.17 3.24-.43 8.63-6.36 8.62-6.33-.01-6.98-5.85-6.91-8.8-2.73.45-5.79 1.21-8.95 2.34.1 2.47-1.42 4.3-3.58 6.04v10.2c1.27-.54 2.65-.97 4.15-1.25 0 0-2.51 12.97-1.75 21.31 0 0 3.31 1.51 18.12 1.46 14.46-.04 19.56-2.52 19.56-2.52.1-11.6-1.73-20.57-1.73-20.57a74.28 74.28 0 0 0 6.35 2.14z" class="Ay"/><path class="X" d="M169.54 134.39l-.73-7.19-2.77-1.24c-5.03-2.48-4.86-5.98-4.36-7.77-3.45-1.15-7.12-2.15-11.06-2.78.17 3.24-.43 8.63-6.36 8.62-6.33-.01-6.98-5.85-6.91-8.8-2.73.45-5.79 1.21-8.95 2.34.1 2.47-1.42 4.3-3.58 6.04v10.2c1.27-.54 2.65-.97 4.15-1.25 0 0-2.51 12.97-1.75 21.31 0 0 3.31 1.51 18.12 1.46 14.46-.04 19.56-2.52 19.56-2.52.1-11.6-1.73-20.57-1.73-20.57a74.28 74.28 0 0 0 6.35 2.14zm-24.95 17.38c-14.6 0-16.63-10.04-12.96-26.63.82-3.73 2.62-5.61 5.44-1.62s9.77 4.46 14 .42 6.03-2.8 7.76 7.13.36 20.7-14.24 20.7z" fill="#fbdd01"/><use xlink:href="#H" class="Aw"/><g class="Ao"><use xlink:href="#H"/><use xlink:href="#I"/><use xlink:href="#H" class="T"/><use xlink:href="#I" class="T"/></g><path d="M140.97 155.3c-11.1-.23-13.74-1.43-13.74-1.43s-.76-.03-1.01 2.04c-.24 2.04-.14 2.81.65 3.02 0 0 5.92 1.51 14.11 1.88-.51-2.37-.27-4.37-.01-5.51z" class="Ap"/><path d="M147.5 155.31l-2.15.03a198.69 198.69 0 0 1-4.39-.04c-.25 1.15-.49 3.15.01 5.51h6.66c.45-2.16.14-4.29-.14-5.51z" class="Ao"/><path d="M151.09 155.18l-3.59.13c.27 1.22.58 3.35.14 5.51l3.47-.24c.45-2.14.2-4.24 0-5.4z" class="BA"/><g class="Ap"><path d="M165.92 154.19c-.14-1.66-1.01-1.37-1.01-1.37s-3.73 1.8-13.82 2.36c.21 1.16.46 3.26 0 5.4 4.65-.44 9.52-1.41 14.17-3.23 1.01-.36.79-1.51.65-3.16z"/><path class="a Ak" d="M140.97 155.3c-11.1-.23-13.74-1.43-13.74-1.43s-.76-.03-1.01 2.04c-.24 2.04-.14 2.81.65 3.02 0 0 5.92 1.51 14.11 1.88-.51-2.37-.27-4.37-.01-5.51zm-7.94 4.09c-5.23-.81-5.9-4.99-4.63-4.7 3.88.89 7.75 1.29 10.53 1.2 2.78-.1-.67 4.32-5.9 3.5zm32.89-5.2c-.14-1.66-1.01-1.37-1.01-1.37s-3.73 1.8-13.82 2.36c.21 1.16.46 3.26 0 5.4 4.65-.44 9.52-1.41 14.17-3.23 1.01-.36.79-1.51.65-3.16zm-7.57 4.75c-5.03.84-7.99-2.52-5.26-3 3.77-.66 6.51-1.01 8.86-1.63s1.44 3.79-3.6 4.63z"/></g><g fill="#ae58ad"><use xlink:href="#J"/><use xlink:href="#J" class="c Al"/></g><path d="M165.28 157.36l-3.39 1.17c1.43 4 5.73 17.62 3.31 30.93-2.55 14-7.43 22.06-7.48 22.14 2.5 0 3.64-1.42 3.64-1.42.77-.96 15.54-28.94 3.91-52.82z" fill="#c2290c"/><path d="M128.38 179.44c-2.56-10.82 1.28-19.91 1.28-19.91h0c-1.76-.33-2.79-.59-2.79-.59s-2.94 9.11-.65 21.22c1.37 7.25 4.88 11.71 9.42 12.83h0s-4.71-2.73-7.27-13.55z" class="Ao"/><path d="M161.89 158.53c-12.84 3.88-26.5 2.07-32.23 1h0s-3.84 9.09-1.28 19.91 7.27 13.55 7.27 13.55h0c3.55.87 7.72-.3 12.01-3.77 0 0 .38-4.55-2.3-7.53l-5.37.29s2.21-13.23 6.81-13.52 14.96 14.29 5.32 37.16c0 0-1.53 4.24 3.42 5.66.82.23 1.55.32 2.19.32.04-.07 4.93-8.14 7.48-22.14 2.42-13.31-1.88-26.93-3.31-30.93z" class="Az"/><path class="f" d="M132.13 189.02c-1.21-.63-2.33-1.87-3.25-3.21-3.67-5.33-2.51-18.92-1.38-20.87.28-.48.57-.89.91-1.24.59-2.61 1.25-4.18 1.25-4.18h0c-1.76-.33-2.79-.59-2.79-.59s-2.94 9.11-.65 21.22c1.37 7.25 4.88 11.71 9.42 12.83 0 0-1.64-.95-3.51-3.96z" fill="#c2290c"/><path class="T Ao" d="M165.28 157.36l-3.39 1.17 1.09 3.37c2.39.55 3.5 2.27 4.38 6.9 1.76 9.23-2.09 37.12-8.52 40.7-.67 1.36-1.11 2.08-1.12 2.1 2.5 0 3.64-1.42 3.64-1.42.77-.96 15.54-28.94 3.91-52.82z"/><path class="g Ak An" d="M156.71 209.76c-5.62-1.69 4.03-10.88 1.17-29.46-1.02-6.62-4.49-13.81-11.17-13.81s-10.65 11.85-10.91 17.22c-.02.4 2.07-.82 6.62-1.01s5.23 3.74 2.49 5.42c-2.16 1.33-8.18 3.31-12.79.91 1.87 3.01 3.51 3.96 3.51 3.96 3.55.87 7.72-.3 12.01-3.77 0 0 .38-4.55-2.3-7.53l-5.37.29s2.21-13.23 6.81-13.52 14.96 14.29 5.32 37.16c0 0-1.53 4.24 3.42 5.66.82.23 1.55.32 2.19.32.01-.02.45-.74 1.12-2.1-.68.38-1.4.49-2.14.27z"/><path class="h Ak" d="M127.95,181.59c-2.01-7.72-.84-17.92,3.88-17.89,4.25.03-3.28,15.69,3.81,24.94,1.15,1.5-5.75.41-7.7-7.05Z" fill="#d7d7d7"/><path class="i Ak" d="M159.26 171.72c2.52 8.02 1.15 24.94-1.92 30.98s7.11-.22 8.87-15.49c2.39-20.72-10.17-25.73-6.95-15.49z" fill="#feea03"/><path class="g Ak An" d="M146.71,162.06c8.59.23,13.37-.83,16.27-.17-.43-1.44-.82-2.59-1.09-3.37-12.84,3.88-26.5,2.07-32.23,1h0s-.66,1.57-1.25,4.18c1.97-2.03,5.6-1.98,18.31-1.64Z"/><path d="M147.5,197.27c4.6,2.23,6.89-7.13,7.04-13.32-.54-.86-1.32-1.3-2.37-1.59-1.3-.36-2.39.13-3.49,1.35-2.08,4.42-4.84,11.78-1.17,13.57Z" class="Am"/><path d="M138.45 205.96c-3.11 4.38-8.36 12.68-10.59 16.23.87 1.61 3.39 3.86 7.79 5.24 4.34 1.36 8.21.69 10.61-.06l2.55-15.96c1.55-9.47-6.33-11.11-10.36-5.45z" class="At"/><path d="M154.54 183.95c-.15 6.19-2.44 15.56-7.04 13.32-3.67-1.78-.91-9.14 1.17-13.57-1.67 1.85-3.39 5.38-6.01 10.26-5.75 10.74-15.09 25.32-15.17 27.04-.01.32.11.73.36 1.19 2.23-3.56 7.48-11.86 10.59-16.23 4.03-5.67 11.91-4.03 10.36 5.45l-2.55 15.96c1.33-.42 2.21-.86 2.46-.99.7-.38 5.27-21.92 6.32-31.93.63-5.99.48-8.93-.49-10.49z" class="Au"/><path class="m Al Am" d="M152.17 182.36c-1.3-.36-2.39.13-3.49 1.35-2.08 4.42-4.84 11.78-1.17 13.57 4.6 2.23 6.89-7.13 7.04-13.32-.54-.86-1.32-1.3-2.37-1.59zm1.1 7.57c-.73 4.04-2.94 7.42-5.26 6.59-1.85-.66-2.02-3.55-1.3-6.33.46-1.76.19 1.4 3.41 1.19 2.39-.16 3.46-3.2 3.15-1.45z"/><path d="M139 209.76s-.23.76-.72 1.83l-.87 1.79-1.11 1.98-1.23 1.91-1.17 1.61-1.28 1.49s.23-.76.71-1.83l.87-1.79 1.11-1.98 1.23-1.91 1.17-1.61 1.28-1.49zm3.52 1.94s-.14.79-.48 1.91l-.64 1.89-.86 2.11-.98 2.06-.96 1.75-1.09 1.64s.14-.79.48-1.91l.64-1.89.86-2.11.99-2.06.96-1.75 1.08-1.64zm3.65 1.36s.02.74-.11 1.81l-.26 1.82-.43 2.05-.57 2.02-.61 1.73c-.39 1.01-.75 1.66-.75 1.66s-.02-.74.1-1.81l.26-1.82.43-2.05.57-2.02.61-1.73c.39-1.01.74-1.66.74-1.66z" fill="#212121"/><path d="M147.67,188.65c2.8-1.96,3.34-5.47,1.85-6.81-.59-.54-1.33-.6-1.99-.49,0,0,4.27-1.86,5.55,2.46,1.28,4.31-4.51,7.09-5.41,4.85Z" class="Ap"/><path class="o Ak At" d="M138.45 205.96c-3.11 4.38-8.36 12.68-10.59 16.23.87 1.61 3.39 3.86 7.79 5.24 4.34 1.36 8.21.69 10.61-.06l2.55-15.96c1.55-9.47-6.33-11.11-10.36-5.45zm7.27 21.09c-10.23 2.93-17.34-4.79-17.34-4.79s9.85-17.14 15.46-15.06c5.61 2.09 1.87 19.85 1.87 19.85z"/><path class="p Al Au" d="M154.54 183.95c-.15 6.19-2.44 15.56-7.04 13.32-3.67-1.78-.91-9.14 1.17-13.57-1.67 1.85-3.39 5.38-6.01 10.26-5.75 10.74-15.09 25.32-15.17 27.04-.01.32.11.73.36 1.19 2.23-3.56 7.48-11.86 10.59-16.23 4.03-5.67 11.91-4.03 10.36 5.45l-2.55 15.96c1.33-.42 2.21-.86 2.46-.99.7-.38 5.27-21.92 6.32-31.93.63-5.99.48-8.93-.49-10.49zm-2.71 22.43c-.91 5.32-.81-3.14-5.65-4.7-5.37-1.73-9.26 4.17-8.06 1.77 3.68-7.37 6.81-10.79 6.7-9.93-.65 5.13 4.34 7.88 7.83 2.06.43-.72 1.03-.01-.81 10.79z"/><path class="q At" d="M135.81 226.04c5.44 2.1 11.35-1.01 8.11-1.08s-1.86-3.16-.46-7.98-2.26 2.88-4.46 5.68c-2.2 2.81-2.4-.22 0-6.62s-2.85 2.61-5.44 4.4c-2.59 1.78-1.29-1.25 1.22-5.38 2.52-4.13-3.14 3.04-4.29 5.38s1.09 3.96 5.32 5.6z" opacity=".3"/><path class="r Au" d="M147.19,199.11c4.93,1.8,4.17,8.24,3.24,5.86-.94-2.38-4.18-5.76-9.85-3.31-1.98.85,2.09-4.21,6.62-2.55Z" opacity=".3"/><path class="s Al Ap" d="M153.09 183.8c-1.28-4.32-5.55-2.46-5.55-2.46.66-.11 1.4-.04 1.99.49 1.49 1.34.95 4.85-1.85 6.81.91 2.24 6.69-.53 5.41-4.85zm-.51 1.71c-.47 3.88-6.22 4.19-3.7 2.77s2.41-4.71 1.53-5.86 2.65-.79 2.18 3.1z"/><path class="t Am As" d="M146.94 192.02c.16 1.36.85 3.62 3.96 2.37 1.02-.41-1.56 2.24-3.36 1.08s-.72-4.45-.6-3.45z"/><g class="Ar"><path d="M147.67 188.65c0-1.24-.19-4.26-1.99-6.56 0 0 2.35-1.59 3.84-.25s.95 4.85-1.85 6.81z"/><path class="u" d="M149.52 181.83c-1.49-1.34-3.84.25-3.84.25 1.8 2.3 1.99 5.32 1.99 6.56 2.8-1.96 3.34-5.47 1.85-6.81zm-1.72 4.11c-.29-1.4-.63-2.43-1.29-3.38-.83-1.19 2.54-1.84 3.23 0 .83 2.19-1.65 4.78-1.94 3.38z"/></g><path d="M155.03,231.94c-5.57-.29-7.4,3.04-8.24,10.36-.77,6.67-1,11.57-1.07,13.94,1.67.94,4.57,1.86,9.32,1.5,5.48-.41,8.68-2.53,10.33-4.1-.92-2.07-2.25-5.77-3.52-11.92-1.36-6.54-1.24-9.49-6.81-9.78Z" class="At"/><path d="M154.13,213.81c1.84.48,3.07-1,3.75-2.22-.68.02-1.45-.06-2.34-.32-1.83-.52-2.77-1.43-3.24-2.37-.24,1.44-.42,4.32,1.83,4.91Z" class="Ar"/><path d="M154.27,229.14c5.87.37,5.16-10.95,4.67-15.26-.53,1.98-1.88,4.22-5.03,3.75-3.27-.49-3.61-3.71-3.46-5.88h0s-3.43,16.93,3.82,17.39Z" class="Am"/><path d="M162.81 233.95c-3.84-10.84-2.86-22.79-2.86-22.79-.2.09-.44.16-.69.23h0c.03.47-.02 1.44-.3 2.48.48 4.31 1.19 15.63-4.67 15.26-7.24-.46-3.82-17.39-3.82-17.39h0c.08-1.14.3-1.98.3-1.99-.55 1.05-1.25 2.75-2.04 5.49-1.92 6.62-5.08 21.48-5.49 29.84-.26 5.31.51 9.48.51 9.48s.52.84 1.99 1.66c.07-2.37.3-7.27 1.07-13.94.85-7.32 2.67-10.64 8.24-10.36 5.57.29 5.45 3.24 6.81 9.78 1.27 6.15 2.6 9.85 3.52 11.92 1.04-.98 1.47-1.75 1.47-1.75.29-1.63-.19-7.1-4.03-17.93z" class="Au"/><path d="M153.91,217.63c4.82.72,5.42-4.9,5.34-6.23h0c-.4.1-.85.18-1.37.19-.68,1.23-1.91,2.71-3.75,2.22-2.24-.59-2.07-3.47-1.83-4.91-.14-.28-.23-.56-.3-.83,0,0-.47.19-1.25,1.69,0,.02-1.83,7.12,3.16,7.87Z" class="Ap"/><path d="M150.42 240.76s.16.78.26 1.95l.1 1.99-.02 2.28-.15 2.27-.25 1.97c-.18 1.15-.4 1.92-.4 1.92s-.16-.78-.26-1.94l-.1-1.99.02-2.27.16-2.27.25-1.97c.18-1.15.4-1.92.4-1.92zm4.03 0s.26.76.5 1.9l.35 1.97.27 2.27.13 2.28v2c-.03 1.17-.16 1.96-.16 1.96s-.26-.76-.5-1.9l-.35-1.97-.27-2.27-.13-2.28v-2c.03-1.17.16-1.96.16-1.96zm3.85-.57s.37.64.78 1.64l.65 1.72.61 2.01.48 2.04.31 1.81c.15 1.07.15 1.81.15 1.81s-.37-.64-.78-1.64l-.65-1.72-.61-2.01-.48-2.04-.31-1.81c-.15-1.07-.15-1.81-.15-1.81z" fill="#212121"/><path class="u Ar" d="M155.54 211.27c-1.83-.52-2.77-1.43-3.24-2.37-.24 1.44-.42 4.32 1.83 4.91 1.84.48 3.07-1 3.75-2.22a7.47 7.47 0 0 1-2.34-.32zm-2.06 1.79c-1.65-1.08-1.15-3.41-.5-2.51.81 1.12 2.07 1.22 3.73 1.37 1.66.14-1.58 2.22-3.23 1.15z"/><g class="Am"><path class="m Al" d="M159.25 211.4h0c-.4.1-.85.18-1.37.19-.68 1.23-1.91 2.71-3.75 2.22-2.24-.59-2.07-3.47-1.83-4.91-.14-.28-.23-.56-.3-.83 0 0-.47.19-1.25 1.69 0 .02-1.83 7.12 3.16 7.87 4.82.72 5.42-4.9 5.34-6.23zm-4.8 5.99c-4.39-.26-3.24-6.88-2.52-4.76.72 2.13 2.97 3.03 4.78 1.28 1.8-1.75 2.13 3.74-2.26 3.48z"/><path class="v As" d="M158.97 213.9c-.53 1.98-1.88 4.22-5.03 3.75-3.27-.49-3.61-3.71-3.46-5.88 0 0-3.43 16.93 3.82 17.39 5.87.37 5.16-10.95 4.67-15.26zm-3.93 14.34c-6.02.31-4.95-12.69-3.99-10.83 1.17 2.25 5.05 1.91 6.41.28 1.37-1.63 1.63 10.34-2.43 10.55z"/></g><g class="At"><path class="o Ak" d="M161.84 241.72c-1.36-6.54-1.24-9.49-6.81-9.78s-7.4 3.04-8.24 10.36c-.77 6.67-1 11.57-1.07 13.94 1.67.94 4.57 1.86 9.32 1.5 5.48-.41 8.68-2.53 10.33-4.1-.92-2.07-2.25-5.77-3.52-11.92zm-15.67 13.91c1.48-14.41 2.71-18.51 7.52-19.3 4.82-.79 6.57 2.63 7.58 6.06s2.92 11.35 2.92 11.35c-9.35 6.19-18.03 1.89-18.03 1.89z"/><path class="q" d="M147.44 251.72c.36-4.37 1.58-8.85 1.37-3.45-.22 5.39 1.56 9.26 2.09 3.45 1.27-14.03 2.16-8.27 3.56-1.37s2.12 4.06 1.84-.31c-.87-13.21.86-7.53 3.02-1.64 2.16 5.9 2.95 4.6 2.59 1.01-.36-3.6 4.47 5.17-4.67 6.47-9.15 1.31-10.05-.87-9.78-4.17z" opacity=".3"/></g><g class="Au"><path class="p Al" d="M162.81 233.95c-3.84-10.84-2.86-22.79-2.86-22.79-.2.09-.44.16-.69.23h0c.03.47-.02 1.44-.3 2.48.48 4.31 1.19 15.63-4.67 15.26-7.24-.46-3.82-17.39-3.82-17.39.08-1.14.3-1.98.3-1.99-.55 1.05-1.25 2.75-2.04 5.49-1.92 6.62-5.08 21.48-5.49 29.84-.26 5.31.51 9.48.51 9.48s.52.84 1.99 1.66c.07-2.37.3-7.27 1.07-13.94.85-7.32 2.67-10.64 8.24-10.36 5.57.29 5.45 3.24 6.81 9.78 1.27 6.15 2.6 9.85 3.52 11.92 1.04-.98 1.47-1.75 1.47-1.75.29-1.63-.19-7.1-4.03-17.93zm1.24 9.55c-1.15.53-1.46-2.4-2.61-6.72-1.15-4.31-3.31-5.55-6.32-5.7-3.01-.14-7.16.89-8.34 7-1.3 6.79-.72 8.87-1.96 8.87-1.67 0 .44-14.55 2.56-22.8 2.13-8.25 1.4-3.36 2.27.88.87 4.27 7.16 7.97 9.18.91.7-2.44.99.16 2.71 5.98 1.73 5.82 3.64 11.05 2.49 11.57z"/><path class="r" d="M148.18 233c1.46-1.72 9.21-4.55 11.89 0 1.58 2.68.38-1.57 0-3.83s-.72 1.07-5.23 1-5.53-4.13-6.08-2.8c-.93 2.27-2.22 7.55-.59 5.63z" opacity=".3"/></g><path class="t Am As" d="M151.73,220.47c1.13,3.84,2.29,6.35,4.7,4.71,1.05-.72.88,2.19-1.41,2.19-3.91,0-3.82-8.69-3.29-6.9Z"/><g fill="#c63930"><path d="M128.88,136.14h0c1.25-12.67,2.78-19.22,2.74-19.6-.07-.56-1.15-1.27-4.67-.11-3.53,1.15-5.14,2.88-6.12,4.58-1.85,3.2-2.47,9.39-2.48,15.99,0,0,3.47-2.01,10.54-.86Z"/><path d="M128.88,136.14c-7.07-1.15-10.54.86-10.54.86,0,7.53.79,15.59,1.5,20.35,1.34,8.93,7.38,9.29,7.65.66.27-8.64.8-15.92,1.38-21.86h0Z"/></g><path d="M124.98,135.79v3.47l-4.22.48-.23-3.5s1.84-.42,4.45-.45Z" class="Aw"/><path d="M121.26 139.68l.42 5.86s.18.43 1.57.36 1.31-.55 1.31-.55l-.35-6-2.94.33z" fill="#f2ac0f"/><path class="s Al Ap" d="M126.94 116.43c-3.53 1.15-5.14 2.88-6.12 4.58-1.85 3.2-2.47 9.39-2.48 15.99 0 0 .25-.14.72-.32l.04-1.84c.2-8.93 1.97-15.59 5.88-17.04 3.9-1.45 1.95 5.67 1.13 14.23a105.53 105.53 0 0 0-.3 3.78c.94.04 1.96.14 3.08.32h0c1.25-12.67 2.78-19.22 2.74-19.6-.07-.56-1.15-1.27-4.67-.11z"/><path class="m Al Am" d="M128.88,136.14c-1.12-.18-2.14-.28-3.08-.32-.53,7.79-.58,16.53-.45,21.54.14,5.84-3.18,5.99-4.82-1.15-1.5-6.54-1.59-12.87-1.46-19.53-.48.18-.72.32-.72.32,0,7.53.79,15.59,1.5,20.35,1.34,8.93,7.38,9.29,7.65.66.27-8.64.8-15.92,1.38-21.86h0Z"/><g class="An"><path class="Q Ak" d="M119.6 135.23c.01-6.38 1.38-15.49 5.37-16.8 1.24-.41-2.12 2.01-2.69 7.74-.58 5.8-.45 8.47-.45 8.47s-.24.48-1.14.67c-.9.2-1.1-.08-1.1-.08zm-.33 5.8a132.87 132.87 0 0 0 1.02 11.94c.83 6.11 2.22 7.84 3.32 7.93 0 0-1.95-5.43-2.35-12.96l-.36-7.23s-.77-.11-1.63.32z"/></g><path class="T Ao" d="M124.55 145.34l-.35-6-2.94.33.42 5.86s.18.43 1.57.36 1.31-.55 1.31-.55zm-2.57.18c-.31-.12-.54-5.79-.54-5.79l1.92-.18s-.99 1.07-.77 3.07 1.44 2.9 1.44 2.9-.86.47-2.05 0z"/><path d="M120.53 136.24l.23 3.5 4.22-.48v-3.47c-2.61.03-4.45.45-4.45.45zm.42 3.1l-.25-3.02s2.1-.43 3.85-.34c0 0-3.12.17-3.6 3.37z" class="BA"/><g fill="#c63930"><path d="M163.33 135.25h0c-1.25-12.14-2.78-18.42-2.74-18.78.07-.53 1.15-1.21 4.68-.11s5.14 2.76 6.12 4.39c1.85 3.06 2.47 9 2.48 15.32 0 0-3.47-1.92-10.54-.82z"/><path d="M163.33,135.25c7.07-1.1,10.53.82,10.54.82,0,7.21-.79,14.94-1.5,19.5-1.34,8.56-7.38,8.9-7.65.63-.27-8.28-.8-15.26-1.38-20.95h0Z"/></g><path d="M167.23,134.91v3.32l4.22.46.23-3.35s-1.84-.4-4.45-.43Z" class="Aw"/><path d="M170.95 138.64l-.42 5.62s-.18.41-1.57.34-1.3-.53-1.3-.53l.35-5.75 2.94.32z" fill="#f2ac0f"/><path class="s Al Ap" d="M165.27 116.36c3.53 1.1 5.14 2.76 6.12 4.39 1.85 3.06 2.47 9 2.48 15.32 0 0-.25-.13-.72-.31l-.04-1.76c-.2-8.56-1.97-14.94-5.88-16.33-3.9-1.39-1.95 5.44-1.13 13.64.12 1.17.22 2.38.31 3.62-.94.04-1.96.13-3.08.31h0c-1.25-12.14-2.78-18.42-2.74-18.78.07-.53 1.15-1.21 4.68-.11z"/><path class="m Al Am" d="M163.33,135.25c1.12-.17,2.14-.27,3.08-.31.53,7.46.58,15.84.45,20.64-.14,5.6,3.18,5.74,4.82-1.1,1.5-6.27,1.59-12.33,1.46-18.71.48.18.72.31.72.31,0,7.21-.79,14.94-1.5,19.5-1.34,8.56-7.38,8.9-7.65.63-.27-8.28-.8-15.26-1.38-20.95h0Z"/><g class="An"><path class="Q Ak" d="M172.61 134.37c-.02-6.12-1.38-14.84-5.37-16.1-1.24-.39 2.12 1.93 2.69 7.42.58 5.56.45 8.12.45 8.12s.24.46 1.14.65 1.1-.08 1.1-.08zm.33 5.57s-.19 5.59-1.02 11.44-2.22 7.51-3.32 7.59c0 0 1.95-5.2 2.35-12.42l.36-6.93s.77-.1 1.63.31z"/></g><path class="T Ao" d="M168.96 144.6c1.39.07 1.57-.34 1.57-.34l.42-5.62-2.94-.32-.35 5.75s-.09.46 1.3.53zm-.77-.36s1.22-.86 1.44-2.78-.77-2.94-.77-2.94l1.92.17s-.23 5.43-.54 5.55c-1.19.45-2.05 0-2.05 0z"/><path d="M167.23 134.91v3.32l4.22.46.23-3.35s-1.84-.4-4.45-.43zm.43.18c1.76-.09 3.85.33 3.85.33l-.25 2.9c-.49-3.06-3.6-3.23-3.6-3.23z" class="BA"/><path d="M112.89,116.34s-11.6,14.58-11.57,20.13c-.13.9-.15,1.89,0,2.96,1.02,7.24,11.42,2.75,14.99-8.97,3-9.87,3.5-10.86,3.58-10.93l-7.01-3.19Z" class="Ay"/><path class="P Az" d="M112.89 116.34s-11.6 14.58-11.57 20.13c-.13.9-.15 1.89 0 2.96 1.02 7.24 11.42 2.75 14.99-8.97 3-9.87 3.5-10.86 3.58-10.93l-7.01-3.19zm.56 9.87l-1.99 3.84c-1.58 2.93-3.27 6.11-5.62 8.5-.58.59-1.58 1.61-2.53 1.33-1.2-.35-1.46-2.2-1.37-3.22.24-3.05 2.03-5.88 3.56-8.44 1.52-2.55 3.16-5.05 5.15-7.26.43-.73.88-1.45 1.38-2.14.09-.12.2-.15.34-.09.96.41 1.78.94 2.25 1.89.88 1.76-.36 4.05-1.17 5.6z"/><path d="M119.9 119.53h.02z" class="An"/><path d="M118.11 63.05l7.49-6.09-2 10.13c.24.3.59.55.51 1.03-.13.25-.32.43-.56.56-2.94.27-5.72.95-7.95 3.24-.33.34-1.1.95-1.31-.29l3.31-6.75c.19-.6.45-1.19.51-1.83z" fill="#633905"/><path class="Q Ak An" d="M112.57 119.65s-.05 0-.07.02c-.03.01-.07.02-.1.04-1.97 1.13-3.06 3.72-4.25 5.55-1.04 1.59-1.93 3.21-2.64 4.92-.01.03-.03.05-.04.08-.25.43-3.53 6.6-2.27 6.61.68 0 1.11-.64 1.47-1.14l3.28-4.87c1.99-3.46 3.4-7.15 4.93-10.82.13-.31-.08-.43-.31-.39z"/><g fill="#81195f"><path d="M139.81 110.97c.03 1.75-.37 4.43-.82 5.83 6.67 6.75 11.77 2.12 13.76-.1-.31-3.02.03-6.39.03-6.39s-13.02-1.82-12.97.66z"/><path d="M153.23 113.6l-.35 3.15-.04.04c-1.19 1.32-3.67 3.55-6.93 3.62-.83.02-1.66-.1-2.48-.36-1.65-.52-2.75-1.26-4.35-2.88l-.4-1.71-.17-2.29c.45-1.4 1.2-.47 1.17-2.2 0-.24.1-.46.3-.64 1.86-1.65 12.36-.2 12.81-.14l.12.02v.12m-.26.09c-1.16-.16-10.82-1.39-12.5.09-.15.14-.23.29-.22.46"/></g><path d="M175.34,87.21c.49-12.95-3.65-26.47-11.22-31.88-2.16,1.02-5.4,2-9.98,2.08-2.77-.32-4.99-.95-6.78-1.76-4.5,1.25-7.77.95-10.14-.13-7.36,2.2-10.9,1.21-12.36.42.04,3.41-.56,13.48-8.32,20.85-.81,11.61,2.43,37.98,30.52,37.82,18.25-1.15,27.8-15.09,28.27-27.4Z" fill="#ffc2a1"/><g class="BB"><path d="M169.6 93.87c-1.77.9-3.5 1.27-5.12 1.3-5.43.11-9.6-3.54-9.6-3.54-3.09-2.38-4.55-4.38-7.09-5.42-.52-.21-.96-.31-1.34-.34-.11 0-.23-.02-.37-.02h-.12-.11c-.14 0-.26.02-.37.03-.38.05-.82.17-1.32.4-2.5 1.14-3.88 3.2-6.87 5.7 0 0-4.02 3.81-9.45 3.92-1.52.03-3.15-.23-4.83-.95-.22-.09-.43-.18-.65-.26-1.95-.72-3.58-2.1-4.63-3.86-1.18-5.27-1.33-10.36-1.07-14 2.35-2.23 4.04-4.71 5.26-7.17a5.9 5.9 0 0 1 .42-.02l22.23-.44 2.18-.04 22.23-.44c1.77-.04 3.39.68 4.54 1.85 1.11 3.91 1.78 8.19 1.94 12.5.03.67.04 1.33.04 2v.76a9.06 9.06 0 0 1-5.86 8.05zm1.92-28.81c-1.93-3.17-4.42-5.72-7.48-7.37-2.16 1.02-5.4 2-9.98 2.08-2.77-.32-4.99-.95-6.78-1.76-4.5 1.25-7.76.95-10.14-.13-7.2 2.15-10.74 1.25-12.26.47.07-.97.08-1.78.07-2.38 1.46.79 4.99 1.78 12.36-.42 2.38 1.08 5.65 1.38 10.14.13 1.79.81 4.01 1.44 6.78 1.76 4.58-.09 7.82-1.06 9.98-2.08 3 2.14 5.45 5.55 7.3 9.7z"/><path d="M132.77,109.7c-.7-.42-1.3-.94-1.82-1.53-.77-.53-1.42-1.18-1.94-1.92-11.05-7.93-12.89-23.13-12.48-31.72-.42.46-.86.92-1.33,1.36-.7,10,1.63,30.96,20.27,36.46-.96-.75-1.85-1.64-2.7-2.64Z"/></g><path d="M168.54 90.81a11.07 11.07 0 0 1-4.76 1.06c-5.06 0-9.01-3.3-9.01-3.3-2.93-2.16-4.32-3.95-6.71-4.92-.48-.2-.9-.29-1.25-.33l-.35-.02h-.11-.11c-.13 0-.24.01-.35.02-.35.04-.76.13-1.23.33-2.31.97-3.57 2.77-6.32 4.93 0 0-3.69 3.31-8.75 3.31a11.57 11.57 0 0 1-4.84-1.06c-3.32-1.09-5.79-4.06-5.93-7.55l-.33-8.43a25.69 25.69 0 0 0 3.29-4.96l49.13-.39c1.51.99 2.53 2.62 2.61 4.47l.37 9.26c.14 3.49-2.1 6.46-5.33 7.56z" fill="#dbccae"/><path d="M136.37 113.26c-4.34-1.36-8.03-3.66-11.04-6.86-3.64-3.89-6.23-9.03-7.67-15.29-1.43-6.17-1.32-11.61-1.14-14.3v-.05l.04-.03c7.6-7.22 8.32-16.92 8.28-20.76v-.21l.18.1c1.44.78 4.94 1.76 12.26-.43h.04.04c2.64 1.2 6.03 1.24 10.06.12h.04.04c1.91.86 4.18 1.45 6.74 1.75 3.83-.07 7.17-.77 9.92-2.07l.06-.03.06.04c3.64 2.6 6.64 7.16 8.67 13.17 1.92 5.67 2.84 12.35 2.59 18.81-.12 3.11-.83 6.35-2.06 9.36-1.3 3.19-3.13 6.08-5.44 8.61-5.23 5.72-12.45 9.02-20.88 9.55h0c-3.95.02-7.55-.48-10.79-1.5zm-19.61-36.38c-.62 9.04 1.35 21.48 8.75 29.36 5.2 5.55 12.49 8.33 21.65 8.28 17.84-1.12 27.66-14.58 28.15-27.29.25-6.43-.67-13.08-2.58-18.72-2.01-5.93-4.96-10.43-8.53-13.01-2.77 1.3-6.12 1.99-9.96 2.07h-.02c-2.57-.3-4.85-.89-6.78-1.75-3.52.97-6.56 1.07-9.06.28-.37-.12-.73-.25-1.08-.41-7.09 2.11-10.66 1.26-12.22.49a32.21 32.21 0 0 1-1.24 8.77c-1.37 4.74-3.75 8.75-7.08 11.93z" class="Ax"/><path d="M170.18,71.88c4.7,10.58,5.83,24.5-8.98,35.94-9.15,6.26-18.67,6.85-26.52,4.25,8.28,3.63,18.88,3.66,29.02-3.28,15.45-11.93,13.56-26.56,8.36-37.28-.58.19-1.21.32-1.88.38Z" class="BB"/><g fill="#292500"><path d="M124.32,63.07c.67-3.04.77-5.63.76-7.07l-.24-.08c.02,1.41-.07,4.02-.75,7.1-.95,4.26-3.26,10.31-8.9,14.93l.15.19c2.51-2.06,4.59-4.57,6.17-7.46,1.26-2.31,2.21-4.87,2.81-7.6Z"/><path d="M126.04,56.56c-.44-.14-.79-.29-1.08-.44-.67-.35-.78-.86-.78-.86,0,.01.85,1.01,3.31,1.38,2.29.34,6.47.2,13.41-2.43l.09.23c-3.1,1.17-5.92,1.96-8.38,2.33-1.97.3-3.72.33-5.2.11-.53-.08-.99-.19-1.39-.32Z"/></g><path d="M151.36 91.52c.03 1.98-2.39 3.84-5.36 3.88s-5.7-1.84-5.32-4.36l10.68.48z" class="BB"/><path d="M151.45 90.58c.03 1.98-2.36 3.62-5.33 3.66s-5.4-1.53-5.43-3.52l10.76-.14z" fill="#ffc2a1"/><path d="M143.7 94.02c-.53-.17-1.03-.4-1.47-.68-.55-.35-.97-.77-1.25-1.23-.5-.93-.17-1.39-.17-1.39.01.92.56 1.77 1.56 2.42 1.01.65 2.34 1 3.75.98s2.74-.4 3.72-1.08c.97-.67 1.5-1.54 1.49-2.46 0 0 .38.47-.18 1.47-.27.44-.66.84-1.17 1.19-1.03.7-2.4 1.1-3.86 1.12-.85.01-1.68-.11-2.42-.34z" class="Ax"/><path d="M160.71,74.59c-4.07.06-7.31,3.68-7.25,8.09.01.74.12,1.45.3,2.12,1.95,1.01,4.43,1.61,7.12,1.57,2.7-.04,5.16-.7,7.07-1.77.16-.68.25-1.39.24-2.13-.06-4.41-3.41-7.94-7.48-7.88Z" fill="#ececff"/><path d="M155.8 85.78c-.74-.23-1.45-.52-2.1-.86l-.05-.02v-.05c-.2-.7-.3-1.43-.32-2.15-.03-2.16.72-4.21 2.11-5.76s3.26-2.43 5.26-2.46v.12-.12c4.13-.06 7.54 3.53 7.6 8 .01.73-.07 1.45-.24 2.16v.05l-.06.03c-1.99 1.12-4.53 1.75-7.13 1.79-1.77.03-3.51-.22-5.08-.72zm-1.94-1.06c1.98 1.02 4.47 1.57 7.02 1.53s5.02-.65 6.97-1.73a8.31 8.31 0 0 0 .22-2.05c-.06-4.34-3.36-7.82-7.36-7.76-1.93.03-3.74.87-5.08 2.38-1.35 1.51-2.07 3.49-2.04 5.6.01.69.1 1.38.28 2.04z" fill="#a4835e"/><path d="M156.11,80.05c-.24,2.56,1.66,4.83,4.24,5.07,2.59.24,4.88-1.64,5.12-4.21.03-.27.03-.54,0-.8-.17-2.22-1.94-4.06-4.25-4.27-2.14-.2-4.08,1.05-4.82,2.94-.16.4-.26.82-.3,1.26Z" fill="#009cd9"/><path d="M165.48,80.91c-.24,2.56-2.54,4.45-5.12,4.21-2.59-.24-4.49-2.51-4.24-5.07.02-.2.05-.39.09-.58.49,1.83,2.09,3.25,4.11,3.44,2.38.22,4.52-1.36,5.03-3.62.07.27.12.55.14.83.02.26.02.53,0,.8Z" fill="#00d3ff"/><path d="M159.32,85.04c-.88-.28-1.66-.8-2.26-1.52-.81-.98-1.19-2.22-1.07-3.48h0c.04-.45.15-.88.31-1.3.78-1.97,2.81-3.22,4.94-3.02,2.35.22,4.18,2.06,4.36,4.38.02.27.02.55,0,.82-.25,2.62-2.61,4.56-5.25,4.31-.35-.03-.69-.1-1.02-.2ZM162.19,76.15c-.31-.1-.63-.16-.97-.19-2.03-.19-3.96.99-4.7,2.87-.16.39-.25.81-.29,1.23h0c-.11,1.2.25,2.37,1.02,3.3.78.94,1.89,1.53,3.11,1.64,2.52.23,4.75-1.6,4.99-4.1.02-.26.03-.52,0-.78-.15-1.87-1.42-3.42-3.17-3.97Z" fill="#0060b8"/><ellipse cx="160.68" cy="80.53" rx="3.22" ry="3.27" transform="matrix(.020942 -.999781 .999781 .020942 76.79 239.48)" fill="#ade5ff"/><ellipse cx="160.71" cy="80.13" rx="2.8" ry="2.84" transform="matrix(.020942 -.999781 .999781 .020942 77.23 239.13)"/><ellipse cx="160.72" cy="80.07" rx="2.59" ry="2.63" transform="matrix(.020942 -.999781 .999781 .020942 77.3 239.07)" fill="#421d00"/><path d="M158.1,79.88c-.1,1.4.95,2.63,2.38,2.76,1.42.13,2.69-.88,2.85-2.28-.71-.33-1.6-.56-2.58-.65-.97-.09-1.89-.02-2.65.17Z" fill="#814029"/><ellipse cx="160.73" cy="79.9" rx="2.13" ry="2.17" transform="matrix(.020942 -.999781 .999781 .020942 77.47 238.92)"/><use xlink:href="#K" class="Ax"/><g opacity=".65" class="Aq"><path d="M161.84,78.45c.25.47.81.74,1.23.61.43-.13.57-.61.31-1.07s-.81-.74-1.23-.61c-.43.13-.57.61-.31,1.07Z"/></g><use xlink:href="#L" fill="#4d4d4d"/><use xlink:href="#K" fill="#cc7e33"/><g opacity=".77" class="Aq"><use xlink:href="#M"/></g><use xlink:href="#N" class="Aq"/><path d="M131.44,75.17c-4.07.06-7.31,3.68-7.25,8.09.01.74.12,1.45.3,2.12,1.95,1.01,4.43,1.61,7.12,1.57,2.7-.04,5.16-.7,7.07-1.77.16-.68.25-1.39.24-2.13-.06-4.41-3.41-7.94-7.48-7.88Z" fill="#ececff"/><path d="M126.54 86.35c-.74-.23-1.45-.52-2.1-.86l-.05-.02v-.05c-.2-.7-.3-1.43-.32-2.15-.03-2.16.72-4.21 2.11-5.76s3.26-2.43 5.26-2.46c4.13-.06 7.54 3.53 7.6 8 .01.73-.07 1.45-.24 2.16v.05l-.06.03c-1.99 1.12-4.53 1.75-7.13 1.79-1.77.03-3.51-.22-5.08-.72zm-1.94-1.05c1.98 1.02 4.47 1.57 7.02 1.53s5.02-.65 6.97-1.73a8.31 8.31 0 0 0 .22-2.05c-.06-4.34-3.36-7.82-7.36-7.76-1.93.03-3.74.87-5.08 2.38-1.35 1.51-2.07 3.49-2.04 5.6.01.69.1 1.38.28 2.04z" fill="#a4835e"/><path d="M126.85,80.62c-.24,2.56,1.66,4.83,4.24,5.07,2.59.24,4.88-1.64,5.12-4.21.03-.27.03-.54,0-.8-.17-2.22-1.94-4.06-4.25-4.27-2.14-.2-4.08,1.05-4.82,2.94-.16.4-.26.82-.3,1.26Z" fill="#009cd9"/><path d="M136.21,81.49c-.24,2.56-2.54,4.45-5.12,4.21-2.59-.24-4.49-2.51-4.24-5.07.02-.2.05-.39.09-.58.49,1.83,2.09,3.25,4.11,3.44,2.38.22,4.52-1.36,5.03-3.62.07.27.12.55.14.83.02.26.02.53,0,.8Z" fill="#00d3ff"/><path d="M130.06,85.61c-.88-.28-1.66-.8-2.26-1.52-.81-.98-1.19-2.22-1.07-3.48h0c.04-.45.15-.88.31-1.3.78-1.97,2.81-3.22,4.94-3.02,2.34.22,4.18,2.06,4.36,4.38.02.27.02.55,0,.82-.25,2.62-2.61,4.56-5.25,4.31-.35-.03-.69-.1-1.02-.2ZM132.93,76.73c-.31-.1-.63-.16-.97-.19-2.03-.19-3.96.99-4.7,2.87-.15.39-.25.81-.29,1.23h0c-.11,1.2.25,2.37,1.02,3.3.78.94,1.89,1.53,3.11,1.64,2.52.23,4.75-1.6,4.99-4.1.02-.26.03-.52,0-.78-.15-1.87-1.42-3.42-3.17-3.97Z" fill="#0060b8"/><ellipse cx="131.41" cy="81.11" rx="3.22" ry="3.27" transform="matrix(.020942 -.999781 .999781 .020942 47.56 210.79)" fill="#ade5ff"/><ellipse cx="131.45" cy="80.71" rx="2.8" ry="2.84" transform="matrix(.020942 -.999781 .999781 .020942 48 210.44)"/><ellipse cx="131.46" cy="80.65" rx="2.59" ry="2.63" transform="matrix(.020942 -.999781 .999781 .020942 48.07 210.38)" fill="#421d00"/><path d="M128.84,80.46c-.1,1.4.95,2.63,2.38,2.76,1.42.13,2.69-.88,2.85-2.28-.71-.33-1.6-.56-2.58-.65-.97-.09-1.89-.02-2.65.17Z" fill="#814029"/><ellipse cx="131.47" cy="80.48" rx="2.13" ry="2.17" transform="matrix(.020942 -.999781 .999781 .020942 48.25 210.24)"/><use xlink:href="#K" x="-29.26" y="0.58" class="Ax"/><g opacity=".65" class="Aq"><path d="M132.58,79.03c.25.47.81.74,1.23.61.43-.13.57-.61.31-1.07s-.81-.74-1.23-.61c-.43.13-.57.61-.31,1.07Z"/></g><use xlink:href="#L" x="-29.26" y="0.57" fill="#4d4d4d"/><use xlink:href="#K" x="-29.26" y="0.58" fill="#cc7e33"/><g opacity=".77" class="Aq"><use xlink:href="#M" x="-29.26" y="0.58"/></g><use xlink:href="#N" x="-29.26" y="0.58" class="Aq"/><use xlink:href="#O" fill="#a45b00"/><path d="M152.43 75.16l.15-.45c.66-1.95 1.69-3.61 2.97-4.79 1.32-1.22 2.87-1.89 4.46-1.92 1.6-.03 3.17.57 4.54 1.74 1.33 1.13 2.42 2.75 3.15 4.67l.17.45-.36-.31c-1.93-1.66-4.63-2.58-7.42-2.52s-5.45 1.08-7.31 2.82l-.35.33zm9.49-6.65c-.62-.19-1.25-.29-1.9-.28-2.98.06-5.65 2.38-7.05 6.1.86-.73 1.85-1.31 2.96-1.75 1.31-.51 2.71-.79 4.16-.82s2.86.19 4.19.65c1.12.39 2.14.94 3.03 1.63-1.21-2.87-3.16-4.85-5.38-5.54z" fill="#593b1d"/><use xlink:href="#O" x="-28.48" y="0.56" fill="#a45b00"/><path d="M123.95 75.72l.15-.45c.66-1.95 1.69-3.61 2.97-4.79 1.32-1.22 2.87-1.89 4.46-1.92 1.6-.03 3.17.57 4.54 1.74 1.33 1.13 2.42 2.75 3.15 4.67l.17.45-.36-.31c-1.93-1.66-4.63-2.58-7.42-2.52s-5.45 1.08-7.31 2.82l-.35.33zm9.49-6.64c-.62-.19-1.25-.29-1.9-.28-2.98.06-5.65 2.38-7.05 6.1.86-.73 1.85-1.31 2.96-1.75 1.31-.51 2.71-.79 4.16-.82s2.86.19 4.19.65c1.12.39 2.14.94 3.03 1.63-1.21-2.87-3.16-4.85-5.38-5.54z" fill="#593b1d"/><path d="M116.37,79.29l1.93-.04-.07-3.6-.08-4.06-1.93.04c-.92.02-1.64.78-1.63,1.69l.09,4.34c.02.92.78,1.64,1.69,1.63Z" class="BC"/><path d="M115.81,79.33c-.71-.22-1.23-.88-1.25-1.66l-.09-4.34c0-.48.17-.93.5-1.27.33-.34.77-.54,1.25-.55l2.05-.04.16,7.9-2.05.04c-.2,0-.39-.02-.57-.08ZM118.03,71.72l-1.81.04c-.41,0-.79.18-1.08.47-.28.3-.44.69-.43,1.1l.09,4.34c.02.85.72,1.52,1.57,1.51l1.81-.04-.15-7.42Z" class="BD"/><path d="M175.23,78.14l-1.93.04-.07-3.59-.08-4.07,1.93-.04c.92-.02,1.67.71,1.69,1.63l.09,4.34c.02.92-.71,1.67-1.63,1.69Z" class="BC"/><path d="M173.18 78.31l-.16-7.9 2.05-.04a1.8 1.8 0 0 1 1.27.5c.34.33.54.77.55 1.25l.09 4.34c.02.98-.76 1.8-1.74 1.82l-2.05.04zm.09-7.67l.15 7.42 1.81-.04c.41 0 .79-.18 1.08-.47.28-.3.44-.69.43-1.1l-.09-4.34c0-.41-.18-.79-.47-1.08-.3-.28-.69-.44-1.1-.43l-1.81.04z" class="BD"/><g class="Aq"><ellipse cx="167.51" cy="75.99" rx="3.5" ry="2.05" transform="matrix(.011693 -.999932 .999932 .011693 89.57 242.59)" opacity=".54"/><ellipse cx="169.55" cy="82.48" rx="1.65" ry="1.07" transform="matrix(.011693 -.999932 .999932 .011693 85.09 251.05)" opacity=".54"/><path d="M123.47 76.36l-1.86-.11.25-2.42 1.91-.11-.31 2.64zm2.29 11.21c-3.78-.17-4.33-5.62-4.23-9.6l1.84.1c-.11 3.3.22 7.59 2.39 9.5z" opacity=".52"/></g><path d="M178.02 67.35c-1-1.09-1.64-2.47-1.93-3.93l-.31-.31c-.65 0-1.25-.19-1.87-.32l-7.05-2.63c-1.21.33-.53 1.03-.16 1.33 2.5 1.99 3.45 4.69 4.01 7.59a1.37 1.37 0 0 0 .61.5c.49.03.69-.34.98-.61l6.33.61c-.3-.71-.51-1.47-.61-2.24z" fill="#633905" stroke-width=".25" stroke="#000" class="BE"/><path d="M150.22 37.46c2.18.41 4.43.55 6.54 1.24 3.17 1.03 6.18 2.56 8.98 4.36 2.34 1.5 4.25 3.76 6.35 5.68.21.19.42.38.55.65 3.31 4.87 5.05 10.35 5.66 16.28.04.43.44 1.14.75 1.19 3.48.55 4.96 3.79 5.4 6.36.26 1.51.02 3.11.01 4.66-.69 2.55-2.3 4.44-4.14 6.06-1.61 1.42-2.89.9-3.56-1.21-.06-.2-.05-.46-.19-.58-1.51-1.35-1.12-3.08-.57-4.6.65-1.8.4-3.4-.38-4.95-.67-1.32-1.02-2.69-1.09-4.17-.03-.51-.03-1.3-.56-1.31-1.62-.03-1.71-1.76-2.68-2.48-1.05-.78-1.94-1.79-3.15-2.33-.73-.03-1.35-.39-1.99-.7-.13-.06-.26-.13-.38-.2s-.24-.16-.36-.24c-.06-.04-.12-.08-.19-.12l-.39-.21c-3.07-1.54-6.27-2.62-9.67-2.95-1.43-.42-2.88-.58-4.36-.56-4.21.04-8.43-.13-12.64.11-.55.21-1.15.13-1.69.34-3.3.6-6.53 1.44-9.52 3.08-3 1.28-5.25 3.52-7.18 6.21a12.28 12.28 0 0 1-.34.62c-2.05 3.07-2.89 6.54-2.97 10.23-.04 2.06-.19 4.14.2 6.2-.04 2.08.58 4.05.89 6.08.61 3.4-.47 2.62-1.37 3.65-.32.21.95.87.7.65-.53-.53.45.64-1.79-2.13-.54-1.44-.72-1.45-1.01-2.61-.44-3.95-.26-1.76-.39-3.29-.06-.78-.92-.82-1.51-1.04-2.87-1.06-4.41-3.33-5.16-6.33-.08-.31-.04-1.49-.05-1.83-.06-2.47.32-3.66.83-5.85.56-2.41 2.25-4.01 4.63-4.44.77-.14.86-.46 1.02-1.16.75-3.43 1.35-6.93 2.44-10.24 1.79-5.44 5.37-9.44 9.9-12.54 5.3-3.62 11.22-5.05 17.39-5.63 2.26.02 4.22-.18 6.79.05"/><path d="M183.59 81.26l-2.03 2.56c-.33.32-.6.4-.89.62l-.9.61s1.79-1.24 0 0c-1.08.75-2.36.34-2.3 2.53.6 1.48-.14 2.85-.42 4.2-.46 2.21-1.16 4.37-2.18 6.39-.05.14-.11.28-.18.41-.44.63-.64 1.43-1.19 1.99-.28.3-.45.67-.6 1.06-1.5 2.98-3.84 5.15-6.17 7.34-.21.16-.44.3-.66.45l-.95.66c-.36.28-.76.49-1.14.73l-1 .68-1.72.91c-2.83 1.38-5.83 2.19-8.87 2.86-4.61.89-9.21.95-13.79-.2-.41 0-.81-.08-1.2-.19-.64-.26-1.26-.56-1.97-.56-1.84-.58-3.67-1.2-5.39-2.14-.31-.27-.46-.64-.6-1.02-.62-1.58-.36-2.02 1.34-2.23 3.09 1.47 6.23 2.8 9.61 3.29 7.53 1.09 14.75.26 21.39-4.01.12-.09.25-.16.38-.23.12-.08.25-.14.38-.21.31-.16.6-.35.87-.58.11-.1.22-.18.34-.26 6.98-5.54 10.43-13.11 11.28-22.16.02-.15.05-.31.09-.46.17-.53.11-1.08.11-1.63-.09-2.61.17-5.22-.29-7.81-.45-2.55-1.22-4.94-2.66-7.06-.09-.13-.17-.26-.24-.4-.08-.12-.16-.26-.23-.39-.78-1.25-1.83-2.23-2.86-3.25-.48-.48-1.29-.84-1.05-1.82.45.13.93.2 1.33.42.64.35 1.25.78 1.83 1.23.22.17.32.51.49.77.11.17.31.5.34.49 1.26-.71.56.5.76.83.19.32.5.79.76.8 1.07.03 1.38.36 1.51 1.64.19 1.9 1.07 3.7 1.47 5.59.23 1.09.18 2.27.1 3.39-.07 1.02-.44 2.01-.52 3.03-.03.38.36.81.58 1.21.17.32.38.62.56.94.4.7.7 1.84 1.23 1.99.59.16 1.6-.4 2.08-.98 1.43-1.71 2.69-3.58 4.02-5.39.01.31.06.8-.32 2.12" fill="#050204"/><path d="M146.21 40.15c-.84.69-1.28 1.22-1.82 1.48l-8.57 3.72c-5.75 1.9-10.71 5.33-15.75 8.63-.56.37-1.27.47-1.91.69.27-.69.45-1.45.84-2.05 3.15-4.87 7.5-8.09 12.6-10.34 4.13-1.82 8.35-2.93 12.84-2.65.47.03.92.26 1.78.52z" fill="#2c2916"/><path d="M169.09 70.98c1.18-.02 2.15.91 2.17 2.09l.21 10.45c-.01 5.6-6.07 5.78-7.01 5.8-3.61.07-6.63-2.37-6.85-2.55l-.07-.06-.13-.1-2.6-2.2c-1.62-1.45-3.15-2.82-5.42-3.75-.82-.34-1.66-.55-2.48-.63h-.03-.03l-.66-.03h-.02-.2-.03-.02-.19 0-.02 0a6.6 6.6 0 0 0-.66.06h-.03-.03a8.75 8.75 0 0 0-2.46.73c-2.23 1.02-3.71 2.45-5.27 3.96l-2.51 2.3-.08.06-.1.1c-.2.18-3.13 2.74-6.74 2.82-1.17.02-6.99-.87-7.23-5.52l-.21-10.45c-.02-1.18.91-2.15 2.09-2.17l22.23-.44 2.18-.04 22.23-.44m-.11-4.05l-22.23.44-2.18.04-22.23.44a6.19 6.19 0 0 0-6.07 6.31l.21 10.45c.08 3.8 2.48 7 5.83 8.27.3.11.59.23.88.35 1.62.66 3.2.9 4.66.88 5.43-.11 9.45-3.92 9.45-3.92 3-2.5 4.38-4.55 6.87-5.7.51-.23.95-.35 1.32-.4.11-.01.23-.03.37-.03h.11.12a3.93 3.93 0 0 1 .37.02c.38.04.82.13 1.34.34 2.54 1.04 4 3.04 7.09 5.42 0 0 4.17 3.65 9.6 3.54a11.61 11.61 0 0 0 4.63-1.06l.87-.39c3.29-1.4 5.57-4.7 5.5-8.49l-.21-10.45c-.07-3.42-2.9-6.14-6.31-6.07h0z" fill="#00ae00"/><path d="M122.36 68.7l22.23-.44 2.18-.04 22.23-.44c3.42-.07 6.25 2.65 6.31 6.07v.66l.05.01-.03-1.53a6.19 6.19 0 0 0-6.31-6.07l-22.23.44-2.18.04-22.23.44a6.19 6.19 0 0 0-6.07 6.31v.22a6.19 6.19 0 0 1 6.05-5.67zm49.09 15.68v-.31c-.4 5.07-6.09 5.24-7 5.25-3.61.07-6.63-2.37-6.85-2.55l-.06-.06-.13-.1-2.6-2.2c-1.62-1.45-3.15-2.82-5.42-3.75-.82-.34-1.66-.55-2.48-.63h-.03-.03l-.66-.03h-.02-.2-.03-.02-.19 0-.02c-.14 0-.27.02-.38.03l-.28.03h-.03-.03a8.75 8.75 0 0 0-2.46.73c-2.23 1.02-3.71 2.45-5.27 3.96l-2.51 2.3-.08.06-.1.1c-.2.18-3.13 2.74-6.74 2.82-1.17.02-6.99-.87-7.24-5.52v-.19l-.04-.01.02 1.06c.25 4.65 6.06 5.54 7.24 5.52 3.61-.07 6.54-2.64 6.74-2.82l.1-.1.08-.06 2.51-2.3c1.56-1.51 3.04-2.94 5.27-3.96a8.99 8.99 0 0 1 2.46-.73h.03.03c.07 0 .17-.02.28-.03l.38-.03h.02.19.02.03.2 0 .02l.66.03h.03.03c.83.08 1.66.29 2.48.63 2.27.93 3.8 2.3 5.42 3.75l2.6 2.2.13.1.06.06c.22.18 3.24 2.62 6.85 2.55.94-.02 7-.2 7.01-5.8z" fill="#66ce66"/><path d="M175.49 81.87h-.01v.09c.08 3.8-2.2 7.09-5.5 8.49-.29.12-.58.26-.87.39a11.61 11.61 0 0 1-4.63 1.06c-5.43.11-9.6-3.54-9.6-3.54-3.09-2.38-4.55-4.38-7.09-5.42-.52-.21-.96-.31-1.34-.34-.11 0-.23-.02-.37-.02h-.12-.11c-.14 0-.26.02-.37.03-.38.05-.82.17-1.32.4-2.5 1.14-3.88 3.2-6.87 5.7 0 0-4.02 3.81-9.45 3.92a11.46 11.46 0 0 1-4.66-.88l-.88-.35c-3.21-1.22-5.56-4.22-5.81-7.81l.02 1.02c.07 3.8 2.48 7 5.83 8.27.3.11.59.23.88.35 1.62.66 3.2.9 4.66.88 5.43-.11 9.45-3.92 9.45-3.92 3-2.5 4.38-4.55 6.87-5.7.51-.23.95-.35 1.32-.4.11-.01.23-.03.37-.03h.11.12a3.93 3.93 0 0 1 .37.02c.38.04.82.13 1.34.34 2.54 1.04 4 3.04 7.09 5.42 0 0 4.17 3.65 9.6 3.54a11.61 11.61 0 0 0 4.63-1.06l.87-.39c3.29-1.4 5.57-4.7 5.5-8.49l-.03-1.57z" class="BC"/><path d="M124.13 93.69l-.95-.34-.09-.04-.79-.31c-1.69-.64-3.14-1.76-4.2-3.23a9.15 9.15 0 0 1-1.71-5.15l-.21-10.45a6.28 6.28 0 0 1 1.76-4.5c1.17-1.22 2.74-1.9 4.43-1.94l46.63-.92a6.33 6.33 0 0 1 6.44 6.19l.21 10.45c.04 1.86-.48 3.67-1.51 5.22-1 1.51-2.4 2.69-4.06 3.39l-.78.35-.09.04a11.71 11.71 0 0 1-4.67 1.07c-2.83.06-5.31-.92-6.89-1.75-1.67-.87-2.72-1.77-2.78-1.83l-2.84-2.4c-1.46-1.31-2.62-2.34-4.22-3a5.11 5.11 0 0 0-1.3-.34c-.09 0-.22-.02-.36-.02h-.1-.02-.1c-.15 0-.27.02-.36.03a4.74 4.74 0 0 0-1.29.39c-1.58.72-2.69 1.8-4.1 3.17l-2.74 2.51c-.06.06-1.08 1-2.71 1.93-1.55.89-3.99 1.96-6.82 2.02-1.28.03-2.54-.16-3.76-.54zm44.88-26.77v.12l-46.63.92c-1.62.03-3.13.69-4.26 1.86a6.02 6.02 0 0 0-1.69 4.33l.21 10.45c.07 3.66 2.33 6.86 5.75 8.16l.79.32.09.04a11.53 11.53 0 0 0 4.62.87c2.78-.05 5.18-1.11 6.7-1.98 1.65-.95 2.65-1.89 2.66-1.9h0l2.73-2.51c1.43-1.38 2.55-2.47 4.17-3.21.46-.21.91-.35 1.36-.41l.38-.04h.11.02.11c.15 0 .29.01.38.02a4.77 4.77 0 0 1 1.37.35c1.64.67 2.81 1.72 4.29 3.04l2.83 2.39h0s1.05.92 2.74 1.8c1.56.81 3.99 1.77 6.77 1.71 1.58-.03 3.12-.38 4.58-1.05l.09-.04.78-.35a8.85 8.85 0 0 0 5.42-8.38l-.21-10.45c-.07-3.35-2.84-6.02-6.19-5.95v-.12zM125.18 89.7c-2.08-.65-4.56-2.11-4.73-5.16l-.21-10.46c-.01-.6.21-1.17.63-1.6s.98-.68 1.58-.69l46.63-.92c.6-.01 1.17.21 1.6.63s.68.98.69 1.58l.21 10.45c0 1.32-.34 2.44-.99 3.34-.54.74-1.29 1.33-2.24 1.77-1.11.51-2.45.79-3.9.82-1.03.02-2.02-.17-2.91-.45-2.28-.72-3.92-2.05-4.01-2.13h0l-.06-.06-.12-.09-2.61-2.21c-1.61-1.44-3.14-2.81-5.39-3.73a8.74 8.74 0 0 0-2.45-.62h-.05c-.15-.02-.38-.03-.66-.04h-.03-.2-.04-.19-.03l-.65.06H145c-.81.12-1.63.36-2.42.72-2.21 1.01-3.68 2.43-5.24 3.94l-2.52 2.31h0l-.08.06-.1.1c-.13.11-3.14 2.77-6.82 2.85-.42 0-1.46-.1-2.63-.47zm43.91-18.6l-46.63.92c-.54.01-1.04.23-1.41.62s-.57.9-.56 1.43l.21 10.45c.13 2.4 1.81 3.72 3.2 4.41 1.58.78 3.32 1.01 3.91 1 3.58-.07 6.51-2.65 6.66-2.78l.11-.11.08-.06 2.51-2.3c1.57-1.52 3.05-2.96 5.31-3.99.82-.37 1.65-.62 2.49-.74h.05c.15-.03.39-.05.67-.07h.03.2.05.21.03l.67.03h.05a9.25 9.25 0 0 1 2.52.64c2.29.94 3.83 2.32 5.46 3.77l2.6 2.2.14.1.06.06c.16.13 3.2 2.59 6.77 2.52 1.61-.03 6.88-.54 6.89-5.68l-.21-10.45c-.01-.54-.23-1.04-.62-1.41s-.9-.57-1.43-.56h0z" class="BD"/><g stroke="#821509"><ellipse cx="147.07" cy="101.76" rx="5.36" ry="5.49" fill="#fb5404" stroke-width=".5"/><ellipse cx="146.88" cy="101.76" rx="2.6" ry="2.67" fill="#ae58ad" stroke-width=".25"/></g><path d="M146.07 99.55c-.57-.08-14.11-1.8-20.56 3.79-2.91 2.53-4.5 7.25-2.49 11.89 1.16-1.17 2.77-2.01 4.82-2.29-.82-2.78.29-5.36 1.61-6.5 3.72-3.22 12.64-2.86 15.77-2.45 1.49.2 2.87-.64 3.11-1.86s-.78-2.37-2.26-2.57z" fill="url(#F)"/><path d="M145.71 99.5a.76.76 0 0 0 .1.18c.06.12.13.29.19.51.04.11.05.23.07.35.01.13.05.26.04.4v.43c0 .15-.04.29-.07.44l-.1.43c-.04.14-.12.27-.17.4l-.18.37c-.05.12-.14.22-.21.31-.28.38-.5.6-.5.6s.09-.29.27-.69c.04-.1.11-.2.13-.32l.11-.37.13-.39.08-.41c.03-.14.08-.27.08-.41s.03-.27.05-.4.01-.26.02-.38c0-.12.02-.24.01-.34l-.02-.52c0-.13-.02-.2-.02-.2zm-3.1-.23s.18.26.31.68a1.69 1.69 0 0 1 .09.34l.08.39c.02.27.06.56.03.86l-.05.43c0 .14-.06.28-.09.41l-.12.38-.06.18-.09.16-.4.65s.04-.29.15-.7c.03-.1.05-.21.06-.33l.05-.37c.06-.26.05-.54.08-.81a1.89 1.89 0 0 0 .01-.41v-.4l-.03-.72-.04-.51c0-.13-.02-.2-.02-.2zm-3.19-.02s.19.25.35.67c.08.21.16.46.21.73a4.82 4.82 0 0 1 .09.86c-.01.15 0 .3-.03.44-.02.15-.04.29-.08.42-.03.14-.07.27-.12.39s-.09.24-.15.34c-.11.2-.22.36-.32.47l-.14.16.06-.19.08-.22.07-.28c.04-.1.04-.22.07-.34s.04-.24.06-.37c.03-.13.02-.26.04-.4s0-.28.01-.42l-.03-.82-.07-.72-.09-.72zm-3.77.27s.27.2.54.59c.07.09.13.2.2.32l.18.37c.12.26.19.56.24.85l.04.44-.02.43c-.01.14-.04.27-.07.4-.02.13-.07.24-.1.35-.06.21-.16.38-.22.5l-.1.18s0-.07.01-.2c0-.06.02-.14.03-.23.02-.09.01-.19.02-.29 0-.11.02-.22.02-.34v-.38c0-.26-.02-.54-.06-.82l-.07-.41-.1-.4c-.07-.26-.15-.49-.23-.7l-.3-.68zm-3.96.76s.34.12.74.43a3.29 3.29 0 0 1 .31.26c.1.1.21.2.3.32l.28.37c.09.13.16.27.24.41.07.14.12.29.17.43s.08.29.11.43.04.28.05.4c.02.13 0 .25 0 .36 0 .22-.04.41-.07.54l-.05.2s-.02-.07-.04-.2l-.04-.23c0-.09-.04-.19-.06-.29-.03-.11-.04-.22-.08-.34l-.11-.37-.32-.78c-.07-.13-.12-.26-.2-.38-.07-.12-.14-.25-.23-.36-.15-.23-.32-.44-.47-.62-.3-.35-.54-.57-.54-.57zm-3.93 1.52s.38 0 .9.17a2.75 2.75 0 0 1 .41.17c.14.07.29.14.42.24.29.18.54.41.77.66l.3.39c.08.14.17.27.23.41l.17.39.1.36c.07.22.06.42.08.55v.21l-.1-.19c-.06-.12-.12-.3-.24-.5l-.16-.33-.21-.35c-.07-.12-.17-.24-.25-.36s-.19-.24-.28-.36l-.32-.33c-.12-.1-.22-.21-.35-.3-.23-.19-.48-.34-.69-.46-.44-.24-.78-.36-.78-.36zm-3.13 2.4s.36-.08.92-.03c.28.01.6.07.93.15.16.05.34.09.5.16a5.32 5.32 0 0 1 .5.21l.46.26c.15.09.27.2.4.3s.23.21.33.31c.11.1.18.21.25.3l.19.27c.05.08.08.16.12.22l.09.19s-.06-.06-.17-.15l-.18-.18c-.07-.07-.16-.14-.25-.22l-.3-.25-.35-.26-.39-.25c-.14-.08-.28-.17-.43-.23-.29-.16-.6-.27-.9-.38l-.84-.25-.87-.18zm-1.89 3.19s.33-.13.86-.19c.53-.08 1.27-.08 1.98.04l.52.11c.17.03.33.1.49.15s.3.12.44.18a2.55 2.55 0 0 1 .37.19c.23.12.4.25.51.34l.18.14-.23-.08-.58-.21-.39-.12-.44-.12-.97-.21c-.33-.07-.67-.1-.99-.14l-.88-.06-.88-.02zm-.65 3.81s.04-.07.13-.18c.1-.11.25-.26.48-.41.12-.07.24-.15.39-.21.14-.07.31-.13.48-.17a3.15 3.15 0 0 1 .55-.11c.19-.01.38-.05.58-.04a5.06 5.06 0 0 1 1.12.12c.35.07.66.17.91.27.26.09.45.21.59.28l.22.12-.25-.05-.65-.14-.43-.08c-.15-.03-.31-.04-.48-.07-.16-.03-.34-.03-.51-.05s-.35-.02-.52-.02c-.18-.01-.35.02-.52.02l-.49.07-.45.11a3.54 3.54 0 0 0-.39.14c-.48.2-.75.41-.75.41zm1.58 2.71c.12-.08.24-.17.38-.24.13-.09.29-.14.43-.22.15-.07.32-.12.48-.18l.5-.13c.17-.02.34-.08.5-.09l.48-.06.44-.02c.27-.02.49 0 .65-.01l.21-.03c-.04-.01-.1-.03-.17-.04-.16-.03-.39-.11-.67-.13-.14-.02-.3-.03-.46-.04h-.52c-.18 0-.37.04-.56.06-.19.03-.38.09-.56.13-.36.13-.72.28-1 .48-.15.09-.26.21-.38.31a2.67 2.67 0 0 0-.28.32c-.31.41-.35.73-.35.73s.19-.28.56-.61l.31-.25z" class="Av"/><path d="M119.92,119.54s-4.6.09-7.02-3.2c5.09-.58,7.02,3.2,7.02,3.2Z" fill="#00000b"/><g class="Ar"><path d="M113.78 117.08c1.6 1.25 3.08 1.86 4.18 2.17l1.3-1.93c.46-.64 2.4 2.66 5.71 2.47 3.32-.19 6.77-8.14 3.41-9.37s-2.15 3.39-2.77 3.47-3.75-1.33-3.9-4.67 4.18-3.89 4.82-1.44c.63 2.45 2.41 3.04 3.44 1.56s1.21-5.48-3.56-7.36c-2-.79-4.71.66-4.71.66s1.18-3.05 2.84-6.22c1.67-3.17-.79-3.97-3.38-.6-2.6 3.37-3.04 5.39-3.04 5.39s1.14-5.24 2.39-7.78-.22-4.24-2.97-1.61-3.6 9.42-3.6 9.42-.86-3.14-1.31-5.95-3.13-.32-2.36 3.84 2.36 6.19 1.84 6.82c-.51.63-2.28 6 2.6 8.67.13.07-.94 2.47-.94 2.47z" stroke="#bc986b" stroke-width=".4" class="BE"/><path class="W As" d="M117.23 112.92s.19-.4.3-1.05c.06-.32.09-.71.09-1.12a6.52 6.52 0 0 0-.14-1.29c-.1-.43-.23-.86-.42-1.23-.08-.19-.18-.37-.29-.53-.1-.16-.2-.31-.31-.44a3.37 3.37 0 0 0-.55-.57l-.23-.19.14.26.17.29.19.39c.08.14.14.3.21.46l.2.52c.07.18.12.37.18.57.06.19.1.39.15.6.06.2.08.4.12.6l.08.59.08 1.07.03 1.07zm-6.95-13.79c.77 4.16 2.36 6.19 1.84 6.82-.51.63-2.28 6 2.6 8.67.13.07-.94 2.47-.94 2.47 1.6 1.25 3.08 1.86 4.18 2.17l1.3-1.93c.46-.64 2.4 2.66 5.71 2.47 3.32-.19 6.77-8.14 3.41-9.37s-2.15 3.39-2.77 3.47-3.75-1.33-3.9-4.67 4.18-3.89 4.82-1.44c.63 2.45 2.41 3.04 3.44 1.56s1.21-5.48-3.56-7.36c-2-.79-4.71.66-4.71.66s1.18-3.05 2.84-6.22c1.67-3.17-.79-3.97-3.38-.6-2.6 3.37-3.04 5.39-3.04 5.39s1.14-5.24 2.39-7.78-.22-4.24-2.97-1.61-3.6 9.42-3.6 9.42-.86-3.14-1.31-5.95-3.13-.32-2.36 3.84zm2.3-1.92c.7 3.11 2.07 6.11 2.07 6.11-.03-4.96 4.85-12.76 5.57-12.26s.71 1.18-1.16 4.87c-2.28 4.51-1.42 7.5-1.42 7.5 1.05-4.53 6.03-9.69 6.81-9.24.77.45.63.81-1.54 4.84s-2.04 5.21-2.04 5.21 3.45-2.75 6.43-1.52c2.98 1.24 3.73 5.92 2.26 6.16s-2-1.07-3.24-2.95c-1.25-1.88-4.87-1.35-5.47 2.7-.61 4.05 5.65 7.92 5.37 6.67-.28-1.26.91-4.58 2.21-4.24s1.7 3.22-.52 6.23c-2.85 3.86-6.74.11-7.98-.55-1.25-.65-2.16 2.15-3.51 1.21s.22-2.98-.6-3.56c-4.1-2.9-3.64-6.42-2.78-7.8s.59-1.89.16-2.53c-3.29-4.98-1.31-9.95-.61-6.84z"/></g></g></svg>