<svg width="1024" height="1024" viewBox="0 0 1024 1024" fill="none" xmlns="http://www.w3.org/2000/svg">
<g clip-path="url(#clip0_61_13)">
<path d="M1024 512C1024 229.23 794.77 0 512 0C229.23 0 0 229.23 0 512C0 794.77 229.23 1024 512 1024C794.77 1024 1024 794.77 1024 512Z" fill="#FFCD7C"/>
<g clip-path="url(#clip1_61_13)">
<path d="M512.491 870L216.247 718.745L512.491 573.457V870Z" fill="url(#paint0_linear_61_13)"/>
<path d="M512.491 870L216.247 719.043L512.79 573.457V870H512.491Z" stroke="#726691" stroke-width="0.745833" stroke-miterlimit="10"/>
<path d="M512.486 573.457L808.731 719.64L512.486 870V573.457Z" fill="url(#paint1_linear_61_13)"/>
<path d="M512.486 573.457L808.731 719.64L512.785 870V573.457H512.486Z" stroke="url(#paint2_linear_61_13)" stroke-width="0.745833" stroke-miterlimit="10"/>
<path d="M687.608 488.133L808.731 719.342L512.486 573.158L687.608 488.133Z" fill="url(#paint3_linear_61_13)"/>
<path d="M687.906 488.133L808.731 719.342L512.486 573.457L687.608 487.835L687.906 488.133Z" stroke="#B5A7DB" stroke-width="0.745833" stroke-miterlimit="10"/>
<path d="M337.668 487.537L512.491 573.457L215.948 718.447L337.668 487.537Z" fill="url(#paint4_linear_61_13)"/>
<path d="M337.669 487.537L512.79 573.158L216.247 718.745L337.669 487.537Z" stroke="#8073A3" stroke-width="0.745833" stroke-miterlimit="10"/>
<path d="M512.49 573.457V154.299L337.966 487.835L513.087 573.457H512.49Z" fill="url(#paint5_linear_61_13)"/>
<path d="M512.491 573.457V154L338.264 487.537L513.088 573.457H512.491Z" stroke="#9688BD" stroke-width="0.745833" stroke-miterlimit="10"/>
<path d="M512.486 573.457V154.299L687.608 488.133L512.486 573.457Z" fill="url(#paint6_linear_61_13)"/>
<path d="M512.486 573.457V154L687.906 488.133L512.486 573.158V573.457Z" stroke="#AFA0D8" stroke-width="0.745833" stroke-miterlimit="10"/>
<path d="M512.491 870L216.247 718.745L512.491 573.457V870Z" fill="url(#paint7_linear_61_13)"/>
<path d="M512.491 870L216.247 719.043L512.79 573.457V870H512.491Z" stroke="#726691" stroke-width="0.745833" stroke-miterlimit="10"/>
<path d="M512.486 573.457L808.731 719.64L512.486 870V573.457Z" fill="url(#paint8_linear_61_13)"/>
<path d="M512.486 573.457L808.731 719.64L512.785 870V573.457H512.486Z" stroke="url(#paint9_linear_61_13)" stroke-width="0.745833" stroke-miterlimit="10"/>
<path d="M687.608 488.133L808.731 719.342L512.486 573.158L687.608 488.133Z" fill="url(#paint10_linear_61_13)"/>
<path d="M687.906 488.133L808.731 719.342L512.486 573.457L687.608 487.835L687.906 488.133Z" stroke="#B5A7DB" stroke-width="0.745833" stroke-miterlimit="10"/>
<path d="M337.668 487.537L512.491 573.457L215.948 718.447L337.668 487.537Z" fill="url(#paint11_linear_61_13)"/>
<path d="M337.669 487.537L512.79 573.158L216.247 718.745L337.669 487.537Z" stroke="#8073A3" stroke-width="0.745833" stroke-miterlimit="10"/>
<path d="M512.49 573.457V154.299L337.966 487.835L513.087 573.457H512.49Z" fill="url(#paint12_linear_61_13)"/>
<path d="M512.491 573.457V154L338.264 487.537L513.088 573.457H512.491Z" stroke="#9688BD" stroke-width="0.745833" stroke-miterlimit="10"/>
<path d="M512.486 573.457V154.299L687.608 488.133L512.486 573.457Z" fill="url(#paint13_linear_61_13)"/>
<path d="M512.486 573.457V154L687.906 488.133L512.486 573.158V573.457Z" stroke="#AFA0D8" stroke-width="0.745833" stroke-miterlimit="10"/>
<path d="M512.491 870L216.247 718.745L512.491 573.457V870Z" fill="url(#paint14_linear_61_13)"/>
<path d="M512.491 870L216.247 719.043L512.79 573.457V870H512.491Z" stroke="#726691" stroke-width="0.745833" stroke-miterlimit="10"/>
<path d="M512.486 573.457L808.731 719.64L512.486 870V573.457Z" fill="url(#paint15_linear_61_13)"/>
<path d="M512.486 573.457L808.731 719.64L512.785 870V573.457H512.486Z" stroke="url(#paint16_linear_61_13)" stroke-width="0.745833" stroke-miterlimit="10"/>
<path d="M687.608 488.133L808.731 719.342L512.486 573.158L687.608 488.133Z" fill="url(#paint17_linear_61_13)"/>
<path d="M687.906 488.133L808.731 719.342L512.486 573.457L687.608 487.835L687.906 488.133Z" stroke="#B5A7DB" stroke-width="0.745833" stroke-miterlimit="10"/>
<path d="M337.668 487.537L512.491 573.457L215.948 718.447L337.668 487.537Z" fill="url(#paint18_linear_61_13)"/>
<path d="M337.669 487.537L512.79 573.158L216.247 718.745L337.669 487.537Z" stroke="#8073A3" stroke-width="0.745833" stroke-miterlimit="10"/>
<path d="M512.49 573.457V154.299L337.966 487.835L513.087 573.457H512.49Z" fill="url(#paint19_linear_61_13)"/>
<path d="M512.491 573.457V154L338.264 487.537L513.088 573.457H512.491Z" stroke="#9688BD" stroke-width="0.745833" stroke-miterlimit="10"/>
<path d="M512.486 573.457V154.299L687.608 488.133L512.486 573.457Z" fill="url(#paint20_linear_61_13)"/>
<path d="M512.486 573.457V154L687.906 488.133L512.486 573.158V573.457Z" stroke="#AFA0D8" stroke-width="0.745833" stroke-miterlimit="10"/>
<path d="M512.491 870L216.247 718.745L512.491 573.457V870Z" fill="url(#paint21_linear_61_13)"/>
<path d="M512.491 870L216.247 719.043L512.79 573.457V870H512.491Z" stroke="#726691" stroke-width="0.745833" stroke-miterlimit="10"/>
<path d="M512.486 573.457L808.731 719.64L512.486 870V573.457Z" fill="url(#paint22_linear_61_13)"/>
<path d="M512.486 573.457L808.731 719.64L512.785 870V573.457H512.486Z" stroke="url(#paint23_linear_61_13)" stroke-width="0.745833" stroke-miterlimit="10"/>
<path d="M687.608 488.133L808.731 719.342L512.486 573.158L687.608 488.133Z" fill="url(#paint24_linear_61_13)"/>
<path d="M687.906 488.133L808.731 719.342L512.486 573.457L687.608 487.835L687.906 488.133Z" stroke="#B5A7DB" stroke-width="0.745833" stroke-miterlimit="10"/>
<path d="M337.668 487.537L512.491 573.457L215.948 718.447L337.668 487.537Z" fill="url(#paint25_linear_61_13)"/>
<path d="M337.669 487.537L512.79 573.158L216.247 718.745L337.669 487.537Z" stroke="#8073A3" stroke-width="0.745833" stroke-miterlimit="10"/>
<path d="M512.49 573.457V154.299L337.966 487.835L513.087 573.457H512.49Z" fill="url(#paint26_linear_61_13)"/>
<path d="M512.491 573.457V154L338.264 487.537L513.088 573.457H512.491Z" stroke="#9688BD" stroke-width="0.745833" stroke-miterlimit="10"/>
<path d="M512.486 573.457V154.299L687.608 488.133L512.486 573.457Z" fill="url(#paint27_linear_61_13)"/>
<path d="M512.486 573.457V154L687.906 488.133L512.486 573.158V573.457Z" stroke="#AFA0D8" stroke-width="0.745833" stroke-miterlimit="10"/>
</g>
<g style="mix-blend-mode:soft-light" opacity="0.25">
<path d="M1024 512C1024 229.23 794.77 0 512 0C229.23 0 0 229.23 0 512C0 794.77 229.23 1024 512 1024C794.77 1024 1024 794.77 1024 512Z" fill="url(#paint28_linear_61_13)"/>
</g>
</g>
<defs>
<linearGradient id="paint0_linear_61_13" x1="280.389" y1="619.102" x2="583.196" y2="771.55" gradientUnits="userSpaceOnUse">
<stop stop-color="#8175A5"/>
<stop offset="1" stop-color="#63577F"/>
</linearGradient>
<linearGradient id="paint1_linear_61_13" x1="510.1" y1="899.535" x2="730.27" y2="577.037" gradientUnits="userSpaceOnUse">
<stop stop-color="#655981"/>
<stop offset="0.2" stop-color="#73628C"/>
<stop offset="1" stop-color="#B3A5DA"/>
</linearGradient>
<linearGradient id="paint2_linear_61_13" x1="512.785" y1="-2437.92" x2="809.03" y2="-2437.92" gradientUnits="userSpaceOnUse">
<stop stop-color="#73628C"/>
<stop offset="0.6" stop-color="#B3A5DA"/>
<stop offset="1" stop-color="#B3A5DA"/>
</linearGradient>
<linearGradient id="paint3_linear_61_13" x1="640.77" y1="641.775" x2="871.978" y2="386.7" gradientUnits="userSpaceOnUse">
<stop stop-color="#AFA0D8"/>
<stop offset="1" stop-color="#CEC6E6"/>
</linearGradient>
<linearGradient id="paint4_linear_61_13" x1="365.711" y1="630.14" x2="398.23" y2="532.287" gradientUnits="userSpaceOnUse">
<stop stop-color="#887BAE"/>
<stop offset="1" stop-color="#796D9B"/>
</linearGradient>
<linearGradient id="paint5_linear_61_13" x1="552.467" y1="363.728" x2="398.825" y2="363.728" gradientUnits="userSpaceOnUse">
<stop stop-color="#AFA0D8"/>
<stop offset="1" stop-color="#887BAE"/>
</linearGradient>
<linearGradient id="paint6_linear_61_13" x1="562.308" y1="412.058" x2="670.901" y2="514.983" gradientUnits="userSpaceOnUse">
<stop stop-color="#AFA0D8"/>
<stop offset="1" stop-color="#CEC6E6"/>
</linearGradient>
<linearGradient id="paint7_linear_61_13" x1="280.389" y1="619.102" x2="583.196" y2="771.55" gradientUnits="userSpaceOnUse">
<stop stop-color="#8175A5"/>
<stop offset="1" stop-color="#63577F"/>
</linearGradient>
<linearGradient id="paint8_linear_61_13" x1="510.1" y1="899.535" x2="730.27" y2="577.037" gradientUnits="userSpaceOnUse">
<stop stop-color="#655981"/>
<stop offset="0.2" stop-color="#73628C"/>
<stop offset="1" stop-color="#B3A5DA"/>
</linearGradient>
<linearGradient id="paint9_linear_61_13" x1="512.785" y1="-2437.92" x2="809.03" y2="-2437.92" gradientUnits="userSpaceOnUse">
<stop stop-color="#73628C"/>
<stop offset="0.6" stop-color="#B3A5DA"/>
<stop offset="1" stop-color="#B3A5DA"/>
</linearGradient>
<linearGradient id="paint10_linear_61_13" x1="640.77" y1="641.775" x2="871.978" y2="386.7" gradientUnits="userSpaceOnUse">
<stop stop-color="#AFA0D8"/>
<stop offset="1" stop-color="#CEC6E6"/>
</linearGradient>
<linearGradient id="paint11_linear_61_13" x1="365.711" y1="630.14" x2="398.23" y2="532.287" gradientUnits="userSpaceOnUse">
<stop stop-color="#887BAE"/>
<stop offset="1" stop-color="#796D9B"/>
</linearGradient>
<linearGradient id="paint12_linear_61_13" x1="552.467" y1="363.728" x2="398.825" y2="363.728" gradientUnits="userSpaceOnUse">
<stop stop-color="#AFA0D8"/>
<stop offset="1" stop-color="#887BAE"/>
</linearGradient>
<linearGradient id="paint13_linear_61_13" x1="562.308" y1="412.058" x2="670.901" y2="514.983" gradientUnits="userSpaceOnUse">
<stop stop-color="#AFA0D8"/>
<stop offset="1" stop-color="#CEC6E6"/>
</linearGradient>
<linearGradient id="paint14_linear_61_13" x1="280.389" y1="619.102" x2="583.196" y2="771.55" gradientUnits="userSpaceOnUse">
<stop stop-color="#8175A5"/>
<stop offset="1" stop-color="#63577F"/>
</linearGradient>
<linearGradient id="paint15_linear_61_13" x1="510.1" y1="899.535" x2="730.27" y2="577.037" gradientUnits="userSpaceOnUse">
<stop stop-color="#655981"/>
<stop offset="0.2" stop-color="#73628C"/>
<stop offset="1" stop-color="#B3A5DA"/>
</linearGradient>
<linearGradient id="paint16_linear_61_13" x1="512.785" y1="-2437.92" x2="809.03" y2="-2437.92" gradientUnits="userSpaceOnUse">
<stop stop-color="#73628C"/>
<stop offset="0.6" stop-color="#B3A5DA"/>
<stop offset="1" stop-color="#B3A5DA"/>
</linearGradient>
<linearGradient id="paint17_linear_61_13" x1="640.77" y1="641.775" x2="871.978" y2="386.7" gradientUnits="userSpaceOnUse">
<stop stop-color="#AFA0D8"/>
<stop offset="1" stop-color="#CEC6E6"/>
</linearGradient>
<linearGradient id="paint18_linear_61_13" x1="365.711" y1="630.14" x2="398.23" y2="532.287" gradientUnits="userSpaceOnUse">
<stop stop-color="#887BAE"/>
<stop offset="1" stop-color="#796D9B"/>
</linearGradient>
<linearGradient id="paint19_linear_61_13" x1="552.467" y1="363.728" x2="398.825" y2="363.728" gradientUnits="userSpaceOnUse">
<stop stop-color="#AFA0D8"/>
<stop offset="1" stop-color="#887BAE"/>
</linearGradient>
<linearGradient id="paint20_linear_61_13" x1="562.308" y1="412.058" x2="670.901" y2="514.983" gradientUnits="userSpaceOnUse">
<stop stop-color="#AFA0D8"/>
<stop offset="1" stop-color="#CEC6E6"/>
</linearGradient>
<linearGradient id="paint21_linear_61_13" x1="280.389" y1="619.102" x2="583.196" y2="771.55" gradientUnits="userSpaceOnUse">
<stop stop-color="#8175A5"/>
<stop offset="1" stop-color="#63577F"/>
</linearGradient>
<linearGradient id="paint22_linear_61_13" x1="510.1" y1="899.535" x2="730.27" y2="577.037" gradientUnits="userSpaceOnUse">
<stop stop-color="#655981"/>
<stop offset="0.2" stop-color="#73628C"/>
<stop offset="1" stop-color="#B3A5DA"/>
</linearGradient>
<linearGradient id="paint23_linear_61_13" x1="512.785" y1="-2437.92" x2="809.03" y2="-2437.92" gradientUnits="userSpaceOnUse">
<stop stop-color="#73628C"/>
<stop offset="0.6" stop-color="#B3A5DA"/>
<stop offset="1" stop-color="#B3A5DA"/>
</linearGradient>
<linearGradient id="paint24_linear_61_13" x1="640.77" y1="641.775" x2="871.978" y2="386.7" gradientUnits="userSpaceOnUse">
<stop stop-color="#AFA0D8"/>
<stop offset="1" stop-color="#CEC6E6"/>
</linearGradient>
<linearGradient id="paint25_linear_61_13" x1="365.711" y1="630.14" x2="398.23" y2="532.287" gradientUnits="userSpaceOnUse">
<stop stop-color="#887BAE"/>
<stop offset="1" stop-color="#796D9B"/>
</linearGradient>
<linearGradient id="paint26_linear_61_13" x1="552.467" y1="363.728" x2="398.825" y2="363.728" gradientUnits="userSpaceOnUse">
<stop stop-color="#AFA0D8"/>
<stop offset="1" stop-color="#887BAE"/>
</linearGradient>
<linearGradient id="paint27_linear_61_13" x1="562.308" y1="412.058" x2="670.901" y2="514.983" gradientUnits="userSpaceOnUse">
<stop stop-color="#AFA0D8"/>
<stop offset="1" stop-color="#CEC6E6"/>
</linearGradient>
<linearGradient id="paint28_linear_61_13" x1="512" y1="0" x2="512" y2="1024" gradientUnits="userSpaceOnUse">
<stop stop-color="white"/>
<stop offset="0.0666667" stop-color="#FDFDFD"/>
<stop offset="0.133333" stop-color="#F6F6F6"/>
<stop offset="0.2" stop-color="#EAEAEA"/>
<stop offset="0.266667" stop-color="#D9D9D9"/>
<stop offset="0.333333" stop-color="#C4C4C4"/>
<stop offset="0.4" stop-color="#AAAAAA"/>
<stop offset="0.466667" stop-color="#8E8E8E"/>
<stop offset="0.533333" stop-color="#717171"/>
<stop offset="0.6" stop-color="#555555"/>
<stop offset="0.666667" stop-color="#3B3B3B"/>
<stop offset="0.733333" stop-color="#262626"/>
<stop offset="0.8" stop-color="#151515"/>
<stop offset="0.866667" stop-color="#090909"/>
<stop offset="0.933333" stop-color="#020202"/>
<stop offset="1"/>
</linearGradient>
<clipPath id="clip0_61_13">
<rect width="1024" height="1024" fill="white"/>
</clipPath>
<clipPath id="clip1_61_13">
<rect width="596.667" height="716" fill="white" transform="translate(214 154)"/>
</clipPath>
</defs>
</svg>
