<svg width="40" height="40" viewBox="0 0 40 40" fill="none" xmlns="http://www.w3.org/2000/svg">
<g clip-path="url(#clip0_61_133)">
<path d="M40 20C40 8.9543 31.0457 0 20 0C8.9543 0 0 8.9543 0 20C0 31.0457 8.9543 40 20 40C31.0457 40 40 31.0457 40 20Z" fill="#F7BD00"/>
<path d="M39.875 20C39.875 9.02334 30.9767 0.125 20 0.125C9.02334 0.125 0.125 9.02334 0.125 20C0.125 30.9767 9.02334 39.875 20 39.875C30.9767 39.875 39.875 30.9767 39.875 20Z" stroke="black" stroke-opacity="0.1" stroke-width="0.25"/>
<g clip-path="url(#clip1_61_133)">
<path d="M20.6729 34L9.08787 28.085L20.6729 22.4033V34Z" fill="url(#paint0_linear_61_133)"/>
<path d="M20.6729 34L9.08787 28.0967L20.6845 22.4033V34H20.6729Z" stroke="#846EBE" stroke-width="0.0291667" stroke-miterlimit="10"/>
<path d="M20.6727 22.4033L32.2577 28.12L20.6727 34V22.4033Z" fill="url(#paint1_linear_61_133)"/>
<path d="M20.6727 22.4033L32.2577 28.12L20.6843 34V22.4033H20.6727Z" stroke="url(#paint2_linear_61_133)" stroke-width="0.0291667" stroke-miterlimit="10"/>
<path d="M27.521 19.0667L32.2577 28.1083L20.6727 22.3917L27.521 19.0667Z" fill="url(#paint3_linear_61_133)"/>
<path d="M27.5327 19.0667L32.2577 28.1083L20.6727 22.4033L27.521 19.055L27.5327 19.0667Z" stroke="#BCA3FF" stroke-width="0.0291667" stroke-miterlimit="10"/>
<path d="M13.8362 19.0433L20.6729 22.4033L9.07619 28.0733L13.8362 19.0433Z" fill="url(#paint4_linear_61_133)"/>
<path d="M13.8362 19.0433L20.6845 22.3917L9.08787 28.085L13.8362 19.0433Z" stroke="#8C71D4" stroke-width="0.0291667" stroke-miterlimit="10"/>
<path d="M20.6728 22.4033V6.01168L13.8478 19.055L20.6961 22.4033H20.6728Z" fill="url(#paint5_linear_61_133)"/>
<path d="M20.6729 22.4033V6L13.8595 19.0433L20.6962 22.4033H20.6729Z" stroke="#9F87E5" stroke-width="0.0291667" stroke-miterlimit="10"/>
<path d="M20.6727 22.4033V6.01168L27.521 19.0667L20.6727 22.4033Z" fill="url(#paint6_linear_61_133)"/>
<path d="M20.6727 22.4033V6L27.5327 19.0667L20.6727 22.3917V22.4033Z" stroke="#B9A0FF" stroke-width="0.0291667" stroke-miterlimit="10"/>
<path d="M20.6729 34L9.08787 28.085L20.6729 22.4033V34Z" fill="url(#paint7_linear_61_133)"/>
<path d="M20.6729 34L9.08787 28.0967L20.6845 22.4033V34H20.6729Z" stroke="#846EBE" stroke-width="0.0291667" stroke-miterlimit="10"/>
<path d="M20.6727 22.4033L32.2577 28.12L20.6727 34V22.4033Z" fill="url(#paint8_linear_61_133)"/>
<path d="M20.6727 22.4033L32.2577 28.12L20.6843 34V22.4033H20.6727Z" stroke="url(#paint9_linear_61_133)" stroke-width="0.0291667" stroke-miterlimit="10"/>
<path d="M27.521 19.0667L32.2577 28.1083L20.6727 22.3917L27.521 19.0667Z" fill="url(#paint10_linear_61_133)"/>
<path d="M27.5327 19.0667L32.2577 28.1083L20.6727 22.4033L27.521 19.055L27.5327 19.0667Z" stroke="#BCA3FF" stroke-width="0.0291667" stroke-miterlimit="10"/>
<path d="M13.8362 19.0433L20.6729 22.4033L9.07619 28.0733L13.8362 19.0433Z" fill="url(#paint11_linear_61_133)"/>
<path d="M13.8362 19.0433L20.6845 22.3917L9.08787 28.085L13.8362 19.0433Z" stroke="#8C71D4" stroke-width="0.0291667" stroke-miterlimit="10"/>
<path d="M20.6728 22.4033V6.01168L13.8478 19.055L20.6961 22.4033H20.6728Z" fill="url(#paint12_linear_61_133)"/>
<path d="M20.6729 22.4033V6L13.8595 19.0433L20.6962 22.4033H20.6729Z" stroke="#9F87E5" stroke-width="0.0291667" stroke-miterlimit="10"/>
<path d="M20.6727 22.4033V6.01168L27.521 19.0667L20.6727 22.4033Z" fill="url(#paint13_linear_61_133)"/>
<path d="M20.6727 22.4033V6L27.5327 19.0667L20.6727 22.3917V22.4033Z" stroke="#B9A0FF" stroke-width="0.0291667" stroke-miterlimit="10"/>
<path d="M20.6729 34L9.08787 28.085L20.6729 22.4033V34Z" fill="url(#paint14_linear_61_133)"/>
<path d="M20.6729 34L9.08787 28.0967L20.6845 22.4033V34H20.6729Z" stroke="#846EBE" stroke-width="0.0291667" stroke-miterlimit="10"/>
<path d="M20.6727 22.4033L32.2577 28.12L20.6727 34V22.4033Z" fill="url(#paint15_linear_61_133)"/>
<path d="M20.6727 22.4033L32.2577 28.12L20.6843 34V22.4033H20.6727Z" stroke="url(#paint16_linear_61_133)" stroke-width="0.0291667" stroke-miterlimit="10"/>
<path d="M27.521 19.0667L32.2577 28.1083L20.6727 22.3917L27.521 19.0667Z" fill="url(#paint17_linear_61_133)"/>
<path d="M27.5327 19.0667L32.2577 28.1083L20.6727 22.4033L27.521 19.055L27.5327 19.0667Z" stroke="#BCA3FF" stroke-width="0.0291667" stroke-miterlimit="10"/>
<path d="M13.8362 19.0433L20.6729 22.4033L9.07619 28.0733L13.8362 19.0433Z" fill="url(#paint18_linear_61_133)"/>
<path d="M13.8362 19.0433L20.6845 22.3917L9.08787 28.085L13.8362 19.0433Z" stroke="#8C71D4" stroke-width="0.0291667" stroke-miterlimit="10"/>
<path d="M20.6728 22.4033V6.01168L13.8478 19.055L20.6961 22.4033H20.6728Z" fill="url(#paint19_linear_61_133)"/>
<path d="M20.6729 22.4033V6L13.8595 19.0433L20.6962 22.4033H20.6729Z" stroke="#9F87E5" stroke-width="0.0291667" stroke-miterlimit="10"/>
<path d="M20.6727 22.4033V6.01168L27.521 19.0667L20.6727 22.4033Z" fill="url(#paint20_linear_61_133)"/>
<path d="M20.6727 22.4033V6L27.5327 19.0667L20.6727 22.3917V22.4033Z" stroke="#B9A0FF" stroke-width="0.0291667" stroke-miterlimit="10"/>
<path d="M20.6729 34L9.08787 28.085L20.6729 22.4033V34Z" fill="url(#paint21_linear_61_133)"/>
<path d="M20.6729 34L9.08787 28.0967L20.6845 22.4033V34H20.6729Z" stroke="#846EBE" stroke-width="0.0291667" stroke-miterlimit="10"/>
<path d="M20.6727 22.4033L32.2577 28.12L20.6727 34V22.4033Z" fill="url(#paint22_linear_61_133)"/>
<path d="M20.6727 22.4033L32.2577 28.12L20.6843 34V22.4033H20.6727Z" stroke="url(#paint23_linear_61_133)" stroke-width="0.0291667" stroke-miterlimit="10"/>
<path d="M27.521 19.0667L32.2577 28.1083L20.6727 22.3917L27.521 19.0667Z" fill="url(#paint24_linear_61_133)"/>
<path d="M27.5327 19.0667L32.2577 28.1083L20.6727 22.4033L27.521 19.055L27.5327 19.0667Z" stroke="#BCA3FF" stroke-width="0.0291667" stroke-miterlimit="10"/>
<path d="M13.8362 19.0433L20.6729 22.4033L9.07619 28.0733L13.8362 19.0433Z" fill="url(#paint25_linear_61_133)"/>
<path d="M13.8362 19.0433L20.6845 22.3917L9.08787 28.085L13.8362 19.0433Z" stroke="#8C71D4" stroke-width="0.0291667" stroke-miterlimit="10"/>
<path d="M20.6728 22.4033V6.01168L13.8478 19.055L20.6961 22.4033H20.6728Z" fill="url(#paint26_linear_61_133)"/>
<path d="M20.6729 22.4033V6L13.8595 19.0433L20.6962 22.4033H20.6729Z" stroke="#9F87E5" stroke-width="0.0291667" stroke-miterlimit="10"/>
<path d="M20.6727 22.4033V6.01168L27.521 19.0667L20.6727 22.4033Z" fill="url(#paint27_linear_61_133)"/>
<path d="M20.6727 22.4033V6L27.5327 19.0667L20.6727 22.3917V22.4033Z" stroke="#B9A0FF" stroke-width="0.0291667" stroke-miterlimit="10"/>
</g>
<g style="mix-blend-mode:soft-light" opacity="0.25">
<path d="M40 20C40 8.9543 31.0457 0 20 0C8.9543 0 0 8.9543 0 20C0 31.0457 8.9543 40 20 40C31.0457 40 40 31.0457 40 20Z" fill="url(#paint28_linear_61_133)"/>
</g>
</g>
<defs>
<linearGradient id="paint0_linear_61_133" x1="11.5962" y1="24.1883" x2="23.4379" y2="30.15" gradientUnits="userSpaceOnUse">
<stop stop-color="#B9A8EB"/>
<stop offset="1" stop-color="#8359E3"/>
</linearGradient>
<linearGradient id="paint1_linear_61_133" x1="20.5793" y1="35.155" x2="29.1893" y2="22.5433" gradientUnits="userSpaceOnUse">
<stop stop-color="#A68AE5"/>
<stop offset="0.2" stop-color="#9267D1"/>
<stop offset="1" stop-color="#6F4BD4"/>
</linearGradient>
<linearGradient id="paint2_linear_61_133" x1="20.6843" y1="-95.36" x2="32.2693" y2="-95.36" gradientUnits="userSpaceOnUse">
<stop stop-color="#7928F0"/>
<stop offset="0.6" stop-color="#6D42E5"/>
<stop offset="1" stop-color="#CEBCFF"/>
</linearGradient>
<linearGradient id="paint3_linear_61_133" x1="25.6893" y1="25.075" x2="34.731" y2="15.1" gradientUnits="userSpaceOnUse">
<stop stop-color="#9074DB"/>
<stop offset="1" stop-color="#EDE6FF"/>
</linearGradient>
<linearGradient id="paint4_linear_61_133" x1="14.9329" y1="24.62" x2="16.2045" y2="20.7933" gradientUnits="userSpaceOnUse">
<stop stop-color="#7D62C9"/>
<stop offset="1" stop-color="#9E7EF9"/>
</linearGradient>
<linearGradient id="paint5_linear_61_133" x1="22.2361" y1="14.2017" x2="16.2278" y2="14.2017" gradientUnits="userSpaceOnUse">
<stop stop-color="#52437C"/>
<stop offset="1" stop-color="#7855DD"/>
</linearGradient>
<linearGradient id="paint6_linear_61_133" x1="22.621" y1="16.0917" x2="26.8677" y2="20.1167" gradientUnits="userSpaceOnUse">
<stop stop-color="#BAA0FF"/>
<stop offset="1" stop-color="#D2C3FF"/>
</linearGradient>
<linearGradient id="paint7_linear_61_133" x1="11.5962" y1="24.1883" x2="23.4379" y2="30.15" gradientUnits="userSpaceOnUse">
<stop stop-color="#B9A8EB"/>
<stop offset="1" stop-color="#8359E3"/>
</linearGradient>
<linearGradient id="paint8_linear_61_133" x1="20.5793" y1="35.155" x2="29.1893" y2="22.5433" gradientUnits="userSpaceOnUse">
<stop stop-color="#A68AE5"/>
<stop offset="0.2" stop-color="#9267D1"/>
<stop offset="1" stop-color="#6F4BD4"/>
</linearGradient>
<linearGradient id="paint9_linear_61_133" x1="20.6843" y1="-95.36" x2="32.2693" y2="-95.36" gradientUnits="userSpaceOnUse">
<stop stop-color="#7928F0"/>
<stop offset="0.6" stop-color="#6D42E5"/>
<stop offset="1" stop-color="#CEBCFF"/>
</linearGradient>
<linearGradient id="paint10_linear_61_133" x1="25.6893" y1="25.075" x2="34.731" y2="15.1" gradientUnits="userSpaceOnUse">
<stop stop-color="#9074DB"/>
<stop offset="1" stop-color="#EDE6FF"/>
</linearGradient>
<linearGradient id="paint11_linear_61_133" x1="14.9329" y1="24.62" x2="16.2045" y2="20.7933" gradientUnits="userSpaceOnUse">
<stop stop-color="#7D62C9"/>
<stop offset="1" stop-color="#9E7EF9"/>
</linearGradient>
<linearGradient id="paint12_linear_61_133" x1="22.2361" y1="14.2017" x2="16.2278" y2="14.2017" gradientUnits="userSpaceOnUse">
<stop stop-color="#52437C"/>
<stop offset="1" stop-color="#7855DD"/>
</linearGradient>
<linearGradient id="paint13_linear_61_133" x1="22.621" y1="16.0917" x2="26.8677" y2="20.1167" gradientUnits="userSpaceOnUse">
<stop stop-color="#BAA0FF"/>
<stop offset="1" stop-color="#D2C3FF"/>
</linearGradient>
<linearGradient id="paint14_linear_61_133" x1="11.5962" y1="24.1883" x2="23.4379" y2="30.15" gradientUnits="userSpaceOnUse">
<stop stop-color="#B9A8EB"/>
<stop offset="1" stop-color="#8359E3"/>
</linearGradient>
<linearGradient id="paint15_linear_61_133" x1="20.5793" y1="35.155" x2="29.1893" y2="22.5433" gradientUnits="userSpaceOnUse">
<stop stop-color="#A68AE5"/>
<stop offset="0.2" stop-color="#9267D1"/>
<stop offset="1" stop-color="#6F4BD4"/>
</linearGradient>
<linearGradient id="paint16_linear_61_133" x1="20.6843" y1="-95.36" x2="32.2693" y2="-95.36" gradientUnits="userSpaceOnUse">
<stop stop-color="#7928F0"/>
<stop offset="0.6" stop-color="#6D42E5"/>
<stop offset="1" stop-color="#CEBCFF"/>
</linearGradient>
<linearGradient id="paint17_linear_61_133" x1="25.6893" y1="25.075" x2="34.731" y2="15.1" gradientUnits="userSpaceOnUse">
<stop stop-color="#9074DB"/>
<stop offset="1" stop-color="#EDE6FF"/>
</linearGradient>
<linearGradient id="paint18_linear_61_133" x1="14.9329" y1="24.62" x2="16.2045" y2="20.7933" gradientUnits="userSpaceOnUse">
<stop stop-color="#7D62C9"/>
<stop offset="1" stop-color="#9E7EF9"/>
</linearGradient>
<linearGradient id="paint19_linear_61_133" x1="22.2361" y1="14.2017" x2="16.2278" y2="14.2017" gradientUnits="userSpaceOnUse">
<stop stop-color="#52437C"/>
<stop offset="1" stop-color="#7855DD"/>
</linearGradient>
<linearGradient id="paint20_linear_61_133" x1="22.621" y1="16.0917" x2="26.8677" y2="20.1167" gradientUnits="userSpaceOnUse">
<stop stop-color="#BAA0FF"/>
<stop offset="1" stop-color="#D2C3FF"/>
</linearGradient>
<linearGradient id="paint21_linear_61_133" x1="11.5962" y1="24.1883" x2="23.4379" y2="30.15" gradientUnits="userSpaceOnUse">
<stop stop-color="#B9A8EB"/>
<stop offset="1" stop-color="#8359E3"/>
</linearGradient>
<linearGradient id="paint22_linear_61_133" x1="20.5793" y1="35.155" x2="29.1893" y2="22.5433" gradientUnits="userSpaceOnUse">
<stop stop-color="#A68AE5"/>
<stop offset="0.2" stop-color="#9267D1"/>
<stop offset="1" stop-color="#6F4BD4"/>
</linearGradient>
<linearGradient id="paint23_linear_61_133" x1="20.6843" y1="-95.36" x2="32.2693" y2="-95.36" gradientUnits="userSpaceOnUse">
<stop stop-color="#7928F0"/>
<stop offset="0.6" stop-color="#6D42E5"/>
<stop offset="1" stop-color="#CEBCFF"/>
</linearGradient>
<linearGradient id="paint24_linear_61_133" x1="25.6893" y1="25.075" x2="34.731" y2="15.1" gradientUnits="userSpaceOnUse">
<stop stop-color="#9074DB"/>
<stop offset="1" stop-color="#EDE6FF"/>
</linearGradient>
<linearGradient id="paint25_linear_61_133" x1="14.9329" y1="24.62" x2="16.2045" y2="20.7933" gradientUnits="userSpaceOnUse">
<stop stop-color="#7D62C9"/>
<stop offset="1" stop-color="#9E7EF9"/>
</linearGradient>
<linearGradient id="paint26_linear_61_133" x1="22.2361" y1="14.2017" x2="16.2278" y2="14.2017" gradientUnits="userSpaceOnUse">
<stop stop-color="#52437C"/>
<stop offset="1" stop-color="#7855DD"/>
</linearGradient>
<linearGradient id="paint27_linear_61_133" x1="22.621" y1="16.0917" x2="26.8677" y2="20.1167" gradientUnits="userSpaceOnUse">
<stop stop-color="#BAA0FF"/>
<stop offset="1" stop-color="#D2C3FF"/>
</linearGradient>
<linearGradient id="paint28_linear_61_133" x1="20" y1="0" x2="20" y2="40" gradientUnits="userSpaceOnUse">
<stop stop-color="white"/>
<stop offset="0.0666667" stop-color="#FDFDFD"/>
<stop offset="0.133333" stop-color="#F6F6F6"/>
<stop offset="0.2" stop-color="#EAEAEA"/>
<stop offset="0.266667" stop-color="#D9D9D9"/>
<stop offset="0.333333" stop-color="#C4C4C4"/>
<stop offset="0.4" stop-color="#AAAAAA"/>
<stop offset="0.466667" stop-color="#8E8E8E"/>
<stop offset="0.533333" stop-color="#717171"/>
<stop offset="0.6" stop-color="#555555"/>
<stop offset="0.666667" stop-color="#3B3B3B"/>
<stop offset="0.733333" stop-color="#262626"/>
<stop offset="0.8" stop-color="#151515"/>
<stop offset="0.866667" stop-color="#090909"/>
<stop offset="0.933333" stop-color="#020202"/>
<stop offset="1"/>
</linearGradient>
<clipPath id="clip0_61_133">
<rect width="40" height="40" fill="white"/>
</clipPath>
<clipPath id="clip1_61_133">
<rect width="23.3333" height="28" fill="white" transform="translate(9 6)"/>
</clipPath>
</defs>
</svg>
