<?xml version="1.0" encoding="UTF-8"?>
<svg width="460px" height="492px" viewBox="0 0 460 492" version="1.1" xmlns="http://www.w3.org/2000/svg" xmlns:xlink="http://www.w3.org/1999/xlink">
    <title>MINT</title>
    <g id="Page-1" stroke="none" stroke-width="1" fill="none" fill-rule="evenodd">
        <path d="M428.423903,113.366022 C436.663484,150.094055 442.491989,176.248693 445.909418,191.829938 C453.986843,228.657714 461.046971,258.359736 458.658288,283.446279 C456.077781,310.547403 445.626177,336.264504 431.039552,357.671831 C412.519316,384.852127 385.983132,406.18747 362.127834,414.711873 C333.698606,424.870716 289.925475,435.205798 230.80844,445.717121 L250.512327,398.130688 C271.046629,397.163433 289.766032,393.943195 306.670534,388.469975 C323.575036,382.996755 338.763222,372.12766 352.235093,355.862692 C335.978253,368.759656 320.188143,377.5479 304.864763,382.227423 C289.541384,386.906947 273.340168,388.639915 256.261116,387.426326 C262.993138,372.120954 268.414192,360.401301 272.52428,352.267366 C276.634368,344.133432 283.222424,332.086849 292.288448,316.127619 C315.514955,316.890013 335.163836,313.731985 351.235093,306.653536 C367.306349,299.575087 383.308368,287.758313 399.241151,271.203214 C383.206151,284.641639 366.565048,294.345545 349.317843,300.31493 C332.070638,306.284316 315.055301,308.063851 298.271834,305.653536 C313.070735,282.382344 324.555199,265.140351 332.725224,253.927559 C338.564269,245.913876 350.25838,231.470423 367.807555,210.5972 C368.165139,210.176297 368.110686,209.545478 367.688023,209.189986 C367.282071,208.848549 366.680151,208.883494 366.316437,209.269615 C347.114293,229.680625 334.153798,243.776145 327.436996,251.558101 C318.10179,262.373689 305.064607,279.243778 288.325448,302.168366 C280.742546,289.928979 276.951096,274.729282 276.951096,256.569277 C276.951096,238.409272 280.742546,219.712376 288.325448,200.47859 C275.677582,220.967492 269.73694,241.132232 270.503524,260.97281 C271.270107,280.813389 274.571294,298.179875 280.407087,313.072268 C270.51848,328.641732 263.239423,340.398688 258.569915,348.343136 C253.900407,356.287584 248.425781,366.229055 242.146038,378.167549 C235.845491,370.568502 230.246015,358.112125 225.347609,340.79842 C220.449203,323.484714 219.753983,304.367334 223.26195,283.446279 C216.378565,300.817044 214.624582,319.405537 218,339.211756 C221.375418,359.017975 227.248102,375.770715 235.618053,389.469975 C224.817524,410.605719 216.744433,426.996137 211.398779,438.64123 C206.053125,450.286323 198.434578,468.078926 188.543136,492.019041 L204.613365,413.711873 C200.228331,391.781764 196.834257,375.057287 194.43114,363.538442 C189.721878,340.965558 182.596687,316.196122 182.596687,295.035863 C182.596687,239 211.227488,188.690997 256.261116,159.544324 C266.585072,152.862452 280.571706,146.799273 298.271834,141.818984 C314.343952,137.296769 333.569713,133.780273 354.156777,129.367665 C369.271897,126.127907 394.027605,120.794026 428.423903,113.366022 Z M203.810418,0.761355282 L384.477157,104.574382 L327.218741,117.647404 L255.599299,75.8786882 L94.2282848,169.807927 L94.2282848,360.67613 L191.382334,416.929059 L182.644901,457.897182 L0.212969628,352.647271 L0.212969628,117.647404 L203.810418,0.761355282 Z M203.567389,45.7308278 L39.4826171,140.541684 L39.4826171,329.577427 L71.9658898,348.343136 L71.9658898,157.03872 L233.625541,64.0701354 L203.567389,45.7308278 Z" id="MINT" fill="#3AB54A"></path>
    </g>
</svg>