<?xml version="1.0" encoding="UTF-8"?>
<svg width="2000px" height="2000px" viewBox="0 0 2000 2000" version="1.1" xmlns="http://www.w3.org/2000/svg" xmlns:xlink="http://www.w3.org/1999/xlink">
    <title>pUSDC</title>
    <defs>
        <linearGradient x1="76.2262818%" y1="0.519209642%" x2="23.6511094%" y2="99.5097915%" id="linearGradient-1">
            <stop stop-color="#00EAFF" offset="0%"></stop>
            <stop stop-color="#0080FF" offset="25.2530882%"></stop>
            <stop stop-color="#8000FF" offset="49.7394282%"></stop>
            <stop stop-color="#E619E6" offset="74.9912298%"></stop>
            <stop stop-color="#FF0000" offset="99.9136118%"></stop>
        </linearGradient>
    </defs>
    <g id="Page-1" stroke="none" stroke-width="1" fill="none" fill-rule="evenodd">
        <g id="pUSDC" fill-rule="nonzero">
            <path d="M1000,2000 C1554.17,2000 2000,1554.17 2000,1000 C2000,445.83 1554.17,0 1000,0 C445.83,0 0,445.83 0,1000 C0,1554.17 445.83,2000 1000,2000 Z" id="Oval" fill="url(#linearGradient-1)"></path>
            <path d="M1191.67,312.5 C1195.83,295.83 1212.5,287.5 1229.17,295.83 C1458.33,370.83 1641.67,550 1716.67,787.5 C1841.67,1183.33 1625,1604.17 1229.17,1729.17 C1225,1733.33 1216.67,1733.33 1212.5,1733.33 C1195.83,1729.17 1187.5,1716.67 1187.5,1700 L1187.5,1641.67 C1187.5,1620.83 1195.83,1608.33 1212.5,1600 C1383.33,1537.5 1520.83,1404.17 1583.33,1229.17 C1704.17,908.33 1537.5,545.83 1212.5,429.17 C1200,420.83 1187.5,404.17 1187.5,387.5 L1187.50021,328.260322 C1187.50572,320.521838 1187.65444,316.515556 1191.67,312.5 Z M787.5,291.67 C804.17,295.83 812.5,308.33 812.5,325 L812.5,383.33 C812.5,404.17 804.17,416.67 787.5,425 C616.67,487.5 479.17,620.83 416.67,795.83 C295.83,1116.67 462.5,1479.17 787.5,1595.83 C800,1604.17 812.5,1620.83 812.5,1633.33 L812.499788,1692.57865 C812.49428,1700.30888 812.345556,1704.32407 808.33,1708.33 C804.17,1725 787.5,1733.33 770.83,1725 C537.5,1650 358.33,1470.83 283.33,1237.5 C158.33,841.67 375,420.83 770.83,295.83 C774.822553,291.847021 782.628597,291.677533 786.945702,291.670321 L787.5,291.67 Z M1029.17,508.33 C1050,512.5 1062.5,525 1062.5,541.67 L1062.5,641.67 C1158.33,650 1233.33,720.83 1250,812.5 L1250,816.67 C1250,833.33 1237.5,845.83 1220.83,845.83 L1154.17,845.83 C1141.67,845.83 1129.17,837.5 1125,825 C1104.17,762.5 1062.5,737.5 987.5,737.5 C904.17,737.5 862.5,774.99 862.5,833.33 C862.5,891.67 887.5,925 1012.5,941.67 C1187.5,962.5 1275,1012.5 1275,1158.33 C1275,1270.83 1191.67,1358.33 1066.67,1379.17 L1066.67,1479.17 C1062.5,1500 1050,1512.5 1033.33,1512.5 L970.83,1512.5 C950,1508.33 937.5,1495.83 937.5,1479.17 L937.5,1379.17 C800,1358.33 733.33,1283.33 716.67,1179.17 L716.67,1175 C716.67,1158.33 729.17,1145.83 745.83,1145.83 L816.67,1145.83 C829.17,1145.83 841.67,1154.17 845.83,1170.83 C858.33,1233.33 895.83,1279.17 1004.17,1279.17 C1083.33,1279.17 1141.67,1233.34 1141.67,1166.67 C1141.67,1100 1104.17,1075 987.5,1054.17 C812.5,1033.33 729.17,979.17 729.17,841.67 C729.17,737.5 808.33,654.17 933.33,637.5 L933.33,541.67 C937.5,520.83 950,508.33 966.67,508.33 L1029.17,508.33 Z" id="USDC" fill="#FFFFFF"></path>
        </g>
    </g>
</svg>