<?xml version="1.0" encoding="UTF-8"?>
<svg width="100px" height="100px" viewBox="0 0 100 100" version="1.1" xmlns="http://www.w3.org/2000/svg" xmlns:xlink="http://www.w3.org/1999/xlink">
    <title>TBILL</title>
    <g id="main" stroke="none" stroke-width="1" fill="none" fill-rule="evenodd">
        <g id="TBILL">
            <circle id="Oval" fill="#00CCFF" fill-rule="nonzero" cx="50" cy="50" r="50"></circle>
            <g id="Group" transform="translate(24.000000, 18.000000)" stroke="#FFFFFF" stroke-linecap="round" stroke-linejoin="round" stroke-width="7">
                <polygon id="Path" points="0 0 0 64 6.375 60.8 12.75 64 19.125 60.8 25.5 64 31.875 60.8 38.25 64 44.625 60.8 51 64 51 0 44.625 3.2 38.25 0 31.875 3.2 25.5 0 19.125 3.2 12.75 0 6.375 3.2"></polygon>
                <path d="M38.25,19.2 L19.125,19.2 C15.6041847,19.2 12.75,22.0653776 12.75,25.6 C12.75,29.1346224 15.6041847,32 19.125,32 L31.875,32 C35.3958153,32 38.25,34.8653776 38.25,38.4 C38.25,41.9346224 35.3958153,44.8 31.875,44.8 L12.75,44.8" id="Path"></path>
                <line x1="25.5" y1="48" x2="25.5" y2="16" id="Path"></line>
            </g>
        </g>
    </g>
</svg>