<svg width="40" height="40" viewBox="0 0 40 40" fill="none" xmlns="http://www.w3.org/2000/svg">
<g clip-path="url(#clip0_62_965)">
<path d="M20 40C31.0457 40 40 31.0457 40 20C40 8.95432 31.0457 0 20 0C8.95432 0 0 8.95432 0 20C0 31.0457 8.95432 40 20 40Z" fill="white"/>
<path fill-rule="evenodd" clip-rule="evenodd" d="M20 38.08C29.9853 38.08 38.08 29.9853 38.08 20C38.08 10.0147 29.9853 1.92 20 1.92C10.0147 1.92 1.92 10.0147 1.92 20C1.92 29.9853 10.0147 38.08 20 38.08ZM40 20C40 31.0457 31.0457 40 20 40C8.95432 40 0 31.0457 0 20C0 8.95432 8.95432 0 20 0C31.0457 0 40 8.95432 40 20Z" fill="#0052FF"/>
<path d="M39.875 20C39.875 9.02334 30.9767 0.125 20 0.125C9.02334 0.125 0.125 9.02334 0.125 20C0.125 30.9767 9.02334 39.875 20 39.875C30.9767 39.875 39.875 30.9767 39.875 20Z" stroke="black" stroke-opacity="0.1" stroke-width="0.25"/>
<path d="M26.8826 17.8704C27.2418 15.7206 25.6229 14.538 23.3966 13.71L24.17 10.8238L22.4052 10.351L21.6466 13.1819C21.1825 13.0576 20.7091 12.9307 20.2308 12.8223L20.993 9.97744L19.2374 9.50704L18.4592 12.4116C18.0778 12.3094 17.7009 12.2084 17.3332 12.1099L14.879 11.4523L14.373 13.3412C14.373 13.3412 15.6843 13.6679 15.6551 13.6848C16.1571 13.7602 16.5106 14.2243 16.449 14.7299L14.3185 22.6807C14.265 22.8437 14.145 22.979 13.9914 23.0561C13.8378 23.1331 13.6575 23.1439 13.4958 23.0858C13.5138 23.1103 12.2135 22.7422 12.2135 22.7422L11.299 24.7581L14.8654 25.7137L14.0747 28.6642L15.8395 29.1371L16.6178 26.2326C17.0866 26.3582 17.56 26.485 18.0287 26.6106L17.2542 29.5014L19.0235 29.9755L19.8055 27.0571C22.8362 27.6771 25.1152 27.4996 26.1213 24.7743C26.9348 22.5836 26.1462 21.2985 24.5633 20.4409C25.7345 20.1882 26.6287 19.4427 26.8826 17.8704ZM22.7278 23.4858C22.1405 25.678 18.4476 24.4225 17.2526 24.1023L18.2957 20.2097C19.4893 20.5344 23.3411 21.197 22.7278 23.4858ZM23.3802 17.7792C22.842 19.7875 19.7695 18.6983 18.7769 18.4323L19.7238 14.8982C20.7153 15.1687 23.9392 15.6926 23.3802 17.7792Z" fill="#0052FF"/>
<g style="mix-blend-mode:soft-light" opacity="0.25">
<path d="M40 20C40 8.9543 31.0457 0 20 0C8.9543 0 0 8.9543 0 20C0 31.0457 8.9543 40 20 40C31.0457 40 40 31.0457 40 20Z" fill="url(#paint0_linear_62_965)"/>
</g>
</g>
<defs>
<linearGradient id="paint0_linear_62_965" x1="20" y1="0" x2="20" y2="40" gradientUnits="userSpaceOnUse">
<stop stop-color="white"/>
<stop offset="0.0666667" stop-color="#FDFDFD"/>
<stop offset="0.133333" stop-color="#F6F6F6"/>
<stop offset="0.2" stop-color="#EAEAEA"/>
<stop offset="0.266667" stop-color="#D9D9D9"/>
<stop offset="0.333333" stop-color="#C4C4C4"/>
<stop offset="0.4" stop-color="#AAAAAA"/>
<stop offset="0.466667" stop-color="#8E8E8E"/>
<stop offset="0.533333" stop-color="#717171"/>
<stop offset="0.6" stop-color="#555555"/>
<stop offset="0.666667" stop-color="#3B3B3B"/>
<stop offset="0.733333" stop-color="#262626"/>
<stop offset="0.8" stop-color="#151515"/>
<stop offset="0.866667" stop-color="#090909"/>
<stop offset="0.933333" stop-color="#020202"/>
<stop offset="1"/>
</linearGradient>
<clipPath id="clip0_62_965">
<rect width="40" height="40" fill="white"/>
</clipPath>
</defs>
</svg>
