<?xml version="1.0" encoding="UTF-8"?>
<svg width="2501px" height="2495px" viewBox="0 0 2501 2495" version="1.1" xmlns="http://www.w3.org/2000/svg" xmlns:xlink="http://www.w3.org/1999/xlink">
    <title>pLUSD</title>
    <defs>
        <linearGradient x1="76.2262818%" y1="0.874688127%" x2="23.6511094%" y2="99.1541047%" id="linearGradient-1">
            <stop stop-color="#00EAFF" offset="0%"></stop>
            <stop stop-color="#0080FF" offset="25.2530882%"></stop>
            <stop stop-color="#8000FF" offset="49.7394282%"></stop>
            <stop stop-color="#E619E6" offset="74.9912298%"></stop>
            <stop stop-color="#FF0000" offset="99.9136118%"></stop>
        </linearGradient>
    </defs>
    <g id="Page-1" stroke="none" stroke-width="1" fill="none" fill-rule="evenodd">
        <g id="pLUSD" fill-rule="nonzero">
            <path d="M1107,0 L1227.64,410.781 L1473,23 C1501,28 1528,34 1556,41 C1559,42 1562,42 1565,43 C1568,44 1571,44 1574,45 C1575,45 1576,45 1577,46 C1584,48 1592,50 1600,52 C2134,207 2501,696 2501,1252 C2501,1370 2484,1488 2451,1601 L2450,1601 C2318,2056 1939,2398 1473,2482 L1341.524,2070.445 L1107,2492 C1046,2485 985,2473 926,2457 C918,2455 909,2453 901,2450 C368,2295 0,1806 0,1250 L0,49 C0,22 22,0 49,0 L1107,0 Z" id="bg" fill="url(#linearGradient-1)"></path>
            <path d="M1849,1580 C1849,1581 1849,1582 1849,1583 C1849,1678 1826,1771 1781,1855 C1758,1899 1728,1941 1694,1977 C1632,2043 1556,2094 1472,2126 L1472,2483 L1372,2492 C1372,2492 1158,2498 1107,2492 L1106,2149 C881,2096 715,1922 665,1679 L649,1602 L994,1505 L1008,1601 C1024,1711 1106,1830 1250,1830 C1370,1830 1499,1741 1499,1598 C1499,1472 1412,1426 1257,1355 L1249,1351 L1152,1309 C957,1221 751,1104 748,823 L748,816 C748,815 748,814 748,813 C748,729 770,647 812,574 C878,463 983,381 1107,346 L1107,2 C1332,-1.65201186e-13 1350,1 1473,23 L1473,350 C1606,396 1716,491 1781,616 L1818,685 L1533,868 L1489,791 C1432,692 1378,657 1283,657 C1193,657 1099,715 1099,824 C1099,903 1187,949 1302,1000 L1410,1048 C1623,1141 1850,1267 1850,1581 L1849,1580 Z" id="USD" fill="#FFFFFF"></path>
        </g>
    </g>
</svg>