<svg width="40" height="40" viewBox="0 0 40 40" fill="none" xmlns="http://www.w3.org/2000/svg">
<g clip-path="url(#clip0_46_50)">
<path d="M40 20C40 8.9543 31.0457 0 20 0C8.9543 0 0 8.9543 0 20C0 31.0457 8.9543 40 20 40C31.0457 40 40 31.0457 40 20Z" fill="#FF007A"/>
<path d="M39.875 20C39.875 9.02334 30.9767 0.125 20 0.125C9.02334 0.125 0.125 9.02334 0.125 20C0.125 30.9767 9.02334 39.875 20 39.875C30.9767 39.875 39.875 30.9767 39.875 20Z" stroke="black" stroke-opacity="0.1" stroke-width="0.25"/>
<path fill-rule="evenodd" clip-rule="evenodd" d="M7.67636 5.93127C10.2593 9.0662 12.8949 11.7855 14.2617 13.1958C14.7865 13.7374 15.1243 14.0859 15.2002 14.1908C15.4261 14.5031 15.3411 14.7838 14.9541 15.0038C14.7389 15.1262 14.2964 15.2502 14.0749 15.2502C13.8243 15.2502 13.542 15.1295 13.3365 14.9344C13.1912 14.7967 12.6048 13.921 11.251 11.8205C10.2152 10.2132 9.34837 8.87995 9.32471 8.85763C9.27004 8.80601 9.27097 8.80774 11.1454 12.1616C12.3224 14.2676 12.7197 15.0121 12.7197 15.1117C12.7197 15.3142 12.6645 15.4207 12.4146 15.6993C11.9981 16.164 11.8119 16.6861 11.6775 17.7666C11.5269 18.9778 11.1032 19.8333 9.92908 21.2976C9.24177 22.1547 9.12932 22.3119 8.9559 22.6573C8.73746 23.0925 8.6774 23.3361 8.65305 23.8855C8.62732 24.4664 8.67743 24.8415 8.8549 25.3969C9.01026 25.8831 9.17242 26.2042 9.58699 26.8463C9.94477 27.4005 10.1508 27.8122 10.1508 27.9734C10.1508 28.1015 10.1752 28.1017 10.7296 27.9764C12.0564 27.6769 13.1337 27.15 13.7396 26.5042C14.1146 26.1044 14.2026 25.8838 14.2055 25.336C14.2074 24.9779 14.1948 24.9028 14.0979 24.6966C13.9403 24.3612 13.6533 24.0823 13.0208 23.6499C12.192 23.0833 11.838 22.6272 11.7402 22C11.66 21.4853 11.7531 21.1221 12.2116 20.1611C12.6861 19.1666 12.8037 18.7426 12.8833 17.7401C12.9346 17.0924 13.0058 16.8368 13.1919 16.6319C13.386 16.4181 13.5607 16.3456 14.0411 16.2801C14.8242 16.1731 15.3229 15.9704 15.7327 15.5927C16.0884 15.2651 16.2371 14.9493 16.26 14.474L16.2773 14.1138L16.0785 13.8821C15.359 13.0431 7.19446 5.27173 7.15018 5.27173C7.14072 5.27173 7.37752 5.56853 7.67636 5.93127ZM10.5547 24.5427C10.7174 24.2545 10.631 23.8841 10.3588 23.7033C10.1017 23.5323 9.70223 23.6127 9.70223 23.8356C9.70223 23.9036 9.73982 23.953 9.82456 23.9966C9.96724 24.07 9.9776 24.1526 9.86534 24.3213C9.75166 24.4923 9.76082 24.6424 9.89123 24.7445C10.1014 24.9091 10.3989 24.8187 10.5547 24.5427ZM15.4517 8.82958C15.1307 8.77978 15.1172 8.77394 15.2682 8.75073C15.5578 8.70619 16.2414 8.76687 16.7125 8.8789C17.8122 9.14032 18.8129 9.81001 19.8812 10.9994L20.165 11.3153L20.571 11.2501C22.2814 10.9752 24.0212 11.1937 25.4766 11.866C25.8769 12.0509 26.5082 12.4191 26.5871 12.5137C26.6121 12.5438 26.6583 12.7379 26.6894 12.945C26.7977 13.6616 26.7435 14.2108 26.5244 14.621C26.4052 14.8443 26.3984 14.915 26.4785 15.106C26.5427 15.2584 26.7211 15.3713 26.8977 15.3711C27.2594 15.3707 27.6487 14.7859 27.8291 13.9725L27.9006 13.6494L28.0426 13.8102C28.821 14.6922 29.4326 15.895 29.5376 16.7511L29.5649 16.9745L29.4341 16.7715C29.2088 16.4223 28.9825 16.1845 28.6928 15.9928C28.1705 15.6473 27.6183 15.5295 26.1556 15.4525C24.8346 15.3829 24.0871 15.2701 23.3456 15.0283C22.0844 14.6171 21.4486 14.0694 19.9503 12.1037C19.2848 11.2306 18.8736 10.7475 18.4643 10.3585C17.5347 9.47455 16.6212 9.01096 15.4517 8.82958ZM26.885 10.7791C26.9181 10.194 26.9975 9.8081 27.157 9.45568C27.2201 9.31619 27.2793 9.20201 27.2884 9.20201C27.2976 9.20201 27.2701 9.30498 27.2274 9.4308C27.1114 9.77282 27.0924 10.2406 27.1723 10.7849C27.2736 11.4755 27.3314 11.5751 28.0613 12.3211C28.4036 12.671 28.8018 13.1123 28.9462 13.3018L29.2087 13.6463L28.9462 13.4001C28.6253 13.099 27.8871 12.5119 27.7239 12.4279C27.6146 12.3716 27.5983 12.3726 27.5309 12.4397C27.4688 12.5016 27.4557 12.5945 27.447 13.0339C27.4336 13.7188 27.3403 14.1583 27.1149 14.5978C26.9932 14.8356 26.9739 14.7848 27.0842 14.5165C27.1665 14.3162 27.1749 14.2281 27.1743 13.5651C27.173 12.2331 27.0148 11.9129 26.0875 11.3643C25.8525 11.2253 25.4654 11.0249 25.2273 10.9189C24.989 10.8129 24.7999 10.7205 24.8068 10.7136C24.8331 10.6875 25.7375 10.9515 26.1015 11.0915C26.6429 11.2998 26.7324 11.3268 26.7981 11.3017C26.8421 11.2848 26.8635 11.1564 26.885 10.7791ZM15.1076 9.75632C15.0203 10.7847 15.4236 12.1604 16.0753 13.0577C16.5805 13.7532 17.3637 14.2937 17.9419 14.3459C18.3205 14.3801 18.4342 14.2616 18.2629 14.0115C18.0251 13.6642 17.7327 13.1295 17.6553 12.9006C17.6073 12.7584 17.5027 12.3383 17.4231 11.9671C17.1512 10.6998 16.8841 10.2062 16.2669 9.83137C16.042 9.69475 15.5616 9.51596 15.283 9.46515L15.1346 9.43808L15.1076 9.75632ZM26.0944 19.7357C23.0487 18.5094 21.976 17.4449 21.976 15.6489C21.976 15.3847 21.985 15.1684 21.9961 15.1684C22.0071 15.1684 22.125 15.2556 22.258 15.3623C22.8755 15.8576 23.5672 16.0692 25.4819 16.3485C26.6085 16.5128 27.2424 16.6456 27.8274 16.8396C29.6864 17.4561 30.8365 18.7073 31.1108 20.4114C31.1904 20.9066 31.1438 21.8352 31.0145 22.3245C30.9124 22.7111 30.6011 23.4078 30.5187 23.4345C30.4958 23.4421 30.4733 23.3542 30.4674 23.2348C30.4361 22.595 30.1127 21.9719 29.5697 21.5053C28.9522 20.9748 28.1226 20.5523 26.0944 19.7357ZM23.8092 19.6006C23.8519 19.7279 23.9181 20.018 23.9563 20.2451C24.2002 21.6969 23.438 22.8699 21.9556 23.3244C21.7986 23.3726 21.1804 23.4935 20.5818 23.5933C19.37 23.795 18.829 23.9379 18.2858 24.1997C17.9003 24.3853 17.4338 24.6634 17.4616 24.6909C17.4705 24.6998 17.5585 24.6788 17.657 24.6442C18.3421 24.4037 19.1047 24.2792 20.2634 24.2189C20.7231 24.1949 21.2461 24.1568 21.4256 24.1343C22.4578 24.0043 23.1731 23.6908 23.7294 23.1245C24.039 22.8095 24.2235 22.516 24.3721 22.102C24.4665 21.8395 24.4793 21.7419 24.48 21.2766C24.4808 20.8027 24.4693 20.716 24.3672 20.4243C24.2334 20.0421 24.0756 19.7552 23.8758 19.5311L23.7314 19.369L23.8092 19.6006ZM25.3524 22.7247C24.9477 21.8548 24.8549 21.015 25.0765 20.2316C25.1002 20.148 25.1384 20.0793 25.1612 20.0793C25.1843 20.0793 25.2798 20.1311 25.3735 20.1942C25.5599 20.3196 25.934 20.5311 26.9304 21.0744C28.1736 21.7523 28.8825 22.2771 29.3647 22.8768C29.7868 23.4021 30.0481 24.0002 30.1738 24.7297C30.245 25.1429 30.2033 26.137 30.0974 26.5531C29.763 27.865 28.9861 28.8953 27.878 29.4968C27.7156 29.5847 27.5697 29.657 27.5541 29.6575C27.5383 29.6578 27.5974 29.5074 27.6855 29.3232C28.0584 28.5438 28.1007 27.7858 27.8189 26.9421C27.6463 26.4256 27.2945 25.7951 26.5841 24.7298C25.7581 23.4912 25.5556 23.1616 25.3524 22.7247ZM17.7299 25.5779C16.4489 25.786 15.0426 26.4639 13.9124 27.4182L13.5759 27.7024L13.8716 27.7486C15.4148 27.9894 15.8303 28.2031 16.9007 29.3057C17.5167 29.9403 17.7249 30.0816 18.2357 30.212C18.9862 30.4036 19.726 30.0515 19.9797 29.382C20.093 29.0829 20.0779 28.5875 19.9479 28.3388C19.6385 27.7467 18.7371 27.5553 18.3013 27.9891C17.9382 28.3505 18.044 28.8948 18.4955 28.9884C18.5989 29.0099 18.596 29.0053 18.4692 28.9479C18.2716 28.8586 18.1857 28.7347 18.1846 28.5376C18.1822 28.0754 18.7111 27.8158 19.2031 28.0378C19.5635 28.2005 19.7066 28.413 19.7066 28.7854C19.7066 29.3589 19.2185 29.791 18.6505 29.7202C18.3469 29.6824 17.9755 29.4883 17.7764 29.2632C17.2754 28.6966 17.4705 27.8028 18.17 27.4598C18.7025 27.1987 19.4103 27.2632 19.9593 27.6226C20.5899 28.0356 20.8582 28.413 21.4013 29.6519C21.5783 30.0553 21.8058 30.5094 21.907 30.6609C22.4215 31.4313 23.038 31.8091 23.7806 31.8091C24.1902 31.8091 24.4984 31.7342 24.886 31.5406C25.174 31.3966 25.5823 31.1234 25.5529 31.0942C25.5446 31.0858 25.425 31.1229 25.2875 31.1767C24.4766 31.4929 23.6523 31.4711 23.1737 31.1208C22.8722 30.9002 22.6291 30.4609 22.5041 29.9112C22.4825 29.8162 22.4111 29.396 22.3454 28.9777C22.179 27.9173 22.0192 27.4406 21.6466 26.8937C21.2653 26.334 20.5323 25.8643 19.7129 25.6546C19.2017 25.5238 18.2819 25.4882 17.7299 25.5779ZM15.9358 17.3794C16.0465 16.9708 16.4038 16.5812 16.7715 16.4684C17.0053 16.3965 17.4885 16.4424 17.7157 16.5578C18.1559 16.7817 18.4757 17.2916 18.4063 17.6596C18.3217 18.1086 17.5938 18.4676 16.7566 18.4734C16.3289 18.4764 16.1711 18.4189 16.0078 18.2008C15.9066 18.0659 15.8684 17.6287 15.9358 17.3794ZM17.6033 16.7178C17.8228 16.8518 17.8793 17.0501 17.7502 17.2336C17.6613 17.3599 17.386 17.48 17.1847 17.48C16.8825 17.48 16.5527 17.2654 16.5527 17.0687C16.5527 16.6737 17.185 16.4624 17.6033 16.7178Z" fill="white"/>
<g style="mix-blend-mode:soft-light" opacity="0.25">
<path d="M40 20C40 8.9543 31.0457 0 20 0C8.9543 0 0 8.9543 0 20C0 31.0457 8.9543 40 20 40C31.0457 40 40 31.0457 40 20Z" fill="url(#paint0_linear_46_50)"/>
</g>
</g>
<defs>
<linearGradient id="paint0_linear_46_50" x1="20" y1="0" x2="20" y2="40" gradientUnits="userSpaceOnUse">
<stop stop-color="white"/>
<stop offset="0.0666667" stop-color="#FDFDFD"/>
<stop offset="0.133333" stop-color="#F6F6F6"/>
<stop offset="0.2" stop-color="#EAEAEA"/>
<stop offset="0.266667" stop-color="#D9D9D9"/>
<stop offset="0.333333" stop-color="#C4C4C4"/>
<stop offset="0.4" stop-color="#AAAAAA"/>
<stop offset="0.466667" stop-color="#8E8E8E"/>
<stop offset="0.533333" stop-color="#717171"/>
<stop offset="0.6" stop-color="#555555"/>
<stop offset="0.666667" stop-color="#3B3B3B"/>
<stop offset="0.733333" stop-color="#262626"/>
<stop offset="0.8" stop-color="#151515"/>
<stop offset="0.866667" stop-color="#090909"/>
<stop offset="0.933333" stop-color="#020202"/>
<stop offset="1"/>
</linearGradient>
<clipPath id="clip0_46_50">
<rect width="40" height="40" fill="white"/>
</clipPath>
</defs>
</svg>
