<?xml version="1.0" encoding="UTF-8"?>
<svg width="478px" height="477px" viewBox="0 0 478 477" version="1.1" xmlns="http://www.w3.org/2000/svg" xmlns:xlink="http://www.w3.org/1999/xlink">
    <title>image</title>
    <g id="Page-1" stroke="none" stroke-width="1" fill="none" fill-rule="evenodd">
        <g id="image" transform="translate(0.500000, 0.300000)">
            <circle id="Oval" fill="#FF007A" fill-rule="nonzero" cx="238.3" cy="238.3" r="238.3"></circle>
            <path d="M169.374559,63.4736732 C164.355033,62.7131391 164.05082,62.5610322 166.484529,62.2568186 C171.047734,61.4962844 181.847318,62.5610322 189.148446,64.2342073 C206.488625,68.3410917 222.155628,78.8364628 239.039486,97.3934958 L243.450584,102.260914 L249.83907,101.196166 C276.761979,96.9371753 304.141208,100.283525 326.957232,110.778897 C333.193612,113.668926 343.232663,119.448986 344.449517,120.970054 C344.905838,121.426375 345.514265,124.468511 346.122692,127.662754 C347.795867,138.91866 347.035333,147.436642 343.536876,153.825129 C341.711594,157.323586 341.559487,158.388334 342.776342,161.43047 C343.84109,163.864179 346.579013,165.537355 349.316936,165.537355 C354.944888,165.537355 361.181268,156.410945 363.919191,143.633971 L364.983939,138.614446 L367.265541,141.200262 C379.434088,155.041983 389.168924,173.751123 390.8421,187.136524 L391.29842,190.634981 L389.168924,187.440738 C385.670467,181.964892 382.019904,178.314328 377.456699,175.272191 C369.24293,169.796346 360.572841,167.971064 337.60471,166.754209 C316.766075,165.689461 305.053849,163.864179 293.341623,160.061509 C273.567735,153.673022 263.528685,145.002933 239.952127,114.277354 C229.456755,100.587739 223.068269,93.1345046 216.527675,87.0502315 C202.077527,73.5127238 187.779485,66.2115961 169.374559,63.4736732 Z" id="Path" fill="#FFFFFF" fill-rule="nonzero"></path>
            <path d="M349.164829,93.8950387 C349.621149,84.7686291 350.990111,78.684356 353.42382,73.2085102 C354.488568,71.0790146 355.401209,69.2537326 355.553316,69.2537326 C355.705422,69.2537326 355.249102,70.9269078 354.640675,72.9042965 C352.815393,78.2280355 352.511179,85.5291632 353.728034,94.0471455 C355.249102,104.84673 356.161743,106.367799 367.721862,118.080024 C373.045601,123.55587 379.434088,130.400677 381.563583,133.442814 L385.670467,138.766553 L381.563583,134.963882 C376.544058,130.248571 364.831832,121.122161 362.398123,119.753199 C360.724948,118.840558 360.420734,118.840558 359.355986,119.905306 C358.443345,120.817947 358.139132,122.339015 357.987025,129.183823 C357.834918,139.831301 356.31385,146.828215 352.815393,153.673022 C350.838004,157.323586 350.53379,156.563052 352.359072,152.456167 C353.575927,149.261924 353.728034,147.892963 353.728034,137.549698 C353.728034,116.711063 351.294324,111.691538 336.692069,103.173555 C333.041505,101.04406 326.957232,97.8498162 323.154561,96.1766411 C319.351891,94.503466 316.461861,93.1345046 316.613968,92.9823978 C317.070288,92.5260773 331.216223,96.6329616 336.996283,98.914564 C345.514265,102.108807 346.883226,102.565128 347.947974,102.260914 C348.404295,101.804594 348.860615,99.827205 349.164829,93.8950387 Z" id="Path" fill="#FFFFFF" fill-rule="nonzero"></path>
            <path d="M179.109396,129.488036 C168.918238,115.494208 162.529751,93.8950387 163.898713,77.9238218 L164.355033,72.9042965 L166.636636,73.360617 C171.047734,74.1211511 178.500968,77.0111809 182.151532,79.1406764 C191.886369,85.0728427 195.993253,92.6781841 200.404351,112.452072 C201.621206,118.232131 203.294381,124.772725 204.054915,127.054327 C205.27177,130.704891 209.834975,138.91866 213.637645,144.394505 C216.375568,148.349283 214.550286,150.174565 208.61812,149.566138 C199.339604,148.805603 187.018951,140.439728 179.109396,129.488036 Z" id="Path" fill="#FFFFFF" fill-rule="nonzero"></path>
            <path d="M336.692069,233.83332 C288.778418,214.66786 271.89456,198.088216 271.89456,169.948453 C271.89456,165.841568 272.046667,162.495218 272.198774,162.495218 C272.350881,162.495218 274.176163,163.864179 276.305658,165.537355 C286.040495,173.294803 296.84008,176.641153 326.957232,180.900144 C344.601624,183.48596 354.640675,185.615456 363.919191,188.505485 C393.123702,198.088216 411.224414,217.709996 415.483406,244.328691 C416.70026,252.086139 415.939726,266.536288 413.962337,274.293736 C412.289162,280.378009 407.421744,291.177594 406.204889,291.633915 C405.900676,291.786021 405.444355,290.41706 405.444355,288.439671 C404.988035,278.400621 399.816402,268.665784 391.29842,261.364656 C381.71569,253.302994 368.634503,246.610294 336.692069,233.83332 Z" id="Path" fill="#FFFFFF" fill-rule="nonzero"></path>
            <path d="M303.07646,241.894982 C302.468033,238.396525 301.403285,233.83332 300.794858,231.855931 L299.578003,228.205367 L301.859605,230.791184 C305.053849,234.289641 307.487558,238.852845 309.617054,244.785012 C311.290229,249.348217 311.442336,250.717178 311.442336,258.170413 C311.442336,265.47154 311.290229,266.992609 309.76916,271.099493 C307.487558,277.640086 304.597528,282.203291 299.73011,287.07071 C290.907914,295.892906 279.804115,300.760324 263.528685,302.88982 C260.638655,303.194034 252.424886,303.802461 245.275866,304.258781 C227.023046,305.171422 215.006607,307.148811 204.359129,310.951482 C202.838061,311.559909 201.469099,311.864123 201.316992,311.712016 C200.860672,311.255695 208.1618,306.996704 214.246073,303.954568 C222.764055,299.847683 231.282037,297.566081 250.295391,294.523944 C259.726014,293.002876 269.460851,291.025487 271.89456,290.264953 C294.862691,282.811719 306.879131,264.558899 303.07646,241.894982 Z" id="Path" fill="#FFFFFF" fill-rule="nonzero"></path>
            <path d="M324.979843,280.530116 C318.591356,266.992609 317.222395,253.759315 320.568745,241.590768 C320.872959,240.221807 321.481386,239.157059 321.937707,239.157059 C322.24192,239.157059 323.762989,239.917593 325.284057,240.982341 C328.174087,242.95973 334.106253,246.30608 349.773256,254.671955 C369.395037,265.319433 380.498835,273.533202 388.104177,282.811719 C394.796877,291.025487 398.903761,300.304004 400.88115,311.712016 C401.945898,318.100503 401.337471,333.767506 399.664296,340.155993 C394.340557,360.690414 382.17201,376.813738 364.831832,386.092255 C362.246016,387.461216 359.964414,388.525964 359.812307,388.678071 C359.508093,388.678071 360.420734,386.396468 361.941802,383.506438 C367.873969,371.337892 368.482396,359.47356 364.071298,346.240266 C361.333375,338.178604 355.857529,328.29166 344.601624,311.712016 C331.36833,292.546556 328.174087,287.374923 324.979843,280.530116 Z" id="Path" fill="#FFFFFF" fill-rule="nonzero"></path>
            <path d="M145.189573,353.997714 C162.986072,339.091245 185.041562,328.443767 205.27177,325.249524 C213.941859,323.880562 228.392008,324.336883 236.45367,326.466378 C249.38275,329.812728 260.942869,337.113856 266.875035,345.783945 C272.807201,354.301928 275.240911,361.755162 277.826727,378.334806 C278.891474,384.8754 279.956222,391.415994 280.260436,392.937062 C282.237825,401.455044 286.040495,408.451958 290.755807,411.798308 C298.209042,417.274154 311.290229,417.578368 324.067202,412.710949 C326.196698,411.798308 328.174087,411.341988 328.174087,411.494095 C328.630407,411.950415 322.24192,416.209406 317.678716,418.491009 C311.594442,421.533145 306.727024,422.75 300.338537,422.75 C288.626311,422.75 278.891474,416.817834 270.829813,404.801394 C269.308744,402.367685 265.65818,395.370771 262.920258,388.982284 C254.402275,369.664717 250.143284,363.732551 240.25634,357.191957 C231.586251,351.564005 220.482453,350.499257 212.116577,354.606141 C201.164886,359.92988 198.122749,373.923708 205.880197,382.745904 C209.074441,386.244361 214.8545,389.286498 219.569812,389.894925 C228.544115,390.959673 236.149456,384.266973 236.149456,375.29267 C236.149456,369.51261 233.867853,366.16626 228.239901,363.580444 C220.482453,360.081987 212.116577,364.188871 212.268684,371.337892 C212.268684,374.380029 213.637645,376.357418 216.679782,377.726379 C218.657171,378.63902 218.657171,378.63902 217.136102,378.334806 C209.987082,376.813738 208.313906,368.295756 214.093966,362.667803 C220.938773,355.822996 235.084708,358.865132 239.952127,368.143649 C241.929515,372.098426 242.233729,379.703768 240.408447,384.419079 C236.45367,394.914451 224.741444,400.390296 213.029218,397.34816 C204.967556,395.370771 201.773313,393.089169 192.038476,383.202225 C175.154618,366.014153 168.614024,362.667803 144.429039,358.865132 L139.713727,358.104598 L145.189573,353.997714 Z" id="Path" fill="#FFFFFF" fill-rule="nonzero"></path>
            <path d="M66.0470085,45.3386419 C122.518315,113.121989 161.285104,141.086419 165.558608,147.013662 C169.068987,151.877041 167.847985,156.284479 161.742979,159.780032 C158.385226,161.75578 151.364469,163.579547 147.85409,163.579547 C143.885836,163.579547 142.51221,162.059741 142.51221,162.059741 C140.222833,159.932013 139.001832,160.235974 127.09707,139.566613 C110.766178,114.489814 97.0299145,93.6684721 96.7246642,93.3645109 C95.8089133,92.6046079 95.8089133,92.6046079 125.418193,145.037914 C130.149573,155.980517 126.333944,159.932013 126.333944,161.451819 C126.333944,164.643411 125.418193,166.315198 121.449939,170.570655 C114.887057,177.865724 111.987179,185.920695 109.850427,202.790542 C107.408425,221.636136 100.845543,235.010428 82.2252747,257.959499 C71.3888889,271.333791 69.5573871,273.765481 66.8101343,279.236783 C63.2997558,286.075909 62.3840049,289.875424 62.0787546,298.386338 C61.6208791,307.505174 62.53663,313.280437 65.2838828,321.943331 C67.7258852,329.542361 70.3205128,334.55772 76.8833944,344.58844 C82.530525,353.251334 85.7356532,359.634519 85.7356532,362.218189 C85.7356532,364.193937 86.1935287,364.193937 94.8931624,362.218189 C115.802808,357.506791 132.896825,349.299838 142.359585,339.269119 C148.311966,333.037914 149.685592,329.542361 149.685592,321.031447 C149.685592,315.408165 149.532967,314.19232 148.006716,311.000728 C145.564713,305.833387 140.985958,301.42595 131.065324,294.586823 C117.93956,285.771948 112.445055,278.62886 110.918803,268.750121 C109.697802,260.69515 111.071429,255.071867 118.397436,240.025788 C125.876068,224.523767 127.70757,217.836621 128.928571,202.182619 C129.691697,191.999919 130.912698,188.048424 133.812576,184.856831 C136.865079,181.513258 139.612332,180.449394 147.24359,179.38553 C159.606227,177.713743 167.542735,174.52215 173.952991,168.594907 C179.600122,163.427567 181.889499,158.564188 182.19475,151.117138 L182.5,145.493856 L179.294872,141.846322 C168.000611,128.77599 58.2631258,34.7 57.5,34.7 C57.6526252,35.0039612 61.3156288,39.5633791 66.0470085,45.3386419 Z M92.1647578,308.210977 C94.8045405,303.654985 93.4070085,297.884062 89.059131,295.150467 C84.8665349,292.416872 78.5,293.78367 78.5,297.276597 C78.5,298.339662 79.1211254,299.098993 80.5186574,299.858325 C82.8478775,301.073257 83.0031588,302.288188 81.1397828,304.869916 C79.2764067,307.603511 79.431688,309.881507 81.6056268,311.400171 C85.0218162,313.9819 89.6802564,312.615102 92.1647578,308.210977 Z" id="Shape" fill="#FFFFFF"></path>
            <path d="M190.301307,183.292906 C184.443007,185.122446 178.738872,191.220911 177.043048,197.624299 C175.963888,201.588301 176.580551,208.449074 178.122209,210.431075 C180.743027,213.78523 183.20968,214.7 189.992975,214.7 C203.4054,214.547538 214.967835,208.906458 216.355327,201.893224 C217.434487,196.099682 212.347016,188.171678 205.409555,184.665061 C201.709576,182.835521 194.001286,182.073213 190.301307,183.292906 Z M205.425278,195.786763 C207.40938,192.812703 206.646264,189.682113 203.13593,187.4907 C196.573132,183.420934 186.5,186.708053 186.5,193.125762 C186.5,196.256351 191.689189,199.7 196.420509,199.7 C199.778219,199.7 204.051669,197.821646 205.425278,195.786763 Z" id="Shape" fill="#FFFFFF"></path>
        </g>
    </g>
</svg>