<?xml version="1.0" encoding="UTF-8"?>
<svg width="456px" height="452px" viewBox="0 0 456 452" version="1.1" xmlns="http://www.w3.org/2000/svg" xmlns:xlink="http://www.w3.org/1999/xlink">
    <defs>
        <linearGradient x1="72.5920945%" y1="12.3489252%" x2="22.8473345%" y2="98.2218516%" id="linearGradient-1">
            <stop stop-color="#FF23BF" offset="0%"></stop>
            <stop stop-color="#FF5633" offset="50%"></stop>
            <stop stop-color="#F9B612" offset="100%"></stop>
        </linearGradient>
    </defs>
    <g stroke="none" stroke-width="1" fill="none" fill-rule="evenodd">
        <path d="M250,6.27905619 L327.841633,51.2209438 C342.074082,59.4380524 350.841633,74.6238952 350.841633,91.0581124 L350.841633,180.941888 C350.841633,182.00166 350.805174,183.056241 350.733141,184.104097 C352.182837,184.749516 353.607232,185.474941 355,186.279056 L432.841633,231.220944 C447.074082,239.438052 455.841633,254.623895 455.841633,271.058112 L455.841633,360.941888 C455.841633,377.376105 447.074082,392.561948 432.841633,400.779056 L355,445.720944 C340.76755,453.938052 323.23245,453.938052 309,445.720944 L231.158367,400.779056 C230.073269,400.152575 229.019937,399.485586 227.999834,398.780625 C226.980063,399.485586 225.926731,400.152575 224.841633,400.779056 L147,445.720944 C132.76755,453.938052 115.23245,453.938052 101,445.720944 L23.1583673,400.779056 C8.92591773,392.561948 0.158367259,377.376105 0.158367259,360.941888 L0.158367259,271.058112 C0.158367259,254.623895 8.92591773,239.438052 23.1583673,231.220944 L101,186.279056 C101.770204,185.834379 102.550079,185.413766 103.33858,185.017217 C103.219163,183.670234 103.158367,182.310389 103.158367,180.941888 L103.158367,91.0581124 C103.158367,74.6238952 111.925918,59.4380524 126.158367,51.2209438 L204,6.27905619 C218.23245,-1.93805238 235.76755,-1.93805238 250,6.27905619 Z M123.63439,219.211377 L39.9955358,267.5 L39.9955358,364.5 L124,413 L208.004464,364.5 L208.005064,267.779396 C206.645538,267.162733 205.308805,266.476583 204,265.720944 L126.158367,220.779056 C125.296769,220.281612 124.455199,219.75863 123.63439,219.211377 Z M332,219 L247.995536,267.5 L247.995536,364.5 L332,413 L416.004464,364.5 L416.004464,267.5 L332,219 Z M227,39 L142.995536,87.5 L142.995935,184.221057 C144.355116,184.837603 145.691516,185.523602 147,186.279056 L224.841633,231.220944 C225.703231,231.718388 226.544801,232.24137 227.36561,232.788623 L311.004464,184.5 L311.004464,87.5 L227,39 Z" fill="url(#linearGradient-1)"></path>
    </g>
</svg>