<?xml version="1.0" encoding="UTF-8"?>
<svg width="512px" height="512px" viewBox="0 0 512 512" version="1.1" xmlns="http://www.w3.org/2000/svg" xmlns:xlink="http://www.w3.org/1999/xlink">
    <title>Combined Shape</title>
    <defs>
        <linearGradient x1="72.5920945%" y1="11.6934119%" x2="22.8473345%" y2="99.0614045%" id="linearGradient-1">
            <stop stop-color="#FF23BF" offset="0%"></stop>
            <stop stop-color="#FF5633" offset="50%"></stop>
            <stop stop-color="#F9B612" offset="100%"></stop>
        </linearGradient>
    </defs>
    <g id="Page-1" stroke="none" stroke-width="1" fill="none" fill-rule="evenodd">
        <g id="Artboard" fill="url(#linearGradient-1)" fill-rule="nonzero">
            <path d="M256,0 C397.384896,0 512,114.615104 512,256 C512,397.384896 397.384896,512 256,512 C114.615104,512 0,397.384896 0,256 C0,114.615104 114.615104,0 256,0 Z M274.249518,56.1155993 C262.443366,49.2948002 247.897587,49.2948002 236.091435,56.1155993 L171.519967,93.4206423 C159.713815,100.241441 152.440925,112.846798 152.440925,126.488396 L152.440925,201.098482 C152.440925,202.234438 152.491357,203.363209 152.590416,204.481303 C151.936336,204.810467 151.289411,205.159607 150.650509,205.528721 L86.0790417,242.833764 C74.2728896,249.654563 67,262.25992 67,275.901518 L67,350.511604 C67,364.153202 74.2728896,376.758559 86.0790417,383.579358 L150.650509,420.884401 C162.456662,427.7052 177.00244,427.7052 188.808592,420.884401 L253.38006,383.579358 C254.280174,383.059333 255.153938,382.505683 255.999862,381.920514 C256.846062,382.505683 257.719825,383.059333 258.61994,383.579358 L323.191407,420.884401 C334.99756,427.7052 349.543338,427.7052 361.349491,420.884401 L425.920958,383.579358 C437.72711,376.758559 445,364.153202 445,350.511604 L445,275.901518 C445,262.25992 437.72711,249.654563 425.920958,242.833764 L361.349491,205.528721 C360.194157,204.861247 359.012588,204.259091 357.810031,203.723346 C357.869784,202.85355 357.900027,201.97817 357.900027,201.098482 L357.900027,126.488396 C357.900027,112.846798 350.627137,100.241441 338.820986,93.4206423 Z M169.19727,233 C169.876354,233.454659 170.572613,233.889154 171.285442,234.302431 L235.686474,271.640247 C236.769293,272.268034 237.875218,272.838089 239,273.350413 L239,353.706097 L169.499752,394 L100,353.706097 L100,273.118291 Z M342.5,233 L412,273.25 L412,353.75 L342.5,394 L273,353.75 L273,273.25 L342.5,233 Z M255.5,83 L325,123.293903 L325,203.881709 L255.802483,244 C255.123397,243.545341 254.427135,243.110846 253.714303,242.697569 L189.313041,205.359753 C188.230484,204.73212 187.124831,204.162191 186,203.649963 L186,123.293903 L255.5,83 Z" id="Combined-Shape"></path>
        </g>
    </g>
</svg>