<?xml version="1.0" encoding="UTF-8"?>
<svg width="1000px" height="1000px" viewBox="0 0 1000 1000" version="1.1" xmlns="http://www.w3.org/2000/svg" xmlns:xlink="http://www.w3.org/1999/xlink">
    <title>pBTT</title>
    <defs>
        <linearGradient x1="73.4282064%" y1="5.80866472%" x2="26.4366534%" y2="94.2397282%" id="linearGradient-1">
            <stop stop-color="#00EAFF" offset="0%"></stop>
            <stop stop-color="#0080FF" offset="25.2530882%"></stop>
            <stop stop-color="#8000FF" offset="49.7394282%"></stop>
            <stop stop-color="#E619E6" offset="74.9912298%"></stop>
            <stop stop-color="#FF0000" offset="99.9136118%"></stop>
        </linearGradient>
    </defs>
    <g id="Page-1" stroke="none" stroke-width="1" fill="none" fill-rule="evenodd">
        <g id="pBTT" fill-rule="nonzero">
            <circle id="bg" fill="url(#linearGradient-1)" cx="500" cy="500" r="500"></circle>
            <path d="M521.472683,70 L521.472683,151.852978 L507.295205,151.852978 C405.136928,154.316612 305.39184,198.058683 235.2083,281.168618 C181.175823,345.29067 151.340865,426.332826 150.897556,510.186009 C149.89671,624.005441 200.060221,732.257639 287.544307,805.0679 C342.343776,850.670266 406.946819,877.116621 474.717172,891.898424 C519.744906,901.94096 565.856513,906.282175 611.96722,904.819933 C607.040295,906.026611 602.716667,907.283567 597.789742,908.490244 L597.186445,908.490244 C595.32628,909.143862 592.862817,909.143862 591.052927,909.7472 L589.796058,909.7472 C585.47243,910.953878 580.545506,912.210834 575.668855,912.814173 C573.205393,913.417512 571.345228,913.417512 568.881765,914.071129 L567.624897,914.071129 C565.815006,914.071129 563.95484,914.674468 562.094675,914.674468 L560.888081,914.674468 C558.424619,915.277807 556.564453,915.881146 554.100991,915.881146 C551.637528,915.881146 549.174066,916.534763 546.710604,916.534763 L545.50401,916.534763 C543.040547,916.534763 541.180382,917.138102 539.320216,917.138102 L537.460051,917.138102 C535.65016,917.741441 533.789995,917.741441 531.929829,917.741441 L530.069664,917.741441 C527.606201,918.34478 525.796311,918.34478 523.332848,918.34478 L522.679277,918.34478 C520.215814,918.999469 517.802627,918.999469 515.339164,918.999469 L490.050969,918.999469 C382.865445,919.159453 278.76144,883.144791 194.586307,816.782731 C153.361018,779.224884 125.659635,729.348867 110.225289,695.51161 C97.3046802,667.154681 86.8475337,637.641353 80.0604434,606.820791 C73.3236279,576.653845 69.6032969,545.883561 69,514.45966 L69,498.471179 L70.8601655,471.421484 C73.5892947,442.408027 79.1459031,413.73057 87.4508306,385.797638 C95.9171993,357.426239 107.2717,329.998327 121.336007,303.944661 C135.552237,276.918778 152.680376,251.528253 172.415146,228.225628 C193.374721,203.047008 217.122089,180.326886 243.201984,160.500836 C268.439905,141.395104 295.537991,124.803284 324.496243,111.228159 C352.895146,98.0761045 382.605131,87.9642314 413.130612,81.0612133 C443.464843,74.2752706 474.40664,70.5694086 505.485315,70 L521.472683,70 Z M520.215814,175.885532 C557.183526,175.844863 593.940175,181.457086 629.211456,192.528076 C639.765462,196.150591 650.225967,200.040024 660.582896,204.192629 L626.144697,277.448028 C592.862817,263.92318 556.564453,256.532279 520.215814,256.532279 C491.76125,256.480235 463.488318,261.065354 436.508368,270.107404 C294.934694,316.86617 220.427525,470.767867 269.093476,613.005015 C309.061897,729.952206 418.057537,807.531534 544.850438,830.307578 C574.736244,835.783909 604.981001,839.077456 635.344975,840.162113 C683.357354,840.765452 700.601591,841.419069 768.32167,829.704239 C766.794931,831.090505 765.1459,832.335777 763.394745,833.424829 C751.010568,841.533704 745.690122,845.032873 740.519332,848.209363 L740.027107,848.511048 C739.863036,848.611376 739.698894,848.711515 739.53446,848.811604 L739.040063,849.111855 C736.478874,850.66378 733.794485,852.236433 730.16314,854.340577 C718.449125,861.12814 706.785385,866.658747 695.071369,872.189353 C693.928281,872.655089 692.807296,873.112267 691.697727,873.564551 L690.867524,873.902904 C689.901062,874.296712 688.941294,874.687474 687.981061,875.077644 L687.157723,875.411988 C676.723099,879.646622 665.992458,883.894128 645.802122,891.295086 C629.742134,891.295086 607.397804,890.907136 584.372455,889.726046 L581.858166,889.594034 C564.243008,888.647652 546.34954,887.230166 530.672961,885.16114 C473.460303,877.116621 418.660834,864.798452 374.318513,841.419069 C331.88663,818.643025 296.794859,794.006687 266.630014,761.376108 C233.592408,726.231697 208.401222,684.46626 192.726142,638.848031 C177.342071,594.502621 171.208552,547.743856 174.275311,500.985091 C177.197167,455.845124 188.91295,411.711466 208.763785,371.066113 C218.512345,350.849221 230.268725,331.663764 243.855555,313.799197 C257.599735,295.728028 273.055423,279.025294 290.007769,263.92318 C325.158442,232.417458 366.443683,208.521021 411.270447,193.734754 C446.393744,181.981924 483.178658,175.955366 520.215814,175.885532 Z M526.977767,278.075599 C593.267016,278.075599 656.834959,304.440054 703.668351,351.357042 C721.168792,368.482198 735.922061,388.205468 747.407377,409.830638 L674.157077,446.131528 C645.198825,395.048834 590.399355,359.954621 527.002904,359.954621 C482.256101,359.914554 439.3305,377.673649 407.689719,409.316633 C376.048936,440.959617 358.291079,483.888206 358.331145,528.638124 C358.331145,622.256211 442.038589,697.975244 530.723235,727.488572 C587.935893,746.594304 655.052674,751.471294 709.852144,751.471294 C740.620286,751.471294 767.718373,749.661277 786.822775,748.454599 C810.803827,746.594304 845.895598,742.923993 865,741.063698 C843.202888,768.187919 818.411009,792.76226 791.096128,814.319097 C762.791448,820.453042 746.150508,822.313337 724.029621,824.173632 C643.992231,829.704239 561.491378,822.916676 505.485315,804.464561 C446.965514,784.75549 392.216321,750.264616 352.197626,707.226441 C329.423167,682.590102 311.525359,656.093468 298.655025,627.786818 C284.565097,596.409911 277.201034,562.430095 277.036886,528.034785 C277.036886,461.753381 303.389178,398.191813 350.287186,351.357042 C397.12058,304.440054 460.688523,278.075599 526.977767,278.075599 Z" id="logo" fill="#FFFFFF"></path>
        </g>
    </g>
</svg>