<svg width="1024" height="1024" viewBox="0 0 1024 1024" fill="none" xmlns="http://www.w3.org/2000/svg">
<g clip-path="url(#clip0_161_66)">
<path d="M512 1024C794.77 1024 1024 794.77 1024 512C1024 229.23 794.77 0 512 0C229.23 0 0 229.23 0 512C0 794.77 229.23 1024 512 1024Z" fill="#003E9B"/>
<path d="M701.166 633L507.875 339.413V731.621L701.166 633Z" fill="#F7FAFC"/>
<path d="M711.431 643.211L507.852 747.435V731.857L328.489 633.063L507.852 339.561V312.872L314.03 630.087L140.255 696.941L507.852 95.1533V312.784L715.69 629.999L910.842 704.993L514.86 57L113.909 713.13L514.86 934L906.586 718.206L711.431 643.211ZM507.852 914.399L139.989 711.73L318.199 643.211L507.764 747.698V914.399H507.852Z" fill="#F7FAFC"/>
</g>
<defs>
<clipPath id="clip0_161_66">
<rect width="1024" height="1024" fill="white"/>
</clipPath>
</defs>
</svg>
