<?xml version="1.0" encoding="UTF-8"?>
<svg width="396px" height="386px" viewBox="0 0 396 386" version="1.1" xmlns="http://www.w3.org/2000/svg" xmlns:xlink="http://www.w3.org/1999/xlink">
    <title>USDL</title>
    <defs>
        <linearGradient x1="44.2278844%" y1="44.133382%" x2="52.5714061%" y2="31.4262831%" id="linearGradient-1">
            <stop stop-color="#26398D" offset="0%"></stop>
            <stop stop-color="#3652CC" offset="100%"></stop>
        </linearGradient>
    </defs>
    <g id="Page-1" stroke="none" stroke-width="1" fill="none" fill-rule="evenodd">
        <g id="USDL" transform="translate(0.485281, 0.188817)">
            <path d="M114.007887,227.100805 L194.514719,308.391811 L194.747,308.16 L194.517,385.257 L76.0032206,265.936122 L114.007887,227.100805 Z M96.5561484,86.0473983 C96.5900275,86.0795291 96.6235304,86.1120544 96.6566502,86.1449673 L194.514719,183.391811 L195.12,182.785 L194.89,259.883 L194.514719,260.260972 L59.5839587,124.782789 C57.2925533,122.482087 57.2472357,118.775963 59.4816995,116.419919 L88.0738415,86.2720517 C90.3541296,83.867691 94.1517877,83.7671103 96.5561484,86.0473983 Z M42.4055916,155.405592 L72.8111832,185.811183 L33.9203102,224.702056 L3.51471863,194.296465 C-1.17157288,189.610173 -1.17157288,182.012193 3.51471863,177.325902 L25.4350288,155.405592 C30.1213203,150.7193 37.7193001,150.7193 42.4055916,155.405592 Z M195.664856,0.00186702381 L195.266528,133.617263 C193.814743,133.55753 192.380515,132.973444 191.272078,131.865007 L130.460895,71.0538239 C128.117749,68.7106781 128.117749,64.9116882 130.460895,62.5685425 L191.272078,1.75735931 C192.481838,0.547599577 194.079671,-0.0375645191 195.664856,0.00186702381 Z" id="Shape" fill="#3652CC"></path>
            <path d="M276.414461,227.100805 L314.229965,265.936122 L195.304719,384.473842 L194.514719,384.260972 L194.742719,308.164842 L276.414461,227.100805 Z M300.270421,86.1151968 C300.28928,86.1340539 300.308012,86.1530366 300.326617,86.1721435 L329.772927,116.412565 C332.061664,118.763025 332.03821,122.515943 329.720274,124.837613 L194.886719,259.887842 L195.117719,182.787842 L291.78514,86.1154556 C294.128214,83.7722384 297.927204,83.7721225 300.270421,86.1151968 Z M199.757359,1.75735931 L260.568542,62.5685425 C262.911688,64.9116882 262.911688,68.7106781 260.568542,71.0538239 L199.757359,131.865007 C198.522396,133.09997 196.883021,133.684042 195.265527,133.617222 L195.663855,0.00184221314 C197.149304,0.0385463523 198.623719,0.623718719 199.757359,1.75735931 Z" id="Combined-Shape" fill="url(#linearGradient-1)"></path>
            <path d="M334.92031,159.51829 L377.92031,159.51829 C381.234019,159.51829 383.92031,162.204581 383.92031,165.51829 L383.92031,213.104076 L383.92031,213.104076 L328.92031,213.104076 L328.92031,165.51829 C328.92031,162.204581 331.606602,159.51829 334.92031,159.51829 Z" id="Rectangle" fill="#2B3FB2" transform="translate(356.420310, 186.311183) rotate(45.000000) translate(-356.420310, -186.311183) "></path>
        </g>
    </g>
</svg>