<?xml version="1.0" encoding="UTF-8"?>
<svg width="1251px" height="1489px" viewBox="0 0 1251 1489" version="1.1" xmlns="http://www.w3.org/2000/svg" xmlns:xlink="http://www.w3.org/1999/xlink">
    <title>pSSH</title>
    <defs>
        <linearGradient x1="50%" y1="0%" x2="50%" y2="100%" id="linearGradient-1">
            <stop stop-color="#771F98" offset="0%"></stop>
            <stop stop-color="#AC1C5D" offset="32.3576814%"></stop>
            <stop stop-color="#D05933" offset="64.8904373%"></stop>
            <stop stop-color="#DE903C" offset="100%"></stop>
        </linearGradient>
    </defs>
    <g id="Page-1" stroke="none" stroke-width="1" fill="none" fill-rule="evenodd">
        <path d="M606.802485,0.844095227 L1249.44616,354.425329 C1250.40458,354.952651 1251,355.959847 1251,357.053757 L1251,533.733967 C1251,535.390821 1249.65685,536.733967 1248,536.733967 C1247.45514,536.733967 1246.92057,536.585581 1246.45367,536.304737 L627.734535,164.142004 C626.800869,163.5804 625.636112,163.569158 624.69178,164.112636 L212.953476,401.074898 C211.51746,401.90135 211.02331,403.735443 211.849761,405.171459 C212.121423,405.643491 212.516458,406.032667 212.992497,406.297245 L343.445029,478.801682 C344.416939,479.341862 345.607908,479.300163 346.539659,478.693332 L590.444803,319.842623 C591.399076,319.221124 592.622965,319.193526 593.604282,319.77138 L982.200746,548.598634 C983.116389,549.137816 983.678495,550.121136 983.678495,551.183736 L983.678495,708.034916 C983.678495,709.69177 982.335349,711.034916 980.678495,711.034916 C980.151813,711.034916 979.634413,710.896259 979.178312,710.632887 L606.858028,495.638806 C605.882309,495.075383 604.673168,495.106171 603.727387,495.718522 L500.939968,562.268804 C499.549175,563.169281 499.151694,565.026722 500.052171,566.417516 C500.293756,566.790646 500.61524,567.105428 500.993376,567.339099 L1249.57705,1029.93111 C1250.46158,1030.47771 1251,1031.44336 1251,1032.48315 L1251,1116.34617 C1251,1117.41107 1250.43549,1118.39615 1249.51671,1118.93453 L619.466021,1488.12834 C618.544967,1488.66806 617.406491,1488.67766 616.476466,1488.15355 L1.5271565,1141.60643 C0.58368132,1141.07475 4.0247745e-13,1140.07584 4.54747351e-13,1138.99286 L4.54747351e-13,965.231517 C3.69723406e-13,963.574663 1.34314575,962.231517 3,962.231517 C3.5243299,962.231517 4.03950339,962.368939 4.49417288,962.630085 L603.707944,1306.79785 C604.668428,1307.34952 605.854741,1307.32706 606.793661,1306.73945 L1024.8195,1045.11963 C1026.22398,1044.24065 1026.64997,1042.38954 1025.77099,1040.98506 C1025.53438,1040.607 1025.21645,1040.28644 1024.84034,1040.04674 L900.926139,961.071711 C899.946406,960.447292 898.694224,960.444691 897.711906,961.065036 L627.775561,1131.53272 C626.822053,1132.13487 625.611405,1132.15142 624.641792,1131.57556 L281.101615,927.54499 C280.19144,927.004432 279.633529,926.024197 279.633529,924.965603 L279.633529,777.526584 C279.633529,775.86973 280.976675,774.526584 282.633529,774.526584 C283.132112,774.526584 283.622833,774.650847 284.061328,774.888139 L624.633983,959.189538 C625.610897,959.718197 626.799962,959.663798 627.724525,959.048148 L751.688946,876.502457 C753.068031,875.584149 753.441565,873.721743 752.523256,872.342658 C752.259875,871.947121 751.906299,871.61981 751.491648,871.387681 L14.8314049,458.992382 C13.8837808,458.461886 13.2968513,457.460671 13.2968513,456.374661 L13.2968513,367.612508 C13.2968513,366.572882 13.835099,365.607365 14.7194034,365.060713 L603.778881,0.920728124 C604.69919,0.351818911 605.854538,0.322536758 606.802485,0.844095227 Z" id="pSSH" fill="url(#linearGradient-1)"></path>
    </g>
</svg>