<svg xmlns="http://www.w3.org/2000/svg" width="29" height="29" xmlns:v="https://vecta.io/nano"><defs><linearGradient x1="72.9563696%" y1="5.64531791%" x2="26.2316073%" y2="94.4819053%" id="A"><stop stop-color="#00eaff" offset="0%"/><stop stop-color="#0080ff" offset="25.2530882%"/><stop stop-color="#8000ff" offset="49.7394282%"/><stop stop-color="#e619e6" offset="74.9912298%"/><stop stop-color="red" offset="99.9136118%"/></linearGradient></defs><ellipse fill="#fff" cx="14.389" cy="14.668" rx="13.626" ry="13.207"/><g fill="#7dd"><ellipse cx="24.517" cy="16.798" rx="1" ry="1.214"/><ellipse cx="17.343" cy="14.084" rx="1.765" ry="1.768"/></g><path d="M7.947 12.508s5.836-3.964 9.132-2.862 5.175.577 5.036 1.903-1.506 1.994-2.08 1.816-1.683-.49-1.678-.597-.215-.406-.28-.39-1.354-.168-1.39-.086c-.993 2.316-7.269 2.798-7.565 2.723-1.773.8-3.548-2.427-1.175-2.507zm14.472-.854s4.643 1.182 2.769 3.908c-3.686-.156-2.77-3.907-2.77-3.907l.001-.001zm-6.712 5.685s8.226-4.917 8.298.273c2.199 1.593 1.94 2.413 1.94 2.413S21.91 31.531 13.927 22.21s1.78-4.871 1.78-4.871z" fill="#fed"/><ellipse fill="#436" cx="9.669" cy="23.746" rx="4.118" ry="3.042"/><ellipse fill="#348" cx="17.271" cy="25.815" rx="4.652" ry="1.613"/><path d="M2.031 16.106c-1.055-7.163-.037-2.578-.02-2.91.07-1.424-.351-2.677 1.579-5.269.353-2.686 2.423-6.325 1.632-.718-.073.46-.058.588.052.442.085-.114.173-.41.195-.656a3.04 3.04 0 0 1 .249-.88c.081-1.751 2.523-3.59 2.544-1.415.004.36-.123.656-.617 1.47-.945 1.557-1.27 2.28-1.033 2.295.098.006.28-.233.553-.73.622-1.13 1.105-1.758 1.674-2.173.79-.576 1.101-.406.587.32-.25.35-.266.437-.106.55.105.075.184.298.177.496-.013.337-.059.402-.698.989-.854.783-1.137 1.179-1.473 2.063a13.4 13.4 0 0 1-.722 1.503c-.336.59-.49 1.025-.58 1.64-.17 1.134-.072 2.546.186 2.73.111.079.212.2.224.267a.35.35 0 0 0 .124.196c.056.04.033-.18-.05-.489-.097-.356-.095-.61.006-.693.086-.073.155-.255.153-.404a.87.87 0 0 1 .115-.44c.065-.091.052-.255-.03-.364s-.105-.259-.051-.335.057-.166.008-.2-.06-.25-.024-.48c.062-.403.077-.417.45-.452.335-.03.404-.085.515-.4.099-.282.187-.375.39-.41.144-.024.37-.186.501-.359s.287-.322.345-.332.15-.176.206-.37c.074-.255.16-.367.317-.409.173-.046.224-.195.262-.765.14-2.13.87-3.108 2.233-2.99.723.064 1.725.473 2.512 1.027.516.363.983.514 1.279.414.067-.023.195.044.284.15.14.167.178.153.296-.112.179-.4.357-.373.652.1.267.427.448.595.459.425.004-.06.087-.144.185-.185.14-.06.212-.017.337.2.156.267.163.265.249-.064.049-.186.172-.394.275-.462.164-.11.261-.06.82.425l.73.697c.066.099.148.077.25-.067.155-.219.329-.116.635.377.091.148.151.143.268-.021.09-.127.236-.18.364-.13.14.052.242.009.292-.125.151-.399.385-.177.55.52.184.781.31.956.44.612.119-.313.34-.271.419.08.035.16.134.295.22.3s.245.154.356.33c.17.27.245.315.485.287.265-.032.288-.007.34.363.039.287.127.425.32.5s.236.144.162.248c-.11.155.235.355.584.339.099-.005.208.057.242.138.045.107.012.144-.121.135-.235-.015-.205.166.063.385.115.094.164.213.11.264-.064.06.061.198.351.388.581.38.615.737.151 1.577-.366.663-.37.835-.026 1.235.166.195.081.226.038.393-2.751 12.78-14.552 9.646-16.55 9.163 0 0-6.839-3.061-7.894-10.224h0zm5.823 8.719c.364.23.775.43.913.443s.197-.017.132-.066c-.23-.17.021-.277.258-.11.132.094.271.128.309.075s.136-.048.219.01c.098.07.11-.099.033-.481-.126-.626-.354-.896-.613-.724-.323.216-.883-.346-1.95-1.96-.229-.345.071.806.397 1.526.162.359.27.687.241.729s-.227-.004-.44-.101c-.308-.142-.45-.31-.708-.834-.178-.36-.342-.63-.365-.597s.002.34.056.685c.086.559.138.646.476.805.208.099.677.368 1.042.6h0zm2.885.379c.038-.053-.075-.192-.25-.308-.303-.201-.31-.2-.134.035.262.35.307.381.384.273h0zm3.982 1.521c.285.042.525.066.533.054s-.242-.208-.557-.434c-.362-.26-.541-.343-.486-.227.314.66-.56-.223-.571-.033-.016.246.509.557 1.08.64h.001zm1.839-.313c.044-.094.227-.13.425-.085.226.051 1.936.077 1.525-.226-.316-.234-1.196.08-2.124-.06l-.615-.093c.17.161.585.823.789.464h0zm4.465-1.505c-.085-.131-.213-.003-.456.1a4.78 4.78 0 0 1-1.068.26c-.684.08-.716.205-.046.172.228.014 1.839.155 1.57-.532h0zm-5.68-2.646c.041.029.004.1-.083.158-.218.145-.008.264.533.302.435.03.691.22.44.325-.186.079.009.164.377.167.238 0 .333.047.326.158s.214.166.683.186a12.78 12.78 0 0 1 1.274.126c.32.052.835.06 1.144.015s.629-.036.71.018.362-.022.626-.17c.535-.3.701-.283.481.048-.14.21-.137.215.073.088.12-.074.361-.277.534-.452s.355-.29.406-.254.06.111.02.167-.008.106.071.11.176-.091.216-.215c.079-.247.282-.189.228.065-.018.087.039.046.127-.09l1.73-2.343c-.134-.096-.433-.423-.357-.455s.201.022.283.119c.274.327.362-.027-.298-.85l-.336-.418.333.141c.31.131.302.112-.093-.276-.234-.23-.485-.586-.558-.792-.094-.266-.158-.337-.222-.246-.05.07-.125-.191-.167-.579l-.078-.704-.104.684c-.085.562-.06.716.146.863.443.313.619.937.419 1.477-.132.357-.242.515-.406.583-.141.065-.265.163-.361.285-.185.261-1.771.194-2.174-.091-.319-.226-.425-.52-.268-.742.076-.107.11-.091.153.072.047.175.091.141.28-.218.246-.469.45-.462.49.016.019.232.025.222.05-.073.033-.41-.17-.59-.406-.36-.42.406-.805.276-.785-.265.01-.282.074-.394.329-.575s.307-.274.274-.468c-.022-.133-.074-.196-.114-.14s-.116.073-.17.035-.025-.166.06-.287c.136-.192.108-.251-.23-.484-.267-.184-.472-.239-.664-.178-.276.087-.277.086-.147-.108.113-.17.083-.177-.22-.049-.392.165-.594.116-.311-.075.162-.11.153-.122-.086-.106-.447.03-1.338.4-1.676.697l-.318.28.182-.376.183-.376-.383.19c-.21.105-.476.322-.589.481-.155.218-.231.251-.31.132-.086-.129-.178-.055-.507.41-.355.5-.426.551-.607.442-.391-.236-1.309-.235-1.989 0l-.684.237.556-.074c.54-.073.85 0 .727.173-.032.046-.162.092-.288.101s-.26.061-.297.114.036.088.164.078c.353-.026.307.148-.08.3-.188.074-.336.175-.327.226s.127.035.265-.034.29-.095.34-.06-.094.145-.32.243-.442.22-.478.275.034.053.154-.002c.27-.123.384.08.142.252-.13.092-.083.107.188.057.493-.091.674.07.552.491-.066.23-.041.368.072.397.105.027.132.104.069.193-.205.289.36 1.011.763.976.134-.012.277.003.318.032h0zm2.94-.594c.376.072.713.152.749.177s.458-.015.94-.091.793-.082.693-.014-.162.138-.136.156c.095.068 1.272-.683 1.44-.919.096-.135.217-.216.27-.178s.05.133-.006.212-.059.175-.006.212.028.166-.056.286c-.425.608-.027.851.639.391l.445-.308-.366.462-.367.462-.873-.114a11.82 11.82 0 0 0-1.59-.09 3.77 3.77 0 0 1-1.419-.247c-1.005-.39-1.148-.55-.356-.396l-.001-.001zm-1.147-1.396c.084-.109.123-.115.1-.017-.022.09-.084.17-.139.179s-.037-.064.04-.162h-.001zm.753.063c.004-.077.076-.137.158-.131.213.013.22.206.008.242-.118.02-.172-.017-.166-.111h0zm.718.495c.035-.05.126-.086.202-.082s.09.077.032.159-.15.12-.203.082-.067-.11-.031-.159h0zm1.113.06c.037-.053.111-.066.164-.029.026.018.043.046.048.077s-.002.063-.02.088c-.038.053-.111.065-.164.027s-.065-.111-.028-.164v.001zm-.777-.84a.22.22 0 0 1 .175-.19c.11-.02.16.026.154.134a.22.22 0 0 1-.175.19c-.109.019-.16-.026-.154-.134h0zm3.6 1.542c.038-.053.111-.065.164-.028s.065.111.028.164-.111.065-.164.028-.065-.111-.028-.164zm.635-.488c.057-.08.146-.114.199-.076s.05.133-.007.212-.145.114-.198.076-.05-.133.006-.212zm-9.836-3.11c-.023-.135-.824-.184-1.398-.086-.966.164-.771.285.35.219.583-.034 1.054-.094 1.048-.133zm-4.89-3.25c.357-.06.316-.19-.078-.246-.465-.065-.555-.116-.355-.2.102-.044.081-.081-.064-.118-.097-.023-.192-.054-.283-.094-.038-.021-.009.06.065.18.195.32.49.517.715.479v-.001zm-3.953-3.106c-.024-.322.591-1.726.878-2.005.215-.208.22-.233.03-.148-.308.138-.837 1.127-.985 1.839-.063.305-.068.546-.011.537s.096-.11.088-.223h0zm4.467 2.479c.179-.075.247-.05.287.101s.138.185.41.139c.308-.053.333-.076.19-.178-.09-.065-.135-.16-.097-.214s.157-.033.265.044c.293.208.888.26 1.266.112.184-.072.626-.087.984-.033.69.102 1.005-.033.517-.223-.202-.079-.255-.15-.187-.246.106-.149.38-.11.667.094.266.188.341 0 .109-.271-.238-.278-.143-.476.133-.28s1.255.276 1.299.11c.02-.076.177-.11.35-.077.269.051.337.01.478-.297.126-.275.26-.385.583-.48.334-.1.376-.136.208-.179-.115-.03-.18-.095-.144-.147s.152-.031.258.044.222.094.258.043-.028-.12-.144-.154c-.187-.054-.183-.066.043-.11.305-.062 1.6.43 1.588.608-.004.068-.47-.06-.549-.116s-.343-.08-.587-.05l-.442.053.475.043c.26.023.599.13.75.238.237.168.274.162.26-.037-.024-.302.167-.335.245-.042.09.34.18.12.192-.475l.01-.529.473.38c.324.261.465.451.449.605-.033.306.375.57.775.503.342-.059.71-.482.815-.939l.058-.248-.216.136c-.193.12-.2.1-.064-.19.152-.322.15-.327-.501-.798-.418-.302-.6-.394-.505-.254.207.302.075.44-.173.181-.298-.31-1.026-.506-1.081-.29-.033.13-.123.12-.344-.036-.319-.226-.517-.139-.285.126.16.183.114.175-.744-.122-.4-.138-.477-.136-.33.009.261.26.12.408-.183.193-.201-.143-.26-.133-.32.054s-.19.215-.64.153-.534-.043-.402.097c.228.241.27.51.055.358-.093-.067-.173-.055-.178.025-.013.207-.727.58-1.105.578-.176 0-.357.052-.403.117-.149.209-.677-.186-.816-.61-.128-.392-.275-.422-.21-.044.055.325-.173.252-.31-.1-.13-.328-.13-.328-.192-.007-.052.273-.105.323-.345.33-.16.005-.232.047-.165.097.185.138.016.276-.239.194-.132-.042-.247-.002-.272.095-.072.28-.731.183-1.077-.158-.258-.254-.3-.265-.286-.077a.62.62 0 0 0 .245.384c.126.089.201.2.168.248-.087.121-.54-.075-.777-.337-.144-.16-.181-.169-.134-.034.037.104.002.215-.076.248s-.074.108.02.175c.243.172-.162.25-.918.178-.345-.033-.692-.043-1.038-.03l-.417.028.366.352a2.17 2.17 0 0 0 .873.5c.278.082.481.184.45.227s-.16.045-.29.003-.263-.037-.296.01c-.098.139.657.305.91.2v-.001zm4.236 2.727c.596.087.94.28.378.212-.512-.062-.456.103.06.175.226.032.415-.002.42-.074s.073-.087.152-.03.21.074.29.04c.24-.102-.63-.45-1.278-.508-.526-.048-.722-.023-.587.073.029.02.283.07.565.111v.001zm2.031 1.085c.218.09.314.08.294-.032s-.175-.199-.48-.268c-.464-.104-.696-.041-.336.091.11.04.345.135.522.209zM4.367 9.826c-.094-.171-.211-.253-.387-.269-.209-.019-.186.023.136.247.338.234.37.237.251.022zm18.67 10.04c-.03-.149-.055-.143-.103.027a1.99 1.99 0 0 1-.163.39c-.056.093-.009.08.104-.027s.185-.284.163-.39h-.001zm-5.762-5.046c.451-.1 1.07-.677.747-.698-.076-.005-.184.056-.24.135-.214.302-.83.508-1.243.415-.54-.121-.6-.057-.11.118.206.074.587.087.846.03h0zm.074.456c.246.044.54.11.653.147.12.04.267-.025.355-.156l.15-.224-.241.155c-.132.085-.309.106-.393.046s-.391-.109-.684-.11c-.568-.002-.547.016.16.142h0zm-1.593-1.013c.015-.02-.022-.11-.082-.2s-.112-.105-.117-.027c-.008.131.144.305.2.227h-.001zm8.018 5.45c.048-.128.05-.226.006-.219-.09.015-.205.373-.136.421.023.017.081-.074.13-.202h0zm-.736-1.355c-.132-.147-.785-.256-1.072-.179-.11.03.112.11.493.179s.641.068.58 0h-.001zM5.185 5.954a.12.12 0 0 0-.033-.168c-.056-.04-.106-.01-.11.066s.01.151.033.168.073-.013.11-.066h0zm12.982 9.168c-.011-.03-.055-.167-.097-.304-.066-.212-.093-.225-.188-.092-.068.096-.03.213.098.304.114.081.199.122.187.092h0zm4.016 2.6c.005-.075-.034-.168-.087-.205s-.1-.006-.105.07a.26.26 0 0 0 .087.206c.053.037.1.006.105-.07v-.001zm.347-.173c.031-.243-.253-1.06-.406-1.168-.094-.067.205 1.287.302 1.364.04.031.087-.057.104-.196zm1.41 1.039c.036-.003-.048-.086-.185-.184s-.31-.152-.384-.121c-.12.05.387.322.57.305h-.001zm-1.083-1.294c-.04-.205-.084-.283-.099-.174-.046.348-.013.578.08.562.05-.009.059-.183.019-.388h0zM17.26 13.36c.019-.148-.028-.273-.104-.278-.089-.005-.132.068-.121.207.024.326.187.377.225.071h0zm6.1 4.34c.005-.08-.036-.18-.093-.22-.063-.044-.095.016-.084.161.02.252.162.3.177.06V17.7zM9.175 6.97c.025-.096-.008-.212-.073-.258-.092-.065-.111-.04-.085.113.018.109-.039.312-.127.451-.155.245-.153.247.04.062.11-.106.22-.272.245-.368h0zm9.367 6.724c.08-.566-.053-.507-.15.067-.042.252-.04.434.007.404s.11-.243.143-.471h0zm3.254 2.745c.005-.076-.035-.169-.088-.206s-.1-.006-.104.07.034.168.087.206.1.006.105-.07zm2.639.86c.037-.052.049-.109.025-.125s-.1-.006-.17.024-.081.086-.025.126.132.029.17-.024v-.001zM7.911 5.192c.018-.203.003-.22-.088-.097-.118.16-.12.376-.004.357.038-.007.08-.124.092-.26h0zm17.724 11.909c.004-.069-.09-.161-.207-.206-.175-.066-.178-.134-.017-.36.156-.22.155-.31-.005-.423s-.213-.094-.248.076a2.78 2.78 0 0 1-.215.546l-.168.327.426.082c.234.046.43.027.434-.042h0zM9.279 5.754c.086-.058.115-.135.064-.171s-.14-.001-.195.078-.086.156-.065.171.109-.02.196-.078zm3.016 1.925c.2.142.548.481.773.752.55.661.643.466.103-.215-.507-.638-1.185-1.023-1.71-.971l-.357.035.413.07a2.22 2.22 0 0 1 .778.329h0zm12.468 8.722c.017-.297-.244-.851-.339-.718-.03.044.018.206.109.362s.142.368.116.473-.016.184.024.177.08-.14.09-.294h0zM7.924 4.441c.006-.08-.13-.242-.3-.359l-.311-.212.25.36c.276.393.347.435.361.212v-.001zm15.718 10.443c-.054-.457.032-.456.569.004.565.485.923.539.916.137-.002-.123-.073-.244-.157-.27s-.18-.148-.213-.274c-.05-.187-.096-.215-.25-.154s-.191.025-.207-.229c-.015-.238-.032-.258-.08-.097-.119.406-.314.179-.295-.344a10.33 10.33 0 0 0-.01-.915l-.029-.381-.146.329c-.146.33-.146.33-.178.001-.023-.195-.097-.38-.214-.537-.152-.174-.195-.171-.255.017-.056.176-.119.192-.286.074-.207-.147-.212-.143-.175.165.02.174.095.34.165.37s.155.317.189.639c.055.524.231.926.253.577.019-.29.127-.036.22.517.101.593.244.883.183.371h0zm2.934-.197c.015-.021-.038-.084-.117-.14s-.174-.06-.21-.01.016.115.117.14.196.03.21.01z" fill="#000"/><path d="M14.372 0C6.435.001.001 6.435 0 14.372s6.434 14.372 14.372 14.373 14.373-6.435 14.373-14.373S22.31 0 14.372 0h0zm0 1.99c6.838 0 12.382 5.544 12.382 12.382S21.21 26.754 14.372 26.754 1.991 21.21 1.991 14.372 7.534 1.992 14.372 1.991V1.99z" fill="url(#A)"/></svg>