<svg width="1024" height="1024" viewBox="0 0 1024 1024" fill="none" xmlns="http://www.w3.org/2000/svg">
<g clip-path="url(#clip0_159_390)">
<path d="M512 1024C794.77 1024 1024 794.77 1024 512C1024 229.23 794.77 0 512 0C229.23 0 0 229.23 0 512C0 794.77 229.23 1024 512 1024Z" fill="#BDFF00"/>
<path d="M137 259H464.914V327.706H137V259Z" fill="#4200FF"/>
<path d="M137 696.219H464.914V764.924H137V696.219Z" fill="#4200FF"/>
<path d="M137 543.192H364.978V611.898H137V543.192Z" fill="#4200FF"/>
<path d="M137 410.465H364.978V479.171H137V410.465Z" fill="#4200FF"/>
<path d="M137 259H205.706V479.171H137V259Z" fill="#4200FF"/>
<path d="M137 543.192H205.706V763.363H137V543.192Z" fill="#4200FF"/>
<path d="M673.633 595.283L719.159 543.826L910.955 713.513L865.429 764.97L673.633 595.283Z" fill="#4200FF"/>
<path d="M911.477 310.458L865.951 259L674.155 428.687L719.681 480.145L911.477 310.458Z" fill="#4200FF"/>
<path d="M766.258 593.088L720.732 541.631L528.936 711.318L574.462 762.775L766.258 593.088Z" fill="#4200FF"/>
<path d="M528.935 310.458L574.461 259L766.257 428.687L720.732 480.145L528.935 310.458Z" fill="#4200FF"/>
</g>
<defs>
<clipPath id="clip0_159_390">
<rect width="1024" height="1024" fill="white"/>
</clipPath>
</defs>
</svg>
