<?xml version="1.0" encoding="UTF-8"?>
<svg width="200px" height="200px" viewBox="0 0 200 200" version="1.1" xmlns="http://www.w3.org/2000/svg" xmlns:xlink="http://www.w3.org/1999/xlink">
    <title>pIMX</title>
    <defs>
        <linearGradient x1="73.6030662%" y1="5.86412217%" x2="26.4426677%" y2="94.3102781%" id="linearGradient-1">
            <stop stop-color="#00EAFF" offset="0%"></stop>
            <stop stop-color="#0080FF" offset="25.2530882%"></stop>
            <stop stop-color="#8000FF" offset="49.7394282%"></stop>
            <stop stop-color="#E619E6" offset="74.9912298%"></stop>
            <stop stop-color="#FF0000" offset="99.9136118%"></stop>
        </linearGradient>
    </defs>
    <g id="Page-1" stroke="none" stroke-width="1" fill="none" fill-rule="evenodd">
        <g id="pIMX">
            <circle id="bg" fill="url(#linearGradient-1)" cx="100" cy="100" r="100"></circle>
            <path d="M159.741007,51 L108.633094,109.419753 C107.338129,110.888889 107.251799,113.135802 108.546763,114.691358 L137.985612,149 L124.863309,149 L97.6690647,117.197531 L96.2877698,115.469136 C94.9928058,114 95.0791367,111.666667 96.3741007,110.197531 L147.136691,51 L159.741007,51 Z M52.9496403,51 L93.0935252,97.5802469 C94.1294964,98.962963 94.3021583,100.950617 93.1798561,102.246914 C89.4600131,106.550499 83.3710569,113.646047 77.0504465,121.024598 L76.1461571,122.080331 L74.5296115,123.968 C74.0984817,124.471502 73.6675906,124.974775 73.2376089,125.477032 L72.2719677,126.605064 C72.0578475,126.855208 71.8440805,127.104952 71.6307504,127.354195 L70.9921547,128.100325 C61.5415843,139.142756 53.1223022,149 53.1223022,149 L40,149 L80.2302158,102.419753 C81.5251799,100.950617 81.5251799,98.7037037 80.2302158,97.2345679 L40.3453237,51 L52.9496403,51 Z M122.446043,105.530864 L160,149 L148.086331,149 C148.086331,149 141.182619,140.923832 133.818659,132.314312 L133.028196,131.390166 C132.764317,131.081666 132.500144,130.77283 132.235971,130.464 L131.443747,129.537875 L130.653283,128.613854 C128.154797,125.693292 125.709292,122.835375 123.568429,120.334701 L122.902788,119.557233 C121.265468,117.644969 119.834532,115.974691 118.733813,114.691358 C117.870504,113.740741 117.611511,112.358025 117.870504,111.148148 C118.129496,110.45679 118.561151,109.765432 119.079137,109.246914 L122.446043,105.530864 Z M88.8633094,118.925926 C88.8633094,118.925926 91.7122302,122.296296 92.6618705,123.419753 C93.9568345,124.975309 93.8705036,127.222222 92.5755396,128.691358 L88.6906475,133.271605 L75.2230216,149 L63.0503597,149 L88.8633094,118.925926 Z M75.0503597,51 C75.0503597,51 82.5933612,60.0248148 90.3743728,69.0580528 L91.1661981,69.976365 L91.9787764,70.9166933 C96.8503451,76.5476317 101.618478,81.9389994 104.489209,84.8765432 C105.784173,86.1728395 105.52518,87.8148148 104.402878,89.1111111 C100.628983,93.5972222 100.220425,94.0694444 100.177553,94.1180068 L62.9640288,51 L75.0503597,51 Z M137.122302,51 L111.309353,81.0740741 C111.309353,81.0740741 108.374101,77.7037037 107.42446,76.5802469 C106.129496,75.0246914 106.215827,72.7777778 107.510791,71.308642 L111.395683,66.7283951 L124.863309,51 L137.122302,51 Z" id="IMX" fill="#FFFFFF" fill-rule="nonzero"></path>
        </g>
    </g>
</svg>