<svg width="40" height="40" viewBox="0 0 40 40" fill="none" xmlns="http://www.w3.org/2000/svg">
<g clip-path="url(#clip0_46_43)">
<path d="M40 20C40 8.9543 31.0457 0 20 0C8.9543 0 0 8.9543 0 20C0 31.0457 8.9543 40 20 40C31.0457 40 40 31.0457 40 20Z" fill="#00CC90"/>
<path d="M39.875 20C39.875 9.02334 30.9767 0.125 20 0.125C9.02334 0.125 0.125 9.02334 0.125 20C0.125 30.9767 9.02334 39.875 20 39.875C30.9767 39.875 39.875 30.9767 39.875 20Z" stroke="black" stroke-opacity="0.1" stroke-width="0.25"/>
<path fill-rule="evenodd" clip-rule="evenodd" d="M11.5632 26.7047C10.9658 26.339 10.6001 25.6896 10.6001 24.9902V21.0856C10.6001 20.622 10.9778 20.2464 11.4414 20.2484C11.5892 20.2484 11.7351 20.2883 11.863 20.3623L20.6732 25.4997C21.1887 25.7995 21.5065 26.351 21.5065 26.9485V30.9929C21.5085 31.5484 21.0588 32 20.5033 32C20.3175 32 20.1337 31.948 19.9758 31.8521L11.5632 26.7047ZM24.6956 19.2932C25.2112 19.593 25.5269 20.1465 25.5289 20.7419V28.9507C25.5289 29.1925 25.399 29.4163 25.1872 29.5342L23.2589 30.6192C23.2349 30.6332 23.2089 30.6432 23.181 30.6512V26.0932C23.181 25.5037 22.8712 24.9562 22.3637 24.6525L14.6265 20.0246V14.8791C14.6265 14.4155 15.0042 14.0399 15.4678 14.0419C15.6157 14.0419 15.7615 14.0818 15.8894 14.1558L24.6956 19.2932ZM28.5522 13.2306C29.0698 13.5303 29.3875 14.0838 29.3875 14.6813V26.6707C29.3855 26.9165 29.2496 27.1423 29.0338 27.2602L27.2054 28.2473V19.9007C27.2054 19.3112 26.8957 18.7657 26.3921 18.462L18.4831 13.7181V8.83845C18.4831 8.69058 18.5231 8.54471 18.595 8.41682C18.8288 8.01718 19.3424 7.8813 19.742 8.11309L28.5522 13.2306Z" fill="white"/>
<g style="mix-blend-mode:soft-light" opacity="0.25">
<path d="M40 20C40 8.9543 31.0457 0 20 0C8.9543 0 0 8.9543 0 20C0 31.0457 8.9543 40 20 40C31.0457 40 40 31.0457 40 20Z" fill="url(#paint0_linear_46_43)"/>
</g>
</g>
<defs>
<linearGradient id="paint0_linear_46_43" x1="20" y1="0" x2="20" y2="40" gradientUnits="userSpaceOnUse">
<stop stop-color="white"/>
<stop offset="0.0666667" stop-color="#FDFDFD"/>
<stop offset="0.133333" stop-color="#F6F6F6"/>
<stop offset="0.2" stop-color="#EAEAEA"/>
<stop offset="0.266667" stop-color="#D9D9D9"/>
<stop offset="0.333333" stop-color="#C4C4C4"/>
<stop offset="0.4" stop-color="#AAAAAA"/>
<stop offset="0.466667" stop-color="#8E8E8E"/>
<stop offset="0.533333" stop-color="#717171"/>
<stop offset="0.6" stop-color="#555555"/>
<stop offset="0.666667" stop-color="#3B3B3B"/>
<stop offset="0.733333" stop-color="#262626"/>
<stop offset="0.8" stop-color="#151515"/>
<stop offset="0.866667" stop-color="#090909"/>
<stop offset="0.933333" stop-color="#020202"/>
<stop offset="1"/>
</linearGradient>
<clipPath id="clip0_46_43">
<rect width="40" height="40" fill="white"/>
</clipPath>
</defs>
</svg>
