<svg xmlns="http://www.w3.org/2000/svg" width="135" height="133" fill-rule="evenodd" xmlns:v="https://vecta.io/nano"><path d="M48 .017c5.571.868 11.071.868 16.5 0 3.209 1.179 5.709 3.179 7.5 6v2c-1.575-3.135-4.242-4.802-8-5 .47 4.47-.53 4.97-3 1.5-2.951-.096-5.618-.929-8-2.5-1.342 1.505-3.008 2.171-5 2v-4z" fill="#326a9d" opacity=".939"/><path d="M48 .017v4c-2.424.531-4.757 1.364-7 2.5 1.405 1.269 3.071 1.769 5 1.5v4h-3a4.93 4.93 0 0 1-3-.5c.951-.718 1.117-1.551.5-2.5l-6.5 5 6-9a28.04 28.04 0 0 1 5-1.5c-.837-1.011-1.17-2.178-1-3.5h4z" fill="#264f79" opacity=".592"/><path d="M105 16.017c-1.376-2.781-3.709-4.447-7-5-1.211-1.22-1.211-2.387 0-3.5l-3-1.5c-1.196.346-1.196.846 0 1.5-2.164.433-4.164-.067-6-1.5a7.29 7.29 0 0 0-3 2l-3-4-3 4c-1.431-.381-2.264-1.381-2.5-3-1.392 2.778-1.892 5.778-1.5 9-.871-2.503-1.537-5.17-2-8 .761-.891 1.761-1.558 3-2a4.85 4.85 0 0 0 1-4c10.917-.317 19.75 3.683 26.5 12a8.43 8.43 0 0 1 .5 4z" fill="#2e5e90"/><path d="M72 8.017c1.431 1.28 2.098 2.947 2 5-7.769-1.461-15.435-.961-23 1.5-1.616.615-2.95 1.615-4 3 1.077.47 2.077.303 3-.5 1.431.582 2.764 1.415 4 2.5a4.93 4.93 0 0 1-3 .5 24.93 24.93 0 0 1-1 8h-3c-.277-2.947.056-5.781 1-8.5-.916-.374-1.75-.874-2.5-1.5-.05-2.244-.883-3.911-2.5-5v-1h3v-4c-1.929.269-3.595-.231-5-1.5 2.243-1.136 4.576-1.969 7-2.5 1.992.172 3.658-.495 5-2 2.382 1.571 5.049 2.404 8 2.5 2.47 3.47 3.47 2.97 3-1.5 3.758.198 6.425 1.865 8 5z" fill="#5389b8"/><path d="M80 8.017c.645 1.312 1.645 2.312 3 3 1.333-1.333 2.667-1.333 4 0a19.23 19.23 0 0 1 3 5c-2.82-.252-5.487.248-8 1.5 1.293.49 2.627.657 4 .5v1l2 4c-.746 1.236-1.079 2.57-1 4a45.53 45.53 0 0 0-8-10c-1.194-.772-2.193-1.772-3-3-.392-3.222.108-6.222 1.5-9 .236 1.619 1.069 2.619 2.5 3z" fill="#558db8"/><path d="M43 12.017v1c-.748 2.084-.748 4.084 0 6-.956 1.575-1.623 3.242-2 5h-4c1.468-2.416 2.135-5.082 2-8-1.791.134-3.458-.199-5-1v-1l6.5-5c.617.949.451 1.782-.5 2.5a4.93 4.93 0 0 0 3 .5z" fill="#366da3"/><path d="M105 16.017v2c-4.846-1.539-9.846-2.206-15-2a19.23 19.23 0 0 0-3-5c-1.333-1.333-2.667-1.333-4 0-1.355-.688-2.355-1.688-3-3a171.62 171.62 0 0 0 3-4l3 4a7.29 7.29 0 0 1 3-2c1.836 1.433 3.836 1.933 6 1.5-1.196-.654-1.196-1.154 0-1.5l3 1.5c-1.211 1.113-1.211 2.28 0 3.5 3.291.553 5.624 2.219 7 5z" fill="#477dad"/><path d="M72 6.017h2c.463 2.83 1.129 5.497 2 8 .806 1.228 1.806 2.228 3 3v1c-2.627-2.101-5.627-3.434-9-4-4.532-.318-8.866.015-13 1h-1c-2.398-.241-4.398.426-6 2-.923.803-1.923.97-3 .5 1.05-1.385 2.384-2.385 4-3 7.565-2.461 15.231-2.961 23-1.5.098-2.053-.569-3.72-2-5v-2z" fill="#0d294c"/><path d="M34 15.017c1.542.801 3.209 1.134 5 1 .135 2.918-.532 5.584-2 8-.992-.172-1.658.162-2 1a11.45 11.45 0 0 0-5 3v1c-2.953-.35-5.287.65-7 3 3.084-3.092 6.084-6.426 9-10a4.45 4.45 0 0 0-2-1.5c3.376-.307 4.71-2.14 4-5.5z" fill="#4c85b6"/><path d="M56 15.017h1 5c-.219 1.175.114 2.175 1 3 1.435-1.901 3.102-2.234 5-1-.468 1.634-1.468 2.8-3 3.5a3.43 3.43 0 0 0 2.5 1.5c1.057-1.127 2.223-1.627 3.5-1.5 1.957 1.746 2.957 3.912 3 6.5h-5c-.291-1.149-1.124-1.816-2.5-2-4.176 1.283-8.342 1.283-12.5 0-.117-1.983.55-3.65 2-5l-2-3c.743-.682 1.409-1.348 2-2z" fill="#538bbc"/><path d="M90 16.017c5.154-.206 10.154.461 15 2l5 6c-3.712-2.523-7.712-4.523-12-6-3.867-1.226-7.867-1.226-12 0-1.373.157-2.707-.01-4-.5 2.513-1.252 5.18-1.752 8-1.5z" fill="#183856"/><path d="M98 18.017c-1.495-.085-2.495.582-3 2 .848 1.909 1.182 3.909 1 6-1.431.582-2.764 1.415-4 2.5.556.383.889.883 1 1.5-1.322-.17-2.489.163-3.5 1 1.113-3.506 1.446-7.172 1-11-1.356-.88-2.856-1.213-4.5-1v-1c4.133-1.226 8.133-1.226 12 0z" fill="#477aa9"/><path d="M57 15.017c4.134-.985 8.468-1.318 13-1v4c3.389 1.55 6.055 4.05 8 7.5 1.293.49 2.627.657 4 .5v-3c2.249 1.831 3.415 4.164 3.5 7-1.113-.805-2.279-1.472-3.5-2-2.448-.973-5.115-1.306-8-1-.043-2.588-1.043-4.754-3-6.5-1.277-.127-2.443.373-3.5 1.5a3.43 3.43 0 0 1-2.5-1.5c1.532-.7 2.532-1.866 3-3.5-1.898-1.234-3.565-.901-5 1-.886-.825-1.219-1.825-1-3h-5z" fill="#4b7faf"/><path d="M43 13.017c1.617 1.089 2.45 2.756 2.5 5 .75.626 1.584 1.126 2.5 1.5-.944 2.719-1.277 5.553-1 8.5h3l-5 4h-1v-8h-3c.377-1.758 1.044-3.425 2-5-.748-1.916-.748-3.916 0-6z" fill="#4f87ba"/><path d="M70 14.017c3.373.566 6.373 1.899 9 4a18.94 18.94 0 0 0 3 5v3c-1.373.157-2.707-.01-4-.5-1.945-3.45-4.611-5.95-8-7.5v-4z" fill="#5789bb"/><path d="M56 15.017l-2 2 2 3c-1.45 1.35-2.117 3.017-2 5 4.158 1.283 8.324 1.283 12.5 0 1.376.184 2.209.851 2.5 2-6.392-.251-12.725.082-19 1a24.93 24.93 0 0 0 1-8 4.93 4.93 0 0 0 3-.5c-1.236-1.085-2.569-1.918-4-2.5 1.602-1.574 3.602-2.241 6-2z" fill="#4f81ae"/><path d="M98 18.017c4.288 1.477 8.288 3.477 12 6a6.54 6.54 0 0 1 3 3 63.67 63.67 0 0 0-13 3h-1a14.69 14.69 0 0 0-2-9c.627-.917.961-1.917 1-3z" fill="#4579ac"/><path d="M35 25.017c1.274.689 1.274 1.523 0 2.5-1.634.494-3.301.66-5 .5a11.45 11.45 0 0 1 5-3z" fill="#08274e"/><path d="M37 24.017h4 3v8c-1.207.689-2.541.855-4 .5-1.718 4.746-2.718 4.579-3-.5 1.157-2.526 1.157-5.193 0-8z" fill="#609cce"/><path d="M69 27.017h5c2.885-.306 5.552.027 8 1-3.542-.313-6.875.021-10 1a220.94 220.94 0 0 0-21 .5c-3.643 1.805-5.976 4.638-7 8.5-1.308-2.138-.975-4.138 1-6l5-4c6.275-.918 12.608-1.251 19-1z" fill="#13385f"/><path d="M72 29.017c2.831.579 5.164 1.912 7 4 .172.992-.162 1.658-1 2-7.317-5.205-15.317-6.371-24-3.5a110.92 110.92 0 0 0-10 6.5c1.024-3.862 3.357-6.695 7-8.5a220.94 220.94 0 0 1 21-.5z" fill="#547ba0"/><path d="M113 27.017c.901.791 1.568 1.791 2 3-5.249.141-10.249.141-15 0a63.67 63.67 0 0 1 13-3z" fill="#133452"/><path d="M35 25.017c.342-.838 1.008-1.172 2-1 1.157 2.807 1.157 5.474 0 8-.533 2.622-1.533 5.122-3 7.5a28.04 28.04 0 0 1 5 1.5c1.276 1.114 1.276 2.114 0 3 .131-.876-.203-1.543-1-2-1 1.333-2 1.333-3 0a4.85 4.85 0 0 0-1 4c-.438 1.006-1.104 1.006-2 0 .603-2.541.603-4.874 0-7 .362-2.931 1.028-6.098 2-9.5-1.293-.49-2.627-.657-4-.5v-1c1.699.16 3.366-.006 5-.5 1.274-.977 1.274-1.811 0-2.5z" fill="#4075a1"/><path d="M78 35.017l7.5 6a8.8 8.8 0 0 1 1.5 5c-1.283-2.368-2.95-4.535-5-6.5a24.94 24.94 0 0 0-7-.5c-5.141-.988-10.474-1.321-16-1 .237 1.291-.096 2.291-1 3-.47-1.194-1.47-1.86-3-2l-3 .5 5 3.5v1c-2.48-.742-4.813-1.742-7-3-1.714-1.238-3.714-1.905-6-2v-1a110.92 110.92 0 0 1 10-6.5c8.683-2.871 16.683-1.705 24 3.5z" fill="#15304a"/><path d="M56 32.017c7.66-1.132 14.66.368 21 4.5-8 .667-16 .667-24 0-.951-.718-1.117-1.551-.5-2.5 1.302-.585 2.469-1.251 3.5-2z" fill="#477aa7"/><path d="M91 39.017a12.07 12.07 0 0 0 4-3c.848 1.125 1.848 1.125 3 0v2 1c-4.658 2.566-6.324 6.233-5 11 .61.891.943 1.891 1 3v1h-1c-.132-2.507-1.132-3.174-3-2 .045-2.577-.955-4.577-3-6a8.8 8.8 0 0 0-1.5-5 125.7 125.7 0 0 0-7.5-6c.838-.342 1.172-1.008 1-2h2c-3.861-4.195-2.861-5.028 3-2.5 2.557 2.892 4.724 6.059 6.5 9.5a.91.91 0 0 0 .5-1z" fill="#4f7699"/><path d="M81 33.017a39.43 39.43 0 0 1 10 11l-1 1-9-12z" fill="#0e3051"/><path d="M79 17.017a45.53 45.53 0 0 1 8 10c.466 4.39 1.799 8.39 4 12a.91.91 0 0 1-.5 1c-1.776-3.441-3.943-6.608-6.5-9.5-5.861-2.528-6.861-1.695-3 2.5h-2c-1.836-2.088-4.169-3.421-7-4 3.125-.979 6.458-1.313 10-1 1.221.528 2.387 1.195 3.5 2-.085-2.836-1.251-5.169-3.5-7a18.94 18.94 0 0 1-3-5v-1z" fill="#123250"/><path d="M99 30.017h1c4.751.141 9.751.141 15 0 2.179.34 4.012 1.34 5.5 3 .029 2.461.196 5.128.5 8-2.13-1.627-4.13-3.46-6-5.5-4.333-.667-8.667-.667-13 0a16.57 16.57 0 0 0-4 2.5v-2c.847-1.466 2.18-2.3 4-2.5l6.5-.5c3.687.045 7.187.545 10.5 1.5a7.29 7.29 0 0 0-3-2c-5.749-.785-11.416-.618-17 .5v-3z" fill="#456584"/><path d="M98 18.017c-.039 1.083-.373 2.083-1 3a14.69 14.69 0 0 1 2 9v3l-4 3a12.07 12.07 0 0 1-4 3c-2.201-3.61-3.534-7.61-4-12-.079-1.43.254-2.764 1-4l-2-4c1.644-.213 3.144.12 4.5 1 .446 3.828.113 7.494-1 11 1.011-.837 2.178-1.17 3.5-1 .897 1.098 1.73 1.098 2.5 0a8.43 8.43 0 0 0 .5-4c.182-2.091-.152-4.091-1-6 .505-1.418 1.505-2.085 3-2z" fill="#5f91be"/><path d="M96 26.017a8.43 8.43 0 0 1-.5 4c-.77 1.098-1.603 1.098-2.5 0-.111-.617-.444-1.117-1-1.5 1.236-1.085 2.569-1.918 4-2.5z" fill="#052949"/><path d="M98 36.017c-1.152 1.125-2.152 1.125-3 0l4-3c5.584-1.118 11.251-1.285 17-.5a7.29 7.29 0 0 1 3 2c-3.313-.955-6.813-1.455-10.5-1.5l-6.5.5c-1.82.2-3.153 1.034-4 2.5z" fill="#0d2a46"/><path d="M30 29.017c1.373-.157 2.707.01 4 .5-.972 3.402-1.638 6.569-2 9.5-.685 1.914-1.185 3.914-1.5 6-1.786-2.96-2.453-5.96-2-9-2.398 2.478-2.898 5.144-1.5 8a22.08 22.08 0 0 0-4 10c-1.066-1.192-1.899-.859-2.5 1 1.011-6.005.177-6.338-2.5-1-2.198-.38-3.865.287-5 2h-3v-3l6-1c-.971-6.759 1.195-12.093 6.5-16 .49-1.293.657-2.627.5-4 1.713-2.35 4.047-3.35 7-3z" fill="#578cbd"/><path d="M34 15.017c.71 3.359-.624 5.193-4 5.5a4.45 4.45 0 0 1 2 1.5c-2.916 3.574-5.916 6.908-9 10 .157 1.373-.01 2.707-.5 4-5.305 3.907-7.471 9.241-6.5 16l-6 1v3h3a6.54 6.54 0 0 1-3 3H8c-.789-.283-1.456-.783-2-1.5a28.8 28.8 0 0 1 7-10c-3.485-.493-3.985-1.993-1.5-4.5a33.86 33.86 0 0 1 6-5c2.438-4.767 5.271-9.267 8.5-13.5-1.231-1.183-1.231-2.349 0-3.5 2.968-1.64 5.635-3.64 8-6z" fill="#316393" opacity=".929"/><path d="M37 32.017c.282 5.079 1.282 5.246 3 .5 1.459.355 2.793.189 4-.5h1c-1.975 1.862-2.308 3.862-1 6v1c-1.143.408-2.143 1.075-3 2 .118 4.217.785 8.55 2 13-4.249.199-8.249 1.032-12 2.5-.457-.414-.791-.914-1-1.5a29.36 29.36 0 0 0 2-9c.896 1.006 1.562 1.006 2 0 2.014.108 3.681-.558 5-2 1.276-.886 1.276-1.886 0-3a28.04 28.04 0 0 0-5-1.5c1.467-2.378 2.467-4.878 3-7.5z" fill="#4f87b8"/><path d="M75 39.017a24.94 24.94 0 0 1 7 .5c2.05 1.965 3.717 4.132 5 6.5-.986 1.908-2.652 2.908-5 3-2.559.302-4.893-.032-7-1 1.234-3.035 1.234-6.035 0-9z" fill="#eff0f2"/><path d="M121 41.017c.083 2.236-.25 4.57-1 7-8.75 3.181-17.75 3.848-27 2-1.324-4.767.342-8.434 5-11v-1a16.57 16.57 0 0 1 4-2.5c4.333-.667 8.667-.667 13 0 1.87 2.04 3.87 3.873 6 5.5z" fill="#1c2e47"/><path d="M98 39.017a60.94 60.94 0 0 1 11 .5c.566.995 1.233 1.828 2 2.5v3c-1.109-.057-2.109-.39-3-1-.311-.978-.978-1.645-2-2-.925 1.141-1.759 1.141-2.5 0-.278.916-.778 1.583-1.5 2-1.28 1.431-2.947 2.098-5 2v-3c.934-1.068 1.268-2.401 1-4z" fill="#030407"/><path d="M104 36.017a50.44 50.44 0 0 1 10 .5c2.138 1.422 3.305 3.255 3.5 5.5-4.95-3.228-10.45-4.728-16.5-4.5 1.237-.232 2.237-.732 3-1.5z" fill="#41638d"/><path d="M58 41.017c.172.992-.162 1.658-1 2l-5-3.5 3-.5c1.53.14 2.53.806 3 2z" fill="#d0d3d9"/><path d="M39 44.017c-1.319 1.442-2.986 2.108-5 2a4.85 4.85 0 0 1 1-4c1 1.333 2 1.333 3 0 .797.457 1.131 1.124 1 2z" fill="#0e3152"/><path d="M44 39.017c2.286.095 4.286.762 6 2-.098 2.053.569 3.72 2 5v1h-4v7h-3c-.17 1.322.163 2.489 1 3.5 2.179-.284 4.179-.117 6 .5-1.511 1.002-3.178 1.669-5 2-.333 4-.667 4-1 0-.473-1.406-1.473-2.073-3-2 .905-1.464.905-2.798 0-4-1.215-4.45-1.882-8.783-2-13 .857-.925 1.857-1.592 3-2z" fill="#5189bb"/><path d="M102 44.017c-1.837-.139-2.17-.806-1-2 .798.457 1.131 1.124 1 2z" fill="#5a6468"/><path d="M75 39.017c1.234 2.965 1.234 5.965 0 9-.838.342-1.172 1.008-1 2h-3c-5.437-.39-10.104-2.39-14-6v-1c.838-.342 1.172-1.008 1-2 .904-.709 1.237-1.709 1-3 5.526-.321 10.859.012 16 1z" fill="#0e1014"/><path d="M68 42.017h4v3h-4v-3z" fill="#d0cfd5"/><path d="M62 43.017h3c-.746 3.81-1.746 3.81-3 0z" fill="#5f5e58"/><path d="M110 50.017a20.69 20.69 0 0 0 1-5v-3c.751-1.073 1.751-1.24 3-.5 4.653 1.914 4.986 4.247 1 7a8.8 8.8 0 0 1-5 1.5z" fill="#dde4e0"/><path d="M108 44.017c.891.61 1.891.943 3 1a20.69 20.69 0 0 1-1 5c-4.532.318-8.866-.015-13-1v-3c2.053.098 3.72-.569 5-2 .722-.417 1.222-1.084 1.5-2 .741 1.141 1.575 1.141 2.5 0 1.022.355 1.689 1.022 2 2z" fill="#101012"/><path d="M108 44.017c-.167 3.457-1.167 3.79-3 1 .825-.886 1.825-1.219 3-1z" fill="#cacccf"/><path d="M32 39.017c.603 2.126.603 4.459 0 7-.768.763-1.268 1.763-1.5 3-.383-.556-.883-.889-1.5-1 .343-1.983-.323-3.317-2-4-1.398-2.856-.898-5.522 1.5-8-.453 3.04.214 6.04 2 9 .315-2.086.815-4.086 1.5-6z" fill="#13395d"/><path d="M27 44.017c1.677.683 2.343 2.017 2 4 .268 1.599-.066 2.932-1 4a40.55 40.55 0 0 1-7 8l-1-2 3-4a22.08 22.08 0 0 1 4-10z" fill="#649bca"/><path d="M97 43.017v3 3h-4c.454-2.64 1.621-4.973 3.5-7a.91.91 0 0 1 .5 1z" fill="#9c9ea2"/><path d="M50 41.017c2.187 1.258 4.52 2.258 7 3 3.896 3.61 8.563 5.61 14 6 4.85 1.254 9.85 1.254 15 0l2 1c-1.64 2.14-3.807 3.14-6.5 3a77.79 77.79 0 0 1-23.5-4.5c-1.517-1.685-3.184-3.185-5-4.5-.607.124-.94.457-1 1-1.431-1.28-2.098-2.947-2-5z" fill="#3c6489"/><path d="M71 50.017h3c2.885.306 5.552-.027 8-1 2.348-.092 4.014-1.092 5-3 2.045 1.423 3.045 3.423 3 6-1.21.432-2.21 1.099-3 2a15.33 15.33 0 0 0-7 6c-.739.131-1.406-.036-2-.5l4-4-14-1.5h-4c-1.815-1.13-3.815-1.796-6-2a11.1 11.1 0 0 0-6-5v-1c.06-.543.393-.876 1-1 1.816 1.315 3.483 2.815 5 4.5a77.79 77.79 0 0 0 23.5 4.5c2.693.14 4.86-.86 6.5-3l-2-1c-5.15 1.254-10.15 1.254-15 0z" fill="#133152"/><path d="M75 48.017c2.107.968 4.441 1.302 7 1-2.448.973-5.115 1.306-8 1-.172-.992.162-1.658 1-2z" fill="#7f8b96"/><path d="M120 48.017c-.58 2.249-1.913 3.915-4 5l-6 1.5c4.897 1.06 4.563 2.227-1 3.5 2.983.777 5.317-.223 7-3 4.19 3.563 5.523 7.896 4 13l-4 1a85.95 85.95 0 0 1-4.5-4l-1 1c-.483-.948-.649-1.948-.5-3 1.644-.213 3.144.12 4.5 1 5.091-.721 5.591-2.387 1.5-5-3.25.608-5.583 1.608-7 3-.881-2.854-1.047-5.854-.5-9l-2 4c-.383-.556-.883-.889-1.5-1-3.192-1.889-6.858-2.889-11-3-.057-1.109-.39-2.109-1-3 9.25 1.848 18.25 1.181 27-2z" fill="#335e8a"/><path d="M52 47.017a11.1 11.1 0 0 1 6 5v3c-2.488.183-4.488 1.183-6 3-1.821-.617-3.821-.784-6-.5-.837-1.011-1.17-2.178-1-3.5h3v-7h4z" fill="#5d95c6"/><path d="M116 53.017v2c-1.683 2.777-4.017 3.777-7 3 5.563-1.273 5.897-2.44 1-3.5l6-1.5z" fill="#022249" opacity=".349"/><path d="M23 54.017l-3 4c-1.677-.683-2.343-2.017-2-4 2.677-5.338 3.511-5.005 2.5 1 .601-1.859 1.434-2.192 2.5-1z" fill="#0d2740"/><path d="M32 46.017a29.36 29.36 0 0 1-2 9c.209.586.543 1.086 1 1.5 3.751-1.468 7.751-2.301 12-2.5.905 1.202.905 2.536 0 4-3.981-.504-6.981.829-9 4a4.93 4.93 0 0 0-3 .5c-1.621 2.166-2.455 4.666-2.5 7.5-.977 1.274-1.811 1.274-2.5 0 .199-6.059.866-12.059 2-18 .934-1.068 1.268-2.401 1-4 .617.111 1.117.444 1.5 1 .232-1.237.732-2.237 1.5-3z" fill="#3e75a7"/><path d="M94 54.017v-1c4.142.111 7.808 1.111 11 3-1.373-.157-2.707.01-4 .5.752.671 1.086 1.504 1 2.5l-8-5z" fill="#0d294a"/><path d="M64 54.017h4c.683 1.677 2.017 2.343 4 2-.204 2.185-.87 4.185-2 6l-4 1c-2.486-.645-4.819.022-7 2a9.86 9.86 0 0 1-6 1c.709-.904 1.709-1.237 3-1-.182-2.091.152-4.091 1-6 1.276-1.145 2.609-1.145 4 0 1.094-1.368.76-2.535-1-3.5 1.866 1.008 3.199.508 4-1.5z" fill="#4f86b7"/><path d="M68 54.017l14 1.5-4 4c.594.464 1.261.631 2 .5-1.014 1.174-2.347 1.84-4 2-1.847-1.073-3.847-1.073-6 0 1.13-1.815 1.796-3.815 2-6-1.983.343-3.317-.323-4-2z" fill="#3d6c98"/><path d="M18 54.017c-.343 1.983.323 3.317 2 4l1 2c-.973 2.448-1.306 5.115-1 8-1.121 2.454-1.954 5.121-2.5 8-.717-.544-1.217-1.211-1.5-2a45.55 45.55 0 0 0-1.5-14c-1.25 4.797-3.083 5.13-5.5 1l1-2a6.54 6.54 0 0 0 3-3c1.135-1.713 2.802-2.38 5-2z" fill="#5490bf"/><path d="M43 58.017c1.527-.073 2.527.594 3 2-4.273-.419-8.273.248-12 2 2.019-3.171 5.019-4.504 9-4z" fill="#08274a"/><path d="M87 54.017c-.343 4.293.324 8.626 2 13-2.561 1.045-4.894 2.378-7 4h-3c.117-1.983-.55-3.65-2-5-1.211.774-1.211 1.607 0 2.5a25.25 25.25 0 0 1-10 0c-.457-.414-.791-.914-1-1.5 2.243-.974 4.576-1.308 7-1v-3c1.109-.057 2.109-.39 3-1 1.653-.16 2.986-.826 4-2a15.33 15.33 0 0 1 7-6z" fill="#427caf"/><path d="M58 52.017c2.185.204 4.185.87 6 2-.801 2.008-2.134 2.508-4 1.5 1.76.965 2.094 2.132 1 3.5-1.391-1.145-2.724-1.145-4 0-.848 1.909-1.182 3.909-1 6-1.291-.237-2.291.096-3 1-2.87-1.134-5.87-1.8-9-2-1.788-1.123-3.788-1.289-6-.5-.752.671-1.086 1.504-1 2.5.129 1.716.462 3.383 1 5a11.74 11.74 0 0 0 3 5c-1.544-.203-2.878-.87-4-2-.98-2.587-1.313-5.253-1-8-.027-1.699-.694-3.033-2-4 3.727-1.752 7.727-2.419 12-2 .333 4 .667 4 1 0 1.822-.331 3.489-.998 5-2 1.512-1.817 3.512-2.817 6-3v-3z" fill="#3d6b96"/><path d="M93 54.017h1l8 5c1.312.645 2.312 1.645 3 3-.47.963-1.137.963-2 0-.283-.789-.783-1.456-1.5-2a8.43 8.43 0 0 0-.5 4c-1.762.143-3.429-.191-5-1-.978.477-1.811 1.143-2.5 2a60.93 60.93 0 0 1-.5-11z" fill="#3d77a9"/><path d="M109 62.017a41.54 41.54 0 0 1-1 8c-6.755.623-13.088-.044-19-2 4.681 1.027 9.347.694 14-1 .552-1.503.552-3.169 0-5 .863.963 1.53.963 2 0-.688-1.355-1.688-2.355-3-3 .086-.996-.248-1.829-1-2.5 1.293-.49 2.627-.657 4-.5.617.111 1.117.444 1.5 1l2-4c-.547 3.146-.381 6.146.5 9z" fill="#4b7fb3"/><path d="M76 62.017c-.891.61-1.891.943-3 1-2.614 1.045-5.28 1.545-8 1.5.556-.383.889-.883 1-1.5l4-1c2.153-1.073 4.153-1.073 6 0z" fill="#10385f"/><path d="M8 59.017h2l-1 2c2.417 4.13 4.25 3.797 5.5-1a45.55 45.55 0 0 1 1.5 14c-.817-2.469-1.317-5.135-1.5-8-.724 3.115-2.224 5.782-4.5 8-1.235-.84-2.235-1.84-3-3v-10l1-2z" fill="#4683b3"/><path d="M44 64.017c3.13.2 6.13.866 9 2 1.761.813 3.428 1.813 5 3-4.438-1.056-8.771-2.389-13-4-.667 0-1-.333-1-1z" fill="#23232e"/><path d="M28 52.017c-1.134 5.941-1.801 11.941-2 18l-4-1c.133-3.425-.534-3.758-2-1-.306-2.885.027-5.552 1-8a40.55 40.55 0 0 0 7-8z" fill="#4984b7"/><path d="M44 64.017c-2.688-.334-5.021.332-7 2-.086-.996.248-1.829 1-2.5 2.212-.789 4.212-.623 6 .5z" fill="#1a1925"/><path d="M66 63.017c-.111.617-.444 1.117-1 1.5 2.72.045 5.386-.455 8-1.5v3c-2.424-.308-4.757.026-7 1 .209.586.543 1.086 1 1.5a25.25 25.25 0 0 0 10 0c-1.211-.893-1.211-1.726 0-2.5 1.45 1.35 2.117 3.017 2 5h3 28c-10.487.994-21.154 1.328-32 1-6.472-1.41-13.139-2.41-20-3-1.572-1.187-3.239-2.187-5-3a9.86 9.86 0 0 0 6-1c2.181-1.978 4.514-2.645 7-2z" fill="#3f6e98"/><path d="M93 54.017a60.93 60.93 0 0 0 .5 11c.689-.857 1.522-1.523 2.5-2 1.571.809 3.238 1.143 5 1a8.43 8.43 0 0 1 .5-4c.717.544 1.217 1.211 1.5 2 .552 1.831.552 3.497 0 5-4.653 1.694-9.319 2.027-14 1v-1c-1.676-4.374-2.343-8.707-2-13 .79-.901 1.79-1.568 3-2 1.868-1.174 2.868-.507 3 2z" fill="#538cbf"/><path d="M44 64.017c0 .667.333 1 1 1v3c-3.505.194-3.838 1.194-1 3 4.764 5.219 9.764 10.219 15 15-1.637-.718-3.303-.885-5-.5.752.671 1.086 1.504 1 2.5-6.027-5.36-11.694-11.027-17-17-.538-1.617-.871-3.284-1-5 1.979-1.668 4.312-2.334 7-2z" fill="#853f28"/><path d="M58 69.017c6.861.59 13.528 1.59 20 3-4.014.165-8.014-.001-12-.5-3.022-.098-5.689-.932-8-2.5z" fill="#251d21"/><path d="M116 69.017c-1.602 1.574-3.602 2.241-6 2H82c2.106-1.622 4.439-2.955 7-4v1c5.912 1.956 12.245 2.623 19 2a41.54 41.54 0 0 0 1-8c1.417-1.392 3.75-2.392 7-3 4.091 2.613 3.591 4.279-1.5 5-1.356-.88-2.856-1.213-4.5-1-.149 1.052.017 2.052.5 3l1-1a85.95 85.95 0 0 0 4.5 4z" fill="#3871a2"/><path d="M45 65.017c4.229 1.611 8.562 2.944 13 4 2.311 1.568 4.978 2.402 8 2.5 3.986.499 7.986.665 12 .5v1c-4.055-.324-8.055.009-12 1l7 2h-4c-8.583-.305-16.583-2.638-24-7-.797.457-1.131 1.124-1 2-2.838-1.806-2.505-2.806 1-3v-3z" fill="#733828"/><path d="M120 68.017v2a59.44 59.44 0 0 0-10 3.5 24.94 24.94 0 0 1-7 .5 296.3 296.3 0 0 1-25-1v-1c10.846.328 21.513-.006 32-1 2.398.241 4.398-.426 6-2l4-1z" fill="#281f26"/><path d="M34 62.017c1.306.967 1.973 2.301 2 4-1.206 2.727-2.706 5.394-4.5 8-.495 1.973-.662 3.973-.5 6-1.898-.597-3.565-.597-5 0-1.624.14-2.79-.527-3.5-2l-.5-8v-1l4 1c.689 1.274 1.523 1.274 2.5 0 .045-2.834.879-5.334 2.5-7.5a4.93 4.93 0 0 1 3-.5z" fill="#558fc5"/><path d="M69 76.017c-.057 1.109-.39 2.109-1 3-.734 1.208-1.067 2.541-1 4-.077 1.25-.744 2.083-2 2.5-1.634.493-3.301.66-5 .5h-1c-5.236-4.781-10.236-9.781-15-15-.131-.876.203-1.543 1-2 7.417 4.362 15.417 6.695 24 7z" fill="#090202"/><path d="M38 71.017c5.306 5.973 10.973 11.64 17 17l10 10a36.61 36.61 0 0 1-7-4 57.47 57.47 0 0 0-9-9l-8-9a11.74 11.74 0 0 1-3-5z" fill="#271b24"/><path d="M120 70.017a42.23 42.23 0 0 0-5 7c-1.251 5.131-1.251 10.131 0 15-.057 1.109-.39 2.109-1 3-1.752.082-2.752-.751-3-2.5.848-2.77 1.181-5.603 1-8.5l-1-6c-8.517.326-16.85-.007-25-1 8.028.331 16.028-.002 24-1l-7-2a24.94 24.94 0 0 0 7-.5 59.44 59.44 0 0 1 10-3.5z" fill="#7b3826"/><path d="M78 73.017a296.3 296.3 0 0 0 25 1l7 2c-7.972.998-15.972 1.331-24 1h-8c-1.419-.951-3.085-1.284-5-1a246.13 246.13 0 0 0-7-2c3.945-.991 7.945-1.324 12-1z" fill="#904027"/><path d="M36 66.017c-.313 2.747.02 5.413 1 8 1.122 1.13 2.456 1.797 4 2l4 9h-4c-1.132-.854-2.465-.854-4 0-1.109-2.779-3.109-4.445-6-5-.162-2.027.005-4.027.5-6 1.794-2.606 3.294-5.273 4.5-8z" fill="#4076ae"/><path d="M7 61.017v10c-1.542 4.208-2.542 8.542-3 13-.639.597-.972 1.43-1 2.5a328.2 328.2 0 0 0 3 13.5c-.617-.111-1.117-.444-1.5-1-.497 4.024-.331 8.024.5 12-2.79-3.932-4.457-8.432-5-13.5.885-8.527 2.051-17.027 3.5-25.5.498-3.991 1.665-7.658 3.5-11z" fill="#235888" opacity=".494"/><path d="M69 76.017h4c1.915-.284 3.581.049 5 1 1.792.809 3.792 1.309 6 1.5.805 1.113 1.472 2.279 2 3.5l-4 6c-3.655-.575-6.655.425-9 3l-2 2c.667-4-1-5.667-5-5-.722.418-1.222 1.084-1.5 2-1.397-1.57-2.897-2.904-4.5-4 1.699.16 3.366-.007 5-.5 1.256-.417 1.923-1.25 2-2.5 1.888.775 3.888.775 6 0 .116-3.41-1.55-4.744-5-4 .61-.891.943-1.891 1-3z" fill="#160b05"/><path d="M78 77.017h8c8.15.993 16.483 1.326 25 1l1 6c-2.977-1.178-5.977-1.178-9 0 .271 1.88-.396 3.213-2 4v-4h-4c1.525-1.536 3.525-2.536 6-3l-1-1c-1.598.985-3.265 1.151-5 .5l2-1a30.5 30.5 0 0 0-11 0c1.098.77 1.098 1.603 0 2.5h-2c-.528-1.221-1.195-2.387-2-3.5-2.208-.191-4.208-.691-6-1.5z" fill="#1b0e0a"/><path d="M19 82.017v1c-1.431-.381-2.265-1.381-2.5-3a12.65 12.65 0 0 0-2.5 4c-.992.172-1.658-.162-2-1-.256-2.293.077-4.459 1-6.5.667-.667 1.333-.667 2 0-.951.718-1.117 1.551-.5 2.5 1.356-.88 2.856-1.213 4.5-1v4z" fill="#0e2847"/><path d="M68 79.017c3.45-.744 5.116.59 5 4-2.112.775-4.112.775-6 0-.067-1.459.266-2.792 1-4z" fill="#c5a379"/><path d="M26 80.017c1.208.734 2.541 1.067 4 1a4.93 4.93 0 0 0 .5 3l1-1c.606 7.661-.394 7.661-3 0-.671.752-1.504 1.086-2.5 1v-4z" fill="#05182f"/><path d="M75 82.017c1.548.321 2.215 1.321 2 3-2.748.098-3.414-.902-2-3z" fill="#a99775"/><path d="M97 84.017h4v4c1.604-.787 2.271-2.12 2-4 3.023-1.178 6.023-1.178 9 0 .181 2.897-.152 5.73-1 8.5.248 1.749 1.248 2.582 3 2.5v2h-2c-2.575-5.015-6.575-6.349-12-4 0-.667-.333-1-1-1-4.166-.965-6.499-3.632-7-8-.342-.838-1.008-1.172-2-1l-2-1c1.098-.897 1.098-1.73 0-2.5a30.5 30.5 0 0 1 11 0l-2 1c1.735.651 3.402.485 5-.5l1 1c-2.475.464-4.475 1.464-6 3z" fill="#110b0a"/><path d="M16 74.017c.283.789.783 1.456 1.5 2 .546-2.879 1.379-5.546 2.5-8 1.467-2.758 2.133-2.425 2 1v1l-3 12v-4c-1.644-.213-3.144.12-4.5 1-.617-.949-.451-1.782.5-2.5-.667-.667-1.333-.667-2 0-.923 2.041-1.256 4.207-1 6.5-.789.283-1.456.783-2 1.5 1.354 3.209 1.188 6.376-.5 9.5-1.424-3.797-1.924-7.797-1.5-12-1.699.027-3.033.694-4 2 .458-4.458 1.458-8.792 3-13 .765 1.16 1.765 2.16 3 3 2.276-2.218 3.776-4.885 4.5-8 .183 2.865.683 5.531 1.5 8z" fill="#3871a4"/><path d="M97 84.017h4v4h-4v-4z" fill="#c9a37e"/><path d="M22 70.017l.5 8c.71 1.473 1.876 2.14 3.5 2v4c-1.677.683-2.343 2.017-2 4-4.331 1.348-6.331 4.348-6 9-1.48-4.736-1.146-9.402 1-14v-1l3-12z" fill="#4d83b9"/><path d="M59 86.017h1c1.603 1.096 3.103 2.43 4.5 4 .278-.916.778-1.582 1.5-2 1.499.46 2.499 1.793 3 4h-3v3c2.014.108 3.68-.558 5-2l2-2c-.131.739.036 1.406.5 2 .654-1.196 1.154-1.196 1.5 0l-1 2c-2.792.122-4.792 1.456-6 4-.891-.61-1.891-.943-3-1l-10-10c.086-.996-.248-1.829-1-2.5 1.697-.385 3.363-.218 5 .5z" fill="#824226"/><path d="M86 82.017h2l2 1c-1.547 3.363-4.214 5.03-8 5l4-6z" fill="#c09b6a"/><path d="M26 84.017c.528 1.221 1.195 2.387 2 3.5-.944 2.719-1.277 5.552-1 8.5-1.435.596-3.102.596-5 0v6c-1.983.343-3.317-.324-4-2v-3c-.331-4.652 1.669-7.652 6-9-.343-1.983.323-3.317 2-4z" fill="#568fc1"/><path d="M115 77.017c4 5 4 10 0 15-1.251-4.869-1.251-9.869 0-15z" fill="#8e3a17"/><path d="M12 83.017c.342.838 1.008 1.172 2 1 .102 4.565.102 9.231 0 14-3.009.077-5.176-1.256-6.5-4-.191 2.208-.691 4.208-1.5 6a328.2 328.2 0 0 1-3-13.5c.028-1.07.361-1.903 1-2.5.967-1.306 2.301-1.973 4-2-.424 4.203.076 8.203 1.5 12 1.688-3.124 1.854-6.291.5-9.5.544-.717 1.211-1.217 2-1.5z" fill="#4780b1"/><path d="M90 83.017c.992-.172 1.658.162 2 1-.91 1.519-1.743 3.185-2.5 5-.383-.556-.883-.889-1.5-1-.992-.172-1.658.162-2 1-1.677.683-2.343 2.017-2 4-1.333 0-2 .667-2 2h-1c.333-3-1-4.333-4-4a27.22 27.22 0 0 1 5-3c3.786.03 6.453-1.637 8-5z" fill="#975822"/><path d="M88 88.017v5c-1.677-.683-2.343-2.017-2-4 .342-.838 1.008-1.172 2-1z" fill="#d5c54a"/><path d="M19 83.017c-2.146 4.598-2.48 9.264-1 14v3h-3c.172-.992-.162-1.658-1-2 .102-4.769.102-9.435 0-14a12.65 12.65 0 0 1 2.5-4c.235 1.619 1.069 2.619 2.5 3z" fill="#3e75a9"/><path d="M66 88.017c4-.667 5.667 1 5 5-1.32 1.442-2.986 2.108-5 2v-3h3c-.501-2.207-1.501-3.54-3-4z" fill="#be9876"/><path d="M41 76.017l8 9c2.136 3.662 1.47 6.996-2 10v4c-1.406.473-2.073 1.473-2 3-.722.418-1.222 1.084-1.5 2a52.56 52.56 0 0 1-1.5-7h-4v-3c-3.831-.084-7.497.583-11 2-.277-2.948.056-5.781 1-8.5-.805-1.113-1.472-2.279-2-3.5.996.086 1.829-.248 2.5-1 2.606 7.661 3.606 7.661 3 0l-1 1a4.93 4.93 0 0 1-.5-3c-1.459.067-2.792-.266-4-1 1.435-.597 3.102-.597 5 0 2.891.555 4.891 2.221 6 5 .842 6.53 2.175 6.53 4 0h4a251.73 251.73 0 0 1-4-9z" fill="#467dac"/><path d="M41 85.017c-1.825 6.53-3.158 6.53-4 0 1.535-.854 2.868-.854 4 0z" fill="#11335a"/><path d="M77 91.017c3-.333 4.333 1 4 4l-2 1a31.33 31.33 0 0 1-2-5z" fill="#dfa535"/><path d="M86 89.017c-.343 1.983.323 3.317 2 4 .864-.963 1.53-.963 2 0-2.178 2.538-4.178 2.538-6 0-.343-1.983.323-3.317 2-4z" fill="#ac7f21"/><path d="M49 85.017a57.47 57.47 0 0 1 9 9c-1.052-.149-2.052.017-3 .5 1.036 1.776 1.036 3.609 0 5.5h-3v3l-2 1-2 1v-2c.996.086 1.829-.248 2.5-1 .991-1.947 1.325-3.947 1-6a7.29 7.29 0 0 0-2 3c-.122-1.937-.955-3.27-2.5-4 3.47-3.004 4.136-6.338 2-10z" fill="#38719a"/><path d="M92 84.017c.501 4.368 2.834 7.035 7 8-2.317 1.897-4.65 3.897-7 6-3.786.18-7.119-.82-10-3 0-1.333.667-2 2-2 1.822 2.538 3.822 2.538 6 0-.47-.963-1.136-.963-2 0v-5c.617.111 1.117.444 1.5 1 .757-1.815 1.59-3.481 2.5-5z" fill="#d2a66e"/><path d="M99 92.017c.667 0 1 .333 1 1-3.503 3.003-6.836 6.17-10 9.5a3.94 3.94 0 0 0 1 2 12.93 12.93 0 0 0 5 .5v1h-5l-2-1-1-4 4-3c2.35-2.103 4.683-4.103 7-6z" fill="#2b302f"/><path d="M47 95.017c1.545.73 2.378 2.063 2.5 4a7.29 7.29 0 0 1 2-3c.325 2.053-.009 4.053-1 6-.671.752-1.504 1.086-2.5 1 .067-1.459-.266-2.792-1-4v-4z" fill="#0c3054"/><path d="M82 88.017a27.22 27.22 0 0 0-5 3 31.33 31.33 0 0 0 2 5l2-1h1c2.881 2.18 6.214 3.18 10 3l-4 3 1 4h-6c.268 1.599-.066 2.932-1 4 .215-1.679-.452-2.679-2-3v-8a12.93 12.93 0 0 1-5-.5c-.752-.671-1.086-1.504-1-2.5.304-.65.637-1.317 1-2-.346-1.196-.846-1.196-1.5 0-.464-.594-.631-1.261-.5-2 2.345-2.575 5.345-3.575 9-3z" fill="#b49367"/><path d="M14 98.017c.838.342 1.172 1.008 1 2 .295 2.235-.039 4.235-1 6-.958-1.462-2.124-2.795-3.5-4-1.049 1.607-2.549 2.273-4.5 2v-4c.809-1.792 1.309-3.792 1.5-6 1.324 2.744 3.491 4.077 6.5 4z" fill="#4d88bc"/><path d="M15 100.017h3c.683 1.676 2.017 2.343 4 2v4h-4c-.734 3.815-1.068 7.482-1 11-.841-1.426-1.841-2.76-3-4 1.333-2.333 1.333-4.667 0-7 .961-1.765 1.295-3.765 1-6z" fill="#477db4"/><path d="M38 97.017h4a52.56 52.56 0 0 0 1.5 7c.278-.916.778-1.582 1.5-2 .31 3.213-.023 6.213-1 9-.605-1.526-1.771-2.526-3.5-3l-1-4a50.44 50.44 0 0 0-.5 10c-.722 1.051-1.722 1.718-3 2a24.93 24.93 0 0 1-1-8 24.94 24.94 0 0 1 .5-7c1.706-.808 2.539-2.141 2.5-4z" fill="#4f8bbe"/><path d="M74 95.017c-.086.996.248 1.829 1 2.5a12.93 12.93 0 0 0 5 .5v8c-2.058 1.433-4.391 2.1-7 2v-3c-.168-2.551-1.168-3.218-3-2-1.604-.787-2.271-2.12-2-4 1.208-2.544 3.208-3.878 6-4z" fill="#dfad6c"/><path d="M88 101.017c-2.614.205-4.948.205-7 0 2.577-2.36 4.91-2.36 7 0z" fill="#1d0d13"/><path d="M38 97.017c.039 1.859-.794 3.192-2.5 4a24.94 24.94 0 0 0-.5 7c-2.4-2.189-4.067-4.856-5-8-1.593-1.367-2.926-1.034-4 1a15.42 15.42 0 0 1 1 7c-3.417.914-5.75 3.081-7 6.5.184 1.376.851 2.209 2 2.5-1.667 1.333-3.333 1.333-5 0-.068-3.518.266-7.185 1-11h4v-4-6c1.898.596 3.565.596 5 0 3.503-1.417 7.169-2.084 11-2v3z" fill="#346fa3"/><path d="M6 100.017v4c1.951.273 3.451-.393 4.5-2 1.376 1.205 2.542 2.538 3.5 4 1.333 2.333 1.333 4.667 0 7-1.235.221-2.235.888-3 2-1.469-2.136-3.469-3.47-6-4-.831-3.976-.997-7.976-.5-12 .383.556.883.889 1.5 1z" fill="#3f79af"/><path d="M58 94.017c1.438 3.216 2.605 6.549 3.5 10 .126 2.563.293 4.896.5 7-.235.597-.735.93-1.5 1-1.221-.772-2.221-1.772-3-3-.057-3.351-.891-6.351-2.5-9 1.036-1.891 1.036-3.724 0-5.5.948-.483 1.948-.649 3-.5z" fill="#5a93c5"/><path d="M58 94.017a36.61 36.61 0 0 0 7 4 142.26 142.26 0 0 0 6 12 19.24 19.24 0 0 0-1 6c2.755-1.625 5.255-1.292 7.5 1a4.93 4.93 0 0 1 .5 3c-1.669 1.64-3.669 2.974-6 4a7.11 7.11 0 0 1-1-5c1.175.219 2.175-.114 3-1-2.136-1.293-4.136-1.293-6 0-2.193-2.022-3.193-4.689-3-8-1.291-.237-2.291.096-3 1l-.5-7c-.895-3.451-2.062-6.784-3.5-10z" fill="#5086b9"/><path d="M73 105.017l-2 1c-.904-.709-1.237-1.709-1-3 1.832-1.218 2.832-.551 3 2z" fill="#6a4c2b"/><path d="M107 108.017c-2.9.943-5.233 2.61-7 5-.722 1.051-1.722 1.718-3 2-1.333-.667-2.333-1.667-3-3v-1c3.267.076 4.601-1.257 4-4a13.31 13.31 0 0 0 6-4.5c-2.667.826-5.334 1.992-8 3.5v-1c2.111-1.236 4.111-2.736 6-4.5 3.846-1.157 6.679.009 8.5 3.5.718-.951 1.551-1.117 2.5-.5-1.889 1.764-3.889 3.264-6 4.5z" fill="#0f0e14"/><path d="M94 111.017l2-3c-.825-.886-1.825-1.219-3-1-.992.172-1.658-.162-2-1h5c2.666-1.508 5.333-2.674 8-3.5a13.31 13.31 0 0 1-6 4.5c.601 2.743-.733 4.076-4 4z" fill="#61534a"/><path d="M112 97.017c1.678 3.052 2.345 6.385 2 10-1.235.221-2.235.888-3 2-1.236-.746-2.57-1.079-4-1 2.111-1.236 4.111-2.736 6-4.5-.949-.617-1.782-.451-2.5.5-1.821-3.491-4.654-4.657-8.5-3.5-1.889 1.764-3.889 3.264-6 4.5a12.93 12.93 0 0 1-5-.5 3.94 3.94 0 0 1-1-2c3.164-3.33 6.497-6.497 10-9.5 5.425-2.349 9.425-1.015 12 4z" fill="#4a76a1"/><path d="M65 98.017c1.109.057 2.109.39 3 1-.271 1.88.396 3.213 2 4-.237 1.291.096 2.291 1 3a34.47 34.47 0 0 0 6 8 17.9 17.9 0 0 1-6-4 142.26 142.26 0 0 1-6-12z" fill="#596466"/><path d="M89 105.017l2 1c.342.838 1.008 1.172 2 1v4c-3.958.249-7.624-.418-11-2 .934-1.068 1.268-2.401 1-4h6z" fill="#daaa68"/><path d="M30 100.017c-1.248.834-1.915 2.167-2 4-.344 2.972.656 5.306 3 7a21.12 21.12 0 0 1 1 9c-.472-2.031-1.472-3.698-3-5v-3h-5c.135 2.054-.532 3.721-2 5-1.149-.291-1.816-1.124-2-2.5 1.25-3.419 3.583-5.586 7-6.5a15.42 15.42 0 0 0-1-7c1.074-2.034 2.407-2.367 4-1z" fill="#4480b1"/><path d="M30 100.017c.933 3.144 2.6 5.811 5 8a24.93 24.93 0 0 0 1 8c-.79 1.109-1.29 2.442-1.5 4-.977 1.274-1.811 1.274-2.5 0a21.12 21.12 0 0 0-1-9c-2.344-1.694-3.344-4.028-3-7 .085-1.833.752-3.166 2-4z" fill="#538fc3"/><path d="M112 97.017h2c4.265 2.594 7.931 5.928 11 10 .28 2.772-.387 5.272-2 7.5a12.93 12.93 0 0 0 5 .5c.284 1.915-.049 3.581-1 5-2.371 2.209-4.871 4.209-7.5 6-1.662.112-2.829-.554-3.5-2 1.649-2.15 3.482-4.15 5.5-6 .667-.667.667-1.333 0-2a38.47 38.47 0 0 1-5.5 5c.643-2.825 1.977-5.325 4-7.5-1.385-1.597-2.051-3.43-2-5.5-1.459.067-2.792-.266-4-1 .345-3.615-.322-6.948-2-10z" fill="#3d74a7"/><path d="M47 99.017c.734 1.208 1.067 2.541 1 4v2 14c-.342.838-1.008 1.172-2 1-1.888-2.488-2.554-5.488-2-9 .977-2.787 1.31-5.787 1-9-.073-1.527.594-2.527 2-3z" fill="#5692c6"/><path d="M52 103.017c.996-.086 1.829.248 2.5 1l1.5 6a23.6 23.6 0 0 0-2.5 6l-3-2a50.44 50.44 0 0 1-.5-10l2-1z" fill="#528dc2"/><path d="M73 105.017v3c2.609.1 4.942-.567 7-2 1.548.321 2.215 1.321 2 3 3.376 1.582 7.042 2.249 11 2v-4c1.175-.219 2.175.114 3 1l-2 3v1c-3.186.838-6.353 1.838-9.5 3-1.44-.648-2.94-.981-4.5-1h-3a34.47 34.47 0 0 1-6-8l2-1z" fill="#aa8562"/><path d="M114 107.017c1.208.734 2.541 1.067 4 1-.051 2.07.615 3.903 2 5.5-2.023 2.175-3.357 4.675-4 7.5-1.536 2.592-3.869 3.592-7 3-.973-1.568-1.14-3.235-.5-5 2.613-1.901 4.28-4.235 5-7l-9 8c-3.922-.641-5.422-2.975-4.5-7 1.767-2.39 4.1-4.057 7-5 1.43-.079 2.764.254 4 1 .765-1.112 1.765-1.779 3-2z" fill="#4b7eac"/><path d="M125 107.017c4.58 4.812 7.914 10.479 10 17-2.482 4.75-6.482 7.25-12 7.5-7.037 1.518-14.037 1.518-21 0-1.991-.374-3.658-1.207-5-2.5 3.641-.235 7.308-.569 11-1 .863-1.226.863-2.56 0-4h1c0 .667.333 1 1 1v4c5.204.202 10.371-.131 15.5-1 2.257-1.248 4.257-2.915 6-5 .688-.832.521-1.498-.5-2-2.05.577-3.05 1.91-3 4h-4c1.425-1.422 2.425-3.089 3-5 .951-1.419 1.284-3.085 1-5a12.93 12.93 0 0 1-5-.5c1.613-2.228 2.28-4.728 2-7.5z" fill="#2c6293"/><path d="M44 111.017c-.554 3.512.112 6.512 2 9l-6 1a51.65 51.65 0 0 0-1-7 50.44 50.44 0 0 1 .5-10l1 4c1.729.474 2.895 1.474 3.5 3z" fill="#3771a6"/><path d="M5 111.017c2.531.53 4.531 1.864 6 4 .765-1.112 1.765-1.779 3-2 1.159 1.24 2.159 2.574 3 4 1.667 1.333 3.333 1.333 5 0 1.468-1.279 2.135-2.946 2-5h5v3c.973 1.568 1.14 3.235.5 5-.278-.916-.778-1.582-1.5-2 .16-1.699-.006-3.366-.5-5-.667 2.667-1.333 2.667-2 0-.49 1.293-.657 2.627-.5 4-.961 1.765-1.295 3.765-1 6l-2-1-2 4c-1.563-1.445-2.896-3.111-4-5-4.962-1.964-8.629-5.298-11-10z" fill="#30638d" opacity=".996"/><path d="M28 118.017c-1.109-.057-2.109-.39-3-1-.157-1.373.01-2.707.5-4 .667 2.667 1.333 2.667 2 0 .494 1.634.66 3.301.5 5z" fill="#062341"/><path d="M71 110.017a17.9 17.9 0 0 0 6 4h3c1.28 1.431 2.947 2.098 5 2 .524 3.81-1.143 5.81-5 6-1.333 0-2-.667-2-2a4.93 4.93 0 0 0-.5-3c-2.245-2.292-4.745-2.625-7.5-1a19.24 19.24 0 0 1 1-6z" fill="#437ba7"/><path d="M39 114.017a51.65 51.65 0 0 1 1 7v5c-5.459-.492-10.792-1.492-16-3-.295-2.235.039-4.235 1-6 .891.61 1.891.943 3 1 .722.418 1.222 1.084 1.5 2 .64-1.765.473-3.432-.5-5 1.528 1.302 2.528 2.969 3 5 .689 1.274 1.523 1.274 2.5 0 .21-1.558.71-2.891 1.5-4 1.278-.282 2.278-.949 3-2z" fill="#3f75a7"/><path d="M55 100.017c1.609 2.649 2.443 5.649 2.5 9 .779 1.228 1.779 2.228 3 3 .765-.07 1.265-.403 1.5-1 .709-.904 1.709-1.237 3-1-.193 3.311.807 5.978 3 8-.448 2.987-1.948 3.987-4.5 3-1.713 1.576-3.213 3.243-4.5 5h-6a19.24 19.24 0 0 0 1-6c-1.765-.961-3.765-1.295-6-1v-14l2-1a50.44 50.44 0 0 0 .5 10l3 2a23.6 23.6 0 0 1 2.5-6l-1.5-6c-.671-.752-1.504-1.086-2.5-1v-3h3z" fill="#417baf"/><path d="M109 124.017h-1c-1.53-2.441-3.863-3.608-7-3.5-1.21-1.039-2.21-2.206-3-3.5l-1-2c1.278-.282 2.278-.949 3-2-.922 4.025.578 6.359 4.5 7l9-8c-.72 2.765-2.387 5.099-5 7-.64 1.765-.473 3.432.5 5z" fill="#0a284f"/><path d="M48 119.017c2.235-.295 4.235.039 6 1-.947 1.955-2.281 2.289-4 1-1.114 1.223-1.281 2.556-.5 4 1.461-1.383 2.294-1.049 2.5 1-1.256.404-2.423 1.071-3.5 2a12.98 12.98 0 0 0-8.5-2v-5l6-1c.992.172 1.658-.162 2-1z" fill="#316493"/><path d="M54 120.017a19.24 19.24 0 0 1-1 6h-1c-.206-2.049-1.039-2.383-2.5-1-.781-1.444-.614-2.777.5-4 1.719 1.289 3.053.955 4-1z" fill="#092439" opacity=".835"/><path d="M94 112.017c.667 1.333 1.667 2.333 3 3l1 2c-2.1.023-3.933-.644-5.5-2-1.635.378-3.135 1.044-4.5 2l2 6c2.014 1.518 4.014 2.185 6 2l-2 3c-3.285-1.45-5.784-3.783-7.5-7-2.448 1.473-4.948 2.807-7.5 4 .057-1.109.39-2.109 1-3 3.857-.19 5.524-2.19 5-6-2.053.098-3.72-.569-5-2 1.56.019 3.06.352 4.5 1 3.147-1.162 6.314-2.162 9.5-3z" fill="#30587e" opacity=".616"/><path d="M98 117.017c.79 1.294 1.79 2.461 3 3.5 3.137-.108 5.47 1.059 7 3.5.863 1.44.863 2.774 0 4-3.692.431-7.359.765-11 1-1.109-.057-2.109-.39-3-1l2-3c-1.986.185-3.986-.482-6-2l-2-6c1.365-.956 2.865-1.622 4.5-2 1.567 1.356 3.4 2.023 5.5 2z" fill="#407cb1"/><path d="M78 120.017c0 1.333.667 2 2 2-.61.891-.943 1.891-1 3a49.89 49.89 0 0 0-15.5 3c-1.3-1.207-2.8-1.874-4.5-2 1.287-1.757 2.787-3.424 4.5-5 2.552.987 4.052-.013 4.5-3 1.864-1.293 3.864-1.293 6 0-.825.886-1.825 1.219-3 1a7.11 7.11 0 0 0 1 5c2.331-1.026 4.331-2.36 6-4z" fill="#2b5b8c" opacity=".733"/><path d="M127 120.017c-.575 1.911-1.575 3.578-3 5-2.81 3.62-5.81 3.786-9 .5a12.93 12.93 0 0 0-5-.5c-.667 0-1-.333-1-1 3.131.592 5.464-.408 7-3a38.47 38.47 0 0 0 5.5-5c.667.667.667 1.333 0 2-2.018 1.85-3.851 3.85-5.5 6 .671 1.446 1.838 2.112 3.5 2 2.629-1.791 5.129-3.791 7.5-6z" fill="#062e54"/><path d="M110 125.017a12.93 12.93 0 0 1 5 .5c3.19 3.286 6.19 3.12 9-.5h4c-.05-2.09.95-3.423 3-4 1.021.502 1.188 1.168.5 2-1.743 2.085-3.743 3.752-6 5-5.129.869-10.296 1.202-15.5 1v-4z" fill="#447da3"/></svg>