<?xml version="1.0" encoding="UTF-8"?>
<svg width="1024px" height="1024px" viewBox="0 0 1024 1024" version="1.1" xmlns="http://www.w3.org/2000/svg" xmlns:xlink="http://www.w3.org/1999/xlink">
    <title>pWBTC</title>
    <defs>
        <linearGradient x1="76.2262818%" y1="0.519209642%" x2="23.6511094%" y2="99.5097915%" id="linearGradient-1">
            <stop stop-color="#00EAFF" offset="0%"></stop>
            <stop stop-color="#0080FF" offset="25.2530882%"></stop>
            <stop stop-color="#8000FF" offset="49.7394282%"></stop>
            <stop stop-color="#E619E6" offset="74.9912298%"></stop>
            <stop stop-color="#FF0000" offset="99.9136118%"></stop>
        </linearGradient>
    </defs>
    <g id="Page-1" stroke="none" stroke-width="1" fill="none" fill-rule="evenodd">
        <g id="pWBTC" transform="translate(0.000041, 0.000161)" fill-rule="nonzero">
            <path d="M511.593087,0 C647.489636,-0.107670399 777.854214,53.8152664 873.966692,149.889574 C970.07917,245.963881 1024.05387,376.307018 1023.99992,512.203578 C1023.88744,794.893796 794.690151,1023.99984 511.999867,1023.99984 C229.309582,1023.99984 0.112380078,794.893607 -5.68434189e-14,512.20339 C-0.112215013,229.513172 228.902891,0.224970406 511.593087,0 Z" id="Oval" fill="url(#linearGradient-1)"></path>
            <path d="M803.089266,831.872925 L834.313735,862.38543 C652.196643,1030.28382 371.70149,1030.28382 189.584398,862.38543 L220.096908,831.872925 C385.129356,982.784384 638.056817,982.784384 803.089266,831.872925 Z M161.41118,190.500065 L191.92369,221.01257 C41.198129,386.000126 41.198129,638.712155 191.92369,803.699712 L161.41118,835.229301 C-6.4872301,653.112237 -6.4872301,372.617129 161.41118,190.500065 Z M862.181828,189.177856 C1030.08024,371.29492 1030.08024,651.790028 862.181828,833.907092 L831.669318,803.394587 C982.5808,638.362164 982.5808,385.434742 831.669318,220.40232 L862.181828,189.889814 Z M477.215659,231.285113 L477.215659,317.330378 L520.13659,317.330378 L520.13659,231.285113 L573.838608,231.285113 L573.838608,318.957712 C643.305422,325.467046 698.22794,346.8258 704.330442,410.495227 C708.703902,457.077652 689.379312,485.55599 658.154844,500.913951 C709.517569,513.220662 741.657413,543.733167 735.249786,612.081179 C727.316533,697.007652 664.053929,719.383489 573.330066,724.87574 L573.330066,813.565422 L519.52634,813.565422 L519.52634,725.587698 L476.605409,725.587698 L476.605409,813.972255 L422.903391,813.972255 L422.903391,724.26549 L314.990814,724.26549 L325.161651,660.08752 C325.161651,660.08752 333.946396,660.222325 343.184308,660.301859 L344.956642,660.316364 C347.912541,660.339249 350.860431,660.355268 353.529475,660.358243 L355.095273,660.358413 C360.528172,660.353101 364.44549,660.2828 364.217664,660.08752 C369.273244,660.477247 374.268993,658.787509 378.050002,655.408936 C381.902732,652.094101 384.25061,647.36166 384.559337,642.288559 L384.559337,400.629517 C382.402959,385.830309 368.91263,375.397789 354.046827,377.03318 C354.339747,376.69144 345.352958,376.67777 335.927493,376.75596 L334.747664,376.766196 C324.90738,376.85519 314.990814,377.03318 314.990814,377.03318 L314.990814,319.567962 L423.920475,319.567962 L423.920475,231.285113 L477.215659,231.285113 Z M629.066251,601.50351 C629.066251,531.83329 514.746047,542.30925 478.334451,542.207542 L478.334451,660.596062 C514.746047,660.596062 629.066251,668.224188 629.066251,601.50351 Z M604.147701,434.701815 C604.147701,371.134096 508.745253,380.694681 478.43616,380.694681 L478.43616,488.302116 C508.745253,488.302116 604.147701,495.726825 604.147701,434.701815 Z M189.279273,162.021726 C371.396365,-5.87665731 651.891517,-5.87665731 834.00861,162.021726 L803.4961,192.534232 C638.46365,41.6227723 385.53619,41.6227723 220.503741,192.534232 Z" id="WBTC" fill="#FFFFFF"></path>
        </g>
    </g>
</svg>