<svg width="40" height="40" viewBox="0 0 40 40" fill="none" xmlns="http://www.w3.org/2000/svg">
<g clip-path="url(#clip0_61_322)">
<circle cx="20" cy="20" r="20" fill="#A36EFD"/>
<path d="M39.875 20C39.875 9.02334 30.9767 0.125 20 0.125C9.02334 0.125 0.125 9.02334 0.125 20C0.125 30.9767 9.02334 39.875 20 39.875C30.9767 39.875 39.875 30.9767 39.875 20Z" stroke="black" stroke-opacity="0.1" stroke-width="0.25"/>
<path d="M27.157 10.4866C25.4327 10.2885 24.2828 10.1895 20.0419 10.1895C16.4034 10.1895 14.63 10.3213 12.9267 10.4866C12.1305 10.5637 11.4954 11.1696 11.5538 11.9708L12.4956 24.7998L20.0412 27.5039L27.5875 24.7998L28.5292 11.9708C28.5884 11.1696 27.9512 10.5781 27.1564 10.4866H27.157Z" fill="#4C2897"/>
<path d="M29.5159 21.5681C29.5159 21.5681 27.9077 22.5338 27.3257 22.7551C25.5768 23.4211 20.0426 24.4702 20.0426 24.4702C20.0426 24.4702 14.5076 23.4218 12.7594 22.7551C12.1774 22.5332 10.5693 21.5681 10.5693 21.5681C9.567 21.0251 8.44846 21.8051 8.44642 22.9491C8.44302 24.8008 9.88931 26.7023 11.8401 27.901C14.0398 29.2527 17.3234 29.8134 20.0426 29.8134C22.7618 29.8134 26.0453 29.2527 28.245 27.901C30.1958 26.7023 31.6421 24.8001 31.6387 22.9491C31.6367 21.8051 30.5181 21.0251 29.5159 21.5681Z" fill="#4C2897"/>
<path d="M27.9356 20.6115C26.6967 20.9612 24.7649 21.9332 20.0419 21.9332C15.3188 21.9332 13.387 20.9612 12.1481 20.6115C11.9401 20.5528 11.7367 20.7167 11.7483 20.9339L11.9163 23.9931C11.9224 24.1093 11.9659 24.2185 12.0393 24.308C12.5527 24.9296 14.8544 27.0981 20.0412 27.0981C25.228 27.0981 27.5018 24.9576 28.0342 24.3196C28.1144 24.2233 28.1607 24.1038 28.1681 23.9781L28.3354 20.9339C28.3476 20.7174 28.1437 20.5528 27.9356 20.6115Z" fill="#A36EFD"/>
<g style="mix-blend-mode:soft-light" opacity="0.25">
<path d="M40 20C40 8.9543 31.0457 0 20 0C8.9543 0 0 8.9543 0 20C0 31.0457 8.9543 40 20 40C31.0457 40 40 31.0457 40 20Z" fill="url(#paint0_linear_61_322)"/>
</g>
</g>
<defs>
<linearGradient id="paint0_linear_61_322" x1="20" y1="0" x2="20" y2="40" gradientUnits="userSpaceOnUse">
<stop stop-color="white"/>
<stop offset="0.0666667" stop-color="#FDFDFD"/>
<stop offset="0.133333" stop-color="#F6F6F6"/>
<stop offset="0.2" stop-color="#EAEAEA"/>
<stop offset="0.266667" stop-color="#D9D9D9"/>
<stop offset="0.333333" stop-color="#C4C4C4"/>
<stop offset="0.4" stop-color="#AAAAAA"/>
<stop offset="0.466667" stop-color="#8E8E8E"/>
<stop offset="0.533333" stop-color="#717171"/>
<stop offset="0.6" stop-color="#555555"/>
<stop offset="0.666667" stop-color="#3B3B3B"/>
<stop offset="0.733333" stop-color="#262626"/>
<stop offset="0.8" stop-color="#151515"/>
<stop offset="0.866667" stop-color="#090909"/>
<stop offset="0.933333" stop-color="#020202"/>
<stop offset="1"/>
</linearGradient>
<clipPath id="clip0_61_322">
<rect width="40" height="40" fill="white"/>
</clipPath>
</defs>
</svg>
