<?xml version="1.0" encoding="UTF-8"?>
<svg width="960px" height="960px" viewBox="0 0 960 960" version="1.1" xmlns="http://www.w3.org/2000/svg" xmlns:xlink="http://www.w3.org/1999/xlink">
    <title>PHAME</title>
    <defs>
        <linearGradient x1="93.1912336%" y1="53.5054248%" x2="6.35442834%" y2="53.5054248%" id="linearGradient-1">
            <stop stop-color="#FD5DA6" offset="0%"></stop>
            <stop stop-color="#A863CE" offset="50%"></stop>
            <stop stop-color="#5C6DFF" offset="100%"></stop>
        </linearGradient>
    </defs>
    <g id="Page-1" stroke="none" stroke-width="1" fill="none" fill-rule="evenodd">
        <g id="PHAME" transform="translate(0.000000, -0.000000)">
            <path d="M510,17.3205081 L865.692194,222.679492 C884.256258,233.39746 895.692194,253.205081 895.692194,274.641016 L895.692194,685.358984 C895.692194,706.794919 884.256258,726.60254 865.692194,737.320508 L510,942.679492 C491.435935,953.39746 468.564065,953.39746 450,942.679492 L94.3078062,737.320508 C75.7437416,726.60254 64.3078062,706.794919 64.3078062,685.358984 L64.3078062,274.641016 C64.3078062,253.205081 75.7437416,233.39746 94.3078062,222.679492 L450,17.3205081 C468.564065,6.60254038 491.435935,6.60254038 510,17.3205081 Z" id="Polygon" fill="url(#linearGradient-1)" transform="translate(480.000000, 480.000000) rotate(90.000000) translate(-480.000000, -480.000000) "></path>
            <path d="M480.279134,149.431678 C393.819134,154.999678 310.735134,182.058678 244.488134,226.224678 C227.494134,237.554678 213.480134,248.815678 212.340134,252.056678 C211.503134,254.437678 212.859134,259.404678 221.316134,284.935678 C229.001134,308.133678 231.783134,315.342678 233.485134,316.465678 C235.548134,317.827678 236.749134,317.334678 251.988134,308.880678 C302.228134,281.010678 361.919134,261.812678 427.882134,252.308678 C485.757134,243.969678 549.112134,242.510678 604.027134,248.251678 C611.588134,249.041678 618.454134,249.427678 619.285134,249.108678 C621.784134,248.149678 622.138134,244.057678 620.865134,230.837678 C618.080134,201.922678 609.654134,160.686678 605.912134,157.655678 C603.004134,155.301678 577.976134,151.857678 548.779134,149.793678 C535.628134,148.864678 492.619134,148.637678 480.279134,149.431678 M477.279134,299.780678 C351.329134,304.898678 236.212134,345.538678 191.650134,400.616678 C170.065134,427.294678 166.396134,456.157678 181.379134,481.400678 C190.616134,496.963678 209.753134,513.960678 230.053134,524.632678 C238.600134,529.125678 240.077134,528.249678 240.996134,518.138678 C243.447134,491.164678 245.236134,482.705678 250.804134,471.749678 C254.702134,464.078678 259.646134,458.685678 265.920134,455.260678 C270.474134,452.773678 272.655134,452.272678 280.437134,451.926678 C288.566134,451.564678 290.196134,451.796678 294.937134,453.985678 C307.381134,459.731678 314.257134,472.180678 318.473134,496.593678 C320.886134,510.564678 320.877134,553.475678 318.457134,575.749678 C316.392134,594.758678 312.682134,620.512678 309.310134,639.249678 C305.793134,658.799678 305.608134,660.900678 306.758134,668.363678 C308.243134,678.009678 313.656134,688.626678 320.658134,695.628678 C338.829134,713.799678 379.940134,744.542678 411.779134,763.768678 C434.236134,777.329678 478.741134,797.304678 505.236134,805.713678 C531.582134,814.076678 549.355134,817.125678 568.664134,816.595678 C581.352134,816.246678 582.622134,816.031678 586.945134,813.498678 C603.211134,803.965678 612.763134,772.386678 615.301134,719.749678 C616.319134,698.643678 612.663134,654.552678 608.728134,640.478678 C607.464134,635.959678 604.047134,633.577678 590.610134,627.848678 C567.152134,617.847678 535.173134,611.749678 506.183134,611.749678 C494.234134,611.749678 492.783134,611.948678 489.775134,613.999678 C486.019134,616.559678 480.842134,626.034678 475.158134,640.749678 C473.140134,645.974678 471.167134,650.613678 470.774134,651.059678 C469.898134,652.051678 454.132134,639.864678 439.205134,626.656678 C405.003134,596.393678 361.056134,542.863678 353.715134,522.525678 C351.661134,516.835678 351.410134,514.031678 351.022134,492.499678 C350.673134,473.082678 350.840134,468.749678 351.937134,468.749678 C352.675134,468.749678 378.254134,466.499678 408.779134,463.749678 C439.304134,460.999678 464.333134,458.749678 464.399134,458.749678 C464.466134,458.749678 463.660134,462.912678 462.608134,467.999678 C459.040134,485.264678 453.698134,518.220678 453.637134,523.349678 C453.566134,529.252678 455.574134,533.760678 459.514134,536.547678 C464.281134,539.918678 481.854134,548.337678 492.279134,552.244678 C504.579134,556.854678 521.300134,561.134678 533.365134,562.762678 C541.858134,563.908678 542.753134,563.854678 547.092134,561.935678 C550.831134,560.281678 552.587134,558.557678 556.127134,553.065678 C563.185134,542.113678 572.049134,526.280678 579.420134,511.457678 C586.485134,497.251678 587.918134,495.706678 592.645134,497.206678 C593.751134,497.557678 595.118134,499.286678 595.683134,501.047678 C596.248134,502.808678 600.093134,520.899678 604.226134,541.249678 C608.360134,561.599678 612.516134,579.749678 613.462134,581.582678 C614.409134,583.415678 616.780134,585.727678 618.731134,586.720678 C626.391134,590.618678 657.252134,596.686678 661.906134,595.209678 C664.511134,594.382678 673.030134,581.319678 681.247134,565.553678 C689.332134,550.040678 693.883134,539.401678 698.844134,524.417678 C703.231134,511.167678 703.096134,509.716678 697.278134,507.613678 C695.354134,506.917678 693.792134,506.100678 693.807134,505.798678 C693.823134,505.496678 696.410134,503.706678 699.557134,501.821678 C717.934134,490.810678 739.983134,470.864678 749.198134,456.916678 C764.706134,433.443678 766.707134,411.046678 755.333134,388.249678 C726.801134,331.062678 611.359134,294.332678 477.279134,299.780678 M447.279134,349.810678 C426.914134,351.659678 408.472134,354.768678 404.341134,357.049678 C399.414134,359.769678 396.357134,364.187678 394.288134,371.574678 C387.856134,394.546678 386.813134,395.987678 370.207134,404.830678 C353.239134,413.865678 350.795134,417.599678 350.784959,434.499678 C350.779134,443.119678 350.917134,443.749678 352.802134,443.749678 C353.915134,443.749678 380.127134,441.457678 411.052134,438.655678 C475.146134,432.847678 466.254134,432.548678 500.779134,441.675678 C542.257134,452.640678 600.958134,470.920678 639.029134,484.728678 L649.779134,488.627678 L649.779134,475.388678 C649.779134,445.987678 645.753134,414.353678 640.691134,403.976678 C628.171134,378.310678 586.850134,358.817678 528.779134,351.181678 C514.103134,349.252678 462.919134,348.391678 447.279134,349.810678 M505.590134,633.999678 C504.701134,635.589678 504.323134,641.973678 504.305134,655.749678 C504.281134,673.695678 504.468134,675.795678 506.645134,682.102678 C512.920134,700.279678 528.745134,704.952678 541.194134,692.304678 C543.991134,689.463678 546.954134,686.192678 547.779134,685.036678 C549.243134,682.983678 549.505134,682.964678 558.779134,684.264678 C564.004134,684.996678 568.391134,685.629678 568.529134,685.672678 C568.667134,685.714678 568.789134,687.887678 568.801134,690.499678 C568.824134,695.538678 571.383134,702.356678 574.092134,704.598678 C576.920134,706.938678 582.820134,707.759678 586.315134,706.298678 C590.415134,704.585678 593.151134,700.652678 595.407134,693.227678 C598.811134,682.023678 597.134134,651.190678 592.912134,647.369678 C588.151134,643.061678 561.159134,635.758678 540.809134,633.272678 C533.950134,632.434678 523.504134,631.749678 517.594134,631.749678 C507.491134,631.749678 506.774134,631.883678 505.590134,633.999678" id="Shape" fill="#061B5B"></path>
        </g>
    </g>
</svg>