<?xml version="1.0" encoding="UTF-8"?>
<svg width="511px" height="511px" viewBox="0 0 511 511" version="1.1" xmlns="http://www.w3.org/2000/svg" xmlns:xlink="http://www.w3.org/1999/xlink">
    <title>PZEN</title>
    <defs>
        <linearGradient x1="93.2733075%" y1="25.0004373%" x2="6.71890127%" y2="74.9511416%" id="linearGradient-1">
            <stop stop-color="#0BA6FF" offset="0%"></stop>
            <stop stop-color="#F10C92" offset="100%"></stop>
        </linearGradient>
        <polygon id="path-2" points="255.5 2.84217094e-14 476.769491 127.75 476.769491 383.25 255.5 511 34.2305093 383.25 34.2305093 127.75"></polygon>
    </defs>
    <g id="Page-1" stroke="none" stroke-width="1" fill="none" fill-rule="evenodd">
        <g id="PZEN">
            <mask id="mask-3" fill="white">
                <use xlink:href="#path-2" transform="translate(255.500000, 255.500000) rotate(90.000000) translate(-255.500000, -255.500000) "></use>
            </mask>
            <use id="bg" fill="url(#linearGradient-1)" transform="translate(255.500000, 255.500000) rotate(90.000000) translate(-255.500000, -255.500000) " xlink:href="#path-2"></use>
            <path d="M256.5,89.3 C272.240115,89.3 285,106.31318 285,127.3 C285,148.28682 272.240115,165.3 256.5,165.3 C240.759885,165.3 228,148.28682 228,127.3 C228,106.31318 240.759885,89.3 256.5,89.3 Z M256.5,104.3 C250.134885,104.3 243,113.81318 243,127.3 C243,140.78682 250.134885,150.3 256.5,150.3 C262.865115,150.3 270,140.78682 270,127.3 C270,113.81318 262.865115,104.3 256.5,104.3 Z M256.539105,180.3 L327.039,250.8 L369.5,250.8 C371.026447,250.8 372.448821,251.57381 373.278066,252.855369 L384.008,269.437 L401.615667,193.286281 C402.731141,188.461857 409.68442,188.714805 410.446401,193.607528 L425.754,291.901 L440.604897,224.334043 C441.475081,220.374707 446.693077,219.521036 448.804976,222.89656 L448.9151,223.081443 L464.637,250.826 L514.545452,251.30023 C516.959602,251.324615 518.910514,253.245655 518.99977,255.633578 L518.99977,255.845452 C518.974668,258.330607 516.939702,260.324873 514.454548,260.29977 L461.954548,259.79977 C460.350231,259.783565 458.875889,258.914419 458.0849,257.518557 L446.874,237.736 L429.395103,317.265957 C428.342983,322.053102 421.537314,321.917898 420.594039,317.219646 L420.553599,316.992472 L405.137,218.006 L390.384333,281.813719 C389.505054,285.616598 384.562,286.548297 382.340374,283.419336 L382.221934,283.244631 L367.051,259.8 L326,259.8 C325.849559,259.8 325.700842,259.792618 325.554191,259.778195 L257.246212,328.085317 L189.454,260.294 L140.454548,259.79977 C138.850231,259.783565 137.375889,258.914419 136.5849,257.518557 L125.375,237.736 L107.895103,317.265957 C106.842983,322.053102 100.037314,321.917898 99.0940392,317.219646 L99.053599,316.992472 L83.638,218.006 L68.8843329,281.813719 C68.0050545,285.616598 63.062,286.548297 60.8403742,283.419336 L60.7219343,283.244631 L45.552,259.8 L-5.5,259.8 C-7.91427333,259.8 -9.88448909,257.898763 -10,255.511836 L-10,255.3 C-10,252.814719 -7.98528137,250.8 -5.5,250.8 L48,250.8 C49.5264469,250.8 50.9488215,251.57381 51.7780657,252.855369 L62.509,269.437 L80.1156671,193.286281 C81.2311409,188.461857 88.1844197,188.714805 88.946401,193.607528 L104.255,291.901 L119.104897,224.334043 C119.975081,220.374707 125.193077,219.521036 127.304976,222.89656 L127.4151,223.081443 L143.138,250.826 L185.583,251.255 L256.539105,180.3 Z M256.539812,201.512979 L204.213911,253.838881 L257.246212,306.871182 L309.572114,254.545281 L256.539812,201.512979 Z M319.13008,328.309128 C339.983336,327.279338 358.987295,331.112069 372.754056,338.896415 C387.395702,347.175461 395.387401,359.621201 393.424621,373.36066 C391.401335,387.523662 376.884045,396.468609 359.427412,396.299649 C350.097462,396.209345 338.417666,393.469386 321.757581,388.101978 L320.102731,387.565563 C318.016724,386.88539 315.854644,386.166478 313.422546,385.346248 L296.569914,379.626427 L295.935805,379.406118 C292.298464,378.124725 287.883303,376.271798 281.217791,373.288224 L265.337625,366.103745 L263.477049,365.269703 C261.045687,364.182691 258.799996,363.190707 256.596534,362.231995 L249.310705,365.367355 L240.464582,369.189213 C238.006716,370.246887 235.474205,371.304058 232.850117,372.369699 L231.530364,372.903267 L228.952637,373.932611 C224.62821,375.645824 220.128721,377.360936 214.944455,379.283452 L207.550206,381.995273 C203.543173,383.455076 196.523772,386.015154 192.956999,387.331774 L191.623156,387.826311 C172.447287,394.985303 155.067024,397.21763 141.863203,394.382911 C127.550824,391.310197 118.5,382.140596 118.5,369.3 C118.5,344.979776 154.611651,326.186978 193.904814,328.310933 C211.420852,329.257746 231.422934,335.29844 256.634829,345.928763 L258.46889,345.164832 L261.200556,344.039845 C285.205632,334.225197 301.925636,329.337518 318.205553,328.359636 L319.13008,328.309128 Z M378.575379,371.23934 C380.752013,356.002904 355.960358,341.819914 320.934427,343.242957 L319.873,343.29 L319.065277,343.334925 C307.151825,344.050599 294.368934,347.347441 277.238902,353.835007 L275.815,354.377 L285.191121,358.628653 L288.727828,360.213515 L291.32399,361.35871 C295.749744,363.293421 298.88162,364.560554 301.395908,365.423858 L316.742817,370.634749 C319.248819,371.483827 321.444755,372.218826 323.520333,372.901039 L326.272961,373.797323 L327.787597,374.282273 C342.279468,378.89185 352.44744,381.231388 359.572588,381.300351 C370.288775,381.404072 377.782929,376.786487 378.575379,371.23934 Z M193.095186,343.289067 C176.762229,342.406205 161.063126,345.600789 149.337283,351.703014 C139.086191,357.037766 133.5,363.766587 133.5,369.3 C133.5,374.375743 137.094394,378.017307 145.011797,379.717089 C154.93761,381.848054 169.229949,380.064738 185.607622,374.058333 L191.084863,372.038934 L205.377648,366.823055 L208.969381,365.500703 L211.940205,364.396299 C217.087849,362.47284 221.557967,360.747769 225.929331,358.988224 C228.493287,357.95619 230.960967,356.935906 233.348346,355.918998 L235.508964,354.991523 L237.166,354.277 L237.095602,354.250877 C220.003546,347.786921 205.840529,344.077065 193.710233,343.324769 L193.095186,343.289067 Z" id="logo" fill="#FFFFFF" fill-rule="nonzero" mask="url(#mask-3)"></path>
        </g>
    </g>
</svg>