<svg width="40" height="40" viewBox="0 0 40 40" fill="none" xmlns="http://www.w3.org/2000/svg">
<g clip-path="url(#clip0_63_1279)">
<path d="M20 40C31.0457 40 40 31.0457 40 20C40 8.95431 31.0457 0 20 0C8.95431 0 0 8.95431 0 20C0 31.0457 8.95431 40 20 40Z" fill="#D3B25A"/>
<path d="M39.875 20C39.875 9.02334 30.9767 0.125 20 0.125C9.02334 0.125 0.125 9.02334 0.125 20C0.125 30.9767 9.02334 39.875 20 39.875C30.9767 39.875 39.875 30.9767 39.875 20Z" stroke="black" stroke-opacity="0.1" stroke-width="0.25"/>
<path fill-rule="evenodd" clip-rule="evenodd" d="M20.0245 21.4295C23.464 21.4295 26.3385 20.848 27.041 20.071C26.4445 19.412 24.287 18.893 21.547 18.751V20.3925C21.0565 20.418 20.5465 20.4305 20.024 20.4305C19.5015 20.4305 18.9915 20.418 18.5 20.3925V18.751C15.761 18.893 13.6025 19.412 13.006 20.071C13.7095 20.848 16.5845 21.4295 20.024 21.4295H20.0245ZM26.1355 13.703V15.9635H21.547V17.531C24.77 17.6985 27.1885 18.3875 27.2065 19.212V20.931C27.1885 21.7555 24.77 22.443 21.547 22.611V26.458H18.5005V22.611C15.2775 22.4435 12.86 21.7555 12.842 20.931V19.212C12.86 18.3875 15.2775 17.6985 18.5005 17.531V15.9635H13.912V13.703H26.136H26.1355ZM12.1075 10.1055H28.2155C28.6005 10.1055 28.955 10.308 29.147 10.637L33.8395 18.695C34.0825 19.113 34.0105 19.6405 33.6635 19.979L20.7465 32.588C20.3275 32.9965 19.6545 32.9965 19.2365 32.588L6.33547 19.996C5.98097 19.649 5.91397 19.1065 6.17547 18.6865L11.192 10.612C11.3875 10.298 11.7345 10.106 12.108 10.106L12.1075 10.1055Z" fill="white"/>
<g style="mix-blend-mode:soft-light" opacity="0.25">
<path d="M40 20C40 8.9543 31.0457 0 20 0C8.9543 0 0 8.9543 0 20C0 31.0457 8.9543 40 20 40C31.0457 40 40 31.0457 40 20Z" fill="url(#paint0_linear_63_1279)"/>
</g>
</g>
<defs>
<linearGradient id="paint0_linear_63_1279" x1="20" y1="0" x2="20" y2="40" gradientUnits="userSpaceOnUse">
<stop stop-color="white"/>
<stop offset="0.0666667" stop-color="#FDFDFD"/>
<stop offset="0.133333" stop-color="#F6F6F6"/>
<stop offset="0.2" stop-color="#EAEAEA"/>
<stop offset="0.266667" stop-color="#D9D9D9"/>
<stop offset="0.333333" stop-color="#C4C4C4"/>
<stop offset="0.4" stop-color="#AAAAAA"/>
<stop offset="0.466667" stop-color="#8E8E8E"/>
<stop offset="0.533333" stop-color="#717171"/>
<stop offset="0.6" stop-color="#555555"/>
<stop offset="0.666667" stop-color="#3B3B3B"/>
<stop offset="0.733333" stop-color="#262626"/>
<stop offset="0.8" stop-color="#151515"/>
<stop offset="0.866667" stop-color="#090909"/>
<stop offset="0.933333" stop-color="#020202"/>
<stop offset="1"/>
</linearGradient>
<clipPath id="clip0_63_1279">
<rect width="40" height="40" fill="white"/>
</clipPath>
</defs>
</svg>
