<?xml version="1.0" encoding="UTF-8"?>
<svg width="1000px" height="1000px" viewBox="0 0 1000 1000" version="1.1" xmlns="http://www.w3.org/2000/svg" xmlns:xlink="http://www.w3.org/1999/xlink">
    <title>pAAVE</title>
    <defs>
        <linearGradient x1="75.484559%" y1="6.21148362%" x2="25.7589237%" y2="94.3319981%" id="linearGradient-1">
            <stop stop-color="#00EAFF" offset="0%"></stop>
            <stop stop-color="#0080FF" offset="25.2530882%"></stop>
            <stop stop-color="#8000FF" offset="49.7394282%"></stop>
            <stop stop-color="#E619E6" offset="74.9912298%"></stop>
            <stop stop-color="#FF0000" offset="99.9136118%"></stop>
        </linearGradient>
    </defs>
    <g id="Page-1" stroke="none" stroke-width="1" fill="none" fill-rule="evenodd">
        <g id="pAAVE" fill-rule="nonzero">
            <circle id="Oval" fill="url(#linearGradient-1)" cx="500" cy="500" r="500"></circle>
            <path d="M718.814433,699.226804 L549.742268,290.463918 C540.206186,269.329897 526.030928,259.020619 507.345361,259.020619 L492.396907,259.020619 C473.71134,259.020619 459.536082,269.329897 450,290.463918 L376.417526,468.556701 L320.747423,468.556701 C304.123711,468.685567 290.592784,482.087629 290.463918,498.840206 L290.463918,499.226804 C290.592784,515.850515 304.123711,529.381443 320.747423,529.510309 L350.64433,529.510309 L280.412371,699.226804 C279.123711,702.963918 278.350515,706.829897 278.350515,710.824742 C278.350515,720.360825 281.314433,727.835052 286.597938,733.634021 C291.881443,739.43299 299.484536,742.268041 309.020619,742.268041 C315.335052,742.139175 321.391753,740.206186 326.417526,736.469072 C331.829897,732.731959 335.56701,727.319588 338.530928,721.134021 L415.850515,529.381443 L469.458763,529.381443 C486.082474,529.252577 499.613402,515.850515 499.742268,499.097938 L499.742268,498.324742 C499.613402,481.701031 486.082474,468.170103 469.458763,468.041237 L440.850515,468.041237 L499.871134,321.005155 L660.695876,721.005155 C663.659794,727.190722 667.396907,732.603093 672.809278,736.340206 C677.835052,740.07732 684.020619,742.010309 690.206186,742.139175 C699.742268,742.139175 707.216495,739.304124 712.628866,733.505155 C718.041237,727.706186 720.876289,720.231959 720.876289,710.695876 C721.005155,706.829897 720.360825,702.835052 718.814433,699.226804 Z" id="AAVE" fill="#FFFFFF"></path>
        </g>
    </g>
</svg>