<?xml version="1.0" encoding="UTF-8"?>
<svg width="1024px" height="1024px" viewBox="0 0 1024 1024" version="1.1" xmlns="http://www.w3.org/2000/svg" xmlns:xlink="http://www.w3.org/1999/xlink">
    <title>USDC from Ethereum</title>
    <g id="USDC-from-Ethereum" stroke="none" stroke-width="1" fill="none" fill-rule="evenodd">
        <circle id="Oval" fill="#627EEA" fill-rule="nonzero" cx="512" cy="512" r="512"></circle>
        <g id="USDC" transform="translate(87.000000, 87.000000)" fill-rule="nonzero">
            <path d="M425,850 C660.52225,850 850,660.52225 850,425 C850,189.47775 660.52225,0 425,0 C189.47775,0 0,189.47775 0,425 C0,660.52225 189.47775,850 425,850 Z" id="Path" fill="#2775CA"></path>
            <path d="M541.875,492.29025 C541.875,430.3125 504.6875,409.0625 430.3125,400.20975 C377.1875,393.125 366.5625,378.95975 366.5625,354.16525 C366.5625,329.37075 384.27225,313.4375 419.6875,313.4375 C451.5625,313.4375 469.27225,324.0625 478.125,350.625 C479.89725,355.9375 485.20975,359.47775 490.52225,359.47775 L518.85275,359.47775 C525.9375,359.47775 531.25,354.16525 531.25,347.08475 L531.25,345.3125 C524.16525,306.35275 492.29025,276.25 451.5625,272.70975 L451.5625,230.20975 C451.5625,223.125 446.25,217.8125 437.39725,216.04025 L410.83475,216.04025 C403.75,216.04025 398.4375,221.35275 396.66525,230.20975 L396.66525,270.9375 C343.54025,278.02225 309.89725,313.4375 309.89725,357.70975 C309.89725,416.14725 345.3125,439.16525 419.6875,448.02225 C469.27225,456.875 485.20975,467.5 485.20975,495.83475 C485.20975,524.1695 460.41525,543.64725 426.77225,543.64725 C380.72775,543.64725 364.79025,524.16525 359.47775,497.60275 C357.70975,490.52225 352.39725,486.97775 347.08475,486.97775 L316.97775,486.97775 C309.89725,486.97775 304.58475,492.29025 304.58475,499.375 L304.58475,501.14725 C311.66525,545.41525 340,577.29025 398.4375,586.14725 L398.4375,628.64725 C398.4375,635.72775 403.75,641.04025 412.60275,642.8125 L439.16525,642.8125 C446.25,642.8125 451.5625,637.5 453.33475,628.64725 L453.33475,586.14725 C506.45975,577.29025 541.875,540.10275 541.875,492.29025 L541.875,492.29025 Z" id="Path" fill="#FFFFFF"></path>
            <path d="M334.6875,678.22775 C196.5625,628.64725 125.72775,474.58475 177.08475,338.22775 C203.64725,263.85275 262.08475,207.1875 334.6875,180.625 C341.77225,177.08475 345.3125,171.77225 345.3125,162.91525 L345.3125,138.125 C345.3125,131.04025 341.77225,125.72775 334.6875,123.95975 C332.91525,123.95975 329.375,123.95975 327.60275,125.72775 C159.375,178.85275 67.29025,357.70975 120.41525,525.9375 C152.29025,625.10275 228.4375,701.25 327.60275,733.125 C334.6875,736.66525 341.77225,733.125 343.54025,726.04025 C345.3125,724.27225 345.3125,722.5 345.3125,718.95975 L345.3125,694.16525 C345.3125,688.85275 340,681.77225 334.6875,678.22775 Z M522.39725,125.72775 C515.3125,122.1875 508.22775,125.72775 506.45975,132.8125 C504.6875,134.58475 504.6875,136.35275 504.6875,139.89725 L504.6875,164.6875 C504.6875,171.77225 510,178.85275 515.3125,182.39725 C653.4375,231.97775 724.27225,386.04025 672.91525,522.39725 C646.35275,596.77225 587.91525,653.4375 515.3125,680 C508.22775,683.54025 504.6875,688.85275 504.6875,697.70975 L504.6875,722.5 C504.6875,729.58475 508.22775,734.89725 515.3125,736.66525 C517.08475,736.66525 520.625,736.66525 522.39725,734.89725 C690.625,681.77225 782.70975,502.91525 729.58475,334.6875 C697.70975,233.75 619.79025,157.60275 522.39725,125.72775 Z" id="Shape" fill="#FFFFFF"></path>
        </g>
    </g>
</svg>