<?xml version="1.0" encoding="UTF-8"?>
<svg width="1996px" height="1993px" viewBox="0 0 1996 1993" version="1.1" xmlns="http://www.w3.org/2000/svg" xmlns:xlink="http://www.w3.org/1999/xlink">
    <title>EARN</title>
    <defs>
        <linearGradient x1="22.5954261%" y1="8.41137862%" x2="77.404591%" y2="91.5884887%" id="linearGradient-1">
            <stop stop-color="#FFFFFF" offset="0%"></stop>
            <stop stop-color="#D1D3D4" offset="35.48%"></stop>
            <stop stop-color="#C1C3C5" offset="41.03%"></stop>
            <stop stop-color="#989A9D" offset="51.77%"></stop>
            <stop stop-color="#808285" offset="57.53%"></stop>
            <stop stop-color="#414042" offset="100%"></stop>
        </linearGradient>
        <linearGradient x1="22.7224167%" y1="8.71288802%" x2="77.2773933%" y2="91.2868547%" id="linearGradient-2">
            <stop stop-color="#ED1C24" offset="8.06%"></stop>
            <stop stop-color="#58595B" offset="19.35%"></stop>
            <stop stop-color="#006838" offset="100%"></stop>
        </linearGradient>
        <radialGradient cx="50.0001767%" cy="49.9999655%" fx="50.0001767%" fy="49.9999655%" r="50.0987309%" gradientTransform="translate(0.500002,0.500000),scale(0.995846,1.000000),translate(-0.500002,-0.500000)" id="radialGradient-3">
            <stop stop-color="#002A1C" offset="53.76%"></stop>
            <stop stop-color="#000000" offset="100%"></stop>
        </radialGradient>
        <linearGradient x1="22.5211366%" y1="8.23463917%" x2="77.4789669%" y2="91.7655533%" id="linearGradient-4">
            <stop stop-color="#FFFFFF" offset="0.54%"></stop>
            <stop stop-color="#58595B" offset="67.2%"></stop>
            <stop stop-color="#FFFFFF" offset="100%"></stop>
        </linearGradient>
        <linearGradient x1="-2.40207924e-05%" y1="49.9999336%" x2="100.000012%" y2="49.9999336%" id="linearGradient-5">
            <stop stop-color="#002A1C" offset="0%"></stop>
            <stop stop-color="#000000" offset="100%"></stop>
        </linearGradient>
        <linearGradient x1="0%" y1="50.0000438%" x2="99.999976%" y2="50.0000438%" id="linearGradient-6">
            <stop stop-color="#002A1C" offset="0%"></stop>
            <stop stop-color="#000000" offset="100%"></stop>
        </linearGradient>
        <linearGradient x1="3.17033078e-05%" y1="50.0004631%" x2="99.9999683%" y2="50.0004631%" id="linearGradient-7">
            <stop stop-color="#002A1C" offset="0%"></stop>
            <stop stop-color="#000000" offset="100%"></stop>
        </linearGradient>
    </defs>
    <g id="Page-1" stroke="none" stroke-width="1" fill="none" fill-rule="evenodd">
        <g id="EARN" fill-rule="nonzero">
            <g id="Group">
                <path d="M1832.11316,447.228891 C2134.12916,906.265891 2005.39316,1524.16889 1544.57716,1827.35489 C1083.75316,2130.54689 465.363156,2004.20289 163.348156,1545.16589 C-138.667844,1086.12889 -9.94084379,468.230891 450.883156,165.038891 C911.699156,-138.147109 1530.09716,-11.8081094 1832.11316,447.228891 Z M1490.16416,1750.03689 C1908.45816,1474.82689 2026.78816,916.175891 1754.45316,502.250891 C1482.11716,88.3248906 922.245156,-24.1261094 503.951156,251.082891 C85.6571562,526.291891 -32.6588438,1084.94689 239.676156,1498.87189 C512.011156,1912.79689 1071.87016,2025.24689 1490.16416,1750.03689 Z" id="Shape" fill="url(#linearGradient-1)"></path>
                <path d="M1754.45316,502.249891 C2026.78816,916.174891 1908.45816,1474.82589 1490.16416,1750.03589 C1071.87016,2025.24589 512.012156,1912.79689 239.677156,1498.87189 C-32.6578438,1084.94689 85.6571562,526.291891 503.952156,251.082891 C922.245156,-24.1261094 1482.11716,88.3248906 1754.45316,502.249891 Z M1458.99416,1702.09789 C1851.26516,1444.00889 1962.22316,920.109891 1706.83416,531.939891 C1451.44316,143.770891 926.416156,38.3198906 534.144156,296.407891 C141.880156,554.491891 30.9261562,1078.37689 286.315156,1466.54689 C541.706156,1854.71589 1066.73116,1960.18089 1458.99416,1702.09789 Z" id="Shape" fill="url(#linearGradient-2)"></path>
                <path d="M1706.83416,531.939891 C1962.22416,920.108891 1851.26616,1444.00889 1458.99416,1702.09789 C1066.73116,1960.18089 541.706156,1854.71589 286.316156,1466.54689 C30.9261562,1078.37689 141.880156,554.491891 534.144156,296.408891 C926.415156,38.3198906 1451.44316,143.770891 1706.83416,531.939891 Z M1362.37016,1568.17289 C1674.64316,1362.71789 1761.23716,943.007891 1555.78216,630.734891 C1350.32216,318.453891 930.618156,231.866891 618.345156,437.321891 C306.071156,642.777891 219.471156,1062.47889 424.932156,1374.75989 C630.387156,1687.03389 1050.09616,1773.62789 1362.37016,1568.17289 Z" id="Shape" fill="url(#radialGradient-3)"></path>
                <path d="M1555.78216,630.734891 C1761.23716,943.007891 1674.64316,1362.71789 1362.37016,1568.17289 C1050.09716,1773.62789 630.387156,1687.03289 424.932156,1374.75989 C219.472156,1062.47889 306.072156,642.777891 618.345156,437.321891 C930.618156,231.867891 1350.32216,318.453891 1555.78216,630.734891 Z" id="Path" fill="url(#linearGradient-4)"></path>
            </g>
            <g id="Group" transform="translate(471.999156, 494.327905)">
                <path d="M219.151,601.114986 C255.402,685.940986 322.36,763.739986 409.958,786.343986 C525.411,816.127986 688.588,796.413986 833.02,795.951986 L833.02,992.816986 C637.767,993.776986 433.078,1021.97599 276.991,958.404986 C139.768,902.510986 41.494,770.631986 0.408,559.041986 L201.764,559.041986 L203.847,559.041986 C208.094,573.113986 213.211,587.205986 219.151,601.114986 Z" id="Path" fill="url(#linearGradient-5)"></path>
                <path d="M832.613,7.05098573 L832.613,203.915986 C688.173,203.453986 525.004,183.738986 409.551,213.523986 C319.201,236.833986 250.802,318.879986 215.421,406.775986 C210.875,418.067986 206.873,429.451986 203.44,440.825986 L201.765,440.825986 L0,440.825986 C41.086,229.235986 139.36,97.3559857 276.584,41.4629857 C432.67,-22.1080143 637.36,6.09098573 832.613,7.05098573 Z" id="Path" fill="url(#linearGradient-6)"></path>
                <path d="M832.613,406.775986 L770.77,601.113986 L219.151,601.113986 C213.211,587.204986 208.094,573.112986 203.847,559.040986 L201.764,559.040986 L201.764,440.825986 L203.439,440.825986 C206.872,429.451986 210.874,418.068986 215.42,406.775986 L832.613,406.775986 L832.613,406.775986 Z" id="Path" fill="url(#linearGradient-7)"></path>
            </g>
        </g>
    </g>
</svg>