<?xml version="1.0" encoding="UTF-8"?>
<svg width="100px" height="100px" viewBox="0 0 100 100" version="1.1" xmlns="http://www.w3.org/2000/svg" xmlns:xlink="http://www.w3.org/1999/xlink">
    <title>LUCKY</title>
    <g id="LUCKY" stroke="none" stroke-width="1" fill="none" fill-rule="evenodd">
        <circle id="Oval" fill="#10E25B" cx="50" cy="50" r="50"></circle>
        <circle id="Oval-Copy-2" fill="#000000" cx="50" cy="50" r="42"></circle>
        <path d="M50,53.35 L62.05108,65.3999942 C64.434367,67.0190035 66,69.7516651 66,72.85 C66,77.8205627 61.9705627,81.85 57,81.85 C54.1722917,81.85 51.6491664,80.5459252 50.0007741,78.5063776 C48.3508336,80.5459252 45.8277083,81.85 43,81.85 C38.0294373,81.85 34,77.8205627 34,72.85 C34,69.7534055 35.5638747,67.0220736 37.9449045,65.4027235 L50,53.35 Z M27,34 C30.0983349,34 32.8309965,35.565633 34.4500058,37.94892 L46.5,50 L34.4472765,62.0550955 C32.8279264,64.4361253 30.0965945,66 27,66 C22.0294373,66 18,61.9705627 18,57 C18,54.1722917 19.3040748,51.6491664 21.3436224,49.9992259 C19.3040748,48.3508336 18,45.8277083 18,43 C18,38.0294373 22.0294373,34 27,34 Z M73,34 C77.9705627,34 82,38.0294373 82,43 C82,45.8277083 80.6959252,48.3508336 78.6563776,49.9992259 C80.6959252,51.6491664 82,54.1722917 82,57 C82,61.9705627 77.9705627,66 73,66 C69.9034055,66 67.1720736,64.4361253 65.5527235,62.0550955 L53.5,50 L65.5499942,37.94892 C67.1690035,35.565633 69.9016651,34 73,34 Z M56.95,18.05 C61.9205627,18.05 65.95,22.0794373 65.95,27.05 C65.95,30.1465945 64.3861253,32.8779264 62.0050955,34.4972765 L49.95,46.55 L37.89892,34.5000058 C35.515633,32.8809965 33.95,30.1483349 33.95,27.05 C33.95,22.0794373 37.9794373,18.05 42.95,18.05 C45.7777083,18.05 48.3008336,19.3540748 49.9492259,21.3936224 C51.5991664,19.3540748 54.1222917,18.05 56.95,18.05 Z" id="Combined-Shape" fill="#10E25B"></path>
    </g>
</svg>