<svg width="34" height="34" viewBox="0 0 34 34" fill="none" xmlns="http://www.w3.org/2000/svg">
<g clip-path="url(#clip0_3204_147712)">
<g clip-path="url(#clip1_3204_147712)">
<path d="M19.968 1.32562L20.8548 3.40275C22.5954 7.48112 25.8439 10.7296 29.9222 12.4702L31.9994 13.357C32.543 13.5888 32.9843 13.9212 33.325 14.3172C32.2906 6.90039 26.4246 1.03362 19.0078 0C19.403 0.33984 19.7362 0.78198 19.968 1.32562H19.968Z" fill="#999999"/>
<path d="M1.32562 13.357L3.40277 12.4702C7.48114 10.7296 10.7296 7.48112 12.471 3.40275L13.357 1.32562C13.5896 0.78198 13.9221 0.33984 14.3172 0C6.90039 1.03362 1.03442 6.90039 0 14.3172C0.34067 13.9212 0.78201 13.5888 1.32562 13.357Z" fill="#999999"/>
<path d="M31.9994 19.9651L29.9222 20.8519C25.8439 22.5924 22.5954 25.8418 20.8548 29.9201L19.968 31.9965C19.7362 32.5401 19.403 32.9823 19.0078 33.3229C26.4246 32.2885 32.2906 26.4217 33.325 19.0049C32.9843 19.4009 32.543 19.7333 31.9994 19.9651H31.9994Z" fill="#999999"/>
<path d="M13.357 31.9965L12.471 29.9201C10.7296 25.8418 7.48114 22.5924 3.40277 20.8519L1.32562 19.9651C0.78201 19.7333 0.34067 19.4009 0 19.0049C1.03442 26.4217 6.90039 32.2885 14.3172 33.3229C13.9221 32.9823 13.5896 32.5401 13.357 31.9965Z" fill="#999999"/>
</g>
<path d="M9.10261 15.0333L10.1263 14.5961C12.1358 13.7381 13.737 12.1378 14.5949 10.1283L15.0313 9.10457C15.6434 7.67087 17.6759 7.67087 18.288 9.10457L18.7244 10.1283C19.5823 12.1378 21.1835 13.7381 23.193 14.5961L24.2167 15.0333C25.6504 15.6453 25.6504 17.6771 24.2167 18.2892L23.193 18.7264C21.1835 19.5843 19.5823 21.1846 18.7244 23.195L18.288 24.2178C17.6759 25.6515 15.6434 25.6515 15.0313 24.2178L14.5949 23.195C13.737 21.1846 12.1358 19.5843 10.1263 18.7264L9.10261 18.2892C7.66892 17.6771 7.66892 15.6453 9.10261 15.0333Z" fill="black"/>
</g>
<defs>
<clipPath id="clip0_3204_147712">
<rect width="33.3232" height="33.323" fill="white"/>
</clipPath>
<clipPath id="clip1_3204_147712">
<rect width="33.3232" height="33.323" fill="white"/>
</clipPath>
</defs>
</svg>
