<?xml version="1.0" encoding="UTF-8"?>
<svg width="1996px" height="1993px" viewBox="0 0 1996 1993" version="1.1" xmlns="http://www.w3.org/2000/svg" xmlns:xlink="http://www.w3.org/1999/xlink">
    <title>PXDC</title>
    <defs>
        <linearGradient x1="22.5954261%" y1="8.41136564%" x2="77.4046211%" y2="91.5884812%" id="linearGradient-1">
            <stop stop-color="#FFFFFF" offset="0%"></stop>
            <stop stop-color="#D1D3D4" offset="35.48%"></stop>
            <stop stop-color="#C1C3C5" offset="41.03%"></stop>
            <stop stop-color="#989A9D" offset="51.77%"></stop>
            <stop stop-color="#808285" offset="57.53%"></stop>
            <stop stop-color="#414042" offset="100%"></stop>
        </linearGradient>
        <linearGradient x1="22.7224595%" y1="8.71284669%" x2="77.2774667%" y2="91.2868212%" id="linearGradient-2">
            <stop stop-color="#ED1C24" offset="8.06%"></stop>
            <stop stop-color="#58595B" offset="19.35%"></stop>
            <stop stop-color="#006838" offset="100%"></stop>
        </linearGradient>
        <radialGradient cx="50.0002223%" cy="49.9999522%" fx="50.0002223%" fy="49.9999522%" r="50.0987146%" gradientTransform="translate(0.500002,0.500000),scale(0.995847,1.000000),translate(-0.500002,-0.500000)" id="radialGradient-3">
            <stop stop-color="#002A1C" offset="53.76%"></stop>
            <stop stop-color="#000000" offset="100%"></stop>
        </radialGradient>
        <linearGradient x1="22.5210849%" y1="8.23465722%" x2="77.4789342%" y2="91.7654863%" id="linearGradient-4">
            <stop stop-color="#FFFFFF" offset="0.54%"></stop>
            <stop stop-color="#58595B" offset="67.2%"></stop>
            <stop stop-color="#FFFFFF" offset="100%"></stop>
        </linearGradient>
        <linearGradient x1="-4.98559164e-05%" y1="50.000021%" x2="99.9999202%" y2="50.000021%" id="linearGradient-5">
            <stop stop-color="#002A1F" offset="0%"></stop>
            <stop stop-color="#000000" offset="100%"></stop>
        </linearGradient>
    </defs>
    <g id="Page-1" stroke="none" stroke-width="1" fill="none" fill-rule="evenodd">
        <g id="PXDC" fill-rule="nonzero">
            <path d="M1832.11316,447.228381 C2134.12916,906.265381 2005.39316,1524.16838 1544.57716,1827.35538 C1083.75316,2130.54738 465.363156,2004.20338 163.348156,1545.16638 C-138.667844,1086.13038 -9.94084379,468.231381 450.883156,165.039381 C911.699156,-138.147619 1530.09716,-11.8076186 1832.11316,447.228381 Z M1490.16416,1750.03738 C1908.45816,1474.82738 2026.78816,916.176381 1754.45316,502.250381 C1482.11716,88.3253814 922.245156,-24.1266186 503.951156,251.083381 C85.6571562,526.293381 -32.6588438,1084.94838 239.676156,1498.87338 C512.011156,1912.79838 1071.87016,2025.24738 1490.16416,1750.03738 Z" id="Shape" fill="url(#linearGradient-1)"></path>
            <path d="M1754.45316,502.250381 C2026.78816,916.175381 1908.45816,1474.82738 1490.16416,1750.03738 C1071.87016,2025.24738 512.011156,1912.79838 239.676156,1498.87338 C-32.6588438,1084.94838 85.6561562,526.293381 503.951156,251.083381 C922.245156,-24.1266186 1482.11716,88.3253814 1754.45316,502.250381 Z M1458.99416,1702.09838 C1851.26516,1444.00938 1962.22316,920.110381 1706.83416,531.940381 C1451.44316,143.771381 926.416156,38.3193814 534.144156,296.408381 C141.880156,554.492381 30.9261562,1078.37838 286.315156,1466.54838 C541.706156,1854.71738 1066.73116,1960.18138 1458.99416,1702.09838 Z" id="Shape" fill="url(#linearGradient-2)"></path>
            <path d="M1706.83316,531.941381 C1962.22316,920.110381 1851.26516,1444.01038 1458.99316,1702.09938 C1066.73016,1960.18238 541.705156,1854.71738 286.315156,1466.54838 C30.9251562,1078.37838 141.880156,554.492381 534.143156,296.409381 C926.415156,38.3203814 1451.44316,143.771381 1706.83316,531.941381 Z M1362.37016,1568.17438 C1674.64316,1362.71838 1761.23816,943.009381 1555.78216,630.736381 C1350.32216,318.454381 930.618156,231.868381 618.345156,437.323381 C306.071156,642.778381 219.471156,1062.47838 424.932156,1374.76138 C630.387156,1687.03438 1050.09616,1773.62938 1362.37016,1568.17438 Z" id="Shape" fill="url(#radialGradient-3)"></path>
            <path d="M1555.78216,630.736381 C1761.23816,943.009381 1674.64316,1362.71838 1362.37016,1568.17438 C1050.09716,1773.62938 630.387156,1687.03438 424.932156,1374.76138 C219.472156,1062.47938 306.072156,642.779381 618.345156,437.323381 C930.618156,231.867381 1350.32216,318.454381 1555.78216,630.736381 Z" id="Path" fill="url(#linearGradient-4)"></path>
            <path d="M1469.61916,1480.86238 L1180.37616,1480.86238 L984.404156,1223.25538 L788.421156,1480.86238 L511.069156,1480.86238 L511.069156,1480.58138 C495.456156,1468.45638 494.670156,1464.14038 488.232156,1456.32238 L488.222156,1456.32238 L830.642156,1006.21638 L484.541156,551.269381 C490.113156,544.508381 490.800156,540.775381 504.313156,530.270381 L787.436156,530.270381 L983.418156,787.878381 L1179.39116,530.270381 L1475.45016,530.270381 L1476.00716,530.270381 C1483.80916,536.337381 1484.20716,538.500381 1487.43116,542.404381 L1487.43116,544.507381 L1136.96116,1005.20838 L1138.03516,1006.04338 L1486.18616,1463.68738 C1478.50416,1472.85338 1483.52016,1468.00438 1469.61916,1480.86238 Z" id="Path" fill="url(#linearGradient-5)"></path>
        </g>
    </g>
</svg>