<?xml version="1.0" encoding="UTF-8"?>
<svg width="256px" height="256px" viewBox="0 0 256 256" version="1.1" xmlns="http://www.w3.org/2000/svg" xmlns:xlink="http://www.w3.org/1999/xlink">
    <title>DISCOVERY</title>
    <defs>
        <linearGradient x1="73.4826617%" y1="5.74378234%" x2="26.309259%" y2="94.4130528%" id="linearGradient-1">
            <stop stop-color="#00EAFF" offset="0%"></stop>
            <stop stop-color="#0080FF" offset="25.2530882%"></stop>
            <stop stop-color="#8000FF" offset="49.7394282%"></stop>
            <stop stop-color="#E619E6" offset="74.9912298%"></stop>
            <stop stop-color="#FF0000" offset="99.9136118%"></stop>
        </linearGradient>
        <linearGradient x1="76.2262818%" y1="7.33544096%" x2="23.6511094%" y2="92.6895651%" id="linearGradient-2">
            <stop stop-color="#00EAFF" offset="0%"></stop>
            <stop stop-color="#0080FF" offset="25%"></stop>
            <stop stop-color="#8000FF" offset="50%"></stop>
            <stop stop-color="#E619E6" offset="75%"></stop>
            <stop stop-color="#FF0000" offset="100%"></stop>
        </linearGradient>
    </defs>
    <g id="Page-1" stroke="none" stroke-width="1" fill="none" fill-rule="evenodd">
        <g id="DISCOVERY">
            <path d="M128,0 C198.692448,0 256,57.307552 256,128 C256,198.692448 198.692448,256 128,256 C57.307552,256 0,198.692448 0,128 C0,57.307552 57.307552,0 128,0 Z" id="Path" fill="url(#linearGradient-1)" fill-rule="nonzero"></path>
            <path d="M128,10 C62.8303995,10 10,62.8303995 10,128 C10,193.1696 62.8303995,246 128,246 C193.1696,246 246,193.1696 246,128 C246,62.8303995 193.1696,10 128,10 Z" id="Path" fill="#000000" fill-rule="nonzero"></path>
            <path d="M53.7834562,207 L41.3026911,207 L41.3026911,179.210938 L53.7834562,179.210938 C55.5785899,179.236075 57.0723508,179.437172 58.2647388,179.814228 C60.2957295,180.455224 61.9401767,181.630384 63.1980806,183.339706 C64.2070244,184.722247 64.8949405,186.217904 65.2618292,187.826678 C65.6287178,189.435453 65.8121621,190.968816 65.8121621,192.426767 C65.8121621,196.121921 65.0390754,199.251489 63.4929018,201.815474 C61.3963954,205.271825 58.1599135,207 53.7834562,207 Z M58.2843936,186.299599 C57.3540688,184.791373 55.5130741,184.03726 52.7614093,184.03726 L47.1794608,184.03726 L47.1794608,202.173677 L52.7614093,202.173677 C55.6178994,202.173677 57.6095805,200.822558 58.7364528,198.12032 C59.3523016,196.637231 59.6602259,194.87135 59.6602259,192.822676 C59.6602259,189.994753 59.2016151,187.820394 58.2843936,186.299599 Z M68.3048709,185.210938 L74.2814334,185.210938 L74.2814334,207 L68.3048709,207 L68.3048709,185.210938 Z M91.6898631,186.6875 C92.047491,186.916605 92.5104166,187.33985 93.07864,187.957233 L90,192 C89.921875,191.283854 88.7146027,190.91276 88.3890819,190.496094 C87.7771027,189.740885 86.735436,189.363281 85.2640819,189.363281 C84.0531444,189.363281 83.1905142,189.552083 82.6761912,189.929688 C82.1618683,190.307292 81.9047069,190.75 81.9047069,191.257813 C81.9047069,191.895833 82.1781444,192.358073 82.7250194,192.644531 C83.2718944,192.94401 85.2054881,193.458333 88.5258006,194.1875 C90.7393423,194.708333 92.3994985,195.496094 93.5062694,196.550781 C94.6000194,197.61849 95.1468944,198.953125 95.1468944,200.554688 C95.1468944,202.664063 94.3623892,204.386068 92.7933787,205.720703 C91.2243683,207.055339 88.7992381,207.722656 85.5179881,207.722656 C82.171634,207.722656 79.7009308,207.016276 78.1058787,205.603516 C77.7235816,205.26491 77.1882887,204.563738 76.5,203.5 L80,200.5 C80.1171875,201.489583 81.7289256,201.895833 82.1195506,202.3125 C82.8096548,203.054688 84.0856965,203.425781 85.9476756,203.425781 C87.0414256,203.425781 87.9105662,203.263021 88.5550975,202.9375 C89.1996287,202.611979 89.5218944,202.123698 89.5218944,201.472656 C89.5218944,200.847656 89.2614777,200.372396 88.7406444,200.046875 C88.219811,199.721354 86.2862173,199.161458 82.9398631,198.367188 C80.531009,197.768229 78.8317902,197.019531 77.8422069,196.121094 C76.8526235,195.235677 76.3578319,193.959635 76.3578319,192.292969 C76.3578319,190.326823 77.1293162,188.63737 78.672285,187.224609 C80.2152537,185.811849 82.3864777,185.105469 85.1859569,185.105469 C87.8422069,185.105469 90.0101756,185.632813 91.6898631,186.6875 Z M110.5,192.5 C110.395833,191.705729 109.929687,191.638021 109.5,191 C108.875,190.140625 107.17121,189.910156 105.856105,189.910156 C103.981105,189.910156 102.698553,190.841146 102.008449,192.703125 C101.643866,193.692708 101.461574,195.007813 101.461574,196.648438 C101.461574,198.210938 101.643866,199.467448 102.008449,200.417969 C102.672512,202.188802 103.922512,203.074219 105.758449,203.074219 C107.060532,203.074219 107.985012,202.722656 108.531887,202.019531 C109.078762,201.316406 110.882812,200.619792 111,199.5 L114.134167,202.887487 C113.81896,203.426014 113.566117,203.8268 113.375637,204.089844 C111.630845,206.52474 109.04621,207.742188 105.62173,207.742188 C102.197251,207.742188 99.67772,206.726563 98.0631366,204.695313 C96.4485533,202.664063 95.6412616,200.027344 95.6412616,196.785156 C95.6412616,193.126302 96.5331887,190.28125 98.3170429,188.25 C100.100897,186.21875 102.561835,185.203125 105.699855,185.203125 C108.369126,185.203125 110.553371,185.802083 112.25259,187 C112.857741,187.42662 113.567603,188.328513 114.382174,189.705679 L110.5,192.5 Z M127.252816,185.027344 C130.911671,185.027344 133.639535,186.153646 135.43641,188.40625 C137.233285,190.658854 138.131723,193.321615 138.131723,196.394531 C138.131723,199.519531 137.233285,202.192057 135.43641,204.412109 C133.639535,206.632161 130.911671,207.742188 127.252816,207.742188 C123.593962,207.742188 120.866098,206.632161 119.069223,204.412109 C117.272348,202.192057 116.37391,199.519531 116.37391,196.394531 C116.37391,193.321615 117.272348,190.658854 119.069223,188.40625 C120.866098,186.153646 123.593962,185.027344 127.252816,185.027344 Z M143.860465,185.710938 L148.294059,201.414063 L152.825309,185.710938 L158.801871,185.710938 L151.12609,207 L145.247184,207 L137.610465,185.710938 L143.860465,185.710938 Z M127.233285,189.734375 C125.605681,189.734375 124.352426,190.310547 123.473519,191.462891 C122.594613,192.615234 122.15516,194.259115 122.15516,196.394531 C122.15516,198.529948 122.594613,200.177083 123.473519,201.335938 C124.352426,202.494792 125.605681,203.074219 127.233285,203.074219 C128.860889,203.074219 130.110889,202.494792 130.983285,201.335938 C131.855681,200.177083 132.291879,198.529948 132.291879,196.394531 C132.291879,194.259115 131.855681,192.615234 130.983285,191.462891 C130.110889,190.310547 128.860889,189.734375 127.233285,189.734375 Z M179.75327,200.75 C179.61004,202.013021 178.952488,203.295573 177.780613,204.597656 C175.957697,206.667969 173.405613,207.703125 170.124363,207.703125 C167.41603,207.703125 165.026707,206.830729 162.956395,205.085938 C160.886082,203.341146 159.850926,200.502604 159.850926,196.570313 C159.850926,192.885417 160.785171,190.059896 162.65366,188.09375 C164.52215,186.127604 166.94728,185.144531 169.929051,185.144531 C171.699884,185.144531 173.294936,185.476563 174.714207,186.140625 C176.133478,186.804688 177.305353,187.852865 178.229832,189.285156 C179.063165,190.548177 179.60353,192.013021 179.850926,193.679688 C179.994155,194.65625 180.052749,196.0625 180.026707,197.898438 L165.456395,197.898438 C165.53452,200.033854 166.205093,201.53125 167.468113,202.390625 C168.236343,202.924479 169.160822,203.191406 170.241551,203.191406 C171.387384,203.191406 172.318374,202.865885 173.03452,202.214844 C173.425145,201.863281 173.770197,201.375 174.069676,200.75 L179.75327,200.75 Z M174.245457,194.226563 C174.154311,192.755208 173.708348,191.638672 172.907566,190.876953 C172.106785,190.115234 171.113947,189.734375 169.929051,189.734375 C168.639988,189.734375 167.640639,190.138021 166.931004,190.945313 C166.221369,191.752604 165.775405,192.846354 165.593113,194.226563 L174.245457,194.226563 Z M193.064043,190.847656 C190.82446,190.847656 189.320554,191.576823 188.552324,193.035156 C188.122637,193.855469 187.907793,195.11849 187.907793,196.824219 L187.907793,207 L182.302324,207 L182.302324,185.710938 L187.614824,185.710938 L187.614824,189.421875 C188.474199,188.002604 189.222897,187.032552 189.860918,186.511719 C190.902585,185.639323 192.256751,185.203125 193.923418,185.203125 C194.027585,185.203125 194.115475,185.20638 194.18709,185.212891 C194.258705,185.219401 194.41821,185.229167 194.665606,185.242188 L194.665606,190.945313 C194.314043,190.90625 194.001543,190.880208 193.728106,190.867188 C193.454668,190.854167 193.233314,190.847656 193.064043,190.847656 Z M207.163879,201.414063 L211.55841,185.710938 L217.476379,185.710938 L210.171692,206.648438 C208.765442,210.684896 207.65216,213.188151 206.831848,214.158203 C206.011535,215.128255 204.37091,215.613281 201.909973,215.613281 C201.415181,215.613281 201.018046,215.610026 200.718567,215.603516 C200.419087,215.597005 197.969869,215.574219 197.37091,215.535156 L197.37091,211.082031 L200.074035,211.121094 C200.62091,211.147135 201.141744,211.127604 201.636535,211.0625 C202.131327,210.997396 202.547994,210.847656 202.886535,210.613281 C203.212056,210.391927 203.514791,209.929688 203.794738,209.226563 C204.074686,208.523438 204.188619,208.09375 204.136535,207.9375 L196.324035,185.710938 L202.515442,185.710938 L207.163879,201.414063 Z" id="Text" fill="#FFFFFF" fill-rule="nonzero"></path>
            <path d="M105,40 C133.333333,40 153.5,40 165.5,40 C183.5,40 223,60.5 223,106.5 C223,152.5 181,169.5 160,169.5 C147.18689,169.5 132.419306,169.5 115.697248,169.5 C115.146107,169.642344 114.539033,169.462459 114.27555,168.977078 C114.013504,168.494343 114.189867,167.890612 114.670832,167.625333 C118.71474,165.383982 122.157796,162.842204 125,160 C128.666667,156.333333 131.166667,152.5 132.5,148.5 C144.833333,148.5 153.666667,148.5 159,148.5 C167,148.5 198.5,139.5 198.5,106.5 C198.5,73.5 173,61.5 160,61.5 C151.333333,61.5 140.833333,61.5 128.5,61.5 L128.5,79.0213623 C128.499016,79.5736462 128.050504,80.020564 127.498221,80.0195812 C127.161414,80.0189819 126.847536,79.8488772 126.664452,79.5661731 C124.197804,75.8135752 121.809653,72.9581841 119.5,71 C116.621893,68.5598655 111.788559,65.7265321 105,62.5 L105,40 Z" id="D" fill="#FFFFFF"></path>
            <path d="M135.5,124.253888 C135.5,124.719817 135.3923,125.162743 135.188049,125.547125 L114.171637,162.001569 C113.280331,163.547604 111.633129,164.5 109.850517,164.5 L63.1494836,164.5 C61.3668712,164.5 59.7196693,163.547604 58.8283632,162.001569 L37.809988,125.543651 C37.6063338,125.159908 37.5,124.719112 37.5,124.253888 C37.5,122.745033 38.7213901,121.521866 40.2280513,121.521866 L63.2870108,121.521866 L69.1307487,131.462296 L69.1666677,131.521691 C69.9464911,132.775606 71.5872874,133.184286 72.8656778,132.430571 L72.8656778,132.430571 L72.9318363,132.39029 C73.5212743,132.019842 73.947995,131.437045 74.1227624,130.760454 L74.1227624,130.760454 L81.5689422,101.933062 L87.9626255,148.343496 L87.9723128,148.408197 C88.2084729,149.868205 89.5670263,150.879724 91.0379194,150.676499 L91.0379194,150.676499 L91.1047358,150.666427 C92.1696956,150.492432 93.0349004,149.704598 93.3061944,148.654316 L93.3061944,148.654316 L102.281568,113.907092 L105.966777,120.175889 L106.003367,120.236335 C106.500714,121.034542 107.374875,121.521866 108.317676,121.521866 L108.317676,121.521866 L132.771949,121.521866 L132.771949,121.521866 C134.27861,121.521866 135.5,122.745033 135.5,124.253888 Z M109.850517,73.5 C111.633129,73.5 113.280331,74.4523963 114.171637,75.9984306 L135.189361,112.454533 C135.392614,112.838514 135.5,113.281191 135.5,113.746112 C135.5,115.254966 134.27861,116.478134 132.771949,116.478134 L109.637443,116.478134 L103.793705,106.537704 L103.753483,106.471449 C103.383573,105.881153 102.801623,105.453812 102.126015,105.27879 L102.126015,105.27879 L102.062581,105.26315 C100.62446,104.926483 99.1735488,105.799946 98.8016914,107.239546 L98.8016914,107.239546 L91.3553022,136.066728 L84.9618286,89.656504 L84.9517708,89.5895901 C84.7780286,88.5230802 83.9913392,87.6566168 82.9425837,87.3849279 C81.483936,87.0070532 79.9955855,87.8849136 79.6182597,89.345684 L79.6182597,89.345684 L70.6426765,124.092698 L66.9576765,117.824111 L66.9210866,117.763665 C66.4237396,116.965458 65.5495785,116.478134 64.6067779,116.478134 L64.6067779,116.478134 L40.2280513,116.478134 L40.2280513,116.478134 C38.7213901,116.478134 37.5,115.254966 37.5,113.746112 C37.5,113.284755 37.6034789,112.848413 37.8033808,112.467002 L58.8283632,75.9984306 C59.7196693,74.4523963 61.3668712,73.5 63.1494836,73.5 L109.850517,73.5 Z" id="PLS" fill="url(#linearGradient-2)" fill-rule="nonzero"></path>
        </g>
    </g>
</svg>