<?xml version="1.0" encoding="UTF-8"?>
<svg width="1008px" height="1008px" viewBox="0 0 1008 1008" version="1.1" xmlns="http://www.w3.org/2000/svg" xmlns:xlink="http://www.w3.org/1999/xlink">
    <title>UP</title>
    <defs>
        <linearGradient x1="23.9592338%" y1="7.17286214%" x2="77.5594457%" y2="91.4833016%" id="linearGradient-1">
            <stop stop-color="#00F9C5" offset="0%"></stop>
            <stop stop-color="#D901FF" offset="100%"></stop>
        </linearGradient>
    </defs>
    <g id="Page-1" stroke="none" stroke-width="1" fill="none" fill-rule="evenodd">
        <g id="UP">
            <circle id="bg" fill="url(#linearGradient-1)" cx="504" cy="504" r="504"></circle>
            <path d="M643.180184,611.726627 C646.350732,611.690792 649.501719,612.223423 652.483176,613.300087 C655.26576,614.322999 657.772857,615.976273 659.807224,618.131229 C661.869304,620.269898 663.422791,622.846724 664.348689,625.669506 C665.385434,628.79688 665.892395,632.074108 665.850013,635.367625 C665.80926,642.138717 663.977026,648.779502 660.53914,654.615639 C659.42089,656.529527 658.121699,658.331025 656.657867,659.995701 C655.433661,661.433967 654.044814,662.72401 652.519038,663.838137 C650.991633,664.953893 649.34523,665.898621 647.612431,666.656032 C645.83562,667.432989 643.982194,668.021 642.081495,668.411922 C640.140043,668.793071 638.16599,668.990161 636.185416,668.998305 C633.039319,669.03414 629.912783,668.501509 626.957408,667.424845 C624.189495,666.406819 621.687288,664.781236 619.63173,662.667 C617.590842,660.525074 616.040615,657.966165 615.090265,655.164558 C614.037219,652.092564 613.528628,648.860944 613.588941,645.614664 L613.662296,645.614664 C613.693268,638.871262 615.471709,632.251652 618.826459,626.402484 C619.887656,624.516286 621.113492,622.729448 622.489298,621.058257 C623.747737,619.572754 625.174077,618.233846 626.737344,617.069225 C628.25986,615.898088 629.920934,614.915897 631.681444,614.142198 C633.451735,613.342437 635.306791,612.741395 637.21075,612.348844 C639.175023,611.938376 641.175158,611.729884 643.180184,611.726627 Z M693.208015,613.226789 L688.446487,635.952379 L711.994941,613.226789 L725.290054,613.226789 L701.045546,636.318868 L717.123242,667.716407 L706.354788,667.716407 L693.75736,642.979199 L685.29713,650.737369 L681.634291,667.716407 L671.56352,667.716407 L671.966156,665.778086 L671.966156,665.631491 L683.246462,613.226789 L693.208015,613.226789 Z M612.490253,613.081822 L610.512939,622.156096 L596.303339,622.156096 L586.708559,667.57144 L576.562804,667.57144 L576.965439,665.631491 L586.195077,622.156096 L570.557508,622.156096 L572.461467,613.081822 L612.490253,613.081822 Z M767.296153,613.081822 L765.245485,622.595883 L741.000977,622.595883 L738.400964,634.892003 L761.911926,634.892003 L759.934612,644.18617 L736.459513,644.18617 L733.419372,658.055751 L759.605332,658.055751 L757.554663,667.57144 L721.480505,667.57144 L721.88314,665.631491 L721.993987,665.631491 L732.980875,613.081822 L767.296153,613.081822 Z M790.075199,613.081822 L805.236778,649.675364 L813.000954,613.081822 L823,613.081822 L811.463768,667.57144 L802.563411,667.57144 L787.21926,630.97627 L779.455084,667.57144 L769.456038,667.57144 L769.860304,665.631491 L769.96952,665.631491 L780.956408,613.081822 L790.075199,613.081822 Z M313.355606,666.509436 L428.050727,604.961939 L424.836166,619.962047 C421.442293,636.405197 415.399505,648.26153 406.707801,655.531048 C398.016097,662.802194 385.136661,666.460571 368.071122,666.509436 L313.355606,666.509436 Z M394.255452,419.862024 L467.209038,420.044943 L438.349712,557.092042 L281.347249,666.473602 L268.712165,666.473602 C242.978396,666.473602 222.42069,660.740081 207.039047,649.274669 C191.657355,637.807629 183.97869,621.37751 184.003105,599.981054 C183.943943,592.597518 184.7304,585.23027 186.347037,578.024277 L219.820514,419.935159 L292.224105,419.935159 L262.559508,559.543447 C261.214836,566.125594 260.44282,572.810357 260.252261,579.52444 C260.252261,591.307476 263.658196,599.847489 270.470067,605.141222 C277.318452,610.557119 288.158956,613.264253 303.064609,613.264253 L337.014255,613.264253 C347.808551,613.264253 354.148373,608.036721 356.451244,597.581657 L394.255452,419.862024 Z M725.803536,341.00011 C780.079413,341.00011 807.217352,368.739221 807.217352,424.216731 C807.154449,435.66001 806.18618,447.079193 804.31798,458.367136 L803.957148,460.482061 C798.049658,495.832635 787.06277,521.643575 770.996485,537.915697 C754.931829,554.189447 728.807814,562.325508 692.624439,562.325508 L554.042944,562.325508 L531.738258,666.473602 L447.981985,666.473602 L465.340941,584.904502 L651.788753,484.817597 L664.423673,501.724316 C669.734546,508.787133 681.124069,506.224966 683.980008,497.076743 L684.750986,494.681816 C685.258732,493.096037 685.739431,491.526522 686.105661,489.940791 L699.910995,425.863489 C702.292574,414.885101 700.277768,411.225584 686.105661,409.908177 L611.063913,403.430928 C609.2545,403.466274 607.49562,404.034576 606.008967,405.06433 C604.520684,406.094246 603.371462,407.540005 602.70149,409.220318 C602.033148,410.90063 601.876658,412.740732 602.249952,414.510142 C602.623245,416.279552 603.51002,417.899271 604.801061,419.166672 L615.569515,433.511875 L477.023883,530.01256 L506.615125,391.208268 C510.302416,373.569549 516.894548,360.785916 526.391523,352.857093 C535.888497,344.928237 549.317278,340.975937 566.677865,341.00011 L725.803536,341.00011 Z M643.132962,620.950005 L642.630839,620.949124 C641.398482,620.924692 640.167755,621.059886 638.96963,621.351448 C637.805737,621.61532 636.676077,622.007871 635.600209,622.522585 C633.37675,623.633454 631.425518,625.219945 629.886702,627.169668 C628.911901,628.358722 628.064247,629.647135 627.360043,631.012104 C626.562923,632.473174 625.901102,634.005914 625.381099,635.587518 C624.841536,637.196813 624.43727,638.850087 624.173194,640.527793 C623.879776,642.158263 623.733066,643.811537 623.733066,645.468068 C623.706985,647.552984 624.015074,649.628128 624.649184,651.615314 C625.157776,653.268588 626.020099,654.793183 627.175842,656.079967 C628.279421,657.288567 629.645446,658.22678 631.167962,658.824564 C632.89424,659.498904 634.736255,659.823044 636.588051,659.775807 C637.747054,659.787209 638.901166,659.663417 640.030827,659.409318 C640.962702,659.224716 641.870804,658.938312 642.738154,658.553875 L643.253538,658.311479 C644.306584,657.842373 645.302577,657.252733 646.220324,656.555589 C647.173934,655.848672 648.044408,655.039138 648.820337,654.140017 C649.860342,652.892325 650.79113,651.558304 651.604551,650.150986 C652.424492,648.649194 653.122176,647.082249 653.691082,645.468068 C654.251837,643.770816 654.680554,642.032842 654.973972,640.270436 C655.270651,638.455907 655.41736,636.620204 655.412469,634.781242 C655.446702,632.807087 655.150023,630.839447 654.533844,628.963022 C653.974719,627.348841 653.089574,625.866595 651.933832,624.60913 C650.807431,623.410303 649.431625,622.47372 647.904219,621.864533 C646.374097,621.295525 644.761544,620.986487 643.132962,620.950005 Z" id="uP" fill="#FFFFFF" fill-rule="nonzero"></path>
        </g>
    </g>
</svg>