<?xml version="1.0" encoding="UTF-8"?>
<svg width="256px" height="256px" viewBox="0 0 256 256" version="1.1" xmlns="http://www.w3.org/2000/svg" xmlns:xlink="http://www.w3.org/1999/xlink">
    <title>pOKB</title>
    <defs>
        <linearGradient x1="73.4282064%" y1="5.80866472%" x2="26.4366534%" y2="94.2397282%" id="linearGradient-1">
            <stop stop-color="#00EAFF" offset="0%"></stop>
            <stop stop-color="#0080FF" offset="25.2530882%"></stop>
            <stop stop-color="#8000FF" offset="49.7394282%"></stop>
            <stop stop-color="#E619E6" offset="74.9912298%"></stop>
            <stop stop-color="#FF0000" offset="99.9136118%"></stop>
        </linearGradient>
    </defs>
    <g id="Page-1" stroke="none" stroke-width="1" fill="none" fill-rule="evenodd">
        <g id="pOKB">
            <path d="M128,256 C198.718774,256 256,198.678928 256,128 C256,57.3210716 198.718774,0 128,0 C57.2812261,0 0,57.3210716 0,128 C0,198.678928 57.3302682,256 128,256 Z" id="bg" fill="url(#linearGradient-1)" fill-rule="nonzero"></path>
            <path d="M157.2,55 L196.232653,55 C198.865586,55 201,57.1344139 201,59.7673469 L201,98.8 C201,101.432933 198.865586,103.567347 196.232653,103.567347 L157.2,103.567347 C154.567067,103.567347 152.432653,101.432933 152.432653,98.8 L152.432653,59.7673469 C152.432653,57.1344139 154.567067,55 157.2,55 Z M59.7673469,55 L98.8,55 C101.432933,55 103.567347,57.1344139 103.567347,59.7673469 L103.567347,98.8 C103.567347,101.432933 101.432933,103.567347 98.8,103.567347 L59.7673469,103.567347 C57.1344139,103.567347 55,101.432933 55,98.8 L55,59.7673469 C55,57.1344139 57.1344139,55 59.7673469,55 Z M59.7673469,152.432653 L98.8,152.432653 C101.432933,152.432653 103.567347,154.567067 103.567347,157.2 L103.567347,196.232653 C103.567347,198.865586 101.432933,201 98.8,201 L59.7673469,201 C57.1344139,201 55,198.865586 55,196.232653 L55,157.2 C55,154.567067 57.1344139,152.432653 59.7673469,152.432653 Z M196.232653,152.432653 C198.865586,152.432653 201,154.567067 201,157.2 L201,196.232653 C201,198.865586 198.865586,201 196.232653,201 L157.2,201 C154.567067,201 152.432653,198.865586 152.432653,196.232653 L152.432653,157.2 C152.432653,154.567067 154.567067,152.432653 157.2,152.432653 L196.232653,152.432653 Z M147.665306,103.865306 C150.298239,103.865306 152.432653,105.99972 152.432653,108.632653 L152.432653,147.665306 C152.432653,150.298239 150.298239,152.432653 147.665306,152.432653 L108.632653,152.432653 C105.99972,152.432653 103.865306,150.298239 103.865306,147.665306 L103.865306,108.632653 C103.865306,105.99972 105.99972,103.865306 108.632653,103.865306 L147.665306,103.865306 Z" id="logo" fill="#FFFFFF"></path>
        </g>
    </g>
</svg>