<?xml version="1.0" encoding="UTF-8"?>
<svg width="1002px" height="880px" viewBox="0 0 1002 880" version="1.1" xmlns="http://www.w3.org/2000/svg" xmlns:xlink="http://www.w3.org/1999/xlink">
    <title>HEXFIRE</title>
    <defs>
        <linearGradient x1="75.4312881%" y1="11.4962469%" x2="25.054008%" y2="88.5037531%" id="linearGradient-1">
            <stop stop-color="#FE01FA" offset="0%"></stop>
            <stop stop-color="#FF2D3D" offset="52.1114291%"></stop>
            <stop stop-color="#FFDB01" offset="100%"></stop>
        </linearGradient>
    </defs>
    <g id="Page-1" stroke="none" stroke-width="1" fill="none" fill-rule="evenodd">
        <path d="M729.673938,0.925120281 C745.036359,0.925120281 759.231821,9.12087398 766.913031,22.4251203 L995.586969,418.5 C1003.26818,431.804246 1003.26818,448.195754 995.586969,461.5 L766.913031,857.57488 C759.231821,870.879126 745.036359,879.07488 729.673938,879.07488 L636.844123,879.07412 L640.736744,877.107 C648.681744,873.09 666.978744,860.906 675.957744,853.653 C692.929744,839.945 711.757744,819.752 724.173744,801.944 C750.104744,764.751 771.004744,713.82 780.574744,664.5 L782.320744,655.5 L782.330744,620.5 L782.330744,585.5 L780.616744,576.089 C770.688744,521.585 746.191744,467.445 711.576744,423.504 C703.027744,412.653 697.014744,406 695.754744,406 C695.316744,406 694.957744,415.835 694.957744,427.855 C694.957744,473.046 689.865744,502.762 678.994744,521 C674.803744,528.033 667.716744,535.587 666.193744,534.646 C664.358744,533.512 650.962744,505.352 647.080744,494.47 C632.330744,453.116 632.506744,392.74 647.508744,347.531 C655.670744,322.933 667.838744,296.814 682.229744,273 C687.444744,264.37 689.354744,260.402 688.400744,260.182 C685.056744,259.415 661.575744,270.763 639.652744,283.742 C617.205744,297.031 595.405744,318.85 577.697744,345.75 C572.899744,353.038 568.544744,359 568.018744,359 C567.080404,359 562.777003,346.4554 558.997496,333.272236 L558.707864,332.257088 C558.467474,331.410416 558.229646,330.562375 557.995406,329.7161 L557.716104,328.701618 C557.114965,326.506283 556.540844,324.33137 556.011744,322.232 C551.785744,305.469 550.625744,292.33 551.265744,268.5 L551.802744,248.5 L554.340744,238.878 C560.280744,216.358 567.703744,201.843 585.984744,177 C606.759744,148.769 615.111744,128.203 616.646744,101.5 C617.326744,89.671 615.953744,78.158 611.993744,62.478 C610.506295,56.5883448 608.358909,50.0503186 606.503662,45.3721734 L606.273347,44.7972736 C604.863301,41.3140316 603.65041,38.9979997 603.070744,38.9979997 C602.733744,38.9979997 602.612744,41.757 602.803744,45.132 C604.758744,79.859 575.925744,128.364 525.473744,175.22 C522.137534,178.31852 519.069655,181.119757 515.986838,183.849563 L515.01249,184.709496 C502.168333,196.007621 488.550424,206.48186 453.796744,232.367 C417.000744,259.774 403.279744,271.125 380.957744,292.626 C351.155744,321.332 332.177744,342.272 313.552744,367 C293.124744,394.12 279.273744,416.836 263.857744,448.5 C238.291744,501.008 224.967744,546.983 220.994744,596.395 C220.375284,604.10065 220.044761,618.384039 220.004525,632.921205 L220.000966,634.777905 L220.000561,636.634438 C220.010136,651.787487 220.335354,666.63138 220.977744,674 C224.252744,711.553 236.571744,753.254 253.474744,784 C274.191744,821.685 305.580744,853.401 342.454744,873.907 L351.748123,879.07412 L272.326062,879.07488 C256.963641,879.07488 242.768179,870.879126 235.086969,857.57488 L6.41303079,461.5 C-1.2681794,448.195754 -1.2681794,431.804246 6.41303079,418.5 L235.086969,22.4251203 C242.768179,9.12087398 256.963641,0.925120281 272.326062,0.925120281 L729.673938,0.925120281 Z M506.356744,451.453 C529.342744,467.544 553.003744,487.191 573.825744,507.477 C633.608744,565.717 669.155744,632.542 671.615744,691.315 C672.273744,707.033 670.872744,726.18 667.979744,741 C660.037744,781.687 632.990744,828.76 594.626744,868.667 L584.620123,879.07412 L568.461123,879.07412 L581.102744,866.25 C582.410463,864.923333 583.760719,863.531878 585.116403,862.116244 L585.930168,861.264288 C592.033841,854.857729 598.097165,848.126053 600.738744,844.77 C615.656744,825.814 629.745744,794.489 632.894744,773.277 C634.628744,761.6 635.317744,731.584 634.119744,719.949 C630.634744,686.117 611.584744,639.503 586.596744,603.662 C580.584744,595.039 578.957744,593.067 578.957744,594.4 C578.957744,594.619 580.491744,598.782 582.366744,603.65 C595.210744,636.996 598.323744,676.04 590.883744,710.487 C588.164744,723.075 580.904744,745 579.454744,745 C579.192744,745 576.909744,740.882 574.381744,735.848 C566.345744,719.848 556.801744,706.868 544.304744,694.944 C533.540744,684.674 527.078744,679.98 516.457744,674.72 C503.562744,668.333 484.957744,662.532 484.957744,664.898 C484.957744,665.48 487.837744,672.178 491.357744,679.783 C499.174744,696.673 501.397744,703.686 503.551744,718.238 C507.033744,741.767 502.250744,785.88 495.720744,790.453 C492.803744,792.496 481.289744,792.496 473.417744,790.453 C453.352744,785.244 438.747744,772.042 422.699744,744.607 C421.182744,742.014 419.535744,740.143 419.039744,740.449 C417.861744,741.177 416.164744,751.735 415.015744,765.471 C411.489744,807.63 427.204744,845.72 459.453744,873.183 L466.371123,879.07412 L431.767123,879.07412 L416.240744,863.75 C391.162744,839 379.462744,824.952 366.137744,803.593 C349.596744,777.081 337.734744,748.01 330.804744,717 L328.457744,706.5 L328.457744,628.07 L330.134744,626.394 L331.810744,624.718 L336.247744,634.213 C342.221744,646.996 347.715744,654.838 357.909744,665.131 C367.402744,674.717 379.149744,682.797 391.878744,688.496 L400.298744,692.266 L402.844744,691.371 C406.661744,690.029 414.535744,679.664 419.594744,669.325 C425.313744,657.635 427.927744,645.476 427.941744,630.5 C427.959744,610.193 424.239744,595.548 413.461744,573.5 C406.144744,558.53 397.776744,545.699 383.811744,528.036 C381.713679,525.382452 379.763361,522.853873 378.160787,520.721955 L377.767503,520.197397 C375.452662,517.101516 373.957744,514.949065 373.957744,514.657 C373.957744,512.351 396.070744,517.905 411.957744,524.201 C447.871744,538.435 485.500744,567.648 511.861744,601.759 C515.281937,606.184355 518.483041,609.959437 520.414155,611.913335 L520.687569,612.186135 C521.523899,613.007971 522.076486,613.426435 522.240744,613.325 C523.037209,612.832721 525.814005,607.353634 528.540139,601.294512 L528.880495,600.534419 C530.919285,595.959563 532.881976,591.161721 533.911744,588 C538.075744,575.217 539.223744,564.933 538.652744,545.5 C538.092744,526.444 536.667744,518.247 531.552744,504.655 C525.469744,488.496 513.959744,469.36 501.085744,454 C490.428744,441.286 491.260744,440.884 506.356744,451.453 Z" id="HEXFIRE" fill="url(#linearGradient-1)"></path>
    </g>
</svg>