<?xml version="1.0" encoding="UTF-8"?>
<svg width="1024px" height="1024px" viewBox="0 0 1024 1024" version="1.1" xmlns="http://www.w3.org/2000/svg" xmlns:xlink="http://www.w3.org/1999/xlink">
    <title>ePEPE</title>
    <g id="ePEPE" stroke="none" stroke-width="1" fill="none" fill-rule="evenodd">
        <circle id="Oval-Copy" fill="#627EEA" fill-rule="nonzero" cx="512" cy="512" r="512"></circle>
        <g id="PEPE" transform="translate(87.000000, 87.000000)">
            <circle id="Oval" fill="#3D8130" fill-rule="nonzero" cx="425" cy="425" r="425"></circle>
            <path d="M187.707588,731.14352 L195.653149,732.588094 C189.393293,730.637248 182.260877,728.448871 175.406362,726.359362 L187.707588,731.14352 Z" id="Path"></path>
            <polygon id="Path" fill="#3D8130" fill-rule="nonzero" points="641.219549 331.966541 641.217419 331.883459 641.16203 331.883459"></polygon>
            <polygon id="Path" fill="#3D8130" fill-rule="nonzero" points="646.807649 430.558638 646.787155 430.529644 646.792801 430.572762"></polygon>
            <polygon id="Path" fill="#3D8130" fill-rule="nonzero" points="605.971178 582.486466 606.022306 582.458772 605.883835 582.296867"></polygon>
            <path d="M177.022768,291.892855 L152.42102,339.604377 L127.06765,389.567271 L109.220718,436.414733 L97.3190138,486.251767 L89.8599336,540.704684 L85.3656704,587.856208 L80.2017607,618.840838 L85.304104,642.894581 L94.1420163,663.517541 L110.256568,692.083932 L147.732982,715.597467 L175.40632,726.359362 C182.260835,728.448807 189.393251,730.637248 195.653107,732.588094 L228.46839,738.555137 L275.412015,740.790956 L314.174635,740.790956 C318.546554,740.790956 357.753219,738.570688 358.14848,738.548064 L358.226258,738.543803 L358.304058,738.545209 L408.231588,739.29191 L456.371625,733.366494 L477.279516,724.714559 L491.539747,707.602291 L492.117789,685.068088 C491.349892,683.208441 488.399199,675.989065 487.70908,673.229995 C486.99033,671.32934 477.506503,660.024404 468.764093,650.232638 L468.591536,650.012043 C464.820625,644.502402 458.495709,634.781342 458.495709,631.595206 C458.495709,628.325624 462.377632,619.102357 463.155435,617.286553 L463.559174,616.343287 L483.501154,610.526773 L496.695796,620.056914 L508.676003,613.401776 L522.155937,599.953029 L545.542654,582.622296 L566.784665,570.482996 L583.719797,567.257236 L605.883153,582.297016 L604.45837,580.657986 L613.697188,572.631132 L622.179059,558.494992 L622.179059,543.794615 L620.580697,539.531578 L609.673429,548.361011 L590.241576,553.801352 L589.915637,553.794279 L560.16063,553.049006 L516.921791,557.601236 L503.235385,559.042294 L492.737139,557.601236 L464.856628,553.774467 L433.354499,547.777068 L382.338095,539.525272 L382.103355,539.426276 L333.266147,519.12001 L290.534644,494.374721 L264.384362,476.684772 L261.864315,464.084449 L265.198935,452.410412 L275.556366,444.643756 L299.868922,450.140657 L352.833402,466.552197 C378.842252,471.872323 418.406003,479.811515 421.087997,479.940208 L421.089404,479.940208 C422.307013,479.940208 427.583297,480.787311 440.22889,482.863313 C453.850193,485.099133 472.504668,488.162243 476.363242,488.162243 C483.007728,488.162243 533.818449,490.976404 536.945916,491.150409 C539.645934,491.105139 581.085585,490.403708 585.485794,490.403708 C588.423748,490.403708 604.344568,485.183984 614.096368,481.75744 L628.54149,464.423852 L642.452049,440.262634 C643.303996,433.310035 642.453851,426.25454 639.974778,419.703307 C636.525137,410.728368 630.256206,403.11522 622.109866,398.007707 C617.808291,406.011959 612.409299,411.238053 605.98756,413.560129 C603.543137,414.44463 600.962903,414.894985 598.36338,414.890858 C594.552412,414.895128 590.795436,413.989976 587.404558,412.250596 L589.539613,408.46767 C594.218767,410.782719 599.62763,411.13745 604.569061,409.453351 C610.336088,407.344818 615.214299,402.270041 619.11989,394.34508 C614.343286,396.151807 609.273886,397.060117 604.167133,397.024242 C600.975651,397.05053 597.791466,396.715115 594.675509,396.024416 L595.202296,393.917289 L595.726249,391.808736 C595.890284,391.846932 612.312796,395.759957 624.775223,386.267992 C633.584504,379.557722 638.460223,367.803074 639.282934,351.30811 L624.940345,368.042075 L607.687731,375.844095 C599.912212,377.788593 574.360914,384.131169 572.032467,384.131169 C571.125289,384.131169 567.86702,383.624897 559.470682,382.287095 C549.137643,380.640992 533.522291,378.152026 529.429658,378.152026 C522.161497,378.152026 512.02856,370.354246 510.897229,369.466155 L509.681729,368.510172 L517.799464,344.969773 L540.131094,319.646079 L563.865608,302.803233 L593.199534,302.816015 L620.940637,305.898916 L632.885139,319.466556 L638.622107,328.071816 L638.622107,305.002283 L615.595756,296.628931 C613.106108,296.265476 590.204189,292.946407 584.738412,292.946407 C579.439823,292.946407 558.965731,296.07315 555.634625,296.586495 L526.128867,315.765584 L523.761543,312.122727 L554.047213,292.437366 L554.506107,292.365254 C555.489678,292.21251 578.660273,288.602119 584.738412,288.602119 C590.806645,288.602119 615.401662,292.209677 616.44567,292.362421 L616.872055,292.469896 L641.871897,301.594081 L644.275288,302.967247 L644.476093,301.360747 L632.854377,291.105124 L611.80859,280.9456 L586.329361,278.760695 L556.967783,283.9 L545.248477,289.027694 L543.506936,285.048246 L555.96195,279.665892 L586.13695,274.385347 L612.976648,276.686206 L614.082883,277.220065 L606.019238,264.628945 L583.300464,244.567411 L583.527812,244.310025 L494.955021,246.770701 C494.955021,246.770701 483.442549,248.228717 470.188173,249.888262 L482.733342,268.021595 L489.167139,279.279856 L485.926211,290.624395 L481.748642,289.430816 L484.486835,279.845521 L479.007956,270.258821 L465.608207,250.902957 L466.387416,250.364177 C449.852147,252.42957 432.087253,254.618011 431.051361,254.618011 C429.089203,254.618011 357.898103,259.943826 355.095169,259.943826 C349.166984,259.579968 343.268734,258.830999 337.437751,257.701658 C336.316305,257.140935 288.949128,239.763505 287.266959,238.642059 C285.585514,237.521337 269.048817,221.545363 269.048817,221.545363 L236.565865,211.509654 L208.28792,246.483682 L177.022768,291.892855 Z M522.833424,389.688891 C527.002141,391.628576 531.035016,393.847749 534.904489,396.331247 L559.22693,399.192125 L573.079501,396.276093 L573.974685,400.527115 L559.425689,403.590226 L542.675811,401.618843 C549.926517,406.909045 556.579706,412.972943 562.517772,419.70335 C566.802496,424.571574 570.615926,429.835139 573.906856,435.423365 L570.157866,437.618154 C566.332442,431.150749 561.782435,425.140369 556.595914,419.70335 C549.614344,412.397902 541.782676,405.9552 533.268335,400.51297 L533.228391,400.508709 L520.890758,393.569322 L522.833424,389.688891 Z M279.264283,309.886886 L298.597501,291.335711 L315.465826,277.534736 L339.522402,272.907561 L364.935059,272.159455 L391.904856,272.159455 L414.36552,272.906134 L459.800939,273.664147 L474.091164,282.444774 L491.502509,298.372645 L501.570429,310.765091 L506.154485,335.978456 L501.880114,336.756259 L497.495584,312.640226 L488.232736,301.237721 L471.315264,285.793476 L458.545261,277.988623 L423.07344,277.396797 L438.541736,285.879754 C446.825273,290.163307 461.034227,297.862091 462.610327,301.014292 C463.596668,302.813118 474.932132,313.896031 485.317768,323.566177 L485.552104,323.822157 L501.606239,344.46348 L503.927613,361.484528 L499.622842,362.072838 L497.459858,346.208579 L482.229882,326.626475 C476.931655,321.692406 460.261962,306.031784 458.724826,302.957362 C457.552486,301.291447 446.263102,294.765045 436.499605,289.713595 L413.737713,277.232016 L391.832808,276.502316 L364.998777,276.503722 L339.826421,277.244756 L317.367866,281.59062 L301.415986,294.643489 L283.311689,312.022325 L281.386982,323.57048 L285.326892,327.016836 L294.824503,321.952668 L310.612347,302.4045 L339.083278,291.631293 L376.204738,287.844128 L407.481393,290.895905 L448.213947,312.015252 L465.135296,322.010741 L481.314545,343.584018 L488.665085,367.106031 L499.463046,374.045397 L499.463046,383.663158 L489.508652,392.786023 L471.513236,400.284003 L463.820821,406.578497 L455.743733,419.703435 L451.741618,426.205828 L451.215555,426.483005 C445.821165,429.322729 436.479815,434.05593 433.880561,434.204414 C431.998291,434.553787 419.941712,440.050624 409.295068,445.202476 L408.987491,445.32269 C408.187767,445.568743 389.363654,451.352748 384.788779,452.116406 L384.073927,447.831447 C388.157357,447.149743 405.697416,441.787244 407.552802,441.218746 C418.300551,436.021645 431.506185,429.864301 433.760347,429.864301 C438.886567,427.902469 443.867495,425.58025 448.665789,422.91505 L450.642093,419.703435 L460.503861,403.679401 L462.794835,401.804906 C456.015967,401.18055 446.977165,400.129107 444.662247,398.804726 C443.526655,398.422886 437.223682,397.584283 403.86393,397.584283 C395.526644,397.584283 375.858262,393.099947 373.281633,392.241533 C371.098049,391.513217 351.129248,385.596301 350.927719,385.536907 L350.421447,385.386996 L350.041035,385.020729 C349.855697,384.843912 331.376718,367.168152 317.570098,359.173806 L319.747291,355.414931 C333.053987,363.119361 349.84594,378.845021 352.664382,381.520647 C355.867497,382.469558 372.576729,387.427657 374.654862,388.120609 C377.041274,388.91537 396.106519,393.239931 403.863994,393.239931 C444.134821,393.239931 445.880623,394.403813 446.924269,395.099578 C448.349053,395.84909 457.990204,397.056793 466.08001,397.731361 L465.955556,399.218328 L469.254835,396.519376 L487.135,389.069477 L495.118737,381.751105 L495.118737,376.418239 L489.580465,372.858763 L489.831843,373.529091 L471.385352,380.37794 L445.783096,383.383063 C444.558415,383.419832 438.888254,383.57541 432.691328,383.57541 C425.528534,383.57541 417.662881,383.367511 415.135739,382.524669 C411.679477,381.372163 390.308432,376.684104 379.491383,374.366267 L379.188749,374.301228 L378.917239,374.154236 C365.401941,366.878299 348.979089,357.735623 347.495615,355.509624 C346.461853,354.294848 338.210122,349.898175 331.178129,346.549474 L331.017609,346.464623 L307.35559,332.662242 L304.110763,333.270343 L303.584701,330.462574 L296.18855,326.147919 L284.723797,332.262103 L276.704697,325.244959 L279.264283,309.886886 Z M288.999489,411.986266 L290.019105,416.209019 L275.543541,419.703435 L268.343956,421.441461 L267.923941,419.703435 L267.32434,417.218729 L288.999489,411.986266 Z M298.287091,432.177898 L297.180451,436.379391 C292.261399,435.417116 287.200015,435.443556 282.291284,436.457169 C274.257336,437.959049 262.271484,442.548026 250.795419,455.875238 L247.503213,453.041223 C271.287619,425.422337 297.196066,431.889474 298.287091,432.177856 L298.287091,432.177898 Z" id="Shape" fill="#3D8130" fill-rule="nonzero"></path>
            <path d="M327.371066,324.493891 C328.657975,324.339741 358.934805,320.740662 362.755927,320.740662 C364.216777,320.740662 368.534244,321.126719 374.00147,321.616034 C381.505095,322.287768 394.06441,323.412048 395.87949,323.044353 C398.927049,322.282102 428.685591,319.562655 432.069018,319.254355 L449.789366,317.988664 L446.108972,315.813602 L406.22563,295.138321 L376.214644,292.210976 L340.089474,295.896376 L313.251927,306.050169 L299.514607,323.058499 L308.146687,328.093673 L327.371066,324.493891 Z" id="Path" fill="#3D8130" fill-rule="nonzero"></path>
            <path d="M432.420436,323.584561 C419.310305,324.776713 398.991363,326.743835 396.91681,327.262846 C394.987863,327.74366 388.169393,327.244461 373.613985,325.943407 C368.681322,325.502195 364.022321,325.085014 362.755927,325.085014 C359.804531,325.085014 336.707475,327.757806 327.956544,328.79864 L313.880523,331.438114 L333.128187,342.665975 C339.121475,345.521208 349.249108,350.585376 351.040882,353.002209 C352.654455,354.622855 367.289772,362.955198 380.704668,370.183053 C384.139712,370.919847 412.150407,376.949883 416.509523,378.40366 C419.499797,379.399247 435.871031,379.322875 445.560264,379.044292 L470.615261,376.094323 L485.773466,370.411445 L484.988952,369.907282 L477.390591,345.592105 L462.179682,325.311404 L453.198952,320.003995 L453.348075,322.089904 L432.420436,323.584561 Z" id="Path" fill="#3D8130" fill-rule="nonzero"></path>
            <path d="M629.351759,321.997852 L618.793162,310.031088 L592.839402,307.147585 L565.250618,307.147585 L542.852159,323.042947 L521.627467,347.195687 L514.807954,366.971501 C518.274803,369.484497 525.132514,373.807717 529.429487,373.807717 C533.866125,373.807717 548.442049,376.131221 560.154282,377.997919 C565.597435,378.864812 571.226224,379.761402 572.047891,379.78686 C573.961264,379.659594 594.082533,374.766534 606.442001,371.677966 L622.26734,364.484048 L634.747811,349.923675 L633.619313,343.152584 L594.745682,327.315209 L545.060668,325.831736 L545.190064,321.490132 L595.658526,322.996272 L637.505475,340.044183 L639.305004,350.840014 C639.331861,350.237585 639.353547,349.629024 639.370064,349.014325 L639.370064,337.024851 L629.351759,321.997852 Z" id="Path" fill="#3D8130" fill-rule="nonzero"></path>
            <path d="M582.767328,571.86185 L568.310533,574.615253 L547.81062,586.330298 L524.873402,603.347107 L518.462591,609.758279 L532.960034,619.905703 L533.958794,627.89581 L524.238799,637.615464 L521.167211,634.543875 L529.384644,626.326079 L528.888619,622.3579 L515.344327,612.876544 L511.31782,616.903414 L502.830261,621.618996 L500.423695,633.051901 L512.280152,643.590367 L529.435538,642.904402 C532.698771,640.561044 537.91319,637.093534 540.4336,636.905405 C543.056922,635.365066 545.563278,633.633678 547.932347,631.725283 C553.765179,627.351234 556.035595,625.75611 557.717402,625.688153 C562.815549,623.22847 567.700642,620.349682 572.32232,617.081466 L572.984851,616.640254 L593.960657,619.0599 L601.211838,626.3104 L599.779982,627.844767 C595.227753,632.723682 590.169593,639.032343 589.895271,640.648749 C589.838167,641.677458 589.600123,642.68804 589.192071,643.634081 L594.046594,640.964102 L617.114657,624.590758 L619.629059,628.134683 L596.249159,644.710258 L585.32994,650.715647 C584.902149,651.367526 584.531643,651.907095 584.275684,652.273362 L583.493642,651.726081 L566.798278,660.90834 L555.27166,677.476842 L551.317627,687.363365 L559.543901,699.01548 L568.643779,709.516452 L579.410979,710.862818 L589.380904,708.726698 L589.257515,706.507154 L600.42104,689.077404 L621.348743,668.897083 L624.364475,672.025253 L603.622728,692.025966 L593.672573,707.661109 L594.322045,719.352124 L604.942167,726.653518 L618.899742,728.049307 L626.859449,725.599965 L625.350752,723.337218 L626.464784,722.084246 C626.954759,721.532726 638.492008,708.556229 640.753284,706.296401 C642.48247,704.566853 652.194689,693.393444 657.088431,687.72682 L660.376397,690.566544 C659.794477,691.239727 646.097462,707.095444 643.825214,709.368033 C642.051484,711.141401 633.842508,720.333565 630.826456,723.717694 L638.219773,734.809086 L650.803885,734.809086 L661.762685,730.013617 L670.604134,716.806598 L682.562782,704.100227 L685.726316,707.078422 L673.892356,719.651861 L664.670857,733.483939 L651.712405,739.153375 L635.894736,739.153375 L629.373617,729.371515 L619.339313,732.458655 L603.399768,730.864873 L590.102594,721.722218 L589.624613,713.116959 L579.601622,715.263667 L566.451546,713.620397 L556.41654,702.041118 L541.490945,693.086528 L525.878788,675.912757 L522.047419,649.092892 L526.347929,648.479124 L529.635192,671.492054 L548.18036,656.863788 L568.141832,637.640878 L579.567323,621.77238 L574.067589,621.137415 C567.979118,625.173487 560.597198,629.749768 558.050628,630.017039 C555.421113,631.555718 552.910205,633.288668 550.538865,635.201421 C544.573143,639.675872 542.334511,641.241363 540.640668,641.241363 C537.369502,642.726243 534.285934,644.593742 531.454533,646.804752 L530.921738,647.192237 L510.703242,648.002549 L495.652852,634.624422 L497.802756,624.411939 L496.391053,625.196112 L482.678827,615.29261 L466.750253,619.93819 C465.038285,623.674695 463.727544,627.582275 462.84004,631.595333 C463.023887,633.268299 467.772703,641.111328 472.097967,647.44402 C477.874175,653.916717 491.136327,669.025776 491.924015,672.175164 C492.504188,674.497219 495.284114,681.372974 496.306202,683.826555 L496.484382,684.25507 L495.742667,713.179228 L504.051299,725.640974 C508.330613,728.138419 539.725736,746.454832 543.253363,748.571801 C545.776628,750.086462 568.363152,756.515232 582.138286,760.247243 L628.790312,764.690591 L666.343695,759.537333 L698.603219,744.87232 L716.090233,728.086013 L712.009977,713.126865 L690.497159,673.067451 L674.944737,649.368663 L648.39602,619.87034 L608.486496,598.032604 L602.45891,585.224404 L582.767328,571.86185 Z" id="Path" fill="#3D8130" fill-rule="nonzero"></path>
            <path d="M616.668353,485.457006 L616.105159,485.654999 C611.802881,487.173815 590.107962,494.748145 585.485731,494.748145 C581.070673,494.748145 537.381419,495.489179 536.940548,495.496252 L536.862066,495.497679 L536.783244,495.493419 C536.245848,495.463722 482.953618,492.506702 476.363199,492.506702 C472.14967,492.506702 454.817489,489.661375 439.524583,487.149806 C431.004153,485.751183 422.192422,484.304479 421.049758,484.284667 C417.999387,484.284667 362.876142,473.041957 351.856882,470.787753 L351.648984,470.734026 L298.66467,454.315414 L276.556149,449.324784 L268.974746,455.009772 L266.331011,464.265569 L268.294596,474.085625 L292.905526,490.734739 L335.319546,515.289109 L383.534529,535.316685 L434.107633,543.499118 L465.558251,549.488167 L503.304407,554.666882 L559.986774,548.699051 L560.128185,548.701885 L589.698301,549.442919 L607.637774,544.418332 L622.719608,532.21116 L635.071429,513.319048 L637.739981,504.647322 L633.728578,494.903638 C615.92619,511.115758 613.819426,511.648915 612.918596,511.873813 L594.550544,516.421803 L543.617159,518.668935 L543.507916,518.663268 L490.172568,515.641167 L437.319802,505.962543 L394.641323,506.712055 L394.359907,506.64135 L350.087093,495.376059 L310.804779,481.727828 L289.877055,469.021436 L292.131962,465.30781 L312.861694,477.893987 L351.422083,491.24099 L395.147744,502.359267 L437.676312,501.612566 L437.889153,501.650763 L490.821827,511.343533 L543.643831,514.318959 L594.140584,512.090212 L611.865172,507.659603 C612.987683,507.21413 618.846249,502.602508 631.400259,491.14766 C633.068305,489.626011 634.273856,488.511638 634.680791,488.134038 L650.909187,466.005001 L656.423684,455.66604 C655.490665,452.137132 654.788459,448.551208 654.321521,444.93103 C652.216636,441.598794 649.781254,438.487193 647.052296,435.643406 C647.074649,437.568839 646.946037,439.493065 646.667644,441.398396 L646.600113,441.76609 L631.999073,467.060066 L616.668353,485.457006 Z" id="Path" fill="#983B1F" fill-rule="nonzero"></path>
            <path d="M716.071614,711.506241 L694.279489,670.927794 L678.486297,646.845739 L651.130442,616.414035 L611.814193,594.901579 L605.97186,582.485806 L604.824956,583.106625 C604.824956,583.106625 608.468602,596.279687 610.991142,597.681143 C613.513682,599.082599 647.707776,616.459965 649.389604,617.300741 C651.071411,618.142219 680.781148,653.457014 680.781148,653.457014 L704.604752,694.938377 L718.898897,726.890303 C718.898897,726.890303 700.680756,745.669125 699.559672,745.949902 C698.438588,746.229891 663.123388,763.327311 662.002283,763.327311 C660.881178,763.327311 626.686743,767.250945 624.724926,766.690222 C622.763109,766.130202 580.721023,762.485875 577.357387,762.205886 C573.994114,761.925876 535.035291,746.509922 535.035291,746.509922 L501.401558,726.330326 L491.87212,711.475095 L478.418687,726.610336 C478.418687,726.610336 459.359812,736.139773 456.836931,736.139773 C454.314625,736.139773 407.787585,742.306278 404.144664,742.306278 L310.53033,742.306278 C310.53033,742.306278 218.038165,740.62413 214.114531,738.662654 C212.841065,738.026283 205.282201,735.588935 195.653128,732.588051 L187.707566,731.143477 L175.406341,726.35932 C160.304333,721.756878 146.56631,717.641622 146.56631,717.641622 L108.448496,692.976986 C108.448496,692.976986 92.4725439,665.228683 91.9118208,663.827248 C91.3510977,662.426495 81.5416504,639.16257 81.5416504,638.041784 C81.5416504,636.920338 78.178015,618.422187 78.178015,618.422187 L84.9052644,576.10009 L87.9881867,531.535123 L95.2754348,483.0465 C95.2754348,483.0465 107.32705,434.277867 107.607763,432.035699 C107.887773,429.79351 127.507371,381.5856 127.507371,381.5856 L148.248415,344.307881 L175.435271,287.971287 L205.425742,245.64919 L234.574777,210.894352 L236.565929,211.509526 L236.638061,211.420436 L233.259578,208.688251 L204.857243,243.816407 L173.36632,289.542445 L148.553158,337.625901 L123.141801,387.703342 L105.111043,434.99911 L93.069312,485.345249 L85.545896,540.204036 L81.0679511,587.216961 L75.7810576,618.936959 L81.0983509,644.004673 L90.1957581,665.337543 L107.01385,695.178103 L145.598992,719.387424 L186.326561,735.26864 L227.833382,742.854283 L275.308822,745.132581 L314.174678,745.132581 C318.61236,745.132581 355.826446,743.031122 358.316818,742.891117 L408.316481,743.637796 L408.465604,743.639202 L457.19604,737.643102 L457.488768,737.606332 L479.931069,728.318005 L491.42162,714.529769 L500.994175,728.887931 L501.427974,729.141056 C501.786827,729.350361 537.33502,750.08642 541.017544,752.296803 C544.901575,754.62738 577.478922,763.487192 581.180896,764.489851 L628.880744,769.063298 L667.248807,763.798326 L667.563456,763.754484 L700.738658,748.673694 L701.076634,748.52095 L720.96069,729.432378 L716.071614,711.506241 Z" id="Path" fill="#000000" fill-rule="nonzero"></path>
            <path d="M205.425827,245.649233 L175.435356,287.97133 L148.2485,344.307924 L127.507456,381.585643 C127.507456,381.585643 107.887858,429.793553 107.607848,432.035742 C107.327135,434.27791 95.2755201,483.046543 95.2755201,483.046543 L87.9882719,531.535165 L84.9053496,576.100133 L78.1781003,618.422229 C78.1781003,618.422229 81.5417356,636.920381 81.5417356,638.041827 C81.5417356,639.16257 91.351183,662.426495 91.911906,663.827291 C92.4726291,665.228726 108.448581,692.977029 108.448581,692.977029 L146.566416,717.641664 C146.566416,717.641664 160.30444,721.756921 175.406447,726.359362 L147.73311,715.597467 L110.256695,692.083932 L94.1421441,663.517541 L85.3042318,642.894581 L80.2018885,618.840838 L85.3657982,587.856208 L89.8600614,540.704684 L97.3191416,486.251767 L109.220846,436.414733 L127.067778,389.567271 L152.421148,339.604377 L177.022896,291.892855 L208.288239,246.483596 L236.566184,211.509569 L234.575033,210.894395 L205.425827,245.649233 Z" id="Path" fill="#000000" fill-rule="nonzero"></path>
            <path d="M583.719776,567.257278 L566.784644,570.483039 L545.542633,582.622338 L522.155916,599.953071 L508.675981,613.401818 L496.695774,620.056956 L483.501133,610.526816 L463.559153,616.34333 L463.155414,617.286595 C462.37761,619.1024 458.495688,628.325667 458.495688,631.595248 C458.495688,634.781385 464.820625,644.502445 468.591515,650.012085 L468.764071,650.23268 C477.506524,660.024446 486.990351,671.329297 487.709059,673.230038 C488.399284,675.989108 491.349786,683.208484 492.117768,685.06813 L491.539726,707.602333 L477.279495,724.714602 L456.371604,733.366536 L408.231566,739.291952 L358.304036,738.545252 L358.226237,738.543846 L358.148459,738.548107 C357.753198,738.570731 318.546533,740.788165 314.174614,740.788165 L275.411994,740.790999 L228.468368,738.555179 L195.653085,732.588137 C205.282158,735.58902 212.841001,738.026368 214.114489,738.662739 C218.038123,740.624216 310.530287,742.306363 310.530287,742.306363 L404.144622,742.306363 C407.787479,742.306363 454.314689,736.139858 456.836888,736.139858 C459.359769,736.139858 478.418644,726.610421 478.418644,726.610421 L491.872078,711.47518 L501.401515,726.330411 L535.035248,746.510008 C535.035248,746.510008 573.994071,761.925961 577.357345,762.205971 C580.72098,762.485981 622.763109,766.130308 624.724883,766.690307 C626.686701,767.25103 660.881157,763.327396 662.002241,763.327396 C663.123325,763.327396 698.438545,746.229976 699.559629,745.949987 C700.680713,745.669274 718.898855,726.890388 718.898855,726.890388 L704.604709,694.938462 L680.781105,653.457099 C680.781105,653.457099 651.071368,618.142262 649.389561,617.300826 C647.707733,616.460093 613.513639,599.082663 610.991099,597.681228 C608.468559,596.279793 604.824914,583.106711 604.824914,583.106711 L605.971817,582.485891 L605.883089,582.29708 L583.719776,567.257278 Z M608.486624,598.032625 L648.396148,619.870361 L674.944865,649.368684 L690.497287,673.067472 L712.010105,713.126886 L716.090361,728.086034 L698.603347,744.872341 L666.343823,759.537355 L628.79044,764.690613 L582.138414,760.247264 C568.363279,756.515253 545.776756,750.086398 543.253491,748.571822 C539.725842,746.454789 508.330741,728.138376 504.051427,725.640995 L495.742794,713.179249 L496.48451,684.255091 L496.30633,683.826576 C495.284242,681.372995 492.504316,674.497262 491.924143,672.175185 C491.136455,669.025797 477.874303,653.916738 472.098095,647.444041 C467.772831,641.11135 463.024015,633.268321 462.840168,631.595355 C463.727672,627.582296 465.038413,623.674716 466.750381,619.938212 L482.678955,615.292632 L496.39118,625.196133 L497.802883,624.41196 L495.65298,634.624444 L510.70337,648.00257 L530.921866,647.192258 L531.45466,646.804773 C534.286062,644.593763 537.369629,642.726264 540.640796,641.241385 C542.334639,641.241385 544.573377,639.675893 550.538992,635.201442 C552.910333,633.288689 555.421241,631.555739 558.050756,630.01706 C560.597326,629.749789 567.979331,625.173509 574.067717,621.137436 L579.567451,621.772401 L568.14196,637.6409 L548.180487,656.86381 L529.63532,671.492075 L526.348056,648.479145 L522.047546,649.092914 L525.878916,675.912778 L541.491073,693.086549 L556.416668,702.041139 L566.451674,713.620419 L579.601749,715.263688 L589.624741,713.11698 L590.102722,721.722239 L603.399896,730.864895 L619.339441,732.458677 L629.373744,729.371536 L635.894863,739.153396 L651.712533,739.153396 L664.670985,733.48396 L673.892484,719.651882 L685.726444,707.078444 L682.56291,704.100248 L670.604262,716.806619 L661.762813,730.013638 L650.803885,734.809023 L638.219816,734.809023 L630.826499,723.71763 C633.842593,720.333501 642.051526,711.141337 643.825257,709.367969 C646.097505,707.09538 659.79452,691.23962 660.37644,690.56648 L657.088474,687.726756 C652.194732,693.393422 642.482513,704.566789 640.753327,706.296337 C638.49205,708.556187 626.954823,721.532683 626.464827,722.084182 L625.350794,723.337154 L626.859385,725.599837 L618.899678,728.049179 L604.942103,726.65339 L594.321981,719.351996 L593.672509,707.660981 L603.622664,692.025838 L624.364411,672.025125 L621.348679,668.896955 L600.420976,689.077276 L589.257451,706.507026 L589.38084,708.72657 L579.410915,710.86269 L568.643716,709.516325 L559.543837,699.015352 L551.317563,687.363237 L555.271596,677.476714 L566.798214,660.908212 L583.493578,651.725954 L584.27562,652.273234 C584.531579,651.906967 584.902085,651.367462 585.329876,650.715519 L596.249095,644.71013 L619.628995,628.134555 L617.114593,624.59063 L594.04653,640.963974 L589.192008,643.633954 C589.600059,642.687912 589.838103,641.67733 589.895207,640.648622 C590.16955,639.032216 595.227711,632.723554 599.779919,627.844639 L601.211774,626.310272 L593.960593,619.059772 L572.984787,616.640127 L572.322256,617.081338 C567.700578,620.349554 562.815485,623.228342 557.717338,625.688025 C556.035531,625.755919 553.765051,627.351107 547.932283,631.725155 C545.563214,633.63355 543.056858,635.364938 540.433536,636.905277 C537.913127,637.093363 532.698707,640.560916 529.435474,642.904274 L512.280088,643.590239 L500.423632,633.051773 L502.830197,621.618868 L511.317756,616.903286 L515.344263,612.876416 L528.888555,622.357772 L529.38458,626.325951 L521.167147,634.543747 L524.238736,637.615336 L533.958731,627.895682 L532.95997,619.905575 L518.462528,609.758152 L524.873338,603.346979 L547.810556,586.33017 L568.310469,574.615125 L582.767264,571.861722 L602.458974,585.224297 L608.486624,598.032625 Z M550.116783,693.195472 L544.274833,689.689723 L531.455299,675.589672 L550.955045,660.208357 L571.29693,640.633305 L584.507464,622.343051 L591.958768,623.203575 L595.181695,626.425075 C591.063605,630.957514 585.555733,637.578694 585.555733,640.564048 C584.862135,643.033992 583.744083,645.364424 582.251598,647.451093 L563.81284,657.592147 L551.563466,675.200078 L546.407375,687.940406 L550.116783,693.195472 Z" id="Shape" fill="#000000" fill-rule="nonzero"></path>
            <path d="M602.302416,259.103008 L613.23331,273.396812 C613.23331,273.396812 618.558762,281.805506 620.52092,282.366229 C622.482737,282.926952 640.140518,293.297123 640.140518,293.297123 L647.427766,301.425104 L646.026331,306.190174 L640.420528,304.508026 L641.216353,331.882969 L642.966395,331.882969 L642.966395,307.223936 L647.777437,309.9731 L649.071397,299.621336 L635.281053,287.453746 L620.371371,280.256291 L620.948689,279.886466 L609.350322,261.775096 L586.17619,241.311954 L583.527791,244.310004 L585.76606,244.247777 L602.302416,259.103008 Z" id="Path" fill="#000000" fill-rule="nonzero"></path>
            <path d="M638.458647,371.214791 C638.458647,371.214791 630.610654,386.910733 629.769942,387.471456 C628.928847,388.031476 621.92195,391.11508 621.92195,391.11508 L622.482673,395.038736 C625.725604,397.359138 628.815079,399.886833 631.731759,402.605994 C632.07504,403.292576 636.935229,412.592961 640.653564,419.703392 L644.459114,419.703392 C640.838604,409.046433 633.616065,399.985073 624.03485,394.079216 C624.443531,393.163516 624.839851,392.217189 625.223806,391.240237 C625.946455,390.776401 626.664162,390.289217 627.370897,389.752524 C637.705342,381.902422 643.20367,368.235807 643.713841,349.072291 L643.713841,335.709737 L641.218867,331.967117 L641.822026,352.716639 L638.458647,371.214791 Z" id="Path" fill="#000000" fill-rule="nonzero"></path>
            <path d="M606.019238,264.628924 L614.082883,277.220044 L612.976648,276.686184 L586.13695,274.385432 L555.96195,279.665977 L543.506936,285.048331 L545.248477,289.027779 L556.967783,283.900085 L586.329297,278.760951 L611.808526,280.945856 L632.854313,291.10538 L644.476029,301.361003 L644.275224,302.967503 L641.871833,301.594337 L616.871991,292.470152 L616.445607,292.362677 C615.401598,292.209932 590.806581,288.602375 584.738348,288.602375 C578.660209,288.602375 555.489614,292.212766 554.506043,292.36551 L554.047149,292.437622 L523.761479,312.122982 L526.128803,315.76584 L555.634561,296.586751 C558.965667,296.073342 579.439759,292.946663 584.738348,292.946663 C590.204125,292.946663 613.106044,296.265711 615.595692,296.629187 L638.622043,305.002539 L638.622043,328.072008 L632.885075,319.466748 L620.940573,305.899108 L593.19947,302.816207 L563.865544,302.803425 L540.13103,319.646271 L517.7994,344.969965 L509.681559,368.51015 L510.897059,369.466134 C512.02839,370.354224 522.161327,378.152005 529.429487,378.152005 C533.52212,378.152005 549.137472,380.640971 559.470511,382.287074 C567.86685,383.624919 571.125119,384.131148 572.032297,384.131148 C574.360743,384.131148 599.912105,377.788571 607.68756,375.844074 L624.940174,368.042054 L639.282763,351.308089 C638.460053,367.803053 633.584333,379.557701 624.775053,386.267971 C612.312647,395.759936 595.890135,391.846911 595.726079,391.808714 L595.202125,393.917268 L594.675338,396.024395 C597.791296,396.715093 600.975481,397.050509 604.166962,397.024221 C609.273716,397.060095 614.343116,396.151786 619.119719,394.345059 C615.214108,402.270105 610.335917,407.344882 604.568891,409.45333 C599.62746,411.137429 594.218596,410.782698 589.539442,408.467649 L587.404387,412.250575 C590.795265,413.989954 594.552242,414.895106 598.363209,414.890837 C600.962733,414.894964 603.542967,414.444608 605.98739,413.560108 C612.409172,411.238053 617.808163,406.011937 622.109695,398.007685 C630.256036,403.115199 636.524967,410.728347 639.974608,419.703286 L640.653415,419.703286 C636.935187,412.592812 632.074997,403.29247 631.73161,402.605887 C628.81493,399.886727 625.725455,397.359031 622.482524,395.038629 L621.921801,391.114974 C621.921801,391.114974 628.928698,388.03137 629.769793,387.47135 C630.610505,386.910627 638.458497,371.214684 638.458497,371.214684 L641.821771,352.716533 L641.218612,331.96701 L641.162392,331.882862 L641.21614,331.882862 L640.420315,304.50792 L646.026118,306.190068 L647.427553,301.424997 L640.140305,293.297016 C640.140305,293.297016 622.482524,282.926846 620.520707,282.366123 C618.558549,281.8054 613.233096,273.396706 613.233096,273.396706 L602.302203,259.102901 L585.765868,244.24767 L583.527599,244.309897 L583.300251,244.567283 L606.019238,264.628924 Z M639.305089,350.840014 L637.50556,340.044183 L595.658612,322.996272 L545.190149,321.490132 L545.060753,325.831736 L594.745767,327.315209 L633.619398,343.152584 L634.747896,349.923675 L622.267425,364.484048 L606.442086,371.677966 C594.082511,374.766534 573.961243,379.659594 572.047976,379.78686 C571.226331,379.761402 565.597541,378.864812 560.154367,377.997919 C548.442134,376.131221 533.866147,373.807717 529.429573,373.807717 C525.132706,373.807717 518.274888,369.484583 514.808039,366.971501 L521.627553,347.195687 L542.852244,323.042947 L565.250703,307.147585 L592.83953,307.147585 L618.793289,310.031088 L629.351887,321.997852 L639.370277,337.024915 L639.370277,349.014388 C639.353916,349.629514 639.332187,350.238054 639.305089,350.840014 Z" id="Shape" fill="#000000" fill-rule="nonzero"></path>
            <polygon id="Path" fill="#000000" fill-rule="nonzero" points="503.236216 559.042231 516.921429 557.60213 492.73797 557.60213"></polygon>
            <path d="M624.444554,558.442011 C623.884278,559.563457 611.551822,579.463065 611.551822,579.463065 L606.023094,582.458303 L607.307872,583.936132 L617.067108,575.456711 L626.523368,559.697114 L626.523368,557.601299 L624.58735,557.601299 C624.582273,557.887121 624.534134,558.170544 624.444554,558.442011 Z" id="Path" fill="#000000" fill-rule="nonzero"></path>
            <path d="M624.444554,558.442011 C624.534115,558.170533 624.582233,557.887104 624.587286,557.601278 L622.178931,557.601278 L622.178931,558.495035 L613.69706,572.631174 L604.458242,580.658029 L605.883025,582.297059 L606.02303,582.458282 L611.551758,579.463044 C611.551758,579.463044 623.884193,559.563457 624.444554,558.442011 Z" id="Path" fill="#000000" fill-rule="nonzero"></path>
            <path d="M644.905247,427.831395 L646.787155,430.529644 C646.41346,426.845949 645.632666,423.215015 644.459071,419.703328 L640.653521,419.703328 C643.007766,424.204728 644.905247,427.831395 644.905247,427.831395 Z" id="Path" fill="#000000" fill-rule="nonzero"></path>
            <path d="M658.638669,451.65534 C658.358659,452.776764 655.836119,461.184777 655.275396,462.586212 C654.71512,463.987668 634.534714,491.455237 634.534714,491.455237 L639.299444,500.984674 C639.299444,500.984674 640.140518,507.711221 639.579794,508.832667 C639.019071,509.953388 621.361653,537.420957 621.361653,537.420957 L624.164544,544.98894 C624.164544,544.98894 624.816424,554.562922 624.587392,557.601278 L626.523411,557.601278 L626.523411,543.005564 L624.142985,536.658727 L624.117528,536.668633 L625.982841,535.158232 L639.043123,515.182976 L642.353649,504.423915 L637.140742,491.776916 C637.551192,491.397228 637.788361,491.177315 637.788361,491.177315 L654.504303,468.448655 L661.042401,456.237223 L660.839807,455.425569 C659.895012,451.912353 659.167808,448.344206 658.662337,444.741452 C658.662337,443.974982 658.662337,441.644406 647.614467,429.806335 L646.80767,430.55868 L653.313685,439.883756 C653.313685,439.883756 658.919041,450.533893 658.638669,451.65534 Z" id="Path" fill="#000000" fill-rule="nonzero"></path>
            <path d="M640.653521,419.703392 L639.974714,419.703392 C642.453787,426.254626 643.303932,433.31012 642.451985,440.262719 L628.541426,464.423937 L614.096305,481.757525 C604.344504,485.184069 588.423748,490.403793 585.485731,490.403793 C581.085521,490.403793 539.64587,491.105224 536.945852,491.150494 C533.818385,490.976553 483.007707,488.162328 476.363178,488.162328 C472.504604,488.162328 453.850172,485.099218 440.228826,482.863398 C427.583212,480.787396 422.306949,479.940293 421.08934,479.940293 L421.087934,479.940293 C418.405853,479.8116 378.842188,471.872409 352.833338,466.552282 L299.868922,450.140742 L275.556366,444.643841 L265.198935,452.410497 L261.864315,464.084534 L264.384362,476.684857 L290.534644,494.374806 L333.26604,519.120095 L382.103248,539.426361 L382.337989,539.525357 L433.354499,547.777068 L464.856734,553.774595 L492.737246,557.601385 L516.921791,557.601385 L560.16063,553.049134 L589.915637,553.794407 L590.241576,553.80148 L609.673429,548.361139 L620.580697,539.531706 L622.179059,543.794743 L622.179059,557.601385 L624.587414,557.601385 C624.816509,554.563029 624.164565,544.989046 624.164565,544.989046 L621.361674,537.421064 C621.361674,537.421064 639.019093,509.953495 639.579816,508.832773 C640.140539,507.711327 639.299465,500.984781 639.299465,500.984781 L634.534736,491.455343 C634.534736,491.455343 654.715056,463.987774 655.275417,462.586318 C655.83614,461.184883 658.35868,452.776871 658.63869,451.655446 C658.919063,450.534 653.3136,439.88382 653.3136,439.88382 L646.807585,430.558744 L646.792673,430.572868 L646.787028,430.529751 L644.905119,427.831501 C644.905119,427.831501 643.007766,424.204728 640.653521,419.703392 Z M646.667665,441.398289 C646.946059,439.492958 647.074671,437.568733 647.052317,435.643299 C649.781275,438.487086 652.216657,441.598687 654.321543,444.930924 C654.78848,448.551101 655.490687,452.137025 656.423706,455.665934 L650.909123,466.005001 L634.680727,488.134038 C634.273835,488.511638 633.068219,489.626011 631.400195,491.14766 C618.846185,502.602422 612.987598,507.21413 611.865108,507.659603 L594.14052,512.090212 L543.643767,514.318959 L490.821763,511.343533 L437.889089,501.650763 L437.676248,501.612566 L395.14768,502.359267 L351.422019,491.24099 L312.86163,477.893987 L292.131898,465.30781 L289.876991,469.021436 L310.804716,481.727828 L350.087029,495.376059 L394.359992,506.641392 L394.641409,506.712098 L437.319887,505.962585 L490.172653,515.641209 L543.508001,518.663311 L543.617244,518.668977 L594.550629,516.421846 L612.918682,511.873856 C613.819511,511.649 615.926276,511.115843 633.728663,494.90368 L637.740066,504.647365 L635.071429,513.319048 L622.719629,532.211054 L607.637796,544.418226 L589.698322,549.442812 L560.128207,548.701778 L559.986796,548.698945 L503.304386,554.666861 L465.558229,549.488145 L434.107612,543.499096 L383.534508,535.316664 L335.319525,515.289088 L292.905505,490.734718 L268.294575,474.085604 L266.33099,464.265548 L268.974724,455.009751 L276.556128,449.324763 L298.664649,454.315392 L351.648941,470.734005 L351.85684,470.787732 C362.876099,473.041936 417.999345,484.284645 421.049716,484.284645 C422.19238,484.304457 431.00411,485.751162 439.52454,487.149784 C454.817446,489.661439 472.149628,492.50668 476.363157,492.50668 C482.953575,492.50668 536.245806,495.463722 536.783202,495.493397 L536.862024,495.497658 L536.940505,495.496231 C537.381482,495.489158 581.07063,494.748124 585.485688,494.748124 C590.10792,494.748124 611.802838,487.173793 616.105117,485.654977 L616.668311,485.456985 L631.999051,467.059939 L646.600091,441.765962 L646.667665,441.398289 Z" id="Shape" fill="#000000" fill-rule="nonzero"></path>
            <path d="M282.291327,436.457169 C287.200058,435.443556 292.261441,435.417116 297.180494,436.379391 L298.287091,432.177856 C297.196066,431.889367 271.287619,425.422337 247.503256,453.041223 L250.795461,455.875238 C262.271526,442.548026 274.257378,437.959028 282.291327,436.457169 Z" id="Path" fill="#000000" fill-rule="nonzero"></path>
            <polygon id="Path" fill="#000000" fill-rule="nonzero" points="275.542732 419.70401 290.018296 416.208145 289 411.98584 267.323935 417.21792 267.924687 419.70401"></polygon>
            <polygon id="Path" fill="#000000" fill-rule="nonzero" points="268.344361 421.442356 275.542732 419.70401 267.924687 419.70401"></polygon>
            <path d="M533.268271,400.513013 C541.782612,405.955243 549.61428,412.397945 556.59585,419.703392 L562.517708,419.703392 C556.579642,412.972986 549.926454,406.909088 542.675747,401.618886 L559.425625,403.590268 L573.974685,400.527158 L573.079501,396.276135 L559.22693,399.192168 L534.904489,396.331289 C531.035016,393.847792 527.002141,391.628619 522.833424,389.688934 L520.890694,393.569429 L533.228327,400.508816 L533.268271,400.513013 Z" id="Path" fill="#000000" fill-rule="nonzero"></path>
            <path d="M570.157802,437.618197 L573.906792,435.423407 C570.615863,429.835181 566.802432,424.571617 562.517708,419.703392 L556.59585,419.703392 C561.782371,425.140412 566.332378,431.150792 570.157802,437.618197 L570.157802,437.618197 Z" id="Path" fill="#000000" fill-rule="nonzero"></path>
            <path d="M296.188465,326.147769 L303.584615,330.462425 L304.110678,333.270194 L307.355505,332.662093 L331.017524,346.464474 L331.178044,346.549325 C338.210036,349.89809 346.461768,354.294763 347.49553,355.509475 C348.979004,357.735388 365.401856,366.878065 378.917154,374.154086 L379.188664,374.301079 L379.491298,374.366118 C390.308347,376.683912 411.679392,381.371971 415.135654,382.52452 C417.662796,383.367362 425.528449,383.575261 432.691243,383.575261 C438.888169,383.575261 444.55833,383.419747 445.783011,383.382914 L471.385267,380.377791 L489.831758,373.528942 L489.58038,372.858614 L495.118652,376.41809 L495.118652,381.750956 L487.134915,389.069328 L469.254749,396.519227 L465.955471,399.218179 L466.079925,397.731212 C457.990119,397.056644 448.348967,395.848941 446.924184,395.099429 C445.880516,394.403664 444.134714,393.239782 403.863909,393.239782 C396.106434,393.239782 377.041189,388.915221 374.654777,388.12046 C372.576644,387.427508 355.867434,382.469409 352.664297,381.520497 C349.845876,378.844808 333.053902,363.119212 319.747206,355.414782 L317.570013,359.173657 C331.376654,367.168003 349.855697,384.843806 350.04095,385.02058 L350.421362,385.386847 L350.927634,385.536758 C351.129163,385.596152 371.098049,391.513068 373.281548,392.241383 C375.858177,393.099777 395.526559,397.584134 403.863845,397.584134 C437.223596,397.584134 443.52657,398.422737 444.662162,398.804576 C446.977165,400.128957 456.015882,401.180401 462.794749,401.804757 L460.503776,403.679252 L450.642008,419.703286 L455.743648,419.703286 L463.820736,406.578348 L471.51315,400.283853 L489.508566,392.785873 L499.462961,383.663009 L499.462961,374.045184 L488.665,367.105818 L481.31446,343.583805 L465.135338,322.010591 L448.21399,312.015103 L407.481436,290.895756 L376.204781,287.843979 L339.083321,291.631144 L310.612368,302.404436 L294.824524,321.952604 L285.326914,327.016772 L281.387004,323.570416 L283.311711,312.022261 L301.416008,294.643425 L317.367887,281.590556 L339.826442,277.244692 L364.998798,276.503658 L391.83283,276.502252 L413.737734,277.231952 L436.499627,289.713531 C446.263123,294.764981 457.552508,301.291405 458.724847,302.957298 C460.262069,306.031721 476.931677,321.692342 482.229904,326.626411 L497.45988,346.208515 L499.622863,362.072774 L503.927634,361.484464 L501.606261,344.463416 L485.552125,323.822093 L485.317789,323.566113 C474.932068,313.895967 463.596732,302.813054 462.610348,301.014228 C461.034248,297.862028 446.825294,290.163243 438.541757,285.87969 L423.073461,277.396733 L458.545282,277.988559 L471.315286,285.793412 L488.232757,301.237657 L497.495605,312.640162 L501.880263,336.756132 L506.154634,335.978328 L501.570578,310.764964 L491.502658,298.372518 L474.091313,282.444647 L459.801088,273.664019 L414.365669,272.906006 L391.905005,272.159327 L364.935208,272.159327 L339.522551,272.907434 L315.465975,277.534608 L298.59765,291.335583 L279.264432,309.886758 L276.704761,325.244724 L284.723861,332.261868 L296.188465,326.147769 Z M462.179682,325.311276 L477.390591,345.591977 L484.988952,369.907346 L485.773466,370.411509 L470.615261,376.094387 L445.560264,379.044356 C435.871031,379.322939 419.499797,379.399311 416.509523,378.403724 C412.150322,376.949947 384.139712,370.91989 380.704668,370.183117 C367.289772,362.955262 352.654455,354.622919 351.040882,353.002273 C349.249108,350.58544 339.121475,345.521272 333.128187,342.666039 L313.880523,331.438178 L327.956544,328.798704 C336.707475,327.75787 359.804531,325.085078 362.755927,325.085078 C364.022321,325.085078 368.681322,325.502259 373.613985,325.943471 C388.169393,327.244525 394.987863,327.743724 396.91681,327.26291 C398.991406,326.743898 419.310305,324.77682 432.420436,323.584625 L453.348139,322.08984 L453.199016,320.003931 L462.179682,325.311276 Z M313.251927,306.050169 L340.089474,295.896376 L376.214644,292.21104 L406.22563,295.138385 L446.108972,315.813665 L449.789366,317.988728 L432.069018,319.254419 C428.685591,319.562719 398.927049,322.282165 395.87949,323.044417 C394.064452,323.412112 381.505095,322.287832 374.00147,321.616098 C368.534244,321.126783 364.216777,320.740726 362.755927,320.740726 C358.934805,320.740726 328.657932,324.339805 327.371066,324.493955 L308.146751,328.093737 L299.51467,323.058563 L313.251927,306.050169 Z" id="Shape" fill="#000000" fill-rule="nonzero"></path>
            <path d="M448.665789,422.915008 C443.867495,425.580207 438.886567,427.902426 433.760347,429.864258 C431.506143,429.864258 418.300573,436.021603 407.552802,441.218703 C405.697416,441.787202 388.157357,447.149764 384.073927,447.831405 L384.788779,452.116363 C389.363654,451.352706 408.187767,445.568701 408.987491,445.322648 L409.295068,445.202434 C419.941712,440.050581 431.998291,434.55368 433.880561,434.204371 C436.479815,434.055887 445.821165,429.322644 451.215555,426.482962 L451.741618,426.205786 L455.743733,419.703392 L450.642093,419.703392 L448.665789,422.915008 Z" id="Path" fill="#000000" fill-rule="nonzero"></path>
            <path d="M469.179868,248.430927 L466.387565,250.364113 C467.664568,250.204296 468.931402,250.045672 470.188066,249.888241 L469.179868,248.430927 Z" id="Path" fill="#000000" fill-rule="nonzero"></path>
            <path d="M479.00802,270.258757 L484.486898,279.845457 L481.748706,289.430752 L485.926274,290.624331 L489.167203,279.279792 L482.733406,268.021531 L470.188237,249.888198 C468.933858,250.04516 467.667024,250.203784 466.387736,250.36407 L465.608526,250.902851 L479.00802,270.258757 Z" id="Path" fill="#000000" fill-rule="nonzero"></path>
            <path d="M609.417086,265.194759 L628.457193,263.352155 C628.457193,263.352155 675.750426,277.478687 677.592924,279.321269 C679.435421,281.163852 703.389188,291.605218 703.389188,291.605218 L717.437004,292.824787 L719.267997,280.006617 L708.916957,265.194695 L678.821312,243.083618 L644.426307,226.50031 L622.929424,219.13 L615.307118,110.503345 L597.133074,83.3925627 L570.108421,61.281485 L535.099222,44.0839612 L498.861613,43.4697669 L430.68584,52.0685288 L368.037815,64.3524561 L364.322825,53.6139098 C359.49073,52.3436155 354.574826,51.4167407 349.611924,50.8402256 C345.926737,50.8402256 312.790201,61.1062657 312.790201,61.1062657 L292.491604,71.7228296 L288.192223,84.0067569 L259.324987,99.9758709 L235.9855,129.457301 L222.473184,157.710342 C222.473184,157.710342 215.717026,185.963383 215.717026,187.805987 C215.717026,189.648591 219.402192,205.00349 221.85899,206.231878 C224.315788,207.460267 243.355873,212.373842 243.355873,212.373842 L268.194066,224.661412 L304.161337,245.540459 L348.997687,260.281184 C348.997687,260.281184 391.377259,257.210192 395.676619,257.210192 C399.975979,257.210192 463.852456,250.454034 467.537643,250.454034 C471.22283,250.454034 541.241228,244.926264 543.083811,244.926264 C544.926393,244.926264 586.691729,244.312155 586.691729,244.312155 L603.275038,259.052881 L609.417086,265.194759 Z" id="Path" fill="#C82727" fill-rule="nonzero"></path>
            <polyline id="Path" fill="#000000" fill-rule="nonzero" points="592.77381 325.528697 598.378697 337.300877 601.742481 350.753885 600.059524 359.162281 592.77381 377.66203 569.789724 381.58609 532.792356 374.858521 528.30802 361.965789 529.990977 350.193609 533.915038 331.69599 543.443985 321.044361 549.609148 324.408145 590.530576 325.528697"></polyline>
            <path d="M424.044187,323.847593 L430.770925,336.740474 L431.331477,352.436182 L427.968119,366.450189 L420.680828,377.661412 L408.909053,378.221965 L364.064203,364.76851 L346.126263,349.072802 L348.368495,338.982727 L354.534659,329.453183 L362.756226,322.913317 L394.334471,323.847593 C394.334471,323.847593 422.92306,326.089825 424.044187,323.847593 Z" id="Path" fill="#000000" fill-rule="nonzero"></path>
            <path d="M713.592916,267.034424 L696.033769,251.764248 L670.931416,235.009023 L629.61232,219.984793 L623.766706,217.746162 L622.023375,182.139896 C619.926516,164.766727 616.806825,138.157573 616.806825,136.060331 C616.806825,133.032584 615.36862,111.42111 615.307075,110.503323 L615.275248,110.021081 L602.944454,87.6714286 L582.348741,66.3131015 L550.687412,48.2200952 L524.510629,40.4605113 L488.321805,40.4605113 L452.836222,44.9745865 C438.48656,47.3659624 416.190634,50.9240326 413.580048,50.9240326 C409.711568,50.9240326 379.866065,57.6823847 376.407694,58.470094 L365.996515,61.1930764 L367.688569,60.346698 L364.322825,53.6138033 L353.343125,49.3910714 L337.138078,50.9339386 L311.073371,57.0474198 L291.475694,69.5897556 L287.482058,79.9712381 L290.200098,81.015609 L279.243108,83.8814511 L278.916444,83.966302 L255.94301,98.5167682 L240.040596,116.691792 L225.606084,140.930788 L214.090416,180.59705 L214.090416,194.926942 L221.496472,208.091525 L268.194045,224.661434 L283.817173,238.797573 L318.503415,254.632114 L349.106206,262.319586 L406.339411,258.552212 L489.233541,249.59057 L548.180722,245.113286 L597.273548,245.857132 L649.131579,253.265915 L689.942614,272.558145 L691.799427,268.629548 L650.395139,249.057328 L597.751657,241.536746 L548.049323,240.766015 L488.835937,245.264518 L405.963366,254.224668 L349.499485,257.941128 L320.127021,250.597298 L286.23341,235.123357 L270.465335,220.85714 L224.483338,204.541763 L218.434917,193.789774 L218.434917,181.210669 L229.483873,142.909073 L243.441108,119.401204 L258.798371,101.851261 L280.670043,87.9993709 L377.438687,62.6898434 C390.061634,59.8204649 411.036055,55.2682356 413.580112,55.2682356 C417.387004,55.2682356 449.860135,49.8745702 453.468332,49.272114 L488.459679,44.8048208 L523.884867,44.8048208 L548.753162,52.1189536 L579.653303,69.7777782 L599.418211,90.2734724 L611.004563,111.274011 C611.52711,119.138237 612.462579,133.800439 612.462579,136.060352 C612.462579,139.09236 617.173219,178.209935 617.699644,182.544381 L619.335479,216.04908 L594.218639,206.42985 L544.593722,201.166283 L507.026789,197.408772 L470.15707,200.418155 L427.553536,204.903919 L377.944895,216.162201 L340.761208,225.087073 L315.820781,226.553568 L283.950872,220.179825 L300.19058,231.989627 L313.343212,239.739326 L343.544372,247.289627 L373.164422,248.101281 L373.315675,248.104114 L399.722619,245.084846 L437.100741,239.104297 L473.628244,233.140706 L514.59556,230.16104 L542.869244,228.673327 L576.986284,230.892168 L623.251806,236.862811 L682.903591,248.211589 L693.287907,255.133997 L710.004574,269.670318 L714.792992,280.614654 L713.634415,288.723548 L704.728992,289.317504 L687.185419,281.280722 L655.046301,268.574436 L629.794398,260.913784 L607.684791,263.201925 L608.131669,267.523653 L629.37155,265.326009 L653.532427,272.647214 L685.481541,285.274401 L703.919511,293.726959 L717.43694,292.824702 L719.267934,280.006531 L713.592916,267.034424 Z M291.906318,80.5694336 L295.018213,72.4803521 L312.790201,61.1061165 L337.697395,55.2443546 L352.736472,53.8117744 L361.190351,57.0643985 L363.571821,61.8273383 L291.906318,80.5694336 Z M624.00969,232.585053 L623.603821,234.719064 L623.881722,232.565305 L577.405469,226.570568 L542.896704,224.320603 L514.323603,225.825294 L473.21592,228.814866 L436.407,234.815163 L399.132817,240.781566 L373.12467,243.75418 L344.365954,243.017386 L315.005505,235.677945 L302.660437,228.414727 L302.54165,228.32847 L315.517465,230.923484 L341.208832,229.411741 L378.932642,220.393518 L428.136777,209.211608 L470.560703,204.744315 L506.986739,201.77038 L544.148505,205.48684 L593.195358,210.689607 L628.093035,224.054994 L668.95605,238.913761 L673.620718,242.023546 L624.00969,232.585053 Z" id="Shape" fill="#000000" fill-rule="nonzero"></path>
            <ellipse id="Oval" fill="#FFFFFF" fill-rule="nonzero" transform="translate(406.795946, 348.278815) rotate(-16.566470) translate(-406.795946, -348.278815) " cx="406.795946" cy="348.278815" rx="13.3242506" ry="11.2112231"></ellipse>
            <circle id="Oval" fill="#FFFFFF" fill-rule="nonzero" cx="375.275405" cy="352.436182" r="5.60561153"></circle>
            <circle id="Oval" fill="#FFFFFF" fill-rule="nonzero" cx="371.912046" cy="335.058794" r="5.60561153"></circle>
            <circle id="Oval" fill="#FFFFFF" fill-rule="nonzero" cx="552.412571" cy="359.723472" r="5.04503759"></circle>
            <circle id="Oval" fill="#FFFFFF" fill-rule="nonzero" cx="551.852019" cy="340.103832" r="5.60561153"></circle>
            <circle id="Oval" fill="#FFFFFF" fill-rule="nonzero" cx="582.122287" cy="351.315055" r="10.0900965"></circle>
        </g>
    </g>
</svg>