<?xml version="1.0" encoding="UTF-8"?>
<svg width="513px" height="513px" viewBox="0 0 513 513" version="1.1" xmlns="http://www.w3.org/2000/svg" xmlns:xlink="http://www.w3.org/1999/xlink">
    <title>TETRA</title>
    <g id="Page-1" stroke="none" stroke-width="1" fill="none" fill-rule="evenodd">
        <path d="M256.5,0 C398.161038,0 513,114.838962 513,256.5 C513,398.161038 398.161038,513 256.5,513 C114.838962,513 0,398.161038 0,256.5 C0,114.838962 114.838962,0 256.5,0 Z M256.5,16 C123.675518,16 16,123.675518 16,256.5 C16,389.324482 123.675518,497 256.5,497 C389.324482,497 497,389.324482 497,256.5 C497,123.675518 389.324482,16 256.5,16 Z M256.5,28 L455,371 L58,371 L256.5,28 Z M170.76,316.017 L101.684,355 L239.102,355 L170.76,316.017 Z M342.883,316.087 L275.736,355 L411.102,355 L342.883,316.087 Z M335.594,221.097 L264.5,261.649 L264.5,343.019 L335.594,301.818 L335.594,221.097 Z M177.703,220.806 L177.703,301.558 L248.5,341.942 L248.5,261.622 L177.703,220.806 Z M351.594,224.263 L351.594,302.637 L419.301,341.258 L351.594,224.263 Z M161.703,223.748 L93.804,341.074 L161.703,302.757 L161.703,223.748 Z M256.696,166.616 L185.844,207.03 L256.524,247.78 L327.393,207.355 L256.696,166.616 Z M264.5,73.768 L264.5,152.646 L332.989,192.113 L264.5,73.768 Z M248.5,73.768 L180.162,191.853 L248.5,152.871 L248.5,73.768 Z" id="TETRA" fill="#FFFFFF" fill-rule="nonzero"></path>
    </g>
</svg>