<svg width="40" height="40" viewBox="0 0 40 40" fill="none" xmlns="http://www.w3.org/2000/svg">
<g clip-path="url(#clip0_46_57)">
<path d="M40 20C40 8.9543 31.0457 0 20 0C8.9543 0 0 8.9543 0 20C0 31.0457 8.9543 40 20 40C31.0457 40 40 31.0457 40 20Z" fill="#F5AA31"/>
<path d="M39.875 20C39.875 9.02334 30.9767 0.125 20 0.125C9.02334 0.125 0.125 9.02334 0.125 20C0.125 30.9767 9.02334 39.875 20 39.875C30.9767 39.875 39.875 30.9767 39.875 20Z" stroke="black" stroke-opacity="0.1" stroke-width="0.25"/>
<path d="M21.3347 21.1456H27.4855C27.6167 21.1456 27.6786 21.1456 27.6881 20.9737C27.7383 20.348 27.7383 19.7186 27.6881 19.0921C27.6881 18.9705 27.6276 18.9202 27.4957 18.9202H15.2545C15.103 18.9202 15.0622 18.9705 15.0622 19.1125V20.9132C15.0622 21.1456 15.0622 21.1456 15.3047 21.1456H21.3347ZM27.0011 16.8158C27.0186 16.7699 27.0186 16.7196 27.0011 16.6745C26.8984 16.4508 26.7768 16.2374 26.6355 16.0371C26.4228 15.6947 26.1722 15.3793 25.8866 15.096C25.7519 14.9248 25.596 14.7711 25.4212 14.6407C24.5456 13.8955 23.5047 13.3681 22.3858 13.103C21.8213 12.9762 21.2444 12.9158 20.666 12.9209H15.2333C15.0818 12.9209 15.0614 12.9813 15.0614 13.1132V16.7043C15.0614 16.8559 15.0614 16.8966 15.2537 16.8966H26.9283C26.9283 16.8966 27.0296 16.8763 27.0499 16.8158H27.0011ZM27.0011 23.25C26.8292 23.2311 26.6559 23.2311 26.484 23.25H15.2647C15.1132 23.25 15.0622 23.25 15.0622 23.4525V26.9636C15.0622 27.1253 15.0622 27.1661 15.2647 27.1661H20.4445C20.6922 27.185 20.9399 27.1675 21.1824 27.1158C21.9342 27.0619 22.6735 26.8987 23.3787 26.6299C23.6351 26.5411 23.8827 26.4253 24.1166 26.2861H24.1872C25.4015 25.6546 26.3878 24.6624 27.0099 23.4445C27.0099 23.4445 27.0805 23.2915 27.0011 23.2515V23.25ZM13.0291 28.9864V28.926V26.5687V25.7697V23.3921C13.0291 23.2602 13.0291 23.2406 12.8674 23.2406H10.6719C10.5503 23.2406 10.5 23.2406 10.5 23.0788V21.1565H12.847C12.9781 21.1565 13.0291 21.1565 13.0291 20.9846V19.0827C13.0291 18.961 13.0291 18.9312 12.8674 18.9312H10.6719C10.5503 18.9312 10.5 18.9312 10.5 18.7694V16.9892C10.5 16.8777 10.5 16.8478 10.6617 16.8478H12.8368C12.9883 16.8478 13.0291 16.8478 13.0291 16.6555V11.2025C13.0291 11.0408 13.0291 11 13.2316 11H20.819C21.3696 11.0219 21.9167 11.0823 22.4579 11.1821C23.5731 11.3883 24.6447 11.7867 25.6244 12.3556C26.2742 12.738 26.8722 13.1999 27.4047 13.7316C27.8053 14.1475 28.1666 14.5977 28.4871 15.077C28.8055 15.5629 29.0699 16.0823 29.2775 16.6249C29.303 16.7663 29.4385 16.8617 29.5798 16.8376H31.3907C31.623 16.8376 31.623 16.8376 31.6332 17.0605V18.7199C31.6332 18.8816 31.5728 18.9224 31.4103 18.9224H30.0139C29.8726 18.9224 29.8318 18.9224 29.842 19.1045C29.8974 19.7208 29.8974 20.3392 29.842 20.9555C29.842 21.1274 29.842 21.1478 30.0351 21.1478H31.6325C31.7032 21.2388 31.6325 21.3299 31.6325 21.4217C31.6427 21.5389 31.6427 21.6577 31.6325 21.7749V22.9994C31.6325 23.1713 31.5822 23.2223 31.43 23.2223H29.5179C29.3846 23.1968 29.2549 23.2821 29.2243 23.4146C28.769 24.5983 28.0406 25.6597 27.0995 26.5105C26.7557 26.8201 26.3944 27.1114 26.017 27.3802C25.612 27.6133 25.2179 27.8559 24.8027 28.0482C24.0386 28.392 23.2373 28.6455 22.4149 28.8065C21.6341 28.9463 20.8423 29.0097 20.0475 28.9988H13.0262V28.9886L13.0291 28.9864Z" fill="white"/>
<g style="mix-blend-mode:soft-light" opacity="0.25">
<path d="M40 20C40 8.9543 31.0457 0 20 0C8.9543 0 0 8.9543 0 20C0 31.0457 8.9543 40 20 40C31.0457 40 40 31.0457 40 20Z" fill="url(#paint0_linear_46_57)"/>
</g>
</g>
<defs>
<linearGradient id="paint0_linear_46_57" x1="20" y1="0" x2="20" y2="40" gradientUnits="userSpaceOnUse">
<stop stop-color="white"/>
<stop offset="0.0666667" stop-color="#FDFDFD"/>
<stop offset="0.133333" stop-color="#F6F6F6"/>
<stop offset="0.2" stop-color="#EAEAEA"/>
<stop offset="0.266667" stop-color="#D9D9D9"/>
<stop offset="0.333333" stop-color="#C4C4C4"/>
<stop offset="0.4" stop-color="#AAAAAA"/>
<stop offset="0.466667" stop-color="#8E8E8E"/>
<stop offset="0.533333" stop-color="#717171"/>
<stop offset="0.6" stop-color="#555555"/>
<stop offset="0.666667" stop-color="#3B3B3B"/>
<stop offset="0.733333" stop-color="#262626"/>
<stop offset="0.8" stop-color="#151515"/>
<stop offset="0.866667" stop-color="#090909"/>
<stop offset="0.933333" stop-color="#020202"/>
<stop offset="1"/>
</linearGradient>
<clipPath id="clip0_46_57">
<rect width="40" height="40" fill="white"/>
</clipPath>
</defs>
</svg>
