<svg width="1000" height="1000" viewBox="0 0 1000 1000" fill="none" xmlns="http://www.w3.org/2000/svg">
<g clip-path="url(#clip0_69_2)">
<mask id="mask0_69_2" style="mask-type:luminance" maskUnits="userSpaceOnUse" x="0" y="0" width="1000" height="1000">
<path d="M1000 0H0V1000H1000V0Z" fill="white"/>
</mask>
<g mask="url(#mask0_69_2)">
<path d="M500.004 0H499.996C223.856 0 0 223.858 0 500C0 776.142 223.856 1000 499.996 1000H500.004C776.144 1000 1000 776.142 1000 500C1000 223.858 776.144 0 500.004 0Z" fill="white"/>
<path d="M499.996 20H500.004C765.098 20 980 234.903 980 500C980 765.097 765.098 980 500.004 980H499.996C234.902 980 20 765.097 20 500C20 234.903 234.902 20 499.996 20Z" stroke="#8E55FF" stroke-width="40"/>
<path d="M331.356 626.489H289.195V668.651H247.034V752.971H373.516V668.651H331.356V626.489Z" fill="#E8DDFF"/>
<path d="M710.8 626.489V668.651H668.639V626.489H626.477V752.971H752.958V626.489H710.8Z" fill="#E8DDFF"/>
<path d="M457.838 331.318V373.479H415.677V415.642H373.516V373.479H331.356V415.642H247.034V289.156H289.195V331.318H373.516V289.156H415.677V331.318H457.838Z" fill="#8E55FF"/>
<path d="M710.805 331.318V289.156H668.643V331.318H626.485V289.156H584.323V331.318H542.162V373.479H584.323V415.642H626.485V373.479H710.805V415.642H752.966V331.318H710.805Z" fill="#8E55FF"/>
<path d="M542.122 373.519H457.799V415.681H542.122V373.519Z" fill="#8E55FF"/>
<path d="M373.516 247.037V331.358H289.195V289.198H247.034V247.037H373.516Z" fill="#6A2DE0"/>
<path d="M626.477 247.037V331.358H668.639V289.198H710.8V331.358H752.958V247.037H626.477Z" fill="#6A2DE0"/>
<path d="M752.962 415.681V500.002H710.805V457.843H668.643V500.002H626.481V457.843H584.32V500.002H500V457.843H457.838V500.002H415.677V457.843H373.516V500.002H289.195V457.843H247.034V415.681H331.356V373.519H373.516V415.681H415.677V373.519H457.838V415.681H542.158V373.519H584.32V415.681H626.481V373.519H710.805V415.681H752.962Z" fill="#A577FF"/>
<path d="M415.676 457.887H373.515V500.045H415.676V457.887Z" fill="#BB99FF"/>
<path d="M500.079 500.045V457.887H457.918V500.045H415.76V542.208H457.918V584.37H542.241V542.208H584.403V500.045H500.079Z" fill="#BB99FF"/>
<path d="M710.8 500.045V457.887H668.639V500.045H626.477V584.37H668.639V542.208H710.8V584.37H752.958V500.045H710.8Z" fill="#BB99FF"/>
<path d="M626.394 457.887H584.236V500.045H626.394V457.887Z" fill="#BB99FF"/>
<path d="M289.195 500.045V457.887H247.034V584.37H331.356V542.208H373.516V500.045H289.195Z" fill="#BB99FF"/>
<path d="M710.8 584.287V542.125H668.639V584.287H626.477V626.449H668.639V668.611H710.8V626.449H752.958V584.287H710.8Z" fill="#D2BBFF"/>
<path d="M331.356 584.287H247.034V626.449V668.611H289.195V626.449H331.356V668.611H373.516V626.449V584.287V542.125H331.356V584.287Z" fill="#D2BBFF"/>
</g>
</g>
<defs>
<clipPath id="clip0_69_2">
<rect width="1000" height="1000" fill="white"/>
</clipPath>
</defs>
</svg>
