<?xml version="1.0" encoding="UTF-8"?>
<svg width="1045px" height="1045px" viewBox="0 0 1045 1045" version="1.1" xmlns="http://www.w3.org/2000/svg" xmlns:xlink="http://www.w3.org/1999/xlink">
    <title>Artboard</title>
    <defs>
        <linearGradient x1="25.0032336%" y1="93.2656666%" x2="74.9947352%" y2="6.73692923%" id="linearGradient-1">
            <stop stop-color="#FFDC00" offset="0%"></stop>
            <stop stop-color="#E58E2F" offset="33%"></stop>
            <stop stop-color="#DB2D72" offset="67%"></stop>
            <stop stop-color="#FF00FF" offset="100%"></stop>
        </linearGradient>
    </defs>
    <g id="Artboard" stroke="none" stroke-width="1" fill="none" fill-rule="evenodd">
        <rect id="Rectangle" fill="url(#linearGradient-1)" fill-rule="nonzero" x="0" y="0" width="1044.36137" height="1044"></rect>
        <path d="M541.29,929.38 L541.29,748.38 L854.79,748.38 L541.29,929.38 Z M189.45,748.38 L503.31,748.38 L503.31,929.59 L189.45,748.38 Z M339.62,358.37 L185.16,298.3 L472.47,132.43 L339.62,358.38 L339.62,358.37 Z M700.25,359.34 L564.28,128.1 L858.95,298.24 L700.25,359.35 L700.25,359.34 Z M693.57,422.91 L862.6,710.4 L552.74,710.4 L693.57,422.91 Z M491.67,710.4 L176.69,710.4 L347.43,420.01 L491.66,710.4 L491.67,710.4 Z M380.46,363.86 L519.65,127.12 L658.84,363.86 L380.46,363.86 L380.46,363.86 Z M522.19,686.46 L380.83,401.84 L661.6,401.84 L522.19,686.46 Z M884.43,330.95 L884.43,672.55 L719.78,392.53 L884.37,329.15 C884.4,329.75 884.43,330.35 884.43,330.95 L884.43,330.95 Z M159.85,330.95 C159.85,330.37 159.88,329.8 159.91,329.22 L320.15,391.54 L159.85,664.16 L159.85,330.96 L159.85,330.95 Z M125.98,736.63 C131.45,751.8 142.13,764.89 156.47,773.18 L487.56,964.33 C498.23,970.49 510.19,973.57 522.15,973.57 C534.11,973.57 546.07,970.49 556.74,964.33 L887.83,773.18 C909.17,760.86 922.42,737.9 922.42,713.26 L922.42,330.97 C922.42,318.18 918.84,305.84 912.42,295.21 C912.1,294.63 911.75,294.07 911.38,293.54 C905.51,284.42 897.51,276.64 887.84,271.06 L556.72,79.9 C545.35,73.33 532.51,70.27 519.77,70.7 C519.73,70.7 519.7,70.7 519.66,70.7 C519.05,70.7 518.45,70.74 517.85,70.8 C507.33,71.45 496.93,74.48 487.54,79.9 L156.45,271.05 C146.78,276.63 138.78,284.41 132.91,293.53 C132.53,294.08 132.17,294.65 131.84,295.25 C125.43,305.87 121.86,318.19 121.86,330.97 L121.86,713.27 C121.86,720.58 123.03,727.74 125.23,734.52 C125.43,735.24 125.67,735.95 125.96,736.64" id="path22" fill="#FFFFFF" fill-rule="nonzero"></path>
    </g>
</svg>