<svg width="40" height="40" viewBox="0 0 40 40" fill="none" xmlns="http://www.w3.org/2000/svg">
<g clip-path="url(#clip0_61_281)">
<path d="M20 39.9987C31.0457 39.9987 40 31.4168 40 20.8306C40 10.2443 31.0457 1.66244 20 1.66244C8.95427 1.66244 -1.52588e-05 10.2443 -1.52588e-05 20.8306C-1.52588e-05 31.4168 8.95427 39.9987 20 39.9987Z" fill="#ECF3FF"/>
<path d="M14.6 9.13934L7.59999 6.45583V7.41424L13.6 12.5896L13.2 17.9567L11.4 25.2406L9 28.4992L9.60001 33.0995L12.6 33.4829L15 33.0995L17.4 33.4829L21.6 30.991L22.4 26.9657L27.4 22.3653L29.6 23.8988L31.8 26.9657V33.0995L34.8 32.3327L37.8 26.0073L38.6 17.9567L27.8 2.81389L26 2.43053L14.6 9.13934Z" fill="white"/>
<path d="M4 20.2172C4.08 19.5655 4.11999 18.9138 4.31999 18.3004C4.88 15.7702 5.95999 13.355 7.56003 11.3999C7.84001 11.0549 8.08004 10.7481 8.39998 10.4414L6.60002 8.8313C6.28 9.29138 5.95999 9.75138 5.67999 10.2115C4.19999 12.665 3.39999 15.4251 3.2 18.147C3.12 18.8371 3.15999 19.5271 3.15999 20.1789C3.15999 20.8689 3.23999 21.5206 3.35999 22.2107C3.56 23.5524 3.91999 24.8558 4.39999 26.0826C4.08 24.7792 3.91999 23.4758 3.87999 22.134C3.87999 21.5206 3.87999 20.8689 4 20.2172Z" fill="#94A6C4"/>
<path d="M12.2 7.7976C11.2 7.33757 9.79999 6.72419 8.80002 6.26415C9.71998 5.42075 11.4 4.53902 12.8 3.96398C11.8 4.7307 11.8 6.34082 12.2 7.7976Z" fill="#94A6C4"/>
<path d="M8.15996 14.3134C7.59999 15.6552 7.24 17.0736 7.12003 18.4537C7.07998 18.7987 7.04002 19.1438 7.07998 19.4888C7.07998 19.8338 7.07998 20.1789 7.12003 20.5239L7.15999 21.0606C7.15999 21.2139 7.20004 21.4056 7.24 21.5589L7.40001 22.594L7.43997 21.5589C7.43997 21.4056 7.43997 21.2139 7.48002 21.0606L7.56003 20.5622C7.59999 20.2172 7.68 19.8721 7.71996 19.5655C7.76001 19.2204 7.87997 18.9138 7.95998 18.607C8.31997 17.3036 8.91999 16.1152 9.63998 15.0034C10.12 14.2751 10.68 13.6233 11.28 13.01L9.71998 11.5915C9.03996 12.4732 8.56 13.355 8.15996 14.3134Z" fill="#94A6C4"/>
<path d="M31.32 7.75792C29.2 7.02953 28.36 7.25955 28.36 7.25955C28.36 7.25955 27.04 10.6715 22 10.9015C22.04 10.9398 26.56 13.47 31.32 7.75792Z" fill="#94A6C4"/>
<path d="M32.76 14.5434C32.56 18.7604 29.16 20.3322 26.52 20.0255C25.08 19.8338 22.96 20.4856 22.96 20.4856L20.28 24.9325L19.4 25.2392L20.92 22.5557C20.92 22.5557 17.32 23.8208 17.04 23.9358C16.76 24.0508 15.64 25.6226 14.72 27.271C14.52 26.1209 13.76 25.3159 13.76 25.2775C13.76 25.4693 14.16 28.9195 13.72 29.8779C13.28 30.8747 11.32 31.5264 11.32 31.5264L14.2 32.5615L14.4 32.6381L16.56 30.683L17.36 27.7694L18.36 27.0794C18.36 27.0794 20.84 26.8111 20.48 28.9578C20.32 29.9929 19.12 29.9162 17.76 30.7213C16.96 31.1813 15.92 31.9097 15.4 32.4081L16.84 33.4049C16.84 33.4049 18.56 33.1365 21 31.2964C23.48 29.3795 22.24 27.3094 22.24 27.3094L26.28 22.6707L28.92 22.8624C28.92 22.8624 33.48 23.9741 34.96 28.1144C37.9201 20.1789 33.1601 14.9268 32.76 14.5434Z" fill="#94A6C4"/>
<path d="M37.4 11.2478C38.12 11.5546 38.68 12.0132 39.2 12.4349C35.6 0.474036 23.92 1.8158 23.68 1.89248C23.96 1.47078 25 0.819064 25.96 0.474036C25.96 0.474036 21 -1.21276 16.48 1.77746C16.56 1.08742 17.44 0.0523376 17.44 0.0523376C11.2 2.62221 10.8 5.6891 12 7.5279C11 7.06787 9.99996 6.64617 8.99999 6.18613C5.91999 4.76769 3.27999 3.57927 3.11999 3.54094C2.83999 3.46426 2.71999 3.57927 2.71999 3.57927C2.71999 3.57927 2.59999 3.69428 2.83999 3.9243C6.47999 7.41289 8.80002 9.52274 12.68 12.9333C12.04 14.3134 11.96 15.0035 12.28 15.7318C12.72 16.7286 12.68 17.227 12.52 17.8787C12.32 18.5304 10.72 24.3192 10.44 24.9709C10.16 25.6609 8.03998 27.9611 8.00002 28.7278C7.95998 29.4945 8.59995 32.8681 9.47995 33.3665C10.16 33.7115 11.8 34.4399 13 34.5933C13.4 34.67 13.8 34.6316 14 34.4783C14.8 33.9799 15 33.9032 15.52 33.9415L15.64 33.9799C15.84 34.0182 16.08 34.0949 16.4 34.1332C17.08 34.2099 17.96 34.2099 18.68 33.7499C19.72 32.9832 21.48 32.0247 22.08 31.5263C22.8 30.8363 23.28 29.8779 23.28 28.8045C23.28 27.8461 23.96 27.0794 24.72 26.3127C25.44 25.6226 27.24 23.9358 27.96 23.2074C29.8 23.8208 30.48 26.351 30.48 27.7311C30.48 31.5647 27.24 37.1618 19.8 37.5835C19.52 37.5835 19.24 37.6219 18.92 37.6219C9.24001 37.6219 1.31999 29.4178 1.31999 19.7955C1.31999 12.2049 6.07869 7.06485 6.1187 7.02651C2.27869 10.5151 -1.52588e-05 15.3868 -1.52588e-05 20.8306C-1.52588e-05 31.4114 8.96003 40 20 40C31.04 40 40 31.4114 40 20.8306C40 17.3803 39.08 14.0464 37.4 11.2478ZM10.08 8.793C9.52 8.33292 8.96003 7.87293 8.39998 7.41289C9.16001 7.79625 9.91995 8.17964 10.6 8.52466C12.68 9.55972 14.4 10.4798 14.72 10.7098C14.72 10.7098 14.76 10.7481 14.8 10.7865C15 11.0165 15.2 11.3999 14.84 11.8983C14.64 12.1666 14.4 12.0899 14.04 11.8599C13.72 11.6682 12 10.3648 10.08 8.793ZM21.72 28.7278C21.72 29.3795 21.4 29.9546 21 30.3763C20.8 30.568 20 31.0663 19.44 31.4114C18.88 31.7948 18.28 32.1398 17.8 32.4848C17.6 32.5998 17.28 32.6765 16.76 32.5998L15.52 32.4464C16.28 31.7181 18.36 30.1463 19.04 29.8396C19.84 29.4562 20.32 29.0345 19.96 28.1527C19.64 27.2328 18.4 27.2711 18.4 27.2711C18.4 27.2711 19.16 27.0794 19.76 27.1561C19 26.8494 17.96 26.926 17.44 27.2711C16.88 27.6545 16.72 29.2262 16.36 30.1846C16 31.1813 15.2 31.603 14 32.4081C13.32 32.8298 12.88 32.9448 12.56 32.9065C11.88 32.7148 11.08 32.3697 10.52 32.1014C10.2 31.5263 9.79998 29.7246 9.76002 28.9961C9.91995 28.6128 10.56 27.8461 10.88 27.386C11.52 26.5426 11.88 26.0443 12.04 25.5843C12.32 24.9325 13.48 20.8306 13.92 19.1054C14.36 19.8338 14.96 21.0606 14.68 21.7507C16.12 20.2938 15.48 18.5687 15.16 17.8787C14.88 17.1886 14.56 15.8469 15.2 14.5434C15.8 13.24 17.88 9.71308 17.88 9.71308C17.88 9.71308 18.24 10.6332 19 10.5565C19.72 10.4798 26.64 3.04256 26.64 3.04256C26.64 3.04256 27.72 6.49283 25.72 8.60134C23.72 10.7098 22.04 10.9398 22.04 10.9398C22.04 10.9398 24.28 11.6299 26.6 10.4798C27.2 12.5499 27.72 14.6968 27.72 14.9651C27.56 15.2335 25.32 18.8371 25.12 19.0671C25.04 19.1438 24.4 19.2205 24 19.2205C23.28 19.3355 22.84 19.3738 22.64 19.4888C22.32 19.6805 20.48 23.0158 19.6 24.6259C18.8 24.7409 18 25.0092 17.36 25.7376C17.68 25.5843 18.6 25.5843 19.28 25.5843C19.88 25.6226 21.52 26.7727 21.72 28.5744C21.72 28.6895 21.72 28.6895 21.72 28.7278ZM17.04 30.3379C17.48 29.8779 17.56 28.9961 17.64 28.7278C17.72 28.4595 17.88 27.9611 18.24 27.9228C18.6 27.8844 19.36 28.1144 19.28 28.6895C19.2 29.2262 18.6 29.2646 18.12 29.5329C17.8 29.7246 17.12 30.2612 17.04 30.3379ZM34.44 30.8363C33.96 25.9293 30.44 23.6291 28.88 22.8624C30.68 22.6707 35.32 21.329 32.76 14.5434C32.84 14.8501 33.56 18.2237 31.52 19.9872C29.44 21.789 26.4 21.0223 26.04 21.0223C25.72 20.9839 24.2 22.4023 22.12 25.1243C21.92 25.0092 21.08 24.7026 20.04 24.7409C21.08 22.8624 22.64 20.1789 22.88 19.9488C22.96 19.8721 23.64 19.7955 24.04 19.7572C24.84 19.6805 25.24 19.6038 25.4 19.4504C25.48 19.3355 26.04 18.4921 26.6 17.572C26.96 17.6103 27.92 17.687 28.04 17.6487C28.12 17.572 29.2 15.7318 29.24 15.5018C29.28 15.3485 28.52 12.4733 28.04 10.6332C37.92 15.1185 39.48 25.0092 34.44 30.8363Z" fill="#1C324F"/>
<path d="M24.92 8.02628C26.04 7.06786 25.88 5.4194 25.88 5.4194L22.52 8.98466C22.48 8.98466 23.52 9.17632 24.92 8.02628Z" fill="#1C324F"/>
<path d="M12.36 28.3061L12.92 26.7727C12.92 26.7727 11.2 28.8812 11.04 29.1879C10.88 29.5329 10.96 30.1846 11.52 30.2229C12.08 30.2613 12.84 29.5712 12.92 29.0345C13.04 28.3061 12.36 28.3061 12.36 28.3061Z" fill="#1C324F"/>
<path d="M17.64 19.0287C18.84 18.9138 21 17.9937 21.92 17.2653C22.84 16.4985 22.68 14.8118 21.24 14.3134C21.72 13.5467 22.52 11.9365 22.52 11.9365C22.52 11.9365 17.36 17.7253 16.96 17.802C16.56 17.8787 16.4 16.4219 16.4 16.4219C15.2 19.2205 17.24 19.9105 17.64 19.0287Z" fill="#1C324F"/>
<path d="M18.08 18.3004L20.76 15.0418C20.76 15.0418 21.92 15.8085 21.16 16.6902C20.2 17.7253 18.08 18.3004 18.08 18.3004Z" fill="#FFD925"/>
<path d="M25.2 3.77096L23.36 5.68777C21.88 6.10946 20.44 6.87619 19.08 8.14127C19.08 7.41289 21.28 4.23099 25.2 3.77096Z" fill="#D82423"/>
<path d="M27.52 5.4194C27.56 4.92103 27.52 4.34599 27.44 3.80928C29.84 4.11597 32.68 5.45774 35.92 8.48628C33.24 7.06786 30.4 5.76443 27.52 5.4194Z" fill="#D82423"/>
<path d="M28.2401 7.9113C28.2401 7.9113 37.16 11.6682 38.8001 22.2107C39.04 8.48632 28.88 7.79629 28.2401 7.9113Z" fill="#D82423"/>
<path d="M15.24 1.85413C15.12 2.16083 10.08 7.33621 16.36 9.36806C12.92 6.41614 15.2 1.89247 15.24 1.85413Z" fill="#D82423"/>
<path d="M17.92 8.56296C17.92 8.56296 18.44 2.69753 22.12 1.12575C21.84 1.20242 14.36 3.38758 17.92 8.56296Z" fill="#D82423"/>
</g>
<defs>
<clipPath id="clip0_61_281">
<rect width="40" height="40" fill="white"/>
</clipPath>
</defs>
</svg>
