<?xml version="1.0" encoding="UTF-8"?>
<svg width="1024px" height="1024px" viewBox="0 0 1024 1024" version="1.1" xmlns="http://www.w3.org/2000/svg" xmlns:xlink="http://www.w3.org/1999/xlink">
    <title>image</title>
    <g id="image" stroke="none" stroke-width="1" fill="none" fill-rule="evenodd">
        <circle id="Oval" fill="#004B56" cx="512" cy="512" r="512"></circle>
        <path d="M406.498413,259 C406.904762,259 407.103704,259.203328 407.095238,259.609985 L407.095238,328.538275 C407.095238,328.987292 407.315344,329.2118 407.755556,329.2118 L476.365079,329.2118 C476.78836,329.2118 477,329.423601 477,329.847201 L477,468.364599 C477,468.7882 476.78836,469 476.365079,469 L407.755556,469 C407.298413,469 407.069841,468.775492 407.069841,468.326475 L407.069841,329.809077 C407.069841,329.650669 407.006962,329.49875 406.895035,329.386739 C406.783109,329.274728 406.631304,329.2118 406.473016,329.2118 L197,329.224508 L197.025397,259.622693 C197.025397,259.207564 197.232804,259 197.647619,259 L406.498413,259 Z M197,330 L197,399.669031 C197,399.85182 196.852089,400 196.669632,400 L127.698856,400 C127.312889,400 127,399.692242 127,399.312602 L127.012706,330.636479 C127.012706,330.220646 127.224481,330.01273 127.64803,330.01273 L197,330 Z M826.381149,259 C826.812758,259 827.028562,259.216023 827.028562,259.64807 L827.041257,328.267215 C827.041257,328.894106 827.350153,329.207552 827.967947,329.207552 L896.555697,329.207552 C896.801079,329.207552 897,329.406675 897,329.652305 L897,468.567954 C897,468.799548 896.812446,468.987293 896.581085,468.987293 L827.028562,469 L827.028562,329.626891 C827.028562,329.402314 826.846691,329.220259 826.622342,329.220259 L617,329.220259 L617.025389,259.495583 C617.025389,259.22188 617.247044,259 617.52047,259 L826.381149,259 Z M617,330 L616.949146,399.312602 C616.949146,399.770867 616.720305,400 616.262623,400 L547.940792,399.98727 C547.421207,399.98727 547,399.565527 547,399.045281 L547,330.649209 C547,330.224889 547.21189,330.01273 547.63567,330.01273 L617,330 Z M476.517382,540 C476.783924,540 477,540.216531 477,540.483636 L477,679.516364 C477,679.783469 476.783924,680 476.517382,680 L407.566442,680 C407.299899,680 407.083823,680.216531 407.083823,680.483636 L407.083823,749.516364 C407.083823,749.783469 406.867748,750 406.601205,750 L197.411496,750 C197.144953,750 196.928877,749.783469 196.928877,749.516364 L196.941578,680.483636 C196.941578,680.216531 196.725502,680 196.458959,680 L127.482618,680 C127.216076,680 127,679.783469 127,679.516364 L127,610.483636 C127,610.216531 127.216076,610 127.482618,610 L196.47166,610 C196.738203,610 196.954278,610.216531 196.954278,610.483636 L196.954278,679.516364 C196.954278,679.783469 197.170354,680 197.436897,680 L406.588504,680 C406.855047,680 407.071123,679.783469 407.071123,679.516364 L407.058422,540.483636 C407.058422,540.216531 407.274498,540 407.541041,540 L476.517382,540 Z M406.56,470 C406.803005,470 407,470.196995 407,470.44 L407,539.56 C407,539.803005 406.803005,540 406.56,540 L267.44,540 C267.196995,540 267,539.803005 267,539.56 L267,470.44 C267,470.196995 267.196995,470 267.44,470 L406.56,470 Z M896.51757,540 C896.830726,540 896.987304,540.15697 896.987304,540.470909 L897,679.503636 C897,679.77777 896.772641,680 896.492179,680 L827.631603,680 C827.225346,680 827.022217,680.207879 827.022217,680.623636 L827.009522,749.350909 C827.009522,749.783636 826.793698,750 826.362049,750 L617.736341,750 C617.245447,750 617,749.758182 617,749.274545 L617,680.572727 C617,680.256419 617.255779,680 617.571299,680 L826.349354,680 C826.789466,680 827.009522,679.779394 827.009522,679.338182 L827.009522,540 L896.51757,540 Z M616.63,610 C616.834345,610 617,610.165655 617,610.37 L617,679.63 C617,679.834345 616.834345,680 616.63,680 L547.37,680 C547.165655,680 547,679.834345 547,679.63 L547,610.37 C547,610.165655 547.165655,610 547.37,610 L616.63,610 Z M827,470 L827,540 L687.634633,539.987385 C687.211544,539.987385 687,539.772932 687,539.344026 L687,470.643359 C687,470.214453 687.215775,470 687.647325,470 L827,470 Z" id="Combined-Shape" fill="#FFFFFF" fill-rule="nonzero"></path>
    </g>
</svg>