<?xml version="1.0" encoding="UTF-8"?>
<svg width="529px" height="525px" viewBox="0 0 529 525" version="1.1" xmlns="http://www.w3.org/2000/svg" xmlns:xlink="http://www.w3.org/1999/xlink">
    <title>H2O</title>
    <g id="Page-1" stroke="none" stroke-width="1" fill="none" fill-rule="evenodd">
        <g id="H2O" transform="translate(0.237604, 0.833050)" fill-rule="nonzero">
            <path d="M227.393594,0 C230.251718,0 232.892734,1.52479139 234.321797,4 L305.451,127.2 L447.593594,127.2 C450.451718,127.2 453.092734,128.724791 454.521797,131.2 L527.652995,257.86695 C529.082057,260.342159 529.082057,263.391742 527.652995,265.86695 L454.521797,392.533901 C453.092734,395.009109 450.451718,396.533901 447.593594,396.533901 L305.393,396.533 L234.321797,519.633901 C232.892734,522.109109 230.251718,523.633901 227.393594,523.633901 L81.1311978,523.633901 C78.2730731,523.633901 75.632057,522.109109 74.2029946,519.633901 L1.07179677,392.96695 C-0.35726559,390.491742 -0.35726559,387.442159 1.07179677,384.96695 L72.172,261.816 L1.07179677,138.66695 C-0.35726559,136.191742 -0.35726559,133.142159 1.07179677,130.66695 L74.2029946,4 C75.632057,1.52479139 78.2730731,0 81.1311978,0 L227.393594,0 Z" id="Path" fill="#6B2BFB"></path>
            <path d="M223.273,269.333 L292.392,389.052 L223.353396,508.63295 L85.1723957,508.63295 L16.0833957,388.96695 L85.152,269.333 L223.273,269.333 Z M443.553396,142.199 L512.642396,261.86695 L443.553396,381.53295 L305.469,381.53295 L236.351,261.816 L305.412,142.199 L443.553396,142.199 Z M223.353396,14.9999503 L292.421,134.63 L223.33,254.3 L85.154,254.3 L16.0833957,134.66695 L85.1723957,14.9999503 L223.353396,14.9999503 Z" id="Shape" fill="#FFFFFF"></path>
            <path d="M195.200476,66.6415601 C199.342612,66.6415601 202.700476,69.9994245 202.700476,74.1415601 L202.700768,134.201002 C202.74143,134.517241 202.762396,134.839647 202.762396,135.16695 C202.762396,135.494253 202.74143,135.816659 202.700768,136.132899 L202.700476,196.14156 C202.700476,200.283696 199.342612,203.64156 195.200476,203.64156 C191.058341,203.64156 187.700476,200.283696 187.700476,196.14156 L187.700476,142.66656 L120.700476,142.66656 L120.700476,196.14156 C120.700476,200.283696 117.342612,203.64156 113.200476,203.64156 C109.058341,203.64156 105.700476,200.283696 105.700476,196.14156 L105.700476,74.1415601 C105.700476,69.9994245 109.058341,66.6415601 113.200476,66.6415601 C117.342612,66.6415601 120.700476,69.9994245 120.700476,74.1415601 L120.700476,127.66656 L187.700476,127.66656 L187.700476,74.1415601 C187.700476,69.9994245 191.058341,66.6415601 195.200476,66.6415601 Z M154.237698,323.223835 C170.523882,323.223835 182.707718,331.436844 188.800877,344.44857 C193.978854,355.505959 193.942089,368.86546 188.377125,376.815042 C188.282367,376.950404 188.183162,377.082598 188.079672,377.211407 L140.004396,437.04695 L190.205579,436.667165 C194.26638,436.636402 197.597835,439.838731 197.756488,443.867439 L197.762617,444.110134 C197.793559,448.252151 194.461229,451.635356 190.319212,451.666735 L124.319212,452.167201 C117.996812,452.214632 114.455688,444.898312 118.415702,439.969485 L176.207534,368.035374 C178.226401,364.878023 178.23052,357.529042 175.383945,351.175289 L175.216551,350.809867 C171.528614,342.934408 164.540573,338.223835 154.237698,338.223835 C138.396074,338.223835 129.708244,345.779153 126.46798,362.690736 C125.688524,366.758872 121.758774,369.424875 117.690637,368.645419 C113.622501,367.865963 110.956498,363.936212 111.735954,359.868076 C116.301631,336.038898 131.037621,323.223835 154.237698,323.223835 Z M373.262396,194.16695 C409.437047,194.16695 438.762396,223.492299 438.762396,259.66695 C438.762396,295.841601 409.437047,325.16695 373.262396,325.16695 C337.087745,325.16695 307.762396,295.841601 307.762396,259.66695 C307.762396,223.492299 337.087745,194.16695 373.262396,194.16695 Z M373.262396,209.16695 C345.372016,209.16695 322.762396,231.77657 322.762396,259.66695 C322.762396,287.55733 345.372016,310.16695 373.262396,310.16695 C401.152776,310.16695 423.762396,287.55733 423.762396,259.66695 C423.762396,231.77657 401.152776,209.16695 373.262396,209.16695 Z" id="Shape" fill="#6B2BFB"></path>
        </g>
    </g>
</svg>