<?xml version="1.0" encoding="UTF-8"?>
<svg width="332px" height="332px" viewBox="0 0 332 332" version="1.1" xmlns="http://www.w3.org/2000/svg" xmlns:xlink="http://www.w3.org/1999/xlink">
    <title>PRO</title>
    <defs>
        <linearGradient x1="14.6448186%" y1="85.358199%" x2="85.358199%" y2="14.6448186%" id="linearGradient-1">
            <stop stop-color="#B49552" offset="0%"></stop>
            <stop stop-color="#F1E594" offset="54%"></stop>
            <stop stop-color="#B79B6C" offset="100%"></stop>
        </linearGradient>
    </defs>
    <g id="Page-1" stroke="none" stroke-width="1" fill="none" fill-rule="evenodd">
        <g id="PRO" fill-rule="nonzero">
            <circle id="Oval" fill="url(#linearGradient-1)" cx="165.69" cy="165.69" r="165.69"></circle>
            <path d="M162.547772,243.688114 C165.971639,243.688114 168.506533,244.788328 170.152454,246.988758 C171.437504,248.705091 172.080029,250.901119 172.080029,253.57684 C172.080029,256.472606 171.345086,258.879874 169.875199,260.798648 C168.150063,263.051887 165.689984,264.178507 162.494962,264.178507 C159.51118,264.178507 157.165523,263.192715 155.457991,261.22113 C153.935293,259.31996 153.173945,256.917092 153.173945,254.012526 C153.173945,251.389615 153.825273,249.145177 155.127926,247.279214 C156.800252,244.885147 159.273534,243.688114 162.547772,243.688114 Z M213.35127,244.216217 L213.35127,246.526667 L206.815997,246.526667 L206.815997,263.610796 L204.149078,263.610796 L204.149078,246.526667 L197.613804,246.526667 L197.613804,244.216217 L213.35127,244.216217 Z M194.973289,244.216217 L194.973289,263.610796 L192.319573,263.610796 L192.319573,244.216217 L194.973289,244.216217 Z M188.913309,244.216217 L188.913309,246.592679 L178.087199,246.592679 L178.087199,252.481028 L187.606254,252.481028 L187.606254,254.791478 L178.087199,254.791478 L178.087199,263.610796 L175.459887,263.610796 L175.459887,244.216217 L188.913309,244.216217 Z M143.945348,244.216217 C145.424036,244.216217 146.643073,244.43186 147.60246,244.863143 C149.424415,245.690504 150.335392,247.217602 150.335392,249.444435 C150.335392,250.606262 150.095546,251.556847 149.615852,252.296191 C149.136158,253.035535 148.465028,253.629651 147.60246,254.078539 C148.359408,254.386598 148.929318,254.791478 149.312193,255.293175 C149.695068,255.794873 149.908508,256.609032 149.952518,257.735651 L150.044936,260.336558 C150.071341,261.075902 150.132952,261.626009 150.229772,261.98688 C150.388203,262.602999 150.669858,262.999076 151.074736,263.17511 L151.074736,263.610796 L147.853309,263.610796 C147.765291,263.443564 147.694878,263.227921 147.642068,262.963869 C147.595125,262.729157 147.555137,262.299721 147.522103,261.67556 L147.35161,258.197742 C147.289999,256.930295 146.819107,256.080929 145.938936,255.649645 C145.437239,255.411998 144.649485,255.293175 143.575675,255.293175 L137.59491,255.293175 L137.59491,263.610796 L134.967598,263.610796 L134.967598,244.216217 L143.945348,244.216217 Z M125.593771,244.216217 C127.318907,244.216217 128.709579,244.702512 129.765785,245.675102 C130.82199,246.647691 131.350093,248.014157 131.350093,249.7745 C131.350093,251.288395 130.879201,252.606452 129.937418,253.72867 C128.995635,254.850889 127.547752,255.411998 125.593771,255.411998 L119.494183,255.411998 L119.494183,263.610796 L116.866871,263.610796 L116.866871,244.216217 L125.593771,244.216217 Z M162.706203,246.02497 C160.699412,246.02497 159.062293,246.713703 157.794846,248.091172 C156.527399,249.46864 155.893676,251.499636 155.893676,254.18416 C155.893676,256.331778 156.437181,258.14273 157.524194,259.617018 C158.611205,261.091305 160.373749,261.828448 162.811823,261.828448 C165.126675,261.828448 166.8012,260.998887 167.835402,259.339763 C168.869604,257.680641 169.386705,255.772868 169.386705,253.616449 C169.386705,251.336804 168.790389,249.501647 167.597756,248.110976 C166.405124,246.720305 164.774606,246.02497 162.706203,246.02497 Z M124.722402,246.473857 L119.494183,246.473857 L119.494183,253.193966 L124.722402,253.193966 C125.901831,253.193966 126.859019,252.943117 127.593961,252.44142 C128.328904,251.939722 128.696376,251.055149 128.696376,249.787702 C128.696376,248.361825 128.168273,247.393636 127.112067,246.883137 C126.531155,246.610284 125.734598,246.473857 124.722402,246.473857 Z M144.01136,246.473857 L137.59491,246.473857 L137.59491,253.101548 L143.668093,253.101548 C144.900333,253.101548 145.875123,252.8551 146.592463,252.362204 C147.309803,251.869308 147.668472,250.980335 147.668472,249.695284 C147.668472,248.313416 147.166775,247.371632 146.16338,246.869934 C145.626474,246.605882 144.909134,246.473857 144.01136,246.473857 Z M151.077754,144.811522 L151.10279,144.799004 C155.40898,145.061881 158.576033,146.488933 160.628984,149.105194 C162.681935,151.671383 163.307835,154.725773 162.494165,158.268366 C161.96841,160.271245 160.916898,161.760886 159.339631,162.73729 C157.712291,163.713693 156.310276,163.663621 155.108549,162.587074 C155.640081,162.251977 156.12895,161.511564 156.575153,160.346143 L156.685816,160.045921 C157.261644,158.606352 157.424378,157.204336 157.186536,155.814839 C156.798478,153.761888 155.959772,152.172102 154.645383,151.045483 C153.330993,149.918863 151.79128,149.330518 150.026243,149.280446 C146.971852,149.13023 144.343073,150.044043 142.139906,152.046922 C140.036883,153.949658 138.584796,156.252969 137.771126,158.969373 C137.107672,161.335274 137.145226,163.688657 137.908824,166.054558 C138.672422,168.420459 140.324797,170.085353 142.853432,171.061756 C143.24149,171.374706 144.030123,171.499886 145.219333,171.449814 C145.478037,171.449814 145.725616,171.449814 145.969485,171.438687 L146.839494,171.372203 L147.427307,171.305607 C147.470569,171.301601 147.502615,171.299598 147.522644,171.299598 C148.286241,171.399742 148.824515,171.612548 149.137465,171.91298 C149.411296,172.186811 149.541366,172.575651 149.536061,173.079501 L149.525523,173.302477 C149.525523,173.815715 148.974731,174.203773 147.873148,174.454133 L146.508686,174.604349 L146.235293,174.601945 L145.865762,174.585121 C145.796162,174.580314 145.722556,174.574306 145.644945,174.566795 C145.256887,174.541759 144.906383,174.529241 144.568397,174.529241 L144.067677,174.529241 C139.335875,174.429097 135.129829,175.918738 131.449539,178.998165 C127.769248,181.977448 125.879031,185.920616 125.791405,190.852706 C125.791405,194.44537 127.193421,197.236883 130.022487,199.239762 C132.93918,201.192569 136.569399,201.780915 140.913143,201.004799 C143.829835,200.491562 146.746528,199.089546 149.650703,196.811271 C152.567396,194.532996 154.958333,191.716447 156.810996,188.386661 C157.624665,186.897019 158.500925,185.031838 159.464811,182.766081 C160.211196,180.906236 160.981501,179.740071 161.775726,179.255898 L162.271224,178.541222 L162.730095,177.901175 C162.950043,177.599954 163.155512,177.327039 163.345389,177.082912 C164.972728,174.967371 166.925535,173.878305 169.216328,173.828233 C172.133021,173.778161 173.973166,175.105069 174.736764,177.821473 L175.070331,178.87569 L175.363886,179.85365 C175.712299,181.056753 175.88842,181.856485 175.88842,182.252843 L179.831588,177.370826 C180.983243,175.743486 181.984683,174.742047 182.835907,174.341471 L183.010231,174.174565 L183.086267,174.116147 C183.161374,174.066075 183.223964,174.028521 183.299072,174.003485 C183.355403,173.984708 183.432858,173.980014 183.541999,173.989402 L183.662094,174.003485 C183.784145,174.022262 183.934361,174.033998 184.102179,174.038692 L184.558753,174.045212 L185.389578,174.078593 C185.890297,174.103629 186.428571,174.116147 187.004399,174.116147 C187.342385,174.116147 187.555191,174.241327 187.655335,174.479169 L187.655335,174.854709 L187.580227,175.004925 L177.403097,187.497883 L177.563288,188.225492 C177.982249,190.065637 178.717486,192.902527 179.768998,196.736163 L180.011182,197.419872 C180.486355,198.717072 180.906347,199.593842 181.271157,200.06595 C181.796913,200.654296 182.410295,200.979763 183.098785,201.029835 C183.787274,201.079907 184.5008,200.904655 185.214326,200.516598 C185.927851,200.12854 186.653895,199.652856 187.367421,199.114582 C188.014478,198.626451 188.661537,198.045669 189.289924,197.372239 L190.414313,194.20511 C192.034468,189.612955 193.355669,185.734031 194.377498,182.565793 C195.516635,179.361187 195.929729,176.557156 195.591743,174.141183 C197.610645,173.336026 199.075791,173.730673 199.998256,175.336201 L200.110739,175.543198 C201.062107,177.270682 201.137215,179.386223 200.323545,181.90234 C202.47664,179.248525 205.080383,177.082912 208.134774,175.4055 C211.189164,173.728089 214.080821,173.139743 216.809744,173.627945 L216.797226,173.627945 C220.139531,174.416579 221.816942,177.195574 221.816942,181.977448 C221.816942,186.408818 220.527588,190.89026 217.948882,195.421774 C215.370175,199.903216 212.365856,202.882499 208.923407,204.359622 C206.670168,205.298472 204.742397,205.598903 203.115058,205.2484 C201.487719,204.910414 200.235919,204.271996 199.347142,203.333146 C198.458364,202.406815 198.095342,201.493001 198.23304,200.604224 C198.42081,199.765518 198.758796,199.69041 199.23448,200.3789 C199.760235,201.029835 200.674049,201.367821 201.988438,201.417893 C203.171389,201.462958 204.151548,201.305231 204.928915,200.953839 L205.180527,200.829547 C209.048587,198.951848 212.15305,194.870982 214.493915,188.561913 C215.545427,185.795436 215.946002,183.454571 215.70816,181.539318 C215.470319,179.624065 214.744275,178.472409 213.555065,178.071833 C212.365856,177.671257 210.901251,177.871545 209.186285,178.660179 C206.983118,179.736727 204.617217,181.639462 202.088582,184.343349 C199.70869,186.841057 198.038469,189.372031 197.098792,191.915398 L187.179651,220.395173 C186.854183,221.421649 186.603823,222.373016 186.391017,223.299348 C186.090585,223.374456 185.802671,223.487118 185.514757,223.587262 C184.883851,223.477103 184.220898,223.398991 183.525898,223.372152 L182.961087,223.361938 C182.260079,223.136614 181.571589,222.886254 180.883099,222.635894 L180.807991,222.435606 C181.308711,219.894453 182.134899,216.977761 183.336626,213.67301 L185.089078,208.932473 C185.794207,207.016941 186.468009,205.176012 187.110486,203.409648 C186.407384,203.856359 185.679136,204.252069 184.926412,204.597464 L184.926412,204.584946 C182.823389,205.573867 181.083387,206.011997 179.69389,205.911853 C177.453169,205.761637 175.775758,204.234442 174.674174,201.330267 L173.747843,198.376021 C173.607015,197.897207 173.466188,197.383187 173.335922,196.83396 L172.600995,193.539146 L172.558169,193.318288 C172.541942,193.226952 172.533597,193.164363 172.533597,193.130981 L163.570713,203.921492 C163.014357,204.577992 162.487675,205.036675 161.97308,205.306337 L161.78064,205.398616 C161.204812,205.699047 159.865386,205.836745 157.762363,205.836745 C157.186536,205.786673 156.836032,205.561349 156.685816,205.173292 C156.685816,204.973004 156.710852,204.847824 156.760924,204.81027 C156.794304,204.710126 156.83325,204.621109 156.885176,204.54322 L171.306834,187.297595 L171.213925,186.830156 L171.015461,185.899946 C170.839547,185.097296 170.602556,184.058239 170.303291,182.781577 L169.867264,180.938454 C169.498609,179.297345 168.734542,178.548738 167.553597,178.692632 L167.363665,178.722769 C166.174456,178.872985 164.597188,180.275 162.631863,182.928815 L162.568818,183.018401 L162.389425,183.541363 C160.995624,187.480381 159.199291,191.006685 157.000428,194.111886 L156.523082,194.770838 C153.318475,199.239762 149.112429,202.394297 143.904943,204.234442 C138.459616,206.087105 132.989252,206.187249 127.493852,204.547392 C124.727376,203.721204 122.574281,202.018757 121.047085,199.427532 C120.228749,198.039045 119.676389,196.478032 119.391927,194.74257 C118.368198,196.264076 117.344095,197.554339 116.315283,198.613862 C110.244056,204.572428 103.296569,207.138617 95.4603042,206.299911 C92.8315253,205.899335 90.7034662,204.99804 89.0761269,203.570988 C86.8729599,201.655735 85.7838943,198.914294 85.7838943,195.371702 L85.7964123,195.371702 C85.7463404,192.217167 86.534974,188.924935 88.1623133,185.469968 C89.8397246,182.02752 92.0554097,179.060755 94.8218865,176.607228 C97.6384353,174.141183 100.655272,172.78924 103.847361,172.53888 C106.088082,172.388664 108.103479,172.751686 109.868516,173.615427 C111.633553,174.479169 112.810245,175.818594 113.373554,177.646221 C114.237296,180.300036 113.949382,182.966369 112.509813,185.620184 C111.120315,188.236445 109.067364,190.251842 106.35096,191.678893 C104.635994,192.567671 102.220021,193.206089 99.1155586,193.594147 C96.2489378,193.94465 93.8580009,193.894578 91.9552657,193.443931 C91.5093121,195.110389 91.7124842,196.743841 92.5647844,198.364915 L92.7438994,198.68897 C93.3697991,199.915734 94.4839006,200.804511 96.1112399,201.342785 C98.4521049,201.981203 101.29369,201.906095 104.635994,201.117461 C110.453464,199.594433 115.337201,195.668596 119.299621,189.352367 L119.360347,188.806558 C119.87506,184.720371 121.606543,181.14452 124.564642,178.059315 C127.719176,174.829673 131.775007,172.776722 136.74465,171.900462 C134.591555,170.260605 133.139468,168.145064 132.37587,165.553839 C131.612273,162.962614 131.637309,160.459015 132.450978,158.043042 C133.602634,153.736852 135.981053,150.419583 139.611271,148.116272 C143.24149,145.762889 147.059478,144.648788 151.077754,144.811522 Z M304.2229,150.507209 C305.011534,152.18462 304.836282,154.738291 303.684627,158.193258 L298.164191,173.715571 L298.492167,173.736026 L298.895832,173.74533 C300.197927,173.754602 302.319947,173.596323 305.261894,173.277441 L307.051967,173.127225 L306.797867,173.905883 C306.203481,175.644712 305.598315,176.837246 304.97398,177.483488 C304.16031,178.272121 302.770813,178.685215 300.818006,178.735287 C300.392394,178.785359 298.977861,178.660179 296.586924,178.359747 L295.562297,181.048472 L294.854556,182.936996 C293.036645,187.826751 291.773956,191.546041 291.066488,194.094866 C289.998285,197.918545 290.707478,200.235559 293.194064,201.045906 L293.432389,201.117461 C296.724622,202.156455 300.742898,200.867101 305.4747,197.274437 C307.765493,195.44681 309.630674,193.431413 311.070243,191.215728 L311.433265,190.70249 C312.246935,189.475726 312.985497,189.125223 313.64895,189.663496 C314.550246,190.151698 314.299886,191.541195 312.860317,193.806952 C310.757294,197.399617 307.965781,200.403936 304.47326,202.819909 L304.460742,202.807391 C300.930668,205.323508 297.363039,206.500199 293.782893,206.349983 C291.391956,206.299911 289.201307,205.386098 287.18591,203.62106 C286.09569,202.582059 285.373277,201.243682 285.018669,199.603427 C279.170096,205.055247 272.461574,207.403387 264.903879,206.637897 C262.174956,206.237321 260.059415,205.336026 258.519702,203.908974 C257.100328,202.641676 256.148532,201.032248 255.664314,199.072991 L255.790779,198.951848 C249.719552,204.910414 242.772065,207.476603 234.9358,206.637897 C232.307021,206.237321 230.178962,205.336026 228.551623,203.908974 C226.348456,201.993721 225.25939,199.25228 225.25939,195.709688 L225.271908,195.709688 C225.221836,192.555153 226.01047,189.26292 227.637809,185.807954 C229.315221,182.365505 231.530906,179.398741 234.297382,176.945214 C237.113931,174.479169 240.130768,173.127225 243.322857,172.876865 C245.563578,172.72665 247.578975,173.089671 249.344012,173.953413 C251.109049,174.817155 252.285741,176.15658 252.849051,177.984207 C253.712792,180.638022 253.424878,183.304355 251.985309,185.95817 C250.595811,188.574431 248.54286,190.589828 245.826456,192.016879 C244.11149,192.905657 241.695517,193.544075 238.591055,193.932132 C235.724434,194.282636 233.333497,194.232564 231.430762,193.781917 C230.984808,195.448375 231.18798,197.081826 232.04028,198.7029 L232.219395,199.026956 C232.845295,200.25372 233.959397,201.142497 235.586736,201.680771 C237.927601,202.319189 240.769186,202.244081 244.11149,201.455447 C248.355542,200.344344 252.102641,197.954411 255.357607,194.290471 C255.571048,191.499448 256.312681,188.697943 257.580852,185.870544 C259.020422,182.665937 261.211071,179.736727 264.177836,177.082912 C267.044456,174.566795 270.098847,173.189815 273.353526,172.939455 C275.356405,172.78924 277.221586,173.127225 278.949069,173.940895 C280.563155,174.706702 281.700429,175.982585 282.350458,177.768544 L282.466626,178.109387 C283.280295,180.425216 283.06749,182.741045 281.81569,185.056874 C280.864322,186.734286 279.700149,187.673135 278.335688,187.860905 C276.971226,188.061193 275.957269,187.535437 275.293815,186.308674 C275.957269,185.720328 276.520578,184.89414 276.983744,183.830111 C277.434392,182.766081 277.684752,181.802196 277.734824,180.913418 C277.784896,179.924496 277.597126,179.073273 277.158996,178.359747 C276.780675,177.725503 276.343008,177.308854 275.845997,177.127386 L275.656837,177.070394 C273.503742,176.331832 270.849927,177.558595 267.70791,180.763202 C265.266901,183.329391 263.451792,186.408818 262.262582,190.001482 C261.073373,193.594147 260.998265,196.435731 262.049777,198.5012 L262.037259,198.526236 C262.800856,200.00336 264.015102,200.992281 265.692513,201.480483 C268.221148,202.269117 271.263021,202.244081 274.793095,201.405375 C278.489151,200.342613 281.862169,198.177068 284.92266,194.908745 C285.138981,193.703476 285.665225,191.934883 286.511635,189.620423 L290.99138,177.546077 C286.647636,177.057876 285.132959,175.480608 286.472384,172.814276 L289.989941,173.114707 L292.430949,173.264923 L296.374118,162.324196 L297.525773,158.994409 L298.026493,157.517286 C298.414551,156.478293 298.689947,155.551961 298.890235,154.713255 C299.553688,152.009368 299.703904,150.006489 299.315847,148.729654 C301.794409,148.241452 303.434267,148.829798 304.2229,150.507209 Z M39.0917742,146.075839 C41.0445813,146.075839 42.3840068,146.539005 43.1100504,147.452818 C43.8235761,148.366632 44.0489,149.655985 43.7860222,151.308361 C43.5231443,152.960736 42.8471726,155.276565 41.745589,158.268366 L36.0874555,175.418018 C34.848174,179.035719 33.6088925,183.830111 32.3570931,189.813712 C31.6435674,193.268679 31.5183874,196.172853 31.9940712,198.5012 C32.469755,200.829547 33.5463026,202.056311 35.2237138,202.156455 C36.8710819,202.308341 38.4203089,201.882283 39.8612172,200.888462 L40.1683217,200.666814 C42.9728339,198.704859 45.4185649,195.377221 47.516643,190.695027 L48.4373273,188.611768 L48.8417046,187.678507 C49.616419,185.873317 50.1871355,184.436129 50.5582572,183.366945 L50.5771895,183.295261 L50.9137614,182.218711 L53.684553,173.616088 L54.0971903,172.379647 C54.2254391,172.001356 54.344347,171.656964 54.4537832,171.346606 L54.6223947,170.869688 L54.2135117,172.426218 L54.5069094,171.492309 C55.5225115,168.154886 55.8763186,165.772904 55.5779731,164.327075 L57.2929383,164.014125 C58.5322198,163.964053 59.4835874,164.302039 60.1595591,165.040601 C60.8230128,165.779163 61.1860347,166.905782 61.2361067,168.420459 C61.2861786,170.523483 60.7854588,173.164779 59.7339473,176.369386 L58.1386994,180.981724 L57.9501322,181.631246 C56.4865492,186.69971 55.574322,190.595044 55.2024332,193.306233 C54.4388356,199.177172 55.3401312,202.168973 57.9313561,202.269117 C62.2375462,202.531995 66.4060384,198.989402 70.4743867,191.653857 C73.8166912,185.620184 77.0212979,178.159459 80.0756886,169.234129 L80.727032,167.279696 L81.1443971,165.995274 C84.3321562,156.077107 85.6021781,149.52291 84.9451887,146.351235 C84.9952607,146.301163 85.1830306,146.251091 85.5210165,146.188501 C85.8590023,146.138429 86.2971321,146.138429 86.8479239,146.188501 C87.3987157,146.238573 87.9369894,146.401307 88.4627452,146.664185 C88.988501,146.927063 89.4516668,147.4403 89.8647606,148.203898 C90.2208274,148.882651 90.4483157,149.729549 90.5208475,150.762172 L90.5407323,151.158145 C90.8286462,155.714695 89.0385729,163.162902 85.1705126,173.490247 C84.0188571,176.482048 82.8296474,179.436295 81.5903659,182.378023 C80.4387104,184.944212 78.936551,187.860905 77.0713698,191.103066 C75.4324067,194.125268 73.7070949,196.640171 71.8954346,198.667821 L71.4758263,199.1271 C69.5105011,201.330267 67.2197081,203.132858 64.5909292,204.55991 C61.9621503,205.974443 59.3333715,206.687969 56.7045926,206.687969 C54.7517854,206.687969 53.0493382,205.774155 51.6222868,203.93401 C50.1827174,201.993721 49.4441557,199.903216 49.4066017,197.637459 C45.2005555,203.671132 40.1432857,206.687969 34.2097563,206.687969 C31.2429916,206.738041 29.1149325,205.18581 27.800543,202.006239 C26.4861536,198.839186 26.0355058,194.795874 26.4360816,189.88882 C26.8366574,184.981766 27.950759,179.886942 29.7658682,174.591831 L36.3628513,154.538003 L37.4554376,151.493365 C37.8004648,150.50364 37.9870612,149.919646 38.0152266,149.743611 C32.519827,149.956417 28.1009749,152.046922 24.7586703,156.040163 C22.2300354,159.031963 21.1785239,161.961174 21.6041357,164.852831 C21.9421215,166.79312 22.9936331,168.182618 24.7586703,169.021323 C22.7663327,170.159802 20.9425199,170.433186 19.2978754,169.841477 L19.0254288,169.734849 C17.3480175,169.108949 16.27147,167.85715 15.7707502,166.004486 C15.2700304,164.139305 15.3952104,162.061318 16.158808,159.758007 C17.8737733,155.301601 20.978236,151.946778 25.472196,149.693539 C29.9160841,147.390228 34.4475982,146.175983 39.0917742,146.075839 Z M237.591033,180.113852 L237.314219,180.437734 C236.178211,181.745865 235.115833,183.411628 234.136728,185.42538 L233.871771,185.983206 C232.89036,188.051179 232.268799,189.672065 231.986735,190.835685 L231.933529,191.064968 L232.458416,191.104355 C238.734915,191.512877 243.329285,189.847884 246.264585,186.120904 C248.129767,183.805075 248.768184,181.46421 248.204875,179.098309 C247.866889,177.621185 247.053219,176.732408 245.763866,176.444494 C242.992798,175.827357 240.268521,177.046707 237.591033,180.113852 L237.591033,180.113852 Z M98.1280553,179.763349 L97.8512412,180.08723 C96.7152331,181.395361 95.6528547,183.061124 94.6737498,185.074876 L94.4087926,185.632702 C93.4273819,187.700675 92.8058209,189.321561 92.5237567,190.485181 L92.4705514,190.714465 L92.9954384,190.753851 C99.2719372,191.162373 103.866307,189.49738 106.801607,185.7704 C108.666789,183.454571 109.305206,181.113706 108.741896,178.747805 C108.403911,177.270682 107.590241,176.381904 106.300888,176.09399 C103.52982,175.476853 100.805543,176.696203 98.1280553,179.763349 Z M170.569068,39.6448019 L170.569068,131.001127 L159.766039,131.001127 L159.766039,39.6448019 L170.569068,39.6448019 Z M147.974088,55.0419353 L147.974088,115.291043 L137.821994,115.291043 L137.821994,55.0419353 L147.974088,55.0419353 Z M192.83858,55.0419353 L192.83858,115.291043 L183.337423,115.291043 L183.337423,55.0419353 L192.83858,55.0419353 Z M126.368029,72.066408 L126.368029,97.9285848 L116.866871,97.9285848 L116.866871,72.066408 L126.368029,72.066408 Z M214.106653,72.066408 L214.106653,97.9285848 L204.943481,97.9285848 L204.943481,72.066408 L214.106653,72.066408 Z" id="Shape" fill="#000000"></path>
        </g>
    </g>
</svg>