<?xml version="1.0" encoding="UTF-8"?>
<svg width="32px" height="28px" viewBox="0 0 32 28" version="1.1" xmlns="http://www.w3.org/2000/svg" xmlns:xlink="http://www.w3.org/1999/xlink">
    <title>INC</title>
    <defs>
        <linearGradient x1="74.9399892%" y1="12.1582217%" x2="25.0201042%" y2="87.7685764%" id="linearGradient-1">
            <stop stop-color="#00FF99" offset="0%"></stop>
            <stop stop-color="#00FF55" offset="100%"></stop>
        </linearGradient>
    </defs>
    <g id="Page-1" stroke="none" stroke-width="1" fill="none" fill-rule="evenodd">
        <path d="M23.2523885,0 C23.8060464,0 24.3176474,0.293045039 24.5944764,0.768747888 L31.7451916,13.0565367 C32.0849361,13.6403538 32.0849361,14.3596462 31.7451916,14.9434634 L24.5944764,27.2312521 C24.3176474,27.706955 23.8060464,28 23.2523885,28 L8.74761147,28 C8.19395358,28 7.68235263,27.706955 7.40552365,27.2312521 L0.254808462,14.9434634 C-0.0849361538,14.3596462 -0.0849361538,13.6403538 0.254808462,13.0565367 L7.40552365,0.768747888 C7.68235263,0.293045039 8.19395358,0 8.74761147,0 L23.2523885,0 Z M24.3727043,4.47271499 L20.7843876,4.47271499 C20.2653717,4.47271499 19.7859071,4.74783721 19.5270864,5.19416867 L8.96292565,23.4118675 L12.525161,23.4118675 C13.0436242,23.4118675 13.5226659,23.137326 13.7816901,22.6917437 L24.3727043,4.47271499 Z M18.557208,16.3955845 L16.362608,20.18649 L17.46388,22.095535 C17.5930713,22.3194998 17.833254,22.4576812 18.0933515,22.4576812 L22.0510804,22.4576812 L18.557208,16.3955845 Z M12.3480673,6.35217289 L8.3825197,6.35217289 L13.0542599,14.4511416 L15.2502688,10.65779 L12.9776725,6.71455093 C12.8485172,6.49045575 12.6082609,6.35217289 12.3480673,6.35217289 Z" id="INC" fill="url(#linearGradient-1)" fill-rule="nonzero"></path>
    </g>
</svg>