<svg width="512" height="512" viewBox="0 0 512 512" fill="none" xmlns="http://www.w3.org/2000/svg">
<rect width="512" height="512" rx="256" fill="url(#paint0_linear_10383_205)"/>
<path d="M384.362 197.618C295.391 134.944 145.638 127.882 69 127C76.0474 207.328 117.45 275.298 139.472 299.131C162.375 264.705 204.365 240.577 224.919 232.927C206.42 217.92 200.254 195.852 200.254 179.081C246.942 210.859 306.843 204.101 348.245 225.865C389.647 247.629 394.933 295.6 393.171 317.669C373.791 300.014 335.781 300.203 317.413 326.496C280.414 379.46 357.411 432.535 415.193 393.583C475.093 353.203 462.76 248.816 384.362 197.618Z" fill="white"/>
<defs>
<linearGradient id="paint0_linear_10383_205" x1="-0.251056" y1="0.608119" x2="573.331" y2="280.139" gradientUnits="userSpaceOnUse">
<stop stop-color="#F6781A"/>
<stop offset="1" stop-color="#F9386D"/>
</linearGradient>
</defs>
</svg>
