<svg width="40" height="40" viewBox="0 0 40 40" fill="none" xmlns="http://www.w3.org/2000/svg">
<g clip-path="url(#clip0_72_40)">
<rect width="40" height="40" fill="url(#paint0_linear_72_40)"/>
<path d="M30.0283 15.4389C23.0774 10.5425 11.378 9.9908 5.39061 9.92188C5.94118 16.1975 9.17573 21.5076 10.8962 23.3696C12.6856 20.6801 15.966 18.7951 17.5718 18.1974C16.1266 17.025 15.6448 15.301 15.6448 13.9907C19.2923 16.4733 23.9721 15.9454 27.2066 17.6457C30.4412 19.346 30.8541 23.0938 30.7164 24.8179C29.2024 23.4386 26.2329 23.4534 24.7979 25.5075C21.9074 29.6453 27.9227 33.7918 32.4369 30.7487C37.1166 27.594 36.1531 19.4387 30.0283 15.4389Z" fill="white"/>
<g style="mix-blend-mode:soft-light" opacity="0.25">
<rect width="40" height="40" fill="url(#paint1_linear_72_40)"/>
</g>
</g>
<defs>
<linearGradient id="paint0_linear_72_40" x1="-0.0196138" y1="0.0475093" x2="44.7915" y2="21.8859" gradientUnits="userSpaceOnUse">
<stop stop-color="#F6781A"/>
<stop offset="1" stop-color="#F9386D"/>
</linearGradient>
<linearGradient id="paint1_linear_72_40" x1="20" y1="0" x2="20" y2="40" gradientUnits="userSpaceOnUse">
<stop stop-color="white"/>
<stop offset="0.0666667" stop-color="#FDFDFD"/>
<stop offset="0.133333" stop-color="#F6F6F6"/>
<stop offset="0.2" stop-color="#EAEAEA"/>
<stop offset="0.266667" stop-color="#D9D9D9"/>
<stop offset="0.333333" stop-color="#C4C4C4"/>
<stop offset="0.4" stop-color="#AAAAAA"/>
<stop offset="0.466667" stop-color="#8E8E8E"/>
<stop offset="0.533333" stop-color="#717171"/>
<stop offset="0.6" stop-color="#555555"/>
<stop offset="0.666667" stop-color="#3B3B3B"/>
<stop offset="0.733333" stop-color="#262626"/>
<stop offset="0.8" stop-color="#151515"/>
<stop offset="0.866667" stop-color="#090909"/>
<stop offset="0.933333" stop-color="#020202"/>
<stop offset="1"/>
</linearGradient>
<clipPath id="clip0_72_40">
<rect width="40" height="40" fill="white"/>
</clipPath>
</defs>
</svg>
