<svg width="40" height="40" viewBox="0 0 40 40" fill="none" xmlns="http://www.w3.org/2000/svg">
<g clip-path="url(#clip0_61_194)">
<path d="M40 20C40 8.95431 31.0457 0 20 0C8.95431 0 0 8.95431 0 20C0 31.0457 8.95431 40 20 40C31.0457 40 40 31.0457 40 20Z" fill="url(#paint0_linear_61_194)"/>
<path d="M19.694 6.96692L12.3321 19.0372C12.2744 19.1318 12.1402 19.1424 12.0686 19.0576C11.4205 18.2908 9.00596 15.0286 11.9937 12.0554C14.72 9.34224 18.1926 7.4078 19.4796 6.73924C19.6256 6.6634 19.7794 6.82684 19.694 6.96692Z" fill="#F6F6F6"/>
<path d="M19.2868 33.2476C19.4337 33.3501 19.6148 33.1754 19.5163 33.0261C17.8719 30.534 12.4058 22.242 11.6507 20.9973C10.9059 19.7696 9.44108 17.7292 9.31888 15.9835C9.30668 15.8092 9.06484 15.7739 9.004 15.9378C8.90588 16.202 8.80144 16.5175 8.70408 16.8779C7.47508 21.427 9.25996 26.2543 13.1364 28.958L19.2868 33.2477V33.2476Z" fill="#F6F6F6"/>
<path d="M20.298 33.033L27.6599 20.9628C27.7176 20.8681 27.8518 20.8576 27.9234 20.9423C28.5715 21.7091 30.986 24.9713 27.9983 27.9446C25.272 30.6577 21.7994 32.5921 20.5124 33.2607C20.3664 33.3366 20.2126 33.1731 20.298 33.033Z" fill="#F6F6F6"/>
<path d="M20.7132 6.75068C20.5663 6.6482 20.3853 6.82296 20.4837 6.9722C22.1281 9.46436 27.5942 17.7563 28.3493 19.001C29.0941 20.2288 30.5589 22.2692 30.6811 24.0148C30.6933 24.1891 30.9352 24.2245 30.996 24.0606C31.0941 23.7963 31.1986 23.4808 31.2959 23.1204C32.5249 18.5713 30.74 13.744 26.8637 11.0404L20.7132 6.75068Z" fill="#F6F6F6"/>
<path d="M39.875 20C39.875 9.02334 30.9767 0.125 20 0.125C9.02334 0.125 0.125 9.02334 0.125 20C0.125 30.9767 9.02334 39.875 20 39.875C30.9767 39.875 39.875 30.9767 39.875 20Z" stroke="black" stroke-opacity="0.1" stroke-width="0.25"/>
</g>
<defs>
<linearGradient id="paint0_linear_61_194" x1="20.0076" y1="-0.197726" x2="20.0076" y2="40.1483" gradientUnits="userSpaceOnUse">
<stop stop-color="#513EFF"/>
<stop offset="0.18" stop-color="#5157FF"/>
<stop offset="0.57" stop-color="#5298FF"/>
<stop offset="1" stop-color="#52E5FF"/>
</linearGradient>
<clipPath id="clip0_61_194">
<rect width="40" height="40" fill="white"/>
</clipPath>
</defs>
</svg>
