<?xml version="1.0" encoding="UTF-8"?>
<svg width="1218px" height="1512px" viewBox="0 0 1218 1512" version="1.1" xmlns="http://www.w3.org/2000/svg" xmlns:xlink="http://www.w3.org/1999/xlink">
    <title>HEXDC</title>
    <defs>
        <linearGradient x1="18.2161754%" y1="27.4555947%" x2="81.7838246%" y2="72.9939097%" id="linearGradient-1">
            <stop stop-color="#F6B80D" offset="0%"></stop>
            <stop stop-color="#A9195F" offset="100%"></stop>
        </linearGradient>
        <linearGradient x1="18.731585%" y1="27.5100671%" x2="80.609699%" y2="72.5964674%" id="linearGradient-2">
            <stop stop-color="#57585C" offset="0%"></stop>
            <stop stop-color="#23232B" offset="48.1506774%"></stop>
            <stop stop-color="#212129" offset="90.5579092%"></stop>
            <stop stop-color="#3E253A" offset="100%"></stop>
        </linearGradient>
        <path d="M637.078637,190.941484 L1046.68435,476.639405 C1062.77209,487.860526 1072.35939,506.236654 1072.35939,525.851166 L1072.35939,1000.44541 C1072.35939,1020.26951 1062.5674,1038.81403 1046.19651,1049.99387 L634.086105,1331.42797 C613.583068,1345.42969 586.574071,1345.35722 566.146468,1331.24568 L159.045446,1050.01716 C142.82848,1038.81436 133.147969,1020.36122 133.147969,1000.651 L133.147969,525.851166 C133.147969,506.236654 142.735269,487.860526 158.823014,476.639405 L568.428726,190.941484 C589.051553,176.557165 616.455809,176.557165 637.078637,190.941484 Z" id="path-3"></path>
        <filter x="-21.6%" y="-15.1%" width="145.3%" height="133.6%" filterUnits="objectBoundingBox" id="filter-4">
            <feMorphology radius="7.5" operator="dilate" in="SourceAlpha" result="shadowSpreadOuter1"></feMorphology>
            <feOffset dx="10" dy="20" in="shadowSpreadOuter1" result="shadowOffsetOuter1"></feOffset>
            <feGaussianBlur stdDeviation="60" in="shadowOffsetOuter1" result="shadowBlurOuter1"></feGaussianBlur>
            <feColorMatrix values="0 0 0 0 0   0 0 0 0 0   0 0 0 0 0  0 0 0 1 0" type="matrix" in="shadowBlurOuter1"></feColorMatrix>
        </filter>
        <linearGradient x1="4.03278618e-16%" y1="31.5958277%" x2="100%" y2="31.5958277%" id="linearGradient-5">
            <stop stop-color="#6B6C71" offset="0%"></stop>
            <stop stop-color="#484850" offset="49.8377933%"></stop>
            <stop stop-color="#4E4751" offset="100%"></stop>
        </linearGradient>
        <linearGradient x1="-42996.7623%" y1="47.497307%" x2="43135.7367%" y2="47.497307%" id="linearGradient-6">
            <stop stop-color="#6B6C71" offset="0%"></stop>
            <stop stop-color="#484850" offset="49.8377933%"></stop>
            <stop stop-color="#4E4751" offset="100%"></stop>
        </linearGradient>
        <linearGradient x1="-7.00018087%" y1="47.1918117%" x2="107.391955%" y2="47.1918117%" id="linearGradient-7">
            <stop stop-color="#6B6C71" offset="0%"></stop>
            <stop stop-color="#484850" offset="49.8377933%"></stop>
            <stop stop-color="#4E4751" offset="100%"></stop>
        </linearGradient>
        <linearGradient x1="4.03278618e-16%" y1="31.5958277%" x2="100%" y2="31.5958277%" id="linearGradient-8">
            <stop stop-color="#6B6C71" offset="0%"></stop>
            <stop stop-color="#484850" offset="49.8377933%"></stop>
            <stop stop-color="#4E4751" offset="100%"></stop>
        </linearGradient>
    </defs>
    <g id="Page-1" stroke="none" stroke-width="1" fill="none" fill-rule="evenodd">
        <g id="HEXDC" transform="translate(0.246319, 0.000000)">
            <path d="M636.723501,23.3320942 L1166.46209,387.181845 C1190.90304,403.969054 1205.50736,431.717396 1205.50736,461.368201 L1205.50736,1056.24062 C1205.50736,1086.10781 1190.69047,1114.02946 1165.95682,1130.7715 L636.386655,1489.23406 C616.072777,1502.98439 589.434585,1502.98439 569.120707,1489.23406 L39.5505388,1130.7715 C14.8168937,1114.02946 1.59977078e-13,1086.10781 0,1056.24062 L0,461.368201 C3.79581356e-14,431.717396 14.6043231,403.969054 39.0452694,387.181845 L568.783861,23.3320942 C589.249201,9.2755218 616.258161,9.2755218 636.723501,23.3320942 Z" id="Polygon" fill="url(#linearGradient-1)"></path>
            <g id="Shape">
                <use fill="black" fill-opacity="1" filter="url(#filter-4)" xlink:href="#path-3"></use>
                <use fill="url(#linearGradient-2)" fill-rule="evenodd" xlink:href="#path-3"></use>
            </g>
            <g id="Lines" transform="translate(172.363510, 304.464038)" stroke-linejoin="round">
                <polyline id="Path-4" stroke="url(#linearGradient-5)" stroke-width="10" points="196.425171 315.665 1.79702738e-13 447.551121 433.971732 743.765 868.020171 448.459962 686.370482 325.007122"></polyline>
                <line x1="432.435171" y1="916.608661" x2="433.190171" y2="30.2475222" id="Path-4" stroke="url(#linearGradient-6)" stroke-width="10" stroke-linecap="round"></line>
                <polyline id="Path-4" stroke="url(#linearGradient-7)" stroke-width="20" stroke-linecap="round" points="58.4951714 694.516063 164.520171 460.106246 273.097051 694.055 432.435171 950.104777 593.025171 700.935 702.180171 467.179813 802.515527 240.077997 564.716539 171.218486 301.815817 171.130184 145.83022 215.775 63.6728594 248.135 166.475303 460.794709 301.455171 171.575 433.971732 -8.66631314e-15 563.521536 172.32 808.550171 693.098706"></polyline>
                <polyline id="Path-4" stroke="url(#linearGradient-8)" stroke-width="10" stroke-linecap="round" points="275.140171 698.433969 60.8051714 698.433969 430.371896 478.02 810.070171 698.433969 603.210171 698.433969"></polyline>
            </g>
            <path d="M596.221768,286.712939 L224.707057,542.114085 C220.654621,544.915048 218.235797,549.527258 218.235797,554.453477 L218.235797,1000.40085 C218.235797,1005.35822 220.685117,1009.99543 224.779661,1012.79011 L599.445041,1267.19586 C604.563798,1270.68961 611.304138,1270.67569 616.408419,1267.16083 L987.440924,1015.35271 C991.505837,1012.55357 993.933681,1007.93394 993.933681,1002.99849 L993.933681,560.970159 C993.933681,556.07157 991.541749,551.481598 987.526612,548.675383 L613.343439,286.757555 C608.206055,283.166991 601.377794,283.149198 596.221768,286.712939 Z M606.812813,314.838526 L961.697543,562.8424 C964.909959,565.087331 966.823725,568.759491 966.823725,572.67859 L966.823725,991.258859 C966.823725,995.231923 964.857226,998.947427 961.571896,1001.18167 L611.678467,1239.13248 C609.982058,1240.28615 607.753065,1240.2865 606.056293,1239.13336 L251.007818,997.840336 C247.720677,995.606377 245.752863,991.889801 245.752863,987.9154 L245.752863,562.905957 C245.752863,560.929497 246.726229,559.079817 248.355273,557.960617 L602.25648,314.820363 C603.630629,313.876283 605.446235,313.883521 606.812813,314.838526 Z" id="Shape" fill="#FFFFFF" fill-rule="nonzero"></path>
            <path d="M346.160933,546.033612 L346.922477,966.584346 C346.926462,968.78503 348.707387,970.569148 350.908061,970.577076 L433.490417,970.874576 C435.699542,970.882535 437.496843,969.098137 437.504801,966.889012 C437.504818,966.884209 437.504827,966.879406 437.504827,966.874602 L437.504827,806.459038 C437.504827,804.249899 439.295688,802.459038 441.504827,802.459038 L763.633722,802.459038 C765.842861,802.459038 767.633722,804.249899 767.633722,806.459038 L767.633722,966.562744 C767.633722,968.771883 769.424583,970.562744 771.633722,970.562744 L854.734177,970.562744 C856.943316,970.562744 858.734177,968.771883 858.734177,966.562744 L858.734177,545.920288 C858.732797,543.711688 856.942777,541.92105 854.734178,541.918908 L771.633722,541.890237 C769.424583,541.888095 767.633104,543.678338 767.632342,545.887477 C767.632342,545.887937 767.632342,545.888397 767.633722,545.888857 L767.633722,705.715497 C767.633722,707.922112 765.846798,709.711926 763.640186,709.715492 L442.511291,710.234475 C440.302155,710.238045 438.508402,708.450081 438.504832,706.240945 C438.504829,706.23879 438.504827,706.236635 438.504827,706.23448 L438.504827,545.967502 C438.507491,543.758363 436.71663,541.967502 434.507491,541.967502 C434.506603,541.967502 434.505714,541.967502 434.504828,541.970167 L350.158261,542.02637 C347.949122,542.027842 346.159455,543.819896 346.160927,546.029034 C346.160928,546.03056 346.16093,546.032086 346.160933,546.033612 Z" id="Path-3" fill="#FFFFFF"></path>
        </g>
    </g>
</svg>