<?xml version="1.0" encoding="UTF-8"?>
<svg width="2500px" height="2500px" viewBox="0 0 2500 2500" version="1.1" xmlns="http://www.w3.org/2000/svg" xmlns:xlink="http://www.w3.org/1999/xlink">
    <title>pTUSD</title>
    <defs>
        <linearGradient x1="73.520722%" y1="5.7505426%" x2="26.0855017%" y2="94.1661125%" id="linearGradient-1">
            <stop stop-color="#00EAFF" offset="0%"></stop>
            <stop stop-color="#0080FF" offset="25.2530882%"></stop>
            <stop stop-color="#8000FF" offset="49.7394282%"></stop>
            <stop stop-color="#E619E6" offset="74.9912298%"></stop>
            <stop stop-color="#FF0000" offset="99.9136118%"></stop>
        </linearGradient>
    </defs>
    <g id="Page-1" stroke="none" stroke-width="1" fill="none" fill-rule="evenodd">
        <g id="pTUSD" fill-rule="nonzero">
            <circle id="Oval" fill="url(#linearGradient-1)" cx="1250" cy="1250" r="1250"></circle>
            <path d="M615.1,646 L615.1,1071.9 C850.3,1071.9 1041,881.2 1041,646.1 L615.1,646 L615.1,646 Z M1041,1925.2 L1041,1067.8 L1041,1067.8 C1041,1064.2 1041,1060.6 1041.1,1057 L1041.1,1057 C1041.2,1053.4 1041.3,1049.8 1041.5,1046.2 C1041.7,1042.6 1041.9,1039 1042.2,1035.5 C1042.5,1031.9 1042.8,1028.4 1043.2,1024.9 C1043.6,1021.4 1044,1017.8 1044.4,1014.3 L1044.4,1014.3 C1044.8,1010.8 1045.3,1007.3 1045.9,1003.8 C1046.4,1000.3 1047,996.8 1047.6,993.4 L1047.6,993.4 C1048.2,989.9 1048.9,986.5 1049.6,983.1 L1049.6,983.1 C1050.3,979.7 1051,976.3 1051.8,972.9 L1051.8,972.9 C1052.6,969.5 1053.4,966.1 1054.3,962.8 C1055.2,959.5 1056.1,956.1 1057,952.8 C1057.9,949.5 1058.9,946.2 1060,942.9 L1060,942.9 C1061,939.6 1062.1,936.3 1063.2,933.1 L1063.2,933.1 C1064.3,929.8 1065.4,926.6 1066.6,923.4 C1067.8,920.2 1069,917 1070.3,913.8 L1070.3,913.8 C1071.6,910.6 1072.9,907.5 1074.2,904.3 L1074.2,904.3 C1075.5,901.1 1076.9,898 1078.3,894.9 L1078.3,894.9 C1079.7,891.8 1081.2,888.7 1082.6,885.6 C1084.1,882.5 1085.6,879.5 1087.2,876.4 C1088.8,873.4 1090.4,870.4 1092,867.4 C1093.6,864.4 1095.3,861.4 1097,858.5 C1098.7,855.6 1100.4,852.6 1102.2,849.7 C1104,846.8 1105.8,843.9 1107.6,841.1 C1109.4,838.3 1111.3,835.4 1113.2,832.6 L1113.2,832.6 C1115.1,829.8 1117,827 1119,824.3 C1121,821.5 1123,818.8 1125,816.1 C1127,813.4 1129.1,810.7 1131.2,808.1 L1131.2,808.1 C1133.3,805.4 1135.4,802.8 1137.6,800.2 C1139.8,797.6 1141.9,795 1144.2,792.5 C1146.4,790 1148.7,787.4 1150.9,784.9 L1150.9,784.9 C1153.2,782.4 1155.5,779.9 1157.8,777.5 C1160.1,775.1 1162.5,772.6 1164.9,770.3 C1167.3,767.9 1169.7,765.5 1172.1,763.2 L1172.1,763.2 C1174.5,760.9 1177,758.6 1179.5,756.3 C1182,754 1184.5,751.8 1187.1,749.6 C1189.7,747.4 1192.2,745.2 1194.8,743.1 L1194.8,743.1 C1197.4,740.9 1200,738.8 1202.7,736.7 C1205.4,734.6 1208,732.5 1210.8,730.5 C1213.5,728.5 1216.2,726.5 1219,724.5 C1221.8,722.5 1224.5,720.6 1227.3,718.7 C1230.1,716.8 1232.9,714.9 1235.8,713.1 C1238.6,711.3 1241.5,709.5 1244.4,707.7 C1247.3,705.9 1250.2,704.2 1253.2,702.5 C1256.1,700.8 1259.1,699.1 1262.1,697.5 C1265.1,695.9 1268.1,694.3 1271.1,692.7 C1274.1,691.1 1277.2,689.6 1280.3,688.1 C1283.4,686.6 1286.5,685.2 1289.6,683.8 L1289.6,683.8 C1292.7,682.4 1295.8,681 1299,679.7 C1302.2,678.4 1305.3,677.1 1308.5,675.8 C1311.7,674.5 1314.9,673.3 1318.1,672.1 C1321.3,670.9 1324.6,669.8 1327.8,668.7 C1331,667.6 1334.3,666.5 1337.6,665.5 C1340.9,664.5 1344.2,663.5 1347.5,662.5 C1350.8,661.5 1354.2,660.6 1357.5,659.8 C1360.9,658.9 1364.2,658.1 1367.6,657.3 C1371,656.5 1374.4,655.8 1377.8,655.1 C1381.2,654.4 1384.7,653.7 1388.1,653.1 C1391.5,652.5 1395,651.9 1398.5,651.4 C1402,650.9 1405.5,650.4 1409,649.9 C1412.5,649.4 1416,649 1419.6,648.7 C1423.1,648.3 1426.7,648 1430.2,647.7 C1433.8,647.4 1437.3,647.2 1440.9,647 C1444.5,646.8 1448.1,646.7 1451.7,646.6 C1455.3,646.5 1458.9,646.5 1462.5,646.5 L1884.6,646.5 L1884.6,1068.3 L1462.5,1068.3 L1462.5,1925.7 L1041,1925.2 L1041,1925.2 Z" id="T" fill="#FFFFFF"></path>
        </g>
    </g>
</svg>