<svg width="100" height="100" viewBox="0 0 100 100" fill="none" xmlns="http://www.w3.org/2000/svg">
<circle cx="50" cy="50" r="50" fill="black"/>
<path fill-rule="evenodd" clip-rule="evenodd" d="M50 100C77.6142 100 100 77.6142 100 50C100 22.3858 77.6142 0 50 0C22.3858 0 0 22.3858 0 50C0 77.6142 22.3858 100 50 100ZM50 92C73.196 92 92 73.196 92 50C92 26.804 73.196 8 50 8C26.804 8 8 26.804 8 50C8 73.196 26.804 92 50 92Z" fill="url(#paint0_linear_3327_1044)"/>
<path d="M32.8777 76.3507L28.5949 68.9299C28.4619 68.6549 28.4619 68.334 28.5949 68.059L33.3534 59.8147C33.5225 59.5556 33.8044 59.3924 34.113 59.3747H43.6254C43.9345 59.3927 44.217 59.5558 44.3873 59.8147L49.1435 68.059C49.2812 68.3361 49.2812 68.6618 49.1435 68.9389L44.3738 77.1787C44.2034 77.4306 43.9282 77.5915 43.6254 77.6165H35.08C34.1896 77.559 33.3762 77.0915 32.8777 76.3507ZM63.7592 59.3815L54.2919 42.956C54.058 42.6047 53.6737 42.3828 53.2528 42.3559H34.2956C33.8747 42.3828 33.4904 42.6047 33.2564 42.956L23.7779 59.3905C23.591 59.7687 23.591 60.2126 23.7779 60.5908L26.5662 65.4102L31.4261 56.9899C31.6923 56.5835 32.134 56.326 32.6185 56.2949H45.1064C45.5945 56.3222 46.0405 56.5802 46.3078 56.9899L52.554 67.8198C52.7749 68.2567 52.7749 68.7728 52.554 69.2097L47.6941 77.63H53.246C53.6681 77.605 54.0535 77.3816 54.2852 77.0276L63.7592 60.5953C63.9506 60.2134 63.9506 59.7634 63.7592 59.3815ZM80.9582 48.5131L66.4304 23.2973C65.9283 22.5302 65.0912 22.0484 64.1763 22H35.0981C34.1831 22.0484 33.346 22.5302 32.8439 23.2973L18.3094 48.5131C17.8969 49.3272 17.8969 50.2893 18.3094 51.1033L21.6432 56.8816L31.2999 40.1244C31.631 39.6188 32.1823 39.3006 32.7853 39.267H54.7427C55.3452 39.3006 55.8958 39.6189 56.226 40.1244L67.2013 59.1513C67.474 59.6903 67.474 60.3271 67.2013 60.8661L57.5356 77.6165H64.1853C65.1002 77.5681 65.9373 77.0862 66.4394 76.3191L80.974 51.1056C81.3843 50.291 81.3843 49.33 80.974 48.5154L80.9582 48.5131Z" fill="url(#paint1_linear_3327_1044)"/>
<defs>
<linearGradient id="paint0_linear_3327_1044" x1="74.9957" y1="11.8045" x2="25.0657" y2="88.3066" gradientUnits="userSpaceOnUse">
<stop stop-color="#FE01FA"/>
<stop offset="0.316319" stop-color="#FF0F6F"/>
<stop offset="0.519531" stop-color="#FF3D3D"/>
<stop offset="0.708633" stop-color="#FF851F"/>
<stop offset="1" stop-color="#FFDB01"/>
</linearGradient>
<linearGradient id="paint1_linear_3327_1044" x1="65.4585" y1="28.5668" x2="39.2631" y2="74.2238" gradientUnits="userSpaceOnUse">
<stop stop-color="#FE01FA"/>
<stop offset="0.316319" stop-color="#FF0F6F"/>
<stop offset="0.519531" stop-color="#FF3D3D"/>
<stop offset="0.708633" stop-color="#FF851F"/>
<stop offset="1" stop-color="#FFDB01"/>
</linearGradient>
</defs>
</svg>
