<svg width="40" height="40" viewBox="0 0 40 40" fill="none" xmlns="http://www.w3.org/2000/svg">
<g clip-path="url(#clip0_64_1404)">
<path fill-rule="evenodd" clip-rule="evenodd" d="M40 0H0V40H40V0ZM20 37C29.3888 37 37 29.3888 37 20C37 10.6112 29.3888 3 20 3C10.6112 3 3 10.6112 3 20C3 29.3888 10.6112 37 20 37Z" fill="url(#paint0_linear_64_1404)"/>
<path d="M13.1511 30.5403L11.438 27.572C11.3848 27.462 11.3848 27.3336 11.438 27.2236L13.3414 23.9259C13.409 23.8222 13.5218 23.757 13.6452 23.7499H17.4502C17.5738 23.7571 17.6868 23.8223 17.7549 23.9259L19.6574 27.2236C19.7125 27.3344 19.7125 27.4647 19.6574 27.5756L17.7495 30.8715C17.6814 30.9722 17.5713 31.0366 17.4502 31.0466H14.032C13.6758 31.0236 13.3505 30.8366 13.1511 30.5403ZM25.5037 23.7526L21.7168 17.1824C21.6232 17.0419 21.4695 16.9531 21.3011 16.9424H13.7182C13.5499 16.9531 13.3962 17.0419 13.3026 17.1824L9.51116 23.7562C9.4364 23.9075 9.4364 24.085 9.51116 24.2363L10.6265 26.1641L12.5704 22.796C12.6769 22.6334 12.8536 22.5304 13.0474 22.518H18.0426C18.2378 22.5289 18.4162 22.6321 18.5231 22.796L21.0216 27.1279C21.11 27.3027 21.11 27.5091 21.0216 27.6839L19.0776 31.052H21.2984C21.4672 31.042 21.6214 30.9526 21.7141 30.811L25.5037 24.2381C25.5802 24.0854 25.5802 23.9054 25.5037 23.7526ZM32.3833 19.4052L26.5722 9.31892C26.3713 9.01208 26.0365 8.81936 25.6705 8.8H14.0392C13.6732 8.81936 13.3384 9.01208 13.1376 9.31892L7.32376 19.4052C7.15876 19.7309 7.15876 20.1157 7.32376 20.4413L8.65728 22.7526L12.52 16.0498C12.6524 15.8475 12.8729 15.7202 13.1141 15.7068H21.8971C22.1381 15.7202 22.3583 15.8476 22.4904 16.0498L26.8805 23.6605C26.9896 23.8761 26.9896 24.1308 26.8805 24.3464L23.0142 31.0466H25.6741C26.0401 31.0272 26.3749 30.8345 26.5758 30.5276L32.3896 20.4422C32.5537 20.1164 32.5537 19.732 32.3896 19.4062L32.3833 19.4052Z" fill="url(#paint1_linear_64_1404)"/>
<g style="mix-blend-mode:soft-light" opacity="0.25">
<path fill-rule="evenodd" clip-rule="evenodd" d="M40 0H0V40H40V0ZM20 37C29.3888 37 37 29.3888 37 20C37 10.6112 29.3888 3 20 3C10.6112 3 3 10.6112 3 20C3 29.3888 10.6112 37 20 37Z" fill="url(#paint2_linear_64_1404)"/>
</g>
</g>
<defs>
<linearGradient id="paint0_linear_64_1404" x1="29.9983" y1="4.7218" x2="10.0263" y2="35.3226" gradientUnits="userSpaceOnUse">
<stop stop-color="#FE01FA"/>
<stop offset="0.316319" stop-color="#FF0F6F"/>
<stop offset="0.519531" stop-color="#FF3D3D"/>
<stop offset="0.708633" stop-color="#FF851F"/>
<stop offset="1" stop-color="#FFDB01"/>
</linearGradient>
<linearGradient id="paint1_linear_64_1404" x1="26.1834" y1="11.4267" x2="15.7052" y2="29.6895" gradientUnits="userSpaceOnUse">
<stop stop-color="#FE01FA"/>
<stop offset="0.316319" stop-color="#FF0F6F"/>
<stop offset="0.519531" stop-color="#FF3D3D"/>
<stop offset="0.708633" stop-color="#FF851F"/>
<stop offset="1" stop-color="#FFDB01"/>
</linearGradient>
<linearGradient id="paint2_linear_64_1404" x1="20" y1="0" x2="20" y2="40" gradientUnits="userSpaceOnUse">
<stop stop-color="white"/>
<stop offset="0.0666667" stop-color="#FDFDFD"/>
<stop offset="0.133333" stop-color="#F6F6F6"/>
<stop offset="0.2" stop-color="#EAEAEA"/>
<stop offset="0.266667" stop-color="#D9D9D9"/>
<stop offset="0.333333" stop-color="#C4C4C4"/>
<stop offset="0.4" stop-color="#AAAAAA"/>
<stop offset="0.466667" stop-color="#8E8E8E"/>
<stop offset="0.533333" stop-color="#717171"/>
<stop offset="0.6" stop-color="#555555"/>
<stop offset="0.666667" stop-color="#3B3B3B"/>
<stop offset="0.733333" stop-color="#262626"/>
<stop offset="0.8" stop-color="#151515"/>
<stop offset="0.866667" stop-color="#090909"/>
<stop offset="0.933333" stop-color="#020202"/>
<stop offset="1"/>
</linearGradient>
<clipPath id="clip0_64_1404">
<rect width="40" height="40" fill="white"/>
</clipPath>
</defs>
</svg>
