<svg xmlns="http://www.w3.org/2000/svg" width="51" height="48" xmlns:v="https://vecta.io/nano"><path d="M16.55 38.915l.783-.502 1.158-.847c.088-.131.114-.228.141-.325 0 0 .001.006.034.02.117-.044.211-.093.283-.164l5.23-5.239 1.155-1.134 2.373 2.383c.934.932 1.785 1.977 2.832 2.76 1.364 1.02 2.567 2.164 3.643 3.469l1.418 1.567 3.866 5.356c-.748.365-1.87.203-2.361-.3l-3.367-3.473-3.426-3.619-3.707-3.727-.903-1.005c-.242-.284-.439-.248-.685.009l-3.221 3.338-3.614 3.811-4.697 4.786c-.194.193-.529.323-.808.34l-4.206.18-4.266.15-2.284.092c-.206.002-.414-.117-.64-.232.376-.27.771-.488 1.205-.698l5.81-2.619c.274-.128.489-.421.683-.675l3.222-4.201c.018.152.055.319-.011.421l-1.214 1.827c-.403.736-.828 1.408-1.588 1.838-.273.154-.087.388.145.423.245.037.505-.022.747-.004l-.488.714-1.713 2.595c-.007-.002 0-.005.044-.012l1.344-.758c.798-.524 1.654-.993 2.35-1.633l3.593-3.632 1.139-1.277z" fill="#0d243a"/><path d="M12.371 10.1l-1.139.336-3.253-.006-2.155.049-.525-.189-4.097-1.753-.761-.47c.138-.028.226-.062.314-.062l11.578.015c.257.001.582.13.758.313l12.305 12.886 1.174-1.231L37.779 8.351c.17-.176.464-.328.701-.329l11.578-.028c.067 0 .133.011.362.032l-.817.453-4.701 1.956-6.022-.059a24.86 24.86 0 0 0-.537-.554l-.562.685-5.955 6.034-.293.35-5.44 5.606a33.05 33.05 0 0 0-.7.74l-.625-.686-8.256-8.677-3.427-3.494c-.175-.175-.34-.541-.714-.282z" fill="#f5f8f7"/><path d="M44.951 10.446l4.628-1.94c-.286.459-.556.976-.943 1.38l-3.842 3.866-6.006 6.107-5.358 5.454c-.381.385-.81.721-1.218 1.08l-.126-.081 2.059-6.587c.168-.085.268-.152.355-.234l4.362-4.107 4.589-3.6c.524-.415 1.002-.89 1.501-1.338z" fill="#0d253b"/><path d="M1.201 8.578l4.098 1.711.528.213c.059.08.077.123.094.167-.086.348.102.477.379.671l2.532 1.956 1.722 1.2c.055.038.134.096.183.082.635-.187.819.389 1.191.746l3.157 3.246c.19.191.418.344.628.515 0 0-.006 0-.006.034.054.082.108.13.161.177l.294 1.214.812 4.416c-.144-.105-.3-.19-.419-.311l-6.035-6.178-5.827-5.934-3.336-3.424c-.102-.106-.108-.304-.158-.5z" fill="#0d243a"/><path d="M37.402 38.982c-.256-.182-.582-.314-.754-.555-.478-.672-.888-1.392-1.332-2.088l-.388-.558-.96-1.6-2.403-3.966-.614-.932a.55.55 0 0 0-.046-.106 1.21 1.21 0 0 1 .04.176l.468.946 1.14 2.764c-.171.017-.228-.019-.279-.063l-2.756-2.363-2.338-2.51c-.374-.416-.376-.828-.004-1.207l3.64-3.638c.068-.068.166-.105.338-.209l.1 1.332.162 3.101c-.144.089-.255.131-.404.188l.25.298 4.868 5.18 1.709 1.985c-.304 1.277-.431 2.518-.245 3.779a1.49 1.49 0 0 0-.192.046z" fill="#6a889b"/><path d="M8.094 46.226l1.699-2.593.509-.744.665-.895 2.582-3.777a1.9 1.9 0 0 0 .267-.609l.577-2.583.477-2.275c.041-.015.059-.032.057-.036-.014-.024-.033-.044-.039-.099l1.333-1.342 2.009-2-.136.901-1.123 5.982-.42 2.716-1.139 1.321-3.593 3.632c-.695.64-1.552 1.109-2.35 1.633-.42.276-.87.505-1.342.76-.035.005-.032.008-.032.008z" fill="#67889b"/><path d="M12.402 10.128c.342-.288.507.079.682.253l3.427 3.494 8.256 8.677.625.686.715-.703c-.212.76.25 1.349.449 2.021l-1.205 1.258-.695-.728c-1.431-1.429-2.932-2.805-3.613-4.8-.01-.031-.042-.054-.073-.12l-.506-1.504c-.038-.106-.101-.249-.19-.284l-1.573-.571 1.562 2.261.481 1.33-.242.306-4.747-5.252-2.408-2.734c-.214-.254-.395-.581-.463-.902l-.483-2.687z" fill="#6c8a9b"/><path d="M35.583 40.865l-1.401-1.53c-1.076-1.305-2.279-2.449-3.643-3.469-1.047-.783-1.898-1.828-2.832-2.76l-2.373-2.383-1.155 1.134-5.23 5.239c-.071.071-.166.12-.286.164l1.012-3.284c.116-.323.408-.596.659-.854l4.481-4.592c.342-.355.552-.434.934-.017l7.298 7.811c1.278 1.299 1.751 2.965 2.536 4.541z" fill="#678699"/><path d="M20.407 10.733l-.747 1.179-1.195-1.371 4.246-4.377-.021 2.204-.075.904.122.016.214-.639.537-1.326.871-2.378c.219-.483.601-.891.93-1.292l.117 2.427c-.032.669.181 1.141.65 1.602.475.466.852 1.03 1.273 1.552l-.954-.241-1.442-.57v1.174l-.16.9c-.406.365-.959.617-1.081 1.005-.382 1.214-.601 2.48-.884 3.725-.163-.141-.343-.268-.487-.426l-1.763-1.96a1.11 1.11 0 0 1-.288-1.263c.083-.241.101-.505.166-.812a.69.69 0 0 0 .015-.169l-.046.136z" fill="#6a8b9d"/><path d="M19.36 27.432c-.111-.343-.184-.704-.339-1.026l-1.445-2.888c-.134-.284-.202-.628-.194-.943.016-.689.099-1.377.161-2.137.147.11.264.171.347.263l4.864 5.434c.102.114.168.261.23.451l-2.775 4.028c-.453.631-.984 1.206-1.48 1.806-.058-.158-.156-.313-.168-.475l-.201-2.854c.329-.468.701-.868 1.043-1.292.054-.067-.026-.242-.043-.367z" fill="#68899b"/><path d="M22.712 8.334v-2.17l-4.256 4.344-1.064-1.111L25.473.9l3.793 4.296-2.16-.973-1.381-.598c-.134-.051-.303-.011-.455-.012-.309.442-.691.851-.909 1.333-.347.767-.58 1.585-.871 2.378-.16.436-.341.865-.551 1.293-.101-.096-.164-.19-.227-.283z" fill="#f5f8f7"/><path d="M43.787 43.83l-4.762-3.145c-.2-.132-.381-.293-.577-.518l-.072-1.085c.018-.059.028-.081.069-.117l.513-2.822 9.699 9.971-3.419-1.54-1.451-.745z" fill="#6c8b9c"/><path d="M44.902 10.435l-1.452 1.348-4.589 3.6-4.362 4.107c-.086.082-.187.149-.321.223.689-1.853 2.183-3.101 3.491-4.501l2.928-3.304c.1-.114.173-.251.259-.377l-.09-.145-2.157 1.15.288-2.127 6.004.028z" fill="#668698"/><path d="M43.78 43.865l1.458.71 3.447 1.559.864.536c-.097.059-.193.167-.291.168-.73.011-1.461.024-2.19-.009l-2.428-.182-2.534-.052c-.208-.009-.476-.089-.606-.235l-2.657-3.267 1.116.17 3.652.72c.047.009.108-.054.169-.118z" fill="#0d243a"/><path d="M49.588 46.683l-.862-.55-9.768-9.99-.513 2.785-.308-3.358c-.016-.161-.192-.307-.294-.459l-1.713-1.939-4.868-5.18c-.07-.075-.132-.157-.25-.298l.408-.144 9.316 9.504 7.918 8.139 1.13 1.225c.09.101.138.239.112.442a5.5 5.5 0 0 0-.308-.176z" fill="#e7eeef"/><path d="M45.981 23.479h1.564c.523-.038.672.221.681.676.009.517-.334.524-.705.525l-5.685.021H39.72l-.089.18 2.473 2.529c-.592.372-.779.342-1.246-.063l-2.624-2.223-.638-.596 1.084-.873c.17-.115.414-.167.625-.168l6.676-.009z" fill="#3887bf"/><path d="M12.377 25.25l-2.706 2.258c-.244.184-.686.105-1.036.146l-.068-.191 2.592-2.609-.06-.158c-.321 0-.641 0-.962 0l-6.882.009c-.412.001-.708-.061-.711-.585-.003-.465.16-.649.635-.647l8.342.009c.211.001.455.146.623.293.286.248.524.551.887.945l-.654.529z" fill="#3688c1"/><path d="M19.33 27.449c.048.108.128.283.074.349l-1.081 1.269c-.023.074-.042.112-.077.178l-2.025 2.028-1.355 1.367c-.023.077-.014.097-.004.116 0 0 .009-.001-.029-.012l-2.002 2.195-.721.706-9.248 9.683c-.161.169-.277.381-.414.573l-1.207.687c-.04.046-.059.052-.123.06-.148.006-.254.002-.36-.002l5.466-5.721 8.912-9.294 4.195-4.182z" fill="#e3ecec"/><path d="M38.88 10.377l-.298 2.174-4.492 4.885-3.313 3.325-.937.988a2.92 2.92 0 0 1 .08-.616c1.37-1.123 1.393-2.731 1.649-4.249.078-.107.155-.214.302-.33.966.255 1.746-.06 2.374-.636l3.06-3.05c.092-.094.164-.236.187-.366l.326-1.997.527-.682.537.554z" fill="#112b41"/><path d="M6.824 26.89c-.339.14-.677.233-1.072.342-.034-.812-.499-.691-1.063-.576.098.218.14.461.283.604l1.598 1.494c.417.401.352 1.803-.094 2.148-.102.079-.252.128-.382.131l-1.774.009c-.461-.01-.683-.336-.764-.726-.073-.349-.051-.717-.073-1.096l1.125-.065.047.334c.033.438.435.718.809.501.108-.062.154-.454.066-.588-.187-.283-.479-.497-.73-.737l-.874-.822c-.418-.413-.612-1.257-.324-1.769.129-.229.449-.444.711-.485.492-.078 1.006-.028 1.51-.025.72.005.97.25.997.965l.005.36zm40.409.249c-.519.781-.455 1.507-.01 2.264.295.501.512 1.047.807 1.662-.423 0-.75.029-1.068-.014-.132-.018-.289-.163-.358-.291l-.641-1.354c-.183.425-.364.75-.463 1.098-.135.474-.411.633-.879.556-.183-.03-.374-.005-.673-.005l.975-2.071c.259-.474.266-.881.023-1.362-.326-.646-.583-1.326-.919-2.106.518.177 1.056-.249 1.379.31.23.399.372.848.591 1.362.153-.395.319-.696.383-1.017.104-.519.398-.672.883-.607.183.024.372.004.627.004l-.656 1.572z" fill="#f0f1f2"/><path d="M23.643 44.533l7.555-.016c.75-.016 1.145.324 1.54.936H17.883c.196-.581.64-.917 1.226-.918l4.533-.003z" fill="#2f78ab"/><path d="M8.307 34.85c-.39 1.035-.898 1.993-1.8 2.684-.135.103-.282.191-.514.347.016-.212-.002-.304.031-.372l1.933-3.912c.046-.093.085-.207.162-.264.742-.548 1.015-1.38 1.355-2.178l1.06-2.321c.183-.345.484-.663.803-.895l3.025-2.079.659.826-1.773 1.151-.809.525-.891 1.246-.715.787c-1.179 1.294-2.145 2.708-2.527 4.454z" fill="#ecf0f1"/><path d="M23.956 43.301h-4c.469-.616.802-1.08 1.616-1.061l7.349-.001c.817-.021 1.296.296 1.722 1.062h-6.687z" fill="#3280b6"/><path d="M25.291 3.654c.132-.04.301-.08.435-.029.447.17.882.373 1.343.594l.584 3.167.215 1.954-.51-.091-1.299-1.567c-.469-.46-.682-.933-.65-1.602.038-.792-.058-1.59-.117-2.427z" fill="#112b41"/><path d="M45.25 22.169h-5.025c.243-.678.668-1.014 1.255-1.016l6.2-.011c.377-.002.617.114.637.504.022.424-.274.523-.619.525-.799.005-1.598-.002-2.449-.004z" fill="#4396d2"/><path d="M28.018 46.871l1.114.05c-.178.973-.178.969-.991.968l-5.739-.003c-.86 0-.86.001-1.041-1.015h6.657z" fill="#216595"/><path d="M41.285 31.776c.071.077.142.155.203.303-.069.097-.128.124-.215.128l-1.015-1.497-.395-.61-.615-1.064c-.345-.741-.873-1.105-1.72-1.115-.663-.008-1.325-.175-1.987-.271l-.548-.382 1.591-1.337 1.781 1.405c.136.107.256.26.41.315 1.018.364 1.35 1.278 1.742 2.141l.777 1.893c-.013.05-.009.09-.009.09z" fill="#ecf0f1"/><path d="M7.026 22.137l-3.852.028c-.169 0-.405.007-.491-.093-.129-.15-.227-.403-.196-.588.022-.129.279-.306.435-.311l2.916-.022 3.021.003c.985.001.985 0 1.661.984-1.2 0-2.323 0-3.496 0z" fill="#4396d2"/><path d="M5.957 10.685a.4.4 0 0 1-.091-.171l2.114-.085 3.213.015.05 2.524-5.285-2.283z" fill="#678699"/><path d="M29.903 21.164l-.098.59c-.016.074-.035.101-.125.135a1.75 1.75 0 0 0-.295.326l-1.505 1.63-2.464 2.537c-.069.071-.156.124-.204.162-1.355-1.305-2.396-2.874-3.942-3.986.008-.054.025-.073.022-.077-.015-.022-.036-.04-.055-.059 0 0 .005 0 .001-.037l-.472-1.019-.458-1.303c.245.021.458.08.671.14.022.027.053.05.064.081.68 1.995 2.181 3.371 3.613 4.8l.695.728 1.236-1.276 3.316-3.373z" fill="#183348"/><path d="M3.199 18.03l2.805-.005c.419-.014.729.09.991.42.234.294.508.556.837.91l-.525.05c-1.386.004-2.772-.008-4.158.012-.373.005-.552-.081-.508-.487.029-.27.006-.546.006-.855l.553-.045z" fill="#45a2e3"/><path d="M22.823 15.26l.87-3.757c.122-.388.675-.64 1.064-.967.074 1.962-.576 3.802-.987 5.688l-.155.041-.792-1.006z" fill="#112b41"/><path d="M8.335 34.866c.354-1.761 1.32-3.175 2.498-4.47.233-.256.454-.522.735-.748l-.438 2.276-1.629 2.144c-.3.375-.655.706-1.011 1.083a1.8 1.8 0 0 0-.155-.286zm4.139-6.516c.246-.17.493-.34.798-.484l1.289 1.029-1.962 2.829c-.117.163-.35.241-.534.292l.408-3.666zm15.237-15.949c-.598 1.687-1.166 3.344-2.327 4.779-.013-.12-.043-.209-.029-.29l.693-3.882c.029-.156.108-.352.229-.433l1.704-1.054-.27.881z" fill="#668698"/><path d="M40.271 30.742l1.008 1.501 1.162 2.59-.18.292-1.415-1.775-.291.58-.178.036-1.42-3.881a2.05 2.05 0 0 1 .467.399l.368.707.478-.447m-.296.889l.037-.123c.002-.009-.019-.023-.03-.034-.013.041-.025.081-.007.157z" fill="#6c8a9b"/><path d="M39.415 30.447l-.475-.404c-.288-.591-.855-.706-1.368-.827-.902-.214-1.413-.909-2.026-1.53.657.061 1.318.228 1.982.236.847.01 1.374.374 1.72 1.115.167.359.398.687.583 1.071-.15.141-.283.24-.415.339z" fill="#234254"/><path d="M4.668 34.487c-.962.117-1.926.388-2.774-.24-.183-.136-.235-.45-.347-.682.219-.1.434-.279.657-.287l2.659-.018c.114 0 .228.029.44.059l-.635 1.168zm43.29-1.223c.31.004.574-.021.828.02.373.06.567.575.273.785-.347.248-.77.411-1.182.539-.235.073-.515.004-.774.001-.984-.014-1.275-.259-1.521-1.343l2.376-.001z" fill="#3e88c0"/><path d="M29.514 30.676l2.76 2.325c.051.043.108.08.279.063l-1.095-2.768c.061-.044.091-.045.12-.047l2.359 3.944c-.093.024-.178.02-.24-.021-.454-.301-.888-.659-1.496-.476l-2.688-3.02z" fill="#234254"/><path d="M18.747 32.448l1.462-1.834 2.781-3.992c.596.281.677.575.285 1.016l-3.602 4.02c-.273.3-.604.547-.926.79z" fill="#183348"/><path d="M42.474 34.849l-1.168-2.584c.053-.062.112-.089.187-.144 1.175 1.398 1.988 3.027 2.776 4.672.022.047.039.096.051.208-.114-.016-.227-.09-.327-.179l-.69-.641-.83-1.331z" fill="#e3ecec"/><path d="M14.594 28.88l-1.286-1.016 1.729-1.148c.689.437.529.926.103 1.44l-.547.723z" fill="#183348"/><path d="M15.708 19.048c-.205-.133-.433-.287-.623-.478l-3.136-3.218c.131-.006.276 0 .393.059 1.562.785 2.659 2.008 3.365 3.637z" fill="#668698"/><path d="M12.44 28.363l-.395 3.626c-.179-.101-.342-.243-.538-.415l-.342.343.437-2.273a13.39 13.39 0 0 1 .837-1.282z" fill="#0d243a"/><path d="M27.35 40.749h-4.803c.236-.725.85-1.207 1.465-1.208h2.499c.699 0 1.207.371 1.503 1.138l-.663.069m-4.068-.195l4.143-.009c-.105-.507-.219-.783-.643-.796l-2.753-.093c-.15-.004-.382.02-.437.113-.142.24-.716.278-.31.785z" fill="#3b7dae"/><path d="M32.216 33.73c.594-.216 1.028.142 1.482.443.061.041.147.045.252.055l.96 1.524c-.373.297-.65.02-.871-.183l-1.823-1.839z" fill="#112b41"/><path d="M2.817 14.573c.21.041.42.048.547.154.236.197.427.45.631.683l.59.7c-.625 0-1.131.005-1.636-.005-.075-.001-.213-.073-.212-.112a12.89 12.89 0 0 1 .08-1.42zM46.264 16l1.138-1.25c.127-.122.392-.222.534-.17.12.044.212.32.218.498.036 1.035.027 1.043-.991 1.039a4.37 4.37 0 0 1-.899-.116z" fill="#4396d2"/><path d="M2.091 37.226c-.412-.03-.618-.288-.523-.586.069-.216.364-.468.59-.503.484-.076.989-.023 1.485-.023-.012.78-.319 1.104-.99 1.109l-.562.004z" fill="#3b7dae"/><path d="M45.354 19.415H42.8c.683-.774 1.15-1.553 2.29-1.409.839.106 1.703.04 2.554.009.422-.015.539.129.523.538-.04.98.076.852-.881.86l-1.931.001m-1.723-.646l-.206.383c.157.04.315.116.472.113l1.654-.072 1.953-.002c.333.006.481-.129.464-.463-.008-.167.012-.335.023-.585-.885 0-1.74.036-2.591-.011-.669-.037-1.223.152-1.769.636z" fill="#4396d2"/><path d="M48.786 36.162c.14.249.384.572.307.698-.118.193-.453.337-.703.349-.894.042-1.08-.134-1.236-1.062l1.633.015zm-1.164 3.427c.22.015.396.053.565.036.392-.039.507.127.508.508.001.405-.202.46-.522.434-.138-.011-.277-.001-.416-.001-.774.001-.908-.103-1.168-.979l1.032.002zm-43.437.395c-.317.536-1.126.807-1.626.53-.115-.063-.177-.319-.167-.481.008-.134.15-.364.247-.372.465-.04.936-.03 1.403-.007.058.003.107.19.143.33z" fill="#3b7dae"/><path d="M24.974 9.594c-.04-.364-.04-.73-.04-1.17l1.399.557-1.359.614z" fill="#183348"/><path d="M43.295 36.219c.239.175.466.392.699.602a1.21 1.21 0 0 0 .339.216c.186.299.351.626.517.953-.71-.43-1.413-.844-1.555-1.772z" fill="#668698"/><path d="M38.368 39.119l.063 1.016c-.348-.331-.685-.708-1.025-1.119.047-.049.098-.064.216-.055l.746.158z" fill="#183348"/><path d="M31.514 7.813l-1.357-1.566.164-.141 1.317 1.663c-.066.04-.095.042-.123.044z" fill="#6c8b9c"/><path d="M31.714 7.885c.442.464.9.918 1.075 1.573l-1.135-1.477c.028-.068.044-.082.06-.096z" fill="#e3ecec"/><path d="M2.486 45.908c.098-.2.214-.412.375-.581l9.248-9.683c.226-.237.457-.469.74-.662-.017.589-.075 1.137-.162 1.681-.096.599-.001 1.258-.513 1.736l-3.194 4.215c-.194.254-.409.546-.683.675l-5.81 2.619z" fill="#698a9c"/><path d="M12.201 38.414c.484-.492.39-1.151.486-1.75l.198-1.683 1.947-2.242-.439 2.286-.577 2.583a1.9 1.9 0 0 1-.267.609l-2.582 3.777-.654.861c-.274.046-.533.105-.778.068-.232-.035-.418-.269-.145-.423.76-.43 1.185-1.102 1.588-1.838.35-.639.818-1.212 1.214-1.827.065-.102.028-.269.011-.421z" fill="#0a1a2a"/><g fill="#67889b"><path d="M29.919 21.134l-3.315 3.373c-.246-.624-.708-1.213-.465-1.991l5.394-5.624c-.221 1.51-.244 3.118-1.614 4.242z"/><path d="M37.781 10.508l-.29 1.994c-.023.13-.095.272-.187.366l-3.06 3.05c-.628.576-1.409.891-2.348.616l5.886-6.026z"/></g><path d="M38.376 39.083c-.235-.009-.461-.053-.715-.122-.253-1.285-.126-2.525.178-3.803.105.107.281.252.297.414l.276 3.37c-.009.06-.019.083-.037.141zm-6.811-8.867c-.016.035-.046.036-.12.042-.196-.286-.348-.575-.497-.905.002-.041.006-.044.006-.044l.612.907z" fill="#3c5f71"/><path d="M20.971 20.166c-.203-.021-.416-.08-.675-.138l-1.594-2.222 1.573.571c.088.035.152.178.19.284l.506 1.504z" fill="#234254"/><path d="M22.691 8.368c.084.059.147.152.224.278-.05.235-.113.439-.176.642l-.122-.016.075-.904z" fill="#e3ecec"/><path d="M39.425 30.483c.123-.135.256-.234.421-.34.154.174.277.356.412.568-.133.168-.278.304-.465.479l-.368-.707z" fill="#3c5f71"/><path d="M23.244 40.537c-.369-.491.206-.529.347-.769.055-.093.287-.116.437-.113l2.753.093c.424.013.538.289.643.796-1.426.003-2.784.006-4.18-.008z" fill="#3688c1"/><path d="M43.659 18.742a2.29 2.29 0 0 1 1.742-.61c.85.047 1.706.011 2.591.011l-.023.585c.017.334-.131.469-.464.463-.651-.012-1.302-.012-1.953.002l-1.654.072c-.156.003-.314-.073-.472-.113l.233-.41z" fill="#45a2e3"/></svg>