<?xml version="1.0" encoding="UTF-8"?>
<svg width="2000px" height="2000px" viewBox="0 0 2000 2000" version="1.1" xmlns="http://www.w3.org/2000/svg" xmlns:xlink="http://www.w3.org/1999/xlink">
    <title>pCOMP</title>
    <defs>
        <linearGradient x1="73.2598288%" y1="5.58013797%" x2="26.3656058%" y2="94.2750598%" id="linearGradient-1">
            <stop stop-color="#00EAFF" offset="0%"></stop>
            <stop stop-color="#0080FF" offset="25.2530882%"></stop>
            <stop stop-color="#8000FF" offset="49.7394282%"></stop>
            <stop stop-color="#E619E6" offset="74.9912298%"></stop>
            <stop stop-color="#FF0000" offset="99.9136118%"></stop>
        </linearGradient>
    </defs>
    <g id="Page-1" stroke="none" stroke-width="1" fill="none" fill-rule="evenodd">
        <g id="pCOMP" fill-rule="nonzero">
            <path d="M1000,2000 C1552.3,2000 2000,1552.3 2000,1000 C2000,447.7 1552.3,0 1000,0 C447.7,0 0,447.7 0,1000 C0,1552.3 447.7,2000 1000,2000 Z" id="bg" fill="url(#linearGradient-1)"></path>
            <path d="M505.392257,1392.0029 C470.410338,1370.59555 449,1332.57704 449,1291.63403 L449,1063.05503 C449,1035.91566 471.112316,1013.92341 498.255478,1014.03901 C506.91321,1014.03901 515.453946,1016.37999 522.941715,1020.70825 L1038.77877,1321.46393 C1068.96383,1339.01094 1087.56742,1371.29743 1087.56742,1406.27447 L1087.56742,1643.04206 C1087.68326,1675.56251 1061.35907,1702 1028.83408,1702 C1017.95341,1702 1007.18974,1698.95852 997.947033,1693.34348 L505.392257,1392.0029 Z M1274.29249,958.123935 C1304.47756,975.670941 1322.96299,1008.07442 1323.07998,1042.93446 L1323.07998,1523.48846 C1323.07998,1537.64305 1315.47522,1550.74481 1303.0736,1557.64664 L1190.17209,1621.16679 C1188.76814,1621.98566 1187.24719,1622.57055 1185.60923,1623.03848 L1185.60923,1356.20701 C1185.60923,1321.69789 1167.47479,1289.64536 1137.75771,1271.8644 L684.747713,1000.93863 L684.747713,699.71503 C684.747713,672.575661 706.86003,650.583413 734.003191,650.699012 C742.660923,650.699012 751.20166,653.039994 758.689428,657.368256 L1274.29249,958.123935 Z M1500.09551,603.206498 C1530.39758,620.753504 1549,653.156975 1549,688.134006 L1549,1390.01424 C1548.88301,1404.40278 1540.92725,1417.62153 1528.29164,1424.52335 L1421.23995,1482.31149 L1421.23995,993.685867 C1421.23995,959.176756 1403.10551,927.241205 1373.62242,909.460239 L910.550734,631.749628 L910.550734,346.084374 C910.550734,337.427851 912.890661,328.888308 917.102532,321.401586 C930.791108,298.005578 960.859179,290.050935 984.258455,303.620619 L1500.09551,603.206498 Z" id="logo" fill="#FFFFFF"></path>
        </g>
    </g>
</svg>