<?xml version="1.0" encoding="UTF-8"?>
<svg width="757px" height="659px" viewBox="0 0 757 659" version="1.1" xmlns="http://www.w3.org/2000/svg" xmlns:xlink="http://www.w3.org/1999/xlink">
    <g stroke="none" stroke-width="1" fill="none" fill-rule="evenodd">
        <g transform="translate(-123, -171)">
            <g transform="translate(123.094011, 171)">
                <path d="M403.775965,273.903527 L712.865619,452.356521 C719.05364,455.929177 722.865619,462.531718 722.865619,469.677029 L722.865619,491.561927 L722.865619,491.561927 L722.865619,672.130024 C722.865619,683.175719 713.911314,692.130024 702.865619,692.130024 L386.94636,692.130024 C375.900665,692.130024 366.94636,683.175719 366.94636,672.130024 L366.94636,283.620104 L366.94636,283.620104 L383.775965,273.903527 C389.963987,270.330871 397.587944,270.330871 403.775965,273.903527 Z" fill="#9E333A" transform="translate(544.905989, 480.130024) rotate(90) translate(-544.905989, -480.130024) "></path>
                <path d="M376.905989,0 L376.905989,658 L196.566517,658.000714 C190.160437,657.394846 184.388306,653.728898 181.132487,648.089653 L2.67949192,339 C-0.893163975,332.811978 -0.893163975,325.188022 2.67949192,319 L181.132487,9.91034656 C184.386445,4.27432468 190.15384,0.609345421 196.555534,0.000328171132 L376.905989,0 Z" fill="#132960"></path>
                <path d="M753.810989,0 L753.905,329 L376.905,329.000499 C376.904914,325.547338 377.798078,322.09416 379.584492,319 L558.037487,9.91034656 C561.291445,4.27432468 567.05884,0.609345421 573.460534,0.000328171132 L753.810989,0 Z" fill="#fff" transform="translate(565.405000, 164.500250) scale(-1, 1) translate(-565.405000, -164.500250) "></path>
                <polygon fill="#fff" points="207.905989 381.796794 134.432833 435.127124 162.448537 348.770022 89.0239247 295.372876 179.811738 295.331581 207.905989 209 236.00024 295.331581 326.788054 295.372876 253.363442 348.770022 281.379146 435.127124"></polygon>
            </g>
        </g>
    </g>
</svg>