<?xml version="1.0" encoding="UTF-8"?>
<svg width="1024px" height="1024px" viewBox="0 0 1024 1024" version="1.1" xmlns="http://www.w3.org/2000/svg" xmlns:xlink="http://www.w3.org/1999/xlink">
    <title>SHIB from Ethereum</title>
    <g id="SHIB-from-Ethereum" stroke="none" stroke-width="1" fill="none" fill-rule="evenodd">
        <circle id="Oval" fill="#627EEA" fill-rule="nonzero" cx="512" cy="512" r="512"></circle>
        <g id="SHIB" transform="translate(87.000000, 72.000000)">
            <g id="Group_931" transform="translate(0.000000, 28.100738)" fill-rule="nonzero">
                <path d="M622.249893,47.5176327 C600.127464,69.6192051 579.859609,93.5736038 561.843738,119.11614 L556.147544,117.263313 C523.295074,106.543389 489.250377,99.9261516 454.940741,97.6762909 C444.608109,96.8822224 406.059445,96.8822224 393.474829,97.6762909 C355.456043,100.190841 326.312723,105.881665 293.195314,117.395658 C291.870617,117.925037 290.678391,118.322071 289.486164,118.719105 C270.807945,93.3089143 250.010212,69.4868603 227.092965,47.6499775 C337.042764,-8.59653895 465.670782,-15.3461209 580.786897,28.9893685 C593.106573,33.6214346 605.16131,39.0475691 616.951108,44.8707378 L622.249893,47.5176327 Z" id="Path_8573" fill="#F00500"></path>
                <path d="M827.312892,549.501249 C810.621718,597.013012 785.584956,641.083812 753.129895,679.463788 C735.511433,700.109568 716.038397,719.034866 695.108194,736.239683 C646.094428,775.678417 588.867545,803.867847 527.799042,818.690459 C460.239527,834.968862 389.765679,834.968862 322.206164,818.690459 C261.005192,803.867847 203.910778,775.678417 154.897012,736.239683 C133.966809,719.034866 114.493773,700.109568 96.8753114,679.463788 C3.48421701,569.220616 -24.8642855,417.818228 22.6923144,281.370796 C31.7002498,256.09295 42.9601689,231.741517 56.472072,208.581187 C62.6981449,197.993607 70.3813839,186.08258 74.0905338,181.185825 C86.807619,235.844204 102.439036,283.885346 108.2677,301.222508 C107.870291,302.148921 107.340413,303.207679 106.810534,304.134092 C75.9451087,366.600812 59.2539344,426.81767 55.2798452,490.872527 C55.2798452,491.666595 55.1473756,492.593008 55.1473756,493.387077 C54.0876185,512.577065 54.617497,521.708852 57.7967683,533.752224 C67.7319912,571.470476 98.3324774,613.026726 146.286486,653.788907 C224.840981,720.490658 331.346569,768.664145 412.020578,774.222625 C496.138798,779.913449 620.262849,730.813549 702.923902,659.082697 C715.905927,647.568704 728.093134,635.392988 739.485522,622.423203 C747.69864,612.894381 759.885847,596.483633 758.958559,596.483633 C758.69362,596.483633 758.958559,596.218943 759.488438,595.954254 C759.885847,595.689564 760.283255,595.29253 760.018316,595.027841 C759.885847,594.895496 760.150786,594.498462 760.548195,594.366117 C760.945604,594.233772 761.210543,593.969083 761.078073,593.704393 C760.945604,593.439704 761.078073,593.175014 761.607952,593.04267 C762.005361,592.910325 762.13783,592.513291 762.005361,592.248601 C761.872891,591.983912 762.005361,591.719222 762.2703,591.719222 C762.535239,591.719222 762.800179,591.322188 762.800179,591.057498 C762.800179,590.792809 763.065118,590.395775 763.330057,590.395775 C763.594996,590.395775 763.859936,590.131085 763.859936,589.866396 C764.257345,588.807638 764.919693,587.74888 765.582041,586.822467 C767.569085,583.778537 775.517264,569.61765 776.577021,567.235444 C784.12779,550.162972 788.896697,534.943327 791.148681,519.723681 C792.208438,512.44472 792.870786,499.077901 792.340908,495.901627 C792.208438,495.372248 792.208438,494.445835 792.075968,492.990043 C791.811029,490.343148 791.67856,486.372805 791.41362,482.402463 C791.148681,476.44695 790.618802,468.109231 790.221394,464.006544 C784.525199,403.92203 769.158721,354.822129 740.015401,302.810645 C738.823174,300.825474 737.763417,298.840303 737.101069,297.252166 C736.83613,296.855131 736.70366,296.458097 736.57119,296.193408 L736.57119,296.193408 C740.677749,283.885346 757.501393,232.403241 770.880826,173.509829 L771.145766,173.774519 L773.13281,176.421414 C776.577021,181.05348 785.717426,194.817333 789.823985,201.434571 C808.502203,231.873862 823.073864,264.563014 833.406495,298.707958 C857.3835,380.894044 855.396455,468.506265 827.312892,549.501249 Z" id="Path_8574" fill="#F00500"></path>
                <path d="M655.367303,391.349279 C654.969894,393.466795 648.743821,399.819343 642.517748,404.451409 C624.236938,417.818228 591.516937,430.258634 558.267058,436.214147 C539.3239,439.655111 520.380742,440.18449 514.684548,437.40525 C510.975398,435.552424 510.445519,434.096631 511.770216,429.332221 C514.552078,419.406365 523.560013,408.554096 537.601795,398.36355 C544.755155,393.202105 573.766006,375.600254 587.277909,368.188949 C609.532808,356.013232 627.548679,348.734271 639.735885,347.01379 C643.577505,346.484411 648.213942,346.352066 649.671108,347.01379 C652.055562,347.940203 654.704954,354.954474 655.764711,363.424538 C656.29459,367.924259 656.029651,387.775971 655.367303,391.349279 Z" id="Path_8575" fill="#000000"></path>
                <path d="M343.268837,435.155389 C342.474019,436.743526 338.49993,438.464008 333.995962,439.125732 C329.491994,439.787455 315.715152,439.390421 307.899443,438.464008 C279.81588,434.758355 250.010212,426.155947 228.285191,415.568367 C216.097985,409.612854 207.354989,403.65734 200.863976,397.172448 L197.154826,393.33445 L196.757418,388.30535 C196.095069,379.570597 196.227539,365.806743 197.287296,360.909988 C197.949644,356.807301 199.40681,352.836958 201.393855,349.26365 C202.453612,347.940203 202.453612,347.940203 207.222519,347.940203 C213.051183,347.940203 217.95256,348.866616 225.900738,351.381166 C242.194503,356.410266 266.436447,368.585983 295.977176,386.320179 C320.351589,400.878101 329.491994,408.024717 336.512885,417.818228 C341.281792,423.906086 344.461063,432.508494 343.268837,435.155389 Z" id="Path_8576" fill="#000000"></path>
                <path d="M530.845843,619.379274 C530.845843,619.776308 529.256208,626.128856 527.269163,633.672506 C525.282119,641.216157 523.692483,647.304015 523.692483,647.568704 C522.235317,647.701049 520.91062,647.833394 519.453454,647.701049 L515.214426,647.701049 L509.385762,661.464902 C506.206491,669.008553 503.292159,676.022824 502.89475,677.081582 L502.099932,678.934409 L499.31807,674.434687 L496.536207,669.934966 L496.536207,633.275472 L495.47645,633.540161 C493.224466,634.06954 477.19564,636.187056 470.174749,636.84878 C441.163899,639.760364 412.020578,639.098641 383.142197,634.995954 C378.50576,634.33423 374.531671,633.804851 374.399201,633.937196 C374.266732,634.06954 374.399201,642.539604 374.664141,652.994839 L375.06155,671.787792 L372.809566,675.228756 C371.617339,677.081582 370.425112,678.669719 370.425112,678.802064 C370.027703,679.199098 368.703007,677.081582 365.656205,670.993724 C362.344464,664.641176 359.960011,657.891594 358.237906,650.877323 L357.310618,647.039325 L353.204059,647.304015 L349.097501,647.701049 L348.037744,642.804293 C347.507865,640.157399 346.845517,636.054711 346.580578,633.804851 L346.183169,629.569819 L342.738958,626.52589 C340.751913,624.805408 338.764869,623.084927 338.36746,622.820237 C337.705112,622.290858 337.440173,621.364445 337.440173,620.570376 L337.440173,618.982239 L353.998877,619.114584 L370.557582,619.246929 L371.08746,620.967411 L371.617339,622.687892 L377.313533,622.952582 C380.492805,623.084927 390.560497,623.349616 399.568433,623.614305 L416.127137,624.01134 L420.366166,617.394103 L424.737664,610.776865 L430.301388,610.776865 L430.168919,597.013012 L430.036449,583.249158 L422.750619,580.072885 C399.303493,569.749994 385.526651,557.971312 380.360335,543.67808 C379.300578,540.766495 379.300578,539.707737 379.035639,526.473263 C378.903169,513.371133 378.903169,512.180031 379.830457,509.268446 C381.685031,502.651209 386.851347,497.489764 393.474829,495.769282 C395.726813,495.107559 401.687947,495.107559 432.950781,495.107559 L469.77734,495.239903 L473.883899,497.225075 C478.785276,499.60728 481.03726,501.327762 483.819122,505.033414 C486.998393,509.268446 487.925681,512.577065 487.925681,520.650094 C487.925681,532.164087 487.130863,542.089943 485.938636,546.060285 C484.216531,551.48642 481.567138,556.647865 478.255397,561.279931 C471.631915,569.749994 459.577178,578.220058 448.582198,582.058056 L445.402927,583.249158 L445.535397,597.145357 L445.667866,611.041555 L448.582198,611.306244 L451.49653,611.570934 L455.47062,617.526447 L459.312239,623.481961 L477.06317,623.481961 C486.865924,623.481961 495.47645,623.614305 496.271268,623.74665 C497.595964,624.01134 497.860904,623.878995 499.1856,621.629134 L500.775236,619.246929 L516.009244,619.246929 C527.401633,618.71755 530.845843,618.982239 530.845843,619.379274 Z" id="Path_8577" fill="#000000"></path>
                <path d="M460.901875,657.362215 C458.384952,658.818008 456.662846,659.479731 456.265437,659.215042 C455.868028,659.082697 454.013454,657.49456 452.026409,656.038768 L448.449729,653.127184 L444.740579,657.097526 C436.659931,665.832279 436.394992,666.229313 434.010538,666.361658 C430.301388,666.758692 429.506571,666.096968 425.002603,659.347387 C422.618149,655.906423 420.763575,652.994839 420.763575,652.994839 C420.763575,652.994839 419.041469,652.730149 417.054425,652.597805 L413.345275,652.20077 L411.62317,655.774078 L409.901064,659.347387 L406.854263,658.420973 C404.469809,657.626905 402.085356,656.700492 399.833372,655.641734 L395.859283,653.656562 L395.859283,646.112912 L431.096206,646.245257 L466.33313,646.377602 L466.465599,649.95091 C466.598069,654.185941 466.730539,654.053597 460.901875,657.362215 Z" id="Path_8578" fill="#000000"></path>
            </g>
            <path d="M792.075968,524.002366 C791.943499,523.472987 791.943499,522.546573 791.811029,521.090781 C760.018316,517.649818 669.276614,515.532302 585.025925,585.013293 C585.025925,585.013293 557.869649,460.609233 430.698797,460.609233 C303.527945,460.609233 256.368754,585.013293 256.368754,585.013293 C185.100089,508.385686 89.721951,513.944165 55.2798452,518.973265 C55.2798452,519.767334 55.1473756,520.693747 55.1473756,521.487815 C54.0876185,540.677803 54.617497,549.809591 57.7967683,561.852962 C67.7319912,599.571215 98.3324774,641.127464 146.286486,681.889646 C224.840981,748.591397 331.346569,796.764884 412.020578,802.323363 C496.138798,808.014187 620.262849,758.914287 702.923902,687.183435 C715.905927,675.669443 728.093134,663.493726 739.485522,650.523941 C747.69864,640.99512 759.885847,624.584371 758.958559,624.584371 C758.69362,624.584371 758.958559,624.319682 759.488438,624.054992 C759.885847,623.790303 760.283255,623.393269 760.018316,623.128579 C759.885847,622.996234 760.150786,622.5992 760.548195,622.466855 C760.945604,622.334511 761.210543,622.069821 761.078073,621.805132 C760.945604,621.540442 761.078073,621.275753 761.607952,621.143408 C762.005361,621.011063 762.13783,620.614029 762.005361,620.34934 C761.872891,620.08465 762.005361,619.819961 762.2703,619.819961 C762.535239,619.819961 762.800179,619.422926 762.800179,619.158237 C762.800179,618.893547 763.065118,618.496513 763.330057,618.496513 C763.594996,618.496513 763.859936,618.231824 763.859936,617.967134 C764.257345,616.908376 764.919693,615.849618 765.582041,614.923205 C767.569085,611.879276 775.517264,597.718388 776.577021,595.336183 C784.12779,578.263711 788.896697,563.044065 791.148681,547.82442 C791.943499,540.545459 792.605847,527.178639 792.075968,524.002366 Z M460.901875,685.462954 C458.384952,686.918746 456.662846,687.58047 456.265437,687.31578 C455.868028,687.183435 454.013454,685.595299 452.026409,684.139506 L448.449729,681.227922 L444.740579,685.198264 C436.659931,693.933017 436.394992,694.330052 434.010538,694.462396 C430.301388,694.859431 429.506571,694.197707 425.002603,687.448125 C422.618149,684.007162 420.763575,681.095577 420.763575,681.095577 C420.763575,681.095577 419.041469,680.830888 417.054425,680.698543 L413.345275,680.301509 L411.62317,683.874817 L409.901064,687.448125 L406.854263,686.521712 C404.469809,685.727643 402.085356,684.80123 399.833372,683.742472 L395.859283,681.757301 L395.859283,674.213651 L431.096206,674.345995 L466.33313,674.47834 L466.465599,678.051648 C466.598069,682.28668 466.730539,682.154335 460.901875,685.462954 Z M527.136693,661.6409 C525.149649,669.18455 523.560013,675.272408 523.560013,675.537098 C522.102847,675.669443 520.778151,675.801787 519.320985,675.669443 L515.081956,675.669443 L509.385762,689.565641 C506.206491,697.109291 503.292159,704.123563 502.89475,705.182321 L502.099932,707.035147 L499.31807,702.535426 L496.536207,698.035705 L496.536207,661.37621 L495.47645,661.6409 C493.224466,662.170279 477.19564,664.287795 470.174749,664.949518 C441.163899,667.861103 412.020578,667.199379 383.142197,663.096692 C378.50576,662.434968 374.531671,661.905589 374.399201,662.037934 C374.266732,662.170279 374.399201,670.640342 374.664141,681.095577 L375.06155,699.888531 L372.809566,703.329494 C371.617339,705.182321 370.425112,706.770458 370.425112,706.902802 C370.027703,707.299837 368.703007,705.182321 365.656205,699.094462 C362.344464,692.741915 359.960011,685.992333 358.237906,678.978061 L357.310618,675.140064 L353.204059,675.404753 L349.097501,675.801787 L348.037744,670.905032 C347.507865,668.258137 346.845517,664.15545 346.580578,661.905589 L346.183169,657.670557 L342.738958,654.626628 C340.751913,652.906147 338.764869,651.185665 338.36746,650.920975 C337.705112,650.391596 337.440173,649.465183 337.440173,648.671115 L337.440173,647.082978 L353.998877,647.215323 L370.557582,647.347667 L371.08746,649.068149 L371.617339,650.788631 L377.313533,651.05332 C380.492805,651.185665 390.560497,651.450354 399.568433,651.715044 L416.127137,652.112078 L420.366166,645.494841 L424.737664,638.877604 L430.301388,638.877604 L430.168919,625.11375 L430.036449,611.349897 L422.750619,608.173623 C399.303493,597.850733 385.526651,586.072051 380.360335,571.778818 C379.300578,568.867234 379.300578,567.808476 379.035639,554.574001 C378.903169,541.471872 378.903169,540.280769 379.830457,537.369185 C381.685031,530.751947 386.851347,525.590502 393.474829,523.870021 C395.726813,523.208297 401.687947,523.208297 432.950781,523.208297 L469.77734,523.340642 L473.883899,525.325813 C478.785276,527.708018 481.03726,529.4285 483.819122,533.134153 C486.998393,537.369185 487.925681,540.677803 487.925681,548.750833 C487.925681,560.264826 487.130863,570.190681 485.938636,574.161024 C484.216531,579.587158 481.567138,584.748603 478.255397,589.380669 C471.631915,597.850733 459.577178,606.320797 448.582198,610.158794 L445.402927,611.349897 L445.535397,625.246095 L445.667866,639.142293 L448.582198,639.406983 L451.49653,639.671672 L455.47062,645.627186 L459.312239,651.582699 L477.06317,651.582699 C486.865924,651.582699 495.47645,651.715044 496.271268,651.847389 C497.595964,652.112078 497.860904,651.979733 499.1856,649.729873 L500.775236,647.347667 L516.009244,647.347667 C527.799042,647.347667 531.243252,647.480012 531.243252,647.877046 C530.845843,647.744702 529.123738,654.229594 527.136693,661.6409 Z" id="Path_8579" fill="#FFFFFF" fill-rule="nonzero"></path>
            <path d="M55.014906,518.973265 C46.6693188,520.164368 41.7679422,521.487815 41.7679422,521.487815" id="Path_8580"></path>
            <path d="M803.600827,522.811263 C803.600827,522.811263 799.361798,521.88485 791.811029,521.090781" id="Path_8581"></path>
            <path d="M791.016211,510.503202 C790.751272,504.547688 790.221394,496.209969 789.823985,492.107282 C784.12779,432.022768 768.761312,382.922868 739.617992,330.911383 C738.425765,328.926212 737.366008,326.941041 736.70366,325.352904 C736.438721,324.95587 736.306251,324.558836 736.173781,324.294146 L736.173781,324.294146 C740.28034,311.986085 757.103984,260.503979 770.483418,201.610568 C788.631758,121.674342 800.156616,28.238952 764.919693,0.18186621 C764.919693,0.18186621 703.98366,-4.3178551 622.382363,75.6183705 C600.259933,97.7199429 579.992079,121.674342 561.976208,147.216878 L556.280014,145.364052 C523.427544,134.644127 489.382847,128.026889 455.073211,125.777029 C444.740579,124.98296 406.191914,124.98296 393.607299,125.777029 C355.588513,128.291579 326.445193,133.982404 293.327783,145.496396 C292.003087,146.025775 290.81086,146.422809 289.618633,146.819844 C270.940415,121.409652 250.142681,97.5875981 227.225434,75.7507153 C142.312397,-4.58254459 79.12438,0.0495214652 79.12438,0.0495214652 C41.7679422,29.0330205 54.4850274,126.703442 73.8255945,209.286563 C86.5426797,263.944943 102.174097,311.986085 108.002761,329.323246 C107.605352,330.24966 107.075473,331.308418 106.545595,332.234831 C75.6801694,394.70155 58.9889951,454.918409 55.014906,518.973265 C89.5894813,513.944165 184.83515,508.253341 256.236285,585.013293 C256.236285,585.013293 303.395476,460.609233 430.566328,460.609233 C557.73718,460.609233 584.893455,585.013293 584.893455,585.013293 C669.144145,515.532302 759.885847,517.782163 791.67856,521.090781 C791.54609,518.443886 791.281151,514.473544 791.016211,510.503202 Z M133.039522,279.429278 C133.039522,279.429278 83.495878,155.686942 96.2129632,85.0148474 C96.2129632,85.0148474 96.2129632,85.0148474 96.2129632,85.0148474 C98.3324774,73.1038204 102.306567,62.6485856 108.53264,54.7079009 C108.53264,54.7079009 164.699765,60.2663802 255.308997,160.848387 C255.308997,160.848387 238.087944,169.186106 215.038228,186.920301 C215.038228,186.920301 214.905758,187.052646 214.773288,187.052646 C189.736527,206.242634 157.678874,236.681925 133.039522,279.429278 L133.039522,279.429278 Z M343.268837,463.256128 C342.474019,464.844265 338.49993,466.564746 333.995962,467.22647 C329.491994,467.888194 315.715152,467.49116 307.899443,466.564746 C279.81588,462.859094 250.010212,454.256685 228.285191,443.669106 C216.097985,437.713592 207.354989,431.758079 200.863976,425.273186 L197.154826,421.435189 L196.757418,416.406088 C196.095069,407.671335 196.227539,393.907482 197.287296,389.010726 C197.949644,384.908039 199.40681,380.937697 201.393855,377.364389 C202.453612,376.040941 202.453612,376.040941 207.222519,376.040941 C213.051183,376.040941 217.95256,376.967354 225.900738,379.481905 C242.194503,384.511005 266.436447,396.686721 295.977176,414.420917 C320.351589,428.978839 329.491994,436.125455 336.512885,445.918966 C341.281792,452.006825 344.461063,460.609233 343.268837,463.256128 Z M655.367303,419.450017 C654.969894,421.567533 648.743821,427.920081 642.517748,432.552147 C624.236938,445.918966 591.516937,458.359372 558.267058,464.314886 C539.3239,467.755849 520.380742,468.285228 514.684548,465.505988 C510.975398,463.653162 510.445519,462.19737 511.770216,457.432959 C514.552078,447.507103 523.560013,436.654834 537.601795,426.464289 C544.755155,421.302844 573.766006,403.700993 587.277909,396.289687 C609.532808,384.113971 627.548679,376.83501 639.735885,375.114528 C643.577505,374.585149 648.213942,374.452804 649.671108,375.114528 C652.055562,376.040941 654.704954,383.055213 655.764711,391.525276 C656.29459,396.024998 656.029651,415.876709 655.367303,419.450017 Z M633.377343,186.920301 L633.112403,186.787957 C610.857504,169.053761 594.16633,160.716042 594.16633,160.716042 C681.72876,60.1340354 735.908842,54.5755561 735.908842,54.5755561 C741.869976,62.6485856 745.711595,72.9714756 747.83111,84.8825026 C747.83111,84.8825026 747.83111,84.8825026 747.83111,84.8825026 C760.150786,155.554597 712.329247,279.429278 712.329247,279.429278 C692.326331,243.828541 665.434995,212.330492 633.377343,186.920301 L633.377343,186.920301 Z" id="Path_8582" fill="#FFA409" fill-rule="nonzero"></path>
            <path d="M561.843738,147.216878 C561.578799,147.481567 561.44633,147.878602 561.18139,148.143291" id="Path_8583"></path>
            <path d="M736.041312,324.161801 C735.378964,326.014628 735.114024,326.941041 735.114024,326.941041" id="Path_8584"></path>
            <g id="Group_934" transform="translate(594.166330, 54.575557)" fill-rule="nonzero">
                <g id="Group_933">
                    <g id="Group_932" fill="#FF9300">
                        <path d="M153.797249,30.3069465 C143.464617,28.983499 94.5833212,28.7188096 39.2110127,132.344744 L38.9460734,132.2124 C16.6911743,114.478204 -5.87147908e-22,106.140485 -5.87147908e-22,106.140485 C87.5624304,5.55847927 141.742512,0 141.742512,0 C147.836115,8.07302941 151.677735,18.3959195 153.797249,30.3069465 Z" id="Path_8585"></path>
                    </g>
                    <path d="M118.295386,224.853721 C98.1600014,189.12064 71.4011346,157.754935 39.2110127,132.344744 C94.5833212,28.7188096 143.332148,28.983499 153.797249,30.3069465 C153.797249,30.3069465 153.797249,30.3069465 153.797249,30.3069465 C166.116925,101.111385 118.295386,224.853721 118.295386,224.853721 Z" id="Path_8586" fill="#FF8300"></path>
                    <path d="M155.784294,30.7039807 C155.121946,30.571636 154.459597,30.4392912 153.797249,30.3069465 L155.784294,30.7039807 Z" id="Path_8587" fill="#FF8300"></path>
                </g>
            </g>
            <path d="M293.592723,152.378323 C292.268026,150.525497 290.81086,148.67267 289.486164,146.819844" id="Path_8588"></path>
            <path d="M108.002761,329.323246 C109.459927,333.822968 110.387214,336.205173 110.387214,336.205173" id="Path_8589"></path>
            <g id="Group_937" transform="translate(94.093448, 54.575557)" fill-rule="nonzero">
                <g id="Group_936">
                    <g id="Group_935" transform="translate(1.987045, 0.000000)" fill="#FF9300">
                        <path d="M159.228504,106.140485 C159.228504,106.140485 142.007451,114.478204 118.957734,132.2124 C118.957734,132.2124 118.825265,132.344744 118.692795,132.344744 C61.3334422,28.5864648 10.8625103,28.983499 0,30.3069465 C2.1195142,18.3959195 6.09360332,7.94068467 12.3196763,0 C12.4521459,0 68.6192722,5.55847927 159.228504,106.140485 Z" id="Path_8590"></path>
                    </g>
                    <path d="M120.812309,132.344744 C95.6430783,151.667077 63.585426,181.974024 38.9460734,224.853721 C38.9460734,224.853721 -10.597571,101.111385 2.1195142,30.3069465 C2.1195142,30.3069465 2.1195142,30.3069465 2.1195142,30.3069465 C12.8495548,28.983499 63.4529564,28.7188096 120.812309,132.344744 Z" id="Path_8591" fill="#FF8300"></path>
                    <path d="M2.1195142,30.3069465 C1.45716601,30.4392912 0.662348187,30.571636 0,30.7039807 L2.1195142,30.3069465 Z" id="Path_8592" fill="#FF8300"></path>
                </g>
            </g>
            <path d="M578.402443,348.1162 C578.402443,348.1162 536.012159,350.763095 541.310945,317.676909 C546.60973,284.590723 579.72714,280.62038 589.000014,281.943828 C598.272889,283.267275 635.364387,296.50175 628.740905,324.294146 C622.117424,352.086542 612.844549,346.792753 607.545763,348.1162 C602.246978,349.439648 578.402443,348.1162 578.402443,348.1162 Z" id="Path_8593" fill="#FFFFFF" fill-rule="nonzero"></path>
            <path d="M265.774099,348.1162 C265.774099,348.1162 223.383815,350.763095 228.6826,317.676909 C233.981386,284.590723 267.098795,280.62038 276.37167,281.943828 C285.644544,283.267275 322.736043,296.50175 316.112561,324.294146 C309.489079,352.086542 300.216204,346.792753 294.917419,348.1162 C289.618633,349.439648 265.774099,348.1162 265.774099,348.1162 Z" id="Path_8594" fill="#FFFFFF" fill-rule="nonzero"></path>
        </g>
    </g>
</svg>