<svg width="100" height="100" viewBox="0 0 100 100" fill="none" xmlns="http://www.w3.org/2000/svg">
<circle cx="50" cy="50" r="50" fill="white"/>
<path fill-rule="evenodd" clip-rule="evenodd" d="M50 100C77.6142 100 100 77.6142 100 50C100 22.3858 77.6142 0 50 0C22.3858 0 0 22.3858 0 50C0 77.6142 22.3858 100 50 100ZM50 92C73.196 92 92 73.196 92 50C92 26.804 73.196 8 50 8C26.804 8 8 26.804 8 50C8 73.196 26.804 92 50 92Z" fill="url(#paint0_linear_3050_309)"/>
<g clip-path="url(#clip0_3050_309)">
<path fill-rule="evenodd" clip-rule="evenodd" d="M55.905 56.9949L65.8305 74.2794H54.585C53.8472 74.2794 53.1657 73.885 52.7981 73.2453L49.6705 67.8036L55.905 56.9949ZM38.2677 28.3588C39.0058 28.3588 39.6875 28.7534 40.055 29.3935L46.5105 40.6352L40.2719 51.4508L27 28.3588H38.2677Z" fill="url(#paint1_linear_3050_309)"/>
<path fill-rule="evenodd" clip-rule="evenodd" d="M42.34 74.9439L72.426 23H62.2278C60.7555 23 59.3951 23.7852 58.6585 25.0599L28.6489 77H38.773C40.2436 77 41.6029 76.2165 42.34 74.9439Z" fill="url(#paint2_linear_3050_309)"/>
</g>
<defs>
<linearGradient id="paint0_linear_3050_309" x1="82.8607" y1="-4.72915e-07" x2="31.5206" y2="107.068" gradientUnits="userSpaceOnUse">
<stop stop-color="#00FF99"/>
<stop offset="1" stop-color="#00FF55"/>
</linearGradient>
<linearGradient id="paint1_linear_3050_309" x1="32.5325" y1="28.3588" x2="60.0306" y2="75.9501" gradientUnits="userSpaceOnUse">
<stop offset="0.000863882" stop-color="#FF0000"/>
<stop offset="1" stop-color="#FF0033"/>
</linearGradient>
<linearGradient id="paint2_linear_3050_309" x1="64.9229" y1="23" x2="33.7634" y2="75.6802" gradientUnits="userSpaceOnUse">
<stop stop-color="#00FF99"/>
<stop offset="1" stop-color="#00FF55"/>
</linearGradient>
<clipPath id="clip0_3050_309">
<rect width="45.4259" height="54" fill="white" transform="translate(27 23)"/>
</clipPath>
</defs>
</svg>
