<svg width="40" height="40" viewBox="0 0 40 40" fill="none" xmlns="http://www.w3.org/2000/svg">
<g clip-path="url(#clip0_64_1379)">
<path fill-rule="evenodd" clip-rule="evenodd" d="M20 40C31.0457 40 40 31.0457 40 20C40 8.95432 31.0457 0 20 0C8.95432 0 0 8.95432 0 20C0 31.0457 8.95432 40 20 40ZM20 36.8C29.2784 36.8 36.8 29.2784 36.8 20C36.8 10.7216 29.2784 3.2 20 3.2C10.7216 3.2 3.2 10.7216 3.2 20C3.2 29.2784 10.7216 36.8 20 36.8Z" fill="url(#paint0_linear_64_1379)"/>
<mask id="mask0_64_1379" style="mask-type:luminance" maskUnits="userSpaceOnUse" x="10" y="9" width="19" height="22">
<path d="M28.9704 9.20001H10.8V30.8H28.9704V9.20001Z" fill="white"/>
</mask>
<g mask="url(#mask0_64_1379)">
<path fill-rule="evenodd" clip-rule="evenodd" d="M22.362 22.7979L26.3322 29.7117H21.834C21.5389 29.7117 21.2663 29.554 21.1192 29.2981L19.8682 27.1214L22.362 22.7979ZM15.3071 11.3435C15.6023 11.3435 15.875 11.5013 16.022 11.7574L18.6042 16.2541L16.1088 20.5803L10.8 11.3435H15.3071Z" fill="url(#paint1_linear_64_1379)"/>
<path fill-rule="evenodd" clip-rule="evenodd" d="M16.936 29.9776L28.9704 9.20001H24.8911C24.3022 9.20001 23.758 9.51409 23.4634 10.024L11.4596 30.8H15.5092C16.0974 30.8 16.6412 30.4866 16.936 29.9776Z" fill="url(#paint2_linear_64_1379)"/>
</g>
<path d="M39.875 20C39.875 9.02334 30.9767 0.125 20 0.125C9.02334 0.125 0.125 9.02334 0.125 20C0.125 30.9767 9.02334 39.875 20 39.875C30.9767 39.875 39.875 30.9767 39.875 20Z" stroke="black" stroke-opacity="0.1" stroke-width="0.25"/>
<g style="mix-blend-mode:soft-light" opacity="0.25">
<path d="M40 20C40 8.9543 31.0457 0 20 0C8.9543 0 0 8.9543 0 20C0 31.0457 8.9543 40 20 40C31.0457 40 40 31.0457 40 20Z" fill="url(#paint3_linear_64_1379)"/>
</g>
</g>
<defs>
<linearGradient id="paint0_linear_64_1379" x1="33.1443" y1="-1.21321e-06" x2="12.6082" y2="42.8272" gradientUnits="userSpaceOnUse">
<stop stop-color="#00FF99"/>
<stop offset="1" stop-color="#00FF55"/>
</linearGradient>
<linearGradient id="paint1_linear_64_1379" x1="13.013" y1="11.3435" x2="24.0122" y2="30.38" gradientUnits="userSpaceOnUse">
<stop offset="0.000863882" stop-color="#FF0000"/>
<stop offset="1" stop-color="#FF0033"/>
</linearGradient>
<linearGradient id="paint2_linear_64_1379" x1="25.9692" y1="9.20001" x2="13.5054" y2="30.2721" gradientUnits="userSpaceOnUse">
<stop stop-color="#00FF99"/>
<stop offset="1" stop-color="#00FF55"/>
</linearGradient>
<linearGradient id="paint3_linear_64_1379" x1="20" y1="0" x2="20" y2="40" gradientUnits="userSpaceOnUse">
<stop stop-color="white"/>
<stop offset="0.0666667" stop-color="#FDFDFD"/>
<stop offset="0.133333" stop-color="#F6F6F6"/>
<stop offset="0.2" stop-color="#EAEAEA"/>
<stop offset="0.266667" stop-color="#D9D9D9"/>
<stop offset="0.333333" stop-color="#C4C4C4"/>
<stop offset="0.4" stop-color="#AAAAAA"/>
<stop offset="0.466667" stop-color="#8E8E8E"/>
<stop offset="0.533333" stop-color="#717171"/>
<stop offset="0.6" stop-color="#555555"/>
<stop offset="0.666667" stop-color="#3B3B3B"/>
<stop offset="0.733333" stop-color="#262626"/>
<stop offset="0.8" stop-color="#151515"/>
<stop offset="0.866667" stop-color="#090909"/>
<stop offset="0.933333" stop-color="#020202"/>
<stop offset="1"/>
</linearGradient>
<clipPath id="clip0_64_1379">
<rect width="40" height="40" fill="white"/>
</clipPath>
</defs>
</svg>
