<svg width="40" height="40" viewBox="0 0 40 40" fill="none" xmlns="http://www.w3.org/2000/svg">
<g clip-path="url(#clip0_63_1296)">
<path d="M40 20C40 8.94397 31.0345 0 20 0C8.94397 0 0 8.94397 0 20C0 31.0345 8.94397 40 20 40C31.0345 40 40 31.0345 40 20Z" fill="url(#paint0_radial_63_1296)"/>
<path d="M39.875 20C39.875 9.02334 30.9767 0.125 20 0.125C9.02334 0.125 0.125 9.02334 0.125 20C0.125 30.9767 9.02334 39.875 20 39.875C30.9767 39.875 39.875 30.9767 39.875 20Z" stroke="black" stroke-opacity="0.1" stroke-width="0.25"/>
<path d="M33.5991 13.75C33.5129 14.2457 33.4267 14.4828 33.2974 14.7414C33.1681 15.0431 33.0388 15.3664 32.9095 16.056C32.8664 16.3147 32.8233 16.5302 32.8017 16.7026V16.7241C32.7586 17.0043 32.7371 17.1983 32.6293 17.5216C32.5431 17.8017 32.3922 18.2543 32.0258 18.7284C31.7241 19.1164 31.2284 19.7845 30.5603 19.8707C30.4957 19.8707 30.3879 19.8707 30.3233 19.8491C28.4267 18.8793 26.8103 18.1681 26.25 18.0172C25.6034 17.8233 25.6896 16.4009 25.7543 15.1509C25.7974 14.5905 25.8189 14.0517 25.7974 13.5991C25.7112 12.0043 25.431 10.2802 24.0517 9.43965C23.2327 8.94396 22.1552 8.7931 21.1422 8.7931C21.3362 8.7069 21.5302 8.57759 21.7672 8.44828C22.3707 8.10345 23.1034 7.67241 23.8577 7.58621C24.0948 7.56465 24.3319 7.5431 24.5689 7.5C26.056 7.32759 27.3491 7.17672 28.7069 7.65086C29.3319 7.86638 30.5819 8.55603 30.9052 9.22414C31.1422 9.67672 31.5302 10.0431 32.2845 10.7543C32.6939 11.1207 32.9526 11.3362 33.1465 11.5086C33.4267 11.7241 33.4698 11.7888 33.556 11.9397C33.8146 12.4569 33.7284 12.9957 33.5991 13.75Z" fill="white"/>
<path d="M26.7241 20.2802C26.8103 20.3017 26.8534 20.4095 26.7888 20.4957C26.5948 20.7974 26.3577 21.2284 26.0776 21.7241C25.9483 21.9612 25.819 22.1983 25.7112 22.3707C25.3448 22.9957 25.3233 23.5345 25.3017 23.944C25.2802 24.3966 25.2586 24.5905 24.9784 24.7629C24.7629 24.9138 24.5258 24.9569 22.9741 25.194C22.694 25.2371 22.5862 25.2802 22.4784 25.3448C22.4569 25.3664 22.4138 25.3664 22.3922 25.3879C22.306 25.431 22.2198 25.3448 22.2198 25.2586C22.2414 25.0431 22.2414 24.7629 22.2414 24.3965V24.3319C22.2414 24.0302 22.2414 23.7716 22.2198 23.5776C22.1983 23.1897 22.1983 23.0172 22.306 22.8448C22.4353 22.6293 22.5431 22.5647 22.694 22.4569C22.931 22.306 23.2543 22.1121 23.7069 21.4655C23.9655 21.1207 24.0086 20.9267 24.0517 20.7759C24.0733 20.7112 24.0733 20.6897 24.2672 20.5388C24.4612 20.3879 25.0862 19.9138 25.8836 20.0431C26.1422 20.0862 26.4224 20.1724 26.7241 20.2802Z" fill="white"/>
<path d="M20.5388 27.4353C20.4957 27.4784 20.4741 27.5 20.4095 27.5C20.2371 27.5 20.1293 27.4569 20.0646 27.3707C19.9138 27.1767 19.9353 26.7888 19.9569 26.5517L20.625 26.3793C20.6681 26.7457 20.6896 27.2414 20.5388 27.4353Z" fill="white"/>
<path d="M20.5819 25.0647C20.5603 25.1509 20.5603 25.2586 20.5603 25.3879C20.5603 25.431 20.5603 25.4741 20.5603 25.5172C20.5603 25.625 20.5603 25.7974 20.5603 25.8836C20.3448 25.9483 20.1724 25.9483 19.9569 25.9483C19.9569 25.8836 19.9569 25.7759 19.9569 25.7112C19.9569 25.6681 19.9569 25.6034 19.9569 25.5603C19.9569 25.4957 19.9569 25.4526 19.9569 25.3879C19.9569 25.2586 19.9569 25.0647 19.9784 25C20.0431 25 20.1077 24.9784 20.1724 24.9569C20.3017 24.9353 20.4957 24.8922 20.6034 24.9138C20.6034 24.9569 20.6034 25.0215 20.5819 25.0647Z" fill="white"/>
<path d="M19.375 27.2414C19.3534 27.5862 19.2457 27.9957 18.9224 28.0603C18.7715 28.0819 18.7069 28.0388 18.6638 27.9957C18.4483 27.8017 18.4267 27.1983 18.4483 26.7672C18.5991 26.7672 18.7715 26.7457 18.9871 26.7026C19.1164 26.681 19.2457 26.6379 19.3534 26.6164C19.375 26.7888 19.3965 27.0043 19.375 27.2414Z" fill="white"/>
<path d="M19.2241 26.0345L18.5129 26.2931C18.556 26.0129 18.5991 25.625 18.6207 25.3664C18.6422 25.194 18.6853 25.1293 18.7069 25.1078C18.7069 25.1078 18.7284 25.0862 18.75 25.0862C18.75 25.0862 18.75 25.0862 18.7715 25.0862H18.7931L19.2457 25.0647C19.2241 25.2802 19.2241 25.7543 19.2241 26.0345Z" fill="white"/>
<path d="M18.0603 25.819C18.0172 25.9267 17.9741 26.2284 17.9526 26.444L17.069 26.4224C17.1121 26.1422 17.1983 25.8621 17.2629 25.6466C17.3491 25.431 17.4138 25.2586 17.5 25.2155C17.5862 25.1724 17.7802 25.1509 17.9095 25.2586C18.1034 25.3879 18.1465 25.5819 18.0603 25.819Z" fill="white"/>
<path d="M17.7371 28.556C17.6724 28.6422 17.5862 28.7069 17.5 28.7069C17.3922 28.7284 17.3276 28.6853 17.2629 28.6422C16.9827 28.3836 17.0043 27.5431 17.0258 27.1336C17.3922 27.0474 17.8017 26.9828 17.9957 26.9612C17.9957 27.2845 18.0172 28.1681 17.7371 28.556Z" fill="white"/>
<path d="M16.5733 26.3793C16.5302 26.4871 16.4871 26.5948 16.4655 26.7026C16.3577 26.7457 16.0345 26.7026 15.7112 26.6379L15.9267 25.2371C16.2931 25.1293 16.7241 25.1078 16.8103 25.2155C16.9612 25.3664 16.681 26.0776 16.5733 26.3793Z" fill="white"/>
<path d="M16.1638 28.75C15.9914 28.9655 15.7327 29.0733 15.3664 29.0517C15.1077 29.0517 15.0215 28.944 14.9784 28.8793C14.7845 28.556 14.9784 27.8017 15.1724 27.3276L16.3793 27.3922C16.4008 27.4784 16.4008 27.5862 16.4008 27.694C16.4224 28.0603 16.3793 28.4914 16.1638 28.75Z" fill="white"/>
<path d="M26.1638 18.556C25.0646 18.2543 25.1724 16.6595 25.2586 15.1078C25.2802 14.569 25.3233 14.0517 25.3017 13.6207C25.2155 12.1767 24.9784 10.6034 23.8146 9.89224C22.5646 9.13793 20.5172 9.31034 19.2672 9.46121C18.8146 9.59052 18.3836 9.69828 18.0388 9.67672C17.306 9.63362 16.7241 9.3319 16.2069 9.05172C15.8189 8.83621 15.4741 8.64224 15.1293 8.64224C15.1077 8.64224 15.0862 8.64224 15.0862 8.64224C14.1164 8.7069 13.6638 8.94397 13.2543 9.31034C13.1465 9.39655 13.0172 9.65517 12.6077 10.8405C12.3922 11.444 12.3707 11.7672 12.3276 12.069C12.2845 12.3491 12.2629 12.6509 12.1121 13.1034C12.0043 13.4052 11.9181 13.6638 11.8534 13.9224C11.6595 14.5905 11.4871 15.1293 11.0129 15.7759C10.9483 15.8405 10.8836 15.9698 10.7974 16.0776C10.6896 16.25 10.5603 16.4655 10.3664 16.7026C10.2371 16.875 9.95688 17.5216 9.97843 17.7155C9.99998 18.0388 10.1077 18.2328 10.2155 18.4483C10.3233 18.6638 10.4741 18.9224 10.4957 19.2888V19.3534C10.5388 19.9138 10.4526 20.194 9.39654 21.1422C8.72843 21.7457 8.23274 22.3276 7.90947 22.7586C7.88792 22.8017 7.90947 22.8448 7.97412 22.8448C7.99567 22.8448 7.99567 22.8448 7.99567 22.8448C8.01722 22.8448 8.03878 22.8448 8.06033 22.8448C8.08188 22.8448 8.10343 22.8448 8.12498 22.8448C8.14654 22.8448 8.16809 22.8448 8.18964 22.8448C8.44826 22.8664 8.70688 22.9741 8.87929 23.1681C8.90085 23.2112 8.9655 23.2112 9.0086 23.1897C9.18102 23.125 9.37498 23.125 9.5474 23.1466C9.76291 23.1681 9.99998 23.2328 10.1508 23.3836C10.1939 23.4267 10.2586 23.4483 10.3233 23.4267C10.4957 23.3836 10.6896 23.3836 10.8621 23.4483C10.9914 23.4914 11.1207 23.5776 11.2069 23.6853C11.2715 23.75 11.3793 23.7716 11.4655 23.7284C11.5086 23.7069 11.5733 23.6638 11.6379 23.6422C11.875 23.556 12.1336 23.5991 12.3491 23.6853C12.4569 23.7284 12.5646 23.75 12.6724 23.8362C12.8448 23.9655 12.9741 24.1379 13.0388 24.3319C13.0819 24.4397 13.2327 24.4828 13.3189 24.3966C13.4914 24.2672 13.6207 24.2457 13.75 24.2888C13.8146 24.3103 13.8577 24.3534 13.9008 24.4181C13.9655 24.5043 14.0733 24.5905 14.1595 24.5474C14.5258 24.4397 14.9569 24.5043 15.2802 24.6767C15.3879 24.7414 15.5172 24.8276 15.5819 24.9569V24.8922C15.5819 24.8707 15.6034 24.8491 15.625 24.8276L15.6896 24.806C15.8621 24.7414 16.7672 24.4828 17.1121 24.8491C17.1336 24.8707 17.1552 24.8707 17.1767 24.8491C17.2198 24.806 17.2629 24.7629 17.2845 24.7629C17.5215 24.6336 17.9095 24.6121 18.1681 24.8491C18.2112 24.8922 18.2974 24.8707 18.3405 24.8276C18.3621 24.7845 18.3836 24.7629 18.4267 24.7414C18.5129 24.6552 18.6422 24.6336 18.7715 24.6336L19.2672 24.6121C19.3965 24.6121 19.7845 24.569 19.8922 24.5474H19.9138C19.9569 24.5474 20.0215 24.5259 20.0862 24.5043C20.3233 24.4612 20.6034 24.3966 20.8189 24.5043C21.0345 24.6121 21.0129 24.8491 20.9914 25.0647C20.9914 25.1509 20.9698 25.2371 20.9698 25.3233C20.9698 25.3664 20.9698 25.4095 20.9698 25.4526C20.9698 25.6466 20.9698 25.819 20.9483 25.9483L20.9698 26.056C20.9698 26.056 20.9698 26.056 20.9698 26.0776C20.9914 26.1638 21.0991 26.2284 21.1638 26.1638C21.3362 26.056 21.5086 25.9267 21.5733 25.8405V25.819C21.5733 25.7974 21.5948 25.7543 21.6164 25.6681C21.6379 25.4741 21.681 25.1078 21.681 24.3534C21.681 24.3103 21.681 24.2888 21.681 24.2672C21.681 23.9871 21.681 23.75 21.6595 23.556C21.6379 23.1466 21.6164 22.8233 21.8319 22.5C22.0258 22.1767 22.2198 22.069 22.4138 21.9397C22.6293 21.8103 22.8664 21.6595 23.2758 21.0991C23.4698 20.819 23.4914 20.7112 23.5129 20.625C23.556 20.4095 23.6207 20.2802 23.9439 20.0647C24.2026 19.8707 24.9569 19.2888 25.9914 19.4612C26.3362 19.5259 26.875 19.6983 27.4353 19.9138C27.4569 19.9138 27.4784 19.9353 27.5 19.9353H27.5215C28.0172 20.1293 28.4698 20.3448 28.7931 20.5172C28.8577 20.5603 28.9439 20.5388 29.0086 20.4741C29.1164 20.3448 29.2241 20.2802 29.3319 20.194C29.375 20.1724 29.4181 20.1509 29.4396 20.1293C29.4612 20.1293 29.4612 20.1078 29.4612 20.1078C29.5474 20.0431 29.5474 19.8707 29.4396 19.8276C27.9957 19.1164 26.6164 18.6853 26.1638 18.556ZM15.7758 18.8793C15.431 20.3448 13.1465 21.9828 12.1121 21.9828H12.0905C12.0689 21.9828 12.0474 21.9828 12.0474 21.9828C12.0258 21.9828 12.0043 21.9828 11.9827 21.9612C11.9612 21.9612 11.9612 21.9612 11.9396 21.9612C11.7457 21.8966 11.4871 21.7672 11.2931 21.5733C11.1638 21.444 11.056 21.2716 11.0129 21.1207C11.0129 21.0991 10.9914 21.056 10.9914 21.0345C10.9267 20.7759 10.8621 20.4741 11.0776 19.9569C11.0991 19.8922 11.1422 19.8276 11.1638 19.7629C11.1638 19.7414 11.1853 19.7198 11.1853 19.6983C11.2069 19.6336 11.2284 19.5905 11.25 19.5474C11.2715 19.4612 11.3146 19.3966 11.3362 19.3534C11.3362 19.3319 11.3577 19.3103 11.3577 19.2888C11.4224 19.1164 11.4224 19.0517 11.4439 18.9871C11.4439 18.944 11.4655 18.8578 11.4871 18.7716C11.5517 18.4914 11.5948 18.2543 11.6164 18.0603C11.6595 17.694 11.7241 17.3707 11.9181 17.069C11.9612 17.0259 11.9827 16.9828 12.0258 16.9397C12.0474 16.9181 12.0474 16.9181 12.0689 16.8966C12.0905 16.875 12.0905 16.875 12.1121 16.8534C12.1552 16.8103 12.2198 16.7888 12.2629 16.7672C12.2845 16.7672 12.306 16.7457 12.3276 16.7457C12.3707 16.7241 12.4138 16.7241 12.4569 16.7026C12.6508 16.6595 12.8664 16.6595 13.125 16.681C13.4052 16.7026 13.6638 16.7457 13.8793 16.8103C14.0733 16.8534 14.2457 16.9181 14.375 16.9828C14.3965 16.9828 14.3965 17.0043 14.4181 17.0043C14.4396 17.0259 14.4612 17.0259 14.5043 17.0474C14.5474 17.069 14.5689 17.069 14.6121 17.0905C14.6552 17.1121 14.6983 17.1336 14.7414 17.1552L14.7845 17.1767C14.9353 17.2414 15.0862 17.3276 15.1939 17.4138C15.2586 17.4569 15.3017 17.5 15.3448 17.5431C15.3664 17.5647 15.3879 17.5647 15.3879 17.5862C15.4095 17.6078 15.4095 17.6078 15.431 17.6293C15.8836 18.0172 15.8621 18.556 15.7758 18.8793ZM16.8534 13.2974L16.8103 13.556C16.7026 14.1595 16.4655 14.9784 15.6034 15.194C14.7629 15.3879 14.5689 15.431 13.9871 15.4741C13.9655 15.4741 13.9655 15.4741 13.9439 15.4741C13.5129 15.4741 12.6724 15.194 12.5215 14.5259C12.4353 14.0948 12.6293 13.7716 12.931 13.2543C12.9741 13.1681 13.0388 13.0819 13.1034 12.9741C13.5345 12.2629 13.6853 11.7457 13.8146 11.3362C13.9439 10.9267 14.0517 10.6034 14.3319 10.3233C14.3965 10.2586 14.4612 10.194 14.5474 10.1509C14.5905 10.1078 14.6552 10.0862 14.7198 10.0431C14.806 10 14.8922 9.97845 14.9784 9.93534C15.1724 9.87069 15.3879 9.84914 15.5819 9.84914C15.9914 9.84914 16.4008 9.9569 16.681 10.194C16.8103 10.3017 17.0043 10.4957 17.1121 11.1207C17.1552 11.444 17.0689 12.0259 16.8534 13.2974ZM23.0388 15.0216C22.7371 15.5388 22.5862 15.819 22.3276 16.0345C21.8103 16.4655 21.2284 16.5517 20.7327 16.5517C20.3879 16.5517 20.0862 16.4871 19.8922 16.4655C19.375 16.3793 18.4483 16.2069 18.125 15.4526C18.0603 15.3017 18.0603 15.2155 18.0603 15.0862C18.0603 14.9784 18.0603 14.7629 17.9957 14.3103V14.2888C17.9741 14.0733 17.9526 13.8362 17.9957 13.5345V13.4914C18.1681 12.5862 18.2327 12.4569 18.2543 12.3707C18.3405 12.1983 18.556 12.1121 18.75 12.2198C18.9224 12.306 18.9871 12.5216 18.9224 12.694C18.9008 12.7371 18.8577 12.931 18.7069 13.6422V13.6853C18.6638 13.8793 18.6853 14.0302 18.7069 14.2241V14.2457C18.7715 14.7629 18.7715 14.9784 18.7715 15.1078C18.7715 15.1293 18.7715 15.1509 18.7715 15.1724V15.194C18.8362 15.3448 18.9655 15.431 19.1164 15.5172C19.2241 15.5603 19.3319 15.4741 19.3103 15.3664C19.1595 14.569 19.1595 13.6422 19.4612 13.0603C19.5689 12.8664 19.7414 12.5647 19.9138 12.2629C19.9353 12.2414 19.9569 12.1983 19.9569 12.1767C19.9784 12.1552 19.9784 12.1336 20 12.1121C20.0862 11.9828 20.1508 11.875 20.2155 11.7672C20.2155 11.7457 20.2371 11.7457 20.2371 11.7241L20.2586 11.7026C20.2802 11.681 20.2802 11.6595 20.3017 11.6379C20.3017 11.6379 20.3017 11.6164 20.3233 11.6164L20.3448 11.5948C20.3448 11.5733 20.3664 11.5733 20.3664 11.5517C20.431 11.4655 20.4957 11.3793 20.5388 11.2931C20.625 11.1853 20.5172 11.056 20.4095 11.0991C20.1077 11.2284 19.9138 11.3793 19.8707 11.4009C19.7198 11.5302 19.4827 11.5086 19.3534 11.3362C19.2241 11.1853 19.2457 10.9483 19.4181 10.819C19.6121 10.6681 20.6034 9.9569 21.7888 10.2802C22.6508 10.5172 23.0819 11.1853 23.2543 11.4224C23.3836 11.6164 23.8146 12.2198 23.7931 13.0819C23.7931 13.7069 23.5345 14.181 23.0388 15.0216Z" fill="white"/>
<path d="M15.3233 10.6034C15.2586 10.7543 15.194 10.9267 15.1077 11.1207C14.9353 11.5733 14.7198 12.0905 14.6121 12.2845C14.4396 12.6078 14.3103 12.8233 14.2026 12.9741C14.0733 13.1681 13.9871 13.319 13.9009 13.5345C13.7715 13.9009 13.75 14.3103 13.8362 14.7629C13.5991 14.7414 13.2328 14.5905 13.1896 14.375C13.1681 14.2241 13.2543 14.0733 13.5129 13.6207C13.556 13.5345 13.6207 13.4267 13.6853 13.3405C14.1379 12.5647 14.3319 11.9828 14.4612 11.5517C14.6121 11.0991 14.6767 10.9052 14.9138 10.7328C15.0646 10.6681 15.194 10.625 15.3233 10.6034Z" fill="white"/>
<path d="M14.8707 26.8966C14.6121 27.4138 14.3103 27.8879 14.1164 28.125C13.944 27.694 13.6638 26.681 13.75 25.8836C13.75 25.8621 13.75 25.8405 13.75 25.819C13.7715 25.5603 13.8362 25.3448 13.9655 25.1509C14.0517 25.0215 14.2672 24.9569 14.5043 24.9569C14.6767 24.9569 14.8707 25 15.0431 25.0862C15.1293 25.1293 15.2586 25.2371 15.2586 25.5172C15.3017 25.9052 15.1077 26.4224 14.8707 26.8966Z" fill="white"/>
<path d="M28.6638 21.1422C28.6853 21.1638 28.6853 21.1853 28.6853 21.2069C28.6207 21.3578 28.5129 21.4655 28.4052 21.5948C28.2758 21.7457 28.125 21.9181 27.9957 22.1983C27.8017 22.5862 27.7371 22.931 27.7155 23.8362C27.6724 24.8922 27.7155 25.4741 27.7586 25.9052C27.7802 26.3147 27.8017 26.5733 27.7371 26.9828C27.5862 27.8017 27.2414 28.3405 26.7888 29.0302C26.2284 29.8922 25.6681 30.7759 24.7198 31.056C24.6336 31.0776 24.6336 31.0776 24.375 31.0776C24.1595 31.0776 23.7931 31.0776 23.125 31.0991C21.875 31.1422 21.25 31.1638 20.7327 31.2716C20.1724 31.3793 19.8922 31.5086 19.5905 31.6164C19.3319 31.7241 19.0948 31.8103 18.6422 31.9181C18.3621 31.9828 17.9526 32.0259 16.5517 32.0474C15.0862 32.0474 14.2026 32.0474 13.0603 31.9181C11.4655 31.7457 10.6681 31.6379 10.1293 31.3578C8.8793 30.6897 8.3405 29.4828 7.47843 27.5C7.47843 27.4784 7.49999 27.4569 7.52154 27.4569C7.56464 27.4784 7.60774 27.5 7.65085 27.5215C7.69395 27.5431 7.73705 27.5431 7.75861 27.5431C7.84481 27.5647 7.93102 27.5647 8.01723 27.5431C8.03878 27.5431 8.03878 27.5431 8.06033 27.5215C8.08188 27.5215 8.10343 27.5216 8.10343 27.5431C8.16809 27.694 8.2543 27.8233 8.40516 27.9095C8.55602 27.9957 8.72843 27.9957 8.8793 27.9957C9.05171 27.9957 9.22412 27.9741 9.39654 27.9526C9.48274 27.9526 9.56895 27.9957 9.61205 28.0603C9.76292 28.4483 9.95688 28.7069 10.2586 28.75C10.2802 28.75 10.3017 28.75 10.3233 28.75C10.3879 28.75 10.4957 28.7284 10.625 28.6422C10.7327 28.556 10.9052 28.6207 10.9914 28.7284C11.056 28.8362 11.1422 28.9009 11.2284 28.9655C11.5302 29.2672 12.2629 29.4181 12.8664 29.4181C13.1896 29.4181 13.4914 29.375 13.6638 29.2888C13.9224 29.1595 13.9224 28.9871 13.9008 28.9009C13.8793 28.7716 13.8577 28.6207 13.8362 28.4914C13.8362 28.4698 13.8577 28.4698 13.8577 28.4914C13.9008 28.5776 13.944 28.6638 14.0517 28.6853C14.0733 28.6853 14.0733 28.6853 14.0948 28.6853C14.2672 28.6853 14.5258 28.75 14.569 28.9009C14.5905 28.9871 14.6336 29.0517 14.6767 29.1379C14.7845 29.2888 14.9784 29.4828 15.3879 29.5043H15.4095C15.8836 29.5043 16.25 29.3534 16.4871 29.0517C16.5086 29.0302 16.5086 29.0086 16.5302 28.9871C16.6164 28.8578 16.875 28.8578 16.9827 28.9655C17.1121 29.0733 17.2629 29.1379 17.4353 29.1379C17.4569 29.1379 17.5 29.1379 17.5215 29.1379C17.7371 29.1164 17.9095 29.0086 18.0603 28.8147C18.1465 28.6853 18.2112 28.5345 18.2543 28.3621C18.2758 28.319 18.3405 28.2974 18.3836 28.3405C18.4698 28.4267 18.6207 28.5129 18.8362 28.5129C18.8793 28.5129 18.9439 28.5129 19.0086 28.4914C19.4181 28.4052 19.6336 28.0603 19.7198 27.694C19.7198 27.6724 19.7414 27.6724 19.7414 27.694C19.8491 27.8233 20.0431 27.9741 20.3664 27.9741C20.3879 27.9741 20.4095 27.9741 20.4095 27.9741C20.5819 27.9741 20.7327 27.8879 20.8405 27.7586C20.9698 27.5862 21.0129 27.3276 21.0345 27.0905C21.0345 27.0259 21.0776 26.9612 21.1638 26.9181C21.5086 26.7672 21.9396 26.444 22.0689 26.2284C22.0689 26.2284 22.069 26.2069 22.0905 26.2069C22.1121 26.1422 22.1767 26.0991 22.2198 26.0991C22.5 26.056 22.6077 25.9914 22.7155 25.9483C22.8017 25.9052 22.8664 25.8836 23.0819 25.8405C24.6552 25.6034 24.9569 25.5388 25.3017 25.3233C25.8189 24.9784 25.8405 24.5043 25.8621 24.0517C25.8836 23.6638 25.9052 23.2328 26.2069 22.7155C26.3146 22.5216 26.444 22.306 26.5733 22.0474C26.8103 21.6164 27.1336 21.0129 27.3707 20.6897C27.4138 20.625 27.5 20.6034 27.5646 20.6466C28.1034 20.8405 28.5776 21.056 28.6638 21.1422Z" fill="white"/>
<path d="M13.3621 25.8405C13.2974 26.3793 13.2543 27.1121 13.3405 28.0603C13.3621 28.319 13.4052 28.5991 13.4483 28.8793C13.3836 28.9224 13.1465 28.9871 12.7586 28.9655C12.1983 28.944 11.6379 28.8147 11.4655 28.6207L11.444 28.5991C11.3146 28.4914 11.2069 28.4052 11.2069 28.2112C11.2069 28.1465 11.2284 28.0819 11.2931 27.9741C11.3362 27.931 11.3793 27.8664 11.4224 27.7802C11.5086 27.6509 11.6379 27.5 11.7672 27.2845C12.1336 26.681 12.2629 26.4871 12.4353 26.25C12.4569 26.2284 12.4569 26.2069 12.4784 26.1853C12.5862 26.056 12.694 25.8836 12.8879 25.6034C13.0172 25.4095 13.125 25.2371 13.2327 25.1078C13.3836 24.8922 13.4914 24.7845 13.556 24.7198C13.556 24.806 13.5345 24.9353 13.5129 25.0647C13.4267 25.3233 13.3836 25.5603 13.3621 25.8405Z" fill="white"/>
<path d="M13.0819 17.3491C13.0819 17.3707 13.0819 17.3707 13.0819 17.3491C12.9957 17.4569 12.9095 17.5862 12.8017 17.8017C12.5215 18.4052 12.5215 18.75 12.5215 19.0302C12.5215 19.181 12.5215 19.2888 12.4784 19.4181C12.4569 19.5043 12.4138 19.6121 12.3491 19.7198C12.1983 20.0862 11.9827 20.5603 12.069 21.2069C11.9396 21.1422 11.7457 20.9914 11.7026 20.9267C11.7026 20.8836 11.681 20.8621 11.681 20.819C11.6379 20.625 11.6164 20.4957 11.7241 20.194C12.069 19.4181 12.1121 19.2241 12.1336 19.0086C12.1336 18.9655 12.1552 18.9224 12.1552 18.8578C12.2198 18.556 12.2629 18.2974 12.2845 18.0819C12.3276 17.7586 12.3707 17.5431 12.4784 17.3922C12.5215 17.3276 12.6293 17.306 12.7802 17.306C12.8448 17.306 12.9095 17.306 12.9957 17.3276H13.0172C13.0819 17.3491 13.0819 17.3491 13.0819 17.3491Z" fill="white"/>
<path d="M12.6508 25.0431C12.6293 24.8491 12.6077 24.6767 12.5215 24.4828C12.5215 24.4828 12.5 24.4397 12.5 24.4181C12.4784 24.3965 12.4784 24.375 12.4569 24.3534L12.4353 24.3319C12.4138 24.3103 12.4138 24.3103 12.3922 24.3103L12.3707 24.2888C12.3491 24.2888 12.3491 24.2672 12.3276 24.2672H12.306C12.1983 24.2241 12.0905 24.181 11.9612 24.1595C11.9396 24.1595 11.9181 24.1595 11.9181 24.1595C11.8965 24.1595 11.8965 24.1595 11.875 24.1595H11.8534C11.8319 24.1595 11.8103 24.181 11.7672 24.181C11.7457 24.181 11.7457 24.2026 11.7241 24.2026L11.7026 24.2241C11.681 24.2457 11.681 24.2457 11.6595 24.2672L11.6379 24.2888V24.3103C11.5948 24.375 11.5517 24.4397 11.5086 24.5043C11.4008 24.6552 11.2931 24.8276 11.1853 24.9784C11.0776 25.1293 10.9914 25.2586 10.8836 25.4095C10.8189 25.4957 10.7758 25.5603 10.7112 25.6465C10.7112 25.6681 10.6896 25.6681 10.6896 25.6897C10.7543 25.7112 10.8189 25.7112 10.8836 25.7328C11.0345 25.7543 11.1853 25.7759 11.3146 25.7974C11.6164 25.8405 11.9396 25.8621 12.2414 25.8405C12.2629 25.8405 12.2629 25.8405 12.2845 25.8405C12.3491 25.7328 12.4569 25.6034 12.5646 25.431C12.6293 25.3448 12.6939 25.2586 12.7371 25.1724C12.6724 25.1509 12.6508 25.0862 12.6508 25.0431Z" fill="white"/>
<path d="M11.5517 26.3147C11.5302 26.5517 11.2715 27.1552 10.8621 27.7371C10.5172 28.2112 10.3017 28.3405 10.2586 28.3405C10.0862 28.319 9.93533 27.9095 9.80602 27.5C9.76292 27.3276 9.69826 27.1767 9.67671 27.0259C9.59051 26.7241 9.56895 26.2931 9.59051 26.0345C9.93533 26.2284 10.5388 26.2716 11.4009 26.2716C11.444 26.2931 11.5086 26.2931 11.5517 26.3147Z" fill="white"/>
<path d="M10.9483 24.375C10.7974 24.6121 10.6465 24.8276 10.4957 25.0431C10.4095 25.1509 10.3448 25.2586 10.2586 25.3664C10.2155 25.431 10.1508 25.4957 10.1077 25.5603C9.97843 25.5388 9.87068 25.4957 9.74136 25.4741C9.63361 25.4526 9.5474 25.4095 9.43964 25.3664C9.41809 25.3664 9.39654 25.3448 9.37499 25.3448C9.35343 25.3233 9.33188 25.2802 9.31033 25.2586C9.35343 25.194 9.37499 25.1078 9.41809 25.0431C9.48274 24.9138 9.5474 24.7845 9.63361 24.6552C9.76292 24.4397 9.91378 24.2026 10.1508 24.0517C10.1724 24.0517 10.1724 24.0302 10.194 24.0302C10.2802 23.9871 10.3664 23.944 10.4741 23.9224C10.4957 23.9224 10.5603 23.9224 10.6034 23.9224H10.625C10.625 23.9224 10.625 23.9224 10.6465 23.9224C10.6681 23.9224 10.6896 23.944 10.7327 23.944C10.7327 23.944 10.7543 23.944 10.7543 23.9655C10.7758 23.9871 10.7974 23.9871 10.819 24.0086C10.7758 23.9871 10.8621 24.0733 10.8621 24.0517C10.9052 24.181 10.9267 24.2457 10.9483 24.375Z" fill="white"/>
<path d="M9.78447 23.75C9.5043 23.9655 9.31033 24.2672 9.15947 24.5905C9.07326 24.7629 8.98706 24.9353 8.90085 25.1078C8.90085 25.1293 8.8793 25.1509 8.8793 25.1509C8.79309 25.1293 8.70688 25.1078 8.64223 25.0862C8.55602 25.0647 8.46982 25.0215 8.38361 25C8.34051 24.9784 8.31895 24.9569 8.27585 24.9353C8.36206 24.7845 8.44826 24.6336 8.55602 24.4828C8.68533 24.2888 8.83619 24.0733 8.98706 23.9009C9.05171 23.8362 9.11637 23.75 9.18102 23.7069C9.26723 23.6638 9.35344 23.6638 9.46119 23.6853C9.56895 23.6853 9.67671 23.6853 9.76292 23.7284C9.74137 23.7284 9.76292 23.75 9.78447 23.75Z" fill="white"/>
<path d="M9.35344 27.4138C9.33188 27.4353 9.33188 27.4353 9.31033 27.4569H9.28878C9.22413 27.4569 9.15947 27.4784 9.09482 27.4784C8.9655 27.4784 8.83619 27.5 8.70688 27.4784C8.64223 27.4784 8.57757 27.4569 8.53447 27.4138C8.49137 27.3491 8.46982 27.2198 8.44826 27.1336C8.36206 26.6595 8.36206 26.1853 8.40516 25.7112C8.64223 25.7974 8.90085 25.8621 9.15947 25.9052C9.09482 26.3362 9.20257 26.9612 9.24568 27.1336C9.31033 27.2198 9.33188 27.3276 9.35344 27.4138Z" fill="white"/>
<path d="M8.57757 23.5991C8.36205 23.8578 8.16809 24.1379 7.99567 24.4397C7.93102 24.5474 7.84481 24.6767 7.78016 24.806C7.69395 24.7845 7.60774 24.7414 7.54309 24.6983C7.47843 24.6552 7.41378 24.6121 7.37068 24.569C7.34912 24.5474 7.30602 24.5259 7.28447 24.5043C7.28447 24.5043 7.26292 24.5043 7.26292 24.4828C7.28447 24.4181 7.32757 24.375 7.32757 24.3319C7.37068 24.2241 7.41378 24.1379 7.47843 24.0517C7.58619 23.8793 7.69395 23.7069 7.82326 23.5345C7.86636 23.4698 7.90947 23.4052 7.99567 23.3836C8.06033 23.3621 8.14654 23.3836 8.21119 23.3836C8.3405 23.4052 8.46981 23.4914 8.57757 23.5991Z" fill="white"/>
<path d="M6.91809 24.7414C6.93964 24.7198 6.91809 24.7198 6.91809 24.7414C7.0043 24.8276 7.06895 24.8922 7.15516 24.9569C7.19826 24.9784 7.21981 25.0216 7.26292 25.0431C7.26292 25.0431 7.26292 25.0431 7.26292 25.0647C7.17671 25.431 7.11206 25.819 7.11206 26.2069C7.11206 26.2284 7.0905 26.2284 7.0905 26.2069C6.98275 25.7543 6.85343 25.0216 6.91809 24.7414Z" fill="white"/>
<path d="M7.97413 25.5388C7.93102 25.8621 7.90947 26.1853 7.93102 26.5086C7.93102 26.681 7.95257 26.8534 7.97413 27.0474C7.93102 27.0474 7.88792 27.0474 7.84482 27.0474H7.80171C7.75861 27.0259 7.75861 27.0259 7.7155 27.0043C7.6724 26.9828 7.6293 26.9181 7.58619 26.8534C7.49999 26.7026 7.47844 26.5302 7.47844 26.3578C7.45688 26.0345 7.49999 25.6897 7.56464 25.3664C7.60775 25.3879 7.6724 25.4095 7.73706 25.431C7.82326 25.4741 7.88792 25.5172 7.97413 25.5388Z" fill="white"/>
<mask id="mask0_63_1296" style="mask-type:luminance" maskUnits="userSpaceOnUse" x="0" y="0" width="40" height="40">
<path d="M40 20C40 8.94397 31.0345 0 20 0C8.94397 0 0 8.94397 0 20C0 31.0345 8.94397 40 20 40C31.0345 40 40 31.0345 40 20Z" fill="white"/>
</mask>
<g mask="url(#mask0_63_1296)">
<g opacity="0.8">
<path opacity="0.8" d="M16.4655 42.3491C15 42.3491 13.6207 42.2629 12.4569 42.1767L12.1336 42.1552L11.8104 42.1121C11.6595 42.0905 11.4871 42.069 11.2931 42.0474C10.1724 41.9181 8.08191 41.7026 5.77588 40.625L5.4095 40.4526L5.08622 40.2586C0.646569 37.7586 -0.991362 34.0302 -1.89653 32.0259C-1.96119 31.8966 -2.02584 31.7457 -2.0905 31.5948C-2.54309 30.6681 -2.82326 29.8491 -3.06033 29.0733L-3.10343 28.9009L-3.14653 28.7284C-3.79309 26.444 -3.94395 24.4828 -3.66378 22.5216C-3.36205 20.5603 -2.65084 18.7931 -1.37929 16.9181L-0.732741 15.8621C-0.603431 15.6466 -0.517224 15.4095 -0.452569 15.1724C0.0431205 12.7155 1.16381 10.9698 1.72415 10.1293C1.87502 9.11638 2.13364 8.125 2.47847 7.15517L2.52157 7.00431L2.58622 6.85345C2.58622 6.8319 2.60778 6.78879 2.62933 6.72414C2.88795 5.96983 3.46984 4.22414 4.95691 2.37069L5.51726 1.72414L6.09915 1.2069C7.56467 -0.12931 9.33191 -1.12069 11.2285 -1.68103C12.2845 -2.00431 13.3836 -2.19828 14.5043 -2.26293H14.6121H14.7629C14.9569 -2.26293 15.1509 -2.28448 15.3233 -2.28448C16.0129 -2.28448 16.7026 -2.21983 17.3923 -2.11207C17.8233 -2.04741 18.2543 -2.09052 18.6638 -2.26293C19.8492 -2.75862 21.0776 -3.0819 22.3492 -3.25431C22.4569 -3.27586 22.5431 -3.27586 22.6293 -3.29741C22.8233 -3.31897 23.1466 -3.36207 23.5345 -3.40517C24.2026 -3.46983 25.2371 -3.55603 26.3362 -3.55603C28.5129 -3.55603 30.3879 -3.27586 32.069 -2.69397L32.2198 -2.65086L32.3492 -2.60776C36.056 -1.2069 37.931 0.75431 39.2888 2.4569L39.3535 2.5431L39.5474 2.71552C40.7759 3.66379 41.8104 4.84914 42.6293 6.16379L42.8879 6.57328L43.1035 7.00431C44.9138 10.6897 44.3319 14.1164 44.1164 15.3879L44.0948 15.4526C43.944 16.4009 43.6854 17.3276 43.3621 18.2328C43.2328 19.0948 43.0388 19.9569 42.7586 20.7759C42.2845 22.2414 41.5733 23.6422 40.6681 24.8922C40.1509 25.625 39.5474 26.3362 38.9009 26.9612C38.6638 27.1767 38.5129 27.4784 38.4698 27.8017C38.4483 27.9957 38.4052 28.1897 38.3836 28.3836C37.8448 31.2284 36.6164 33.2112 36.0992 34.0086L34.569 36.2069C32.7155 38.5129 30.5173 40.0216 27.8664 40.8405L27.2198 41.0345L26.5302 41.1638C25.7328 41.3147 24.9354 41.3793 24.1164 41.3793C24.0086 41.3793 23.9009 41.3793 23.7716 41.3793H23.7285H23.5992H23.4483C23.1466 41.3793 22.8448 41.444 22.5431 41.5302C20.7759 42.0905 18.8362 42.3491 16.4655 42.3491Z" stroke="url(#paint1_linear_63_1296)" stroke-width="0.227457" stroke-miterlimit="10"/>
<path opacity="0.8" d="M16.4655 40.819C15.0647 40.819 13.7069 40.7328 12.5862 40.6466L12.3276 40.625L12.069 40.5819C11.8966 40.5603 11.7026 40.5388 11.5086 40.5172C10.4095 40.4095 8.59915 40.194 6.57329 39.2457L6.27156 39.0948L5.99139 38.944C2.04743 36.7672 0.603461 33.5129 -0.258608 31.5733C-0.323263 31.444 -0.387918 31.2716 -0.474125 31.1207C-0.883607 30.3017 -1.14223 29.5259 -1.35775 28.8362L-1.40085 28.6853L-1.44395 28.556C-2.0043 26.5086 -2.15516 24.7845 -1.89654 23.0819C-1.63792 21.4009 -0.991366 19.8276 0.129323 18.1897L0.969841 16.8319C1.1207 16.5948 1.22846 16.3147 1.27156 16.0345C1.68105 13.7069 2.78019 12.069 3.27587 11.3147L3.34053 11.2285L3.36208 11.1853C3.36208 11.1638 3.38363 11.1422 3.38363 11.1207C3.40519 11.0129 3.44829 10.9267 3.46984 10.8405C3.59915 9.89224 3.83622 8.94397 4.1595 8.0388L4.2026 7.90949L4.2457 7.78018C4.26725 7.73707 4.26725 7.69397 4.31036 7.56466C4.54743 6.85345 5.04312 5.36638 6.33622 3.77156L6.81036 3.21121L7.28449 2.78018C8.55605 1.61638 10.0862 0.754314 11.7242 0.280176C12.6724 3.59462e-06 13.6207 -0.17241 14.6121 -0.215514H14.6983H14.8276C15 -0.215514 15.1509 -0.237065 15.3017 -0.237065C16.0129 -0.237065 16.7026 -0.431031 17.3923 -0.301721C17.931 -0.193962 18.4698 -0.258617 18.9655 -0.474134C19.8923 -0.883617 21.1423 -1.03448 22.5647 -1.22844C22.6724 -1.25 22.7586 -1.25 22.8233 -1.27155C23.0173 -1.2931 23.319 -1.3362 23.6638 -1.35775C24.2888 -1.42241 25.2586 -1.48707 26.3147 -1.48707C28.2974 -1.48707 29.9785 -1.22844 31.4655 -0.732755L31.5948 -0.689652L31.7026 -0.646548C34.9785 0.603452 36.5948 2.24138 37.8664 3.85776C37.931 3.94397 38.0173 4.03018 38.0388 4.07328L38.0604 4.09483L38.2974 4.31035L38.319 4.35345C39.4181 5.19397 40.3448 6.22845 41.056 7.39225L41.2716 7.73707L41.444 8.10345C42.9957 11.2716 42.5216 14.181 42.306 15.4095L42.2845 15.4741C42.1336 16.3793 41.8966 17.2414 41.5733 18.1035C41.4655 18.9224 41.2716 19.7414 41.0129 20.5172C40.5819 21.8103 39.9569 23.0388 39.1595 24.1595C38.6207 24.9353 37.9741 25.6466 37.2845 26.2716C36.9612 26.5733 36.7457 26.9612 36.7026 27.4138C36.6595 27.7371 36.6164 28.0388 36.5733 28.3621C36.0991 30.8836 35.0216 32.6078 34.5043 33.3836L33.2543 35.194C31.5948 37.3276 29.6336 38.7069 27.2629 39.4397L26.7241 39.6121L26.1423 39.7198C25.4526 39.8491 24.7414 39.9138 24.0517 39.8922C23.944 39.8922 23.8362 39.8922 23.7285 39.8922H23.7069H23.6423C23.6423 39.8922 23.6207 39.8922 23.5776 39.8922H23.4483H23.319H23.0819C22.7586 39.9138 22.4354 39.9569 22.1121 40.0647C20.5388 40.5819 18.7069 40.819 16.4655 40.819Z" stroke="url(#paint2_linear_63_1296)" stroke-width="0.227457" stroke-miterlimit="10"/>
<path opacity="0.8" d="M16.4655 39.0302C15.1293 39.0302 13.8147 38.944 12.7155 38.8578L12.5 38.8362L12.2845 38.8147C12.0905 38.7931 11.875 38.7716 11.6595 38.75C10.625 38.6422 9.05173 38.4698 7.28449 37.6293L7.04742 37.5216L6.8319 37.3922C3.44828 35.4957 2.19828 32.694 1.37931 30.8405C1.31466 30.6897 1.22845 30.4957 1.1638 30.3448C0.797418 29.6121 0.560349 28.9224 0.366384 28.2759L0.32328 28.1681L0.301728 28.0603C-0.193961 26.2931 -0.323272 24.7845 -0.107754 23.3621C0.107763 21.9181 0.689659 20.5603 1.68104 19.1164L1.81035 18.944L1.93966 18.7716C2.02587 18.6638 2.09052 18.556 2.17673 18.4698L2.67242 17.5431C2.84483 17.2414 2.95259 16.9181 2.99569 16.5733C3.31897 14.5043 4.31035 13.0172 4.76294 12.3276C4.78449 12.2845 4.82759 12.2414 4.84914 12.2198L4.9569 12.069C5 11.9828 5.04311 11.875 5.08621 11.7457C5.12931 11.6164 5.19397 11.4224 5.23707 11.25C5.34483 10.3664 5.56035 9.50431 5.86207 8.6638L5.90518 8.55604L5.94828 8.44828C5.96983 8.36207 6.01294 8.29742 6.05604 8.14655C6.27156 7.47845 6.68104 6.25 7.78018 4.9138L8.14656 4.46121L8.53449 4.11638C9.61207 3.125 10.9052 2.4138 12.306 1.98276C13.125 1.74569 13.944 1.59483 14.806 1.55173H14.8707H14.9785C15.1078 1.55173 15.2371 1.55173 15.3879 1.55173C16.1207 1.55173 16.8319 1.63793 17.5431 1.8319C18.1466 1.98276 18.7931 1.91811 19.3535 1.63793C20.2586 1.2069 21.4655 0.732762 22.8664 0.560348C22.9526 0.538796 23.0388 0.538797 23.1035 0.517245C23.2759 0.495693 23.556 0.45259 23.9009 0.431038C24.4828 0.366383 25.4095 0.301728 26.3793 0.301728C28.1466 0.301728 29.6336 0.517245 30.9483 0.969831L31.0345 1.01293L31.1207 1.05604C34.1379 2.19828 35.4741 3.68535 36.5086 5C36.7457 5.28018 36.7672 5.32328 36.9181 5.47414L37.1121 5.64656L37.1767 5.73276C37.6724 6.12069 38.6854 6.91811 39.569 8.36207L39.7414 8.64224L39.8922 8.92242C41.2069 11.5733 40.7974 13.9871 40.6035 15.1509L40.5819 15.2155C40.4526 16.056 40.2155 16.8966 39.8707 17.694V17.7586C39.7845 18.5129 39.6121 19.2672 39.375 19.9785C39.0086 21.1207 38.4698 22.1767 37.7586 23.1466C37.1767 23.9871 36.4655 24.7414 35.6681 25.3879C35.4741 25.5388 35.3233 25.7328 35.2155 25.9483C35.1078 26.1638 35.0431 26.4009 35.0216 26.6379C35 27.1121 34.9353 27.5862 34.8491 28.0603C34.4397 30.2371 33.4914 31.7457 33.0172 32.5L32.0474 33.9224C30.6035 35.8621 28.8793 37.1121 26.7888 37.7586L26.3578 37.8879L25.8836 37.9741C25.3017 38.0819 24.6983 38.125 24.0948 38.125C24.0086 38.125 23.9009 38.125 23.7931 38.125H23.7716H23.6638C23.6422 38.125 23.5991 38.125 23.4914 38.125H23.3836H23.2974L22.8017 38.1466C22.4569 38.1681 22.1121 38.2112 21.7888 38.3405C20.3017 38.8147 18.5991 39.0302 16.4655 39.0302Z" stroke="url(#paint3_linear_63_1296)" stroke-width="0.213233" stroke-miterlimit="10"/>
<path opacity="0.8" d="M16.4655 37.2414C15.194 37.2414 13.9224 37.1552 12.8664 37.069L12.7155 37.0474L12.5647 37.0259C12.3491 37.0043 12.1121 36.9612 11.8966 36.9397C10.9267 36.8319 9.59053 36.681 8.08191 35.9914L7.9095 35.9052L7.73708 35.819C4.8707 34.2026 3.81467 31.8319 3.03881 30.1078C2.9526 29.9353 2.86639 29.7414 2.80174 29.569C2.47846 28.9009 2.26294 28.2759 2.09053 27.7371L2.06898 27.6509L2.00432 27.5862C1.16381 24.6121 1.48708 22.5216 3.12501 20.1293L3.21122 20L3.29743 19.8707C3.40518 19.7414 3.51294 19.5905 3.6207 19.4612C3.77156 19.2672 3.92243 19.0517 4.09484 18.8578C4.2026 18.7285 4.28881 18.5776 4.35346 18.4267L4.54743 17.9526C4.63363 17.7371 4.67674 17.5216 4.69829 17.306C4.8707 15.3879 5.79743 14.0086 6.25001 13.319C6.29312 13.2759 6.33622 13.1897 6.35777 13.1681L6.46553 12.9957L6.50863 12.9526C6.57329 12.8448 6.68105 12.5862 6.76725 12.3276C6.81036 12.1552 6.89656 11.875 6.98277 11.6379V11.6164C7.06898 10.819 7.26294 10.0216 7.54312 9.26724L7.56467 9.20259L7.58622 9.13793C7.62932 9.00862 7.67243 8.90086 7.71553 8.75C7.90949 8.16811 8.23277 7.17673 9.11639 6.07759L9.39656 5.73276L9.67674 5.47414C11.7673 3.57759 14.0948 3.42673 14.8707 3.36207H14.9138H15C15.1078 3.36207 15.2155 3.36207 15.3233 3.36207C16.25 3.36207 17.1552 3.55604 18.0173 3.92242C18.1681 3.98707 18.3405 4.00862 18.4914 4.00862C18.6638 4.00862 18.8147 3.96552 18.9655 3.87931C19.7629 3.42673 21.2069 2.58621 23.0604 2.37069C23.1466 2.34914 23.2328 2.34914 23.2974 2.34914C23.4698 2.32759 23.7285 2.30604 24.0302 2.26293C24.5905 2.21983 25.431 2.15518 26.3362 2.15518C27.9095 2.15518 29.2026 2.34914 30.3017 2.71552L30.3664 2.73707L30.431 2.75862C33.0173 3.72845 34.1164 4.9569 35.0431 6.12069C35.2802 6.44397 35.4095 6.57328 35.6681 6.8319L35.819 6.96121L35.9267 7.09052L36.0129 7.15518C36.444 7.5 37.2629 8.125 37.9957 9.31035L38.125 9.52587L38.2328 9.74138C39.2888 11.8966 38.944 13.8362 38.7716 14.8707V14.9353C38.6423 15.6897 38.4267 16.444 38.125 17.1552L38.1035 17.2198C38.1035 17.2414 38.1035 17.2414 38.0819 17.2845C38.0604 17.3491 38.0604 17.4138 38.0604 17.4785L38.0388 17.5647C37.9741 18.2112 37.8233 18.8362 37.6078 19.4397C37.2845 20.4095 36.8319 21.3147 36.2285 22.1336C35.6466 22.9741 34.9785 23.6638 34.2457 24.2026C33.9224 24.4397 33.6638 24.7414 33.4698 25.1078C33.2759 25.4741 33.1897 25.8621 33.1897 26.2716C33.1897 26.7672 33.125 27.2845 33.0388 27.7802C32.694 29.6336 31.9181 30.8836 31.4224 31.6379L30.7112 32.694C29.4612 34.4397 27.9741 35.5603 26.1854 36.1207L26.0991 36.1422C25.9483 36.1853 25.7974 36.2284 25.6466 36.25L25.5388 36.2716C25.0431 36.3578 24.5474 36.4009 24.0517 36.4009C23.9655 36.4009 23.8793 36.4009 23.7931 36.4009H23.7716C23.7285 36.4009 23.6854 36.4009 23.6423 36.4009C23.5991 36.4009 23.5129 36.4009 23.3405 36.4009H23.2759H23.2112C22.9741 36.4009 22.6724 36.4224 22.4138 36.4224C22.0474 36.444 21.7026 36.5086 21.3578 36.6379C20.0647 37.0259 18.4914 37.2414 16.4655 37.2414Z" stroke="url(#paint4_linear_63_1296)" stroke-width="0.19903" stroke-miterlimit="10"/>
<path opacity="0.8" d="M16.4655 35.4526C15.2371 35.4526 14.0302 35.3664 12.9957 35.2802H12.8879L12.7802 35.2586C12.5431 35.2155 12.2845 35.194 12.0474 35.1724C11.1423 35.0647 10.0216 34.9569 8.81467 34.375L8.68536 34.3103L8.5776 34.2457C6.22846 32.931 5.34484 30.9483 4.65519 29.3535C4.56898 29.1595 4.48277 28.9655 4.39657 28.75C4.11639 28.1897 3.92243 27.6293 3.77157 27.1552L3.75001 27.0905L3.72846 27.0259C3.03881 24.569 3.27588 23.0172 4.61208 21.0776L4.67674 20.9914L4.74139 20.9052C4.84915 20.7543 4.95691 20.625 5.06467 20.4741C5.4095 20.0216 5.75432 19.569 6.25001 19.0302C6.35777 18.9224 6.42243 18.75 6.44398 18.5991L6.46553 18.1035L6.44398 17.9095V17.7155C6.48708 16.1207 7.2845 14.9353 7.71553 14.2888C7.75863 14.2241 7.82329 14.1379 7.84484 14.0948L7.9095 13.9871L7.97415 13.9009C8.06036 13.7716 8.25432 13.319 8.42674 12.9095C8.49139 12.7371 8.5776 12.3922 8.68536 12.1121C8.70691 12.0259 8.70691 12.0043 8.72846 11.8103C8.79312 11.1422 8.96553 10.4741 9.18105 9.84914L9.2026 9.80604L9.22415 9.76293C9.28881 9.59052 9.33191 9.46121 9.39657 9.2888C9.56898 8.77155 9.8276 8.01724 10.4957 7.17673L10.6897 6.93966L10.8836 6.76724C12.3492 5.45259 13.9224 5.19397 15 5.12931H15.0431H15.0862C15.1724 5.12931 15.2371 5.12931 15.3233 5.12931C16.2285 5.12931 17.3276 5.56035 17.9095 5.84052C18.0388 5.90518 18.1897 5.94828 18.3405 5.94828C18.4914 5.94828 18.6423 5.92673 18.7931 5.88362C19.1595 5.75431 19.5043 5.60345 19.8276 5.43104C20.5604 5 21.7673 4.31035 23.2759 4.13793C23.3621 4.11638 23.4267 4.11638 23.4914 4.11638C23.6423 4.09483 23.8793 4.07328 24.181 4.03018C24.6983 3.98707 25.4742 3.92242 26.3147 3.92242C27.6724 3.92242 28.7931 4.07328 29.6983 4.39656L29.7414 4.41811L29.7845 4.43966C31.9397 5.25862 32.8017 6.18535 33.6207 7.24138C33.8793 7.58621 34.0733 7.82328 34.4612 8.16811L34.5474 8.25431L34.6336 8.34052C34.7198 8.42673 34.806 8.49138 34.8923 8.55604C35.2586 8.83621 35.8836 9.3319 36.4224 10.2371L36.5086 10.3664L36.5733 10.5172C37.3707 12.1336 37.1121 13.6638 36.9612 14.569V14.6336C36.8535 15.2586 36.681 15.8621 36.4224 16.444C36.3578 16.5948 36.3147 16.7457 36.2716 16.9181C36.25 17.0259 36.2285 17.1336 36.2285 17.2198L36.2069 17.306C36.1423 17.8233 36.0345 18.3405 35.8621 18.8362C35.6035 19.6336 35.2155 20.3879 34.7414 21.056C34.0086 22.0905 33.1681 22.8233 32.1552 23.2974C31.9181 23.4052 31.7026 23.5776 31.5517 23.8147C31.4009 24.0302 31.3147 24.3103 31.2931 24.569C31.2931 24.6767 31.2931 24.7629 31.2931 24.8276C31.3362 25.6035 31.4009 26.4871 31.2285 27.4138C30.9483 28.9224 30.3017 29.9353 29.8276 30.6897C29.8276 30.6897 27.6293 33.75 25.625 34.375L25.4095 34.4397L25.1724 34.4828C24.7845 34.5474 24.3966 34.5905 23.9871 34.5905C23.9224 34.5905 23.8362 34.5905 23.75 34.5905C23.7069 34.5905 23.6423 34.5905 23.5776 34.5905C23.4914 34.5905 23.3621 34.5905 23.1681 34.6121H23.125H23.0819C22.306 34.6336 21.5948 34.6552 21.3793 34.6983C21.2716 34.7198 21.1638 34.7414 21.056 34.7845C20 35.2371 18.5129 35.4526 16.4655 35.4526Z" stroke="url(#paint5_linear_63_1296)" stroke-width="0.184806" stroke-miterlimit="10"/>
<path opacity="0.8" d="M16.4655 33.6853C15.3017 33.6853 14.1379 33.5991 13.1466 33.5345H13.1035H13.0604C12.7802 33.4914 12.5216 33.4698 12.2845 33.4483C11.444 33.3621 10.5604 33.2543 9.61208 32.8233L9.54742 32.8017L9.48277 32.7802C7.65087 31.7457 6.96122 30.2155 6.31467 28.7285C6.22846 28.5129 6.1207 28.2974 6.01294 28.0819C5.79742 27.6509 5.62501 27.1767 5.4957 26.7241V26.7026V26.681C4.93536 24.7198 5.08622 23.7285 6.1207 22.2198L6.14225 22.1767L6.1638 22.1336C6.29311 21.9828 6.40087 21.8319 6.50863 21.7026C7.00432 21.056 7.43536 20.4957 8.40518 19.5905C8.46984 19.5259 8.53449 19.4397 8.55605 19.3319C8.5776 19.2457 8.5776 19.1379 8.53449 19.0517L8.36208 18.556C8.31898 18.4052 8.29743 18.2328 8.29743 18.0819V17.9526V17.8448C8.34053 16.7672 8.90087 15.9267 9.26725 15.3664C9.33191 15.2802 9.37501 15.194 9.41811 15.1293L9.46122 15.0647L9.50432 15C9.69829 14.7414 10.0216 13.9871 10.194 13.5345C10.2371 13.3836 10.3448 13.0172 10.4526 12.7371C10.5173 12.5216 10.5604 12.306 10.5819 12.0905C10.6466 11.5517 10.7543 11.0129 10.9483 10.5172V10.4957V10.4741C11.0345 10.2586 11.0991 10.0862 11.1423 9.9138C11.2931 9.46121 11.4655 8.94397 11.9397 8.36207L12.0259 8.25431L12.1121 8.16811C13.1466 7.21983 14.2888 7.04742 15.1509 6.98276H15.1724H15.194C15.2371 6.98276 15.3017 6.98276 15.3448 6.98276C16.2069 6.98276 16.8535 7.32759 17.2845 7.56466L17.3923 7.60776H17.4138C17.5431 7.67242 17.6293 7.73707 17.7371 7.78018C17.9957 7.90949 18.319 7.95259 18.5991 7.86638C19.2026 7.71552 20.1293 7.34914 20.7328 7.00431H20.7543C21.4009 6.61638 22.3923 6.05604 23.556 5.92673C23.6207 5.90518 23.7069 5.90518 23.7716 5.90518C23.9009 5.88362 24.1379 5.86207 24.3966 5.84052C24.8707 5.79742 25.6035 5.73276 26.3578 5.73276C27.5216 5.73276 28.4483 5.86207 29.1595 6.09914H29.181H29.2026C30.9267 6.74569 31.5733 7.43535 32.2629 8.34052C32.5431 8.7069 32.8233 9.05173 33.3405 9.50431L33.3836 9.54742L33.4267 9.59052C33.556 9.71983 33.7069 9.84914 33.8793 9.97845C34.181 10.2155 34.6121 10.5388 34.9785 11.1638L35.0216 11.2285L35.0647 11.2931C35.6035 12.4138 35.431 13.4698 35.3017 14.2672V14.3319C35.2155 14.8276 35.0862 15.3017 34.8707 15.7759C34.7629 16.0345 34.6767 16.3147 34.6336 16.5948C34.6121 16.7672 34.5905 16.8966 34.569 17.0043L34.5474 17.0905C34.5043 17.5 34.4181 17.8879 34.2888 18.2759C34.0948 18.9009 33.7931 19.4828 33.4052 20.0216C32.7586 20.9698 32.0259 21.5517 31.056 21.8535C30.5819 22.0043 30.194 22.306 29.9354 22.7155L29.8491 22.8233L29.7629 22.931C29.5259 23.2112 29.5905 24.2888 29.6336 24.9353C29.6767 25.6466 29.7198 26.3793 29.5905 27.069C29.375 28.2543 28.8578 29.0517 28.4052 29.7414C28.4052 29.7414 26.7241 32.1767 25.194 32.6293L25.0862 32.6724L24.9785 32.694C24.6983 32.7371 24.3966 32.7802 24.0948 32.7802C24.0302 32.7802 23.9655 32.7802 23.8793 32.7802C23.8147 32.7802 23.75 32.7802 23.6638 32.7802C23.556 32.7802 23.4052 32.7802 23.1466 32.8017H23.125H23.1035C22.0905 32.8448 21.4655 32.8664 21.1207 32.931C20.8836 32.9741 20.6681 33.0388 20.4526 33.125C19.5259 33.4914 18.2759 33.6853 16.4655 33.6853Z" stroke="url(#paint6_linear_63_1296)" stroke-width="0.184806" stroke-miterlimit="10"/>
</g>
</g>
<g style="mix-blend-mode:soft-light" opacity="0.25">
<path d="M40 20C40 8.9543 31.0457 0 20 0C8.9543 0 0 8.9543 0 20C0 31.0457 8.9543 40 20 40C31.0457 40 40 31.0457 40 20Z" fill="url(#paint7_linear_63_1296)"/>
</g>
</g>
<defs>
<radialGradient id="paint0_radial_63_1296" cx="0" cy="0" r="1" gradientUnits="userSpaceOnUse" gradientTransform="translate(20.0008 22.0895) rotate(90) scale(22.4667)">
<stop offset="0.1667" stop-color="#073183"/>
<stop offset="1" stop-color="#0054F9"/>
</radialGradient>
<linearGradient id="paint1_linear_63_1296" x1="-2.80089" y1="-4.49675" x2="43.0241" y2="43.5992" gradientUnits="userSpaceOnUse">
<stop offset="0.2057" stop-color="#89D0FF"/>
<stop offset="0.3984" stop-color="#EBBF9A"/>
<stop offset="0.6015" stop-color="#EB8280"/>
<stop offset="0.8411" stop-color="#A281FF"/>
</linearGradient>
<linearGradient id="paint2_linear_63_1296" x1="-1.02391" y1="-2.4273" x2="41.2217" y2="42.0932" gradientUnits="userSpaceOnUse">
<stop offset="0.2057" stop-color="#89D0FF"/>
<stop offset="0.3984" stop-color="#EBBF9A"/>
<stop offset="0.6015" stop-color="#EB80DA"/>
<stop offset="0.8411" stop-color="#A281FF"/>
</linearGradient>
<linearGradient id="paint3_linear_63_1296" x1="0.770802" y1="-0.638015" x2="39.4362" y2="40.3063" gradientUnits="userSpaceOnUse">
<stop offset="0.2057" stop-color="#89D0FF"/>
<stop offset="0.3984" stop-color="#EBBF9A"/>
<stop offset="0.6015" stop-color="#EB8280"/>
<stop offset="0.8411" stop-color="#A281FF"/>
</linearGradient>
<linearGradient id="paint4_linear_63_1296" x1="2.56307" y1="1.15748" x2="37.6404" y2="38.5144" gradientUnits="userSpaceOnUse">
<stop offset="0.2057" stop-color="#89D0FF"/>
<stop offset="0.3984" stop-color="#EBBF9A"/>
<stop offset="0.6015" stop-color="#EB80E7"/>
<stop offset="0.8411" stop-color="#A281FF"/>
</linearGradient>
<linearGradient id="paint5_linear_63_1296" x1="4.34488" y1="2.95643" x2="35.8409" y2="36.7233" gradientUnits="userSpaceOnUse">
<stop offset="0.2057" stop-color="#89D0FF"/>
<stop offset="0.3984" stop-color="#EBBF9A"/>
<stop offset="0.6015" stop-color="#EB80D3"/>
<stop offset="0.8411" stop-color="#A281FF"/>
</linearGradient>
<linearGradient id="paint6_linear_63_1296" x1="6.14984" y1="4.73373" x2="34.0614" y2="34.9241" gradientUnits="userSpaceOnUse">
<stop offset="0.2057" stop-color="#89D0FF"/>
<stop offset="0.3984" stop-color="#EBBF9A"/>
<stop offset="0.6015" stop-color="#A280EB"/>
<stop offset="0.8411" stop-color="#A281FF"/>
</linearGradient>
<linearGradient id="paint7_linear_63_1296" x1="20" y1="0" x2="20" y2="40" gradientUnits="userSpaceOnUse">
<stop stop-color="white"/>
<stop offset="0.0666667" stop-color="#FDFDFD"/>
<stop offset="0.133333" stop-color="#F6F6F6"/>
<stop offset="0.2" stop-color="#EAEAEA"/>
<stop offset="0.266667" stop-color="#D9D9D9"/>
<stop offset="0.333333" stop-color="#C4C4C4"/>
<stop offset="0.4" stop-color="#AAAAAA"/>
<stop offset="0.466667" stop-color="#8E8E8E"/>
<stop offset="0.533333" stop-color="#717171"/>
<stop offset="0.6" stop-color="#555555"/>
<stop offset="0.666667" stop-color="#3B3B3B"/>
<stop offset="0.733333" stop-color="#262626"/>
<stop offset="0.8" stop-color="#151515"/>
<stop offset="0.866667" stop-color="#090909"/>
<stop offset="0.933333" stop-color="#020202"/>
<stop offset="1"/>
</linearGradient>
<clipPath id="clip0_63_1296">
<rect width="40" height="40" fill="white"/>
</clipPath>
</defs>
</svg>
