<?xml version="1.0" encoding="UTF-8"?>
<svg width="502px" height="490px" viewBox="0 0 502 490" version="1.1" xmlns="http://www.w3.org/2000/svg" xmlns:xlink="http://www.w3.org/1999/xlink">
    <title>PINU2</title>
    <defs>
        <linearGradient x1="50%" y1="0%" x2="50%" y2="100%" id="linearGradient-1">
            <stop stop-color="#C15EC6" offset="0%"></stop>
            <stop stop-color="#A243B0" offset="79.4536221%"></stop>
            <stop stop-color="#83299A" offset="84.2266281%"></stop>
            <stop stop-color="#7E2597" offset="100%"></stop>
        </linearGradient>
    </defs>
    <g id="Page-1" stroke="none" stroke-width="1" fill="none" fill-rule="evenodd">
        <g id="PINU2" transform="translate(0.000000, 0.908429)">
            <path d="M62,488.091571 L418,488.091571 C416,465.424905 413,445.091571 409,427.091571 C405,409.091571 398.666667,390.758238 390,372.091571 L385,272.091571 L436,272.091571 L454.767457,303.996249 C457.567652,308.75658 463.69667,310.345584 468.457001,307.54539 C470.556549,306.310362 472.133124,304.351469 472.890771,302.036438 L495.134303,234.070091 C499.464961,220.837522 497.426433,206.34556 489.613314,194.82121 L422,95.0915712 L422,95.0915712 C438,73.7582379 450,50.0915712 458,24.0915712 C440,23.0915712 361,5.09157119 311,1.09157119 L209,11.0915712 C201.407104,13.6225364 160.183839,30.5665171 85.3302046,61.9235133 C77.3100989,65.2841922 70.5304419,71.0509189 65.9267883,78.4280885 L16.4896204,157.663002 C6.56906627,173.563068 7.54148752,193.946924 18.9305849,208.830404 L57.3122559,258.988269 C69.3963812,274.776804 91.9916283,277.779881 107.780195,265.695797 C110.73106,263.437296 113.31446,260.735537 115.435389,257.68429 C123.132028,246.637451 129.320231,238.439878 134,233.091571 C132.318541,238.747386 130.162601,250.596185 124,265.091571 C109.778089,298.543694 85.162915,348.928322 74,390.091571 C63.3333333,429.424905 59.3333333,462.091571 62,488.091571 Z" id="purple" fill="#3F005C"></path>
            <path d="M209,11.0915712 C214.333333,13.0915712 223.333333,17.7582379 236,25.0915712 C245.332616,30.4946649 255.182488,41.3055043 263,53.0915712 L263.634681,54.0580859 C271.404479,66.0125038 277,79.2747738 277,99.0915712 C277,138.691571 248.5771,182.211971 222.780868,198.603203 L222,199.091571 C212.432217,204.979437 205.38029,211.797451 195,218.091571 L194.0795,218.64256 C188.354564,222.02799 178.99473,226.844327 166,233.091571 L197,282.091571 L202,293.091571 C214,304.424905 228.666667,315.091571 246,325.091571 L247.181164,325.767243 C264.4911,335.586458 289.764045,346.361234 323,358.091571 L395,233.091571 L376,156.091571 C350,109.424905 341,81.0915712 349,71.0915712 C361,56.0915712 413,76.0915712 406,101.091571 L405.808546,101.749039 C403.695054,108.759791 398.098973,120.348318 397,143.091571 C396.530657,152.804629 403.530657,158.137962 418,159.091571 L399,294.091571 L400.359248,293.714775 C409.754237,291.081585 416.634488,288.540517 421,286.091571 L422.343359,285.328967 C428.909819,281.549993 436.516129,276.317378 444,265.091571 C449.333333,257.091571 453.666667,237.758238 457,207.091571 L421,162.091571 C415.666667,158.758238 413,153.424905 413,146.091571 C413,138.758238 417.333333,121.424905 426,94.0915712 L426.172023,93.0310797 C427.41966,85.1293784 428.362319,74.4828755 429,61.0915712 C429.99,40.3015712 419.2188,37.1533712 413.181483,34.1815892 L412.4368,33.8163712 C407.2656,31.3331712 386.12,22.0915712 349,6.09157119 L346.87316,5.78121718 C317.267912,1.49305927 294.824436,-0.409576134 279.54273,0.0733109684 L279,0.0915711891 C263.349128,0.65053092 240.015794,4.31719759 209,11.0915712 Z M165,59.0915712 C155.765957,76.9000818 151.426098,102.213006 151.980421,135.030344 L152,136.091571 C152.374675,154.825321 150.574202,188.620386 144,210.091571 C140.584396,221.246853 132.917729,234.246853 121,249.091571 L123.017019,236.73093 C125.896864,218.904769 127.891191,205.69165 129,197.091571 L130.024279,189.085883 C138.005035,126.225385 140.921035,91.8087245 143,86.0915712 C145.666667,78.7582379 153,69.7582379 165,59.0915712 Z" id="pink" fill="url(#linearGradient-1)"></path>
            <rect id="white" fill="#FFFFFF" x="363" y="249.091571" width="35" height="28"></rect>
            <path d="M234.165476,154.95188 C243.228254,153.999343 249.381713,141.872963 247.909611,127.866852 C246.43751,113.86074 237.897302,103.278727 228.834524,104.231263 C219.771746,105.183799 216.527898,117.08546 218,131.091571 C219.472102,145.097683 225.102698,155.904416 234.165476,154.95188 Z M373,137.091571 C382.062778,136.139035 384,125.091571 384,115.091571 C384,105.091571 379,93.0915712 371,94.0915712 C363,95.0915712 358,109.091571 359,118.091571 C360,127.091571 363.937222,138.044108 373,137.091571 Z M159,230.091571 C166.333333,238.758238 172,249.091571 176,261.091571 C179.279259,270.929347 189.905445,282.834336 203,291.091571 C213.864314,297.942449 226.837776,301.824287 235,304.091571 C247,307.424905 263.333333,310.424905 284,313.091571 C305.333333,350.424905 330,371.091571 358,375.091571 C386,379.091571 403.666667,365.424905 411,334.091571 C415.666667,324.091571 412.666667,318.091571 402,316.091571 C386,313.091571 298,288.091571 282,278.091571 C266,268.091571 250.093001,248.274206 224,238.091571 C206.604666,231.303148 184.937999,228.636482 159,230.091571 Z" id="beige" fill="#FFF4E4"></path>
            <path d="M286,202.091571 C277.623843,232.042677 313,265.091571 335,271.091571 C349.666667,275.091571 364.666667,271.424905 380,260.091571 C393.333333,269.424905 407.333333,269.091571 422,259.091571 C444,244.091571 446,231.091571 443,232.091571 C441.527832,232.582294 458,213.091571 458,200.091571 C458,187.091571 459,176.091571 452,171.091571 C445,166.091571 398,152.091571 368,153.091571 C338,154.091571 294.376157,172.140466 286,202.091571 Z" id="black" fill="#000000"></path>
            <path d="M369.61691,220.635919 C381.61691,220.635919 389.61691,199.635919 389.61691,185.635919 C389.61691,171.635919 382.61691,154.635919 365.61691,156.635919 C348.61691,158.635919 350.61691,178.635919 350.61691,190.635919 C350.61691,202.635919 357.61691,220.635919 369.61691,220.635919 Z" id="blue" fill="#2B679B" transform="translate(370.080629, 188.555290) rotate(90.000000) translate(-370.080629, -188.555290) "></path>
            <path d="M412,335.091571 C410.679877,366.424905 391.346544,382.091571 354,382.091571 C321,382.091571 296.767037,341.457297 270,305.091571 C249.932172,277.827399 230.425299,252.805493 215,251.091571 C237,242.091571 266,285.091571 286,308.091571 C306,331.091571 316,365.091571 357,367.091571 C384.333333,368.424905 402.666667,357.758238 412,335.091571 Z" id="brown" fill="#3C2620"></path>
            <path d="M313,290.091571 C316.302603,297.49298 318.635937,302.826313 320,306.091571 C332.954199,337.100987 345.576611,351.394495 364,349.091571 C375.486865,347.655713 393.022032,341.272104 398,332.091571 C406.889608,315.697063 399.717929,293.091571 401,293.091571 C402.333333,293.091571 406.666667,282.758238 414,262.091571 L363,270.091571 C352.011382,279.34201 343.011382,285.34201 336,288.091571 C328.988618,290.841133 321.321951,291.507799 313,290.091571 Z" id="gray" fill="#444348"></path>
        </g>
    </g>
</svg>