<?xml version="1.0" encoding="UTF-8"?>
<svg width="1517px" height="1382px" viewBox="0 0 1517 1382" version="1.1" xmlns="http://www.w3.org/2000/svg" xmlns:xlink="http://www.w3.org/1999/xlink">
    <title>IMPLS</title>
    <defs>
        <radialGradient cx="50%" cy="50%" fx="50%" fy="50%" r="55.8014794%" gradientTransform="translate(0.500000,0.500000),scale(0.911009,1.000000),rotate(58.678902),translate(-0.500000,-0.500000)" id="radialGradient-1">
            <stop stop-color="#5D48FF" offset="0%"></stop>
            <stop stop-color="#D76FDB" offset="100%"></stop>
        </radialGradient>
    </defs>
    <g id="Page-1" stroke="none" stroke-width="1" fill="none" fill-rule="evenodd">
        <path d="M295,1253 C338.333333,1301.66667 398,1326 474,1326 L627,1326 L608,1382 L511,1382 C425,1382 353,1339 295,1253 Z M698,632 L719,573 L863.820612,573.350364 C1047.73158,573.767335 1194.90981,573.98358 1305.3553,573.9991 L1318,574 C1466.77335,574 1517,666 1517,742 C1517,775.788122 1493.00237,809.980621 1476.49781,839.118584 L1471.60412,847.797187 C1443.23753,898.056263 1399.72878,974.124629 1355.54004,1050.69348 L1338.49858,1080.18828 C1294.84336,1155.65621 1252.342,1228.43 1225,1274 C1185,1340.66667 1124.66667,1376.66667 1044,1382 L690,1382 L1151,632 L698,632 Z M224,1107 C260.666667,1157 317,1182 393,1182 L675,1182 L656,1238 L434,1238 C341.333333,1238 271.333333,1194.33333 224,1107 Z M150.222,962.121 L150.641023,962.723837 C165.144578,983.371124 215.52,1039 311,1039 L722,1039 L703,1095 L673.586671,1094.85894 C623.533699,1094.6371 575.382955,1094.5181 529.13444,1094.50191 L511.2448,1094.5008 C455.3216,1094.5136 402.24,1094.68 352,1095 C210.7,1095.9 164.109645,991.358296 150.426894,962.549489 L150.222,962.121 Z M149.637417,960.897719 L150.222,962.121 L149.559895,961.152567 C146.130714,956.05795 145.339422,953.731893 147,956 C147.648449,956.885686 148.51211,958.563632 149.637417,960.897719 L149.637417,960.897719 Z M74.9939394,809 C104.331313,866.333333 158.666667,895 238,895 L770,895 L751,951 L279,951 C170.333333,951 102.331313,903.666667 74.9939394,809 Z M827,6.82121026e-13 L366,750 L819,750 L798,809 L653.179388,808.649636 C469.268423,808.232665 322.090193,808.01642 211.6447,808.0009 L199,808 C50.2266479,808 -4.54747351e-13,716 -4.54747351e-13,640 C-4.54747351e-13,606.211878 23.997628,572.019379 40.5021878,542.881416 L45.3958797,534.202813 C73.7624664,483.943737 117.271216,407.875371 161.459956,331.306517 L178.501421,301.811723 C222.156638,226.343786 264.658,153.57 292,108 C332,41.3333333 392.333333,5.33333333 473,6.82121026e-13 L827,6.82121026e-13 Z M1238,431 C1346.66667,431 1414.66869,478.333333 1442.00606,573 C1412.66869,515.666667 1358.33333,487 1279,487 L747,487 L766,431 L1238,431 Z M1367.36258,421.102281 L1366.777,419.878 L1366.90592,420.062704 C1370.78403,425.697959 1371.74361,428.381512 1370,426 C1369.35155,425.114314 1368.48789,423.436368 1367.36258,421.102281 L1367.36258,421.102281 Z M1165,287 C1299.235,286.145 1347.99455,380.451138 1364.26616,414.58384 L1366.777,419.878 L1366.35898,419.276163 C1351.85542,398.628876 1301.48,343 1206,343 L795,343 L814,287 L833.3075,287.095 C955.0025,287.665 1065.56667,287.633333 1165,287 Z M1083,144 C1175.66667,144 1245.66667,187.666667 1293,275 C1256.33333,225 1200,200 1124,200 L842,200 L861,144 L1083,144 Z M1006,0 C1092,0 1164,43 1222,129 C1178.66667,80.3333333 1119,56 1043,56 L890,56 L909,0 L1006,0 Z" id="IMPLS" fill="url(#radialGradient-1)"></path>
    </g>
</svg>