<?xml version="1.0" encoding="UTF-8"?>
<svg width="284px" height="284px" viewBox="0 0 284 284" version="1.1" xmlns="http://www.w3.org/2000/svg" xmlns:xlink="http://www.w3.org/1999/xlink">
    <title>TNT</title>
    <defs>
        <radialGradient cx="61.2620967%" cy="50%" fx="61.2620967%" fy="50%" r="61.2620967%" id="radialGradient-1">
            <stop stop-color="#FAA428" offset="0%"></stop>
            <stop stop-color="#F58329" offset="100%"></stop>
        </radialGradient>
    </defs>
    <g id="Page-1" stroke="none" stroke-width="1" fill="none" fill-rule="evenodd">
        <g id="TNT">
            <circle id="bg" fill="url(#radialGradient-1)" cx="142" cy="142" r="142"></circle>
            <path d="M218.866076,121.26679 L218.866076,201.041328 L245.761483,201.041328 L245.761483,121.26679 L275.406198,121.26679 C276.382402,127.56214 276.924737,134.005033 276.99271,140.563067 L277,141.970111 L277,141.980074 C277,216.533948 216.555064,277 142.004981,277 C67.4548976,277 7,216.543911 7,141.980074 C7,134.936162 7.53790814,128.021771 8.58384062,121.276753 L37.4117322,121.276753 L37.4117322,201.051292 L64.7553957,201.051292 L64.7553957,121.276753 L95.3962369,121.276753 L95.3962369,201.051292 L121.524626,201.051292 L121.524626,141.58155 L122.082457,141.58155 L156.867183,193.668635 C160.323741,199.158303 163.521306,201.051292 170.165468,201.051292 L188.125623,201.051292 L188.125623,121.26679 L218.866076,121.26679 Z M141.955174,7 C202.479801,7 253.680686,46.8225092 270.824018,101.689299 L162.505257,101.689299 L162.505257,151.634317 L161.558937,151.634317 L134.225235,109.061993 C130.908135,103.562362 127.581074,101.689299 120.916989,101.689299 L13.0863309,101.689299 C30.2296624,46.8225092 81.4305479,7 141.955174,7 Z" id="black" fill="#000000" fill-rule="nonzero"></path>
        </g>
    </g>
</svg>