<?xml version="1.0" encoding="UTF-8"?>
<svg width="832px" height="961px" viewBox="0 0 832 961" version="1.1" xmlns="http://www.w3.org/2000/svg" xmlns:xlink="http://www.w3.org/1999/xlink">
    <title>B9</title>
    <g id="main" stroke="none" stroke-width="1" fill="none" fill-rule="evenodd">
        <g id="B9" fill-rule="nonzero">
            <polygon id="Path" fill="#A0A0A0" points="415.6 0 175.64 137.6 176.77 619.86 415.6 756.52 415.6 628.89 286.33 556.61 282.93 407.61 415.6 332.99 415.6 206.49 287.45 281.03 287.45 204.23 415.6 130.82"></polygon>
            <polygon id="Path" fill="#A0A0A0" points="110.14 176 0 241.51 0 721.5 415.6 960.67 415.6 829.93 115.78 659.39"></polygon>
            <polygon id="Path" fill="#FFFFFF" points="721.06 784.67 831.2 719.16 831.2 239.16 415.6 0 415.6 130.74 715.42 301.28"></polygon>
            <polygon id="Path" fill="#FFFFFF" points="415.6 960.67 655.56 823.07 654.43 340.81 415.6 204.15 415.6 331.77 544.88 404.06 548.28 553.06 415.6 627.68 415.6 754.17 543.75 679.63 543.75 756.43 415.6 829.84"></polygon>
        </g>
    </g>
</svg>