<?xml version="1.0" encoding="UTF-8"?>
<svg width="252px" height="252px" viewBox="0 0 252 252" version="1.1" xmlns="http://www.w3.org/2000/svg" xmlns:xlink="http://www.w3.org/1999/xlink">
    <title>PTS</title>
    <defs>
        <radialGradient cx="50.0002202%" cy="50.0001534%" fx="50.0002202%" fy="50.0001534%" r="50.0002175%" gradientTransform="translate(0.500002,0.500002),scale(1.000000,0.999984),translate(-0.500002,-0.500002)" id="radialGradient-1">
            <stop stop-color="#E72B6F" offset="0%"></stop>
            <stop stop-color="#D4175B" offset="100%"></stop>
        </radialGradient>
    </defs>
    <g id="og" stroke="none" stroke-width="1" fill="none" fill-rule="evenodd">
        <g id="PTS" fill-rule="nonzero">
            <path d="M125.889,0 C56.362,0 0,56.364 0,125.892 C0,195.419 56.36,251.782 125.889,251.782 C195.415,251.782 251.778,195.42 251.778,125.892 C251.778,56.364 195.415,0 125.889,0 Z" id="Path" fill="url(#radialGradient-1)"></path>
            <path d="M203.973,137.907 C203.602,137.907 203.228,137.907 202.858,137.907 C186.004,137.907 169.149,137.907 152.293,137.907 C164.48,148.637 176.706,162.031 188.887,174.215 C192.961,178.292 193.003,184.786 188.933,188.862 C188.887,188.906 188.839,188.894 188.793,188.935 C188.774,188.955 188.761,188.948 188.744,188.965 C184.669,193.04 177.764,193.028 173.687,188.952 C173.426,188.684 172.653,188.42 172.396,188.159 C160.472,176.238 147.646,164.313 135.938,152.4 C135.938,169.621 135.938,186.845 135.938,204.074 C135.938,209.841 130.972,214.652 125.208,214.652 C119.438,214.652 114.477,209.839 114.477,204.074 C114.477,203.702 114.477,203.329 114.477,202.963 C114.477,186.108 114.477,169.254 114.477,152.4 C103.747,164.579 90.967,176.812 78.788,188.991 C74.715,193.068 68.517,193.112 64.445,189.039 C60.368,184.965 60.485,178.249 64.562,174.176 C64.822,173.916 65.145,173.693 65.407,173.429 C77.33,161.512 89.307,148.638 101.227,137.908 C83.998,137.908 66.771,137.908 49.544,137.908 C43.773,137.908 38.966,131.967 38.966,126.201 C38.966,120.429 43.775,114.493 49.544,114.493 C49.917,114.493 50.288,114.493 50.655,114.493 C67.51,114.493 84.366,114.493 101.219,114.493 C89.039,105.713 76.703,91.03 64.525,78.853 C60.451,74.777 60.297,68.826 64.373,64.752 C64.382,64.743 64.393,64.75 64.401,64.743 C64.464,64.676 64.518,64.616 64.584,64.551 C68.66,60.474 75.374,60.595 79.451,64.671 C79.716,64.933 103.745,89.413 114.475,101.331 C114.475,84.104 114.475,66.881 114.475,49.655 C114.475,43.888 119.438,39.077 125.206,39.077 C130.972,39.077 135.936,43.89 135.936,49.655 C135.936,50.025 135.936,50.398 135.936,50.77 C135.936,67.624 135.936,84.479 135.936,101.333 C147.644,89.15 160.997,76.87 173.181,64.687 C177.255,60.613 184.598,60.506 188.675,64.583 C192.542,68.45 192.812,74.596 189.334,78.696 C189.097,78.994 188.883,79.287 188.606,79.562 C188.424,79.74 188.309,79.629 188.161,79.62 C188.116,79.646 188.081,79.595 188.036,79.639 C176.117,91.556 164.214,105.711 152.296,114.493 C169.52,114.493 186.745,114.493 203.973,114.493 C209.738,114.493 214.549,120.429 214.549,126.2 C214.549,131.965 209.737,137.907 203.973,137.907 Z" id="Path" fill="#FFFFFF"></path>
        </g>
    </g>
</svg>