<?xml version="1.0" encoding="UTF-8"?>
<svg width="96px" height="96px" viewBox="0 0 96 96" version="1.1" xmlns="http://www.w3.org/2000/svg" xmlns:xlink="http://www.w3.org/1999/xlink">
    <title>GRT</title>
    <defs>
        <linearGradient x1="73.4862558%" y1="5.65447717%" x2="26.3790332%" y2="94.2655137%" id="linearGradient-1">
            <stop stop-color="#00EAFF" offset="0%"></stop>
            <stop stop-color="#0080FF" offset="25.2530882%"></stop>
            <stop stop-color="#8000FF" offset="49.7394282%"></stop>
            <stop stop-color="#E619E6" offset="74.9912298%"></stop>
            <stop stop-color="#FF0000" offset="99.9136118%"></stop>
        </linearGradient>
    </defs>
    <g id="Page-1" stroke="none" stroke-width="1" fill="none" fill-rule="evenodd">
        <g id="GRT">
            <circle id="bg" fill="url(#linearGradient-1)" fill-rule="nonzero" cx="48" cy="48" r="48"></circle>
            <path d="M47.3,54.2 C40.2,54.2 34.5,48.5 34.5,41.4 C34.5,34.3 40.2,28.6 47.3,28.6 C54.4,28.6 60.1,34.3 60.1,41.4 C60.1,48.5 54.4,54.2 47.3,54.2 M47.3,22.2 C57.9,22.2 66.5,30.8 66.5,41.4 C66.5,52 57.9,60.6 47.3,60.6 C36.7,60.6 28.1,52 28.1,41.4 C28.1,30.8 36.7,22.2 47.3,22.2 Z M65.6,61.6 C66.9,62.9 66.9,64.9 65.6,66.1 L52.8,78.9 C51.5,80.2 49.5,80.2 48.3,78.9 C47,77.6 47,75.6 48.3,74.4 L61.1,61.6 C62.3,60.3 64.4,60.3 65.6,61.6 Z M73,25.4 C73,27.2 71.6,28.6 69.8,28.6 C68,28.6 66.6,27.2 66.6,25.4 C66.6,23.6 68,22.2 69.8,22.2 C71.5,22.2 73,23.6 73,25.4 Z" id="g" fill="#FFFFFF"></path>
        </g>
    </g>
</svg>