<?xml version="1.0" encoding="UTF-8"?>
<svg width="186px" height="186px" viewBox="0 0 186 186" version="1.1" xmlns="http://www.w3.org/2000/svg" xmlns:xlink="http://www.w3.org/1999/xlink">
    <title>pAPE</title>
    <defs>
        <linearGradient x1="73.4958178%" y1="5.6741128%" x2="26.3713148%" y2="94.2307304%" id="linearGradient-1">
            <stop stop-color="#00EAFF" offset="0%"></stop>
            <stop stop-color="#0080FF" offset="25.2530882%"></stop>
            <stop stop-color="#8000FF" offset="49.7394282%"></stop>
            <stop stop-color="#E619E6" offset="74.9912298%"></stop>
            <stop stop-color="#FF0000" offset="99.9136118%"></stop>
        </linearGradient>
        <path d="M185.6,92.8 C185.6,41.5 144,0 92.8,0 C41.5,0 0,41.5 0,92.8 C0,144 41.5,185.6 92.8,185.6 C144,185.6 185.6,144 185.6,92.8 Z" id="path-2"></path>
    </defs>
    <g id="Page-1" stroke="none" stroke-width="1" fill="none" fill-rule="evenodd">
        <g id="pAPE">
            <path d="M185.6,92.8 C185.6,41.5 144,0 92.8,0 C41.5,0 0,41.5 0,92.8 C0,144 41.5,185.6 92.8,185.6 C144,185.6 185.6,144 185.6,92.8 Z" id="bg" fill="url(#linearGradient-1)" fill-rule="nonzero"></path>
            <path d="M127.9,95.8 C130.4,96.7 132.6,97.7 133,98.1 C133.1,98.2 133.1,98.3 133.1,98.4 C132.8,99.1 132.3,99.6 131.8,100.2 C131.2,100.9 130.5,101.7 129.9,103 C129,104.8 128.7,106.4 128.6,110.6 C128.4,115.5 128.6,118.2 128.8,120.2 C128.9,122.1 129,123.3 128.7,125.2 C128,129 126.4,131.5 124.3,134.7 L123.866358,135.367095 C121.405556,139.146914 118.855556,142.872222 114.7,144.1 C114.370588,144.182353 114.312457,144.196886 113.631976,144.19945 L113.1,144.2 L112.976595,144.200006 L112.4104,144.2008 C111.364,144.204 109.78,144.22 107.3,144.3 C101.5,144.5 98.6,144.6 96.2,145.1 C93.6,145.6 92.3,146.2 90.9,146.7 C89.7,147.2 88.6,147.6 86.5,148.1 C85.2,148.4 83.3,148.6 76.8,148.7 L74.7720202,148.699336 C69.1388823,148.693579 65.3517241,148.637931 60.6,148.1 C53.2,147.3 49.5,146.8 47,145.5 C41.3115385,142.459615 38.7973743,137.01446 34.9291392,128.126783 L34.7,127.6 C34.7,127.5 34.8,127.4 34.9,127.4 L35.5,127.7 C35.7,127.8 35.9,127.8 36,127.8 C36.4,127.9 36.8,127.9 37.2,127.8 C37.28,127.8 37.296,127.8 37.3504,127.7488 L37.4,127.7 C37.5,127.7 37.6,127.7 37.6,127.8 C37.9,128.5 38.3,129.1 39,129.5 C39.7,129.9 40.5,129.9 41.2,129.9 C42,129.9 42.8,129.8 43.6,129.7 C44,129.7 44.4,129.9 44.6,130.2 C45.3,132 46.2,133.2 47.6,133.4 L47.9,133.4 C48.2,133.4 48.7,133.3 49.3,132.9 C49.8,132.5 50.6,132.8 51,133.3 C51.3,133.8 51.7,134.1 52.1,134.4 C53.5,135.8 56.9,136.5 59.7,136.5 C61.2,136.5 62.6,136.3 63.4,135.9 C64.6,135.3 64.6,134.5 64.5,134.1 C64.4,133.5 64.3,132.8 64.2,132.2 C64.2,132.1 64.3,132.1 64.3,132.2 C64.5,132.6 64.7,133 65.2,133.1 L65.4,133.1 C66.2,133.1 67.4,133.4 67.6,134.1 C67.7,134.5 67.9,134.8 68.1,135.2 C68.6,135.9 69.5,136.8 71.4,136.9 L71.5,136.9 C73.7,136.9 75.4,136.2 76.5,134.8 L76.559375,134.725 L76.640625,134.575 C76.65625,134.55 76.675,134.525 76.7,134.5 C77.1,133.9 78.3,133.9 78.8,134.4 C79.4,134.9 80.1,135.2 80.9,135.2 L81.3,135.2 C82.3,135.1 83.1,134.6 83.8,133.7 C84.2,133.1 84.5,132.4 84.7,131.6 C84.8,131.4 85.1,131.3 85.3,131.5 C85.7,131.9 86.4,132.3 87.4,132.3 C87.6,132.3 87.9,132.3 88.2,132.2 C90.1,131.8 91.1,130.2 91.5,128.5 C91.5,128.4 91.6,128.4 91.6,128.5 C92.1,129.1 93,129.8 94.5,129.8 L94.7,129.8 C95.5,129.8 96.2,129.4 96.7,128.8 C97.3,128 97.5,126.8 97.6,125.7 C97.6,125.4 97.8,125.1 98.2,124.9 C99.8,124.2 101.8,122.7 102.4,121.7 C102.4,121.7 102.4,121.6 102.5,121.6 C102.6,121.3 102.9,121.1 103.1,121.1 C104.4,120.9 104.9,120.6 105.4,120.4 C105.8,120.2 106.1,120.1 107.1,119.9 C113.318519,118.962963 115.255693,118.606447 116.682223,117.903231 L116.865706,117.809465 C117.046914,117.71358 117.222222,117.611111 117.4,117.5 C119.56,116.06 119.857,114.134 119.9677,112.2323 L119.989915,111.810307 L120,111.6 C120.1,109.8 120.2,107.8 121.6,105.4 C122.1,104.5 122.7,103.5 123.3,102.3 C124.4,100.3 125.9,97.5 127,96 C127.2,95.7 127.6,95.6 127.9,95.8 Z M70.4,126.8 L76,127.1 C76.1,127.5 76.1,128 76.1,128.5 C76.2,130.2 76,132.2 75,133.4 C74.2,134.4 73,134.9 71.3,134.8 C70.1,134.8 69.7,134.3 69.5,134 C68.6,132.5 69.5,129 70.4,126.8 Z M62.9,114.7 C62.9,115.1 62.8,115.7 62.7,116.3 C62.3,117.5 62.1,118.6 62,119.9 C61.7,122.4 61.5,125.8 61.9,130.2 C62,131.4 62.2,132.7 62.4,134 C62.1,134.2 61,134.5 59.2,134.4 C56.6,134.3 54,133.7 53.2,132.8 L53.1,132.7 C52.5,132.2 52,131.8 52,130.9 C52,130.6 52.1,130.3 52.4,129.8 C52.6,129.6 52.8,129.3 53,128.9 C53.4,128.3 54,127.6 54.6,126.6 C56.3,123.8 56.9,122.9 57.7,121.8 L57.759375,121.725 L57.840625,121.575 C57.85625,121.55 57.875,121.525 57.9,121.5 C58.4,120.9 58.9,120.1 59.8,118.8 C60.4,117.9 60.9,117.1 61.4,116.5 C62,115.642857 62.4530612,115.153061 62.7591837,114.841691 L62.9,114.7 Z M83.5,125.1 C83.5,126.6 83.6,130.7 82.3,132.5 C82,132.9 81.6,133.2 81.2,133.2 C80.7,133.3 80.4,133.1 80.1,132.9 C78.8,131.7 78.9,127.8 79,125.9 C80.7,125.5 82.6,125.2 83.5,125.1 Z M44.5,120.8 C46.0407407,121.666667 48.6942387,121.884225 52.4604938,121.899152 L52.9,121.9 C53.1,122 53.4,122 53.6,122.1 C53.5,123.2 52.3,126 50.4,128.7 C48.8,130.9 47.8,131.5 47.6,131.5 C46.8,131.4 46.1,129.5 45.5,127.6 C45.3,126.8 45,126.1 44.9,125.4 C44.5,124 44.4,122 44.5,120.8 Z M67.3,115.8 C68.0111111,115.8 68.8012346,115.958025 69.529904,116.274074 L69.8,116.4 C70.2,116.6 70.8,117.1 70.8,118.4 C71,120.2 70.1,122.6 69,124.8 C67.8,127.2 66.4,129.4 65.5,130.5 C64.7,128.5 63.4,123.8 63.8,120.1 L63.8,119.8 C63.9,118.6 64.2,117.6 64.8,116.7 C65.2,116.1 66.2,115.8 67.3,115.8 Z M89.8,123.5 C89.9,124.3 90,125.3 89.9,126.4 C89.8,128 89.3,129.9 87.8,130.2 C87.1,130.3 86.8,130.1 86.6,129.9 C85.6,129 85.5,126.2 85.6,124.2 C86.3,124.2 87.1,124.1 88.1,123.9 C88.7,123.8 89.3,123.6 89.8,123.5 Z M95.7,122.4 C95.9,124.1 96,126.4 95.3,127.3 C95.1,127.5 95,127.6 94.7,127.6 C93.9,127.6 93.4,127.4 93.1,127 C92.4,126.1 92.5,124.3 92.6,123.2 L95.7,122.4 Z M39,119.3 C40.1,119.7 41.3,120 42.5,120.2 C42.2,122.2 42.7,125.1 42.9,125.9 C43.2,126.3 43.3,126.8 43.4,127.2 L43.3,127.3 C43.275,127.325 43.25,127.35 43.2,127.4 L43.1,127.4 C42.8,127.4 42.5,127.5 42.2,127.5 C41.6,127.5 41,127.6 40.4,127.5 C40.1,127.5 39.8,127.4 39.6,127.2 C39.4,126.9 39.3,126.3 39.2,125.9 C38.8,123.7 38.8,121.5 39,119.3 Z M35.1,117.7 C35.3,117.8 35.6,117.9 35.9,118 C36.3,118.2 36.6,118.4 37,118.5 C36.8,120 36.7,121.5 36.8,123 C36.8,123.666667 36.8694444,124.333333 36.950463,125.05787 L37,125.5 L36.2,125.5 C36,125.4 36,125.4 35.8,125.3 C35.6,125.2 35.4,124.9 35.2,124.6 C34.8,123.9 34.7,123.1 34.7,122.3 C34.6,120.8 34.8,119.2 35.1,117.7 Z M78,117 C78.7,117.7 77.4,121 76.9,122.4 C76.7,122.9 76.5,123.4 76.4,123.9 C75.9,124.1 74.4,123.9 72.9,123.6 L73.9,117.1 C75.6,116.6 77.6,116.5 78,117 Z M83.1,117.2 C84,117.8 84.2,118.7 83.8,119.8 C83.6,120.3 83.4,121.7 83.3,122.7 L79.2,122.6 C79.4,121.3 79.8,120 80.1,119 C80.5,118 80.8,117.2 81.2,117 C81.6,116.8 82.5,116.7 83.1,117.2 Z M89.3,116.3 C89.2133333,117.166667 89.2017778,118.934667 89.200237,120.236978 L89.2,120.8 L85.9,122 C86.1,120.7 86.3,118.9 86.4,117.7 C86.5,116.9 86.7,116.6 86.8,116.5 C86.8,116.5 86.9,116.4 87,116.4 L87.2,116.4 L89.3,116.3 Z M70.2,40.1 C71.8,40.1 73.4,41 75.2,42 C77.6,43.3 80.3,44.7 83.7,44.9 C85.3,45 87.3,44.5 89.4,43.9 L89.7834306,43.8542513 C95.6112949,43.1672495 104.826087,42.476087 110.5,45.9 C115.9,49.2 117,56.5 117.4,63.2 C117.5,65.2 117.3,67.6 117.2,70.1 C116.8,77.3 116.3,84.7 121.4,86.1 C122.0125,86.275 122.990799,86.5690972 124.235648,86.9798105 L124.785185,87.162963 C127.8,88.1777778 132.133333,89.8 136.6,92 C137.1,92.2 137.1,93 136.7,93.3 C136.7,93.3 136.7,93.4 136.6,93.4 C136.5,93.5 136.3,93.6 136.1,93.7 C135.6,94.1 135.1,94.4 134.6,95 C134.3,95.3 133.9,95.4 133.6,95.2 C132.1,94.4 130,93.4 127.7,92.5 L127.6,92.5 C127.5,92.5 127.4,92.4 127.3,92.4 L126.86773,92.2352366 C124.425,91.3126543 122.111111,90.5833333 120.6,90.3 C115.8,89.5 112.3,92.2 111.1,93.1 C109.6,94.1 109.3,94.7 109.1,95.7 C109,96.1 108.9,96.6 108,97.9 C106.1,100.5 105,101.2 104,101.8 C103.1,102.4 102.2,102.9 101.3,104.4 C100.3,105.9 100.4,107.4 100.5,109.3 C100.588889,110.1 100.598765,111.058025 100.599863,112.174074 L100.6,113 C100.6,116.5 100.4,118.2 100.3,119.1 C100.2,119.5 100.1,119.7 100.1,119.8 L100.1,119.9 C99.8,120.3 99,120.9 98.2,121.4 C97.9,121.7 97.4,121.4 97.3,121 L97.3,120.9008 L97.2,120.4 L97.2330078,120.16582 C97.2904297,119.679492 97.2986328,119.087695 97.2998047,118.432617 L97.3,117.5 C97.3,117.4 97.30625,117.3 97.315625,117.2 L97.384375,116.6 L97.4,116.3 C97.5,115.3 97.6,114.2 96.6,113.7 C95.6,113.2 94.3,113.5 93.2,113.7 C92.9,113.8 92.6,113.9 92.4,113.9 L92.3,113.9 C91.8,114 90,114.2 89.4,114.2 L87.1,114.3 C86.5,114.3 85.9,114.4 85.5,114.8 C85.3,114.9 85.2,115 85.1,115.2 C84.9,115.4 84.5,115.5 84.3,115.3 C83.1,114.2 81.3,114.3 80.2,114.9 C80.1,114.9 79.9,115.1 79.7,115.3 C79.6,115.4 79.5,115.4 79.4,115.3 C77.8,113.6 73.6,114.8 72.8,115.1 L72.5,115.2 C72.4,115.3 72.3,115.4 72.3,115.5 L72.3,115.8 L72.1894376,115.60727 C71.8679012,115.112346 71.3444444,114.766667 70.9,114.5 C69.4,113.7 67.4,113.4 65.7,113.9 C65.3,114.1 64.8,113.7 64.5,113.3 C64.3,113 64.1,112.8 63.8,112.7 C63.2,112.5 62.6,112.6 61.8,113.2 C61.4,113.6 60.7,113.4 60.5,112.9 C60.2,112 59.6,111.2 58.8,110.6 C58.3,110.2 57.8,110.1 57.3,109.9 C56.3,109.5 55.1,109.3 54,109.7 C53.7,109.8 53.4,110 53.2,110.1 C52.8,110.3 52.3,110.2 52,109.9 C51.6,109.4 51,109 50.4,108.8 C49.6,108.5 48.7,108.5 47.9,108.7 C47.6,108.8 47.3,108.7 47.1,108.5 C46.4,107.8 45.3,107.5 44.3,107.4 C43.5,107.3 42.6,107.3 41.8,107.6 C41.6,107.7 41.3,107.7 41.2,107.5 C40.4,106.6 39.2,106.1 38,106 L37,106 C36.7,106 36.6,105.8 36.7,105.6 C38.2,103.6 40.5,100.9 43.6,98.1 C48.5,93.7 48.9,92.4 48.7,89.8 L48.7,89.5 C48.6,87.8 47.9,86.6 47.4,85.6 C46.9,84.6 46.4,83.7 46.3,82.2 C46.2,81.3 47.5,78.3 48.1,77.5 C49,76.4 49.6,75.4 50.1,74.6 C50.5,74.1 50.8,73.5 51.1,73.2 C53.3,70.2 54.1,67.7 55,64.6 C55.3,63.4 55.7,62.2 56.2,60.8 C56.9,58.7 57,57.3 57.2,56 C57.4,54.6 57.5,53.1 58.5,50.3 C60.4,44.8 61,43.6 61.5,43.2 C63.4,41.5 65.5,40.4 70,40.1 L70.2,40.1 Z M95.6,115.6 C95.6,115.8 95.6,116.1 95.5,116.3 C95.4142857,116.642857 95.4020408,117.059184 95.4002915,117.54898 L95.4,120.1 C94.4,120.4 93.6,120.4 92.6,120.4 L92.6,117.8 C92.6,117.2 92.6,116.3 92.7,116 C93,116 93.3,115.9 93.6,115.8 C94.2,115.7 95.1,115.5 95.6,115.6 Z M55.5,112.1 L55.7921296,112.15787 C56.2666667,112.266667 56.6833333,112.433333 57.1,112.6 L57.2,112.6 C57.3,112.6 57.3,112.7 57.4,112.7 L57.5,112.8 L57.5496,112.8008 C57.59312,112.80336 57.612064,112.814112 57.6588608,112.85927 L57.8,113 L57.859375,113.075 L57.940625,113.225 L58,113.3 C58,113.4 58.1,113.6 58.1,113.6 C58.5,114.5 58.6,115.3 58.7,116.2 C58.7,116.4 58.8,116.7 59.1,116.8 C58.9,117.2 58.6,117.6 58.3,118 C57.8,118.8 57.3,119.4 57,119.9 L56.8,119.9 C55.4,120 53.9,119.9 52.5,119.7 C51.9,119.6 51.2,119.5 50.5,119.4 C50.2,119.3 49.9,119.3 49.6,119.2 C49.6,119.1 49.7,119.1 49.7,119 C50,118.6 50.2,118.3 50.5,117.9 C51,117.2 51.4,116.6 51.9,115.9 C52.4,115.2 52.9,114.4 53.4,113.7 L54,112.8 L54,112.7 L54.1,112.6 C54.15,112.55 54.175,112.525 54.2,112.5 L54.4,112.3 C54.5,112.3 54.5,112.2 54.6,112.2 C54.8,112.2 54.9,112.1 55,112.1 L55.5,112.1 Z M49.4,111 C49.5,111 49.6,111.1 49.8,111.1 C49.8,111.1 49.9,111.1 49.9,111.2 C50,111.3 50.1,111.3 50.2,111.4 C50,111.3 50.4,111.7 50.4,111.6 C50.5714286,112.114286 50.6693878,112.408163 50.7568513,112.859475 L50.8,113.1 C50.1,114.2 49.4,115.2 48.7,116.2 L48.415625,116.575 L47.884375,117.325 C47.79375,117.45 47.7,117.575 47.6,117.7 L47.434375,117.925 L47.065625,118.375 C47.00625,118.45 46.95,118.525 46.9,118.6 C46.3,118.5 45.8,118.3 45.2,118.2 C44.7,118.1 44.3,117.9 43.8,117.7 C43.7,117.7 43.6,117.6 43.5,117.6 C43.425,117.525 43.35,117.39375 43.275,117.290625 L43.2,117.2 C43.4,116.9 43.5,116.5 43.7,116.2 C44,115.6 44.3,115 44.7,114.4 C45.3,113.4 46,112.3 47.1,111.6 C47.2,111.6 47.2,111.5 47.3,111.5 C47.7,111.3 48.1,111.1 48.6,111 L49.4,111 Z M120.1,93 C121.3,93.2 122.6,93.6 124,94.1 C124.4,94.2 124.6,94.7 124.3,95.1 C123.4,96.5 122.3,98.5 121,100.8 C120.4,101.9 119.8,103 119.3,103.8 C117.6,106.7 117.5,109.2 117.4,111.1 C117.3,113.2 117.2,114.1 115.9,114.9 C114.9,115.6 113.8,115.8 106.6,116.9 C105.3,117.1 104.8,117.3 104.3,117.6 C104.2,117.7 104,117.7 103.9,117.8 C103.5,118 103.1,117.6 103.1,117.2 C103.191667,116.283333 103.199306,115.114583 103.199942,113.616725 L103.2,112.9 C103.2,111.5 103.2,110.3 103.1,109.4 C103,107.6 103,106.8 103.5,106 C104.1,105 104.6,104.7 105.3,104.2 C106.4,103.5 107.9,102.6 110,99.6 C111.2,98 111.4,97.1 111.6,96.4 C111.7,96.1 111.7,96 112.6,95.3 C113.5,94.6 116.4,92.4 120.1,93 Z M43.9,109.9 C44.4,109.9 44.9,109.9 45.3,110.1 C45.2,110.1 45.3,110.2 45.4,110.2 C44.1,111.2 43.2,112.6 42.5,114.1 L41.3,116.5 C41.3,116.56 41.264,116.62 41.2352,116.6584 L41.2,116.7 C40.8,116.6 40.4,116.5 40.1,116.4 C39.7,116.3 39.3,116.1 38.9,116 L38.765625,115.925 L38.534375,115.775 C38.49375,115.75 38.45,115.725 38.4,115.7 C38.8,115 39.2,114.3 39.7,113.6 C40.3,112.7 41,111.7 41.7,110.9 C42,110.6 42.3,110.2 42.6,110 C43,109.8 43.4,109.8 43.9,109.9 Z M38.1,108.5 C38.7,108.6 39.3,109 39.8,109.5 C38.8,110.7 37.9,112 37.1,113.4 C36.8,113.9 36.4,114.5 36.1,115.1 C35.7,115 35.3,114.8 35,114.6 C34.7,114.4 34.4,114.2 34.2,114 L34.109375,113.925 L33.890625,113.775 C33.85625,113.75 33.825,113.725 33.8,113.7 C33.8,113.7 33.7,113.7 33.7,113.6 C33.8,113.3 34,113.1 34,112.9 C34.2,112.4 34.4,112 34.7,111.6 C35.2,110.8 35.7,110 36.3,109.2 C36.5,108.9 36.7,108.6 37.1,108.5 C37.4,108.4 37.8,108.5 38.1,108.5 Z M57.8,77.5 C57.6,77.6 57.4,77.6 57.2,77.7 C57.1,77.7 57,77.8 56.9,77.8 C56.7,77.9 56.4,78 56.2,78.2 L56.1,78.3 C56.0833333,78.3166667 56.0666667,78.3333333 56.0425926,78.3574074 L55.9,78.5 C55.875,78.525 55.85,78.55 55.8,78.6 C55.75,78.65 55.70625,78.7 55.665625,78.75 L55.434375,79.05 L55.3,79.2 C54.4,80.6 54.1,82.1 53.9,83.8 C53.8,84.7 53.6,85.8 53.3,87.1 C53.2,87.5 53.1,87.9 53.1,88.1 C53,88.4 53,88.7 52.7,89.5 C52.7,89.525 52.69375,89.55 52.684375,89.575 L52.615625,89.725 L52.6,89.8 C52.5,90 52.3,90.3 52.2,90.7 C52.1,90.9 52,91.1 51.9,91.4 C51.9,91.425 51.89375,91.45 51.884375,91.475 L51.815625,91.625 L51.8,91.7 C51.775,91.775 51.74375,91.85 51.709375,91.925 L51.490625,92.375 L51.4,92.6 C50.4,95 50.7,96.4 51,97.6 C51,97.7 51.1,97.9 51.1,98 C51.3,98.7 51.8,99.5 52.4,100.1 C53.3,101 54.5,101.6 55.4,101.9 L55.6,101.9 C55.7,102 55.8,102 55.9,102 L56.2,102 C61,102 71.6,94.4 73.2,87.6 C73.6,86.1 73.7,83.6 71.6,81.8 C71.55,81.75 71.525,81.725 71.5,81.7 L71.4,81.6 C71.4,81.5 71.3,81.5 71.2,81.4 C71,81.2 70.8,81 70.5,80.8 C70,80.4 69.3,80 68.6,79.7 L67.8,79.3 C67.6,79.2 67.5,79.2 67.3,79.1 C67.1,79 67,79 66.9,78.9 C66.8,78.9 66.8,78.8 66.7,78.8 C66.1,78.5 65.3,78.2 64.4,78 C63.4,77.7 62.2,77.5 60.9,77.4 C59.7,77.3 58.7,77.3 57.8,77.5 Z M60.3,80.4 L60.4,80.4 C60.6666667,80.4888889 60.6962963,80.4987654 60.6995885,80.4998628 C60.3,81 59.9,81.6 59.4,82.6 C58.15,85.2923077 58.1019231,86.8751479 58.100074,88.1486174 L58.1,88.3 C58.1,89 58.1,89.5 57.9,90.1 C57.8,90.5 57.6,91 57.3,91.5 C56.6,93.2 55.6,95.4 56,98.4 C55.4,98.1 54.5,97.4 54.3,97.1 C54.3,96.9 54.2,96.8 54.2,96.6 C54,95.7 53.9,95.1 54.4,93.7 C56,90.1 56.2,89.2 56.3,88.2 C56.3,88 56.4,87.8 56.4,87.5 C56.7,86.1 56.9,84.9 57,83.9 C57.2,82.4 57.4,81.4 57.9,80.7 C58.1,80.4 58.6,80.3 59.3,80.3 C59.6,80.3 59.9,80.3 60.3,80.4 Z M133.2,35.5 C136.1,36.5 141.9,39.7 143.4,42.8 C144.5,44.9 146.3,46.6 149.8,49.9 C151.6,51.5105263 152.771745,52.4927978 153.655343,53.2719493 L153.8,53.4 C155.1,54.4 155.3,54.7 155.7,55.4 C156.9,57.8 156.5,60.3 155.9,63.8 C155.521053,65.9789474 155.142105,67.0808864 154.593104,68.2111678 L154.5,68.4 C153.9,69.8 153.3,71.3 152.7,74.5 C152.5,75.7 152.3,76.7 152.2,77.5 L152.2,77.6 C152,78.9 151.9,79.8 151.4,81.3 C151,82.6 150.3,84.7 148.6,86.9 C147.2,88.7 144.9,91.8 141.8,92.2 C141.5,92.2 141,92.2 140.7,92.1 C131.9,87.6 124.4,84.3 121.8,83.6 C119.389286,82.8767857 119.174043,78.4729273 119.338166,73.7611954 L119.362137,73.1314362 C119.400989,72.184949 119.451786,71.2321429 119.5,70.3 C119.7,67.7 119.8,65.2 119.7,63.1 C119.3,55.7 118,47.7 111.6,43.8 C107.8,41.5 102.8,40.8 98.1,40.8 C98.8875,40.45 99.675,39.946875 100.596484,39.4246094 L101,39.2 C103.8,37.6 107.2,35.6 110.7,35.2 C111.8,35.1 112.9,35 114,34.8 C120.9,34 126.9,33.3 133.2,35.5 Z M90.2921768,50.0543056 L90.1560082,50.1567834 L90.1,50.2 C89.3,50.8 89.2,51.9 89.8,52.6 C90.4,53.4 91.5,53.5 92.2,52.9 C92.4,52.8 93.3,52.1 94.7,51.5 C95.2,51.3 95.7,51.9 95.3,52.4 C95.1,52.8 94.8,53.2 94.5,53.6 L94.484375,53.659375 C94.45625,53.70625 94.4,53.725 94.4,53.8 L94.3,53.9 L94.2512,53.9104 C94.2,53.936 94.2,54 94.2,54 C94.175,54.025 94.15625,54.05 94.140625,54.075 L94.059375,54.225 L94,54.3 L93.9,54.4 C93.9,54.5 93.8,54.5 93.8,54.6 C93.5,55.1 93.2,55.6 92.8,56.2 C92.775,56.225 92.75625,56.25 92.740625,56.275 L92.659375,56.425 L92.6,56.5 C92.6,56.6 92.5,56.8 92.4,56.9 L92.2155212,57.2228493 C91.4786982,58.512426 90.7615385,59.7692308 90.3,60.6 C88.9,63.3 88.9,67.6 89.6,71.3 C89.7,71.8 89.2,72.2 88.7,72 C88,71.6 87.4,71.2 87.1,70.5 L87.0998264,69.941088 C87.0979167,69.3236111 87.075,68.3 86.8,66.1 L86.8,66 C86.7,65.1 86.6,64.4 86.8,63.5 L86.8,63.3 C87.5,60 87.7,59.1 87.8,58.9 C88.1,58.1 87.8,57.1 87,56.7 C86.1,56.2 85.1,56.6 84.7,57.4 C84.65,57.6 84.55,57.85 84.3625,58.575 L84.3035875,58.807175 C84.11875,59.549 83.86,60.71 83.5,62.6 L83.5,62.8 C83.3,64.2 83.4,65.3 83.5,66.3 L83.5,66.4 C83.7727273,68.3090909 83.7975207,69.3090909 83.7997746,69.8507889 L83.8004115,70.1932785 C83.8037037,70.6925926 83.8333333,71.0777778 84.1,71.7 C85.6,75.2 89.9,76 92.3,76.4 C93.2,76.5 94.6,76.8 96.2,76.8 C98.5,76.8 101.2,76.4 103.6,74.4 C104.8,73.4 105.5,72.1 106.9,69.7 C109.2,65.8 110.4,63.6 110.4,60.7 C110.487879,57.1848485 108.953994,54.5964187 108.173657,53.4097727 L108.023739,53.1844172 C107.97787,53.1160698 107.936364,53.0545455 107.9,53 C107.1,51.9 105.1,48.8 101.1,47.7 C95.9173077,46.2865385 91.5337648,49.1352071 90.2921768,50.0543056 Z M72.3,45.7 C71.4,45.7 70.4,45.8 69.5,46.1 C69.1,46.3 68.7,46.4 68.3,46.6 C68,46.8 67.7,46.9 67.5,47.1 C67.1,47.3 66.8,47.6 66.5,47.9 C65.2,49.2 64.7,50.7 64.1,52.6 C63.5,54.5 62.8,56.9 60.8,60.2 C60.5,60.7 60.2,61.1 60,61.5 C58.6,63.9 57.7,65.4 58.1,67.4 C58.8,70.5 62.7,71.8 64.7,71.8 L64.9,71.8 C67.6,71.6 68.5,71.4 72.4,70.5 C76.4,69.5 77.5,65.7 78,62.9 L78.2,61.7 C79.2,55.8 79.6,53.1 79.4,51.6 C78.9,48.7 78,47.8 77.4,47.3 C76.1,46.2 74.2,45.7 72.3,45.7 Z M71.1,49.2 C70.8,49.9 70.5,50.7 70.1,51.6 C69.3,53.7 68.3,56.1 67.8,57 C67,58.5 66.4,59.5 65.9,60.2 C65.3,61.1 64.9,61.8 64.5,62.8 C63.9,64.5 63.8,66.4 64.2,68.5 C63.1,68.4 61.4,67.7 61.2,66.7 C61.1,66 61.5,65.3 62.7,63.2 C62.9,62.8 63.2,62.3 63.5,61.9 C65.6,58.3 66.5,55.6 67.1,53.6 C67.8,51.5 68.1,50.6 69.2,49.8 C69.9,49.5 70.5,49.3 71.1,49.2 Z M32.1,114.8 C32.1,114.7 32.2,114.7 32.1,114.8 C32.5,115.2 32.8,115.5 33.2,115.8 C33.4,115.9 33.5,116.1 33.7,116.2 C33.7,116.2 33.7,116.2 33.7,116.3 C33.3,118 33,119.8 33,121.6 C33,121.7 32.9,121.7 32.9,121.6 C32.4,119.5 31.8,116.1 32.1,114.8 Z" id="Skull" fill="#FFFFFF" fill-rule="nonzero"></path>
            <g id="Lines" opacity="0.5">
                <mask id="mask-3" fill="white">
                    <use xlink:href="#path-2"></use>
                </mask>
                <g id="Mask"></g>
                <path d="M76.4,196.5 C69.6,196.5 63.2,196.1 57.8,195.7 L56.3,195.6 L54.8,195.4 C54.1,195.3 53.3,195.2 52.4,195.1 C47.2,194.5 37.5,193.5 26.8,188.5 L25.1,187.7 L23.6,186.8 C3,175.2 -4.6,157.9 -8.8,148.6 C-9.1,148 -9.4,147.3 -9.7,146.6 C-11.8,142.3 -13.1,138.5 -14.2,134.9 L-14.4,134.1 L-14.6,133.3 C-17.6,122.7 -18.3,113.6 -17,104.5 C-15.6,95.4 -12.3,87.2 -6.4,78.5 L-3.4,73.6 C-2.8,72.6 -2.4,71.5 -2.1,70.4 C0.2,59 5.4,50.9 8,47 C8.7,42.3 9.9,37.7 11.5,33.2 L11.7,32.5 L12,31.8 C12,31.7 12.1,31.5 12.2,31.2 C13.4,27.7 16.1,19.6 23,11 L25.6,8 L28.3,5.6 C35.1,-0.6 43.3,-5.2 52.1,-7.8 C57,-9.3 62.1,-10.2 67.3,-10.5 L67.8,-10.5 L68.5,-10.5 C69.4,-10.5 70.3,-10.6 71.1,-10.6 C74.3,-10.6 77.5,-10.3 80.7,-9.8 C82.7,-9.5 84.7,-9.7 86.6,-10.5 C92.1,-12.8 97.8,-14.3 103.7,-15.1 C104.2,-15.2 104.6,-15.2 105,-15.3 C105.9,-15.4 107.4,-15.6 109.2,-15.8 C112.3,-16.1 117.1,-16.5 122.2,-16.5 C132.3,-16.5 141,-15.2 148.8,-12.5 L149.5,-12.3 L150.1,-12.1 C167.3,-5.6 176,3.5 182.3,11.4 L182.6,11.8 L183.5,12.6 C189.2,17 194,22.5 197.8,28.6 L199,30.5 L200,32.5 C208.4,49.6 205.7,65.5 204.7,71.4 L204.6,71.7 C203.9,76.1 202.7,80.4 201.2,84.6 C200.6,88.6 199.7,92.6 198.4,96.4 C196.2,103.2 192.9,109.7 188.7,115.5 C186.3,118.9 183.5,122.2 180.5,125.1 C179.4,126.1 178.7,127.5 178.5,129 C178.4,129.9 178.2,130.8 178.1,131.7 C175.6,144.9 169.9,154.1 167.5,157.8 L160.4,168 C151.8,178.7 141.6,185.7 129.3,189.5 L126.3,190.4 L123.1,191 C119.4,191.7 115.7,192 111.9,192 C111.4,192 110.9,192 110.3,192 L110.1,192 L109.5,192 L108.8,192 L108.8,192 C107.4,192 106,192.3 104.6,192.7 C96.4,195.3 87.4,196.5 76.4,196.5 Z" id="Path" stroke="#FFFFFF" stroke-width="1.0554" mask="url(#mask-3)"></path>
                <path d="M76.4,189.4 C69.9,189.4 63.6,189 58.4,188.6 L57.2,188.5 L56,188.3 C55.2,188.2 54.3,188.1 53.4,188 C48.3,187.5 39.9,186.5 30.5,182.1 L29.1,181.4 L27.8,180.7 C9.5,170.6 2.8,155.5 -1.2,146.5 C-1.5,145.9 -1.8,145.1 -2.2,144.4 C-4.1,140.6 -5.3,137 -6.3,133.8 L-6.5,133.1 L-6.7,132.5 C-9.3,123 -10,115 -8.8,107.1 C-7.6,99.3 -4.6,92 0.6,84.4 L4.5,78.1 C5.2,77 5.7,75.7 5.9,74.4 C7.8,63.6 12.9,56 15.2,52.5 L15.5,52.1 L15.6,51.9 C15.6,51.8 15.7,51.7 15.7,51.6 C15.8,51.1 16,50.7 16.1,50.3 C16.7,45.9 17.8,41.5 19.3,37.3 L19.5,36.7 L19.7,36.1 C19.8,35.9 19.8,35.7 20,35.1 C21.1,31.8 23.4,24.9 29.4,17.5 L31.6,14.9 L33.8,12.9 C39.7,7.5 46.8,3.5 54.4,1.3 C58.8,-9.05941988e-14 63.2,-0.8 67.8,-1 L68.2,-1 L68.8,-1 C69.6,-1 70.3,-1.1 71,-1.1 C74.3,-1.1 77.5,-2 80.7,-1.4 C83.2,-0.9 85.7,-1.2 88,-2.2 C92.3,-4.1 98.1,-4.8 104.7,-5.7 C105.2,-5.8 105.6,-5.8 105.9,-5.9 C106.8,-6 108.2,-6.2 109.8,-6.3 C112.7,-6.6 117.2,-6.9 122.1,-6.9 C131.3,-6.9 139.1,-5.7 146,-3.4 L146.6,-3.2 L147.1,-3 C162.3,2.8 169.8,10.4 175.7,17.9 C176,18.3 176.4,18.7 176.5,18.9 L176.6,19 L177.7,20 L177.8,20.2 C182.9,24.1 187.2,28.9 190.5,34.3 L191.5,35.9 L192.3,37.6 C199.5,52.3 197.3,65.8 196.3,71.5 L196.2,71.8 C195.5,76 194.4,80 192.9,84 C192.4,87.8 191.5,91.6 190.3,95.2 C188.3,101.2 185.4,106.9 181.7,112.1 C179.2,115.7 176.2,119 173,121.9 C171.5,123.3 170.5,125.1 170.3,127.2 C170.1,128.7 169.9,130.1 169.7,131.6 C167.5,143.3 162.5,151.3 160.1,154.9 L154.3,163.3 C146.6,173.2 137.5,179.6 126.5,183 L124,183.8 L121.3,184.3 C118.1,184.9 114.8,185.2 111.6,185.1 C111.1,185.1 110.6,185.1 110.1,185.1 L110,185.1 L109.7,185.1 C109.7,185.1 109.6,185.1 109.4,185.1 L108.8,185.1 L108.2,185.1 L107.1,185.1 C105.6,185.2 104.1,185.4 102.6,185.9 C95.3,188.3 86.8,189.4 76.4,189.4 Z" id="Path" stroke="#FFFFFF" stroke-width="1.0554" mask="url(#mask-3)"></path>
                <path d="M76.4,181.1 C70.2,181.1 64.1,180.7 59,180.3 L58,180.2 L57,180.1 C56.1,180 55.1,179.9 54.1,179.8 C49.3,179.3 42,178.5 33.8,174.6 L32.7,174.1 L31.7,173.5 C16,164.7 10.2,151.7 6.4,143.1 C6.1,142.4 5.7,141.5 5.4,140.8 C3.7,137.4 2.6,134.2 1.7,131.2 L1.5,130.7 L1.4,130.2 C-0.9,122 -1.5,115 -0.5,108.4 C0.5,101.7 3.2,95.4 7.8,88.7 L8.4,87.9 L9,87.1 C9.4,86.6 9.7,86.1 10.1,85.7 L12.4,81.4 C13.2,80 13.7,78.5 13.9,76.9 C15.4,67.3 20,60.4 22.1,57.2 L22.1,57.2 C22.2,57 22.4,56.8 22.5,56.7 L23,56 C23.2,55.6 23.4,55.1 23.6,54.5 C23.8,53.9 24.1,53 24.3,52.2 C24.8,48.1 25.8,44.1 27.2,40.2 L27.4,39.7 L27.6,39.2 C27.7,38.8 27.9,38.5 28.1,37.8 C29.1,34.7 31,29 36.1,22.8 L37.8,20.7 L39.6,19.1 C44.6,14.5 50.6,11.2 57.1,9.2 C60.9,8.1 64.7,7.4 68.7,7.2 L69,7.2 L69.5,7.2 C70.1,7.2 70.7,7.2 71.4,7.2 C74.8,7.2 78.1,7.6 81.4,8.5 C84.2,9.2 87.2,8.9 89.8,7.6 C94,5.6 99.6,3.4 106.1,2.6 C106.5,2.5 106.9,2.5 107.2,2.4 C108,2.3 109.3,2.1 110.9,2 C113.6,1.7 117.9,1.4 122.4,1.4 C130.6,1.4 137.5,2.4 143.6,4.5 L144,4.7 L144.4,4.9 C158.4,10.2 164.6,17.1 169.4,23.2 C170.5,24.5 170.6,24.7 171.3,25.4 L172.2,26.2 L172.5,26.6 C174.8,28.4 179.5,32.1 183.6,38.8 L184.4,40.1 L185.1,41.4 C191.2,53.7 189.3,64.9 188.4,70.3 L188.3,70.6 C187.7,74.5 186.6,78.4 185,82.1 L185,82.4 C184.6,85.9 183.8,89.4 182.7,92.7 C181,98 178.5,102.9 175.2,107.4 C172.5,111.3 169.2,114.8 165.5,117.8 C164.6,118.5 163.9,119.4 163.4,120.4 C162.9,121.4 162.6,122.5 162.5,123.6 C162.4,125.8 162.1,128 161.7,130.2 C159.8,140.3 155.4,147.3 153.2,150.8 L148.7,157.4 C142,166.4 134,172.2 124.3,175.2 L122.3,175.8 L120.1,176.2 C117.4,176.7 114.6,176.9 111.8,176.9 C111.4,176.9 110.9,176.9 110.4,176.9 L110.3,176.9 L109.8,176.9 C109.7,176.9 109.5,176.9 109,176.9 L108.5,176.9 L108.1,176.9 L105.8,177 C104.2,177.1 102.6,177.3 101.1,177.9 C94.2,180.1 86.3,181.1 76.4,181.1 Z" id="Path" stroke="#FFFFFF" stroke-width="0.9894" mask="url(#mask-3)"></path>
                <path d="M76.4,172.8 C70.5,172.8 64.6,172.4 59.7,172 L59,171.9 L58.3,171.8 C57.3,171.7 56.2,171.5 55.2,171.4 C50.7,170.9 44.5,170.2 37.5,167 L36.7,166.6 L35.9,166.2 C22.6,158.7 17.7,147.7 14.1,139.7 C13.7,138.9 13.3,138 13,137.2 C11.5,134.1 10.5,131.2 9.7,128.7 L9.6,128.3 L9.3,128 C5.4,114.2 6.9,104.5 14.5,93.4 L14.9,92.8 L15.3,92.2 C15.8,91.6 16.3,90.9 16.8,90.3 C17.5,89.4 18.2,88.4 19,87.5 C19.5,86.9 19.9,86.2 20.2,85.5 L21.1,83.3 C21.5,82.3 21.7,81.3 21.8,80.3 C22.6,71.4 26.9,65 29,61.8 L29,61.8 C29.2,61.6 29.4,61.2 29.5,61.1 L30,60.3 L30.2,60.1 C30.5,59.6 31,58.4 31.4,57.2 C31.6,56.4 32,55.1 32.4,54 L32.4,53.9 C32.8,50.2 33.7,46.5 35,43 L35.1,42.7 L35.2,42.4 C35.4,41.8 35.6,41.3 35.8,40.6 C36.7,37.9 38.2,33.3 42.3,28.2 L43.6,26.6 L44.9,25.4 C54.6,16.6 65.4,15.9 69,15.6 L69.2,15.6 L69.6,15.6 C70.1,15.6 70.6,15.6 71.1,15.6 C75.4,15.6 79.6,16.5 83.6,18.2 C84.3,18.5 85.1,18.6 85.8,18.6 C86.6,18.6 87.3,18.4 88,18 L88,18 C91.7,15.9 98.4,12 107,11 C107.4,10.9 107.8,10.9 108.1,10.9 C108.9,10.8 110.1,10.7 111.5,10.5 C114.1,10.3 118,10 122.2,10 C129.5,10 135.5,10.9 140.6,12.6 L140.9,12.7 L141.2,12.8 C153.2,17.3 158.3,23 162.6,28.4 C163.7,29.9 164.3,30.5 165.5,31.7 L166.2,32.3 L166.7,32.9 L167.1,33.2 C169.1,34.8 172.9,37.7 176.3,43.2 L176.9,44.2 L177.4,45.2 C182.3,55.2 180.7,64.2 179.9,69 L179.9,69.3 C179.3,72.8 178.3,76.3 176.9,79.6 L176.8,79.9 C176.8,80 176.8,80 176.7,80.2 C176.6,80.5 176.6,80.8 176.6,81.1 L176.5,81.5 C176.2,84.5 175.5,87.4 174.5,90.2 C173,94.7 170.9,98.9 168.1,102.7 C165.4,106.6 162.3,109.8 158.9,112.3 C157.4,113.4 156.2,114.8 155.3,116.5 C154.4,118.2 154,120 154,121.9 C154,124.2 153.7,126.6 153.3,128.9 C151.7,137.5 148.1,143.3 145.8,146.8 L142.5,151.7 C136.7,159.8 129.8,165 121.5,167.6 L121.1,167.7 C120.4,167.9 119.7,168.1 119,168.2 L118.5,168.3 C116.2,168.7 113.9,168.9 111.6,168.9 C111.2,168.9 110.8,168.9 110.4,168.9 L110.3,168.9 C110.1,168.9 109.9,168.9 109.7,168.9 C109.5,168.9 109.1,168.9 108.3,168.9 L108,168.9 L107.7,168.9 C106.6,168.9 105.2,169 104,169 C102.3,169.1 100.7,169.4 99.1,170 C93.1,171.8 85.8,172.8 76.4,172.8 Z" id="Path" stroke="#FFFFFF" stroke-width="0.9235" mask="url(#mask-3)"></path>
                <path d="M76.4,164.5 C70.7,164.5 65.1,164.1 60.3,163.7 L59.8,163.7 L59.3,163.6 C58.2,163.4 57,163.3 55.9,163.2 C51.7,162.7 46.5,162.2 40.9,159.5 L40.3,159.2 L39.8,158.9 C28.9,152.8 24.8,143.6 21.6,136.2 C21.2,135.3 20.8,134.4 20.4,133.4 C19.1,130.8 18.2,128.2 17.5,126 L17.4,125.7 L17.3,125.4 C14.1,114 15.2,106.8 21.4,97.8 L21.7,97.4 L22,97 C22.5,96.3 23,95.7 23.5,95 C25.1,92.9 26.7,90.8 29,88.3 C29.5,87.8 29.8,87 29.9,86.3 L30,84 L29.9,83.1 L29.9,82.2 C30.1,74.8 33.8,69.3 35.8,66.3 C36,66 36.3,65.6 36.4,65.4 L36.7,64.9 L37,64.5 C37.4,63.9 38.3,61.8 39.1,59.9 C39.4,59.1 39.8,57.5 40.3,56.2 C40.4,55.8 40.4,55.7 40.5,54.8 C40.8,51.7 41.6,48.6 42.6,45.7 L42.7,45.5 L42.8,45.3 C43.1,44.5 43.3,43.9 43.6,43.1 C44.4,40.7 45.6,37.2 48.7,33.3 L49.6,32.2 L50.5,31.4 C57.3,25.3 64.6,24.1 69.6,23.8 L69.8,23.8 L70,23.8 C70.4,23.8 70.7,23.8 71.1,23.8 C75.3,23.8 80.4,25.8 83.1,27.1 C83.7,27.4 84.4,27.6 85.1,27.6 C85.8,27.6 86.5,27.5 87.2,27.3 C88.9,26.7 90.5,26 92,25.2 C95.4,23.2 101,20 108,19.2 C108.4,19.1 108.7,19.1 109,19.1 C109.7,19 110.8,18.9 112.2,18.7 C114.6,18.5 118.2,18.2 122.1,18.2 C128.4,18.2 133.6,18.9 137.8,20.4 L138,20.5 L138.2,20.6 C148.2,24.4 152.2,28.7 156,33.6 C157.2,35.2 158.1,36.3 159.9,37.9 L160.3,38.3 L160.7,38.7 C161.1,39.1 161.5,39.4 161.9,39.7 C163.6,41 166.5,43.3 169,47.5 L169.4,48.1 L169.7,48.8 C173.4,56.3 172.2,63.4 171.5,67.6 L171.5,67.9 C171,70.8 170.2,73.6 169,76.3 L169,76.3 C168.7,77 168.5,77.7 168.3,78.5 C168.2,79 168.1,79.5 168.1,79.9 L168,80.3 C167.7,82.7 167.2,85.1 166.4,87.4 C165.2,91.1 163.4,94.6 161.2,97.7 C157.8,102.5 153.9,105.9 149.2,108.1 C148.1,108.6 147.1,109.4 146.4,110.5 C145.7,111.5 145.3,112.8 145.2,114 C145.2,114.5 145.2,114.9 145.2,115.2 C145.4,118.8 145.7,122.9 144.9,127.2 C143.6,134.2 140.6,138.9 138.4,142.4 C138.4,142.4 128.2,156.6 118.9,159.5 L117.9,159.8 L116.8,160 C115,160.3 113.2,160.5 111.3,160.5 C111,160.5 110.6,160.5 110.2,160.5 L110.2,160.5 C110,160.5 109.7,160.5 109.4,160.5 C109,160.5 108.4,160.5 107.5,160.6 L107.3,160.6 L107.1,160.6 C103.5,160.7 100.2,160.8 99.2,161 C98.7,161.1 98.2,161.2 97.7,161.4 C92.8,163.5 85.9,164.5 76.4,164.5 Z" id="Path" stroke="#FFFFFF" stroke-width="0.8575" mask="url(#mask-3)"></path>
                <path d="M76.4,156.3 C71,156.3 65.6,155.9 61,155.6 L60.8,155.6 L60.6,155.6 C59.3,155.4 58.1,155.3 57,155.2 C53.1,154.8 49,154.3 44.6,152.3 L44.3,152.2 L44,152.1 C35.5,147.3 32.3,140.2 29.3,133.3 C28.9,132.3 28.4,131.3 27.9,130.3 C26.9,128.3 26.1,126.1 25.5,124 L25.5,123.9 L25.5,123.8 C22.9,114.7 23.6,110.1 28.4,103.1 L28.5,102.9 L28.6,102.7 C29.2,102 29.7,101.3 30.2,100.7 C32.5,97.7 34.5,95.1 39,90.9 L39,90.9 C39.3,90.6 39.6,90.2 39.7,89.7 C39.8,89.3 39.8,88.8 39.6,88.4 L38.8,86.1 C38.6,85.4 38.5,84.6 38.5,83.9 L38.5,83.9 L38.5,83.3 L38.5,82.8 C38.7,77.8 41.3,73.9 43,71.3 C43.3,70.9 43.5,70.5 43.7,70.2 L43.9,69.9 L44.1,69.6 C45,68.4 46.5,64.9 47.3,62.8 C47.5,62.1 48,60.4 48.5,59.1 C48.8,58.1 49,57.1 49.1,56.1 C49.4,53.6 49.9,51.1 50.8,48.8 L50.8,48.7 L50.8,48.6 C51.2,47.6 51.5,46.8 51.7,46 C52.4,43.9 53.2,41.5 55.4,38.8 L55.8,38.3 L56.2,37.9 C61,33.5 66.3,32.7 70.3,32.4 L70.4,32.4 L70.5,32.4 C70.7,32.4 71,32.4 71.2,32.4 C75.2,32.4 78.2,34 80.2,35.1 L80.7,35.3 L80.8,35.3 C81.4,35.6 81.8,35.9 82.3,36.1 C83.5,36.7 85,36.9 86.3,36.5 C89.1,35.8 93.4,34.1 96.2,32.5 L96.3,32.5 C99.3,30.7 103.9,28.1 109.3,27.5 C109.6,27.4 110,27.4 110.3,27.4 C110.9,27.3 112,27.2 113.2,27.1 C115.4,26.9 118.8,26.6 122.3,26.6 C127.7,26.6 132,27.2 135.3,28.3 L135.4,28.3 L135.5,28.3 C143.5,31.3 146.5,34.5 149.7,38.7 C151,40.4 152.3,42 154.7,44.1 L154.9,44.3 L155.1,44.5 C155.7,45.1 156.4,45.7 157.2,46.3 C158.6,47.4 160.6,48.9 162.3,51.8 L162.5,52.1 L162.7,52.4 C165.2,57.6 164.4,62.5 163.8,66.2 L163.8,66.5 C163.4,68.8 162.8,71 161.8,73.2 C161.3,74.4 160.9,75.7 160.7,77 C160.6,77.8 160.5,78.4 160.4,78.9 L160.3,79.3 C160.1,81.2 159.7,83 159.1,84.8 C158.2,87.7 156.8,90.4 155,92.9 C152,97.3 148.6,100 144.1,101.4 C141.9,102.1 140.1,103.5 138.9,105.4 L138.5,105.9 L138.1,106.4 C137,107.7 137.3,112.7 137.5,115.7 C137.7,119 137.9,122.4 137.3,125.6 C136.3,131.1 133.9,134.8 131.8,138 C131.8,138 124,149.3 116.9,151.4 L116.4,151.6 L115.9,151.7 C114.6,151.9 113.2,152.1 111.8,152.1 C111.5,152.1 111.2,152.1 110.8,152.1 C110.5,152.1 110.2,152.1 109.8,152.1 C109.3,152.1 108.6,152.1 107.4,152.2 L107.3,152.2 L107.2,152.2 C102.5,152.4 99.6,152.5 98,152.8 C96.9,153 95.9,153.3 94.9,153.7 C90.6,155.4 84.8,156.3 76.4,156.3 Z" id="Path" stroke="#FFFFFF" stroke-width="0.8575" mask="url(#mask-3)"></path>
            </g>
        </g>
    </g>
</svg>