<?xml version="1.0" encoding="UTF-8"?>
<svg width="1024px" height="1024px" viewBox="0 0 1024 1024" version="1.1" xmlns="http://www.w3.org/2000/svg" xmlns:xlink="http://www.w3.org/1999/xlink">
    <title>HDRN from Ethereum</title>
    <defs>
        <linearGradient x1="25.0045223%" y1="93.2909751%" x2="74.9917832%" y2="6.71021596%" id="linearGradient-1">
            <stop stop-color="#56BEF0" offset="0%"></stop>
            <stop stop-color="#5A9CFA" offset="33%"></stop>
            <stop stop-color="#6D5AFA" offset="67%"></stop>
            <stop stop-color="#9256F0" offset="100%"></stop>
        </linearGradient>
    </defs>
    <g id="HDRN-from-Ethereum" stroke="none" stroke-width="1" fill="none" fill-rule="evenodd">
        <circle id="Oval" fill="#627EEA" fill-rule="nonzero" cx="512" cy="512" r="512"></circle>
        <g id="HDRN" transform="translate(87.000000, 87.000000)" fill-rule="nonzero">
            <g id="g20" fill="url(#linearGradient-1)">
                <path d="M315.048273,14.5770861 C541.720127,-46.1440196 774.691134,88.376709 835.420179,315.049305 C896.149224,541.7219 761.620798,774.69367 534.948944,835.422914 C308.285229,896.14402 75.3060837,761.623291 14.5770384,534.950695 C-46.1438686,308.286238 88.3764197,75.3063302 315.048273,14.5770861 Z" id="path16"></path>
            </g>
            <g id="g24" transform="translate(99.208684, 57.540275)" fill="#FFFFFF">
                <path d="M341.358762,698.874397 L341.358762,551.568136 L596.498881,551.568136 L341.358762,698.874397 Z M55.0158599,551.568136 L310.448963,551.568136 L310.448963,699.045304 L55.0158599,551.568136 Z M177.230826,234.159766 L51.5244688,185.271992 L285.350012,50.271094 L177.230826,234.159766 L177.230826,234.159766 Z M470.727417,234.949198 L360.069037,46.755276 L599.884473,185.223161 L470.727417,234.957336 L470.727417,234.949198 Z M465.290938,286.685435 L602.855003,520.658236 L350.677276,520.658236 L465.290938,286.685435 Z M300.975818,520.658236 L44.623071,520.658236 L183.578809,284.32528 L300.959541,520.658236 L300.975818,520.658236 Z M210.468218,238.627785 L323.747176,45.9577062 L437.026133,238.627785 L210.46008,238.627785 L210.468218,238.627785 Z M325.81434,501.174745 L210.76934,269.537684 L439.272343,269.537684 L325.81434,501.174745 Z M620.62122,211.844088 L620.62122,489.854137 L486.621792,261.960771 L620.572389,210.379164 C620.596804,210.867472 620.62122,211.35578 620.62122,211.844088 L620.62122,211.844088 Z M30.9260751,211.844088 C30.9260751,211.372057 30.9504904,210.908165 30.9749057,210.436134 L161.385281,261.155063 L30.9260751,483.025963 L30.9260751,211.844088 Z M3.36117606,542.005436 C7.81290318,554.351491 16.504758,565.004745 28.1752821,571.751535 L297.630919,727.31834 C306.314635,732.331636 316.048211,734.838284 325.781786,734.838284 C335.515361,734.838284 345.248936,732.331636 353.932653,727.31834 L623.38829,571.751535 C640.755722,561.724943 651.539156,543.039022 651.539156,522.985838 L651.539156,211.852227 C651.539156,201.443127 648.625595,191.400258 643.400716,182.749067 C643.140286,182.277036 642.85544,181.821282 642.554318,181.389943 C637.777053,173.967661 631.2663,167.635933 623.396428,163.094668 L353.916376,7.51972442 C344.662969,2.1727513 334.213211,-0.31761974 323.844837,0.032334361 C323.812283,0.032334361 323.787868,0.032334361 323.755314,0.032334361 C323.258869,0.032334361 322.770563,0.0648882308 322.282256,0.113719036 C313.720617,0.64271942 305.256638,3.10867506 297.614642,7.51972442 L28.1508668,163.08653 C20.2809945,167.627795 13.7702419,173.959522 8.9929771,181.381805 C8.68371635,181.82942 8.39073248,182.293313 8.12216393,182.781621 C2.90542337,191.424674 0,201.451265 0,211.852227 L0,522.985838 C0,528.935058 0.952197575,534.7622 2.74265456,540.280081 C2.90542337,540.866051 3.10074595,541.443882 3.33676073,542.005436" id="path22"></path>
            </g>
        </g>
    </g>
</svg>