<svg width="32" height="32" viewBox="0 0 32 32" fill="none" xmlns="http://www.w3.org/2000/svg">
<circle cx="16" cy="16" r="16" fill="url(#paint0_linear_3488_2710)"/>
<circle cx="16" cy="16" r="13.44" fill="#B0F7FF"/>
<path d="M25.12 24.64H21.92L20 28.32L22.72 27.2L25.12 24.64Z" fill="#FFCCFE"/>
<path d="M22.24 24.64H18.72L17.28 28.64L19.84 28L22.24 24.64Z" fill="#99F7FF"/>
<path d="M18.88 24.64H13.28L14.4 28.16L16 29.12L18.88 24.64Z" fill="#FE34FB"/>
<path d="M13.44 24.8H10.24L11.36 26.72L14.72 28.48L13.44 24.8Z" fill="#FFCCFE"/>
<path d="M10.08 24.8H7.04004L8.64004 26.56L12 28L10.08 24.8Z" fill="#FE67FC"/>
<path d="M12 19.04H7.83997L9.75997 24.64H13.28L12 19.04Z" fill="#FE01FA"/>
<path d="M28.48 18.88H24.16L22.24 24.48H25.12L27.04 22.72L28.48 18.88Z" fill="#33EEFF"/>
<path d="M24.16 19.04H19.68L18.88 24.8H22.4L24.16 19.04Z" fill="#FF99FD"/>
<path d="M6.72001 24.8L3.20001 19.04H7.84001L9.76001 24.8H6.72001Z" fill="#33EEFF"/>
<path d="M19.84 18.88H12.16L13.28 24.8H18.72L19.84 18.88Z" fill="#99F7FF"/>
<path d="M7.35999 6.88003L10.56 4.16003H11.68L10.24 7.20003L7.35999 6.88003Z" fill="#E6FDFF"/>
<path d="M9.92004 7.52L12.64 4H14.56L13.44 7.52H9.92004Z" fill="#FF99FD"/>
<path d="M13.12 7.52002L14.88 3.52002H16.96L18.88 7.52002H13.12Z" fill="#99F7FF"/>
<path d="M22.5601 7.52003L20.3201 4.80003L21.6001 4.16003L25.1201 7.04003L22.5601 7.52003Z" fill="#FE67FC"/>
<path d="M18.5601 7.2L17.4401 4H20.0001L21.9201 7.2H18.5601Z" fill="#66F2FF"/>
<path d="M24.16 13.28L22.4 7.52002H25.92L28.64 13.28H24.16Z" fill="#FE01FA"/>
<path d="M3.52002 13.12L6.40002 7.52002H9.76002L7.84002 13.12H3.52002Z" fill="#FE01FA"/>
<path d="M12.16 13.28L13.44 7.20001H18.88L19.68 13.28H12.16Z" fill="#FFE6FF"/>
<path d="M19.84 13.28L19.04 7.67999H22.56L24.16 13.28H19.84Z" fill="#FE67FC"/>
<path d="M8 13.12L9.76 7.67999H13.12L12.32 13.12H8Z" fill="#99F7FF"/>
<path d="M3.52002 19.2V12.96H7.84002V19.2H3.52002Z" fill="#99F7FF"/>
<path d="M12 19.04L12.64 13.12H8V19.04H12Z" fill="#FE67FC"/>
<path d="M19.68 12.96H13.76H12.16V18.88H19.68V12.96Z" fill="#FF99FD"/>
<path d="M24.32 12.96H20.8H20V18.72H24.32V12.96Z" fill="#FF99FD"/>
<path d="M28.6401 13.12H25.7601H24.3201V18.88H28.6401V13.12Z" fill="#66F2FF"/>
<mask id="mask0_3488_2710" style="mask-type:alpha" maskUnits="userSpaceOnUse" x="2" y="2" width="28" height="28">
<circle cx="16" cy="16" r="13.44" fill="#FE01FA"/>
</mask>
<g mask="url(#mask0_3488_2710)">
<rect x="0.640015" y="6.71997" width="28.8" height="1.28" fill="black"/>
<rect x="0.640015" y="18.24" width="28.8" height="1.28" fill="black"/>
<rect x="0.640015" y="12.48" width="28.8" height="1.28" fill="black"/>
<rect x="0.640015" y="24" width="28.8" height="1.28" fill="black"/>
</g>
<path d="M19.84 16C19.84 19.6617 19.3443 22.9502 18.5607 25.3011C18.1678 26.4799 17.714 27.3877 17.2412 27.9877C16.7627 28.5948 16.3384 28.8 16 28.8C15.6616 28.8 15.2374 28.5948 14.7589 27.9877C14.2861 27.3877 13.8323 26.4799 13.4393 25.3011C12.6557 22.9502 12.16 19.6617 12.16 16C12.16 12.3383 12.6557 9.0498 13.4393 6.69887C13.8323 5.52006 14.2861 4.61227 14.7589 4.01232C15.2374 3.40516 15.6616 3.2 16 3.2C16.3384 3.2 16.7627 3.40516 17.2412 4.01232C17.714 4.61227 18.1678 5.52006 18.5607 6.69887C19.3443 9.0498 19.84 12.3383 19.84 16Z" stroke="black" stroke-width="1.28"/>
<circle cx="16" cy="16" r="12.8" stroke="black" stroke-width="1.28"/>
<path d="M24.32 16C24.32 19.6026 23.3454 22.8352 21.8032 25.1485C20.258 27.4662 18.1937 28.8 16 28.8C13.8064 28.8 11.742 27.4662 10.1969 25.1485C8.6547 22.8352 7.68004 19.6026 7.68004 16C7.68004 12.3974 8.6547 9.16476 10.1969 6.85149C11.742 4.53375 13.8064 3.2 16 3.2C18.1937 3.2 20.258 4.53375 21.8032 6.85149C23.3454 9.16476 24.32 12.3974 24.32 16Z" stroke="black" stroke-width="1.28"/>
<mask id="mask1_3488_2710" style="mask-type:alpha" maskUnits="userSpaceOnUse" x="0" y="0" width="32" height="32">
<circle cx="16" cy="16" r="16" fill="#D9D9D9"/>
</mask>
<g mask="url(#mask1_3488_2710)">
<path d="M21.44 1.28003L22.2003 9.47975L30.4 10.24L22.2003 11.0003L21.44 19.2L20.6797 11.0003L12.48 10.24L20.6797 9.47975L21.44 1.28003Z" fill="white"/>
<path d="M10.56 15.36L11.2841 21.036L16.96 21.76L11.2841 22.4841L10.56 28.16L9.8359 22.4841L4.15997 21.76L9.8359 21.036L10.56 15.36Z" fill="white"/>
<path d="M12.48 1.28003L12.9552 5.28485L16.96 5.76003L12.9552 6.23521L12.48 10.24L12.0048 6.23521L8 5.76003L12.0048 5.28485L12.48 1.28003Z" fill="white"/>
</g>
<defs>
<linearGradient id="paint0_linear_3488_2710" x1="16" y1="32" x2="16" y2="1.20239e-07" gradientUnits="userSpaceOnUse">
<stop offset="0.0819109" stop-color="#00EAFF"/>
<stop offset="0.921842" stop-color="#FE01FA"/>
</linearGradient>
</defs>
</svg>
