<?xml version="1.0" encoding="UTF-8"?>
<svg width="777px" height="777px" viewBox="0 0 777 777" version="1.1" xmlns="http://www.w3.org/2000/svg" xmlns:xlink="http://www.w3.org/1999/xlink">
    <title>OPHIR</title>
    <defs>
        <linearGradient x1="50%" y1="100%" x2="50%" y2="13.5858169%" id="linearGradient-1">
            <stop stop-color="#FE01FA" offset="0%"></stop>
            <stop stop-color="#FF008C" offset="31.6318539%"></stop>
            <stop stop-color="#FF001C" offset="51.953125%"></stop>
            <stop stop-color="#FF5600" offset="70.8632996%"></stop>
            <stop stop-color="#FFDB01" offset="100%"></stop>
        </linearGradient>
    </defs>
    <g id="Page-1" stroke="none" stroke-width="1" fill="none" fill-rule="evenodd">
        <g id="OPHIR" transform="translate(0.331815, 0.503083)" fill-rule="nonzero">
            <path d="M342.685684,732.196842 L323.387789,712.878526 L351.73,570.365 L296.913001,570.365335 C288.613007,570.365335 280.943496,565.937341 276.793499,558.749335 L274.981,555.61 L203.245879,662.963504 L175.940095,662.977944 L267.83,543.224 L261.055,531.49 L146.684929,661.909394 L112.924525,661.909394 L112.924525,628.14899 L248.313,509.419 L242.217,498.862 L111.855975,598.893824 L111.870415,571.58804 L236.228,488.488 L199.819,425.425 L63.121474,452.612211 L43.803158,433.314316 L193.03,413.667 L185.862,401.252 L23.872211,411.872211 L5.68434189e-14,388 L23.872211,364.127789 L186.418,374.783 L193.567,362.401 L43.803158,342.685684 L63.121474,323.387789 L200.336,350.676 L237.018,287.142 L111.870415,203.515886 L111.855975,176.210102 L242.976,276.822 L249.04,266.32 L112.924525,146.954936 L112.924525,113.194532 L146.684929,113.194532 L261.715,244.366 L268.454,232.693 L175.940095,112.125982 L203.245879,112.140422 L275.568,220.372 L276.793499,218.250665 C280.943496,211.062659 288.613007,206.634665 296.913001,206.634665 L351.929,206.634 L323.387789,63.121474 L342.685684,43.803158 L364.122,206.634 L376.109,206.634 L364.127789,23.872211 L388,1.13686838e-13 L411.872211,23.872211 L399.89,206.634 L411.877,206.634 L433.314316,43.803158 L452.612211,63.121474 L424.07,206.634 L480.086999,206.634665 C488.386993,206.634665 496.056504,211.062659 500.206501,218.250665 L500.302,218.416 L571.318033,112.140422 L598.623817,112.125982 L507.498,230.881 L514.317,242.69 L627.878983,113.194532 L661.639387,113.194532 L661.639387,146.954936 L527.141,264.902 L533.275,275.526 L662.707937,176.210102 L662.693497,203.515886 L539.303,285.967 L576.56,350.498 L712.878526,323.387789 L732.196842,342.685684 L583.362,362.279 L590.544,374.72 L752.127789,364.127789 L776,388 L752.127789,411.872211 L591.1,401.315 L583.898,413.79 L732.196842,433.314316 L712.878526,452.612211 L577.077,425.603 L540.092,489.663 L662.693497,571.58804 L662.707937,598.893824 L534.033,500.158 L527.868,510.838 L661.639387,628.14899 L661.639387,661.909394 L627.878983,661.909394 L514.977,533.165 L508.123,545.036 L598.623817,662.977944 L571.318033,662.963504 L500.889,557.566 L500.206501,558.749335 C496.056504,565.937341 488.386993,570.365335 480.086999,570.365335 L424.269,570.365 L452.612211,712.878526 L433.314316,732.196842 L412.008,570.365 L399.955,570.365 L411.872211,752.127789 L388,776 L364.127789,752.127789 L376.043,570.365 L363.99,570.365 L342.685684,732.196842 Z" id="path" fill="#000000" transform="translate(388.000000, 388.000000) scale(-1, 1) rotate(-180.000000) translate(-388.000000, -388.000000) "></path>
            <path d="M342.685684,732.196842 L323.387789,712.878526 L351.73,570.365 L296.913001,570.365335 C288.613007,570.365335 280.943496,565.937341 276.793499,558.749335 L274.981,555.61 L203.245879,662.963504 L175.940095,662.977944 L267.83,543.224 L261.055,531.49 L146.684929,661.909394 L112.924525,661.909394 L112.924525,628.14899 L248.313,509.419 L242.217,498.862 L111.855975,598.893824 L111.870415,571.58804 L236.228,488.488 L199.819,425.425 L63.121474,452.612211 L43.803158,433.314316 L193.03,413.667 L185.862,401.252 L23.872211,411.872211 L5.68434189e-14,388 L23.872211,364.127789 L186.418,374.783 L193.567,362.401 L43.803158,342.685684 L63.121474,323.387789 L200.336,350.676 L237.018,287.142 L111.870415,203.515886 L111.855975,176.210102 L242.976,276.822 L249.04,266.32 L112.924525,146.954936 L112.924525,113.194532 L146.684929,113.194532 L261.715,244.366 L268.454,232.693 L175.940095,112.125982 L203.245879,112.140422 L275.568,220.372 L276.793499,218.250665 C280.943496,211.062659 288.613007,206.634665 296.913001,206.634665 L351.929,206.634 L323.387789,63.121474 L342.685684,43.803158 L364.122,206.634 L376.109,206.634 L364.127789,23.872211 L388,1.13686838e-13 L411.872211,23.872211 L399.89,206.634 L411.877,206.634 L433.314316,43.803158 L452.612211,63.121474 L424.07,206.634 L480.086999,206.634665 C488.386993,206.634665 496.056504,211.062659 500.206501,218.250665 L500.302,218.416 L571.318033,112.140422 L598.623817,112.125982 L507.498,230.881 L514.317,242.69 L627.878983,113.194532 L661.639387,113.194532 L661.639387,146.954936 L527.141,264.902 L533.275,275.526 L662.707937,176.210102 L662.693497,203.515886 L539.303,285.967 L576.56,350.498 L712.878526,323.387789 L732.196842,342.685684 L583.362,362.279 L590.544,374.72 L752.127789,364.127789 L776,388 L752.127789,411.872211 L591.1,401.315 L583.898,413.79 L732.196842,433.314316 L712.878526,452.612211 L577.077,425.603 L540.092,489.663 L662.693497,571.58804 L662.707937,598.893824 L534.033,500.158 L527.868,510.838 L661.639387,628.14899 L661.639387,661.909394 L627.878983,661.909394 L514.977,533.165 L508.123,545.036 L598.623817,662.977944 L571.318033,662.963504 L500.889,557.566 L500.206501,558.749335 C496.056504,565.937341 488.386993,570.365335 480.086999,570.365335 L424.269,570.365 L452.612211,712.878526 L433.314316,732.196842 L412.008,570.365 L399.955,570.365 L411.872211,752.127789 L388,776 L364.127789,752.127789 L376.043,570.365 L363.99,570.365 L342.685684,732.196842 Z" id="path" fill="url(#linearGradient-1)" transform="translate(388.000000, 388.000000) scale(-1, 1) rotate(-180.000000) translate(-388.000000, -388.000000) "></path>
        </g>
    </g>
</svg>