<svg width="1024" height="1024" viewBox="0 0 1024 1024" fill="none" xmlns="http://www.w3.org/2000/svg">
<g clip-path="url(#clip0_159_101)">
<path d="M512 1024C794.77 1024 1024 794.77 1024 512C1024 229.23 794.77 0 512 0C229.23 0 0 229.23 0 512C0 794.77 229.23 1024 512 1024Z" fill="#060638"/>
<path d="M203 537C216.807 537 228 525.807 228 512C228 498.193 216.807 487 203 487C189.193 487 178 498.193 178 512C178 525.807 189.193 537 203 537Z" fill="#F5B700"/>
<path d="M99 362H177.208C207.333 362 233.237 368.204 254.92 380.611C276.603 393.018 293.238 410.471 304.824 432.969C316.576 455.468 322.452 481.854 322.452 512.128C322.452 542.071 316.576 568.374 304.824 591.038C293.238 613.702 276.603 631.403 254.92 644.141C233.237 656.714 207.333 663 177.208 663H99V362ZM117.373 376.889V648.608H177.208C203.526 648.608 226.119 642.652 244.989 630.741C263.858 618.83 278.341 602.618 288.438 582.105C298.534 561.426 303.583 538.1 303.583 512.128C303.583 486.155 298.534 462.995 288.438 442.647C278.341 422.299 263.858 406.253 244.989 394.507C226.119 382.761 203.526 376.889 177.208 376.889H117.373Z" fill="white"/>
<path d="M391.132 663L496.651 513.865L389.643 362H410.25L508.817 500.217L603.412 362H626.253L518.5 513.865L623.026 663H601.922L505.838 528.257L412.733 663H391.132Z" fill="white"/>
<path d="M710.486 362H738.542L909.11 646.126H906.627V362H925V663H898.682L726.624 376.144H728.859V663H710.486V362Z" fill="white"/>
</g>
<defs>
<clipPath id="clip0_159_101">
<rect width="1024" height="1024" fill="white"/>
</clipPath>
</defs>
</svg>
