<?xml version="1.0" encoding="UTF-8"?>
<svg width="400px" height="400px" viewBox="0 0 400 400" version="1.1" xmlns="http://www.w3.org/2000/svg" xmlns:xlink="http://www.w3.org/1999/xlink">
    <title>NBA</title>
    <defs>
        <circle id="path-1" cx="200" cy="200" r="200"></circle>
    </defs>
    <g id="Page-1" stroke="none" stroke-width="1" fill="none" fill-rule="evenodd">
        <g id="NBA">
            <g id="Group">
                <circle id="path-1" fill="#FFFFFF" fill-rule="nonzero" cx="200" cy="200" r="190"></circle>
                <g id="nba-6-Clipped">
                    <mask id="mask-2" fill="white">
                        <use xlink:href="#path-1"></use>
                    </mask>
                    <g id="path-1"></g>
                    <g id="nba-6" mask="url(#mask-2)">
                        <g transform="translate(-82.982219, -17.587386)" id="Group">
                            <g transform="translate(0.000000, 0.000000)">
                                <path d="M323.440942,363.241188 C322.860851,362.54245 322.449718,360.36399 322.432822,357.892399 C322.407479,354.148457 321.904123,352.750279 317.500641,344.21218 C312.802185,335.098361 312.63393,334.600669 313.468867,332.295677 C314.24678,330.144633 314.136253,329.421995 312.433996,325.502314 C310.735962,321.592476 309.972129,320.740493 305.424328,317.675607 C296.601875,311.730712 289.511247,305.669126 277.703156,293.982489 C264.520869,280.930713 253.575874,266.579875 243.426393,249.037619 C239.902199,242.947212 239.626233,242.694148 236.513172,242.67798 C234.175912,242.666029 231.369088,240.63027 231.379647,238.951612 C231.382463,238.465167 228.522136,232.173714 225.023286,224.972637 C215.943171,206.28386 215.166666,202.303726 217.943218,188.695912 C219.591268,180.627388 219.901025,179.901938 223.337924,176.102463 C226.986725,172.071013 226.414378,170.935739 220.438173,170.34596 C212.454177,169.55654 212.53584,169.60645 210.88075,164.491043 C210.066933,161.975165 209.400955,159.123977 209.400955,158.155304 C209.400955,154.944906 213.051868,144.785089 218.071345,134.026354 C220.794394,128.187605 224.286204,120.225227 225.830063,116.332259 C231.323328,102.47841 238.901823,91.4012365 245.020939,88.2836285 C247.467318,87.0372883 252.222094,86.1002485 266.371669,84.0736276 C274.247954,82.9453839 274.802701,82.373881 275.934019,74.2224081 C276.592254,69.4816757 276.526782,68.7386517 275.283529,66.7281987 C274.38664,65.2801102 273.902293,63.2302918 273.902293,60.883826 C273.902293,57.5841526 274.087443,57.1743295 276.029058,56.1719148 C277.905906,55.203242 278.155824,54.7062524 278.155824,51.9422311 C278.155824,45.330231 279.491301,41.6488526 283.207685,38.0398787 C284.095069,37.1823123 284.95667,36.2985394 285.791343,35.3897361 L293.731388,35.3897361 C302.331206,11.7965787 302.331206,0 293.731388,0 C285.131569,0 255.070622,2.86182416 203.548546,8.58547247 C187.017359,8.58547247 0,196.775974 0,213.283479 L183.424633,417.587386 C183.424633,434.094189 230.631302,463.285647 247.163193,463.285647 C289.660239,456.214677 317.529846,447.664475 330.772012,437.635041 C336.109584,433.592437 336.109584,421.034583 330.772012,399.961478 L326.168215,399.961478 C325.867609,399.299997 325.239646,398.228693 324.511013,397.167933 C322.484918,394.223252 322.507446,395.257299 323.971753,371.66611 C324.321638,366.02208 324.205479,364.159951 323.440942,363.241188 Z" id="Path" fill="#004BA8" fill-rule="nonzero"></path>
                                <path d="M293.731388,15.4560121 L293.731388,35.3897361 L302.282402,35.3897361 C302.535136,35.6898982 302.899805,36.0125548 303.343321,36.3028754 C306.531006,38.3878417 311.366037,43.4104593 312.137614,45.4370802 C313.2985,48.4886104 313.037319,52.5418522 311.398421,56.9184536 C310.456477,59.4308169 310.060128,61.6788688 310.326238,63.0032371 C310.827481,65.5064619 308.365614,70.8130736 305.450375,73.512423 C304.399312,74.4853135 302.909661,76.5070137 302.140196,78.005715 C301.37073,79.5037134 299.460794,82.1165992 297.897928,83.8107222 C296.335061,85.5048451 295.160095,87.4323493 295.291038,88.0938305 C295.420573,88.7560147 297.280525,90.2399539 299.424187,91.3920981 C301.569256,92.5442423 304.778765,94.8049474 306.559166,96.4161216 C308.338159,98.0272958 311.93064,100.853177 314.541754,102.695624 C323.923882,109.318168 328.425923,120.64208 328.472387,137.736553 C328.492803,145.311603 332.192995,163.066152 334.843533,168.309497 C338.47403,175.490891 339.788386,179.449937 340.924633,186.616569 C342.383308,195.82599 342.42766,195.930028 345.360499,197.153171 C348.163099,198.322889 355.422685,204.20733 355.422685,205.310267 C355.422685,205.689863 356.140759,207.00439 357.017231,208.232453 L357.995783,209.601108 L357.017231,431.768906 C400.791178,432.316587 428.175522,427.935142 439.170265,418.624571 C461.007079,400.132714 483.196253,304.709743 505.737788,132.355658 C505.734972,115.848152 353.176473,14.0929518 336.644583,14.0929518 L293.731388,15.4560121 Z M354.040041,240.015184 C340.590939,254.706955 317.573856,251.433994 309.12452,233.625318 C307.080121,229.314794 306.866811,228.232242 306.866811,222.142538 C306.866811,216.328393 307.124473,214.870463 308.766187,211.37115 C311.391381,205.778435 316.40241,200.655295 321.880187,197.961569 C324.372326,196.737021 326.558931,195.498413 326.736338,195.208795 C326.915152,194.919881 324.665891,189.850165 321.736572,183.94112 C314.990198,170.328386 314.191165,167.894051 311.130199,151.633985 C309.745443,144.284585 308.47051,137.874333 308.293807,137.387184 C307.727092,135.820296 305.746757,136.431165 300.849071,139.681631 L296.057688,142.861802 L291.715453,153.844077 C289.328209,159.883169 287.373218,165.722621 287.373218,166.818529 C287.373218,168.052216 288.075804,169.466562 289.212754,170.528025 C292.050554,173.176059 292.816499,175.120434 297.626186,191.896469 C301.170092,204.254428 301.959973,207.864808 301.39537,209.105524 C300.852591,210.292113 301.204588,212.896564 302.836446,219.770063 C305.235657,229.884188 306.130434,235.244224 307.24908,246.205411 C308.383214,257.332494 309.58282,260.857817 316.039149,272.039028 C320.3314,279.469971 321.649277,283.949204 324.663075,301.347355 C326.04572,309.330821 327.44174,316.358268 327.766281,316.96281 C328.091526,317.567352 329.495994,319.754247 330.888494,321.820233 C334.716814,327.502223 335.294793,330.116515 333.918484,335.584103 C333.289114,338.081705 332.57808,341.844626 332.337314,343.946463 C331.85367,348.152949 333.378521,358.341587 335.109642,362.479887 C335.694661,363.876659 336.012163,365.630534 335.817156,366.378478 C335.620742,367.126423 336.440191,370.864741 337.635573,374.685304 C341.375893,386.634143 341.210454,391.702453 336.902715,397.134191 C336.131138,398.107081 335.716485,398.660307 335.469383,399.033577 C336.969941,398.651964 335.442978,398.958 330.888494,399.951686 L330.888494,432.546917 C348.958143,437.912417 357.992967,439.034419 357.992967,435.912922 L357.992967,234.931409 C357.733193,235.027714 357.546635,235.258986 357.546635,235.532436 C357.546635,235.890943 355.96828,237.907723 354.040041,240.015184 Z" id="Shape" fill="#F80018" fill-rule="nonzero"></path>
                                <path d="M217.841843,332.6816 L229.942796,332.6816 L236.9236,363.495657 L237.040463,363.495657 L237.040463,332.6816 L247.163193,332.6816 L247.163193,382.684236 L235.295262,382.684236 L228.081436,351.799883 L227.964573,351.799883 L227.964573,382.684236 L217.841843,382.684236 L217.841843,332.6816 Z M252.402316,332.6816 L268.751169,332.6816 C276.488766,332.6816 280.095328,337.653605 280.095328,345.146408 C280.095328,350.468485 278.174832,355.231712 273.579863,356.350817 L273.579863,356.490705 C279.048489,357.120553 281.259734,362.723812 281.259734,367.905298 C281.259734,376.589611 277.769332,382.682127 268.751169,382.682127 L252.402316,382.682127 L252.402316,332.6816 L252.402316,332.6816 Z M263.223408,352.290546 L265.842265,352.290546 C268.052806,352.290546 269.27494,349.909635 269.27494,347.248245 C269.27494,344.446967 268.052806,342.066057 265.842265,342.066057 L263.223408,342.066057 L263.223408,352.290546 Z M263.223408,373.299779 L266.249174,373.299779 C268.227397,373.299779 270.088757,371.198645 270.088757,367.136264 C270.088757,363.284771 268.226693,361.114044 266.249174,361.114044 L263.223408,361.114044 L263.223408,373.299779 L263.223408,373.299779 Z M292.029434,332.6816 L305.64327,332.6816 L315.765999,382.684236 L304.245842,382.684236 L303.140571,373.93033 L294.530725,373.93033 L293.426158,382.684236 L281.904592,382.684236 L292.029434,332.6816 L292.029434,332.6816 Z M298.893375,342.906089 L298.77792,342.906089 L295.810586,364.126209 L301.86071,364.126209 L298.893375,342.906089 Z" id="Shape" fill="#FFFFFF" fill-rule="nonzero"></path>
                            </g>
                        </g>
                    </g>
                </g>
            </g>
            <path d="M266.208835,319.64 C267.578835,319.64 268.662273,319.944375 269.459148,320.553125 C270.256023,321.161875 270.65446,321.995625 270.65446,323.054375 C270.65446,323.827708 270.438731,324.481042 270.007273,325.014375 C269.575815,325.547708 268.972377,325.9125 268.19696,326.10875 L270.980085,330.6 L269.048835,330.6 L266.502585,326.374375 L264.248835,326.374375 L264.248835,330.6 L262.55446,330.6 L262.55446,319.64 L266.208835,319.64 Z M266.51446,324.885625 C267.287794,324.885625 267.895398,324.719479 268.337273,324.387187 C268.779148,324.054896 269.000085,323.588125 269.000085,322.986875 C269.000085,322.386042 268.779148,321.928021 268.337273,321.612813 C267.895398,321.297604 267.287794,321.14 266.51446,321.14 L264.248835,321.14 L264.248835,324.885625 L266.51446,324.885625 Z M266.49696,335.2 C264.66196,335.2 262.973002,334.746667 261.430085,333.84 C259.887169,332.933333 258.663627,331.7 257.75946,330.14 C256.855294,328.58 256.40321,326.884792 256.40321,325.054375 C256.40321,323.231458 256.855294,321.546667 257.75946,320 C258.663627,318.453333 259.887169,317.226667 261.430085,316.32 C262.973002,315.413333 264.66196,314.96 266.49696,314.96 C268.332377,314.96 270.02144,315.413333 271.564148,316.32 C273.106856,317.226667 274.330398,318.453333 275.234773,320 C276.139148,321.546667 276.591335,323.231458 276.591335,325.054375 C276.591335,326.884792 276.139148,328.58 275.234773,330.14 C274.330398,331.7 273.106856,332.933333 271.564148,333.84 C270.02144,334.746667 268.332377,335.2 266.49696,335.2 Z M266.486335,333.28 C267.956335,333.28 269.319877,332.907604 270.57696,332.162812 C271.834044,331.418021 272.832585,330.416875 273.572585,329.159375 C274.312585,327.901875 274.682585,326.533333 274.682585,325.05375 C274.682585,323.574167 274.312794,322.207292 273.57321,320.953125 C272.833627,319.698958 271.835085,318.706562 270.577585,317.975937 C269.320085,317.245313 267.956335,316.88 266.486335,316.88 C265.015919,316.88 263.655815,317.245729 262.406023,317.977188 C261.156231,318.708646 260.161335,319.701042 259.421335,320.954375 C258.681335,322.207708 258.311335,323.574167 258.311335,325.05375 C258.311335,326.533333 258.681335,327.901875 259.421335,329.159375 C260.161335,330.416875 261.156231,331.418021 262.406023,332.162812 C263.655815,332.907604 265.015919,333.28 266.486335,333.28 Z" id="R" fill="#FFFFFF" fill-rule="nonzero"></path>
        </g>
    </g>
</svg>