<?xml version="1.0" encoding="UTF-8"?>
<svg width="1218px" height="1512px" viewBox="0 0 1218 1512" version="1.1" xmlns="http://www.w3.org/2000/svg" xmlns:xlink="http://www.w3.org/1999/xlink">
    <title>FLEX</title>
    <defs>
        <linearGradient x1="18.2161754%" y1="27.4555947%" x2="81.7838246%" y2="72.9939097%" id="linearGradient-1">
            <stop stop-color="#F6B80D" offset="0%"></stop>
            <stop stop-color="#A9195F" offset="100%"></stop>
        </linearGradient>
        <linearGradient x1="18.731585%" y1="27.5100671%" x2="80.609699%" y2="72.5964674%" id="linearGradient-2">
            <stop stop-color="#57585C" offset="0%"></stop>
            <stop stop-color="#23232B" offset="48.1506774%"></stop>
            <stop stop-color="#212129" offset="90.5579092%"></stop>
            <stop stop-color="#3E253A" offset="100%"></stop>
        </linearGradient>
        <path d="M637.078637,190.941484 L1046.68435,476.639405 C1062.77209,487.860526 1072.35939,506.236654 1072.35939,525.851166 L1072.35939,1000.44541 C1072.35939,1020.26951 1062.5674,1038.81403 1046.19651,1049.99387 L634.086105,1331.42797 C613.583068,1345.42969 586.574071,1345.35722 566.146468,1331.24568 L159.045446,1050.01716 C142.82848,1038.81436 133.147969,1020.36122 133.147969,1000.651 L133.147969,525.851166 C133.147969,506.236654 142.735269,487.860526 158.823014,476.639405 L568.428726,190.941484 C589.051553,176.557165 616.455809,176.557165 637.078637,190.941484 Z" id="path-3"></path>
        <filter x="-21.6%" y="-15.1%" width="145.3%" height="133.6%" filterUnits="objectBoundingBox" id="filter-4">
            <feMorphology radius="7.5" operator="dilate" in="SourceAlpha" result="shadowSpreadOuter1"></feMorphology>
            <feOffset dx="10" dy="20" in="shadowSpreadOuter1" result="shadowOffsetOuter1"></feOffset>
            <feGaussianBlur stdDeviation="60" in="shadowOffsetOuter1" result="shadowBlurOuter1"></feGaussianBlur>
            <feColorMatrix values="0 0 0 0 0   0 0 0 0 0   0 0 0 0 0  0 0 0 1 0" type="matrix" in="shadowBlurOuter1"></feColorMatrix>
        </filter>
    </defs>
    <g id="Page-1" stroke="none" stroke-width="1" fill="none" fill-rule="evenodd">
        <g id="FLEX" transform="translate(0.246319, 0.000000)">
            <path d="M636.723501,23.3320942 L1166.46209,387.181845 C1190.90304,403.969054 1205.50736,431.717396 1205.50736,461.368201 L1205.50736,1056.24062 C1205.50736,1086.10781 1190.69047,1114.02946 1165.95682,1130.7715 L636.386655,1489.23406 C616.072777,1502.98439 589.434585,1502.98439 569.120707,1489.23406 L39.5505388,1130.7715 C14.8168937,1114.02946 1.59977078e-13,1086.10781 0,1056.24062 L0,461.368201 C3.79581356e-14,431.717396 14.6043231,403.969054 39.0452694,387.181845 L568.783861,23.3320942 C589.249201,9.2755218 616.258161,9.2755218 636.723501,23.3320942 Z" id="Polygon" fill="url(#linearGradient-1)"></path>
            <g id="Shape">
                <use fill="black" fill-opacity="1" filter="url(#filter-4)" xlink:href="#path-3"></use>
                <use fill="url(#linearGradient-2)" fill-rule="evenodd" xlink:href="#path-3"></use>
            </g>
            <path d="M596.221768,286.712939 L224.707057,542.114085 C220.654621,544.915048 218.235797,549.527258 218.235797,554.453477 L218.235797,1000.40085 C218.235797,1005.35822 220.685117,1009.99543 224.779661,1012.79011 L599.445041,1267.19586 C604.563798,1270.68961 611.304138,1270.67569 616.408419,1267.16083 L987.440924,1015.35271 C991.505837,1012.55357 993.933681,1007.93394 993.933681,1002.99849 L993.933681,560.970159 C993.933681,556.07157 991.541749,551.481598 987.526612,548.675383 L613.343439,286.757555 C608.206055,283.166991 601.377794,283.149198 596.221768,286.712939 Z M606.812813,314.838526 L961.697543,562.8424 C964.909959,565.087331 966.823725,568.759491 966.823725,572.67859 L966.823725,991.258859 C966.823725,995.231923 964.857226,998.947427 961.571896,1001.18167 L611.678467,1239.13248 C609.982058,1240.28615 607.753065,1240.2865 606.056293,1239.13336 L251.007818,997.840336 C247.720677,995.606377 245.752863,991.889801 245.752863,987.9154 L245.752863,562.905957 C245.752863,560.929497 246.726229,559.079817 248.355273,557.960617 L602.25648,314.820363 C603.630629,313.876283 605.446235,313.883521 606.812813,314.838526 Z" id="Shape" fill="#FFFFFF" fill-rule="nonzero"></path>
            <path d="M359.682744,726.911538 L868.542625,726.911538 C869.643897,726.911538 870.537955,727.801828 870.542607,728.903091 L870.917593,817.680591 C870.922258,818.78515 870.030618,819.684355 868.926058,819.68902 C868.923243,819.689032 868.920427,819.689038 868.917611,819.689038 L450.913222,819.689038 C449.808652,819.689038 448.913222,820.584469 448.913222,821.689038 C448.913222,821.692211 448.913229,821.695383 448.913244,821.698556 L449.694118,985.784381 C449.699374,986.888938 448.808215,987.78862 447.703658,987.793876 C447.700486,987.793891 447.697313,987.793899 447.694141,987.793899 L360.756939,987.793899 C359.655634,987.793899 358.761561,986.903557 358.756956,985.802262 L357.682761,728.919901 C357.678142,727.815342 358.569821,726.916175 359.67438,726.911556 C359.677168,726.911544 359.679956,726.911538 359.682744,726.911538 Z M553.816654,558.984176 L868.534195,558.94937 C870.191049,558.948855 871.534343,560.291852 871.534526,561.948706 C871.534526,561.948817 871.534526,561.948928 871.534195,561.949038 L871.534195,647.695199 C871.534195,649.352053 870.191049,650.695199 868.534195,650.695199 L555.378818,650.695199 C546.894703,650.695199 538.609496,653.264626 531.614133,658.065158 L466.616921,702.669155 C462.952683,705.183719 458.612813,706.529609 454.168753,706.529609 L360.963319,706.529609 C359.306465,706.529609 357.963319,705.186463 357.963319,703.529609 L357.963319,672.766055 C357.963319,667.445999 360.60763,662.473895 365.018712,659.499782 L481.1561,581.195705 C502.623965,566.721285 527.924994,558.98704 553.816654,558.984176 Z" id="F" fill="#FFFFFF"></path>
        </g>
    </g>
</svg>