<?xml version="1.0" encoding="UTF-8"?>
<svg width="288px" height="249px" viewBox="0 0 288 249" version="1.1" xmlns="http://www.w3.org/2000/svg" xmlns:xlink="http://www.w3.org/1999/xlink">
    <title>CEREAL</title>
    <defs>
        <linearGradient x1="50%" y1="4.08621914%" x2="50%" y2="95.5811228%" id="linearGradient-1">
            <stop stop-color="#FDF4AC" offset="0%"></stop>
            <stop stop-color="#FFADFE" offset="100%"></stop>
        </linearGradient>
        <linearGradient x1="81.0311271%" y1="18.8864146%" x2="19.7438706%" y2="80.2463188%" id="linearGradient-2">
            <stop stop-color="#E465C7" offset="0%"></stop>
            <stop stop-color="#656DF3" offset="100%"></stop>
        </linearGradient>
        <linearGradient x1="81.0311271%" y1="18.8864146%" x2="19.7438706%" y2="80.2463188%" id="linearGradient-3">
            <stop stop-color="#E465C7" offset="0%"></stop>
            <stop stop-color="#656DF3" offset="100%"></stop>
        </linearGradient>
    </defs>
    <g id="Page-1" stroke="none" stroke-width="1" fill="none" fill-rule="evenodd">
        <g id="CEREAL" transform="translate(0.000000, -0.000000)" fill-rule="nonzero">
            <polygon id="Polygon" fill="url(#linearGradient-1)" transform="translate(143.649147, 124.403811) rotate(90.000000) translate(-143.649147, -124.403811) " points="143.649147 -19.2453362 268.052958 52.5792373 268.052958 196.228385 143.649147 268.052958 19.2453362 196.228385 19.2453362 52.5792373"></polygon>
            <polygon id="Star" stroke="#000000" stroke-width="1.2" fill="url(#linearGradient-2)" transform="translate(202.690778, 47.207111) rotate(45.000000) translate(-202.690778, -47.207111) " points="213.734583 36.1633053 209.875196 47.2071112 213.734583 58.250917 202.690778 54.3915292 191.646972 58.250917 195.50636 47.2071112 191.646972 36.1633053 202.690778 40.0226932"></polygon>
            <polygon id="Star" stroke="#000000" fill="url(#linearGradient-3)" transform="translate(90.990778, 205.907111) rotate(45.000000) translate(-90.990778, -205.907111) " points="102.197419 194.70047 98.2811265 205.907111 102.197419 217.113751 90.9907781 213.197459 79.7841373 217.113751 83.7004297 205.907111 79.7841373 194.70047 90.9907781 198.616762"></polygon>
            <path d="M138.652891,20.7299963 L139.195685,20.7369298 C159.421831,21.1414527 175.532006,37.7027145 175.455984,57.8575446 L175.448435,58.469384 L175.227147,69.5054982 L175.553065,69.5237322 C183.439476,69.9701917 189.580238,70.7549994 194.018014,71.8986903 L194.429067,72.0069633 C203.372454,74.4147986 210.831895,78.7139596 222.636869,89.1568206 C228.858099,94.6602176 233.715843,102.677306 236.534592,112.582709 L236.67063,113.078759 L236.809318,113.62187 C237.70864,117.267249 238.566584,123.159927 239.413063,131.396197 C239.43014,131.565363 239.438712,131.73545 239.438712,131.905908 C239.438712,134.667331 237.19804,136.904968 234.437874,136.903811 L189.90018,136.903811 C187.394167,136.903811 185.275244,135.04866 184.94404,132.56463 L184.175463,126.800302 C183.788829,123.900547 181.379566,121.694791 178.457034,121.564901 L174.765945,121.400852 C170.161237,121.196199 166.260106,124.758127 166.0462,129.362414 L165.944024,131.643102 L165.826878,134.508016 C164.956825,157.042952 165.689775,170.327021 167.471019,172.504098 C169.590505,175.094581 172.38821,176.743405 174.852355,176.910701 C175.899636,176.981803 177.04118,176.716555 178.814323,176.025809 L179.576526,175.718817 L181.034975,175.118381 C182.937107,174.357528 184.441622,171.27512 185.078461,165.462222 C185.304013,163.432834 187.021824,161.898864 189.056587,161.903811 L234.74822,161.903818 C236.815256,161.908306 238.538183,163.486884 238.724763,165.556937 C240.154466,182.143458 233.773211,197.522388 219.770467,211.525131 C208.825934,222.469664 194.938665,227.938109 179.333359,228.89815 C166.526005,229.68606 158.488379,228.128949 144.776217,221.071218 C124.942902,210.862895 113.952022,193.773082 111.850936,170.136087 C108.719658,173.026289 104.558438,174.81835 99.979812,174.900835 L99.649147,174.903811 L81.149147,174.903811 C71.2080215,174.903811 63.149147,166.844936 63.149147,156.903811 L63.149147,37.282883 C63.149147,28.5046651 70.2217863,21.3656175 78.9996208,21.2835817 L138.110054,20.7299963 L138.652891,20.7299963 Z" id="Path" fill="#000000"></path>
            <path d="M175.107488,75.5081856 L174.85415,88.1836546 C174.429532,109.414573 157.097111,126.403811 135.861948,126.403811 L117.649147,126.403811 L117.649147,156.903811 C117.649147,157.680984 117.599893,158.446653 117.504337,159.197867 C116.89406,186.432881 126.876326,205.109914 147.522077,215.736404 C160.243632,222.284263 167.205282,223.632928 178.964935,222.909472 C193.196903,222.033919 205.699657,217.110661 215.527827,207.282491 C227.690399,195.119918 233.422482,182.17383 232.887083,168.309981 L232.868147,167.903811 L190.811147,167.902811 L190.745407,168.32822 C189.715203,174.708221 187.416184,178.884685 183.525088,180.579905 L181.74614,181.314573 C178.791487,182.527711 176.792849,183.056257 174.445939,182.896921 C170.192119,182.60812 165.930792,180.096712 162.827275,176.303524 C159.442664,172.166777 158.746783,157.193153 160.052664,129.083968 C160.420134,121.174244 167.121903,115.055194 175.032349,115.40677 L178.723438,115.570818 C184.549354,115.829748 189.352096,120.226808 190.122831,126.00732 L190.775147,130.903811 L233.329147,130.903811 L233.070252,128.531943 L232.87058,126.809825 C232.204918,121.222114 231.538894,117.162907 230.888477,114.682133 L230.763702,114.224913 C228.249561,105.389933 223.995837,98.3697026 218.661425,93.6508006 L217.612961,92.7295446 L216.57371,91.8294266 C206.653929,83.3033356 200.342319,79.8126446 192.869227,77.8006576 C188.84798,76.7180146 182.911669,75.9462856 175.107488,75.5081856 Z" id="Path" fill="#FFA7E4"></path>
            <path d="M138.620936,26.7299717 L138.166126,26.7299717 L79.0556931,27.2833197 C73.5695465,27.3345921 69.149147,31.7964968 69.149147,37.282883 L69.149147,156.903811 C69.149147,163.531228 74.52173,168.903811 81.149147,168.903811 L99.649147,168.903811 C105.665494,168.903811 110.647738,164.476294 111.51535,158.70179 C111.542368,157.586484 111.587459,156.458087 111.649394,155.317424 L111.649147,120.403811 L135.861948,120.403811 C153.830163,120.403811 168.496057,106.028302 168.85535,88.0636786 L169.449635,58.349408 C169.791983,41.2320039 156.193113,27.0780782 139.097713,26.7360895 L138.620936,26.7299717 Z" id="Path" fill="#5CE1E6"></path>
            <path d="M122.649147,57.4038106 C128.724279,57.4038106 134.149147,62.3286784 134.149147,68.4038106 L134.149147,77.4038106 C134.149147,83.4789426 128.724279,88.4038106 122.649147,88.4038106 L117.649147,88.4038106 C114.335439,88.4038106 111.649147,85.7175186 111.649147,82.4038106 L111.649147,63.4038106 C111.649147,60.0901021 114.335439,57.4038106 117.649147,57.4038106 L122.649147,57.4038106 Z" id="Path" fill="#000000"></path>
            <path d="M122.649147,63.4038106 L117.649147,63.4038106 L117.649147,82.4038106 L122.649147,82.4038106 C125.410571,82.4038106 127.649147,80.1652346 127.649147,77.4038106 L127.649147,68.4038106 C127.649147,65.6423869 125.410571,63.4038106 122.649147,63.4038106 Z" id="Path" fill="#FFCAD8"></path>
        </g>
    </g>
</svg>