<?xml version="1.0" encoding="UTF-8"?>
<svg width="2963px" height="2963px" viewBox="0 0 2963 2963" version="1.1" xmlns="http://www.w3.org/2000/svg" xmlns:xlink="http://www.w3.org/1999/xlink">
    <title>NOPE</title>
    <defs>
        <linearGradient x1="0%" y1="0%" x2="100%" y2="0%" id="linearGradient-1">
            <stop stop-color="#8F5E25" offset="0%"></stop>
            <stop stop-color="#FBF4A1" offset="50%"></stop>
            <stop stop-color="#8F5E25" offset="100%"></stop>
        </linearGradient>
        <linearGradient x1="0%" y1="0%" x2="100%" y2="0%" id="linearGradient-2">
            <stop stop-color="#8F5E25" offset="0%"></stop>
            <stop stop-color="#FBF4A1" offset="50%"></stop>
            <stop stop-color="#8F5E25" offset="100%"></stop>
        </linearGradient>
        <linearGradient x1="0%" y1="0%" x2="100%" y2="0%" id="linearGradient-3">
            <stop stop-color="#8F5E25" offset="0%"></stop>
            <stop stop-color="#FBF4A1" offset="50%"></stop>
            <stop stop-color="#8F5E25" offset="100%"></stop>
        </linearGradient>
    </defs>
    <g id="Page-1" stroke="none" stroke-width="1" fill="none" fill-rule="evenodd">
        <g id="NOPE" fill-rule="nonzero">
            <path d="M1481.0427,2962.08539 C663.085401,2962.08539 0,2299 0,1481.0427 C0,663.085401 663.085401,0 1481.0427,0 C2299,0 2962.08539,663.085401 2962.08539,1481.0427 C2961.07463,2298.58095 2298.58095,2961.07463 1481.0427,2962.08539 Z M1481,93 C714.428768,93 93,714.428768 93,1481 C93,2247.57123 714.428768,2869 1481,2869 C2247.57123,2869 2869,2247.57123 2869,1481 C2868.01962,714.835221 2247.16478,93.9803784 1481,93 Z" id="Border" fill="url(#linearGradient-1)"></path>
            <path d="M1478.67299,877.696824 L1780.29285,583.433543 C1791.32772,572.39867 1802.36259,568.720379 1817.07576,568.720379 L1920.06791,568.720379 C1942.13765,568.720379 1960.52911,579.755252 1967.88569,601.824998 C1975.24227,620.216453 1971.56398,638.607908 1956.85082,653.321072 L1603.73488,1006.43701 L1956.85082,1355.87466 C1971.56398,1370.58782 1975.24227,1392.65757 1967.88569,1411.04902 C1960.52911,1429.44048 1942.13765,1440.47535 1920.06791,1440.47535 L1813.39747,1440.47535 C1798.6843,1440.47535 1787.64943,1436.79706 1776.61456,1425.76218 L1478.67299,1131.4989 L1177.05312,1429.44048 C1166.01825,1436.79706 1154.98338,1440.47535 1140.27021,1440.47535 L1037.27806,1440.47535 C1015.20832,1440.47535 996.816864,1429.44048 989.460282,1411.04902 C982.1037,1392.65757 985.781991,1370.58782 1000.49515,1355.87466 L1353.61109,1006.43701 L1000.49515,653.321072 C985.781991,638.607908 982.1037,620.216453 989.460282,601.824998 C996.816864,579.755252 1015.20832,568.720379 1037.27806,568.720379 L1143.9485,568.720379 C1158.66167,568.720379 1169.69654,572.39867 1180.73141,583.433543 L1478.67299,877.696824 Z" id="X" fill="url(#linearGradient-2)"></path>
            <path d="M880.648562,1707.21536 L983.720548,1707.21536 L983.720548,2233.86054 L898.704969,2233.86054 L633.877675,1891.54117 L633.877675,2233.86054 L530.805689,2233.86054 L530.805689,1707.21536 L615.821269,1707.21536 L880.648562,2048.78238 L880.648562,1707.21536 Z M1288.61049,2244.39345 C1129.11224,2244.39345 1011.7456,2125.52211 1011.7456,1969.7856 C1011.7456,1814.80145 1129.11224,1696.68245 1288.61049,1696.68245 C1447.3564,1696.68245 1564.72304,1814.80145 1564.72304,1969.7856 C1564.72304,2125.52211 1447.3564,2244.39345 1288.61049,2244.39345 Z M1288.61049,2148.84496 C1392.43483,2148.84496 1460.8987,2070.60054 1460.8987,1969.7856 C1460.8987,1871.22772 1392.43483,1792.23094 1288.61049,1792.23094 C1184.03381,1792.23094 1116.32228,1871.22772 1116.32228,1969.7856 C1116.32228,2070.60054 1184.03381,2148.84496 1288.61049,2148.84496 Z M1839.51897,1707.21536 C1955.38092,1707.21536 2022.34009,1802.76384 2022.34009,1890.03647 C2022.34009,1978.8138 1956.13327,2072.85759 1835.00487,2072.85759 L1695.06772,2072.85759 L1695.06772,2233.86054 L1592.74809,2233.86054 L1592.74809,1707.21536 L1839.51897,1707.21536 Z M1831.99547,1981.07085 C1887.66939,1981.07085 1922.2775,1936.68219 1922.2775,1890.78882 C1922.2775,1844.14311 1886.91704,1800.50679 1836.50957,1800.50679 L1695.06772,1800.50679 L1695.06772,1981.07085 L1831.99547,1981.07085 Z M2426.54027,1800.50679 L2139.14247,1800.50679 L2139.14247,1920.88283 L2388.17041,1920.88283 L2388.17041,2011.16487 L2139.14247,2011.16487 L2139.14247,2140.56911 L2425.78792,2140.56911 L2425.78792,2233.86054 L2038.32753,2233.86054 L2038.32753,1707.21536 L2426.54027,1707.21536 L2426.54027,1800.50679 Z" fill="url(#linearGradient-3)"></path>
        </g>
    </g>
</svg>