<?xml version="1.0" encoding="UTF-8"?>
<svg width="100px" height="100px" viewBox="0 0 100 100" version="1.1" xmlns="http://www.w3.org/2000/svg" xmlns:xlink="http://www.w3.org/1999/xlink">
    <title>YFI</title>
    <defs>
        <linearGradient x1="73.3627975%" y1="5.73655519%" x2="26.4945026%" y2="94.2571261%" id="linearGradient-1">
            <stop stop-color="#00EAFF" offset="0%"></stop>
            <stop stop-color="#0080FF" offset="25.2530882%"></stop>
            <stop stop-color="#8000FF" offset="49.7394282%"></stop>
            <stop stop-color="#E619E6" offset="74.9912298%"></stop>
            <stop stop-color="#FF0000" offset="99.9136118%"></stop>
        </linearGradient>
    </defs>
    <g id="Page-1" stroke="none" stroke-width="1" fill="none" fill-rule="evenodd">
        <g id="YFI">
            <path d="M100,50 C100,43.5 98.7,36.9 96.2,30.9 C93.7,24.9 90,19.3 85.4,14.6 C80.7,10 75.2,6.3 69.1,3.8 C63,1.3 56.5,0 50,0 C43.5,0 36.9,1.3 30.9,3.8 C24.9,6.3 19.3,10 14.6,14.6 C10,19.3 6.3,24.8 3.8,30.9 C1.3,37 0,43.5 0,50 C0,56.5 1.3,63.1 3.8,69.1 C6.3,75.1 10,80.7 14.6,85.4 C19.2,90 24.8,93.7 30.8,96.2 C36.8,98.7 43.5,100 50,100 C56.5,100 63.1,98.7 69.1,96.2 C75.1,93.7 80.7,90 85.4,85.4 C90,80.8 93.7,75.2 96.2,69.2 C98.7,63.2 100,56.5 100,50 Z" id="bg" fill="url(#linearGradient-1)"></path>
            <path d="M55.5,51.3 C62.5,53.6 67.5,60.2 67.6,68 C67.6,77.7 59.8,85.5 50.1,85.5 C39.5,85.5 31.7,77.7 31.7,68 C31.7,65.4 31.9,63.7 32.9,61.5 L27.2,63.4 L25.3,59 L40.5,53.4 L44.4,68.3 L40,69.7 L37.8,62.5 C37,64.5 36.6,66.2 36.6,67.9 C36.6,74.8 42.2,80.4 50,80.4 C56.9,80.4 62.5,74.8 62.5,67.9 C62.5,63 59.6,58.7 55.5,56.7 Z M52.6,27.4 L52.6,72.6 L47.4,72.6 L47.4,27.4 L52.6,27.4 Z M49.9,14.5 C60.5,14.5 68.3,22.3 68.3,32 C68.3,34.6 68.1,36.3 67.1,38.5 L72.8,36.6 L74.7,41 L59.5,46.6 L55.6,31.7 L60,30.3 L62.2,37.5 C63,35.5 63.4,33.8 63.4,32.1 C63.4,25.2 57.8,19.6 50,19.6 C43.1,19.6 37.5,25.2 37.5,32.1 C37.5,37 40.4,41.3 44.5,43.3 L44.5,48.7 C37.5,46.4 32.5,39.8 32.4,32 C32.4,22.3 40.2,14.5 49.9,14.5 Z" id="logo" fill="#FFFFFF"></path>
        </g>
    </g>
</svg>