<?xml version="1.0" encoding="UTF-8"?>
<svg width="443px" height="434px" viewBox="0 0 443 434" version="1.1" xmlns="http://www.w3.org/2000/svg" xmlns:xlink="http://www.w3.org/1999/xlink">
    <title>9INCH</title>
    <defs>
        <linearGradient x1="15.4700083%" y1="13.5866116%" x2="85.8065139%" y2="85.3778112%" id="linearGradient-1">
            <stop stop-color="#3F9E6D" offset="0%"></stop>
            <stop stop-color="#82A387" offset="100%"></stop>
        </linearGradient>
        <circle id="path-2" cx="204" cy="204" r="204"></circle>
    </defs>
    <g id="Page-1" stroke="none" stroke-width="1" fill="none" fill-rule="evenodd">
        <g id="9INCH" transform="translate(0.000000, 1.500000)">
            <g id="Group" transform="translate(0.000000, 24.500000)">
                <mask id="mask-3" fill="white">
                    <use xlink:href="#path-2"></use>
                </mask>
                <use id="bg" fill="url(#linearGradient-1)" xlink:href="#path-2"></use>
                <path d="M-24,278 C114.009744,130.666667 184.009744,57 186,57 C190,57 195.666667,61 203,69 L227.927876,94.4166584 C228.294581,94.7905534 228.5,95.2933679 228.5,95.8170757 L228.5,133.735265 C228.5,134.839835 229.395431,135.735265 230.5,135.735265 C231.023898,135.735265 231.52688,135.529698 231.90081,135.162757 L271.829159,95.9807321 C273.011732,94.8202634 274.911142,94.8381824 276.071611,96.0207552 C276.904449,96.869457 277.157423,98.1299503 276.716547,99.2342794 L238.69861,194.463677 C237.674757,197.02828 238.923781,199.937298 241.488383,200.961151 C243.278903,201.67597 245.320882,201.297675 246.73651,199.988887 L308.321145,143.052149 C308.726672,142.677228 309.359351,142.702039 309.734272,143.107566 C309.905113,143.292353 310,143.534761 310,143.786421 L310,158.62703 C310,159.183653 310.231967,159.715097 310.640121,160.093567 L337.5,185 L358.001941,202.23761 C358.912499,203.007802 161.5,436.833333 148.5,460.5 L-24,278 Z" id="mid" fill="#431732" mask="url(#mask-3)"></path>
                <path d="M315.5,306.5 C335.069702,268.339081 349.533094,234.646183 358.890177,205.421306 C359.261557,204.262922 358.896197,202.995074 357.966553,202.21051 L337.5,185 L337.5,185 C310.468272,227.778334 289.968272,259.611667 276,280.5 C262.031728,301.388333 227.198395,346.221666 171.5,415 L250,411 C273.666667,380.333333 295.5,345.5 315.5,306.5 Z" id="dark" fill="#30061C" mask="url(#mask-3)"></path>
                <path d="M-9,270 C8.49586262,257.55273 21.329196,248.719397 29.5,243.5 C67.4745676,219.242371 93.4359782,203.564022 101.5,195.5 C117.5,179.5 117.5,153.5 136,128.5 C154.5,103.5 180.013975,86.0385965 186,81 C189.990683,77.6409357 195.65735,73.6409357 203,69 C195.666667,61 190,57 186,57 C182.95369,57 163.306343,83.1132993 118.5,127 C109.148503,136.159559 66.6485035,171.992892 -9,234.5 L-9,270 Z" id="light" fill="#9784AE" mask="url(#mask-3)"></path>
                <path d="M30.5,415 L-4,231.5 L76,165.5 C89.3688677,153.790206 104.868868,139.790206 122.5,123.5 C165.465754,81.2678519 183.014616,57 186,57 C190,57 195.666667,61 203,69 L227.927876,94.4166584 C228.294581,94.7905534 228.5,95.2933679 228.5,95.8170757 L228.5,133.735265 C228.5,134.839835 229.395431,135.735265 230.5,135.735265 C231.023898,135.735265 231.52688,135.529698 231.90081,135.162757 L271.829159,95.9807321 C273.011732,94.8202634 274.911142,94.8381824 276.071611,96.0207552 C276.904449,96.869457 277.157423,98.1299503 276.716547,99.2342794 L238.69861,194.463677 C237.674757,197.02828 238.923781,199.937298 241.488383,200.961151 C243.278903,201.67597 245.320882,201.297675 246.73651,199.988887 L308.321145,143.052149 C308.726672,142.677228 309.359351,142.702039 309.734272,143.107566 C309.905113,143.292353 310,143.534761 310,143.786421 L310,158.62703 C310,159.183653 310.231967,159.715097 310.640121,160.093567 L337.5,185 L357.998779,202.23761 C358.912499,203.007802 359.282245,204.246751 358.938025,205.391127 C352.303499,227.491317 342.990824,250.694275 331,275 C318.666667,300 259.5,396.333333 246.5,420 L30.5,415 Z" id="border" stroke="#000000" stroke-width="3" mask="url(#mask-3)"></path>
            </g>
            <path d="M383,27.5 C378.37358,30.3470276 369.401948,35.0039803 359.5,34.5 C341.577988,33.5878218 292.145707,29.4323647 272.5,27.5 C265.075293,26.769701 245.678792,31.6747093 214.310497,42.215025 C208.028318,44.3261595 204.646951,51.1302502 206.758023,57.4124499 C207.251322,58.8804276 208.024106,60.2390424 209.034729,61.4124756 L219,73 L219,73 L245.951248,101.421316 C246.303593,101.79288 246.5,102.285437 246.5,102.797499 L246.5,116.761353 C246.501133,118.970491 248.292911,120.760434 250.50205,120.759302 C251.618529,120.75873 252.68396,120.291561 253.439383,119.469451 C272.149072,99.203167 285.669278,84.8800166 294,76.5 C298.888101,71.5829753 304.235491,66.6337583 310.04217,61.6523492 L310.040464,61.6503618 C312.555411,59.4926528 316.343347,59.7822511 318.501056,62.2971975 C319.925619,63.9576165 320.333502,66.2618041 319.565493,68.3103483 C312.830972,86.2435051 306.976155,100.473519 302,111 C296.174503,123.323166 286.020445,144.221293 271.537825,173.694383 C270.855949,175.082327 271.429404,176.759882 272.817784,177.440869 C273.875351,177.959596 275.144482,177.760962 275.99057,176.941406 L320.382035,134.218793 C322.769631,131.920957 326.567924,131.993721 328.86576,134.381316 C329.986654,135.545995 330.590198,137.113674 330.539709,138.729326 L329.532763,170.951583 C329.512246,171.60812 329.815417,172.232878 330.343851,172.62303 L368.341705,200.677521 C372.78501,203.957595 379.046316,203.016405 382.327663,198.574041 C383.456055,197.046398 384.126093,195.229011 384.259303,193.334488 C390.344114,107.005277 395.091013,61.2271141 398.5,56 C402.413164,49.999815 412.947308,43.5415132 421.5,38.5 C429.339462,33.8789108 438.890791,19.904145 438.5,16 C437.733313,8.34051646 437.123772,0 430.5,0 C426.264836,0 396,19.5 383,27.5 Z" id="mid" fill="#87AD46"></path>
            <path d="M348.899719,186.044861 L372.378601,203.57135 C376.803091,206.87676 383.069054,205.967089 386.372713,201.541292 C386.957814,200.757454 387.424747,199.892014 387.758957,198.972749 C397.252986,172.818309 402,151.660726 402,135.5 C402,127.887906 402.656536,119.410689 402,111 C400.241562,88.473173 396.538954,65.8736042 402,57.5 C405.913164,51.499815 413.447308,47.0415132 422,42 C429.839462,37.3789108 438.826143,32.2171822 440.5,26 C441.196594,23.4126523 438.890791,19.904145 438.5,16 C438.419086,15.1916393 438.575647,8.728914 437,11 C436.095779,12.3033147 427.762445,19.8033147 412,33.5 L429.60376,22.6976929 C430.073541,22.4073033 430.689368,22.5544622 430.978433,23.0250572 C431.196523,23.3801054 431.1716,23.8331742 430.914207,24.1608561 C428.421136,27.3529764 426.283067,29.632691 424.5,31 C415.092709,38.2137895 403.388751,43.8946241 401,47 C398.410889,50.3658447 395.721225,56.245501 392.931009,64.6389688 C392.758262,65.1635429 392.192496,65.4478075 391.668213,65.2741826 C391.238464,65.1318644 390.957927,64.718594 390.984314,64.2666626 L392,47 L392,47 C385.530614,49.6803419 378.697281,62.1803419 371.5,84.5 C366.903767,98.7534879 365.750961,130.627405 360.5,154 C358.650941,162.23036 354.597041,172.058275 348.338299,183.483745 C347.860319,184.358259 348.099202,185.451213 348.899719,186.044861 Z" id="dark" fill="#4A6F22"></path>
            <path d="M383,27.5 C378.37358,30.3470276 369.401948,35.0039803 359.5,34.5 C341.577988,33.5878218 318.645707,24.9323647 299,23 C285.993257,21.7206482 266.191141,17.8684368 242,24.5 C234.76915,26.4822066 223.896083,31.8494771 209.3808,40.6018113 C203.70332,44.0207138 201.875657,51.3955997 205.29708,57.0715597 C205.617435,57.6030121 205.978531,58.1088148 206.377197,58.5843506 L210.5,63.5 L210.5,63.5 C219.166667,51.5 231.833333,42.5 248.5,36.5 C253.106477,34.8416683 260.85599,32.2055887 274,31.5 C292.585515,30.5023038 319.050315,32.2565724 337.5,36.5 C351.423852,39.702486 367.168788,38.4587857 383,31.5 C394.928442,26.2567201 407.151922,15.1030864 415,10.5 C420.493643,7.27784646 425.496954,5.19371338 427,4.5 C431.333333,2.5 434.666667,2.5 437,4.5 C436.749181,1.5 434.415848,0 430,0 C425.764836,0 396,19.5 383,27.5 Z" id="light" fill="#B9D67A"></path>
            <path d="M383,27.5 C378.37358,30.3470276 369.401948,35.0039803 359.5,34.5 C341.577988,33.5878218 318.645707,24.9323647 299,23 C285.993257,21.7206482 266.191141,17.8684368 242,24.5 C234.794656,26.4752147 223.972744,31.8116549 209.534265,40.5093204 C203.856361,43.927517 202.025811,51.3016869 205.445011,56.9789858 C205.792001,57.5551343 206.186815,58.1010911 206.625427,58.6109619 L219,73 L219,73 L245.951248,101.421316 C246.303593,101.79288 246.5,102.285437 246.5,102.797499 L246.5,116.761353 C246.501133,118.970491 248.292911,120.760434 250.50205,120.759302 C251.618529,120.75873 252.68396,120.291561 253.439383,119.469451 C272.149072,99.203167 285.669278,84.8800166 294,76.5 C298.888101,71.5829753 304.235491,66.6337583 310.04217,61.6523492 L310.040464,61.6503618 C312.555411,59.4926528 316.343347,59.7822511 318.501056,62.2971975 C319.925619,63.9576165 320.333502,66.2618041 319.565493,68.3103483 C312.830972,86.2435051 306.976155,100.473519 302,111 C296.174503,123.323166 286.020445,144.221293 271.537825,173.694383 C270.855949,175.082327 271.429404,176.759882 272.817784,177.440869 C273.875351,177.959596 275.144482,177.760962 275.99057,176.941406 L320.382035,134.218793 C322.769631,131.920957 326.567924,131.993721 328.86576,134.381316 C329.986654,135.545995 330.590198,137.113674 330.539709,138.729326 L329.532763,170.951583 C329.512246,171.60812 329.815417,172.232878 330.343851,172.62303 L372.397308,203.671844 C376.83892,206.954212 383.099909,206.010918 386.379764,201.567451 C386.949388,200.795738 387.405021,199.946086 387.732842,199.044673 C397.244281,172.857095 402,151.675537 402,135.5 C402,127.887906 402.656536,119.410689 402,111 C400.241562,88.473173 396.538954,65.8736042 402,57.5 C405.913164,51.499815 413.447308,47.0415132 422,42 C429.839462,37.3789108 438.826143,32.2171822 440.5,26 C441.196594,23.4126523 438.890791,19.904145 438.5,16 C437.733313,8.34051646 437.123772,0 430.5,0 C426.264836,0 396,19.5 383,27.5 Z" id="border" stroke="#000000" stroke-width="3"></path>
        </g>
    </g>
</svg>