<?xml version="1.0" encoding="UTF-8"?>
<svg width="76px" height="66px" viewBox="0 0 76 66" version="1.1" xmlns="http://www.w3.org/2000/svg" xmlns:xlink="http://www.w3.org/1999/xlink">
    <title>BTR</title>
    <defs>
        <linearGradient x1="74.6544316%" y1="12.5%" x2="25.3686291%" y2="87.5%" id="linearGradient-1">
            <stop stop-color="#C7FF22" offset="0%"></stop>
            <stop stop-color="#59FF11" offset="100%"></stop>
        </linearGradient>
    </defs>
    <g id="Page-1" stroke="none" stroke-width="1" fill="none" fill-rule="evenodd">
        <path d="M54.1132487,0.0910346562 C55.8995766,0.0910346562 57.5502117,1.04402927 58.4433757,2.59103466 L74.5566243,30.5 C75.4497883,32.0470054 75.4497883,33.9529946 74.5566243,35.5 L58.4433757,63.4089653 C57.5502117,64.9559707 55.8995766,65.9089653 54.1132487,65.9089653 L21.8867513,65.9089653 C20.1004234,65.9089653 18.4497883,64.9559707 17.5566243,63.4089653 L1.44337567,35.5 C0.550211698,33.9529946 0.550211698,32.0470054 1.44337567,30.5 L17.5566243,2.59103466 C18.4497883,1.04402927 20.1004234,0.0910346562 21.8867513,0.0910346562 L54.1132487,0.0910346562 Z M37.7975878,9.19261967 L20.5621226,38.6700081 L37.7975878,38.6700081 L37.7975878,56.9010487 L54.5482967,28.5858681 L37.7975878,28.5858681 L37.7975878,9.19261967 Z" id="BTR" fill="url(#linearGradient-1)"></path>
    </g>
</svg>