<?xml version="1.0" encoding="UTF-8"?>
<svg width="30px" height="28px" viewBox="0 0 30 28" version="1.1" xmlns="http://www.w3.org/2000/svg" xmlns:xlink="http://www.w3.org/1999/xlink">
    <title>PLS</title>
    <defs>
        <linearGradient x1="76.2262818%" y1="6.89673373%" x2="23.6511094%" y2="93.1285295%" id="linearGradient-1">
            <stop stop-color="#00EAFF" offset="0%"></stop>
            <stop stop-color="#0080FF" offset="25%"></stop>
            <stop stop-color="#8000FF" offset="50%"></stop>
            <stop stop-color="#E619E6" offset="75%"></stop>
            <stop stop-color="#FF0000" offset="100%"></stop>
        </linearGradient>
    </defs>
    <g id="Page-1" stroke="none" stroke-width="1" fill="none" fill-rule="evenodd">
        <path d="M30,15.6165808 C30,15.7599438 29.9670305,15.8962286 29.9045048,16.0145 L23.4709092,27.2312521 C23.1980604,27.706955 22.693815,28 22.1481173,28 L7.85188273,28 C7.30618506,28 6.80193958,27.706955 6.52909077,27.2312521 L0.0948942772,16.0134311 C0.0325511692,15.8953563 0,15.7597268 0,15.6165808 C0,15.152318 0.373894936,14.7759588 0.835117754,14.7759588 L7.8939829,14.7759588 L9.68288225,17.8345527 L9.69387786,17.8528281 C9.93259932,18.238648 10.4348839,18.3643956 10.8262279,18.1324834 L10.8262279,18.1324834 L10.8464805,18.1200892 C11.0269207,18.0061053 11.1575495,17.8267831 11.2110497,17.6186013 L11.2110497,17.6186013 L13.4904925,8.74863443 L15.4477425,23.028768 L15.450708,23.0486759 C15.5230019,23.4979093 15.9388856,23.809146 16.389159,23.7466152 L16.389159,23.7466152 L16.409613,23.7435161 C16.7356211,23.6899791 17.0004797,23.4475685 17.0835289,23.1244049 L17.0835289,23.1244049 L19.8310921,12.4329513 L20.9592176,14.3618121 L20.9704186,14.3804108 C21.1226677,14.6260129 21.390268,14.7759588 21.6788805,14.7759588 L21.6788805,14.7759588 L29.1648822,14.7759588 L29.1648822,14.7759588 C29.6261051,14.7759588 30,15.152318 30,15.6165808 Z M22.1481173,-1.77635684e-15 C22.693815,-1.77635684e-15 23.1980604,0.293045018 23.4709092,0.768747888 L29.9049065,11.9860103 C29.9671268,12.104158 30,12.2403665 30,12.3834192 C30,12.847682 29.6261051,13.2240412 29.1648822,13.2240412 L22.0828908,13.2240412 L20.2939914,10.1654473 L20.2816784,10.1450613 C20.1684408,9.96343172 19.9902928,9.831942 19.7834741,9.77808919 L19.7834741,9.77808919 L19.7640553,9.77327682 C19.3238144,9.669687 18.8796578,9.93844489 18.7658239,10.3813988 L18.7658239,10.3813988 L16.486317,19.2513009 L14.5291312,4.97123199 L14.5260523,4.9506431 C14.4728659,4.62248622 14.2320426,4.35588208 13.910995,4.2722855 C13.4644702,4.15601637 13.0088527,4.42612726 12.8933448,4.87559507 L12.8933448,4.87559507 L10.1457173,15.5669841 L9.01765607,13.6381879 L9.00645509,13.6195893 C8.85420601,13.3739872 8.58660566,13.2240412 8.29799324,13.2240412 L8.29799324,13.2240412 L0.835117754,13.2240412 L0.835117754,13.2240412 C0.373894936,13.2240412 0,12.847682 0,12.3834192 C0,12.2414632 0.0316772023,12.1072039 0.0928716841,11.9898469 L6.52909077,0.768747888 C6.80193958,0.293045018 7.30618506,-1.77635684e-15 7.85188273,-1.77635684e-15 L22.1481173,-1.77635684e-15 Z" id="PLS" fill="url(#linearGradient-1)" fill-rule="nonzero"></path>
    </g>
</svg>