<svg width="100" height="100" viewBox="0 0 100 100" fill="none" xmlns="http://www.w3.org/2000/svg">
<circle cx="50" cy="50" r="50" fill="black"/>
<path fill-rule="evenodd" clip-rule="evenodd" d="M50 100C77.6142 100 100 77.6142 100 50C100 22.3858 77.6142 0 50 0C22.3858 0 0 22.3858 0 50C0 77.6142 22.3858 100 50 100ZM50 92C73.196 92 92 73.196 92 50C92 26.804 73.196 8 50 8C26.804 8 8 26.804 8 50C8 73.196 26.804 92 50 92Z" fill="url(#paint0_linear_3327_1045)"/>
<path fill-rule="evenodd" clip-rule="evenodd" d="M80 53.0287C80 53.3135 79.9341 53.5843 79.809 53.8193L66.9418 76.1059C66.3961 77.0511 65.3876 77.6333 64.2962 77.6333H35.7038C34.6124 77.6333 33.6039 77.0511 33.0582 76.1059L20.1898 53.8172C20.0651 53.5826 20 53.3131 20 53.0287C20 52.1062 20.7478 51.3584 21.6702 51.3584H35.788L39.3658 57.4356L39.3878 57.4719C39.8652 58.2385 40.8698 58.4883 41.6525 58.0275L41.693 58.0029C42.0538 57.7764 42.3151 57.4201 42.4221 57.0065L46.981 39.3827L50.8955 67.756L50.9014 67.7955C51.046 68.6881 51.8778 69.3065 52.7783 69.1823L52.8192 69.1761C53.4712 69.0697 54.001 68.5881 54.1671 67.946L59.6622 46.7031L61.9184 50.5355L61.9408 50.5725C62.2453 51.0605 62.7805 51.3584 63.3578 51.3584H78.3298C79.2522 51.3584 80 52.1062 80 53.0287ZM64.2962 22C65.3876 22 66.3961 22.5823 66.9418 23.5274L79.8098 45.8151C79.9343 46.0498 80 46.3204 80 46.6047C80 47.5271 79.2522 48.2749 78.3298 48.2749H64.1658L60.588 42.1978L60.5634 42.1573C60.3369 41.7964 59.9806 41.5351 59.5669 41.4281L59.5281 41.4186C58.6476 41.2127 57.7593 41.7467 57.5316 42.6268L52.9726 60.2505L49.0583 31.8774L49.0521 31.8365C48.9457 31.1844 48.4641 30.6547 47.822 30.4886C46.9289 30.2576 46.0177 30.7943 45.7867 31.6873L40.2914 52.9301L38.0353 49.0978L38.0129 49.0608C37.7084 48.5728 37.1732 48.2749 36.596 48.2749H21.6702C20.7478 48.2749 20 47.5271 20 46.6047C20 46.3226 20.0634 46.0559 20.1857 45.8227L33.0582 23.5274C33.6039 22.5823 34.6124 22 35.7038 22H64.2962Z" fill="url(#paint1_linear_3327_1045)"/>
<defs>
<linearGradient id="paint0_linear_3327_1045" x1="76.2263" y1="7.45935" x2="23.6511" y2="92.5656" gradientUnits="userSpaceOnUse">
<stop stop-color="#00EAFF"/>
<stop offset="0.252531" stop-color="#0080FF"/>
<stop offset="0.497394" stop-color="#8000FF"/>
<stop offset="0.749912" stop-color="#E619E6"/>
<stop offset="0.999136" stop-color="#FF0000"/>
</linearGradient>
<linearGradient id="paint1_linear_3327_1045" x1="65.7358" y1="26.1499" x2="37.5221" y2="75.4056" gradientUnits="userSpaceOnUse">
<stop stop-color="#00EAFF"/>
<stop offset="0.252531" stop-color="#0080FF"/>
<stop offset="0.497394" stop-color="#8000FF"/>
<stop offset="0.749912" stop-color="#E619E6"/>
<stop offset="0.999136" stop-color="#FF0000"/>
</linearGradient>
</defs>
</svg>
