<svg width="40" height="40" viewBox="0 0 40 40" fill="none" xmlns="http://www.w3.org/2000/svg">
<g clip-path="url(#clip0_64_1355)">
<path fill-rule="evenodd" clip-rule="evenodd" d="M20 40C31.0457 40 40 31.0457 40 20C40 8.95432 31.0457 0 20 0C8.95432 0 0 8.95432 0 20C0 31.0457 8.95432 40 20 40ZM20 36.8C29.2784 36.8 36.8 29.2784 36.8 20C36.8 10.7216 29.2784 3.2 20 3.2C10.7216 3.2 3.2 10.7216 3.2 20C3.2 29.2784 10.7216 36.8 20 36.8Z" fill="url(#paint0_linear_64_1355)"/>
<path fill-rule="evenodd" clip-rule="evenodd" d="M32 21.2115C32 21.3254 31.9736 21.4337 31.9236 21.5277L26.7767 30.4423C26.5584 30.8204 26.155 31.0533 25.7185 31.0533H14.2815C13.845 31.0533 13.4416 30.8204 13.2233 30.4423L8.07592 21.5269C8.02604 21.433 8 21.3252 8 21.2115C8 20.8425 8.29912 20.5433 8.66808 20.5433H14.3152L15.7463 22.9742L15.7551 22.9887C15.9461 23.2954 16.3479 23.3953 16.661 23.211L16.6772 23.2011C16.8215 23.1105 16.926 22.968 16.9688 22.8026L18.7924 15.7531L20.3582 27.1024L20.3606 27.1182C20.4184 27.4752 20.7511 27.7226 21.1113 27.6729L21.1277 27.6704C21.3885 27.6279 21.6004 27.4352 21.6668 27.1784L23.8649 18.6812L24.7674 20.2142L24.7763 20.229C24.8981 20.4242 25.1122 20.5433 25.3431 20.5433H31.3319C31.7009 20.5433 32 20.8425 32 21.2115ZM25.7185 8.79999C26.155 8.79999 26.5584 9.03291 26.7767 9.41095L31.9239 18.326C31.9737 18.4199 32 18.5281 32 18.6419C32 19.0108 31.7009 19.3099 31.3319 19.3099H25.6663L24.2352 16.8791L24.2254 16.8629C24.1348 16.7185 23.9922 16.614 23.8268 16.5712L23.8112 16.5674C23.459 16.4851 23.1037 16.6987 23.0126 17.0507L21.189 24.1002L19.6233 12.7509L19.6208 12.7346C19.5783 12.4737 19.3856 12.2619 19.1288 12.1954C18.7716 12.103 18.4071 12.3177 18.3147 12.6749L16.1166 21.172L15.2141 19.6391L15.2052 19.6243C15.0834 19.4291 14.8693 19.3099 14.6384 19.3099H8.66808C8.29912 19.3099 8 19.0108 8 18.6419C8 18.529 8.02536 18.4223 8.07428 18.3291L13.2233 9.41095C13.4416 9.03291 13.845 8.79999 14.2815 8.79999H25.7185Z" fill="url(#paint1_linear_64_1355)"/>
<path d="M39.875 20C39.875 9.02334 30.9767 0.125 20 0.125C9.02334 0.125 0.125 9.02334 0.125 20C0.125 30.9767 9.02334 39.875 20 39.875C30.9767 39.875 39.875 30.9767 39.875 20Z" stroke="black" stroke-opacity="0.1" stroke-width="0.25"/>
<g style="mix-blend-mode:soft-light" opacity="0.25">
<path d="M40 20C40 8.9543 31.0457 0 20 0C8.9543 0 0 8.9543 0 20C0 31.0457 8.9543 40 20 40C31.0457 40 40 31.0457 40 20Z" fill="url(#paint2_linear_64_1355)"/>
</g>
</g>
<defs>
<linearGradient id="paint0_linear_64_1355" x1="30.4905" y1="2.98374" x2="9.46044" y2="37.0262" gradientUnits="userSpaceOnUse">
<stop stop-color="#00EAFF"/>
<stop offset="0.252531" stop-color="#0080FF"/>
<stop offset="0.497394" stop-color="#8000FF"/>
<stop offset="0.749912" stop-color="#E619E6"/>
<stop offset="0.999136" stop-color="#FF0000"/>
</linearGradient>
<linearGradient id="paint1_linear_64_1355" x1="26.2943" y1="10.4599" x2="15.0088" y2="30.1622" gradientUnits="userSpaceOnUse">
<stop stop-color="#00EAFF"/>
<stop offset="0.252531" stop-color="#0080FF"/>
<stop offset="0.497394" stop-color="#8000FF"/>
<stop offset="0.749912" stop-color="#E619E6"/>
<stop offset="0.999136" stop-color="#FF0000"/>
</linearGradient>
<linearGradient id="paint2_linear_64_1355" x1="20" y1="0" x2="20" y2="40" gradientUnits="userSpaceOnUse">
<stop stop-color="white"/>
<stop offset="0.0666667" stop-color="#FDFDFD"/>
<stop offset="0.133333" stop-color="#F6F6F6"/>
<stop offset="0.2" stop-color="#EAEAEA"/>
<stop offset="0.266667" stop-color="#D9D9D9"/>
<stop offset="0.333333" stop-color="#C4C4C4"/>
<stop offset="0.4" stop-color="#AAAAAA"/>
<stop offset="0.466667" stop-color="#8E8E8E"/>
<stop offset="0.533333" stop-color="#717171"/>
<stop offset="0.6" stop-color="#555555"/>
<stop offset="0.666667" stop-color="#3B3B3B"/>
<stop offset="0.733333" stop-color="#262626"/>
<stop offset="0.8" stop-color="#151515"/>
<stop offset="0.866667" stop-color="#090909"/>
<stop offset="0.933333" stop-color="#020202"/>
<stop offset="1"/>
</linearGradient>
<clipPath id="clip0_64_1355">
<rect width="40" height="40" fill="white"/>
</clipPath>
</defs>
</svg>
