<?xml version="1.0" encoding="UTF-8"?>
<svg width="1000px" height="1000px" viewBox="0 0 1000 1000" version="1.1" xmlns="http://www.w3.org/2000/svg" xmlns:xlink="http://www.w3.org/1999/xlink">
    <defs>
        <linearGradient x1="75.1294452%" y1="2.06743302%" x2="22.0955102%" y2="100%" id="linearGradient-1">
            <stop stop-color="#00EAFF" offset="0%"></stop>
            <stop stop-color="#0080FF" offset="24.5593622%"></stop>
            <stop stop-color="#8000FF" offset="46.9243604%"></stop>
            <stop stop-color="#E619E6" offset="72.3341803%"></stop>
            <stop stop-color="#FF0000" offset="99.9136118%"></stop>
        </linearGradient>
    </defs>
    <g stroke="none" stroke-width="1" fill="none" fill-rule="evenodd">
        <circle fill="url(#linearGradient-1)" cx="500" cy="500" r="500"></circle>
        <path d="M677.962372,334.279456 C657.377831,264.78556 591.597365,252.941172 513.055499,261.201722 L493.971801,162.959623 L434.129428,174.611398 L452.711837,270.263842 C436.999464,273.318377 420.982645,276.756354 405.071655,280.182131 L386.378673,183.893971 L326.582101,195.524389 L345.636303,293.743091 C332.734507,296.527236 320.060677,299.242229 307.658684,301.663287 L307.591687,301.360177 L225.068158,317.384277 L237.48894,381.248864 C237.48894,381.248864 281.506438,371.812481 280.930006,372.768553 C305.165118,368.061683 315.798852,380.582227 320.434651,392.277517 L342.178061,504.195149 C343.852075,503.87892 346.047088,503.524071 348.582863,503.381823 L342.279593,504.61218 L372.702196,661.409358 C373.119305,669.239285 370.996942,682.265601 354.071524,685.588587 C354.96871,686.117551 310.578581,694.037363 310.578581,694.037363 L312.569471,767.780756 L390.442402,752.625011 C404.934615,749.82367 419.238439,747.295927 433.236037,744.669503 L452.567415,844.040636 L512.333454,832.424456 L493.25183,734.10709 C509.711981,731.261112 525.617635,728.302199 541.118348,725.272063 L560.099476,823.134764 L619.926582,811.490108 L600.680579,712.302065 C700.143893,686.967108 765.638946,647.937459 756.020237,551.857336 C748.31273,474.464124 705.961921,447.496342 646.196303,444.883826 C677.440483,420.451067 693.085508,385.125899 677.947105,334.286576 L677.962372,334.279456 Z M636.03951,563.437856 C650.609194,638.000344 521.631926,654.181097 481.024514,662.070081 L455.240142,529.872441 C495.846571,522.021235 620.836096,485.68151 636.054788,563.430732 L636.03951,563.437856 Z M571.673866,382.929769 C584.944569,450.830146 477.291424,463.387538 443.497211,469.917654 L420.012714,349.915267 C453.806928,343.385151 557.820518,312.106644 571.673866,382.929769 L571.673866,382.929769 Z" fill="#FFFFFF" fill-rule="nonzero"></path>
    </g>
</svg>