<?xml version="1.0" encoding="UTF-8"?>
<svg width="1024px" height="1024px" viewBox="0 0 1024 1024" version="1.1" xmlns="http://www.w3.org/2000/svg" xmlns:xlink="http://www.w3.org/1999/xlink">
    <title>eMAXI</title>
    <g id="PRC20s" stroke="none" stroke-width="1" fill="none" fill-rule="evenodd">
        <g id="eMAXI" fill-rule="nonzero">
            <circle id="Oval-Copy-3" fill="#627EEA" cx="512" cy="512" r="512"></circle>
            <circle id="Oval-Copy-2" fill="#0F00B3" cx="512" cy="512" r="425"></circle>
            <path d="M516.046154,617.769231 L651.592308,320 L771.965385,320 L771.965385,326.076923 C734.875641,323.376068 715.65641,344.645299 714.307692,389.884615 C712.284615,457.74359 714.307692,592.448718 714.307692,650.179487 C714.307692,688.666667 734.538462,708.247863 775,708.923077 L775,715 L580.784615,715 L580.784615,708.923077 C627.989744,710.948718 651.929487,684.952991 652.603846,630.935897 C653.278205,576.918804 653.615385,482.388889 653.615385,347.346154 L487.723077,707.910256 L328.911538,356.461538 C328.237179,500.282051 327.9,594.474359 327.9,639.038462 C327.9,683.602564 350.828205,706.897436 396.684615,708.923077 L396.684615,715 L249,715 L249,708.923077 C292.833333,710.273504 315.424359,667.059829 316.773077,579.282051 C318.796154,447.615385 317.784615,426.346154 317.784615,379.75641 C317.784615,348.696581 298.902564,330.803419 261.138462,326.076923 L261.138462,320 L382.523077,320 L516.046154,617.769231 Z" id="Path-3" fill="#FFD700"></path>
        </g>
    </g>
</svg>