<?xml version="1.0" encoding="UTF-8"?>
<svg width="1000px" height="1007px" viewBox="0 0 1000 1007" version="1.1" xmlns="http://www.w3.org/2000/svg" xmlns:xlink="http://www.w3.org/1999/xlink">
    <title>image</title>
    <defs>
        <linearGradient x1="50%" y1="0%" x2="50%" y2="100%" id="linearGradient-1">
            <stop stop-color="#0DAED9" offset="0%"></stop>
            <stop stop-color="#833D97" offset="51.5597684%"></stop>
            <stop stop-color="#DF2D86" offset="100%"></stop>
        </linearGradient>
    </defs>
    <g id="Page-1" stroke="none" stroke-width="1" fill="none" fill-rule="evenodd">
        <g id="Artboard" fill="url(#linearGradient-1)" fill-rule="nonzero">
            <path d="M473,0 L528,0 L562,3 L598,9 L629,16 L659,25 L686,35 L709,45 L732,56 L755,69 L779,84 L797,97 L810,107 L821,116 L835,128 L851,143 L866,158 L873,166 L882,176 L893,190 L907,208 L923,232 L938,257 L955,290 L969,324 L977,347 L983,367 L990,395 L996,428 L999,454 L1000,468 L1000,541 L997,575 L992,607 L985,639 L976,670 L966,697 L956,720 L947,739 L934,762 L919,786 L906,804 L893,821 L881,835 L869,849 L854,864 L849,869 L836,882 L828,889 L815,900 L795,915 L778,927 L757,940 L735,952 L713,963 L689,973 L661,983 L638,990 L610,997 L577,1003 L548,1006 L532,1007 L475,1007 L444,1004 L408,998 L378,991 L351,983 L321,972 L294,960 L274,950 L251,937 L228,922 L211,910 L198,900 L182,887 L171,878 L155,863 L142,851 L135,843 L127,835 L118,824 L107,811 L95,795 L81,775 L68,754 L55,730 L44,708 L31,676 L19,640 L10,604 L5,577 L1,543 L0,531 L0,472 L3,439 L9,402 L17,368 L25,342 L34,317 L46,289 L60,261 L76,234 L90,213 L104,194 L113,183 L125,169 L134,159 L165,128 L176,119 L186,110 L206,95 L223,83 L242,71 L263,59 L295,43 L325,31 L361,19 L388,12 L418,6 L448,2 L473,0 Z M476,10 L441,13 L409,18 L381,24 L353,32 L324,42 L298,53 L271,66 L247,80 L229,91 L215,101 L199,113 L183,126 L173,135 L165,142 L136,171 L127,182 L118,192 L103,212 L91,229 L78,250 L68,268 L56,291 L43,321 L30,359 L22,389 L16,420 L12,450 L10,476 L10,525 L13,560 L18,592 L23,616 L31,645 L43,680 L57,712 L67,732 L80,755 L100,785 L116,806 L125,817 L137,831 L146,840 L153,848 L170,864 L181,874 L192,883 L210,897 L240,917 L255,926 L277,938 L304,951 L337,964 L369,974 L398,981 L425,986 L460,990 L476,991 L525,991 L560,988 L593,983 L624,976 L654,967 L682,957 L707,946 L726,937 L749,924 L767,913 L786,900 L803,887 L814,878 L827,867 L842,853 L861,834 L868,826 L880,812 L893,795 L907,776 L917,760 L926,745 L939,721 L949,700 L960,673 L972,637 L980,605 L987,564 L990,533 L991,499 L990,469 L987,438 L981,402 L975,375 L965,342 L955,315 L940,282 L925,254 L912,233 L901,217 L889,201 L878,187 L869,177 L862,169 L850,156 L836,142 L828,135 L818,126 L804,115 L786,101 L774,93 L757,82 L731,67 L705,54 L674,41 L638,29 L607,21 L574,15 L540,11 L524,10 L476,10 Z M477,13 L486,13 L486,25 L477,25 L477,13 Z M496,13 L506,13 L506,25 L497,25 L496,24 L496,13 Z M515,13 L525,13 L525,25 L515,25 L515,13 Z M534,13 L544,14 L544,22 L543,27 L533,26 L534,13 Z M464,13 L467,13 L468,16 L468,26 L459,27 L458,24 L458,14 L464,13 Z M443,15 L448,15 L449,18 L449,28 L440,28 L439,16 L443,15 Z M554,15 L563,16 L562,29 L552,28 L552,20 L554,15 Z M422,18 L429,18 L431,25 L431,30 L422,31 L420,24 L420,19 L422,18 Z M572,18 L579,18 L582,19 L581,30 L580,31 L571,30 L571,21 L572,18 Z M409,20 L411,20 L413,33 L404,34 L402,28 L401,22 L409,20 Z M591,21 L601,22 L599,34 L596,35 L589,33 L590,23 L591,21 Z M390,24 L392,24 L394,32 L394,37 L385,39 L382,26 L390,24 Z M610,25 L618,26 L620,27 L617,39 L610,38 L607,37 L610,25 Z M628,29 L637,31 L638,35 L635,44 L625,42 L628,29 Z M371,29 L374,29 L377,41 L371,43 L367,43 L364,31 L371,29 Z M354,34 L356,35 L359,46 L352,49 L349,49 L346,40 L346,37 L354,34 Z M647,35 L656,37 L654,46 L653,49 L646,48 L643,47 L646,36 L647,35 Z M336,40 L338,41 L341,52 L335,55 L331,55 L327,46 L328,43 L336,40 Z M665,41 L674,44 L673,49 L670,56 L661,53 L664,43 L665,41 Z M317,47 L319,47 L323,57 L322,60 L317,62 L314,62 L310,53 L310,50 L317,47 Z M683,48 L692,51 L689,60 L686,63 L679,60 L680,55 L683,48 Z M489,53 L498,53 L507,54 L510,53 L510,68 L508,68 L504,62 L501,59 L498,58 L490,58 L485,63 L483,69 L483,80 L486,88 L490,91 L500,91 L499,81 L495,79 L495,77 L515,77 L515,79 L511,81 L511,92 L504,95 L498,96 L488,96 L479,92 L474,87 L471,82 L470,72 L473,64 L479,57 L485,54 L489,53 Z M299,55 L302,55 L306,64 L306,67 L297,70 L292,61 L292,58 L299,55 Z M542,55 L568,59 L574,62 L577,65 L578,73 L575,78 L569,82 L577,97 L579,101 L569,101 L564,97 L557,83 L557,81 L554,81 L554,89 L553,95 L558,96 L558,98 L554,99 L537,96 L537,94 L541,93 L543,84 L546,60 L542,58 L542,55 Z M557,61 L555,77 L563,77 L567,73 L567,65 L564,62 L557,61 Z M700,56 L706,57 L710,59 L708,64 L705,70 L700,69 L696,67 L699,58 L700,56 Z M282,63 L284,63 L289,73 L289,75 L283,78 L280,78 L275,69 L276,66 L282,63 Z M717,64 L722,65 L727,67 L725,73 L722,79 L716,77 L713,75 L714,70 L717,64 Z M393,66 L397,66 L400,78 L396,76 L393,73 L385,73 L381,75 L385,87 L388,85 L389,77 L392,79 L396,95 L395,98 L391,93 L386,92 L389,104 L393,105 L401,101 L405,91 L407,91 L408,105 L376,114 L374,114 L375,111 L377,110 L376,101 L370,79 L369,77 L364,76 L364,74 L390,67 L393,66 Z M265,72 L268,73 L273,81 L273,83 L266,87 L262,85 L258,78 L258,76 L265,72 Z M630,73 L632,73 L633,75 L637,108 L639,115 L640,118 L630,116 L621,113 L621,111 L626,111 L625,103 L616,100 L611,101 L610,106 L613,107 L613,109 L604,108 L599,106 L599,104 L605,101 L607,101 L609,97 L618,87 L627,76 L630,73 Z M622,87 L615,95 L618,97 L625,98 L624,87 L622,87 Z M734,73 L739,74 L743,76 L742,81 L738,88 L733,86 L729,84 L731,79 L734,73 Z M249,81 L252,84 L256,90 L256,93 L248,97 L242,88 L242,85 L249,81 Z M751,82 L756,84 L760,86 L759,90 L754,97 L750,96 L745,93 L747,89 L751,82 Z M336,84 L338,84 L338,86 L335,88 L336,94 L347,118 L351,119 L353,119 L353,121 L339,128 L331,131 L319,137 L312,139 L314,135 L313,128 L302,104 L296,104 L296,102 L313,94 L316,94 L316,96 L314,97 L315,104 L318,111 L327,107 L329,107 L324,95 L317,94 L320,91 L336,84 Z M330,110 L320,115 L323,124 L326,129 L333,128 L337,125 L334,116 L331,110 L330,110 Z M671,88 L677,89 L690,95 L690,97 L685,97 L686,115 L698,107 L700,104 L698,100 L707,103 L710,105 L710,107 L701,110 L690,118 L685,123 L681,134 L685,135 L685,137 L679,136 L664,129 L664,126 L671,127 L674,118 L674,106 L673,90 L671,90 L671,88 Z M233,91 L235,91 L241,100 L240,103 L234,107 L230,105 L225,98 L225,96 L233,91 Z M767,93 L771,94 L776,97 L774,101 L769,108 L761,104 L761,101 L763,101 L765,96 L767,93 Z M217,102 L222,107 L225,111 L224,114 L218,118 L215,117 L210,110 L210,107 L217,102 Z M783,104 L787,105 L792,108 L790,112 L785,119 L778,115 L778,111 L783,104 Z M201,114 L206,119 L209,122 L208,126 L204,129 L200,127 L195,121 L197,117 L201,114 Z M798,115 L803,117 L806,119 L805,123 L800,130 L795,128 L791,125 L791,123 L796,118 L798,115 Z M268,117 L272,118 L276,124 L276,127 L271,125 L267,124 L263,126 L265,131 L277,150 L279,153 L286,153 L286,155 L269,166 L267,166 L269,162 L268,157 L253,134 L250,134 L248,136 L247,145 L245,145 L240,138 L240,135 L256,125 L268,117 Z M486,118 L518,118 L553,121 L581,126 L605,132 L641,144 L661,153 L680,162 L707,178 L727,192 L741,203 L755,215 L768,227 L780,239 L787,247 L799,261 L813,280 L823,295 L832,310 L844,332 L855,357 L864,382 L872,410 L878,440 L881,464 L882,476 L882,523 L879,553 L874,582 L866,613 L858,637 L848,660 L840,677 L828,698 L812,722 L799,739 L788,752 L777,764 L766,776 L758,783 L745,795 L731,806 L713,819 L692,832 L668,845 L640,857 L617,865 L593,872 L564,878 L533,882 L514,883 L492,883 L462,881 L434,877 L406,871 L382,864 L360,856 L342,848 L326,840 L311,832 L292,820 L274,807 L260,796 L250,787 L242,780 L234,772 L226,765 L219,757 L208,745 L197,731 L184,713 L171,692 L159,670 L147,643 L138,619 L130,590 L125,568 L121,541 L119,516 L119,479 L122,447 L127,418 L135,387 L143,363 L153,340 L161,324 L170,307 L181,290 L193,273 L203,260 L215,246 L226,234 L245,215 L256,206 L268,196 L286,183 L307,170 L329,158 L356,146 L381,137 L412,128 L442,122 L470,119 L486,118 Z M480,133 L450,136 L422,141 L398,147 L371,156 L345,167 L318,181 L296,195 L279,207 L263,220 L251,231 L241,240 L232,249 L225,257 L213,271 L199,290 L188,307 L177,326 L169,342 L161,359 L151,386 L143,414 L138,438 L134,472 L133,491 L133,510 L135,540 L140,573 L146,598 L158,634 L167,655 L175,671 L183,686 L195,705 L205,719 L215,732 L227,746 L241,761 L249,769 L257,776 L271,788 L287,800 L302,810 L322,822 L345,834 L371,845 L402,855 L427,861 L450,865 L484,868 L518,868 L544,866 L580,860 L610,852 L638,842 L658,833 L678,823 L698,811 L717,798 L731,787 L744,776 L757,764 L772,749 L779,741 L792,725 L805,707 L817,688 L827,670 L840,643 L850,615 L857,592 L862,570 L866,543 L868,519 L868,482 L865,450 L860,421 L853,395 L845,371 L835,347 L823,323 L811,303 L800,287 L791,275 L782,264 L773,254 L766,246 L749,229 L738,220 L729,212 L710,198 L693,187 L672,175 L650,164 L622,153 L596,145 L570,139 L544,135 L521,133 L480,133 Z M736,124 L744,124 L750,128 L755,133 L758,132 L756,138 L751,145 L749,145 L749,135 L746,130 L740,129 L739,130 L740,137 L746,149 L746,158 L741,164 L733,166 L725,163 L718,156 L714,155 L716,149 L721,142 L723,142 L723,153 L726,159 L728,160 L734,160 L735,159 L734,152 L728,140 L728,132 L732,126 L736,124 Z M186,126 L189,127 L195,134 L193,138 L189,141 L185,139 L180,133 L180,131 L186,126 Z M813,127 L818,129 L821,132 L819,136 L814,142 L810,140 L806,137 L806,135 L808,135 L810,131 L813,127 Z M171,139 L175,141 L181,147 L181,149 L175,154 L173,154 L166,146 L168,142 L171,139 Z M827,140 L831,141 L835,145 L833,149 L828,154 L823,152 L820,150 L822,146 L827,140 Z M158,153 L162,155 L167,160 L167,162 L160,167 L153,159 L153,157 L158,153 Z M842,153 L848,158 L846,162 L842,167 L837,165 L835,163 L836,159 L842,153 Z M144,166 L149,168 L154,173 L152,177 L147,181 L139,174 L139,171 L141,171 L143,167 L144,166 Z M855,166 L862,172 L860,176 L854,181 L850,179 L847,176 L849,172 L855,166 Z M462,167 L465,168 L466,173 L466,189 L456,188 L452,186 L452,184 L462,185 L462,167 Z M478,166 L484,168 L487,171 L487,180 L484,185 L486,189 L478,188 L473,188 L473,186 L475,184 L471,179 L471,171 L475,167 L478,166 Z M476,170 L474,172 L474,178 L478,183 L482,182 L484,178 L484,172 L482,170 L476,170 Z M500,166 L503,167 L503,172 L510,171 L510,174 L505,175 L503,174 L503,188 L500,188 L499,171 L493,171 L493,168 L500,168 L500,166 Z M529,168 L535,168 L536,170 L536,176 L527,179 L524,183 L523,188 L522,189 L515,188 L515,181 L523,178 L526,175 L526,170 L529,168 Z M434,170 L436,170 L437,177 L443,173 L445,173 L444,177 L440,179 L440,181 L446,183 L447,186 L439,185 L439,192 L436,191 L434,185 L428,189 L426,189 L428,185 L432,182 L425,178 L425,176 L433,177 L434,170 Z M550,170 L553,171 L554,176 L549,178 L550,184 L558,185 L559,190 L556,192 L548,192 L542,187 L541,185 L541,177 L545,172 L550,170 Z M545,177 L546,179 L545,177 Z M544,179 L544,184 L546,185 L545,179 L544,179 Z M546,185 L546,187 L548,186 L546,185 Z M411,174 L417,175 L421,180 L422,187 L419,194 L413,197 L407,196 L405,192 L415,192 L418,186 L402,182 L404,178 L408,175 L411,174 Z M409,178 L408,180 L417,182 L417,179 L415,178 L409,178 Z M576,175 L579,175 L577,180 L573,186 L573,194 L569,196 L568,194 L566,194 L564,184 L568,186 L576,175 Z M393,177 L397,179 L401,195 L401,199 L388,199 L386,198 L386,196 L397,196 L393,179 L393,177 Z M590,177 L595,178 L597,183 L595,193 L598,193 L598,195 L602,195 L601,199 L594,200 L591,200 L591,190 L592,186 L590,185 L590,183 L592,182 L589,182 L588,184 L583,183 L585,179 L590,177 Z M131,180 L135,182 L141,187 L139,192 L136,195 L132,193 L126,188 L128,184 L131,180 Z M867,181 L870,181 L875,186 L875,189 L867,195 L863,194 L859,188 L867,181 Z M367,185 L370,185 L371,190 L377,191 L381,196 L380,202 L376,206 L370,207 L364,204 L363,202 L363,196 L366,192 L367,185 Z M373,194 L374,201 L377,201 L378,197 L376,194 L373,194 Z M368,195 L366,197 L367,202 L371,203 L370,197 L368,195 Z M612,185 L621,185 L626,189 L627,196 L622,204 L619,206 L611,206 L607,202 L607,199 L611,201 L618,202 L621,201 L618,196 L610,189 L610,186 L612,185 Z M615,188 L621,195 L623,196 L623,191 L620,188 L615,188 Z M410,186 L413,189 L409,190 L408,187 L410,186 Z M119,195 L124,197 L130,201 L128,205 L125,209 L121,208 L114,203 L116,199 L119,195 Z M880,195 L887,201 L887,204 L878,210 L876,210 L871,204 L871,202 L880,195 Z M612,196 L615,196 L615,199 L612,199 L612,196 Z M107,210 L111,211 L118,216 L116,221 L114,224 L110,223 L103,218 L105,213 L107,210 Z M891,211 L894,211 L898,217 L897,220 L889,225 L887,225 L883,219 L885,215 L891,211 Z M495,212 L512,212 L532,214 L552,218 L575,225 L598,235 L615,244 L633,256 L647,267 L659,278 L674,293 L687,311 L696,327 L703,346 L707,363 L709,380 L709,396 L706,421 L700,442 L693,459 L689,462 L687,462 L690,474 L690,494 L687,503 L684,506 L685,511 L688,522 L689,529 L689,544 L686,561 L680,577 L672,592 L662,606 L650,620 L635,635 L633,636 L633,643 L624,663 L613,682 L603,696 L594,707 L580,722 L573,727 L567,727 L564,736 L556,752 L547,766 L538,776 L533,779 L526,781 L520,784 L511,784 L501,785 L485,783 L480,779 L474,779 L466,772 L457,761 L447,743 L441,730 L441,727 L435,727 L429,723 L416,710 L407,699 L397,685 L385,665 L375,644 L374,636 L352,614 L339,597 L330,581 L325,570 L321,557 L319,546 L319,526 L323,510 L324,506 L320,502 L317,489 L317,480 L320,463 L315,459 L307,440 L302,421 L299,400 L299,376 L302,356 L308,336 L318,315 L330,298 L342,284 L353,273 L364,264 L379,253 L398,241 L425,228 L452,219 L476,214 L495,212 Z M497,220 L476,222 L450,228 L427,236 L400,249 L383,260 L371,269 L357,281 L340,298 L330,311 L321,327 L315,341 L310,360 L308,374 L308,405 L312,427 L318,447 L320,452 L321,452 L321,431 L317,411 L316,408 L318,408 L321,418 L326,435 L328,447 L328,466 L326,477 L326,492 L327,492 L331,472 L335,456 L335,435 L329,404 L328,385 L330,367 L334,353 L338,346 L338,344 L340,344 L335,358 L333,369 L333,389 L335,402 L342,429 L345,442 L345,470 L348,475 L352,477 L363,477 L369,476 L386,475 L387,477 L378,477 L362,482 L352,487 L342,495 L334,506 L329,519 L328,524 L328,549 L333,568 L338,579 L344,590 L356,606 L368,619 L377,628 L385,635 L395,644 L402,651 L410,661 L409,662 L398,652 L387,644 L385,644 L386,649 L397,670 L409,688 L419,701 L426,709 L426,706 L417,692 L404,668 L407,671 L416,685 L425,696 L430,700 L428,695 L423,687 L424,686 L434,698 L436,697 L434,692 L436,692 L439,701 L452,735 L461,752 L470,765 L471,763 L463,746 L457,730 L458,729 L466,745 L473,758 L483,771 L484,769 L476,753 L480,757 L487,767 L496,775 L500,777 L507,777 L516,772 L524,763 L530,754 L530,752 L532,752 L525,767 L526,769 L535,757 L545,740 L550,729 L552,728 L540,757 L538,763 L543,758 L553,741 L567,706 L572,692 L574,691 L573,697 L580,691 L584,686 L584,684 L587,684 L587,686 L585,686 L576,701 L577,703 L586,693 L598,676 L603,667 L605,666 L591,692 L583,704 L584,706 L593,696 L606,678 L616,660 L623,645 L620,645 L609,653 L599,662 L597,663 L607,650 L622,635 L630,628 L642,617 L652,606 L663,591 L672,575 L678,559 L681,542 L681,531 L679,519 L674,506 L667,497 L659,489 L651,484 L638,479 L630,477 L621,477 L621,475 L638,476 L645,477 L657,477 L662,472 L663,470 L663,441 L673,401 L675,388 L675,371 L672,357 L668,347 L666,344 L670,348 L676,361 L679,378 L679,393 L677,412 L673,432 L672,441 L672,450 L675,466 L679,481 L681,494 L682,494 L682,475 L680,464 L680,445 L684,426 L688,413 L688,410 L691,410 L688,421 L686,437 L686,452 L688,451 L696,427 L700,408 L701,396 L701,382 L699,364 L694,345 L689,332 L682,318 L673,305 L662,292 L647,277 L633,266 L619,256 L598,244 L576,234 L554,227 L531,222 L510,220 L497,220 Z M431,701 L432,703 L431,701 Z M537,763 L538,765 L537,763 Z M96,226 L100,227 L107,232 L105,237 L103,240 L98,238 L92,234 L94,229 L96,226 Z M903,226 L908,231 L909,235 L900,240 L896,238 L894,235 L894,232 L903,226 Z M509,234 L513,236 L512,241 L508,244 L505,245 L498,245 L495,242 L495,237 L498,236 L498,241 L510,239 L509,234 Z M86,242 L97,248 L95,252 L92,257 L81,251 L83,246 L86,242 Z M548,242 L553,242 L553,244 L550,245 L550,247 L562,253 L569,251 L567,256 L560,257 L548,251 L546,249 L546,244 L548,242 Z M913,242 L915,242 L919,249 L919,251 L911,256 L907,255 L904,250 L905,247 L913,242 Z M420,251 L425,253 L424,259 L417,265 L415,266 L407,266 L404,262 L405,260 L408,262 L413,261 L421,256 L420,251 Z M471,251 L475,252 L477,256 L475,261 L465,266 L453,266 L450,263 L452,257 L454,257 L453,262 L464,261 L473,258 L473,253 L471,253 L471,251 Z M923,258 L926,261 L929,266 L929,268 L918,273 L913,266 L914,263 L923,258 Z M76,259 L80,260 L87,264 L85,269 L83,273 L78,271 L72,268 L73,263 L76,259 Z M587,264 L593,264 L593,266 L588,268 L589,275 L593,281 L601,288 L606,290 L612,290 L611,282 L616,286 L616,292 L611,296 L602,295 L592,289 L585,280 L583,275 L583,268 L587,264 Z M67,275 L78,280 L77,285 L75,289 L70,288 L63,284 L65,278 L67,275 Z M932,275 L934,275 L938,282 L938,284 L928,289 L926,289 L922,282 L922,280 L932,275 Z M484,280 L486,280 L486,282 L479,288 L477,293 L477,299 L480,302 L491,302 L501,299 L517,299 L523,296 L524,294 L524,286 L521,283 L521,281 L526,283 L529,288 L528,297 L524,302 L515,305 L504,305 L489,309 L479,308 L472,302 L472,292 L478,284 L484,280 Z M546,284 L548,284 L550,288 L556,288 L558,285 L560,285 L560,290 L557,293 L552,294 L547,291 L546,290 L546,284 Z M413,288 L417,290 L419,295 L415,302 L408,308 L403,310 L393,310 L389,305 L389,300 L395,305 L404,303 L410,299 L414,295 L413,288 Z M442,291 L444,291 L446,295 L451,294 L455,292 L453,298 L450,300 L444,299 L441,295 L442,291 Z M644,290 L645,292 L645,297 L650,297 L648,301 L644,302 L640,298 L641,293 L644,290 Z M58,292 L64,294 L70,297 L68,303 L66,306 L57,303 L55,302 L56,297 L58,292 Z M940,292 L942,292 L946,300 L946,302 L936,306 L934,306 L930,299 L930,296 L940,292 Z M362,295 L365,295 L364,301 L362,303 L356,303 L354,301 L355,297 L360,298 L362,295 Z M590,303 L594,305 L597,310 L596,317 L588,325 L579,330 L575,331 L564,331 L558,326 L557,324 L557,317 L560,315 L562,324 L564,325 L573,325 L585,320 L592,314 L592,307 L590,303 Z M50,310 L55,311 L62,314 L61,319 L59,323 L50,320 L47,319 L50,310 Z M947,310 L950,310 L953,319 L943,323 L941,323 L938,314 L947,310 Z M619,316 L621,316 L622,322 L627,325 L633,325 L637,323 L637,328 L633,331 L625,331 L619,327 L617,325 L617,318 L619,316 Z M435,326 L437,326 L437,333 L441,337 L449,337 L453,336 L452,340 L448,343 L439,343 L433,338 L432,336 L432,330 L435,326 Z M43,328 L52,330 L55,331 L54,338 L53,341 L47,340 L40,337 L43,328 Z M954,328 L958,329 L960,337 L950,341 L948,341 L945,334 L945,331 L954,328 Z M533,331 L538,333 L541,336 L541,343 L536,349 L525,353 L518,353 L510,350 L507,344 L509,338 L511,338 L512,345 L514,346 L527,346 L534,343 L536,341 L536,336 L533,333 L533,331 Z M394,333 L396,333 L396,338 L400,341 L405,341 L409,339 L409,344 L405,347 L398,347 L392,342 L392,335 L394,333 Z M37,346 L44,347 L49,349 L47,358 L39,357 L34,355 L37,346 Z M959,346 L964,347 L966,355 L954,359 L951,349 L959,346 Z M578,357 L581,359 L581,364 L578,367 L574,368 L569,365 L567,361 L568,358 L570,362 L577,362 L578,357 Z M86,361 L88,361 L93,374 L93,377 L106,379 L112,380 L112,383 L101,392 L100,393 L100,402 L101,412 L95,410 L87,405 L81,405 L67,411 L69,400 L70,390 L59,379 L59,377 L78,375 L86,361 Z M914,361 L916,361 L924,375 L942,377 L942,380 L940,380 L938,384 L932,390 L932,398 L935,411 L923,406 L917,404 L901,413 L900,411 L902,399 L902,393 L889,382 L889,380 L905,377 L908,376 L913,362 L914,361 Z M420,362 L422,362 L422,366 L429,366 L429,368 L427,368 L426,371 L420,371 L418,369 L418,364 L420,362 Z M31,364 L41,366 L43,367 L42,375 L40,377 L29,374 L31,364 Z M483,364 L487,369 L492,368 L493,366 L495,366 L494,372 L490,375 L485,374 L482,371 L482,365 L483,364 Z M966,364 L969,364 L971,370 L971,374 L959,377 L957,367 L966,364 Z M26,382 L39,385 L37,395 L24,392 L26,382 Z M972,382 L975,385 L976,392 L969,394 L963,394 L962,385 L972,382 Z M522,390 L524,394 L525,396 L531,396 L532,391 L534,391 L534,397 L530,401 L524,401 L521,398 L520,394 L522,390 Z M22,402 L29,402 L34,403 L34,410 L33,413 L24,412 L20,411 L22,402 Z M977,401 L979,402 L980,411 L968,413 L966,408 L966,403 L977,401 Z M18,420 L31,422 L30,431 L17,430 L18,420 Z M979,420 L982,420 L983,430 L978,431 L971,431 L969,424 L969,422 L979,420 Z M16,439 L28,440 L28,449 L27,450 L15,449 L16,439 Z M460,439 L474,440 L491,443 L505,444 L523,442 L541,439 L548,439 L548,441 L524,448 L512,451 L495,451 L476,446 L460,441 L460,439 Z M981,439 L985,439 L986,449 L973,450 L972,441 L973,440 L981,439 Z M431,453 L449,453 L469,457 L494,464 L500,465 L508,465 L524,461 L542,456 L560,453 L577,453 L586,455 L586,457 L562,460 L538,466 L510,475 L498,475 L485,471 L463,464 L440,459 L421,457 L421,455 L431,453 Z M14,458 L21,458 L26,459 L26,469 L13,468 L14,458 Z M986,457 L987,457 L987,468 L974,469 L974,459 L986,457 Z M13,477 L24,477 L25,478 L25,487 L13,487 L13,477 Z M975,478 L988,478 L988,487 L976,487 L975,486 L975,478 Z M433,483 L442,484 L451,488 L460,494 L468,501 L476,512 L481,523 L482,531 L480,531 L473,517 L466,508 L461,502 L449,493 L433,485 L433,483 Z M570,483 L575,483 L575,485 L559,493 L548,501 L541,508 L531,523 L527,531 L525,532 L527,522 L534,508 L545,496 L556,488 L565,484 L570,483 Z M12,496 L25,496 L25,505 L12,505 L12,496 Z M976,496 L988,496 L988,505 L976,505 L976,496 Z M386,500 L398,500 L412,502 L425,506 L441,514 L454,524 L466,537 L467,541 L462,538 L452,529 L438,520 L421,513 L407,510 L385,509 L364,511 L349,516 L342,520 L340,520 L342,516 L350,509 L358,505 L377,501 L386,500 Z M611,500 L624,500 L638,502 L654,507 L662,513 L668,518 L668,520 L664,519 L651,513 L636,510 L623,509 L611,509 L595,511 L578,516 L561,525 L550,534 L542,541 L540,541 L542,537 L551,526 L563,516 L577,508 L592,503 L611,500 Z M63,510 L67,512 L74,519 L79,520 L95,516 L94,521 L90,531 L90,536 L99,548 L98,550 L81,549 L76,554 L70,562 L68,562 L64,547 L64,544 L54,541 L47,538 L47,536 L61,527 L63,510 Z M937,510 L939,510 L940,528 L945,530 L955,536 L954,539 L940,544 L938,544 L934,562 L931,561 L923,550 L916,549 L903,549 L905,545 L912,535 L911,529 L906,518 L906,516 L923,520 L927,519 L937,510 Z M387,513 L405,514 L426,519 L443,527 L453,535 L463,545 L472,559 L478,574 L481,586 L482,593 L482,609 L479,621 L474,630 L471,632 L472,622 L460,628 L448,631 L424,631 L409,628 L409,626 L431,626 L432,625 L418,623 L402,618 L389,611 L376,601 L368,593 L358,579 L352,566 L348,549 L347,536 L345,541 L345,552 L346,559 L344,559 L339,548 L338,543 L338,536 L341,526 L347,521 L357,517 L373,514 L387,513 Z M386,528 L378,531 L374,535 L374,542 L378,547 L388,552 L405,552 L413,547 L414,545 L414,539 L409,533 L401,529 L397,528 L386,528 Z M428,539 L425,541 L425,547 L430,549 L434,546 L433,541 L428,539 Z M374,579 L376,584 L388,596 L401,604 L420,611 L429,612 L426,610 L409,603 L394,594 L381,584 L374,579 Z M471,601 L466,607 L461,609 L461,610 L468,609 L472,604 L471,601 Z M603,514 L634,514 L650,517 L661,521 L667,527 L669,533 L669,545 L665,556 L663,559 L661,559 L663,549 L662,540 L660,536 L659,553 L655,568 L647,583 L639,593 L627,605 L612,615 L597,621 L584,624 L576,625 L577,626 L599,626 L599,628 L584,631 L567,632 L553,630 L540,625 L536,623 L537,633 L532,628 L529,623 L526,611 L526,589 L530,571 L535,559 L542,548 L553,536 L564,528 L580,520 L592,516 L603,514 Z M612,529 L608,532 L609,537 L614,539 L617,537 L617,531 L612,529 Z M583,536 L573,539 L564,546 L561,551 L561,559 L567,563 L574,564 L586,561 L594,555 L598,550 L599,548 L599,542 L594,537 L590,536 L583,536 Z M633,578 L622,588 L609,597 L597,604 L581,610 L581,611 L591,610 L607,604 L618,597 L628,588 L634,580 L633,578 Z M535,600 L536,602 L535,600 Z M536,602 L537,607 L541,610 L546,611 L546,609 L540,606 L536,602 Z M13,515 L25,515 L25,524 L24,525 L13,525 L13,515 Z M976,515 L987,515 L988,516 L988,524 L987,525 L977,525 L975,524 L975,517 L976,515 Z M975,533 L987,534 L987,544 L978,544 L974,543 L974,534 L975,533 Z M22,533 L26,533 L27,543 L22,544 L14,544 L13,534 L22,533 Z M20,552 L28,552 L28,562 L16,563 L15,553 L20,552 Z M332,552 L335,553 L342,569 L352,588 L362,601 L373,614 L377,619 L373,618 L365,611 L358,604 L346,588 L338,573 L334,562 L332,552 Z M973,552 L980,552 L985,553 L985,563 L972,562 L972,555 L973,552 Z M672,553 L674,553 L673,562 L667,577 L661,588 L652,600 L643,610 L633,620 L630,621 L632,617 L642,606 L653,591 L662,576 L670,559 L672,553 Z M970,571 L983,572 L982,582 L969,580 L970,571 Z M24,571 L30,571 L31,580 L19,582 L17,572 L24,571 Z M28,589 L33,589 L35,598 L28,600 L22,600 L21,591 L28,589 Z M967,589 L978,590 L980,591 L979,599 L978,600 L968,599 L966,598 L967,589 Z M33,607 L37,607 L39,616 L30,619 L26,619 L24,609 L33,607 Z M964,607 L976,609 L974,619 L966,618 L962,617 L962,611 L964,607 Z M959,625 L971,628 L969,638 L957,635 L958,628 L959,625 Z M39,625 L42,626 L44,635 L32,638 L29,630 L29,628 L39,625 Z M476,641 L478,641 L476,647 L469,655 L466,655 L466,653 L471,648 L476,641 Z M529,641 L532,642 L540,652 L541,655 L536,653 L529,643 L529,641 Z M483,643 L484,645 L476,661 L468,674 L465,677 L464,675 L469,663 L476,652 L483,643 Z M954,643 L966,646 L964,655 L962,656 L951,652 L954,643 Z M45,643 L47,643 L49,652 L39,656 L37,656 L35,650 L35,646 L45,643 Z M524,644 L526,644 L534,656 L540,665 L543,675 L543,677 L541,677 L529,657 L524,647 L524,644 Z M98,649 L102,651 L109,658 L115,659 L128,655 L130,655 L129,661 L125,670 L125,675 L134,687 L134,689 L116,688 L111,693 L105,701 L103,701 L99,685 L94,682 L81,678 L82,675 L96,667 L97,662 L98,649 Z M902,649 L904,649 L905,666 L917,674 L920,675 L919,678 L903,684 L899,701 L895,699 L887,689 L882,688 L868,689 L869,685 L877,674 L876,669 L871,657 L871,655 L887,659 L892,658 L902,649 Z M492,652 L497,652 L498,657 L493,665 L489,668 L482,668 L480,665 L481,659 L490,653 L492,652 Z M511,652 L518,653 L526,659 L528,664 L525,668 L518,668 L511,660 L510,653 L511,652 Z M50,661 L53,661 L56,670 L46,674 L43,673 L41,668 L41,664 L50,661 Z M948,661 L959,664 L960,667 L957,674 L947,671 L945,670 L948,661 Z M57,678 L59,678 L62,684 L62,687 L54,691 L50,691 L48,686 L48,682 L57,678 Z M941,678 L950,681 L953,682 L952,687 L950,691 L944,690 L938,687 L941,678 Z M63,696 L67,696 L70,702 L69,705 L60,709 L58,709 L55,700 L63,696 Z M934,696 L939,697 L945,700 L944,705 L942,709 L936,707 L930,705 L931,701 L934,696 Z M470,702 L471,704 L467,717 L465,717 L464,708 L468,703 L470,702 Z M537,703 L542,705 L544,709 L543,716 L540,717 L537,703 Z M473,705 L476,705 L479,708 L487,707 L490,706 L497,706 L501,708 L508,707 L510,706 L517,706 L523,708 L530,707 L534,705 L535,706 L535,716 L531,713 L528,714 L515,714 L507,717 L497,716 L492,714 L479,714 L476,713 L474,716 L472,716 L472,707 L473,705 Z M73,712 L75,712 L78,721 L69,726 L66,725 L63,719 L63,717 L73,712 Z M926,712 L937,717 L936,722 L934,726 L929,725 L922,721 L924,715 L926,712 Z M483,723 L486,724 L520,724 L525,723 L524,726 L518,730 L489,730 L483,726 L483,723 Z M81,729 L84,730 L87,735 L87,738 L78,743 L76,743 L72,736 L72,734 L81,729 Z M917,729 L923,731 L928,734 L927,738 L924,743 L919,741 L913,738 L915,732 L917,729 Z M503,737 L511,739 L514,742 L513,744 L503,743 L494,744 L496,740 L503,737 Z M90,745 L93,745 L97,751 L97,754 L88,759 L85,758 L83,753 L81,753 L82,750 L90,745 Z M908,745 L913,747 L919,750 L918,754 L915,759 L911,758 L903,753 L908,745 Z M100,761 L103,761 L107,767 L106,770 L98,775 L96,775 L92,769 L92,766 L100,761 Z M898,761 L903,763 L909,767 L907,771 L904,775 L899,773 L893,770 L893,767 L895,767 L897,762 L898,761 Z M887,776 L891,778 L898,782 L897,786 L893,791 L889,789 L882,785 L884,781 L887,776 Z M112,777 L114,777 L116,782 L118,782 L117,785 L109,791 L107,791 L105,786 L103,786 L103,783 L112,777 Z M123,792 L125,792 L130,798 L130,800 L121,807 L116,802 L114,798 L119,795 L123,792 Z M876,792 L880,794 L886,798 L886,801 L884,801 L882,805 L879,806 L871,800 L873,795 L876,792 Z M521,797 L528,797 L533,798 L534,803 L540,805 L540,807 L534,808 L534,822 L522,822 L520,821 L521,818 L529,818 L530,808 L527,806 L527,804 L530,804 L530,801 L521,801 L521,797 Z M581,797 L585,799 L586,807 L594,803 L594,818 L589,816 L586,813 L584,821 L582,822 L581,813 L575,818 L573,818 L572,815 L572,806 L573,804 L579,806 L581,807 L581,797 Z M575,808 L575,812 L579,810 L575,808 Z M589,809 L587,811 L590,812 L589,809 Z M439,798 L441,798 L442,805 L447,809 L448,815 L445,820 L440,822 L434,821 L430,816 L430,810 L436,805 L438,799 L439,798 Z M435,809 L433,811 L433,816 L437,818 L437,809 L435,809 Z M441,809 L441,817 L445,815 L444,810 L441,809 Z M561,798 L563,798 L562,807 L565,812 L564,818 L561,821 L555,822 L550,819 L548,817 L548,809 L551,806 L559,805 L560,800 L561,798 Z M553,809 L551,810 L551,815 L554,815 L556,809 L553,809 Z M559,810 L556,816 L556,818 L561,817 L561,811 L559,810 Z M410,799 L416,799 L420,803 L421,805 L420,814 L417,817 L420,819 L420,821 L407,821 L409,817 L405,811 L405,804 L410,799 Z M411,802 L408,805 L408,811 L412,816 L416,814 L418,810 L417,804 L415,802 L411,802 Z M461,799 L467,799 L471,803 L472,805 L471,814 L468,817 L471,821 L458,821 L460,817 L456,812 L456,804 L461,799 Z M462,802 L459,805 L459,811 L463,816 L467,814 L469,811 L469,805 L466,802 L462,802 Z M486,799 L492,799 L497,804 L497,812 L494,818 L496,819 L496,821 L483,821 L485,817 L481,811 L481,805 L483,801 L486,799 Z M487,802 L484,806 L485,813 L490,816 L494,811 L494,805 L491,802 L487,802 Z M864,806 L869,808 L875,813 L875,815 L870,820 L867,821 L867,819 L863,817 L859,814 L861,810 L864,806 Z M135,807 L139,809 L142,812 L140,816 L134,821 L130,819 L127,816 L129,812 L135,807 Z M852,820 L860,826 L862,827 L860,831 L855,835 L847,828 L848,824 L852,820 Z M147,821 L151,823 L154,826 L152,830 L147,835 L143,834 L139,830 L140,827 L147,821 Z M839,834 L843,836 L848,841 L847,845 L844,848 L840,847 L834,841 L836,837 L839,834 Z M159,835 L163,836 L167,840 L165,844 L158,849 L152,844 L154,840 L159,835 Z M730,832 L732,832 L732,834 L730,834 L730,858 L733,865 L736,870 L743,869 L743,871 L729,880 L723,882 L723,880 L726,878 L724,872 L720,867 L702,857 L695,856 L695,853 L710,844 L712,844 L710,849 L714,851 L725,857 L725,840 L720,840 L720,838 L730,832 Z M174,847 L181,852 L181,855 L176,860 L172,862 L166,857 L168,853 L174,847 Z M287,847 L295,847 L302,850 L310,857 L315,857 L314,862 L309,870 L307,870 L306,860 L302,855 L293,854 L288,857 L283,863 L280,871 L280,878 L282,882 L290,885 L299,884 L298,888 L296,889 L286,889 L278,885 L271,877 L269,872 L269,865 L273,856 L281,849 L287,847 Z M826,847 L829,848 L833,853 L835,854 L835,857 L829,862 L827,862 L820,854 L821,851 L826,847 Z M812,859 L816,861 L821,867 L819,871 L813,875 L806,867 L806,864 L812,859 Z M187,860 L192,862 L195,865 L193,869 L188,875 L184,873 L180,870 L182,866 L187,860 Z M672,864 L675,865 L679,874 L679,877 L674,875 L671,873 L662,873 L657,878 L656,885 L659,895 L664,902 L668,904 L674,904 L680,900 L684,893 L686,893 L687,897 L681,905 L674,909 L672,910 L660,910 L654,907 L647,899 L646,896 L646,884 L650,876 L657,870 L663,868 L671,867 L672,864 Z M336,870 L345,872 L355,876 L356,879 L350,879 L341,903 L341,910 L345,911 L352,911 L356,906 L364,885 L360,880 L361,878 L374,883 L374,885 L368,886 L365,896 L358,912 L352,916 L344,916 L337,913 L332,909 L330,904 L331,897 L338,878 L338,873 L336,872 L336,870 Z M798,871 L800,871 L807,880 L802,885 L798,886 L793,880 L793,878 L791,878 L791,876 L798,871 Z M202,872 L206,874 L210,877 L210,879 L208,879 L206,883 L203,887 L199,885 L195,882 L197,878 L202,872 Z M216,883 L221,885 L225,888 L225,890 L223,890 L221,894 L218,898 L213,896 L210,894 L212,889 L216,883 Z M784,882 L788,886 L792,891 L792,893 L785,898 L783,898 L777,890 L778,886 L784,882 Z M395,890 L407,892 L422,896 L427,899 L429,903 L429,910 L424,916 L420,918 L427,934 L429,938 L418,936 L414,932 L407,916 L405,922 L404,929 L407,931 L407,933 L394,931 L388,929 L388,927 L392,926 L398,899 L398,894 L395,892 L395,890 Z M410,897 L408,903 L407,912 L413,913 L417,911 L419,906 L418,900 L414,897 L410,897 Z M612,887 L618,887 L618,889 L615,891 L617,902 L622,922 L622,928 L615,924 L597,910 L590,905 L595,926 L596,928 L601,929 L601,932 L587,935 L588,932 L590,931 L589,921 L584,901 L584,899 L578,898 L578,896 L588,893 L594,894 L607,904 L613,908 L611,897 L610,893 L605,892 L606,889 L612,887 Z M768,893 L770,893 L776,902 L775,905 L769,909 L767,909 L761,900 L762,897 L768,893 Z M232,894 L237,896 L241,898 L239,903 L235,909 L230,908 L225,905 L227,901 L232,894 Z M456,901 L476,902 L487,904 L492,909 L493,916 L490,922 L485,925 L494,939 L497,941 L497,943 L485,943 L481,939 L473,926 L471,925 L472,939 L475,940 L475,942 L459,942 L454,941 L454,939 L460,938 L460,927 L461,906 L456,903 L456,901 Z M472,906 L471,921 L479,921 L482,917 L482,910 L478,906 L472,906 Z M547,900 L552,900 L553,901 L554,913 L551,912 L547,906 L536,906 L537,919 L541,917 L543,910 L545,910 L547,922 L547,931 L545,931 L542,925 L537,923 L539,937 L548,936 L552,935 L554,930 L556,927 L558,927 L558,940 L523,943 L524,940 L527,939 L525,913 L525,906 L520,905 L520,903 L536,901 L547,900 Z M751,904 L755,905 L760,912 L760,915 L753,919 L751,919 L745,910 L745,908 L751,904 Z M248,905 L254,907 L256,908 L254,913 L250,919 L244,917 L242,916 L243,912 L248,905 Z M736,913 L738,913 L743,922 L743,925 L736,929 L734,929 L729,920 L729,917 L736,913 Z M263,914 L267,915 L272,918 L270,924 L267,929 L261,927 L258,925 L260,919 L263,914 Z M720,922 L722,922 L727,931 L726,934 L719,938 L717,938 L712,928 L712,926 L720,922 Z M280,923 L289,926 L287,932 L284,938 L278,936 L275,934 L277,928 L280,923 Z M296,931 L301,932 L306,934 L305,938 L301,946 L292,943 L293,938 L296,931 Z M702,931 L706,932 L710,940 L710,942 L702,946 L699,945 L695,936 L695,934 L702,931 Z M686,938 L688,938 L692,947 L692,950 L685,953 L682,953 L678,944 L678,941 L686,938 Z M314,939 L323,942 L320,951 L319,954 L309,951 L311,945 L314,939 Z M331,946 L340,948 L338,957 L337,960 L330,959 L327,958 L329,949 L331,946 Z M669,945 L672,949 L674,954 L673,958 L665,960 L661,951 L661,948 L669,945 Z M348,952 L358,954 L357,961 L355,967 L345,964 L346,957 L348,952 Z M649,952 L653,952 L656,960 L656,964 L650,966 L646,966 L643,954 L649,952 Z M367,957 L376,960 L375,967 L374,972 L363,970 L366,958 L367,957 Z M633,957 L635,957 L638,966 L637,970 L628,972 L625,962 L625,959 L633,957 Z M384,963 L394,964 L393,974 L392,977 L382,975 L383,966 L384,963 Z M614,962 L617,962 L620,974 L609,977 L607,968 L607,964 L614,962 Z M403,966 L413,968 L411,981 L400,979 L402,967 L403,966 Z M596,966 L598,966 L600,973 L600,979 L591,980 L589,974 L588,968 L596,966 Z M421,970 L431,971 L431,978 L429,984 L419,982 L420,973 L421,970 Z M574,970 L580,970 L582,978 L582,982 L572,984 L570,975 L570,971 L574,970 Z M439,972 L449,973 L448,986 L441,986 L438,984 L439,972 Z M560,972 L562,972 L563,985 L553,986 L551,973 L560,972 Z M458,975 L468,975 L468,988 L457,987 L457,979 L458,975 Z M542,974 L543,974 L544,987 L534,988 L533,986 L533,975 L542,974 Z M477,976 L486,976 L486,989 L476,988 L476,977 L477,976 Z M496,976 L505,976 L506,977 L506,989 L495,989 L495,977 L496,976 Z M514,976 L524,976 L525,988 L514,989 L514,976 Z" id="image"></path>
        </g>
    </g>
</svg>