<?xml version="1.0" encoding="UTF-8"?>
<svg width="2913px" height="2559px" viewBox="0 0 2913 2559" version="1.1" xmlns="http://www.w3.org/2000/svg" xmlns:xlink="http://www.w3.org/1999/xlink">
    <title>PRS</title>
    <defs>
        <linearGradient x1="11.9621501%" y1="69.2934263%" x2="88.0404255%" y2="30.7065677%" id="linearGradient-1">
            <stop stop-color="#413DFD" offset="0%"></stop>
            <stop stop-color="#06F7EC" offset="100%"></stop>
        </linearGradient>
    </defs>
    <g id="Page-1" stroke="none" stroke-width="1" fill="none" fill-rule="evenodd">
        <path d="M2893.95,1211.4 L2233.65,67.7 C2209.45,25.8 2164.75,0 2116.35,0 L795.75,0 C747.35,0 702.65,25.8 678.45,67.7 L18.15,1211.4 C-6.05,1253.3 -6.05,1304.9 18.15,1346.8 L678.45,2490.5 C702.65,2532.4 747.35,2558.2 795.75,2558.2 L2116.35,2558.2 C2164.75,2558.2 2209.45,2532.4 2233.65,2490.5 L2893.95,1346.8 C2918.05,1304.9 2918.05,1253.3 2893.95,1211.4 Z M1937.65,2099.4 C1810.75,2065.3 1674.55,1947.7 1616.35,1830.1 C1563.75,1723.7 1516.15,1548.5 1427.85,1477.5 C1425.65,1475.7 1422.75,1475.1 1419.95,1475.8 C1400.95,1480.9 1375.25,1483.6 1347.15,1484.4 C1342.55,1654.3 1344.35,1842.2 1343.95,1856.7 C1343.35,1878.4 1340.25,1905.6 1318.55,1908.7 C1296.85,1911.8 1280.75,1901.3 1265.95,1889.5 C1251.15,1877.7 1241.85,1881.5 1236.85,1887 C1231.85,1892.6 1206.55,1901.2 1189.15,1887 C1171.85,1872.8 1175.55,1807.8 1175.55,1729.7 C1175.55,1671.6 1183.15,1539.4 1186.95,1475.6 C1187.05,1474.6 1186.35,1473.8 1185.35,1473.6 C1168.75,1470.7 1155.85,1467.5 1148.75,1464.3 C1114.05,1448.6 1113.25,1418.1 1138.85,1392.5 C1151.45,1379.9 1168.35,1371 1194.35,1363.4 C1195.15,1363.2 1195.65,1362.5 1195.75,1361.7 C1208.95,1217.2 1237.95,941.2 1251.15,896.4 C1262.85,856.6 1293.15,843.4 1309.85,839 C1316.75,837.2 1322.75,832.8 1326.25,826.7 C1348.45,788.5 1396.05,781.2 1412.05,795.7 C1429.35,811.4 1421.15,834.5 1412.05,881.5 C1402.95,928.6 1379.85,1110.6 1360.05,1266.6 C1357.55,1286.3 1355.45,1310 1353.65,1336.5 C1417.75,1335.5 1469.35,1353.6 1486.85,1360.5 C1491.25,1362.3 1496.05,1362.7 1500.75,1361.9 C1779.25,1310.6 1807.85,1070.1 1763.75,920.4 C1721.45,776.9 1611.05,704.1 1402.15,717.3 C1193.35,730.5 1074.45,842.8 1082.65,975.7 C1090.85,1108.6 1169.35,1167.2 1172.65,1198.6 C1175.95,1230 1118.95,1239 1067.85,1211 C1016.65,1182.9 950.65,1136.7 933.25,1033.5 C915.95,930.3 961.35,842.8 961.35,842.8 C1107.45,573.3 1434.15,546 1603.95,567.1 C1823.15,594.3 2006.35,776.4 1972.95,1045 C1939.55,1313.7 1682.75,1414.8 1629.95,1428.8 C1620.75,1431.3 1608.45,1434.2 1594.55,1437.5 C1592.15,1438.1 1591.25,1441 1592.95,1442.9 C1626.25,1478.3 1681.05,1541.5 1722.85,1614.6 C1787.25,1727.3 1828.05,1821 1900.75,1913.4 C1973.35,2005.9 2031.15,2035.6 2072.45,2051.3 C2113.75,2067 2139.55,2068.4 2145.05,2092 C2150.65,2115.5 2064.55,2133.5 1937.65,2099.4 Z" id="PRS" fill="url(#linearGradient-1)" fill-rule="nonzero"></path>
    </g>
</svg>