<?xml version="1.0" encoding="UTF-8"?>
<svg width="844px" height="844px" viewBox="0 0 844 844" version="1.1" xmlns="http://www.w3.org/2000/svg" xmlns:xlink="http://www.w3.org/1999/xlink">
    <title>UFO</title>
    <defs>
        <linearGradient x1="50.0000317%" y1="-0.000270885253%" x2="50.0000317%" y2="99.9999549%" id="linearGradient-1">
            <stop stop-color="#8FA6AB" offset="0%"></stop>
            <stop stop-color="#8FA6AB" offset="55%"></stop>
            <stop stop-color="#E9E9E9" offset="90%"></stop>
            <stop stop-color="#E9E9E9" offset="100%"></stop>
        </linearGradient>
        <linearGradient x1="9.00250649e-05%" y1="50.0001479%" x2="100.000077%" y2="50.0001479%" id="linearGradient-2">
            <stop stop-color="#121018" offset="0%"></stop>
            <stop stop-color="#C7D8DD" offset="25%"></stop>
            <stop stop-color="#E9E9E9" offset="50.7937%"></stop>
            <stop stop-color="#C7D8DD" offset="75%"></stop>
            <stop stop-color="#121018" offset="100%"></stop>
        </linearGradient>
        <linearGradient x1="8.05487422e-05%" y1="50%" x2="100.000068%" y2="50%" id="linearGradient-3">
            <stop stop-color="#121018" offset="0%"></stop>
            <stop stop-color="#C7D8DD" offset="25%"></stop>
            <stop stop-color="#E9E9E9" offset="50.7937%"></stop>
            <stop stop-color="#C7D8DD" offset="75%"></stop>
            <stop stop-color="#121018" offset="100%"></stop>
        </linearGradient>
        <radialGradient cx="49.5542877%" cy="34.1128988%" fx="49.5542877%" fy="34.1128988%" r="228.361124%" gradientTransform="translate(0.495543,0.341129),scale(0.289972,1.000000),translate(-0.495543,-0.341129)" id="radialGradient-4">
            <stop stop-color="#38414C" offset="0%"></stop>
            <stop stop-color="#121018" offset="73.696312%"></stop>
            <stop stop-color="#121018" offset="100%"></stop>
        </radialGradient>
        <linearGradient x1="50%" y1="0.00036423238%" x2="50%" y2="99.9992169%" id="linearGradient-5">
            <stop stop-color="#F3FFB1" offset="0%"></stop>
            <stop stop-color="#F3FFB1" offset="50%"></stop>
            <stop stop-color="#90E224" offset="86.848156%"></stop>
            <stop stop-color="#90E224" offset="100%"></stop>
        </linearGradient>
        <linearGradient x1="50.0000456%" y1="5.43550144e-06%" x2="50.0000456%" y2="100.000838%" id="linearGradient-6">
            <stop stop-color="#B2FF58" offset="0%"></stop>
            <stop stop-color="#92E624" offset="100%"></stop>
        </linearGradient>
        <linearGradient x1="49.999981%" y1="0.000144518589%" x2="49.999981%" y2="100.000172%" id="linearGradient-7">
            <stop stop-color="#B2FF58" offset="0%"></stop>
            <stop stop-color="#92E624" offset="100%"></stop>
        </linearGradient>
        <linearGradient x1="50.0041629%" y1="-0.00437126621%" x2="50.0041629%" y2="100.002763%" id="linearGradient-8">
            <stop stop-color="#F3FFB1" offset="0%"></stop>
            <stop stop-color="#90E224" offset="73.696312%"></stop>
            <stop stop-color="#90E224" offset="100%"></stop>
        </linearGradient>
        <linearGradient x1="50.0008742%" y1="0.00437062937%" x2="50.0008742%" y2="99.9969347%" id="linearGradient-9">
            <stop stop-color="#F3FFB1" offset="0%"></stop>
            <stop stop-color="#90E224" offset="73.696312%"></stop>
            <stop stop-color="#90E224" offset="100%"></stop>
        </linearGradient>
        <linearGradient x1="50.0025393%" y1="0.00291375291%" x2="50.0025393%" y2="99.9954779%" id="linearGradient-10">
            <stop stop-color="#F3FFB1" offset="0%"></stop>
            <stop stop-color="#90E224" offset="73.696312%"></stop>
            <stop stop-color="#90E224" offset="100%"></stop>
        </linearGradient>
        <linearGradient x1="50.0016651%" y1="0.00291375291%" x2="50.0016651%" y2="99.9954779%" id="linearGradient-11">
            <stop stop-color="#F3FFB1" offset="0%"></stop>
            <stop stop-color="#90E224" offset="73.696312%"></stop>
            <stop stop-color="#90E224" offset="100%"></stop>
        </linearGradient>
        <linearGradient x1="50.0033303%" y1="0.00437062937%" x2="50.0033303%" y2="99.9969347%" id="linearGradient-12">
            <stop stop-color="#F3FFB1" offset="0%"></stop>
            <stop stop-color="#90E224" offset="73.696312%"></stop>
            <stop stop-color="#90E224" offset="100%"></stop>
        </linearGradient>
        <linearGradient x1="50.0041629%" y1="0.0131118881%" x2="50.0041629%" y2="100.005676%" id="linearGradient-13">
            <stop stop-color="#F3FFB1" offset="0%"></stop>
            <stop stop-color="#90E224" offset="100%"></stop>
        </linearGradient>
        <linearGradient x1="50.0025393%" y1="0.00582750583%" x2="50.0025393%" y2="99.9983916%" id="linearGradient-14">
            <stop stop-color="#F3FFB1" offset="0%"></stop>
            <stop stop-color="#90E224" offset="100%"></stop>
        </linearGradient>
        <linearGradient x1="50.0016651%" y1="0.00582750583%" x2="50.0016651%" y2="99.9983916%" id="linearGradient-15">
            <stop stop-color="#F3FFB1" offset="0%"></stop>
            <stop stop-color="#90E224" offset="100%"></stop>
        </linearGradient>
    </defs>
    <g id="UFO" stroke="none" stroke-width="1" fill="none" fill-rule="evenodd">
        <path d="M63.8693317,211 C63.8693317,211 220.094661,229.545333 421.313323,229.545333 L421.313323,229.545333 C622.529318,229.545333 778.967981,216.213333 778.967981,216.213333 L778.967981,216.213333 C778.967981,216.213333 581.109319,358.663996 421.313323,358.663996 L421.313323,358.663996 C263.101327,358.663996 63.8693317,211 63.8693317,211" id="path310" fill="url(#linearGradient-1)" fill-rule="nonzero" transform="translate(421.418656, 284.831998) scale(-1, 1) rotate(-180.000000) translate(-421.418656, -284.831998) "></path>
        <path d="M66.970665,361.575997 C30.2613326,338.802664 0,307.391999 0,264.193333 L0,264.193333 L422.105323,264.193333 L844.209312,264.193333 C844.209312,307.391999 813.949313,338.802664 777.238647,361.575997 L777.238647,361.575997 C700.798649,408.997329 587.551985,444.457328 422.105323,444.457328 L422.105323,444.457328 C256.657327,444.457328 143.410663,408.997329 66.970665,361.575997" id="path336" fill="url(#linearGradient-2)" fill-rule="nonzero" transform="translate(422.104656, 354.325331) scale(-1, 1) rotate(-180.000000) translate(-422.104656, -354.325331) "></path>
        <path d="M0.00053333332,444.457862 C0.00053333332,512.056527 188.983195,566.856525 422.105856,566.856525 C655.227184,566.856525 844.209846,512.056527 844.209846,444.457862 C844.209846,376.859197 655.227184,322.059198 422.105856,322.059198 C188.983195,322.059198 0.00053333332,376.859197 0.00053333332,444.457862" id="path348" fill="#121018" fill-rule="nonzero" transform="translate(422.105190, 444.457862) scale(-1, 1) rotate(-180.000000) translate(-422.105190, -444.457862) "></path>
        <path d="M0,387.262662 L0,358.663996 L844.209312,358.663996 L844.209312,387.262662 C844.209312,454.861327 655.227984,509.661326 422.105323,509.661326 L422.105323,509.661326 C188.983995,509.661326 0,454.861327 0,387.262662" id="path374" fill="url(#linearGradient-3)" fill-rule="nonzero" transform="translate(422.104656, 434.162661) scale(-1, 1) rotate(-180.000000) translate(-422.104656, -434.162661) "></path>
        <path d="M0,509.661327 C0,442.061329 188.983995,387.262663 422.105323,387.262663 L422.105323,387.262663 C655.227984,387.262663 844.209312,442.061329 844.209312,509.661327 L844.209312,509.661327 C844.209312,577.261325 655.227984,632.05999 422.105323,632.05999 L422.105323,632.05999 C188.983995,632.05999 0,577.261325 0,509.661327" id="path396" fill="url(#radialGradient-4)" fill-rule="nonzero" transform="translate(422.104656, 509.661327) scale(-1, 1) rotate(-180.000000) translate(-422.104656, -509.661327) "></path>
        <path d="M263.101327,555.766657 C263.101327,535.550658 334.289325,519.161325 422.105323,519.161325 L422.105323,519.161325 C509.919987,519.161325 581.109319,535.550658 581.109319,555.766657 L581.109319,555.766657 C581.109319,575.985323 509.919987,592.374656 422.105323,592.374656 L422.105323,592.374656 C334.289325,592.374656 263.101327,575.985323 263.101327,555.766657" id="path420" fill="url(#linearGradient-5)" fill-rule="nonzero" transform="translate(422.105323, 555.767990) scale(-1, 1) rotate(-180.000000) translate(-422.105323, -555.767990) "></path>
        <path d="M356.158658,608.127685 C334.206658,606.597018 312.295992,604.221018 290.521326,600.739685 L290.521326,600.739685 C279.643993,598.947685 268.79866,596.887685 258.03066,594.403685 L258.03066,594.403685 C247.263994,591.915685 236.557327,589.061018 226.023994,585.506352 L226.023994,585.506352 C220.761328,583.723685 215.534661,581.782352 210.394661,579.561019 L210.394661,579.561019 C205.255995,577.350352 200.186662,574.893019 195.298662,571.981019 L195.298662,571.981019 C190.426662,569.059686 185.671995,565.733019 181.557329,561.375686 L181.557329,561.375686 C179.511996,559.197019 177.634662,556.737019 176.202662,553.899686 L176.202662,553.899686 C174.797329,551.055686 173.914662,547.782353 173.909329,544.453019 L173.909329,544.453019 C173.951996,541.123686 174.867996,537.871686 176.301329,535.055686 L176.301329,535.055686 C177.759996,532.247686 179.655996,529.823687 181.715995,527.682353 L181.715995,527.682353 C185.862662,523.399687 190.634662,520.150353 195.521328,517.303687 L195.521328,517.303687 C200.421328,514.46102 205.518662,512.115687 210.669328,509.994354 L210.669328,509.994354 C215.825328,507.870354 221.061328,506.02502 226.335994,504.33702 L226.335994,504.33702 C236.887994,500.975687 247.609327,498.333021 258.379994,496.046354 L258.379994,496.046354 C269.15466,493.766354 279.997326,491.910354 290.867993,490.322354 L290.867993,490.322354 C301.739992,488.738354 312.646659,487.450354 323.566659,486.382354 L323.566659,486.382354 C334.486658,485.278354 345.426658,484.466354 356.370658,483.777021 L356.370658,483.777021 C361.841324,483.423688 367.317324,483.143688 372.791991,482.889021 L372.791991,482.889021 C378.269324,482.647688 383.74799,482.463688 389.225324,482.282354 L389.225324,482.282354 C400.182657,481.926354 411.14399,481.782354 422.105323,481.790582 L422.105323,481.790582 C444.025322,481.769021 465.954655,482.425021 487.829321,483.931688 L487.829321,483.931688 C509.703987,485.425021 531.543987,487.639688 553.230653,491.022354 L553.230653,491.022354 C574.898652,494.434354 596.498652,498.745021 617.489318,505.49702 L617.489318,505.49702 C622.727984,507.20102 627.927984,509.05702 633.033318,511.186354 L633.033318,511.186354 C638.141317,513.30902 643.169317,515.67302 648.00265,518.46902 L648.00265,518.46902 C652.81865,521.275687 657.499984,524.475687 661.505317,528.619687 L661.505317,528.619687 C663.497317,530.690353 665.309317,533.015686 666.68665,535.670353 L666.68665,535.670353 C668.03865,538.331686 668.88665,541.36102 668.927985,544.453019 L668.927985,544.453019 C668.927985,547.546353 668.12265,550.598353 666.80265,553.294353 L666.80265,553.294353 C665.455983,555.982353 663.665317,558.350352 661.691983,560.465019 L661.691983,560.465019 C657.723984,564.695686 653.06265,567.987686 648.263984,570.883685 L648.263984,570.883685 C643.449317,573.769019 638.433317,576.221019 633.334651,578.433019 L633.334651,578.433019 C628.241318,580.651685 623.049318,582.597019 617.814651,584.389018 L617.814651,584.389018 C607.341318,587.961018 596.685318,590.875685 585.954652,593.407685 L585.954652,593.407685 C575.222652,595.935685 564.407986,598.062351 553.550653,599.878351 L553.550653,599.878351 C510.094654,607.091685 466.074655,609.986351 422.105323,610.23361 L422.105323,610.23361 C421.507989,610.23361 420.911989,610.23361 420.314656,610.23361 L420.314656,610.23361 C398.921323,610.23361 377.518657,609.582351 356.158658,608.125018 M291.437326,493.859687 C280.681326,495.761021 269.979993,497.926354 259.39066,500.502354 L259.39066,500.502354 C248.80266,503.069021 238.321327,506.039687 228.079994,509.578354 L228.079994,509.578354 C222.961328,511.350354 217.902661,513.270354 212.978661,515.43702 L212.978661,515.43702 C208.050661,517.591687 203.249328,519.990353 198.705328,522.702353 L198.705328,522.702353 C194.182662,525.42502 189.878662,528.50902 186.457329,532.17302 L186.457329,532.17302 C184.754662,533.999686 183.291995,535.97302 182.255995,538.047686 L182.255995,538.047686 C181.249329,540.130353 180.711995,542.295686 180.706662,544.450353 L180.706662,544.450353 C180.747995,546.606353 181.321329,548.751686 182.353329,550.805019 L182.353329,550.805019 C183.417329,552.850353 184.898662,554.787686 186.617329,556.577019 L186.617329,556.577019 C190.067995,560.167686 194.390662,563.175686 198.927995,565.819686 L198.927995,565.819686 C203.481328,568.466352 208.311995,570.751685 213.253328,572.815685 L213.253328,572.815685 C218.193328,574.886352 223.263994,576.710352 228.391994,578.386352 L228.391994,578.386352 C238.651994,581.731685 249.147994,584.490352 259.739994,586.855685 L259.739994,586.855685 C270.33466,589.227685 281.035993,591.190352 291.782659,592.887685 L291.782659,592.887685 C313.274659,596.329018 334.969325,598.634351 356.717324,600.193018 L356.717324,600.193018 C378.465324,601.783685 400.28399,602.533018 422.105323,602.603685 L422.105323,602.603685 C443.926656,602.686351 465.754655,602.090351 487.525321,600.651685 L487.525321,600.651685 C509.293321,599.222351 531.022653,597.059685 552.566653,593.749018 L552.566653,593.749018 C563.333319,592.074352 574.065319,590.179688 584.697319,587.853018 L584.697319,587.853018 C595.325318,585.531685 605.870652,582.833019 616.190651,579.503685 L616.190651,579.503685 C621.346651,577.835685 626.451984,576.017019 631.435984,573.943685 L631.435984,573.943685 C636.419984,571.879685 641.302651,569.589019 645.930651,566.918352 L645.930651,566.918352 C650.539984,564.246352 654.957317,561.205019 658.55465,557.487686 L658.55465,557.487686 C660.345317,555.633019 661.91465,553.605019 663.061317,551.410353 L663.061317,551.410353 C664.179983,549.209019 664.827983,546.845019 664.877317,544.450353 L664.877317,544.450353 C664.877317,542.058353 664.263983,539.670353 663.177317,537.43302 L663.177317,537.43302 C662.059983,535.20502 660.51465,533.13302 658.741317,531.235686 L658.741317,531.235686 C655.179984,527.431687 650.783984,524.299687 646.191984,521.538353 L646.191984,521.538353 C641.581317,518.778353 636.711984,516.39702 631.737318,514.243687 L631.737318,514.243687 C626.763984,512.082354 621.667984,510.175687 616.517318,508.418354 L616.517318,508.418354 C606.207985,504.911687 595.666652,502.037021 585.038652,499.538354 L585.038652,499.538354 C574.405319,497.046354 563.674653,494.934354 552.88532,493.161021 L552.88532,493.161021 C509.710654,486.074354 465.870655,483.303688 422.105323,483.179688 L422.105323,483.179688 C378.339991,483.215688 334.489325,486.329021 291.437326,493.859687" id="path440" fill="url(#linearGradient-6)" fill-rule="nonzero" transform="translate(421.418657, 546.011839) scale(-1, 1) rotate(-180.000000) translate(-421.418657, -546.011839) "></path>
        <path d="M375.950657,619.728725 C360.571991,619.140725 345.209325,618.174059 329.865325,616.956725 L329.865325,616.956725 C314.523992,615.711392 299.214659,614.087392 283.94266,612.147392 L283.94266,612.147392 C268.67466,610.188726 253.455994,607.824726 238.306661,605.076726 L238.306661,605.076726 C223.165328,602.283392 208.089328,599.108726 193.155995,595.314059 L193.155995,595.314059 C178.225329,591.526059 163.431996,587.138059 148.930663,581.867393 L148.930663,581.867393 C141.679996,579.236726 134.52133,576.328726 127.50533,573.08606 L127.50533,573.08606 C120.482664,569.859393 113.642664,566.204727 107.077331,562.063393 L107.077331,562.063393 C103.813331,559.96206 100.634664,557.712727 97.5999976,555.263394 L97.5999976,555.263394 C94.565331,552.815394 91.6866644,550.140727 89.1093311,547.164727 L89.1093311,547.164727 C86.5413312,544.190061 84.2373312,540.915394 82.6066646,537.264727 L82.6066646,537.264727 C80.963998,533.630061 80.0066591,529.632728 80.0066591,525.602061 L80.0066591,525.602061 C80.051998,521.572728 81.0586646,517.596728 82.7359979,513.999395 L82.7359979,513.999395 C84.4039979,510.384728 86.7333312,507.155395 89.3239978,504.228728 L89.3239978,504.228728 C91.921331,501.299395 94.8186643,498.674062 97.8679976,496.275395 L97.8679976,496.275395 C100.917331,493.874062 104.107997,491.675395 107.381331,489.624729 L107.381331,489.624729 C113.962664,485.570062 120.839997,482.059395 127.879997,478.948729 L127.879997,478.948729 C134.915997,475.828729 142.090663,473.044729 149.35333,470.536729 L149.35333,470.536729 C163.879996,465.512729 178.693329,461.400729 193.630662,457.870063 L193.630662,457.870063 C208.570661,454.339396 223.645328,451.42873 238.775994,448.89673 L238.775994,448.89673 C269.03866,443.802063 299.562659,440.40073 330.151992,438.103397 L330.151992,438.103397 C360.742658,435.767397 391.425324,434.675397 422.105323,434.590063 L422.105323,434.590063 C452.786655,434.490063 483.479988,435.399397 514.098654,437.554063 L514.098654,437.554063 C544.715986,439.698063 575.278652,442.94473 605.603985,447.891396 L605.603985,447.891396 C620.758651,450.402063 635.871984,453.235396 650.85465,456.720729 L650.85465,456.720729 C665.837317,460.202063 680.71065,464.247396 695.307983,469.255396 L695.307983,469.255396 C702.606649,471.756729 709.822649,474.536729 716.913315,477.659396 L716.913315,477.659396 C724.003982,480.771395 730.946648,484.294062 737.613315,488.376729 L737.613315,488.376729 C740.930648,490.447395 744.173315,492.668728 747.281315,495.104728 L747.281315,495.104728 C750.389315,497.538062 753.355981,500.211395 756.034648,503.220728 L756.034648,503.220728 C758.706648,506.224728 761.131981,509.562061 762.887981,513.348728 L762.887981,513.348728 C764.654648,517.112728 765.735981,521.322061 765.789314,525.602061 L765.789314,525.602061 C765.789314,529.880728 764.769314,534.120727 763.046648,537.928727 L763.046648,537.928727 C761.333314,541.758061 758.941314,545.151394 756.295981,548.21406 L756.295981,548.21406 C753.643981,551.28206 750.697315,554.01406 747.606648,556.507394 L747.606648,556.507394 C744.515981,559.003394 741.289315,561.287393 737.983982,563.415393 L737.983982,563.415393 C731.343982,567.62206 724.417315,571.264727 717.341315,574.49806 L717.341315,574.49806 C710.266649,577.740726 703.062649,580.644726 695.766649,583.25006 L695.766649,583.25006 C681.179983,588.478059 666.309317,592.744726 651.325317,596.444726 L651.325317,596.444726 C636.337317,600.135392 621.222651,603.230059 606.038652,605.875392 L606.038652,605.875392 C545.271986,616.359392 483.635988,620.451392 422.105323,620.628725 L422.105323,620.628725 C406.717323,620.584725 391.329324,620.316725 375.950657,619.728725 M513.70932,608.399392 C544.179986,606.195392 574.581319,602.923392 604.694652,597.952726 L604.694652,597.952726 C634.769317,592.924726 664.71465,586.540726 693.453316,576.692726 L693.453316,576.692726 C700.629316,574.220726 707.702649,571.495393 714.615982,568.451393 L714.615982,568.451393 C721.533315,565.416727 728.258648,561.999393 734.637315,558.095394 L734.637315,558.095394 C737.806648,556.119394 740.877315,554.012727 743.786648,551.735394 L743.786648,551.735394 C746.697315,549.460727 749.429315,546.991394 751.834648,544.292727 L751.834648,544.292727 C754.235981,541.596727 756.343981,538.674061 757.809314,535.512727 L757.809314,535.512727 C759.285314,532.363394 760.137314,529.000728 760.195981,525.602061 L760.195981,525.602061 C760.195981,522.204728 759.401314,518.811395 757.966648,515.616728 L757.966648,515.616728 C756.545314,512.414061 754.471981,509.435395 752.095981,506.682061 L752.095981,506.682061 C749.717315,503.924728 747.005315,501.396728 744.113315,499.062062 L744.113315,499.062062 C741.221315,496.724728 738.163982,494.556728 735.007982,492.519395 L735.007982,492.519395 C728.655982,488.495395 721.946649,484.955395 715.045315,481.800729 L715.045315,481.800729 C708.146649,478.635396 701.083982,475.788729 693.913316,473.208729 L693.913316,473.208729 C679.571983,468.046062 664.875983,463.800729 650.041317,460.115396 L650.041317,460.115396 C635.201317,456.438063 620.205318,453.344729 605.130652,450.68873 L605.130652,450.68873 C544.779986,440.174063 483.393321,435.95273 422.105323,435.634439 L422.105323,435.634439 C391.449324,435.59673 360.783991,436.57273 330.202658,438.786063 L330.202658,438.786063 C299.627993,441.051396 269.13466,444.562063 238.909327,449.683396 L238.909327,449.683396 C223.810661,452.31673 208.777328,455.335396 193.893328,458.964729 L193.893328,458.964729 C179.014662,462.602063 164.257329,466.782062 149.843996,471.928729 L149.843996,471.928729 C142.639996,474.499396 135.53333,477.343396 128.583997,480.510062 L128.583997,480.510062 C121.62933,483.667395 114.85733,487.216729 108.418664,491.274062 L108.418664,491.274062 C105.217331,493.326062 102.110664,495.518062 99.1599975,497.891395 L99.1599975,497.891395 C96.2079976,500.260728 93.4279977,502.838062 90.9666644,505.672728 L90.9666644,505.672728 C88.5093311,508.503395 86.3399978,511.591395 84.8293312,514.964728 L84.8293312,514.964728 C83.3066646,518.327395 82.4386646,521.954061 82.4306646,525.602061 L82.4306646,525.602061 C82.4853313,529.250061 83.3999979,532.854061 84.9586645,536.179394 L84.9586645,536.179394 C86.5053312,539.518061 88.7026644,542.559394 91.1813311,545.342061 L91.1813311,545.342061 C93.6626643,548.131394 96.4613309,550.65806 99.4266642,552.979394 L99.4266642,552.979394 C102.393331,555.303394 105.511997,557.444727 108.723997,559.447393 L108.723997,559.447393 C115.175997,563.415393 121.987997,566.820727 128.958663,569.863393 L128.958663,569.863393 C135.92933,572.907393 143.04933,575.628726 150.267996,578.076726 L150.267996,578.076726 C164.706663,582.975393 179.482662,586.880726 194.367995,590.258059 L194.367995,590.258059 C209.258661,593.626059 224.290661,596.378059 239.378661,598.751393 L239.378661,598.751393 C254.471994,601.104726 269.63066,603.040726 284.823993,604.643392 L284.823993,604.643392 C300.013326,606.288726 315.245325,607.526059 330.489325,608.559392 L330.489325,608.559392 C338.109325,609.083392 345.738658,609.511392 353.367991,609.895392 L353.367991,609.895392 C360.999991,610.256726 368.634657,610.547392 376.269324,610.808726 L376.269324,610.808726 C391.541324,611.343392 406.82399,611.558059 422.105323,611.555211 L422.105323,611.555211 C452.667989,611.582059 483.235988,610.611392 513.70932,608.399392" id="path460" fill="url(#linearGradient-7)" fill-rule="nonzero" transform="translate(422.897987, 527.605693) scale(-1, 1) rotate(-180.000000) translate(-422.897987, -527.605693) "></path>
        <path d="M406.089323,411.142661 C406.089323,408.615994 413.25999,406.567994 422.105323,406.567994 L422.105323,406.567994 C430.950656,406.567994 438.118656,408.615994 438.118656,411.142661 L438.118656,411.142661 C438.118656,413.670661 430.950656,415.718661 422.105323,415.718661 L422.105323,415.718661 C413.25999,415.718661 406.089323,413.670661 406.089323,411.142661" id="path482" fill="url(#linearGradient-8)" fill-rule="nonzero" transform="translate(422.103990, 411.143328) scale(-1, 1) rotate(-180.000000) translate(-422.103990, -411.143328) "></path>
        <path d="M25.738666,509.661326 C25.738666,507.134659 32.9093325,505.085326 41.7533323,505.085326 L41.7533323,505.085326 C50.5986654,505.085326 57.7679986,507.134659 57.7679986,509.661326 L57.7679986,509.661326 C57.7679986,512.187992 50.5986654,514.237326 41.7533323,514.237326 L41.7533323,514.237326 C32.9093325,514.237326 25.738666,512.187992 25.738666,509.661326" id="path504" fill="url(#linearGradient-9)" fill-rule="nonzero" transform="translate(41.753332, 509.661326) scale(-1, 1) rotate(-180.000000) translate(-41.753332, -509.661326) "></path>
        <path d="M161.291996,438.357328 C161.291996,435.830661 168.462662,433.781328 177.307996,433.781328 L177.307996,433.781328 C186.151995,433.781328 193.321329,435.830661 193.321329,438.357328 L193.321329,438.357328 C193.321329,440.883994 186.151995,442.933328 177.307996,442.933328 L177.307996,442.933328 C168.462662,442.933328 161.291996,440.883994 161.291996,438.357328" id="path526" fill="url(#linearGradient-10)" fill-rule="nonzero" transform="translate(177.306663, 438.357328) scale(-1, 1) rotate(-180.000000) translate(-177.306663, -438.357328) "></path>
        <path d="M650.887984,438.357328 C650.887984,435.830661 658.05865,433.781328 666.903983,433.781328 L666.903983,433.781328 C675.74665,433.781328 682.917316,435.830661 682.917316,438.357328 L682.917316,438.357328 C682.917316,440.883994 675.74665,442.933328 666.903983,442.933328 L666.903983,442.933328 C658.05865,442.933328 650.887984,440.883994 650.887984,438.357328" id="path548" fill="url(#linearGradient-11)" fill-rule="nonzero" transform="translate(666.902650, 438.357328) scale(-1, 1) rotate(-180.000000) translate(-666.902650, -438.357328) "></path>
        <path d="M786.441314,509.661326 C786.441314,507.134659 793.61198,505.085326 802.457313,505.085326 L802.457313,505.085326 C811.302646,505.085326 818.470646,507.134659 818.470646,509.661326 L818.470646,509.661326 C818.470646,512.187992 811.302646,514.237326 802.457313,514.237326 L802.457313,514.237326 C793.61198,514.237326 786.441314,512.187992 786.441314,509.661326" id="path570" fill="url(#linearGradient-12)" fill-rule="nonzero" transform="translate(802.455980, 509.661326) scale(-1, 1) rotate(-180.000000) translate(-802.455980, -509.661326) "></path>
        <path d="M406.089323,338.314662 C406.089323,335.789329 413.25999,333.738663 422.105323,333.738663 L422.105323,333.738663 C430.950656,333.738663 438.118656,335.789329 438.118656,338.314662 L438.118656,338.314662 C438.118656,340.842662 430.950656,342.890662 422.105323,342.890662 L422.105323,342.890662 C413.25999,342.890662 406.089323,340.842662 406.089323,338.314662" id="path590" fill="url(#linearGradient-13)" fill-rule="nonzero" transform="translate(422.103990, 338.314663) scale(-1, 1) rotate(-180.000000) translate(-422.103990, -338.314663) "></path>
        <path d="M161.291996,365.527996 C161.291996,363.00133 168.462662,360.951996 177.307996,360.951996 L177.307996,360.951996 C186.151995,360.951996 193.321329,363.00133 193.321329,365.527996 L193.321329,365.527996 C193.321329,368.054663 186.151995,370.103996 177.307996,370.103996 L177.307996,370.103996 C168.462662,370.103996 161.291996,368.054663 161.291996,365.527996" id="path610" fill="url(#linearGradient-14)" fill-rule="nonzero" transform="translate(177.306663, 365.527996) scale(-1, 1) rotate(-180.000000) translate(-177.306663, -365.527996) "></path>
        <path d="M650.887984,365.527996 C650.887984,363.00133 658.05865,360.951996 666.903983,360.951996 L666.903983,360.951996 C675.74665,360.951996 682.917316,363.00133 682.917316,365.527996 L682.917316,365.527996 C682.917316,368.054663 675.74665,370.103996 666.903983,370.103996 L666.903983,370.103996 C658.05865,370.103996 650.887984,368.054663 650.887984,365.527996" id="path630" fill="url(#linearGradient-15)" fill-rule="nonzero" transform="translate(666.902650, 365.527996) scale(-1, 1) rotate(-180.000000) translate(-666.902650, -365.527996) "></path>
    </g>
</svg>