<?xml version="1.0" encoding="UTF-8"?>
<svg width="1000px" height="1000px" viewBox="0 0 1000 1000" version="1.1" xmlns="http://www.w3.org/2000/svg" xmlns:xlink="http://www.w3.org/1999/xlink">
    <title>pAMPL</title>
    <defs>
        <linearGradient x1="73.4282064%" y1="5.80866472%" x2="26.4366534%" y2="94.2397282%" id="linearGradient-1">
            <stop stop-color="#00EAFF" offset="0%"></stop>
            <stop stop-color="#0080FF" offset="25.2530882%"></stop>
            <stop stop-color="#8000FF" offset="49.7394282%"></stop>
            <stop stop-color="#E619E6" offset="74.9912298%"></stop>
            <stop stop-color="#FF0000" offset="99.9136118%"></stop>
        </linearGradient>
    </defs>
    <g id="Page-1" stroke="none" stroke-width="1" fill="none" fill-rule="evenodd">
        <g id="pAMPL" fill-rule="nonzero">
            <circle id="bg" fill="url(#linearGradient-1)" cx="500" cy="500" r="500"></circle>
            <path d="M183.421519,783 C182.971721,773.997916 182.821788,764.995832 183.271586,755.993749 C186.270242,755.09354 189.268898,754.493401 192.417487,754.043297 C201.413454,752.54295 210.409421,750.292429 219.105523,747.741838 C221.504447,746.991665 223.903372,746.091456 226.302297,745.191248 C237.847121,740.690206 248.042551,733.18847 255.839056,723.586247 C261.236636,716.834684 265.884553,709.482982 269.932738,701.831211 C275.630184,691.32878 280.577966,680.376245 285.07595,669.273674 C294.071917,646.768465 303.067884,624.41329 311.913919,601.908081 C342.500208,524.49016 373.086497,447.072239 403.672786,369.654318 C432.609814,295.987266 461.097044,222.320213 488.984542,148.203056 C489.584273,146.702709 490.184005,145.202362 490.783736,143.702014 C501.129098,140.851354 511.174595,137.85066 521.66989,135 C522.269621,136.500347 522.869352,137.85066 523.319151,139.200972 C535.163841,172.208613 547.008531,205.216254 558.703289,238.373929 C599.035209,351.050012 639.367129,463.576059 680.748579,575.802038 C692.14347,606.409122 703.538362,637.166242 715.083187,667.773327 C719.581171,680.22621 724.978751,692.529058 731.125995,704.231767 C733.824786,709.332947 736.673509,714.134059 739.822097,718.93517 C749.417796,733.938643 764.261142,744.591109 781.503412,749.092151 C790.799245,751.492707 800.095078,753.443158 809.690777,754.643436 L816.437752,755.693679 C817.337349,758.694374 816.88755,761.545034 816.88755,764.395693 C816.88755,767.246353 816.88755,770.547117 816.88755,773.547812 C817.037483,776.548507 816.88755,779.399166 816.737618,782.399861 C815.838021,782.549896 815.088357,782.699931 814.18876,782.849965 C813.139231,782.849965 812.089701,782.849965 811.040172,782.849965 L576.995089,782.849965 C576.695223,782.399861 576.545291,781.799722 576.395358,781.199583 C576.395358,773.097708 576.395358,764.995832 576.395358,756.893957 C576.395358,756.593887 576.545291,756.143783 576.695223,755.843714 C578.64435,755.243575 580.593476,754.943505 582.692535,754.643436 C592.438166,753.293123 602.033865,751.492707 611.629563,748.942116 C615.377883,747.891873 619.276135,746.541561 622.874522,745.041213 C624.673716,744.29104 626.472909,743.390831 628.272103,742.340588 C637.717868,737.089373 641.466188,728.837462 640.566591,718.335031 C640.116793,713.53392 639.367129,708.882843 638.017734,704.231767 C636.068608,697.0301 633.51975,689.978467 631.120826,683.07687 C581.942871,545.795091 533.364648,408.363279 485.236223,270.631396 C484.786424,269.131049 484.486559,267.480667 482.987231,266.130354 C482.537432,266.430424 481.787768,266.730493 481.487903,267.030563 C481.038104,267.780736 480.738239,268.53091 480.588306,269.281084 C457.048858,336.946747 432.010083,404.162306 407.12124,471.227831 C388.679507,520.889326 370.237774,570.700857 353.145436,620.812457 C346.248528,640.91711 339.651485,661.171799 333.204375,681.426488 C330.655517,689.228294 328.856324,697.180134 327.656862,705.131975 C326.757265,710.533225 326.607332,715.934476 327.207063,721.485761 C327.956727,728.537393 331.705047,734.988886 337.552426,739.189859 C341.300746,741.890484 345.498864,743.99097 349.996847,745.491317 C357.043688,748.041908 364.240462,749.842325 371.587169,751.042602 C379.68354,752.54295 387.77991,753.743228 396.026213,754.943505 C396.625945,755.09354 397.075743,755.09354 397.825407,755.243575 C397.97534,755.843714 398.125272,756.443853 398.275205,757.043992 C398.275205,764.845798 398.275205,772.797638 398.275205,780.599444 C398.275205,781.049549 398.125272,781.499653 397.97534,781.949757 C397.225676,782.099792 396.476012,782.249826 395.726348,782.249826 C394.676818,782.249826 393.627289,782.249826 392.577759,782.249826 L183.421519,783 L183.421519,783 Z" id="logo" fill="#FFFFFF"></path>
        </g>
    </g>
</svg>