<?xml version="1.0" encoding="UTF-8"?>
<svg width="600px" height="600px" viewBox="0 0 600 600" version="1.1" xmlns="http://www.w3.org/2000/svg" xmlns:xlink="http://www.w3.org/1999/xlink">
    <title>pMKR</title>
    <defs>
        <linearGradient x1="76.2262818%" y1="0.519209642%" x2="23.6511094%" y2="99.5097915%" id="linearGradient-1">
            <stop stop-color="#00EAFF" offset="0%"></stop>
            <stop stop-color="#0080FF" offset="25.2530882%"></stop>
            <stop stop-color="#8000FF" offset="49.7394282%"></stop>
            <stop stop-color="#E619E6" offset="74.9912298%"></stop>
            <stop stop-color="#FF0000" offset="99.9136118%"></stop>
        </linearGradient>
    </defs>
    <g id="Page-1" stroke="none" stroke-width="1" fill="none" fill-rule="evenodd">
        <g id="pMKR" fill-rule="nonzero">
            <circle id="Oval" fill="url(#linearGradient-1)" cx="300" cy="300" r="300"></circle>
            <path d="M152.34,390 L152.34,248.8 L259.42,329.39 L259.42,390 L286.75,390 L286.75,323.7 C286.739822,318.705636 284.389385,314.004761 280.4,311 L150.54,213.23 C145.696386,209.632478 139.240908,209.065567 133.844408,211.763817 C128.447909,214.462066 125.028151,219.966596 125,226 L125,390 L152.34,390 Z M448.48,390 L448.48,248.8 L341.4,329.39 L341.4,390 L314.07,390 L314.07,323.7 C314.080178,318.705636 316.430615,314.004761 320.42,311 L450.28,213.27 C455.117836,209.676632 461.56437,209.106374 466.95788,211.794682 C472.35139,214.48299 475.776883,219.9738 475.82,226 L475.82,390 L448.48,390 Z" id="MKR" fill="#FFFFFF"></path>
        </g>
    </g>
</svg>