<?xml version="1.0" encoding="UTF-8"?>
<svg width="553px" height="376px" viewBox="0 0 553 376" version="1.1" xmlns="http://www.w3.org/2000/svg" xmlns:xlink="http://www.w3.org/1999/xlink">
    <title>ZKZX</title>
    <g id="Page-1" stroke="none" stroke-width="1" fill="none" fill-rule="evenodd">
        <path d="M75,12.5 L75,25 L87.5,25 L100,25 L100,37.5 L100,50 L112.5,50 L125,50 L125,62.5 L125,75 L112.5,75 L100,75 L100,87.5 L100,100 L87.5,100 L75,100 L75,112.5 L75,125 L62.5,125 L50,125 L50,137.5 L50,150 L37.5,150 L25,150 L25,163 L25,176 L12.5,176 L0,176 L0,188.5 L0,201 L12.5,201 L25,201 L25,213.5 L25,226 L37.5,226 L50,226 L50,238.5 L50,251 L62.5,251 L75,251 L75,263.5 L75,276 L87.5,276 L100,276 L100,288.5 L100,301 L112.5,301 L125,301 L125,313.5 L125,326 L150,326 L175,326 L175,338.5 L175,351 L187.5,351 L200,351 L200,363.5 L200,376 L275,376 L350,376 L350,363.5 L350,351 L362.5,351 L375,351 L375,338.5 L375,326 L387.5,326 L400,326 L400,338.5 L400,351 L413,351 L426,351 L426,363.5 L426,376 L451,376 L476,376 L476,363.5 L476,351 L463.5,351 L451,351 L451,338.5 L451,326 L438.5,326 L426,326 L426,313.5 L426,301 L438.5,301 L451,301 L451,288.5 L451,276 L463.5,276 L476,276 L476,263.5 L476,251 L488.5,251 L501,251 L501,238.5 L501,226 L513.5,226 L526,226 L526,213.53 L526,201.06 L538.75,200.78 L551.5,200.5 L551.78,188 L552.06,175.5 L539.03,175.806 L526,176.111 L526,163.056 L526,150 L513.5,150 L501,150 L501,137.5 L501,125 L488.5,125 L476,125 L476,112.5 L476,100 L463.5,100 L451,100 L451,87.5 L451,75 L438.5,75 L426,75 L426,62.5 L426,50 L400.5,50 L375,50 L375,37.5 L375,25 L362.5,25 L350,25 L350,12.5 L350,0 L275,0 L200,0 L200,12.5 L200,25 L187.5,25 L175,25 L175,37.5 L175,50 L162.5,50 L150,50 L150,37.5 L150,25 L137.5,25 L125,25 L125,12.5 L125,0 L100,0 L75,0 L75,12.5 M175,62.5 L175,75 L187.5,75 L200,75 L200,87.5 L200,100 L212.5,100 L225,100 L225,112.5 L225,125 L237.5,125 L250,125 L250,137.5 L250,150 L262.5,150 L275,150 L275,163 L275,176 L287.5,176 L300,176 L300,188.5 L300,201 L312.5,201 L325,201 L325,213.5 L325,226 L337.5,226 L350,226 L350,238.5 L350,251 L362.5,251 L375,251 L375,263.5 L375,276 L387.5,276 L400,276 L400,288.5 L400,301 L413,301 L426,301 L426,288.5 L426,276 L413,276 L400,276 L400,251 L400,226 L413,226 L426,226 L426,188 L426,150 L413,150 L400,150 L400,137.5 L400,125 L387.5,125 L375,125 L375,112.5 L375,100 L362.5,100 L350,100 L350,87.5 L350,75 L337.5,75 L325,75 L325,62.5 L325,50 L275,50 L225,50 L225,62.5 L225,75 L212.5,75 L200,75 L200,62.5 L200,50 L187.5,50 L175,50 L175,62.5 M125,87.5 L125,100 L137.5,100 L150,100 L150,125 L150,150 L137.5,150 L125,150 L125,188 L125,226 L137.5,226 L150,226 L150,238.5 L150,251 L162.5,251 L175,251 L175,263.5 L175,276 L187.5,276 L200,276 L200,288.5 L200,301 L212.5,301 L225,301 L225,313.5 L225,326 L275,326 L325,326 L325,313.5 L325,301 L337.5,301 L350,301 L350,313.5 L350,326 L362.5,326 L375,326 L375,313.5 L375,301 L362.5,301 L350,301 L350,288.5 L350,276 L337.5,276 L325,276 L325,263.5 L325,251 L312.5,251 L300,251 L300,238.5 L300,226 L287.5,226 L275,226 L275,213.5 L275,201 L262.5,201 L250,201 L250,188.5 L250,176 L237.5,176 L225,176 L225,163 L225,150 L212.5,150 L200,150 L200,137.5 L200,125 L187.5,125 L175,125 L175,112.5 L175,100 L162.5,100 L150,100 L150,87.5 L150,75 L137.5,75 L125,75 L125,87.5 M250,112.5 L250,125 L262.5,125 L275,125 L275,137.5 L275,150 L287.5,150 L300,150 L300,163 L300,176 L312.5,176 L325,176 L325,188.5 L325,201 L337.5,201 L350,201 L350,213.5 L350,226 L362.5,226 L375,226 L375,188 L375,150 L362.5,150 L350,150 L350,137.5 L350,125 L337.5,125 L325,125 L325,112.5 L325,100 L287.5,100 L250,100 L250,112.5 M175,226 L187.5,226 L200,226 L200,238.5 L200,251 L212.5,251 L225,251 L225,263.5 L225,276 L262.5,276 L300,276 L300,263.5 L300,251 L287.5,251 L275,251 L275,238.5 L275,226 L262.5,226 L250,226 L250,213.5 L250,201 L237.5,201 L225,201 L225,188.5 L225,176 L212.5,176 L200,176 L200,163 L200,150 L187.5,150 L175,150 L175,188 L175,226 Z" id="ZKZX" fill="#089CFC"></path>
    </g>
</svg>