<svg width="40" height="40" viewBox="0 0 40 40" fill="none" xmlns="http://www.w3.org/2000/svg">
<g clip-path="url(#clip0_61_270)">
<rect width="40" height="40" fill="#9391F7"/>
<path d="M16.273 20.9764C17.9947 20.7034 19.1496 19.0866 18.8766 17.3648C18.6037 15.643 16.9869 14.4882 15.2651 14.7612C13.5433 15.0341 12.3884 16.6509 12.6614 18.3727C12.9554 20.0945 14.5722 21.2493 16.273 20.9764ZM24.5039 20.9764C26.2257 20.7034 27.3806 19.0866 27.1076 17.3648C26.8346 15.643 25.2178 14.4882 23.4961 14.7612C21.7743 15.0341 20.6194 16.6509 20.8924 18.3727C21.1654 20.0945 22.7822 21.2493 24.5039 20.9764Z" fill="white"/>
<path d="M19.8845 4.89239C11.3386 4.89239 4.40945 11.9475 4.40945 20.6404H8.35696C8.35696 14.1102 13.4803 8.83989 19.8635 8.83989C26.2677 8.83989 31.3701 14.1312 31.3701 20.6404H35.3176C35.3596 11.9475 28.4305 4.89239 19.8845 4.89239Z" fill="white"/>
<g style="mix-blend-mode:soft-light" opacity="0.25">
<rect width="40" height="40" fill="url(#paint0_linear_61_270)"/>
</g>
</g>
<defs>
<linearGradient id="paint0_linear_61_270" x1="20" y1="0" x2="20" y2="40" gradientUnits="userSpaceOnUse">
<stop stop-color="white"/>
<stop offset="0.0666667" stop-color="#FDFDFD"/>
<stop offset="0.133333" stop-color="#F6F6F6"/>
<stop offset="0.2" stop-color="#EAEAEA"/>
<stop offset="0.266667" stop-color="#D9D9D9"/>
<stop offset="0.333333" stop-color="#C4C4C4"/>
<stop offset="0.4" stop-color="#AAAAAA"/>
<stop offset="0.466667" stop-color="#8E8E8E"/>
<stop offset="0.533333" stop-color="#717171"/>
<stop offset="0.6" stop-color="#555555"/>
<stop offset="0.666667" stop-color="#3B3B3B"/>
<stop offset="0.733333" stop-color="#262626"/>
<stop offset="0.8" stop-color="#151515"/>
<stop offset="0.866667" stop-color="#090909"/>
<stop offset="0.933333" stop-color="#020202"/>
<stop offset="1"/>
</linearGradient>
<clipPath id="clip0_61_270">
<rect width="40" height="40" fill="white"/>
</clipPath>
</defs>
</svg>
