<?xml version="1.0" encoding="UTF-8"?>
<svg width="399px" height="399px" viewBox="0 0 399 399" version="1.1" xmlns="http://www.w3.org/2000/svg" xmlns:xlink="http://www.w3.org/1999/xlink">
    <title>pPEPE</title>
    <defs>
        <linearGradient x1="69.5597996%" y1="3.77790993%" x2="26.8935581%" y2="94.6684813%" id="linearGradient-1">
            <stop stop-color="#00EAFF" offset="0%"></stop>
            <stop stop-color="#0080FF" offset="25.2530882%"></stop>
            <stop stop-color="#8000FF" offset="49.7394282%"></stop>
            <stop stop-color="#E619E6" offset="74.9912298%"></stop>
            <stop stop-color="#FF0000" offset="99.9136118%"></stop>
        </linearGradient>
    </defs>
    <g id="coin-logos" stroke="none" stroke-width="1" fill="none" fill-rule="evenodd">
        <g id="pPEPE">
            <circle id="Oval" fill="url(#linearGradient-1)" fill-rule="nonzero" cx="199.5" cy="199.5" r="199.5"></circle>
            <path d="M88.11215,343.20737 L91.84189,343.88547 C88.90344,342.96972 85.5554,341.94247 82.33781,340.96163 L88.11215,343.20737 Z" id="Path"></path>
            <polygon id="Path" fill="#3D8130" fill-rule="nonzero" points="300.996 155.829 300.995 155.79 300.969 155.79"></polygon>
            <polygon id="Path" fill="#3D8130" fill-rule="nonzero" points="303.61912 202.10929 303.6095 202.09568 303.61215 202.11592"></polygon>
            <polygon id="Path" fill="#3D8130" fill-rule="nonzero" points="284.45 273.426 284.474 273.413 284.409 273.337"></polygon>
            <path d="M83.09657,137.01794 L71.54822,159.41429 L59.64705,182.86746 L51.26949,204.85821 L45.68269,228.2523 L42.18131,253.81314 L40.07165,275.94662 L37.64765,290.49117 L40.04275,301.78228 L44.19137,311.46294 L51.75573,324.87234 L69.3476,335.90987 L82.33779,340.96163 C85.55538,341.94244 88.90342,342.96972 91.84187,343.88547 L107.24575,346.68647 L129.28164,347.73599 L147.47727,347.73599 C149.5295,347.73599 167.93357,346.69377 168.11911,346.68315 L168.15562,346.68115 L168.19214,346.68181 L191.62871,347.03232 L214.22621,344.25086 L224.04062,340.18954 L230.73454,332.15684 L231.00588,321.57902 C230.64542,320.70608 229.26033,317.31722 228.93638,316.02208 C228.59899,315.12989 224.14717,309.82322 220.04338,305.22685 L219.96238,305.1233 C218.19227,302.53701 215.22328,297.97383 215.22328,296.47822 C215.22328,294.94344 217.0455,290.61393 217.41061,289.76157 L217.60013,289.31879 L226.96113,286.58845 L233.15485,291.06201 L238.7785,287.93801 L245.10614,281.62501 L256.08414,273.48976 L266.05539,267.79143 L274.00494,266.27722 L284.40868,273.33707 L283.73987,272.56769 L288.07668,268.79979 L292.05817,262.16412 L292.05817,255.26359 L291.30788,253.26247 L286.18788,257.40711 L277.06634,259.96087 L276.91334,259.95755 L262.94599,259.60771 L242.64917,261.74458 L236.22461,262.42103 L231.29661,261.74458 L218.20917,259.94825 L203.4217,257.133 L179.474,253.25951 L179.36381,253.21304 L156.43905,243.68104 L136.38038,232.06531 L124.10513,223.76144 L122.92219,217.8467 L124.4875,212.36677 L129.3494,208.72101 L140.762,211.30132 L165.62415,219.00509 C177.83301,221.50242 196.4047,225.22917 197.66366,225.28958 L197.66432,225.28958 C198.23588,225.28958 200.71263,225.68722 206.64862,226.66172 C213.04262,227.71124 221.79925,229.1491 223.61051,229.1491 C226.72951,229.1491 250.58066,230.4701 252.04873,230.55178 C253.31615,230.53053 272.76841,230.20127 274.83392,230.20127 C276.21303,230.20127 283.68645,227.75107 288.26406,226.14261 L295.04477,218.00602 L301.57455,206.66446 C301.974464,203.400828 301.575396,200.088896 300.41169,197.01367 C298.792388,192.800728 295.849678,189.227027 292.02569,186.8295 C290.00648,190.58679 287.47213,193.03998 284.45769,194.12999 C283.310249,194.545185 282.099057,194.756587 280.87881,194.75465 C279.089897,194.756654 277.326328,194.331765 275.73461,193.51528 L276.73683,191.73953 C278.93328,192.826241 281.472264,192.992756 283.79183,192.20222 C286.49894,191.21245 288.78883,188.83029 290.62216,185.11022 C288.379966,185.958319 286.00033,186.38469 283.60316,186.36785 C282.105041,186.38019 280.610347,186.222742 279.14768,185.89852 L279.39496,184.90941 L279.64091,183.91963 C279.71791,183.93756 287.42683,185.77438 293.27684,181.31874 C297.41202,178.16886 299.70074,172.65109 300.08693,164.90816 L293.35435,172.76328 L285.25577,176.42564 C281.60585,177.33841 269.61177,180.31569 268.51877,180.31569 C268.09293,180.31569 266.56346,180.07804 262.62212,179.45006 C257.77167,178.67736 250.44164,177.50901 248.52051,177.50901 C245.10875,177.50901 240.35223,173.84864 239.82117,173.43176 L239.2506,172.98301 L243.06116,161.93287 L253.54389,150.04563 L264.68515,142.1394 L278.45484,142.1454 L291.47684,143.59255 L297.08373,149.96136 L299.77673,154.00077 L299.77673,143.17166 L288.96789,139.24111 C287.79922,139.0705 277.04879,137.51249 274.48309,137.51249 C271.99587,137.51249 262.38509,138.98022 260.82143,139.22119 L246.97108,148.22408 L245.85983,146.51408 L260.07628,137.27354 L260.29169,137.23969 C260.75339,137.16799 271.62994,135.47323 274.48309,135.47323 C277.33159,135.47323 288.87678,137.16666 289.36685,137.23836 L289.567,137.28881 L301.30222,141.57181 L302.4304,142.21639 L302.52466,141.46228 L297.06929,136.64817 L287.19015,131.87917 L275.2299,130.85355 L261.44723,133.266 L255.94605,135.673 L255.12855,133.805 L260.97508,131.27846 L275.13958,128.79971 L287.73845,129.87976 L288.25773,130.13036 L284.47256,124.21994 L273.8081,114.80282 L273.91482,114.682 L232.33771,115.83707 C232.33771,115.83707 226.93362,116.52148 220.71186,117.30049 L226.60071,125.81249 L229.62081,131.09725 L228.09948,136.42251 L226.13848,135.86223 L227.42382,131.36278 L224.85197,126.86267 L218.56197,117.7768 L218.92774,117.52389 C211.16589,118.49341 202.82684,119.52069 202.34058,119.52069 C201.41952,119.52069 168.00158,122.02069 166.68585,122.02069 C163.90309,121.849891 161.134382,121.498316 158.39725,120.96819 C157.87083,120.70498 135.63612,112.54781 134.84649,112.02139 C134.0572,111.49531 126.29468,103.996 126.29468,103.996 L111.0468,99.28512 L97.7728,115.70234 L83.09657,137.01794 Z M245.42416,182.92455 C247.381005,183.835061 249.274084,184.876767 251.09046,186.04255 L262.5077,187.38548 L269.01026,186.01666 L269.43047,188.01214 L262.601,189.45 L254.73841,188.52461 C258.141977,191.007893 261.265062,193.854358 264.05246,197.01369 C266.06376,199.298892 267.853829,201.769671 269.39863,204.39285 L267.63881,205.42311 C265.843111,202.387234 263.707284,199.565891 261.27267,197.01369 C257.995439,193.584427 254.319162,190.560147 250.32243,188.0055 L250.30368,188.0035 L244.51225,184.74607 L245.42416,182.92455 Z M131.08994,145.46455 L140.16518,136.75641 L148.08337,130.27807 L159.37581,128.10602 L171.30481,127.75485 L183.96475,127.75485 L194.50805,128.10535 L215.83597,128.46117 L222.54397,132.5829 L230.71706,140.05963 L235.44306,145.87679 L237.59487,157.71224 L235.58843,158.07735 L233.53028,146.757 L229.18219,141.40453 L221.24093,134.15482 L215.24654,130.49113 L198.59565,130.21332 L205.85665,134.19532 C209.74504,136.20607 216.41489,139.81997 217.15473,141.29965 C217.61773,142.14404 222.93873,147.34649 227.81387,151.88577 L227.92387,152.00593 L235.45987,161.69521 L236.54955,169.68509 L234.52884,169.96125 L233.51351,162.51438 L226.36438,153.32231 C223.87733,151.0062 216.05238,143.65492 215.33083,142.21175 C214.78052,141.42975 209.48115,138.36618 204.89805,135.99497 L194.21335,130.13597 L183.93093,129.79344 L171.33472,129.7941 L159.51852,130.14195 L148.97621,132.18195 L141.48821,138.30912 L132.98984,146.46695 L132.08636,151.88779 L133.9358,153.50555 L138.39409,151.12837 L145.80509,141.95223 L159.16968,136.89516 L176.59493,135.11742 L191.27656,136.54996 L210.3969,146.46363 L218.33998,151.15563 L225.93471,161.28238 L229.38514,172.32389 L234.45383,175.58131 L234.45383,180.096 L229.78112,184.37838 L221.33386,187.89802 L217.72295,190.85273 L213.93147,197.01373 L212.05283,200.06603 L211.80589,200.19614 C209.2737,201.52914 204.88876,203.75096 203.66864,203.82066 C202.78508,203.98466 197.12558,206.56494 192.12792,208.98328 L191.98354,209.03971 C191.60814,209.15521 182.77188,211.87029 180.62438,212.22876 L180.28882,210.21735 C182.20563,209.89735 190.43914,207.38013 191.31008,207.11327 C196.3552,204.67369 202.55408,201.78336 203.61221,201.78336 C206.018518,200.862453 208.356624,199.772376 210.609,198.5213 L211.5367,197.01373 L216.16593,189.49186 L217.24134,188.61195 C214.05926,188.31887 209.81634,187.82531 208.72969,187.20363 C208.19663,187.02439 205.23794,186.63074 189.57848,186.63074 C185.66486,186.63074 176.43229,184.52574 175.22279,184.12279 C174.19779,183.78091 164.8242,181.00344 164.7296,180.97556 L164.49195,180.90519 L164.31338,180.73326 C164.22638,180.65026 155.55213,172.35305 149.07114,168.60041 L150.09314,166.83595 C156.33946,170.4525 164.2218,177.83431 165.54481,179.09028 C167.04839,179.53571 174.8919,181.8631 175.8674,182.18838 C176.98761,182.56145 185.93706,184.59145 189.57851,184.59145 C208.48211,184.59145 209.30161,185.13779 209.79151,185.46439 C210.46032,185.81622 214.98599,186.38313 218.78344,186.69978 L218.72502,187.39778 L220.27374,186.13086 L228.6669,182.63379 L232.41456,179.19846 L232.41456,176.69515 L229.81483,175.02429 L229.93283,175.33895 L221.27383,178.55388 L209.25583,179.96452 C208.68095,179.98178 206.01931,180.05481 203.1104,180.05481 C199.7481,180.05481 196.05587,179.95722 194.8696,179.56158 C193.24719,179.02058 183.21537,176.81995 178.13772,175.73193 L177.99566,175.7014 L177.86821,175.6324 C171.52397,172.21699 163.81489,167.92531 163.11853,166.8804 C162.63327,166.31017 158.75981,164.24632 155.45891,162.6744 L155.38356,162.63457 L144.27633,156.15557 L142.75317,156.44102 L142.50623,155.12302 L139.03439,153.09767 L133.6527,155.96774 L129.88844,152.67381 L131.08994,145.46455 Z M135.65976,193.3912 L136.13838,195.37341 L129.34338,197.01373 L125.96381,197.82958 L125.76665,197.01373 L125.48519,195.84738 L135.65976,193.3912 Z M140.01947,202.86939 L139.5,204.84162 C137.190939,204.389917 134.815066,204.402328 132.51085,204.87813 C128.73962,205.58313 123.11332,207.73725 117.72632,213.9932 L116.18092,212.66288 C127.3456,199.69825 139.50733,202.734 140.01947,202.86937 L140.01947,202.86939 Z" id="Shape" fill="#3D8130" fill-rule="nonzero"></path>
            <path d="M153.67183,152.32125 C154.27592,152.24889 168.48822,150.55944 170.2819,150.55944 C170.96764,150.55944 172.99431,150.74066 175.56069,150.97035 C179.08298,151.28567 184.97847,151.81342 185.83049,151.64082 C187.26105,151.28301 201.23006,150.00647 202.81828,149.86175 L211.13642,149.26762 L209.4088,148.24662 L190.68709,138.5414 L176.59958,137.16727 L159.642,138.89724 L147.04414,143.66355 L140.59568,151.64746 L144.64768,154.01103 L153.67183,152.32125 Z" id="Path" fill="#3D8130" fill-rule="nonzero"></path>
            <path d="M202.98324,151.8944 C196.82919,152.45401 187.29124,153.3774 186.31742,153.62103 C185.41195,153.84673 182.21128,153.6124 175.3788,153.00167 C173.06335,152.79456 170.87636,152.59873 170.2819,152.59873 C168.89648,152.59873 158.05445,153.85337 153.94666,154.34195 L147.33921,155.58095 L156.37429,160.85144 C159.18761,162.19172 163.94164,164.5689 164.78272,165.70339 C165.54015,166.46414 172.41014,170.37544 178.70725,173.76828 C180.3197,174.11414 193.46825,176.94471 195.51447,177.62713 C196.91814,178.09447 204.60299,178.05862 209.15123,177.92785 L220.91234,176.5431 L228.02778,173.87549 L227.65952,173.63883 L224.09276,162.225 L216.95258,152.705 L212.73692,150.21364 L212.80692,151.19279 L202.98324,151.8944 Z" id="Path" fill="#3D8130" fill-rule="nonzero"></path>
            <path d="M295.42512,151.14958 L290.46879,145.53224 L278.28579,144.17869 L265.33529,144.17869 L254.82119,151.64016 L244.85807,162.97774 L241.65691,172.26074 C243.28429,173.44037 246.50338,175.46974 248.52043,175.46974 C250.60304,175.46974 257.44515,176.56042 262.94301,177.43667 C265.49809,177.8436 268.14031,178.26447 268.52601,178.27642 C269.42417,178.21668 278.86933,175.91982 284.67101,174.47001 L292.09961,171.0931 L297.95809,164.25829 L297.42836,161.07986 L279.18062,153.64561 L255.85789,152.94925 L255.91863,150.91125 L279.60912,151.61825 L299.25257,159.62074 L300.09729,164.68843 C300.109897,164.405643 300.120077,164.119977 300.12783,163.83143 L300.12783,158.20343 L295.42512,151.14958 Z" id="Path" fill="#3D8130" fill-rule="nonzero"></path>
            <path d="M273.55784,268.43868 L266.77165,269.73116 L257.14875,275.23034 L246.38175,283.21823 L243.37244,286.22771 L250.17771,290.99103 L250.64654,294.74168 L246.08386,299.3042 L244.64202,297.86236 L248.49938,294.00483 L248.26654,292.14212 L241.90869,287.69146 L240.0186,289.58172 L236.03444,291.79527 L234.90477,297.16201 L240.47033,302.10889 L248.52327,301.78689 C250.05507,300.68689 252.50278,299.0592 253.68589,298.97089 C254.917308,298.247837 256.093821,297.435103 257.20589,296.53928 C259.94389,294.48605 261.00965,293.73728 261.79911,293.70538 C264.19224,292.550776 266.48536,291.199439 268.65483,289.6653 L268.96583,289.45819 L278.81212,290.594 L282.21591,293.99747 L281.54378,294.71772 C279.40691,297.00794 277.03255,299.9693 276.90378,300.72806 C276.876975,301.210948 276.765234,301.685327 276.57369,302.12941 L278.85246,300.87609 L289.68088,293.19025 L290.86117,294.85381 L279.88637,302.63458 L274.76076,305.45358 C274.55995,305.75958 274.38603,306.01286 274.26588,306.18479 L273.89878,305.92789 L266.06178,310.23815 L260.65105,318.0156 L258.79498,322.65645 L262.65649,328.12609 L266.92808,333.05537 L271.98233,333.68737 L276.66233,332.68465 L276.60441,331.64277 L281.8447,323.46104 L291.66841,313.98816 L293.08403,315.45656 L283.34761,324.84513 L278.67689,332.18445 L278.98176,337.67235 L283.96697,341.09971 L290.51882,341.75491 L294.2552,340.60516 L293.547,339.543 L294.06994,338.95484 C294.29994,338.69595 299.71566,332.60463 300.77713,331.54384 C301.58883,330.73197 306.14786,325.48704 308.44504,322.82706 L309.98845,324.16006 C309.71529,324.47606 303.28575,331.91892 302.21913,332.9857 C301.38652,333.81814 297.53313,338.13305 296.11736,339.7216 L299.58787,344.92803 L305.495,344.92803 L310.63919,342.67698 L314.78947,336.47745 L320.403,330.51293 L321.888,331.91093 L316.333,337.81305 L312.00432,344.30599 L305.92147,346.96729 L298.49647,346.96729 L295.43538,342.37557 L290.72516,343.82471 L283.24295,343.07657 L277.0011,338.7849 L276.77673,334.74549 L272.07182,335.75318 L265.89902,334.98181 L261.18847,329.54636 L254.18222,325.34297 L246.85369,317.2814 L245.0552,304.69184 L247.07391,304.40373 L248.61699,315.20627 L257.32231,308.33959 L266.69246,299.31613 L272.05572,291.86727 L269.47408,291.56921 C266.61608,293.46379 263.15092,295.61195 261.95553,295.73741 C260.721205,296.459684 259.542555,297.273151 258.42942,298.17102 C255.62904,300.27138 254.5782,301.00624 253.78309,301.00624 C252.247566,301.70326 250.800103,302.579886 249.47101,303.61776 L249.22091,303.79965 L239.73011,304.18002 L232.66528,297.90017 L233.67447,293.10631 L233.0118,293.47441 L226.57512,288.82559 L219.09806,291.00628 C218.294442,292.760239 217.679165,294.594503 217.26256,296.47828 C217.34886,297.26359 219.57801,300.9452 221.60834,303.91784 C224.31976,306.9562 230.54517,314.04857 230.91492,315.52693 C231.18726,316.61693 232.49219,319.84449 232.97197,320.99623 L233.05561,321.19738 L232.70744,334.77472 L236.60761,340.62441 C238.61637,341.79674 253.35361,350.39468 255.00952,351.38841 C256.19397,352.09941 266.79635,355.11715 273.26256,356.869 L295.16157,358.95476 L312.78957,356.53576 L327.93257,349.65183 L336.14118,341.77214 L334.22586,334.75014 L324.12749,315.94578 L316.827,304.82129 L304.36472,290.97443 L285.63072,280.72354 L282.8013,274.71122 L273.55784,268.43868 Z" id="Path" fill="#3D8130" fill-rule="nonzero"></path>
            <path d="M289.47138,227.87923 L289.20701,227.97217 C287.18747,228.68512 277.00362,232.2406 274.83389,232.2406 C272.76141,232.2406 252.25316,232.58845 252.04621,232.59177 L252.00937,232.59244 L251.97237,232.59044 C251.72011,232.5765 226.70411,231.18844 223.61049,231.18844 C221.63261,231.18844 213.49668,229.85281 206.31801,228.67385 C202.31842,228.01732 198.18209,227.33822 197.64571,227.32892 C196.21383,227.32892 170.33833,222.05146 165.16576,220.99331 L165.06817,220.96809 L140.19671,213.261 L129.81871,210.91834 L126.25991,213.58694 L125.01891,217.93172 L125.94064,222.54137 L137.4933,230.35666 L157.40294,241.88277 L180.03562,251.28395 L203.77523,255.12488 L218.53852,257.93621 L236.25701,260.36716 L262.86438,257.56579 L262.93076,257.56712 L276.81132,257.91497 L285.23232,255.55637 L292.31191,249.82618 L298.11,240.958 L299.36265,236.88739 L297.47965,232.31359 C289.123,239.92375 288.13406,240.17402 287.7112,240.27959 L279.08902,242.41447 L255.18029,243.4693 L255.12901,243.46664 L230.09277,242.04803 L205.28306,237.50477 L185.24928,237.8566 L185.11718,237.82341 L164.335,232.53535 L145.89542,226.12871 L136.0717,220.16418 L137.13018,218.42096 L146.86096,224.32906 L164.96166,230.5943 L185.487,235.81335 L205.45041,235.46284 L205.55032,235.48077 L230.39754,240.03067 L255.19281,241.42737 L278.89658,240.38117 L287.21671,238.30139 C287.74363,238.09228 290.49371,235.92753 296.38671,230.55049 C297.16971,229.83621 297.73561,229.31311 297.92663,229.13586 L305.54443,218.74823 L308.133,213.895 C307.69503,212.238489 307.365406,210.555214 307.14622,208.85586 C306.158162,207.291669 305.014965,205.831047 303.73396,204.49614 C303.744453,205.399961 303.684081,206.303215 303.5534,207.1976 L303.5217,207.3702 L296.6678,219.24349 L289.47138,227.87923 Z" id="Path" fill="#983B1F" fill-rule="nonzero"></path>
            <path d="M336.13244,333.9894 L325.90296,314.9414 L318.48945,303.637 L305.64829,289.352 L287.19278,279.2538 L284.45032,273.42569 L283.91195,273.71711 C283.91195,273.71711 285.62232,279.9007 286.80643,280.55856 C287.99054,281.21642 304.04165,289.37356 304.83112,289.76823 C305.62058,290.16323 319.56668,306.74041 319.56668,306.74041 L330.74976,326.21225 L337.4596,341.21086 C337.4596,341.21086 328.90779,350.02586 328.38154,350.15766 C327.85529,350.28909 311.27792,358.31482 310.75166,358.31482 C310.2254,358.31482 294.17413,360.15662 293.25323,359.89341 C292.33233,359.63053 272.59728,357.91984 271.01835,357.78841 C269.43959,357.65697 251.15186,350.42054 251.15186,350.42054 L235.36379,340.948 L230.89056,333.97478 L224.57536,341.07944 C224.57536,341.07944 215.6289,345.55267 214.44463,345.55267 C213.26063,345.55267 191.42029,348.4473 189.71026,348.4473 L145.76659,348.4473 C145.76659,348.4473 102.34968,347.65768 100.50788,346.73694 C99.9101,346.43822 96.36188,345.2941 91.84188,343.88545 L88.11214,343.20735 L82.3378,340.96161 C75.24874,338.80117 68.79995,336.86942 68.79995,336.86942 L50.907,325.29155 C50.907,325.29155 43.4077,312.26617 43.14449,311.60832 C42.88128,310.95079 38.27661,300.03043 38.27661,299.50432 C38.27661,298.9779 36.69768,290.29465 36.69768,290.29465 L39.85553,270.42816 L41.30269,249.50884 L44.72341,226.74771 C44.72341,226.74771 50.38058,203.85514 50.51235,202.80264 C50.64379,201.75013 59.85346,179.12077 59.85346,179.12077 L69.58955,161.62217 L82.35138,135.17711 L96.42926,115.31062 L110.11216,98.99629 L111.04683,99.28506 L111.08069,99.24324 L109.49479,97.96072 L96.1624,114.45029 L81.38019,135.91463 L69.7326,158.48557 L57.80421,181.99251 L49.34036,204.1937 L43.68783,227.82677 L40.15625,253.57813 L38.05425,275.64655 L35.57252,290.53629 L38.06852,302.30337 L42.33895,312.31727 L50.23356,326.32478 L68.34588,337.68892 L87.46388,345.14375 L106.94767,348.70454 L129.2332,349.774 L147.47729,349.774 C149.56039,349.774 167.02912,348.78755 168.19813,348.72183 L191.66856,349.07233 L191.73856,349.07299 L214.6132,346.25835 L214.75061,346.24109 L225.28529,341.88104 L230.67909,335.40868 L235.17256,342.14857 L235.37619,342.26739 C235.54464,342.36564 252.23138,352.09939 253.96,353.13697 C255.78321,354.23097 271.0754,358.38987 272.81315,358.86053 L295.20402,361.00736 L313.21444,358.53592 L313.36214,358.51534 L328.93497,351.43624 L329.09362,351.36454 L338.42743,342.40414 L336.13244,333.9894 Z" id="Path" fill="#000000" fill-rule="nonzero"></path>
            <path d="M96.4293,115.31064 L82.35142,135.17713 L69.58959,161.62219 L59.8535,179.12079 C59.8535,179.12079 50.64383,201.75015 50.51239,202.80266 C50.38062,203.85516 44.72345,226.74773 44.72345,226.74773 L41.30273,249.50886 L39.85557,270.42818 L36.69772,290.29467 C36.69772,290.29467 38.27665,298.97792 38.27665,299.50434 C38.27665,300.03043 42.88132,310.95079 43.14453,311.60834 C43.40774,312.26619 50.90704,325.29157 50.90704,325.29157 L68.8,336.86944 C68.8,336.86944 75.24879,338.80119 82.33785,340.96163 L69.34766,335.90987 L51.75579,324.87234 L44.19143,311.46294 L40.04281,301.78228 L37.64771,290.49117 L40.07171,275.94662 L42.18137,253.81314 L45.68275,228.2523 L51.26955,204.85821 L59.64711,182.86746 L71.54828,159.41429 L83.09663,137.01794 L97.77295,115.7023 L111.04695,99.28508 L110.11228,98.99631 L96.4293,115.31064 Z" id="Path" fill="#000000" fill-rule="nonzero"></path>
            <path d="M274.00493,266.27724 L266.05538,267.79145 L256.08413,273.48978 L245.10613,281.62503 L238.77849,287.93803 L233.15484,291.06203 L226.96112,286.58847 L217.60012,289.31881 L217.4106,289.76159 C217.04549,290.61395 215.22327,294.94346 215.22327,296.47824 C215.22327,297.97385 218.19227,302.53703 219.96237,305.12332 L220.04337,305.22687 C224.14718,309.82324 228.599,315.12987 228.93637,316.0221 C229.26037,317.31724 230.64537,320.7061 231.00587,321.57904 L230.73453,332.15686 L224.04061,340.18956 L214.2262,344.25088 L191.6287,347.03234 L168.19213,346.68183 L168.15561,346.68117 L168.1191,346.68317 C167.93356,346.69379 149.52949,347.73468 147.47726,347.73468 L129.28163,347.73601 L107.24574,346.68649 L91.84186,343.88549 C96.36186,345.29414 99.91007,346.43826 100.50786,346.73698 C102.34966,347.65772 145.76657,348.44734 145.76657,348.44734 L189.71024,348.44734 C191.42024,348.44734 213.26066,345.55271 214.44461,345.55271 C215.62888,345.55271 224.57534,341.07948 224.57534,341.07948 L230.89054,333.97482 L235.36377,340.94804 L251.15184,350.42058 C251.15184,350.42058 269.43957,357.65701 271.01833,357.78845 C272.59726,357.91989 292.33233,359.63058 293.25321,359.89345 C294.17411,360.15666 310.22539,358.31486 310.75164,358.31486 C311.27789,358.31486 327.85527,350.28913 328.38152,350.1577 C328.90777,350.02593 337.45958,341.2109 337.45958,341.2109 L330.74974,326.21229 L319.56666,306.74045 C319.56666,306.74045 305.62056,290.16325 304.8311,289.76827 C304.04163,289.37362 287.99052,281.21645 286.80641,280.5586 C285.6223,279.90075 283.91193,273.71715 283.91193,273.71715 L284.4503,273.42573 L284.40865,273.3371 L274.00493,266.27724 Z M285.63078,280.72355 L304.36478,290.97444 L316.82706,304.8213 L324.12755,315.94579 L334.22592,334.75015 L336.14124,341.77215 L327.93263,349.65184 L312.78963,356.53577 L295.16163,358.95477 L273.26262,356.86901 C266.79641,355.11716 256.19403,352.09938 255.00958,351.38842 C253.35366,350.39466 238.61643,341.79672 236.60767,340.62442 L232.7075,334.77473 L233.05567,321.19739 L232.97203,320.99624 C232.49225,319.8445 231.18732,316.61695 230.91498,315.52694 C230.54523,314.04858 224.31982,306.95621 221.6084,303.91785 C219.57807,300.94521 217.34892,297.2636 217.26262,296.47829 C217.679225,294.594513 218.294502,292.760249 219.09812,291.00629 L226.57518,288.8256 L233.01186,293.47442 L233.67453,293.10632 L232.66534,297.90018 L239.73017,304.18003 L249.22097,303.79966 L249.47107,303.61777 C250.800163,302.579896 252.247626,301.70327 253.78315,301.00625 C254.57826,301.00625 255.62915,300.27139 258.42948,298.17103 C259.542615,297.273161 260.721265,296.459694 261.95559,295.73742 C263.15098,295.61196 266.61618,293.4638 269.47414,291.56922 L272.05578,291.86728 L266.69252,299.31614 L257.32237,308.3396 L248.61705,315.20628 L247.07397,304.40374 L245.05526,304.69185 L246.85375,317.28141 L254.18228,325.34298 L261.18853,329.54637 L265.89908,334.98182 L272.07188,335.75319 L276.77679,334.7455 L277.00116,338.78491 L283.24301,343.07658 L290.72522,343.82472 L295.43544,342.37558 L298.49653,346.9673 L305.92153,346.9673 L312.00438,344.306 L316.33306,337.81306 L321.88806,331.91094 L320.40306,330.51294 L314.78953,336.47746 L310.63925,342.67699 L305.495,344.928 L299.58789,344.928 L296.11738,339.72157 C297.53317,338.13302 301.38654,333.81811 302.21915,332.98567 C303.28577,331.91889 309.71531,324.47601 309.98847,324.16003 L308.44506,322.82703 C306.14788,325.48703 301.58885,330.73194 300.77715,331.54381 C299.71568,332.60461 294.29997,338.69593 294.06996,338.95481 L293.54702,339.54297 L294.25517,340.6051 L290.51879,341.75485 L283.96694,341.09965 L278.98173,337.67229 L278.67686,332.18439 L283.34758,324.84507 L293.084,315.4565 L291.66838,313.9881 L281.84467,323.46098 L276.60438,331.64271 L276.6623,332.68459 L271.9823,333.68731 L266.92805,333.05531 L262.65646,328.12603 L258.79495,322.65639 L260.65102,318.01554 L266.06175,310.23809 L273.89875,305.92783 L274.26585,306.18473 C274.386,306.0128 274.55992,305.75955 274.76073,305.45352 L279.88634,302.63452 L290.86114,294.85375 L289.68085,293.19019 L278.85243,300.87603 L276.57366,302.12935 C276.765204,301.685267 276.876945,301.210888 276.90375,300.728 C277.03253,299.96924 279.40689,297.00788 281.54375,294.71766 L282.21588,293.99741 L278.81209,290.59394 L268.9658,289.45813 L268.6548,289.66524 C266.48533,291.199379 264.19221,292.550716 261.79908,293.70532 C261.00962,293.73719 259.94383,294.48599 257.20586,296.53922 C256.093791,297.435043 254.917278,298.247777 253.68586,298.97083 C252.50275,299.05912 250.05504,300.68683 248.52324,301.78683 L240.4703,302.10883 L234.90474,297.16195 L236.03441,291.79521 L240.01857,289.58166 L241.90866,287.6914 L248.26651,292.14206 L248.49935,294.00477 L244.64199,297.8623 L246.08383,299.30414 L250.64651,294.74162 L250.17768,290.99097 L243.37241,286.22765 L246.38172,283.21817 L257.14872,275.23028 L266.77162,269.7311 L273.55781,268.43862 L282.80133,274.71117 L285.63078,280.72355 Z M258.23129,325.39411 L255.48901,323.74847 L249.47137,317.12974 L258.62478,309.90957 L268.1735,300.72081 L274.37468,292.13515 L277.87241,292.53909 L279.38529,294.0513 C277.45221,296.17888 274.86675,299.28694 274.86675,300.6883 C274.541167,301.847721 274.01634,302.941653 273.31575,303.92116 L264.66038,308.68149 L258.91038,316.94686 L256.49005,322.92732 L258.23129,325.39411 Z" id="Shape" fill="#000000" fill-rule="nonzero"></path>
            <path d="M282.72784,121.626 L287.85893,128.33568 C287.85893,128.33568 290.35876,132.28282 291.27982,132.54603 C292.20072,132.80924 300.48949,137.67712 300.48949,137.67712 L303.91021,141.49249 L303.25236,143.72927 L300.62093,142.93965 L300.9945,155.78977 L301.81599,155.78977 L301.81599,144.21453 L304.07435,145.50502 L304.68175,140.64578 L298.2084,134.93417 L291.20962,131.5556 L291.48062,131.382 L286.03621,122.88031 L275.158,113.27467 L273.91481,114.68199 L274.96548,114.65278 L282.72784,121.626 Z" id="Path" fill="#000000" fill-rule="nonzero"></path>
            <path d="M299.7,174.25259 C299.7,174.25259 296.01606,181.62045 295.62142,181.88366 C295.2266,182.14654 291.93748,183.59402 291.93748,183.59402 L292.20069,185.43583 C293.72296,186.525054 295.173196,187.711584 296.54232,188.98799 C296.70346,189.31028 298.98489,193.67599 300.73032,197.01371 L302.51669,197.01371 C300.81718,192.011208 297.426835,187.757699 292.9293,184.98542 C293.12114,184.55558 293.307177,184.111363 293.48741,183.65277 C293.82663,183.43504 294.16353,183.20635 294.49528,182.95442 C299.34639,179.26949 301.92737,172.85422 302.16685,163.85864 L302.16685,157.5861 L300.99568,155.82927 L301.27881,165.56934 L299.7,174.25259 Z" id="Path" fill="#000000" fill-rule="nonzero"></path>
            <path d="M284.47256,124.21993 L288.25773,130.13035 L287.73845,129.87975 L275.13958,128.79975 L260.97508,131.2785 L255.12855,133.80504 L255.94605,135.67304 L261.44723,133.26604 L275.22987,130.85367 L287.19012,131.87929 L297.06926,136.64829 L302.52463,141.4624 L302.43037,142.21651 L301.30219,141.57193 L289.56697,137.28893 L289.36682,137.23848 C288.87675,137.16678 277.33156,135.47335 274.48306,135.47335 C271.62991,135.47335 260.75336,137.16811 260.29166,137.23981 L260.07625,137.27366 L245.8598,146.5142 L246.97105,148.2242 L260.8214,139.22131 C262.38506,138.98031 271.99584,137.51261 274.48306,137.51261 C277.04876,137.51261 287.79919,139.07061 288.96786,139.24123 L299.7767,143.17178 L299.7767,154.00086 L297.0837,149.96145 L291.47681,143.59264 L278.45481,142.14549 L264.68512,142.13949 L253.54386,150.04572 L243.06113,161.93296 L239.25052,172.983 L239.82109,173.43175 C240.35215,173.84863 245.10867,177.509 248.52043,177.509 C250.44156,177.509 257.77159,178.67735 262.62204,179.45005 C266.56338,180.07805 268.09285,180.31568 268.51869,180.31568 C269.61169,180.31568 281.6058,177.3384 285.25569,176.42563 L293.35427,172.76327 L300.08685,164.90815 C299.70066,172.65108 297.41194,178.16885 293.27676,181.31873 C287.42676,185.77437 279.71784,183.93755 279.64083,183.91962 L279.39488,184.9094 L279.1476,185.89851 C280.610267,186.222732 282.104961,186.38018 283.60308,186.36784 C286.00025,186.38468 288.379886,185.958309 290.62208,185.11021 C288.78874,188.83032 286.49886,191.21248 283.79175,192.20221 C281.472184,192.992746 278.9332,192.826231 276.73675,191.73952 L275.73453,193.51527 C277.326248,194.331755 279.089817,194.756644 280.87873,194.75464 C282.098977,194.756577 283.310169,194.545175 284.45761,194.12998 C287.47207,193.03998 290.00642,190.58678 292.02561,186.82949 C295.849598,189.227017 298.792308,192.800718 300.41161,197.01366 L300.73025,197.01366 C298.98487,193.67592 296.70344,189.31023 296.54225,188.98794 C295.173126,187.711534 293.72289,186.525004 292.20062,185.43578 L291.93741,183.59397 C291.93741,183.59397 295.22653,182.14649 295.62135,181.88361 C296.01599,181.6204 299.69993,174.25254 299.69993,174.25254 L301.27869,165.56929 L300.99556,155.82922 L300.96917,155.78972 L300.9944,155.78972 L300.62083,142.9396 L303.25226,143.72922 L303.91011,141.49244 L300.48939,137.67707 C300.48939,137.67707 292.20062,132.80919 291.27972,132.54598 C290.35866,132.28277 287.85883,128.33563 287.85883,128.33563 L282.72774,121.62595 L274.96539,114.65273 L273.91472,114.68194 L273.808,114.80276 L284.47256,124.21993 Z M300.09733,164.68843 L299.25261,159.62074 L279.60916,151.61825 L255.91867,150.91125 L255.85793,152.94925 L279.18066,153.64561 L297.4284,161.07986 L297.95813,164.25829 L292.09965,171.0931 L284.67105,174.47001 C278.86932,175.91982 269.42416,178.21668 268.52605,178.27642 C268.14036,178.26447 265.49814,177.8436 262.94305,177.43667 C257.44519,176.56042 250.60305,175.46974 248.52047,175.46974 C246.50347,175.46974 243.28433,173.44041 241.65695,172.26074 L244.85811,162.97774 L254.82123,151.64016 L265.33533,144.17869 L278.28585,144.17869 L290.46885,145.53224 L295.42518,151.14958 L300.12793,158.20346 L300.12793,163.83146 C300.12025,164.120207 300.11005,164.405863 300.09733,164.68843 Z" id="Shape" fill="#000000" fill-rule="nonzero"></path>
            <polygon id="Path" fill="#000000" fill-rule="nonzero" points="236.225 262.421 242.649 261.745 231.297 261.745"></polygon>
            <path d="M293.12162,262.13925 C292.85862,262.66567 287.06962,272.00678 287.06962,272.00678 L284.47437,273.41278 L285.07746,274.10649 L289.65856,270.12615 L294.09744,262.72841 L294.09744,261.74461 L293.18865,261.74461 C293.186267,261.878778 293.16367,262.01182 293.12162,262.13925 Z" id="Path" fill="#000000" fill-rule="nonzero"></path>
            <path d="M293.12162,262.13925 C293.163661,262.011815 293.186248,261.87877 293.18862,261.7446 L292.05811,261.7446 L292.05811,262.16414 L288.07662,268.79981 L283.73981,272.56771 L284.40862,273.33709 L284.47434,273.41277 L287.06959,272.00677 C287.06959,272.00677 292.85858,262.66567 293.12162,262.13925 Z" id="Path" fill="#000000" fill-rule="nonzero"></path>
            <path d="M302.72611,200.82909 L303.6095,202.09568 C303.434083,200.36651 303.067569,198.662107 302.51667,197.01368 L300.7303,197.01368 C301.83541,199.12669 302.72611,200.82909 302.72611,200.82909 Z" id="Path" fill="#000000" fill-rule="nonzero"></path>
            <path d="M309.17274,212.01233 C309.0413,212.53874 307.85719,216.48556 307.59398,217.14341 C307.33098,217.80127 297.85806,230.69487 297.85806,230.69487 L300.09468,235.1681 C300.09468,235.1681 300.48949,238.32562 300.22628,238.85204 C299.96307,239.37812 291.67447,252.27172 291.67447,252.27172 L292.99018,255.82422 C292.99018,255.82422 293.29618,260.31836 293.18867,261.7446 L294.09746,261.7446 L294.09746,254.8932 L292.98006,251.91392 L292.96811,251.91857 L293.84371,251.20957 L299.97436,241.83295 L301.52836,236.78252 L299.08136,230.84587 C299.27403,230.66764 299.38536,230.56441 299.38536,230.56441 L307.23202,219.89531 L310.30108,214.16312 L310.20598,213.78212 C309.762482,212.132975 309.421124,210.458045 309.18385,208.76687 C309.18385,208.40708 309.18385,207.31308 303.99785,201.75615 L303.61913,202.10931 L306.67313,206.48661 C306.67313,206.48661 309.30435,211.48591 309.17274,212.01233 Z" id="Path" fill="#000000" fill-rule="nonzero"></path>
            <path d="M300.7303,197.01371 L300.41166,197.01371 C301.575366,200.088936 301.974434,203.400868 301.57452,206.6645 L295.04474,218.00606 L288.26403,226.14265 C283.68642,227.75111 276.21303,230.20131 274.83389,230.20131 C272.76838,230.20131 253.31612,230.53057 252.0487,230.55182 C250.58063,230.47017 226.7295,229.14914 223.61048,229.14914 C221.79922,229.14914 213.04261,227.71128 206.64859,226.66176 C200.71259,225.68726 198.23585,225.28962 197.66429,225.28962 L197.66363,225.28962 C196.40463,225.22921 177.83298,221.50246 165.62412,219.00513 L140.762,211.30136 L129.3494,208.72105 L124.4875,212.36681 L122.92219,217.84674 L124.10513,223.76148 L136.38038,232.06535 L156.439,243.68108 L179.36376,253.21308 L179.47395,253.25955 L203.4217,257.133 L218.20922,259.94831 L231.29666,261.74465 L242.64917,261.74465 L262.94599,259.60777 L276.91334,259.95761 L277.06634,259.96093 L286.18788,257.40717 L291.30788,253.26253 L292.05817,255.26365 L292.05817,261.74465 L293.18868,261.74465 C293.29622,260.31841 292.99019,255.82427 292.99019,255.82427 L291.67448,252.27177 C291.67448,252.27177 299.96308,239.37817 300.22629,238.85209 C300.4895,238.32567 300.09469,235.16815 300.09469,235.16815 L297.85807,230.69492 C297.85807,230.69492 307.33095,217.80132 307.59399,217.14346 C307.8572,216.48561 309.04131,212.53879 309.17275,212.01238 C309.30436,211.48596 306.67309,206.48664 306.67309,206.48664 L303.61909,202.10934 L303.61209,202.11597 L303.60944,202.09573 L302.72605,200.82914 C302.72605,200.82914 301.83541,199.12669 300.7303,197.01371 Z M303.55341,207.19755 C303.684091,206.303165 303.744463,205.399911 303.73397,204.49609 C305.014975,205.830997 306.158172,207.291619 307.14623,208.85581 C307.365416,210.555164 307.69504,212.238439 308.13301,213.89495 L305.5444,218.74823 L297.9266,229.13586 C297.7356,229.31311 297.16967,229.83621 296.38668,230.55049 C290.49368,235.92749 287.74359,238.09228 287.21668,238.30139 L278.89655,240.38117 L255.19278,241.42737 L230.39751,240.03067 L205.55029,235.48077 L205.45038,235.46284 L185.48697,235.81335 L164.96163,230.5943 L146.86093,224.32906 L137.13015,218.42096 L136.07167,220.16418 L145.89539,226.12871 L164.33497,232.53535 L185.11722,237.82343 L185.24932,237.85662 L205.2831,237.50479 L230.09281,242.04805 L255.12905,243.46666 L255.18033,243.46932 L279.08906,242.41449 L287.71124,240.27961 C288.1341,240.17406 289.12304,239.92379 297.47969,232.31361 L299.36269,236.88741 L298.11,240.958 L292.31192,249.82613 L285.23233,255.55632 L276.81133,257.91492 L262.93077,257.56707 L262.86439,257.56574 L236.257,260.36715 L218.53851,257.9362 L203.77522,255.12487 L180.03561,251.28394 L157.40293,241.88276 L137.49329,230.35665 L125.94063,222.54136 L125.0189,217.93171 L126.2599,213.58693 L129.8187,210.91833 L140.1967,213.26099 L165.06815,220.96808 L165.16574,220.9933 C170.33831,222.05145 196.21381,227.32891 197.64569,227.32891 C198.18207,227.33821 202.3184,228.01731 206.31799,228.67384 C213.49666,229.85284 221.63259,231.18843 223.61047,231.18843 C226.70409,231.18843 251.72009,232.5765 251.97235,232.59043 L252.00935,232.59243 L252.04619,232.59176 C252.25319,232.58844 272.76139,232.24059 274.83387,232.24059 C277.0036,232.24059 287.18745,228.68511 289.20699,227.97216 L289.47136,227.87922 L296.66779,219.24343 L303.52169,207.37014 L303.55341,207.19755 Z" id="Shape" fill="#000000" fill-rule="nonzero"></path>
            <path d="M132.51087,204.87813 C134.815086,204.402328 137.190959,204.389917 139.50002,204.84162 L140.01947,202.86937 C139.50733,202.73395 127.3456,199.69825 116.18094,212.66288 L117.72634,213.9932 C123.11334,207.73725 128.73964,205.58312 132.51087,204.87813 Z" id="Path" fill="#000000" fill-rule="nonzero"></path>
            <polygon id="Path" fill="#000000" fill-rule="nonzero" points="129.343 197.014 136.138 195.373 135.66 193.391 125.485 195.847 125.767 197.014"></polygon>
            <polygon id="Path" fill="#000000" fill-rule="nonzero" points="125.964 197.83 129.343 197.014 125.767 197.014"></polygon>
            <path d="M250.3224,188.00552 C254.319132,190.560167 257.995409,193.584447 261.27264,197.01371 L264.05243,197.01371 C261.265032,193.854378 258.141947,191.007913 254.73838,188.52463 L262.60097,189.45002 L269.43047,188.01216 L269.01026,186.01668 L262.5077,187.3855 L251.09046,186.04257 C249.274084,184.876787 247.381005,183.835081 245.42416,182.92457 L244.51222,184.74612 L250.30365,188.00355 L250.3224,188.00552 Z" id="Path" fill="#000000" fill-rule="nonzero"></path>
            <path d="M267.63878,205.42313 L269.3986,204.39287 C267.853799,201.769691 266.06373,199.298912 264.05243,197.01371 L261.27264,197.01371 C263.707254,199.565911 265.843081,202.387254 267.63878,205.42313 L267.63878,205.42313 Z" id="Path" fill="#000000" fill-rule="nonzero"></path>
            <path d="M139.03435,153.0976 L142.50619,155.12295 L142.75313,156.44095 L144.27629,156.1555 L155.38352,162.6345 L155.45887,162.67433 C158.75977,164.24628 162.63323,166.31013 163.11849,166.88033 C163.81485,167.9252 171.52393,172.21688 177.86817,175.63233 L177.99562,175.70133 L178.13768,175.73186 C183.21533,176.81986 193.24715,179.02049 194.86956,179.56151 C196.05583,179.95715 199.74806,180.05474 203.11036,180.05474 C206.01927,180.05474 208.68091,179.98174 209.25579,179.96445 L221.27379,178.55381 L229.93279,175.33888 L229.81479,175.02422 L232.41452,176.69508 L232.41452,179.19839 L228.66686,182.63372 L220.2737,186.13079 L218.72498,187.39771 L218.7834,186.69971 C214.98595,186.38306 210.46028,185.81615 209.79147,185.46432 C209.30156,185.13772 208.48206,184.59138 189.57847,184.59138 C185.93702,184.59138 176.98757,182.56138 175.86736,182.18831 C174.89186,181.86303 167.04836,179.53564 165.54477,179.09021 C164.22177,177.83421 156.33942,170.45243 150.0931,166.83588 L149.0711,168.60034 C155.5521,172.35298 164.22638,180.65021 164.31334,180.73319 L164.49191,180.90512 L164.72956,180.97549 C164.82416,181.00337 174.19779,183.78084 175.22275,184.12272 C176.43225,184.52566 185.66482,186.63067 189.57844,186.63067 C205.2379,186.63067 208.19659,187.02432 208.72965,187.20356 C209.81634,187.82524 214.05922,188.3188 217.2413,188.61188 L216.16589,189.49179 L211.53666,197.01366 L213.93143,197.01366 L217.72291,190.85266 L221.33382,187.89795 L229.78108,184.37831 L234.45379,180.09593 L234.45379,175.58121 L229.3851,172.32379 L225.93467,161.28228 L218.34,151.15556 L210.39692,146.46356 L191.27658,136.54989 L176.59495,135.11735 L159.1697,136.89509 L145.8051,141.9522 L138.3941,151.12834 L133.93581,153.50552 L132.08637,151.88776 L132.98985,146.46692 L141.48822,138.30909 L148.97622,132.18192 L159.51853,130.14192 L171.33473,129.79407 L183.93094,129.79341 L194.21336,130.13594 L204.89806,135.99494 C209.48116,138.36615 214.78053,141.42973 215.33084,142.21172 C216.05243,143.65489 223.87734,151.00617 226.36439,153.32228 L233.51352,162.51435 L234.52885,169.96122 L236.54956,169.68506 L235.45988,161.69518 L227.92388,152.0059 L227.81388,151.88574 C222.9387,147.34646 217.61776,142.14401 217.15474,141.29962 C216.4149,139.81994 209.74505,136.20604 205.85666,134.19529 L198.59566,130.21329 L215.24655,130.4911 L221.24094,134.15479 L229.1822,141.4045 L233.53029,146.75697 L235.5885,158.07729 L237.59494,157.71218 L235.44313,145.87673 L230.71713,140.05957 L222.54404,132.58284 L215.83604,128.46111 L194.50812,128.10529 L183.96482,127.75479 L171.30488,127.75479 L159.37588,128.10596 L148.08344,130.27801 L140.16525,136.75635 L131.09001,145.46449 L129.88847,152.6737 L133.65273,155.96763 L139.03435,153.0976 Z M216.95258,152.70494 L224.09276,162.22494 L227.65952,173.63886 L228.02778,173.87552 L220.91234,176.54313 L209.15123,177.92788 C204.60299,178.05865 196.91814,178.0945 195.51447,177.62716 C193.46821,176.94474 180.3197,174.11416 178.70725,173.76831 C172.41014,170.37547 165.54015,166.46417 164.78272,165.70342 C163.94164,164.56893 159.18761,162.19175 156.37429,160.85147 L147.33921,155.58098 L153.94666,154.34198 C158.05445,153.8534 168.89648,152.59876 170.2819,152.59876 C170.87636,152.59876 173.06335,152.79459 175.3788,153.0017 C182.21128,153.61243 185.41195,153.84676 186.31742,153.62106 C187.29126,153.37743 196.82919,152.45406 202.98324,151.89443 L212.80695,151.19276 L212.73695,150.21361 L216.95258,152.70494 Z M147.04414,143.66355 L159.642,138.89724 L176.59958,137.1673 L190.68709,138.54143 L209.4088,148.24665 L211.13642,149.26765 L202.81828,149.86178 C201.23006,150.0065 187.26105,151.28304 185.83049,151.64085 C184.97849,151.81345 179.08298,151.2857 175.56069,150.97038 C172.99431,150.74069 170.96764,150.55947 170.2819,150.55947 C168.48822,150.55947 154.2759,152.24892 153.67183,152.32128 L144.64771,154.01106 L140.59571,151.64749 L147.04414,143.66355 Z" id="Shape" fill="#000000" fill-rule="nonzero"></path>
            <path d="M210.609,198.52128 C208.356624,199.772356 206.018518,200.862433 203.61221,201.78334 C202.55406,201.78334 196.35521,204.67367 191.31008,207.11325 C190.43914,207.38011 182.20563,209.89736 180.28882,210.21733 L180.62438,212.22874 C182.77188,211.87027 191.60814,209.15519 191.98354,209.03969 L192.12792,208.98326 C197.12558,206.56492 202.78508,203.98461 203.66864,203.82064 C204.88876,203.75094 209.2737,201.5291 211.80589,200.19612 L212.05283,200.06601 L213.93147,197.01371 L211.5367,197.01371 L210.609,198.52128 Z" id="Path" fill="#000000" fill-rule="nonzero"></path>
            <path d="M220.23855,116.6164 L218.92781,117.52386 C219.52725,117.44884 220.121917,117.37438 220.71181,117.30048 L220.23855,116.6164 Z" id="Path" fill="#000000" fill-rule="nonzero"></path>
            <path d="M224.852,126.86264 L227.42385,131.36275 L226.13851,135.8622 L228.09951,136.42248 L229.62084,131.09722 L226.60074,125.81246 L220.71189,117.30046 C220.12307,117.37414 219.528403,117.4486 218.92789,117.52384 L218.56212,117.77675 L224.852,126.86264 Z" id="Path" fill="#000000" fill-rule="nonzero"></path>
            <path d="M286.06755,124.48554 L295.0052,123.6206 C295.0052,123.6206 317.2052,130.25176 318.07009,131.11669 C318.93498,131.98162 330.17916,136.88292 330.17916,136.88292 L336.77337,137.4554 L337.63286,131.4384 L332.77396,124.48551 L318.64671,114.10631 L302.50129,106.32191 L292.4104,102.8622 L288.8324,51.87157 L280.30129,39.14545 L267.6156,28.76625 L251.18187,20.69353 L234.17151,20.40522 L202.169,24.44158 L172.76128,30.2078 L171.01742,25.167 C168.749178,24.5707089 166.441595,24.135623 164.11195,23.865 C162.38208,23.865 146.8274,28.684 146.8274,28.684 L137.299,33.66754 L135.28082,39.43376 L121.7302,46.92985 L110.77437,60.76878 L104.43153,74.03109 C104.43153,74.03109 101.26011,87.2934 101.26011,88.15834 C101.26011,89.02328 102.98997,96.23105 104.14322,96.80767 C105.29647,97.38429 114.23411,99.69078 114.23411,99.69078 L125.89345,105.45871 L142.77691,115.25958 L163.82362,122.17905 C163.82362,122.17905 183.71709,120.73749 185.73526,120.73749 C187.75343,120.73749 217.7378,117.56607 219.46767,117.56607 C221.19754,117.56607 254.065,114.97127 254.92993,114.97127 C255.79486,114.97127 275.4,114.683 275.4,114.683 L283.1844,121.60247 L286.06755,124.48554 Z" id="Path" fill="#C82727" fill-rule="nonzero"></path>
            <polyline id="Path" fill="#000000" fill-rule="nonzero" points="278.255 152.807 280.886 158.333 282.465 164.648 281.675 168.595 278.255 177.279 267.466 179.121 250.099 175.963 247.994 169.911 248.784 164.385 250.626 155.702 255.099 150.702 257.993 152.281 277.202 152.807"></polyline>
            <path d="M199.05133,152.01787 L202.20894,158.06994 L202.47207,165.43769 L200.89327,172.01603 L197.47253,177.27871 L191.94672,177.54184 L170.89602,171.22663 L162.47574,163.85888 L163.52827,159.12248 L166.42274,154.6492 L170.28204,151.57931 L185.10524,152.01787 C185.10524,152.01787 198.52506,153.0704 199.05133,152.01787 Z" id="Path" fill="#000000" fill-rule="nonzero"></path>
            <path d="M334.96891,125.3491 L326.72644,118.1811 L314.9431,110.316 L295.54743,103.26345 L292.80343,102.21261 L291.98509,85.49861 C291.0008,77.34344 289.53638,64.85279 289.53638,63.86832 C289.53638,62.44706 288.86127,52.30238 288.83238,51.87156 L288.81744,51.64519 L283.02922,41.154 L273.36135,31.12815 L258.49915,22.63508 L246.21146,18.99264 L229.224,18.99264 L212.56665,21.1116 C205.83075,22.23414 195.36478,23.90434 194.13934,23.90434 C192.32343,23.90434 178.3136,27.07679 176.6902,27.44655 L171.80307,28.72475 L172.59734,28.32745 L171.01742,25.16695 L165.86342,23.18475 L158.25658,23.90899 L146.0215,26.77873 L136.82212,32.66625 L134.94746,37.53944 L136.22334,38.02968 L131.08,39.37494 L130.92666,39.41477 L120.14266,46.24493 L112.67788,54.7765 L105.90215,66.15457 L100.49656,84.77438 L100.49656,91.501 L103.97305,97.68061 L125.89344,105.45872 L133.22712,112.09439 L149.50925,119.52731 L163.87456,123.1359 L190.7405,121.36745 L229.65198,117.16075 L257.32248,115.05906 L280.36723,115.40823 L304.71,118.886 L323.86718,127.942 L324.73879,126.09787 L305.30313,116.91044 L280.59166,113.38019 L257.2608,113.0184 L229.46534,115.13005 L190.56398,119.33605 L164.05917,121.0806 L150.27139,117.63332 L134.36133,110.36967 L126.95961,103.67294 L105.37512,96.01431 L102.53592,90.9672 L102.53592,85.06242 L107.72243,67.0832 L114.27412,56.04833 L121.483,47.81018 L131.74982,41.30794 L177.17416,29.42735 C183.09952,28.08043 192.94516,25.94356 194.13937,25.94356 C195.92637,25.94356 211.16964,23.41171 212.86337,23.12891 L229.28872,21.03191 L245.91772,21.03191 L257.59119,24.46525 L272.09608,32.75451 L281.37396,42.37543 L286.81273,52.23333 C287.05802,55.92489 287.49714,62.8075 287.49714,63.86833 C287.49714,65.29159 289.70837,83.65384 289.95548,85.68848 L290.72336,101.41598 L278.93322,96.9006 L255.6387,94.42982 L238.00434,92.666 L220.69726,94.07864 L200.69866,96.18431 L177.41178,101.46908 L159.95732,105.65852 L148.24999,106.34691 L133.28988,103.355 L140.91299,108.89866 L147.08699,112.53646 L161.26377,116.08066 L175.16777,116.46166 L175.23877,116.46299 L187.6345,115.04571 L205.18023,112.23837 L222.32667,109.43899 L241.55721,108.0403 L254.82921,107.34195 L270.84415,108.3835 L292.56173,111.18619 L320.56298,116.51344 L325.4375,119.7629 L333.2845,126.58642 L335.53224,131.72382 L334.98839,135.53023 L330.80808,135.80904 L322.57292,132.03648 L307.48644,126.072 L295.6329,122.476 L285.25439,123.55008 L285.46416,125.57875 L295.43441,124.54715 L306.77581,127.98381 L321.7731,133.91116 L330.4281,137.87889 L336.77334,137.45536 L337.63283,131.43836 L334.96891,125.3491 Z M137.02426,37.82024 L138.48502,34.02313 L146.8274,28.68393 L158.51913,25.93235 L165.57865,25.25988 L169.547,26.7867 L170.66489,29.02248 L137.02426,37.82024 Z M292.91749,109.17816 L292.72697,110.17989 L292.85742,109.16889 L271.04092,106.35489 L254.8421,105.29873 L241.42955,106.00505 L222.13312,107.40839 L204.85458,110.225 L187.35764,113.0257 L175.14911,114.42108 L161.64943,114.07522 L147.86729,110.63 L142.07237,107.22056 L142.01661,107.18007 L148.10761,108.3982 L160.16744,107.68857 L177.87544,103.45531 L200.97244,98.20639 L220.88673,96.10939 L237.98554,94.71339 L255.42971,96.45794 L278.45288,98.90018 L294.83426,105.17405 L314.01584,112.14893 L316.20549,113.6087 L292.91749,109.17816 Z" id="Shape" fill="#000000" fill-rule="nonzero"></path>
            <ellipse id="Oval" fill="#FFFFFF" fill-rule="nonzero" transform="translate(190.954803, 163.486173) rotate(-16.566470) translate(-190.954803, -163.486173) " cx="190.954803" cy="163.486173" rx="6.25456" ry="5.26268"></ellipse>
            <circle id="Oval" fill="#FFFFFF" fill-rule="nonzero" cx="176.15869" cy="165.43769" r="2.63134"></circle>
            <circle id="Oval" fill="#FFFFFF" fill-rule="nonzero" cx="174.57989" cy="157.28054" r="2.63134"></circle>
            <circle id="Oval" fill="#FFFFFF" fill-rule="nonzero" cx="259.30896" cy="168.85843" r="2.3682"></circle>
            <circle id="Oval" fill="#FFFFFF" fill-rule="nonzero" cx="259.04583" cy="159.64874" r="2.63134"></circle>
            <circle id="Oval" fill="#FFFFFF" fill-rule="nonzero" cx="273.25505" cy="164.91142" r="4.73641"></circle>
        </g>
    </g>
</svg>