<?xml version="1.0" encoding="UTF-8"?>
<svg width="249px" height="226px" viewBox="0 0 249 226" version="1.1" xmlns="http://www.w3.org/2000/svg" xmlns:xlink="http://www.w3.org/1999/xlink">
    <title>GOAT</title>
    <defs>
        <linearGradient x1="-0.00169117246%" y1="49.9977711%" x2="99.998311%" y2="49.9977711%" id="linearGradient-1">
            <stop stop-color="#ED1E29" offset="0%"></stop>
            <stop stop-color="#914E9F" offset="42.74%"></stop>
            <stop stop-color="#5DCAE5" offset="100%"></stop>
        </linearGradient>
        <linearGradient x1="-0.00221726632%" y1="49.9970917%" x2="99.9977827%" y2="49.9970917%" id="linearGradient-2">
            <stop stop-color="#ED1E29" offset="0%"></stop>
            <stop stop-color="#914E9F" offset="42.74%"></stop>
            <stop stop-color="#5DCAE5" offset="100%"></stop>
        </linearGradient>
        <linearGradient x1="-0.00301855004%" y1="50.0039265%" x2="99.9969814%" y2="50.0039265%" id="linearGradient-3">
            <stop stop-color="#ED1E29" offset="0%"></stop>
            <stop stop-color="#914E9F" offset="42.74%"></stop>
            <stop stop-color="#5DCAE5" offset="100%"></stop>
        </linearGradient>
    </defs>
    <g id="Page-1" stroke="none" stroke-width="1" fill="none" fill-rule="evenodd">
        <g id="GOAT" transform="translate(0.344098, 0.596288)" fill-rule="nonzero">
            <g id="Group" transform="translate(0.000000, 0.244933)">
                <path d="M244.169795,95.41 L198.759795,16.75 C192.769795,6.38 181.709795,0 169.739795,0 L78.9197947,0 C70.7297947,0 62.9597947,2.99 56.9497947,8.21 C54.1797947,10.61 51.7897947,13.48 49.8997947,16.75 L4.48979469,95.41 C0.839794692,101.73 -0.590205308,108.94 0.219794692,115.96 C0.729794692,120.46 2.15979469,124.87 4.48979469,128.92 L49.8997947,207.57 C55.1397947,216.66 64.2897947,222.69 74.5297947,224.04 C75.9797947,224.23 77.4397947,224.33 78.9197947,224.33 L169.739795,224.33 C181.709795,224.33 192.769795,217.94 198.759795,207.57 L244.169795,128.92 C250.159795,118.54 250.159795,105.77 244.169795,95.41 Z M220.189795,120.04 L199.309795,156.19 L179.089795,191.22 C178.079795,192.97 176.749795,194.49 175.209795,195.7 C172.719795,197.67 169.649795,198.87 166.409795,199.08 C166.079795,199.1 165.749795,199.11 165.419795,199.11 L83.2297947,199.11 C77.6097947,199.11 72.3697947,196.09 69.5597947,191.22 L28.4697947,120.04 C25.6597947,115.18 25.6597947,109.13 28.4697947,104.26 L28.6497947,103.95 L69.5597947,33.08 C72.1897947,28.54 76.9197947,25.6 82.0997947,25.23 C82.4797947,25.2 82.8497947,25.19 83.2297947,25.19 L165.419795,25.19 C171.039795,25.19 176.279795,28.21 179.089795,33.08 L202.869795,74.26 L209.949795,86.52 L220.189795,104.26 C222.999795,109.14 222.999795,115.18 220.189795,120.04 Z" id="Shape" fill="url(#linearGradient-1)"></path>
                <path d="M219.319795,104.77 L209.179795,87.2 L201.709795,74.26 L178.229795,33.59 C175.589795,29.03 170.689795,26.2 165.419795,26.2 L83.2297947,26.2 C82.7497947,26.2 82.2597947,26.22 81.7897947,26.28 C77.0797947,26.74 72.8197947,29.45 70.4297947,33.59 L30.3597947,103 L29.3397947,104.77 C26.6997947,109.33 26.6997947,114.99 29.3397947,119.55 L70.4297947,190.73 C73.0597947,195.29 77.9697947,198.12 83.2297947,198.12 L165.419795,198.12 C165.799795,198.12 166.179795,198.11 166.549795,198.07 C169.249795,197.87 171.809795,196.92 173.969795,195.38 C175.679795,194.18 177.149795,192.6 178.229795,190.73 L198.839795,155.02 L219.319795,119.55 C221.949795,114.98 221.949795,109.33 219.319795,104.77 Z M166.219795,168.93 C163.409795,173.8 158.169795,176.82 152.549795,176.82 L96.0997947,176.82 C90.4797947,176.82 85.2397947,173.8 82.4297947,168.93 L54.2097947,120.04 C51.3997947,115.18 51.3997947,109.13 54.2097947,104.26 L76.9497947,64.87 L82.4297947,55.37 C85.2397947,50.51 90.4797947,47.48 96.0997947,47.48 L152.549795,47.48 C158.169795,47.48 163.409795,50.51 166.219795,55.37 L177.129795,74.26 L190.439795,97.32 L194.449795,104.26 C197.259795,109.13 197.259795,115.18 194.449795,120.04 L188.699795,130 L166.219795,168.93 Z" id="Shape" fill="url(#linearGradient-2)"></path>
                <path d="M193.579795,119.54 L165.359795,168.43 C162.719795,172.99 157.819795,175.82 152.549795,175.82 L96.0997947,175.82 C90.8397947,175.82 85.9297947,172.99 83.2997947,168.43 L55.0797947,119.54 C52.4397947,114.98 52.4397947,109.32 55.0797947,104.76 L83.2997947,55.87 C85.9297947,51.32 90.8397947,48.48 96.0997947,48.48 L152.549795,48.48 C157.819795,48.48 162.719795,51.32 165.359795,55.87 L193.579795,104.76 C196.209795,109.33 196.209795,114.98 193.579795,119.54 Z" id="Path" fill="url(#linearGradient-3)"></path>
            </g>
            <path d="M215.149795,75.6449327 C214.339795,73.1949327 211.319795,74.5949327 209.339795,74.5649327 C207.179795,74.5349327 205.029795,74.5149327 202.869795,74.5149327 C202.489795,74.5049327 202.099795,74.5049327 201.709795,74.5049327 C193.519795,74.4549327 185.329795,74.4749327 177.129795,74.5149327 C176.749795,74.5149327 176.359795,74.5149327 175.979795,74.5249327 L175.369795,74.5249327 C173.079795,74.5449327 171.599795,74.2449327 170.379795,71.7649327 C166.679795,64.2549327 161.259795,58.1849327 152.879795,55.9149327 C148.719795,54.7849327 147.939795,51.8749327 147.339795,48.7349327 C147.269795,48.4049327 147.209795,48.0749327 147.149795,47.7349327 C147.139795,47.6949327 147.129795,47.6449327 147.119795,47.6049327 C145.629795,39.8349327 142.889795,32.7449327 138.799795,26.4449327 C138.589795,26.1049327 138.359795,25.7749327 138.139795,25.4449327 C135.419795,21.4449327 132.139795,17.7749327 128.279795,14.4649327 C122.449795,9.46493267 115.799795,4.28493267 107.779795,6.02493267 C102.429795,7.18493267 99.6397947,4.61493267 95.9997947,2.56493267 C95.0797947,2.04493267 93.6964614,1.27159933 91.8497947,0.244932668 C72.6559015,-0.596288333 66.6559015,0.403711667 56.9497947,8.45493267 C67.0897947,12.1749327 74.603128,15.4449327 79.4897947,18.2649327 C82.7397947,20.1349327 83.2597947,21.9449327 82.1397947,25.3549327 C82.1297947,25.3949327 82.1097947,25.4449327 82.0997947,25.4849327 C81.9897947,25.8349327 81.8797947,26.1749327 81.7897947,26.5249327 C80.3197947,31.6549327 80.2497947,36.8649327 82.5997947,42.0049327 C83.2997947,43.5249327 83.6297947,44.9049327 85.6697947,44.6549327 C87.8997947,44.3849327 88.4197947,42.6849327 88.3697947,40.9649327 C88.2697947,37.9849327 88.8097947,35.1349327 89.4397947,32.2649327 C90.0497947,29.4449327 91.1397947,29.3349327 93.0597947,31.2949327 C98.0197947,36.3649327 102.609795,41.6449327 106.329795,47.7349327 C106.529795,48.0649327 106.729795,48.3949327 106.929795,48.7349327 C107.089795,49.0149327 107.259795,49.2949327 107.419795,49.5849327 C109.619795,53.4949327 107.919795,53.3649327 105.209795,53.0949327 C95.0197947,52.0749327 86.6997947,55.9249327 79.5597947,62.5949327 C79.3797947,62.7749327 79.1897947,62.9449327 79.0097947,63.1249327 C78.3197947,63.7849327 77.6397947,64.4549327 76.9497947,65.1249327 C69.1697947,72.6649327 61.4897947,80.2949327 53.1497947,87.2549327 C45.9497947,93.2549327 38.3897947,98.6449327 30.3597947,103.244933 C29.7897947,103.574933 29.2297947,103.894933 28.6497947,104.204933 C24.1697947,106.704933 19.5397947,108.954933 14.7297947,110.934933 C9.94979469,112.904933 5.15979469,114.784933 0.219794692,116.204933 C0.729794692,120.704933 2.15979469,125.114933 4.48979469,129.164933 L49.8997947,207.814933 C55.1397947,216.904933 64.2897947,222.934933 74.5297947,224.284933 C74.1097947,218.754933 75.3997947,213.334933 76.8697947,206.734933 C77.9697947,212.744933 78.8297947,217.394933 79.8897947,223.174933 C81.6797947,219.714933 79.9497947,216.934933 82.0397947,214.584933 C82.113128,217.144933 83.2064614,220.474933 85.3197947,224.574933 L87.7797947,224.574933 C88.233128,217.341599 89.1597947,211.971599 90.5597947,208.464933 C91.373128,211.938266 92.563128,217.308266 94.1297947,224.574933 L95.8797947,224.574933 C94.133128,213.181599 93.8564614,204.778266 95.0497947,199.364933 C95.1197947,199.034933 95.1997947,198.694933 95.2797947,198.364933 C95.9897947,195.454933 97.0297947,192.554933 98.4197947,189.674933 C99.6297947,192.934933 101.289795,195.784933 103.259795,198.364933 C103.509795,198.704933 103.769795,199.034933 104.039795,199.364933 C106.529795,202.464933 109.449795,205.174933 112.529795,207.764933 C114.049795,206.624933 113.009795,205.644933 112.679795,204.734933 C112.049795,202.954933 111.589795,201.164933 111.279795,199.364933 C111.219795,199.034933 111.169795,198.694933 111.119795,198.364933 C110.079795,191.354933 110.999795,184.244933 111.199795,177.174933 L111.199795,177.074933 C111.199795,176.824933 111.179795,176.454933 111.199795,176.074933 C111.229795,175.084933 111.529795,173.974933 113.149795,174.294933 C115.179795,174.694933 117.189795,175.084933 118.869795,176.074933 C119.349795,176.354933 119.799795,176.674933 120.209795,177.074933 C120.949795,177.754933 121.599795,178.634933 122.099795,179.784933 C124.769795,185.834933 125.339795,192.034933 124.689795,198.364933 C124.659795,198.694933 124.619795,199.024933 124.579795,199.364933 C124.529795,199.764933 124.479795,200.164933 124.419795,200.574933 C124.109795,202.744933 123.659795,204.904933 124.119795,207.004933 C124.973128,210.891599 126.123128,216.748266 127.569795,224.574933 L166.819795,224.574933 C165.799795,213.401599 165.663128,204.988266 166.409795,199.334933 C166.459795,198.994933 166.499795,198.654933 166.549795,198.314933 C166.589795,198.014933 166.639795,197.704933 166.679795,197.404933 C167.029795,194.944933 167.749795,192.834933 171.229795,194.554933 C172.099795,194.984933 173.019795,195.344933 173.969795,195.624933 C174.379795,195.754933 174.789795,195.864933 175.209795,195.954933 C176.879795,196.324933 178.599795,196.404933 180.199795,196.094933 C185.179795,195.134933 191.929795,196.734933 193.209795,188.844933 C193.299795,188.284933 194.269795,187.664933 194.959795,187.424933 C198.489795,186.144933 199.469795,183.414933 199.199795,180.064933 C198.969795,177.224933 199.339795,174.764933 201.289795,172.414933 C203.659795,169.554933 203.439795,166.284933 201.969795,162.874933 C201.059795,160.744933 200.179795,158.594933 199.309795,156.444933 C199.149795,156.054933 198.999795,155.654933 198.839795,155.264933 C197.379795,151.594933 195.949795,147.904933 194.439795,144.254933 C192.519795,139.584933 190.669795,134.894933 188.699795,130.254933 C188.539795,129.864933 188.379795,129.484933 188.209795,129.104933 C187.259795,126.864933 186.269795,124.654933 185.229795,122.454933 C181.779795,115.154933 179.289795,107.534933 175.849795,99.5249327 C180.949795,100.014933 185.269795,99.1549327 189.469795,97.8849327 C189.689795,97.8149327 189.919795,97.7449327 190.139795,97.6749327 C190.239795,97.6449327 190.339795,97.6149327 190.439795,97.5749327 C197.389795,95.3749327 203.749795,92.0949327 209.179795,87.4449327 C209.439795,87.2249327 209.699795,87.0049327 209.949795,86.7749327 C211.109795,85.7449327 212.219795,84.6549327 213.279795,83.4949327 C215.139795,81.4649327 215.989795,78.1949327 215.149795,75.6449327 Z M130.729795,37.2849327 C130.339795,37.4949327 129.939795,37.6949327 129.549795,37.9049327 C127.179795,34.0849327 124.809795,30.2549327 122.439795,26.4349327 C122.279795,26.1749327 122.119795,25.9249327 121.959795,25.6649327 C122.239795,25.9149327 122.519795,26.1749327 122.799795,26.4349327 C126.159795,29.6149327 128.819795,33.2149327 130.729795,37.2849327 Z M134.519795,47.7249327 C133.819795,46.0549327 133.109795,44.3949327 132.409795,42.7249327 C133.899795,44.2749327 135.109795,45.9549327 136.099795,47.7249327 C136.279795,48.0549327 136.459795,48.3949327 136.629795,48.7249327 C137.629795,50.6949327 138.379795,52.7649327 138.969795,54.9049327 C138.559795,55.0649327 138.159795,55.2249327 137.749795,55.3849327 C136.809795,53.1649327 135.879795,50.9449327 134.939795,48.7249327 C134.799795,48.4049327 134.659795,48.0649327 134.519795,47.7249327 Z M107.899795,171.614933 C102.509795,170.574933 100.469795,166.134933 98.0697947,162.054933 C101.739795,164.854933 104.399795,168.654933 107.899795,171.614933 Z" id="Shape" fill="#000000"></path>
        </g>
    </g>
</svg>