<?xml version="1.0" encoding="UTF-8"?>
<svg width="100px" height="100px" viewBox="0 0 100 100" version="1.1" xmlns="http://www.w3.org/2000/svg" xmlns:xlink="http://www.w3.org/1999/xlink">
    <title>POPPY</title>
    <defs>
        <circle id="path-1" cx="50" cy="50" r="50"></circle>
        <filter x="-4.0%" y="-4.0%" width="108.0%" height="108.0%" filterUnits="objectBoundingBox" id="filter-2">
            <feOffset dx="0" dy="8" in="SourceAlpha" result="shadowOffsetInner1"></feOffset>
            <feComposite in="shadowOffsetInner1" in2="SourceAlpha" operator="arithmetic" k2="-1" k3="1" result="shadowInnerInner1"></feComposite>
            <feColorMatrix values="0 0 0 0 1   0 0 0 0 1   0 0 0 0 1  0 0 0 0.25 0" type="matrix" in="shadowInnerInner1" result="shadowMatrixInner1"></feColorMatrix>
            <feOffset dx="0" dy="-8" in="SourceAlpha" result="shadowOffsetInner2"></feOffset>
            <feComposite in="shadowOffsetInner2" in2="SourceAlpha" operator="arithmetic" k2="-1" k3="1" result="shadowInnerInner2"></feComposite>
            <feColorMatrix values="0 0 0 0 0   0 0 0 0 0   0 0 0 0 0  0 0 0 0.15 0" type="matrix" in="shadowInnerInner2" result="shadowMatrixInner2"></feColorMatrix>
            <feMerge>
                <feMergeNode in="shadowMatrixInner1"></feMergeNode>
                <feMergeNode in="shadowMatrixInner2"></feMergeNode>
            </feMerge>
        </filter>
    </defs>
    <g id="main" stroke="none" stroke-width="1" fill="none" fill-rule="evenodd">
        <g id="CiA" fill-rule="nonzero">
            <g id="Oval">
                <use fill="#0cf" xlink:href="#path-1"></use>
                <use fill="black" fill-opacity="1" filter="url(#filter-2)" xlink:href="#path-1"></use>
            </g>
            <path d="M50.75,10 C58.3333333,10 65.0625,11.75 70.9375,15.25 C76.8125,18.75 81.4583333,23.4791667 84.875,29.4375 C88.2916667,35.3958333 90,42.1666667 90,49.75 C90,57.5 88.2916667,64.3958333 84.875,70.4375 C81.4583333,76.4791667 76.7916667,81.25 70.875,84.75 C64.9583333,88.25 58.25,90 50.75,90 C42.9166667,90 35.9375,88.25 29.8125,84.75 C23.6875,81.25 18.8541667,76.4583333 15.3125,70.375 C11.7708333,64.2916667 10,57.4166667 10,49.75 C10,44.0833333 11.0208333,38.8333333 13.0625,34 C15.1041667,29.1666667 17.9583333,24.9583333 21.625,21.375 C25.2916667,17.7916667 29.6041667,15 34.5625,13 C39.5208333,11 44.9166667,10 50.75,10 Z M50.75,15.125 C43.8333333,15.0416667 37.6875,16.5 32.3125,19.5 C26.9375,22.5 22.7291667,26.6041667 19.6875,31.8125 C16.6458333,37.0208333 15.0833333,43 15,49.75 C15,56.5833333 16.5208333,62.625 19.5625,67.875 C22.6041667,73.125 26.8333333,77.2708333 32.25,80.3125 C37.6666667,83.3541667 43.8333333,84.9166667 50.75,85 C57.4166667,85 63.3125,83.5 68.4375,80.5 C73.5625,77.5 77.6041667,73.3333333 80.5625,68 C83.5208333,62.6666667 85,56.5833333 85,49.75 C85.0833333,43.0833333 83.6458333,37.1458333 80.6875,31.9375 C77.7291667,26.7291667 73.6666667,22.625 68.5,19.625 C63.3333333,16.625 57.4166667,15.125 50.75,15.125 Z M33.125,37.25 C33.125,34.0833333 33.8958333,31.2916667 35.4375,28.875 C36.9791667,26.4583333 39.0416667,24.5625 41.625,23.1875 C44.2083333,21.8125 47.0416667,21.125 50.125,21.125 C53.2083333,21.125 56.0416667,21.8125 58.625,23.1875 C61.2083333,24.5625 63.2916667,26.4583333 64.875,28.875 C66.4583333,31.2916667 67.25,34.0833333 67.25,37.25 C67.25,40.5 66.4583333,43.3541667 64.875,45.8125 C63.2916667,48.2708333 61.2083333,50.1875 58.625,51.5625 C56.0416667,52.9375 53.2083333,53.625 50.125,53.625 C47.0416667,53.625 44.2083333,52.9375 41.625,51.5625 C39.0416667,50.1875 36.9791667,48.2708333 35.4375,45.8125 C33.8958333,43.3541667 33.125,40.5 33.125,37.25 Z M55.375,74.75 C55.375,76.1666667 54.9375,77.3958333 54.0625,78.4375 C53.1875,79.4791667 51.875,80 50.125,80 C48.5416667,80 47.2708333,79.5208333 46.3125,78.5625 C45.3541667,77.6041667 44.875,76.3333333 44.875,74.75 L44.875,72.125 C44.875,69.7916667 43.7916667,68.625 41.625,68.625 L32.75,68.625 C31,68.625 29.7083333,68.125 28.875,67.125 C28.0416667,66.125 27.625,65.0416667 27.625,63.875 C27.625,62.4583333 28.1041667,61.2916667 29.0625,60.375 C30.0208333,59.4583333 31.25,59 32.75,59 L67.375,59 C68.9583333,59 70.2291667,59.4583333 71.1875,60.375 C72.1458333,61.2916667 72.625,62.4583333 72.625,63.875 C72.625,65.0416667 72.1875,66.125 71.3125,67.125 C70.4375,68.125 69.125,68.625 67.375,68.625 L58.625,68.625 C56.4583333,68.625 55.375,69.8333333 55.375,72.25 L55.375,74.75 Z M43.625,37.25 C43.625,39.25 44.2708333,40.8125 45.5625,41.9375 C46.8541667,43.0625 48.375,43.625 50.125,43.625 C52.0416667,43.625 53.625,43.0625 54.875,41.9375 C56.125,40.8125 56.75,39.25 56.75,37.25 C56.75,35.3333333 56.125,33.8125 54.875,32.6875 C53.625,31.5625 52.0416667,31 50.125,31 C48.375,31 46.8541667,31.5625 45.5625,32.6875 C44.2708333,33.8125 43.625,35.3333333 43.625,37.25 Z" id="Shape" fill="#FFFFFF"></path>
        </g>
    </g>
</svg>