<?xml version="1.0" encoding="UTF-8"?>
<svg width="1024px" height="1024px" viewBox="0 0 1024 1024" version="1.1" xmlns="http://www.w3.org/2000/svg" xmlns:xlink="http://www.w3.org/1999/xlink">
    <title>eUNI</title>
    <g id="eUNI" stroke="none" stroke-width="1" fill="none" fill-rule="evenodd">
        <circle id="Oval-Copy" fill="#627EEA" fill-rule="nonzero" cx="512" cy="512" r="512"></circle>
        <circle id="Oval" fill="#FFFFFF" cx="512" cy="512" r="425"></circle>
        <g id="UNI" transform="translate(207.999691, 182.000000)" fill="#FF007A" fill-rule="nonzero">
            <path d="M303.401911,495.383289 C325.298028,500.991385 344.885787,513.556274 355.071421,528.523045 C365.02622,543.154309 369.296684,555.901394 373.742495,584.26627 C375.498179,595.455798 377.404795,606.691986 377.981885,609.236071 C381.322347,623.936213 387.821265,635.687884 395.873887,641.589271 C408.663084,650.959057 430.687937,651.543419 452.353218,643.082393 C456.031056,641.647041 459.222806,640.653848 459.446983,640.878261 C459.977114,641.405951 455.18349,644.905291 449.644476,648.308092 L449.048367,648.672168 C448.749095,648.853882 448.448153,649.035005 448.146244,649.215064 L447.541348,649.573624 C447.238465,649.752056 446.935085,649.92911 446.631912,650.104315 L446.02605,650.452118 L445.421993,650.794151 C444.116059,651.528366 442.831638,652.216041 441.626008,652.818794 C431.269466,657.998061 423.034839,660 412.092329,660 C392.249319,660 375.775626,649.894763 362.029792,629.291011 C359.753599,625.879677 355.089682,616.741219 350.852892,607.503317 L350.375231,606.457394 C349.741186,605.063071 349.119293,603.67132 348.519233,602.301496 C334.003206,569.16174 326.838414,559.067613 309.985174,548.018065 C295.320435,538.406092 276.407428,536.684113 262.177726,543.667569 C243.488896,552.841827 238.272892,576.749556 251.659155,591.902967 C256.979479,597.924338 266.900983,603.119158 275.013534,604.127905 C290.190995,606.018748 303.235443,594.460383 303.235443,579.120331 C303.235443,569.16174 299.411113,563.475878 289.782593,559.127604 C276.633824,553.188445 262.501784,560.129685 262.568371,572.496824 C262.597226,577.769412 264.892267,581.080054 270.170419,583.470827 C273.557492,585.006165 273.637397,585.126148 270.874025,584.552896 C258.810629,582.048806 255.985109,567.488644 265.684656,557.823345 C277.330771,546.220542 301.413171,551.339817 309.683311,567.177577 C313.156948,573.832191 313.56091,587.081427 310.531189,595.080296 C303.752604,612.988873 283.98506,622.405319 263.93341,617.281599 C250.280798,613.790982 244.72298,610.013739 228.262604,593.042806 C199.661148,563.549201 188.556609,557.834454 147.323545,551.388699 L139.421854,550.15554 L148.413357,542.556616 C178.612908,517.029116 216.19033,498.896126 250.418412,493.330247 C265.169714,490.930586 289.74264,491.881563 303.401911,495.383289 Z M448.983902,346.255499 C449.596505,346.255499 452.149017,347.635304 454.652699,349.323953 C459.635647,352.681256 469.628179,358.336012 496.251993,372.867289 C529.474607,390.998058 548.416469,405.038293 561.296668,421.080468 C572.578773,435.129592 579.55934,451.127328 582.917558,470.637901 C584.821954,481.689671 583.705508,508.283687 580.873329,519.411001 C571.941755,554.501592 551.18206,582.064359 521.570697,598.146529 C517.233645,600.501751 513.338289,602.437033 512.91657,602.44595 C512.49485,602.454808 514.077408,598.430933 516.430159,593.504963 C526.391616,572.661245 527.525819,552.386336 519.994798,529.818418 C515.382519,516.000373 505.982614,499.140536 486.998581,470.642345 C467.136261,440.824564 460.766854,430.701396 455.733795,420.458185 L455.400104,419.774909 C455.344774,419.660928 455.289576,419.546877 455.234493,419.43273 L454.905241,418.746474 C454.631791,418.173268 454.360381,417.596295 454.088927,417.012155 C443.277372,393.744336 440.793667,371.276403 446.717715,350.326034 C447.352514,348.088573 448.371299,346.255499 448.983902,346.255499 Z M0.000309400477,0 C1.1855513,0 187.065054,158.033239 206.293241,180.474508 L211.602467,186.67141 L211.138575,196.307824 C210.528192,209.019359 206.552931,217.464831 197.053146,226.228035 C186.099538,236.33105 172.777643,241.750284 151.85148,244.612101 C139.017892,246.367408 134.347904,248.304912 129.162974,254.024103 C124.188904,259.507772 122.288947,266.34236 120.91503,283.666576 C118.788676,310.482782 115.647976,321.821178 102.967538,348.426303 C90.7154783,374.129333 88.2295533,383.841292 90.3736643,397.608233 C92.9861053,414.388082 102.443718,426.588578 124.588428,441.74199 C141.490499,453.30702 149.159134,460.768187 153.36967,469.740251 C155.957696,475.252804 156.295071,477.259187 156.244021,486.842276 C156.168555,501.493536 153.815805,507.397145 143.796639,518.088966 C127.607051,535.359856 98.8213703,549.455639 63.3703023,557.467839 C48.5568513,560.816254 47.9042963,560.811811 47.9042963,557.383407 C47.9042963,553.075127 42.3997473,542.06113 32.8400343,527.238783 C21.7621303,510.063435 17.4295173,501.475761 13.2789103,488.470934 C8.5356763,473.61748 7.1972723,463.581122 7.8853403,448.04332 C8.5250153,433.59072 10.0880713,427.046703 15.6921113,415.762836 L16.1142573,414.918894 C16.7127243,413.730363 17.2865293,412.622943 17.8729963,411.544435 L18.1447083,411.048525 L18.3749323,410.6343 C18.4134843,410.565399 18.4521323,410.496558 18.4908873,410.427761 L18.7247843,410.015407 C18.8032323,409.87806 18.8821883,409.740781 18.9617333,409.603456 L19.2022193,409.191231 C22.8788333,402.933668 27.9422163,396.348588 41.9802483,378.824224 C73.3517353,339.656432 84.6715733,316.770781 88.6978843,284.375364 C92.2891583,255.475009 97.2654473,241.510318 108.392182,229.080965 C115.068666,221.628686 116.544684,218.7802 116.544684,213.363189 C116.544684,210.699121 62.7893603,91.874393 63.3703023,92.776709 C99.5405133,148.959871 129.968305,202.46072 133.850344,206.146866 C139.341575,211.361683 146.060606,217.067109 152.754848,217.067109 C158.674457,217.067109 170.498138,213.749801 176.24684,210.479152 C186.587845,204.593318 185.341435,195.023561 179.304188,186.67141 C175.742586,181.741859 127.44785,142.041019 84.6014653,97.756603 C39.5191603,51.161225 -0.127756697,0 0.000309400477,0 Z M35.9185863,446.707954 C35.9185863,448.527696 36.9240533,449.849731 39.1880213,451.016233 C42.9990333,452.9804 43.2764803,455.188976 40.2778333,459.701671 C37.2392333,464.272135 37.4833873,468.291567 40.9681213,471.022292 C46.5836483,475.423891 54.5341703,473.004233 58.6958753,465.623055 C63.0440243,457.915257 60.7334453,448.00777 53.4621143,443.168454 C46.5925273,438.593546 35.9185863,440.748797 35.9185863,446.707954 Z M410.776121,327.255964 L414.633744,331.590907 C419.971824,337.587836 424.189018,345.262306 427.764755,355.483082 C430.492614,363.284201 430.798916,365.603872 430.780599,378.279857 C430.758963,390.726985 430.417149,393.335505 427.89793,400.356734 C423.924889,411.4285 418.995211,419.280723 410.722851,427.708419 C395.856131,442.852944 376.743361,451.238424 349.16291,454.717932 C345.401241,455.190378 335.989432,455.91998 326.175476,456.520373 L325.019354,456.590388 C322.704665,456.729133 320.379107,456.859885 318.111041,456.977612 C287.152395,458.590717 266.776687,461.919135 248.467405,468.356002 C245.837207,469.282538 243.486676,469.84468 243.246962,469.604714 C242.674842,469.035423 249.969575,464.474978 258.061235,460.141196 L258.746776,459.775595 L259.435164,459.411638 C260.009742,459.109184 260.586298,458.809032 261.162361,458.512655 L261.853242,458.15891 C263.003791,457.572669 264.14842,457.003888 265.267375,456.464351 C279.64044,449.533132 293.948242,445.718189 325.652595,440.405866 L327.170466,440.152261 L328.827147,439.873297 C329.011254,439.84211 329.195352,439.810863 329.379421,439.77956 L330.483336,439.5911 L331.585628,439.401478 C332.319741,439.274716 333.052147,439.147303 333.781598,439.019481 L334.873404,438.827473 C347.944729,436.520443 359.856521,434.120846 363.328244,433.05433 C402.938798,420.89605 423.301188,389.522711 416.784513,350.688205 C415.763508,344.613509 413.994506,336.856828 412.853644,333.450644 L410.776121,327.255964 Z M364.411397,214.894083 C364.70882,214.894083 367.856179,217.227087 371.407501,220.080016 C387.910048,233.329253 406.390238,238.988452 457.549246,246.460728 C487.653355,250.857884 504.595379,254.408493 520.221194,259.596648 C569.893086,276.087648 600.625336,309.551803 607.952156,355.134243 C610.082949,368.379035 608.835547,393.217744 605.381887,406.307003 C604.444949,409.860875 602.847079,414.39537 601.063766,418.845431 L600.737589,419.653366 C597.402839,427.853086 593.532912,435.543746 592.131018,435.998358 C591.520635,436.196108 590.91913,433.849773 590.763759,430.656891 C589.926979,413.541535 581.28617,396.877226 566.776801,384.394547 C550.278693,370.203222 528.111787,358.90482 473.916399,337.061244 C392.535645,304.259218 363.87204,275.787691 363.87204,227.74782 C363.87204,220.679931 364.116193,214.894083 364.411397,214.894083 Z M250.036645,252.062158 C261.800398,258.0502 270.341326,271.690492 268.48798,281.533544 C266.228452,293.538513 246.780527,303.14382 224.40942,303.299354 C212.983043,303.381564 208.763629,301.844004 204.399942,296.009274 C201.698718,292.398674 200.675494,280.704773 202.480009,274.036827 C205.436484,263.109484 214.9851,252.686514 224.808944,249.666942 C231.054831,247.747213 243.966104,248.973706 250.036645,252.062158 Z M218.962581,265.729114 C218.962581,270.988369 227.774297,276.727558 235.851335,276.727558 C241.227148,276.727558 248.582823,273.519123 250.959988,270.137379 C254.40921,265.231406 252.899898,259.927712 247.031339,256.341553 C235.857993,249.511408 218.962581,255.16172 218.962581,265.729114 Z M223.230825,46.666772 C252.618012,53.659117 279.357244,71.572138 307.900992,103.385415 L315.483063,111.837552 L326.330131,110.091133 C372.031202,102.73884 418.522441,108.582457 457.407193,126.564358 C460.531907,128.009896 464.183222,129.873555 467.839305,131.850768 L468.682863,132.308925 L469.945401,133.001901 C478.062317,137.48491 485.70357,142.241541 487.076266,143.890795 C487.748797,144.697348 488.980662,149.887725 489.815223,155.426941 C492.70511,174.593118 491.257947,189.284373 485.402705,200.256154 C482.215394,206.226421 482.037828,208.119486 484.179719,213.229874 C485.891012,217.307075 490.658661,220.324426 495.3797,220.31776 C505.043734,220.306651 515.444667,204.668863 520.263366,182.909719 L522.176641,174.26872 L525.969896,178.568111 C546.771763,202.160329 563.107842,234.333555 565.915606,257.23476 L566.645846,263.205026 L563.150014,257.776905 C557.132744,248.436005 551.086619,242.076904 543.344737,236.948741 C529.388043,227.705604 514.632302,224.559383 475.550007,222.497452 C440.25431,220.635493 420.278125,217.618142 400.470629,211.15239 C366.768587,200.151725 349.777732,185.502686 309.745459,132.923458 C291.964436,109.571206 280.973095,96.64859 270.041683,86.243396 C245.200189,62.600074 220.791511,50.199606 189.54432,45.349181 C180.965659,44.016036 180.603868,43.860503 184.641277,43.238369 C192.376499,42.047426 210.64361,43.671641 223.230825,46.666772 Z M505.820585,55.309994 C505.956226,55.309994 505.789758,56.159668 505.419372,57.492127 L505.302237,57.905981 C505.015105,58.903724 504.632865,60.120054 504.189197,61.429128 C501.090669,70.576723 500.582386,83.090508 502.717618,97.648449 C505.42772,116.119169 506.968106,118.785458 526.47152,138.738191 C528.300895,140.609926 530.190021,142.579514 532.072683,144.57349 L532.940904,145.49525 C533.213633,145.785489 533.486012,146.076002 533.757837,146.366567 L534.571452,147.23819 C541.199113,154.354026 547.373216,161.365675 550.116664,164.970035 L557.128304,174.184287 L550.116664,167.598552 C547.287531,164.943041 543.246086,161.455033 538.943358,157.891942 L538.107565,157.201578 C537.82805,156.971279 537.547703,156.740872 537.266779,156.510558 L536.422532,155.820105 C535.764177,155.282993 535.104069,154.747506 534.445462,154.216237 L533.656063,153.580903 C526.561712,147.88411 519.794447,142.800207 517.455603,141.595564 C514.534641,140.089111 514.101823,140.115774 512.299528,141.911075 C510.639285,143.566397 510.288592,146.05049 510.057756,157.804382 C509.698184,176.121791 507.205601,187.880127 501.18611,199.636242 C497.929992,205.99312 497.41727,204.637757 500.362648,197.460994 C500.94149,196.050667 501.38353,194.848375 501.720359,193.519123 L501.799194,193.197493 C502.618901,189.737115 502.765662,185.269055 502.769495,174.173031 L502.769452,173.11319 C502.769309,172.753322 502.769042,172.386811 502.768668,172.013483 C502.735375,136.382969 498.511521,127.817514 473.729955,113.146256 C467.452994,109.429004 457.10977,104.06754 450.746245,101.232386 C444.382721,98.39501 439.326527,95.92647 439.510752,95.742052 C439.908037,95.345608 447.833978,97.439253 456.399794,100.010067 L457.192101,100.24867 C457.324388,100.288643 457.456777,100.328715 457.589241,100.368878 L458.384743,100.610886 L459.298311,100.890836 L460.210882,101.172665 C465.527767,102.821117 470.7009,104.538363 474.105063,105.849511 C479.941897,108.096874 483.812591,109.555075 486.468992,110.451013 L486.900612,110.595168 C489.214096,111.359819 490.542336,111.662606 491.464446,111.678299 L491.621299,111.678159 C492.05469,111.669705 492.397091,111.593596 492.718428,111.470938 C493.897023,111.01989 494.465234,107.584821 495.037885,97.490693 C495.925715,81.841796 498.04541,71.521034 502.309216,62.093479 C503.996094,58.362896 505.576432,55.309994 505.820585,55.309994 Z M181.072198,61.626878 L185.036361,62.35122 C192.480819,63.708806 205.314408,68.492574 211.32502,72.14539 C227.816469,82.17286 234.956845,95.373215 242.221518,129.272863 C242.404824,130.128681 242.593079,130.994224 242.78489,131.863894 L243.016682,132.909119 C243.133342,133.432363 243.251082,133.956286 243.369601,134.479679 L243.607589,135.525398 C245.438763,143.531657 247.405988,151.223551 248.425233,154.240442 C250.493878,160.36402 258.306785,174.666441 264.659212,183.954016 C269.235977,190.644181 266.197378,193.814843 256.08055,192.899417 C240.632301,191.504059 219.706139,177.046105 206.206677,158.44207 C188.791884,134.443243 178.018062,97.646227 180.350836,70.139007 L181.072198,61.626878 Z" id="UNI-Copy"></path>
        </g>
    </g>
</svg>