<?xml version="1.0" encoding="UTF-8"?>
<svg width="1024px" height="1024px" viewBox="0 0 1024 1024" version="1.1" xmlns="http://www.w3.org/2000/svg" xmlns:xlink="http://www.w3.org/1999/xlink">
    <title>eDECI</title>
    <g id="PRC20s" stroke="none" stroke-width="1" fill="none" fill-rule="evenodd">
        <g id="eDECI" fill-rule="nonzero">
            <circle id="Oval-Copy-2" fill="#627EEA" cx="512" cy="512" r="512"></circle>
            <circle id="Oval-Copy-2" fill="#000000" cx="512" cy="511" r="425"></circle>
            <g id="Group" transform="translate(269.000000, 230.000000)">
                <path d="M254.179472,2.12924316 L473.202981,88.7089023 C480.926782,91.7621089 486,99.2163794 486,107.512044 L486,311.1609 L486,311.1609 C486,371.828813 450.5625,452.719364 374.625,498.220299 C346.454966,515.099481 305.933635,538.483781 253.061006,568.3732 C246.835671,571.904092 239.206148,571.872025 233.006012,568.297219 L111.375,498.220299 L111.375,498.220299 C20.25,442.608045 0,361.717494 0,311.1609 C0,243.277948 0,175.394996 0,107.512044 C0,99.2163794 5.07321821,91.7621089 12.7970189,88.7089023 L231.820528,2.12924316 C239.00242,-0.709747719 246.99758,-0.709747719 254.179472,2.12924316 Z" id="Path-2" fill="#FFFFFF"></path>
                <path d="M243,0 L243.003822,570.999756 C239.550017,570.982821 236.100037,570.081137 233.006012,568.297219 L111.375,498.220299 C20.25,442.608045 0,361.717494 0,311.1609 L0,107.512044 C0,99.2163794 5.07321821,91.7621089 12.7970189,88.7089023 L231.820528,2.12924316 C235.411474,0.709747719 239.205737,0 243,0 Z" id="Combined-Shape" fill="#FF0000"></path>
            </g>
        </g>
    </g>
</svg>