<?xml version="1.0" encoding="UTF-8"?>
<svg width="1024px" height="1024px" viewBox="0 0 1024 1024" version="1.1" xmlns="http://www.w3.org/2000/svg" xmlns:xlink="http://www.w3.org/1999/xlink">
    <title>eDAI</title>
    <defs>
        <linearGradient x1="50%" y1="-14.1666667%" x2="50%" y2="110.5%" id="linearGradient-1">
            <stop stop-color="#F9A606" offset="0%"></stop>
            <stop stop-color="#FBCC5F" offset="100%"></stop>
        </linearGradient>
    </defs>
    <g id="Page-1" stroke="none" stroke-width="1" fill="none" fill-rule="evenodd">
        <g id="eDAI" fill-rule="nonzero">
            <circle id="Oval" fill="#627EEA" cx="512" cy="512" r="512"></circle>
            <path d="M512,87 C746.742597,87 937,277.295653 937,512 C937,746.742597 746.742597,937 512,937 C277.295653,937 87,746.723472 87,512 C87,277.295653 277.295653,87 512,87 Z" id="Path" fill="url(#linearGradient-1)"></path>
            <path d="M527.663532,542.007425 L689.156647,542.007425 C692.599181,542.007425 694.224822,542.007425 694.47345,537.49388 C695.793088,521.065341 695.793088,504.541175 694.47345,488.093511 C694.47345,484.899604 692.886059,483.579966 689.424399,483.579966 L368.02556,483.579966 C364.04752,483.579966 362.97651,484.899604 362.97651,488.629016 L362.97651,535.906489 C362.97651,542.007425 362.97651,542.007425 369.345198,542.007425 L527.663532,542.007425 L527.663532,542.007425 Z M676.438394,428.327288 C676.897399,427.122401 676.897399,425.802763 676.438394,424.617001 C673.741742,418.745567 670.547835,413.141886 666.837548,407.882459 C661.252993,398.893619 654.673927,390.612411 647.176852,383.172712 C643.638691,378.678292 639.5459,374.642876 634.955855,371.219467 C611.967375,351.654397 584.637476,337.807758 555.261183,330.846188 C540.439159,327.518405 525.292008,325.931014 510.106606,326.064891 L367.47093,326.064891 C363.49289,326.064891 362.957385,327.652282 362.957385,331.113941 L362.957385,425.401134 C362.957385,429.379174 362.957385,430.450185 368.006435,430.450185 L674.525875,430.450185 C674.525875,430.450185 677.184277,429.914679 677.719782,428.327288 L676.419269,428.327288 L676.438394,428.327288 Z M676.438394,597.260103 C671.924849,596.762848 667.373054,596.762848 662.859509,597.260103 L368.293313,597.260103 C364.315273,597.260103 362.97651,597.260103 362.97651,602.576906 L362.97651,694.760328 C362.97651,699.00612 362.97651,700.077131 368.293313,700.077131 L504.292548,700.077131 C510.795113,700.574386 517.297678,700.115381 523.666367,698.757493 C543.403564,697.342228 562.815633,693.058186 581.328818,686.00099 C588.060886,683.667717 594.563451,680.626811 600.702637,676.9739 L602.557781,676.9739 C634.439474,660.392359 660.334983,634.343848 676.667897,602.366529 C676.667897,602.366529 678.52304,598.350239 676.438394,597.298353 L676.438394,597.260103 Z M309.598101,747.870984 L309.598101,746.283593 L309.598101,684.394474 L309.598101,663.414139 L309.598101,600.989515 C309.598101,597.527855 309.598101,597.011475 305.352309,597.011475 L247.708982,597.011475 C244.515075,597.011475 243.195437,597.011475 243.195437,592.765683 L243.195437,542.294303 L304.816803,542.294303 C308.259338,542.294303 309.598101,542.294303 309.598101,537.780758 L309.598101,487.844883 C309.598101,484.650977 309.598101,483.866844 305.352309,483.866844 L247.708982,483.866844 C244.515075,483.866844 243.195437,483.866844 243.195437,479.621051 L243.195437,432.879084 C243.195437,429.95293 243.195437,429.168797 247.441229,429.168797 L304.54905,429.168797 C308.52709,429.168797 309.598101,429.168797 309.598101,424.119746 L309.598101,280.948564 C309.598101,276.702772 309.598101,275.631761 314.914904,275.631761 L514.122896,275.631761 C528.581541,276.205517 542.944559,277.792908 557.154577,280.413059 C586.435244,285.825488 614.568401,296.286968 640.291783,311.223742 C657.351454,321.264468 673.053236,333.389839 687.03375,347.351229 C697.552606,358.271713 707.0387,370.091081 715.453785,382.675457 C723.811493,395.431959 730.753938,409.068221 736.204617,423.316488 C736.873999,427.026775 740.431284,429.532175 744.141571,428.901044 L791.686797,428.901044 C797.787733,428.901044 797.787733,428.901044 798.055486,434.753353 L798.055486,478.320538 C798.055486,482.566331 796.468095,483.637341 792.203177,483.637341 L755.540185,483.637341 C751.829898,483.637341 750.758888,483.637341 751.02664,488.418639 C752.480155,504.598551 752.480155,520.835838 751.02664,537.01575 C751.02664,541.529295 751.02664,542.064801 756.094816,542.064801 L798.03636,542.064801 C799.891504,544.45545 798.03636,546.846098 798.03636,549.255873 C798.304113,552.335028 798.304113,555.452435 798.03636,558.53159 L798.03636,590.681037 C798.03636,595.194582 796.716722,596.533345 792.719557,596.533345 L742.51593,596.533345 C739.01602,595.863964 735.611736,598.101611 734.808478,601.582396 C722.855234,632.660832 703.730042,660.526235 679.020295,682.864459 C669.993205,690.992665 660.50711,698.642741 650.600261,705.699937 C639.966655,711.819998 629.619926,718.188687 618.718567,723.237737 C598.656242,732.264828 577.618531,738.920394 556.02619,743.147061 C535.523985,746.819098 514.734902,748.48299 493.869319,748.196112 L309.5216,748.196112 L309.5216,747.928359 L309.598101,747.870984 Z" id="Shape" fill="#FEFEFD"></path>
        </g>
    </g>
</svg>