<?xml version="1.0" encoding="UTF-8"?>
<svg width="1000px" height="1000px" viewBox="0 0 1000 1000" version="1.1" xmlns="http://www.w3.org/2000/svg" xmlns:xlink="http://www.w3.org/1999/xlink">
    <title>Artboard</title>
    <g id="Artboard" stroke="none" stroke-width="1" fill="none" fill-rule="evenodd">
        <circle id="Oval" fill="#009393" fill-rule="nonzero" cx="500" cy="500" r="500"></circle>
        <path d="M500.6125,535.7375 C586.6,535.7375 658.4625,521.2 676.025,501.775 C661.1125,485.3 607.175,472.325 538.675,468.775 L538.675,509.8125 C526.4125,510.45 513.6625,510.7625 500.6,510.7625 C487.5375,510.7625 474.7875,510.45 462.5,509.8125 L462.5,468.775 C394.025,472.325 340.0625,485.3 325.15,501.775 C342.7375,521.2 414.6125,535.7375 500.6,535.7375 L500.6125,535.7375 Z M653.3875,342.575 L653.3875,399.0875 L538.675,399.0875 L538.675,438.275 C619.25,442.4625 679.7125,459.6875 680.1625,480.3 L680.1625,523.275 C679.7125,543.8875 619.25,561.075 538.675,565.275 L538.675,661.45 L462.5125,661.45 L462.5125,565.275 C381.9375,561.0875 321.5,543.8875 321.05,523.275 L321.05,480.3 C321.5,459.6875 381.9375,442.4625 462.5125,438.275 L462.5125,399.0875 L347.8,399.0875 L347.8,342.575 L653.4,342.575 L653.3875,342.575 Z M302.6875,252.6375 L705.3875,252.6375 C715.0125,252.6375 723.875,257.7 728.675,265.925 L845.9875,467.375 C852.0625,477.825 850.2625,491.0125 841.5875,499.475 L518.6625,814.7 C508.1875,824.9125 491.3625,824.9125 480.9125,814.7 L158.3875,499.9 C149.525,491.225 147.85,477.6625 154.3875,467.1625 L279.8,265.3 C284.6875,257.45 293.3625,252.65 302.7,252.65 L302.6875,252.6375 Z" id="Shape" fill="#FFFFFF"></path>
    </g>
</svg>