<?xml version="1.0" encoding="UTF-8"?>
<svg width="1045px" height="1045px" viewBox="0 0 1045 1045" version="1.1" xmlns="http://www.w3.org/2000/svg" xmlns:xlink="http://www.w3.org/1999/xlink">
    <title>ICSA</title>
    <defs>
        <linearGradient x1="30.3462345%" y1="88.3921021%" x2="69.6518016%" y2="11.607868%" id="linearGradient-1">
            <stop stop-color="#56BEF0" offset="0%"></stop>
            <stop stop-color="#5A9CFA" offset="33%"></stop>
            <stop stop-color="#6D5AFA" offset="67%"></stop>
            <stop stop-color="#9256F0" offset="100%"></stop>
        </linearGradient>
    </defs>
    <g id="Pooled-Stake-logos" stroke="none" stroke-width="1" fill="none" fill-rule="evenodd">
        <g id="ICSA" fill-rule="nonzero">
            <g id="g20" fill="#FFFFFF">
                <path d="M387.11134,17.9113404 C665.63134,-56.6986596 951.89134,108.59134 1026.51134,387.11134 C1101.12134,665.63134 935.83134,951.89134 657.31134,1026.51134 C378.80134,1101.12134 92.5313404,935.83134 17.9113404,657.31134 C-56.6986596,378.80134 108.59134,92.5313404 387.11134,17.9113404 Z" id="path16"></path>
            </g>
            <g id="g24" transform="translate(121.901340, 70.701610)" fill="url(#linearGradient-1)">
                <path d="M419.44,858.72973 L419.44,677.72973 L732.94,677.72973 L419.44,858.72973 Z M67.6,677.72973 L381.46,677.72973 L381.46,858.93973 L67.6,677.72973 Z M217.77,287.71973 L63.31,227.64973 L350.62,61.7697303 L217.77,287.71973 L217.77,287.71973 Z M578.4,288.68973 L442.43,57.4497303 L737.1,227.58973 L578.4,288.69973 L578.4,288.68973 Z M571.72,352.25973 L740.75,639.74973 L430.89,639.74973 L571.72,352.25973 Z M369.82,639.74973 L54.83,639.74973 L225.57,349.35973 L369.8,639.74973 L369.82,639.74973 Z M258.61,293.20973 L397.8,56.4697303 L536.99,293.20973 L258.6,293.20973 L258.61,293.20973 Z M400.34,615.80973 L258.98,331.18973 L539.75,331.18973 L400.34,615.80973 Z M762.58,260.29973 L762.58,601.89973 L597.93,321.87973 L762.52,258.49973 C762.55,259.09973 762.58,259.69973 762.58,260.29973 L762.58,260.29973 Z M38,260.29973 C38,259.71973 38.03,259.14973 38.06,258.56973 L198.3,320.88973 L38,593.50973 L38,260.29973 Z M4.13,665.97973 C9.6,681.14973 20.28,694.23973 34.62,702.52973 L365.71,893.67973 C376.38,899.83973 388.34,902.91973 400.3,902.91973 C412.26,902.91973 424.22,899.83973 434.89,893.67973 L765.98,702.52973 C787.32,690.20973 800.57,667.24973 800.57,642.60973 L800.57,260.30973 C800.57,247.51973 796.99,235.17973 790.57,224.54973 C790.25,223.96973 789.9,223.40973 789.53,222.87973 C783.66,213.75973 775.66,205.97973 765.99,200.39973 L434.87,9.23973028 C423.5,2.66973028 410.66,-0.390269718 397.92,0.0397302823 C397.88,0.0397302823 397.85,0.0397302823 397.81,0.0397302823 C397.2,0.0397302823 396.6,0.0797302823 396,0.139730282 C385.48,0.789730282 375.08,3.81973028 365.69,9.23973028 L34.59,200.38973 C24.92,205.96973 16.92,213.74973 11.05,222.86973 C10.67,223.41973 10.31,223.98973 9.98,224.58973 C3.57,235.20973 4.26325641e-14,247.52973 4.26325641e-14,260.30973 L4.26325641e-14,642.60973 C4.26325641e-14,649.91973 1.17,657.07973 3.37,663.85973 C3.57,664.57973 3.81,665.28973 4.1,665.97973" id="path22"></path>
            </g>
        </g>
    </g>
</svg>