<svg width="40" height="40" viewBox="0 0 40 40" fill="none" xmlns="http://www.w3.org/2000/svg">
<g clip-path="url(#clip0_64_1386)">
<path fill-rule="evenodd" clip-rule="evenodd" d="M20 40C31.0457 40 40 31.0457 40 20C40 8.95432 31.0457 0 20 0C8.95432 0 0 8.95432 0 20C0 31.0457 8.95432 40 20 40ZM20 36.8C29.2784 36.8 36.8 29.2784 36.8 20C36.8 10.7216 29.2784 3.2 20 3.2C10.7216 3.2 3.2 10.7216 3.2 20C3.2 29.2784 10.7216 36.8 20 36.8Z" fill="url(#paint0_linear_64_1386)"/>
<path fill-rule="evenodd" clip-rule="evenodd" d="M13.4182 10.0062C13.7031 9.50765 14.2332 9.20001 14.8074 9.20001H25.1937C25.7679 9.20001 26.298 9.50765 26.5829 10.0062L31.7903 19.1191C32.0714 19.611 32.0714 20.2149 31.7903 20.7068L26.5829 29.8197C26.298 30.3182 25.7679 30.6259 25.1937 30.6259H14.8074C14.2332 30.6259 13.7031 30.3182 13.4182 29.8197L8.21079 20.7068C7.92971 20.2149 7.92971 19.611 8.21079 19.1191L13.4182 10.0062ZM22.1795 21.7632L24.8547 26.3352H21.8238C21.6249 26.3352 21.4412 26.2309 21.3422 26.0617L20.4992 24.6223L22.1795 21.7632ZM17.4259 14.1885C17.6248 14.1885 17.8086 14.2929 17.9076 14.4622L19.6475 17.4358L17.966 20.2967L14.389 14.1885H17.4259ZM26.6323 12.771L18.5234 26.511C18.3248 26.8476 17.9584 27.0549 17.562 27.0549H14.8334L22.9217 13.3159C23.1202 12.9787 23.4868 12.771 23.8836 12.771H26.6323Z" fill="url(#paint1_linear_64_1386)"/>
<path d="M39.875 20C39.875 9.02334 30.9767 0.125 20 0.125C9.02334 0.125 0.125 9.02334 0.125 20C0.125 30.9767 9.02334 39.875 20 39.875C30.9767 39.875 39.875 30.9767 39.875 20Z" stroke="black" stroke-opacity="0.1" stroke-width="0.25"/>
<g style="mix-blend-mode:soft-light" opacity="0.25">
<path d="M40 20C40 8.9543 31.0457 0 20 0C8.9543 0 0 8.9543 0 20C0 31.0457 8.9543 40 20 40C31.0457 40 40 31.0457 40 20Z" fill="url(#paint2_linear_64_1386)"/>
</g>
</g>
<defs>
<linearGradient id="paint0_linear_64_1386" x1="33.1443" y1="-1.21321e-06" x2="12.6082" y2="42.8272" gradientUnits="userSpaceOnUse">
<stop stop-color="#00FF99"/>
<stop offset="1" stop-color="#00FF55"/>
</linearGradient>
<linearGradient id="paint1_linear_64_1386" x1="27.8874" y1="9.20001" x2="17.6802" y2="33.0456" gradientUnits="userSpaceOnUse">
<stop stop-color="#00FF99"/>
<stop offset="1" stop-color="#00FF55"/>
</linearGradient>
<linearGradient id="paint2_linear_64_1386" x1="20" y1="0" x2="20" y2="40" gradientUnits="userSpaceOnUse">
<stop stop-color="white"/>
<stop offset="0.0666667" stop-color="#FDFDFD"/>
<stop offset="0.133333" stop-color="#F6F6F6"/>
<stop offset="0.2" stop-color="#EAEAEA"/>
<stop offset="0.266667" stop-color="#D9D9D9"/>
<stop offset="0.333333" stop-color="#C4C4C4"/>
<stop offset="0.4" stop-color="#AAAAAA"/>
<stop offset="0.466667" stop-color="#8E8E8E"/>
<stop offset="0.533333" stop-color="#717171"/>
<stop offset="0.6" stop-color="#555555"/>
<stop offset="0.666667" stop-color="#3B3B3B"/>
<stop offset="0.733333" stop-color="#262626"/>
<stop offset="0.8" stop-color="#151515"/>
<stop offset="0.866667" stop-color="#090909"/>
<stop offset="0.933333" stop-color="#020202"/>
<stop offset="1"/>
</linearGradient>
<clipPath id="clip0_64_1386">
<rect width="40" height="40" fill="white"/>
</clipPath>
</defs>
</svg>
