<svg width="100" height="100" viewBox="0 0 100 100" fill="none" xmlns="http://www.w3.org/2000/svg">
<circle cx="50" cy="50" r="50" fill="black"/>
<path fill-rule="evenodd" clip-rule="evenodd" d="M50 100C77.6142 100 100 77.6142 100 50C100 22.3858 77.6142 0 50 0C22.3858 0 0 22.3858 0 50C0 77.6142 22.3858 100 50 100ZM50 92C73.196 92 92 73.196 92 50C92 26.804 73.196 8 50 8C26.804 8 8 26.804 8 50C8 73.196 26.804 92 50 92Z" fill="url(#paint0_linear_3327_1042)"/>
<path fill-rule="evenodd" clip-rule="evenodd" d="M33.5455 25.0154C34.2577 23.7691 35.583 23 37.0185 23H62.9842C64.4197 23 65.745 23.7691 66.4572 25.0154L79.4757 47.7978C80.1784 49.0275 80.1784 50.5371 79.4757 51.7669L66.4572 74.5492C65.745 75.7955 64.4197 76.5646 62.9842 76.5646H37.0185C35.583 76.5646 34.2577 75.7955 33.5455 74.5492L20.527 51.7669C19.8243 50.5371 19.8243 49.0275 20.527 47.7978L33.5455 25.0154ZM55.4488 54.408L62.1367 65.838H54.5594C54.0623 65.838 53.6031 65.5773 53.3554 65.1543L51.248 61.5557L55.4488 54.408ZM43.5647 35.4712C44.062 35.4712 44.5214 35.7321 44.769 36.1554L49.1188 43.5894L44.9151 50.7417L35.9724 35.4712H43.5647ZM66.5808 31.9274L46.3086 66.2775C45.8119 67.119 44.8961 67.6372 43.9051 67.6372H37.0834L57.3042 33.2897C57.8004 32.4467 58.7171 31.9274 59.7091 31.9274H66.5808Z" fill="url(#paint1_linear_3327_1042)"/>
<defs>
<linearGradient id="paint0_linear_3327_1042" x1="82.8607" y1="-4.72915e-07" x2="31.5206" y2="107.068" gradientUnits="userSpaceOnUse">
<stop stop-color="#00FF99"/>
<stop offset="1" stop-color="#00FF55"/>
</linearGradient>
<linearGradient id="paint1_linear_3327_1042" x1="69.7186" y1="23" x2="44.2004" y2="82.6139" gradientUnits="userSpaceOnUse">
<stop stop-color="#00FF99"/>
<stop offset="1" stop-color="#00FF55"/>
</linearGradient>
</defs>
</svg>
