<?xml version="1.0" encoding="UTF-8"?>
<svg width="2039px" height="2039px" viewBox="0 0 2039 2039" version="1.1" xmlns="http://www.w3.org/2000/svg" xmlns:xlink="http://www.w3.org/1999/xlink">
    <title>COWTIP</title>
    <defs>
        <linearGradient x1="19.0000195%" y1="10.8861284%" x2="76.6432347%" y2="92.1874639%" id="linearGradient-1">
            <stop stop-color="#FEE67A" offset="0%"></stop>
            <stop stop-color="#FEF9D0" offset="18.7575325%"></stop>
            <stop stop-color="#CA981D" offset="64.0830699%"></stop>
            <stop stop-color="#F5E29C" offset="100%"></stop>
        </linearGradient>
        <linearGradient x1="86.9358457%" y1="-8.67361738e-17%" x2="20.2515027%" y2="95.6728765%" id="linearGradient-2">
            <stop stop-color="#00EAFF" offset="0%"></stop>
            <stop stop-color="#0080FF" offset="25.2530882%"></stop>
            <stop stop-color="#8000FF" offset="49.7394282%"></stop>
            <stop stop-color="#E619E6" offset="74.9912298%"></stop>
            <stop stop-color="#FF0000" offset="99.9136118%"></stop>
        </linearGradient>
    </defs>
    <g id="Page-1" stroke="none" stroke-width="1" fill="none" fill-rule="evenodd">
        <g id="COWTIP">
            <circle id="Oval" fill="url(#linearGradient-1)" cx="1019.5" cy="1019.5" r="1019.5"></circle>
            <path d="M1572.53355,284.028719 C1610.1143,362.73559 1608.98655,440.286258 1576.84316,515.287507 C1550.38858,577.014845 1516.69462,628.498977 1473.72427,663.442113 C1484.11303,678.613484 1493.73093,694.243822 1502.53597,710.311416 C1515.83488,664.892029 1562.76221,616.201234 1628.7079,585.450257 C1722.80941,541.57 1820.00176,550.835368 1845.79308,606.145034 C1871.5844,661.454701 1816.20805,741.864021 1722.10653,785.744278 C1654.27212,817.375984 1584.83157,821.390822 1541.68906,800.448903 C1559.17382,853.672644 1568.5,910.558195 1568.5,970.5 C1568.5,1038.95988 1555.98069,1104.49572 1533.1066,1164.943 L1533.11767,1164.93836 C1570.81751,1207.92391 1592,1256.31968 1592,1307.5 C1592,1393.73491 1531.86363,1472.06457 1433.90628,1529.92928 C1429.1568,1755.00255 1245.21551,1936 1019,1936 C792.78449,1936 608.843198,1755.00255 604.094083,1529.92562 C506.136366,1472.06457 446,1393.73491 446,1307.5 C446,1256.32008 467.182158,1207.92466 504.881452,1164.93936 L504.893482,1164.9432 C482.019338,1104.49587 469.5,1038.95996 469.5,970.5 C469.5,911.120755 478.652829,854.472451 495.819813,801.420038 C452.372601,822.00832 382.614292,816.9077 314.967202,783.91401 C221.645836,738.398138 167.681253,657.034614 194.433933,602.183492 C221.186612,547.33237 318.525859,539.764654 411.847225,585.280526 C476.122375,616.629611 521.727556,664.984014 535.149149,709.968974 C544.120311,693.49059 553.944219,677.489891 564.572024,661.999709 C521.853473,627.09204 488.339435,576.755948 461.995817,515.287507 C429.852424,440.286258 428.724671,362.73559 466.30543,284.028719 C473.489146,268.983576 503.345451,270.371271 508.568669,286.20415 C528.923486,347.904689 555.515493,396.788824 596.317071,433.196386 C634.350284,467.133714 682.503754,488.181757 741.244736,496.282738 L741.236611,496.269266 C822.738014,448.42968 917.665734,421 1019,421 C1120.39982,421 1215.3848,448.465178 1296.92153,496.36213 L1296.91326,496.376008 C1355.96317,488.344124 1404.34182,467.264768 1442.5219,433.196386 C1483.32348,396.788824 1510.91549,347.904689 1531.27031,286.20415 C1536.49352,270.371271 1565.34983,268.983576 1572.53355,284.028719 Z" id="Outer" fill="#000000"></path>
            <path d="M1395.87123,1550.43041 C1380.85396,1745.43985 1217.85993,1899 1019,1899 C820.140073,1899 657.146042,1745.43985 642.128079,1550.43398 C742.868635,1599.9811 874.705684,1630 1019,1630 C1161.40662,1630 1291.67979,1600.7614 1391.90226,1552.36849 L1395.87123,1550.43041 Z M1019,1022 C1317.73977,1022 1555,1155.53652 1555,1307.5 C1555,1374.22528 1509.25672,1437.39788 1432.64904,1487.2699 C1382,1521 1236.84251,1594 1019,1594 C801.157495,1594 652,1519 605.349084,1487.27318 C528.743276,1437.39788 483,1374.22528 483,1307.5 C483,1155.53652 720.260232,1022 1019,1022 Z M1096.51549,463.823968 C1342.77953,501.186683 1531.5,713.804327 1531.5,970.5 L1531.5,972.591009 C1531.30151,1021.31808 1523.47036,1079.54421 1504.69623,1134.15933 L1504.126,1135.804 L1501.07066,1133.10398 C1399.10645,1044.00236 1221.29565,985 1019,985 C817.206709,985 639.776809,1043.70968 537.690369,1132.43607 L534.627,1135.126 L534.244417,1134.20336 C521.407304,1102.78991 506.5,1021.55307 506.5,970.5 C506.5,843.331169 552.817304,726.980324 629.50613,637.39944 C657.602331,676.343492 688.100288,700.877012 721,711 C773,727 832,706 854,674 C876,642 891,617 917,595 C926.787472,586.718293 945.700829,575.96641 967.061435,564.573774 L972.64989,561.606952 L979.954561,557.761678 L1005.13708,544.59652 C1028.29458,532.446466 1049.89559,520.755673 1062.11234,511.668342 L1063,511 C1080.5412,497.626044 1091.70833,481.917827 1096.50139,463.875348 L1096.51549,463.823968 Z M437.402014,650.14049 C491.21006,675.231594 522.909704,721.135325 508.20515,752.669343 C493.500596,784.203361 437.960159,789.426375 384.152113,764.335271 C330.344066,739.244167 298.644422,693.340435 313.348976,661.806417 C328.05353,630.272399 383.593967,625.049385 437.402014,650.14049 Z M1725.85558,663.683525 C1740.00755,695.46937 1707.51161,740.812875 1653.27385,764.961078 C1599.0361,789.109281 1543.59528,782.917748 1529.44331,751.131903 C1515.29134,719.346058 1547.78728,674.002553 1602.02504,649.85435 C1656.26279,625.706147 1711.70361,631.89768 1725.85558,663.683525 Z M1554,336 C1573,407 1554.3747,473.196656 1543.66139,498.762094 L1542.83479,500.712493 C1518.93004,556.490236 1488.22975,599.687987 1450.76982,630.594774 L1450.77885,630.584609 C1419.76498,591.243334 1383.48959,556.243232 1343.01397,526.645608 L1341.48444,525.530677 L1342.93135,525.170743 C1391.17936,513.027207 1432.66418,491.580969 1467.15605,460.803614 L1472.2533,456.272757 C1490.83164,439.679308 1523.06,408.8 1554,336 Z M485,335 C503,383 536.825462,429.700028 571.682929,460.803614 C606.027697,491.449715 647.305912,512.844118 695.290713,525.014873 L696.728442,525.375677 L695.201743,526.487948 C654.78306,556.013888 618.54783,590.925028 587.551718,630.165702 L586.447691,629.245749 C549.722414,598.435543 519.56312,555.683346 496.004183,500.712493 L495.17758,498.762094 C473.922407,448.04033 469.215119,388.164936 485,335 Z" id="Color" fill="url(#linearGradient-2)"></path>
            <path d="M793,1227 C842.705627,1227 883,1267.29437 883,1317 C883,1366.70563 842.705627,1407 793,1407 C743.294373,1407 703,1366.70563 703,1317 C703,1267.29437 743.294373,1227 793,1227 Z M871,1218 C837,1205.33333 806,1201 778,1205 C750,1209 721.333333,1220.66667 692,1240 C706.666667,1206.66667 733.666667,1186.33333 773,1179 C812.333333,1171.66667 845,1184.66667 871,1218 Z M1245,1227 C1294.70563,1227 1335,1267.29437 1335,1317 C1335,1366.70563 1294.70563,1407 1245,1407 C1195.29437,1407 1155,1366.70563 1155,1317 C1155,1267.29437 1195.29437,1227 1245,1227 Z M1323,1218 C1289,1205.33333 1258,1201 1230,1205 C1202,1209 1173.33333,1220.66667 1144,1240 C1158.66667,1206.66667 1185.66667,1186.33333 1225,1179 C1264.33333,1171.66667 1297,1184.66667 1323,1218 Z M864,749.5 C889.957383,749.5 911,770.542617 911,796.5 C911,822.457383 889.957383,843.5 864,843.5 C838.042617,843.5 817,822.457383 817,796.5 C817,770.542617 838.042617,749.5 864,749.5 Z M1176,749.5 C1201.95738,749.5 1223,770.542617 1223,796.5 C1223,822.457383 1201.95738,843.5 1176,843.5 C1150.04262,843.5 1129,822.457383 1129,796.5 C1129,770.542617 1150.04262,749.5 1176,749.5 Z" id="Black" fill="#000000"></path>
            <path d="M849,797 C860.59798,797 870,787.59798 870,776 C870,764.40202 860.59798,755 849,755 C837.40202,755 828,764.40202 828,776 C828,787.59798 837.40202,797 849,797 Z M1161,797 C1172.59798,797 1182,787.59798 1182,776 C1182,764.40202 1172.59798,755 1161,755 C1149.40202,755 1140,764.40202 1140,776 C1140,787.59798 1149.40202,797 1161,797 Z" id="Highlights" fill="#4D4D4D"></path>
        </g>
    </g>
</svg>