<?xml version="1.0" encoding="UTF-8"?>
<svg width="1008px" height="1008px" viewBox="0 0 1008 1008" version="1.1" xmlns="http://www.w3.org/2000/svg" xmlns:xlink="http://www.w3.org/1999/xlink">
    <title>UPX</title>
    <defs>
        <linearGradient x1="100%" y1="50%" x2="9.15066634e-15%" y2="50%" id="linearGradient-1">
            <stop stop-color="#00F9C5" offset="0%"></stop>
            <stop stop-color="#D901FF" offset="100%"></stop>
        </linearGradient>
    </defs>
    <g id="Page-1" stroke="none" stroke-width="1" fill="none" fill-rule="evenodd">
        <g id="UPX">
            <circle id="bg" fill="url(#linearGradient-1)" cx="504" cy="504" r="504"></circle>
            <path d="M858,369 L717,523 L780,638 L713,638 L679,563 L611,638 L539,638 L650,523 L590,410 L655,410 L689,483 L785,369 L858,369 Z M319.778,592.456 L317.55547,602.824759 C315.208428,614.190595 311.029368,622.385632 305.018291,627.410485 C299.007214,632.437387 290.100433,634.967225 278.297948,635 L240.458743,635 L319.778,592.456 Z M296.40707,464.511024 L346.859343,464.637619 L326.901385,559.367668 L218.322547,634.975419 L209.584569,634.975419 C191.787826,634.975419 177.570614,631.011664 166.933139,623.086203 C156.295602,615.160742 150.985262,603.80269 151.002147,589.013481 C150.961232,583.909353 151.505124,578.817311 152.623141,573.8365 L175.772439,464.561621 L225.844649,464.561621 L205.32962,561.062353 C204.399664,565.611555 203.86577,570.232658 203.733886,574.873631 C203.733886,583.018686 206.089337,588.920891 210.80024,592.580246 C215.536371,596.323792 223.03345,598.195667 233.341728,598.195667 L256.820351,598.195667 C264.418548,598.195667 268.825482,594.451916 270.345121,586.964619 L296.40707,464.511024 Z M525.696018,410.000077 C563.23269,410.000077 582,429.173895 582,467.521225 C581.952825,475.925409 581.200082,484.310952 579.745872,492.588747 C575.658085,517.023707 568.060914,534.865314 556.950256,546.11316 C545.839598,557.361005 527.773754,562.984825 502.750673,562.984825 L406.910224,562.984825 L391.486161,634.975419 L333.562447,634.975419 L345.567578,578.591981 L474.509461,509.409815 L483.247028,521.096234 C486.920498,525.978105 494.796615,524.207628 496.771798,517.883852 C497.305077,516.214363 497.860917,514.595472 498.242417,512.951179 L507.790158,468.659549 C509.437169,461.070854 508.04244,458.541425 498.242417,457.630888 L446.346189,453.153587 C445.095035,453.178168 443.878749,453.570857 442.849111,454.282694 C441.819472,454.994531 441.025707,455.993766 440.562165,457.155238 C440.100674,458.31671 439.991967,459.588799 440.250402,460.811725 C440.506786,462.034855 441.122108,463.154539 442.014324,464.030457 L449.461767,473.946194 L353.647161,540.649323 L374.111529,444.704951 C376.661012,432.51277 381.220545,423.676424 387.788078,418.195811 C394.357662,412.715218 403.642866,409.983291 415.647791,410.000077 L525.696018,410.000077 Z" id="uPX" fill="#FFFFFF"></path>
        </g>
    </g>
</svg>