<?xml version="1.0" encoding="UTF-8"?>
<svg width="357px" height="452px" viewBox="0 0 357 452" version="1.1" xmlns="http://www.w3.org/2000/svg" xmlns:xlink="http://www.w3.org/1999/xlink">
    <title>NANANA</title>
    <g id="Page-1" stroke="none" stroke-width="1" fill="none" fill-rule="evenodd">
        <g id="NANANA" transform="translate(0.914385, 0.979147)">
            <path d="M313.085615,16.5208531 C367.085615,41.0208531 355.585615,95.0208531 353.085615,113.520853 C351.87918,122.448471 338.809288,167.332683 308.085615,247.520853 C296.365122,278.111103 226.085615,431.020853 227.585615,435.020853 C229.085615,439.020853 234.797235,435.347926 237.085615,439.520853 C239.373994,443.69378 237.085615,448.020853 233.085615,449.520853 C229.085615,451.020853 216.585615,451.020853 215.085615,448.520853 C213.585615,446.020853 228.085615,400.020853 220.585615,399.020853 C213.085615,398.020853 212.085615,447.520853 208.085615,449.520853 C204.085615,451.520853 189.085615,450.520853 187.085615,448.520853 C185.085615,446.520853 184.409834,442.908648 188.585615,439.020853 C192.761395,435.133058 198.585615,439.020853 200.585615,437.020853 C202.565615,435.040853 195.9815,388.319829 200.446897,317.183938 L200.585615,315.020853 C203.744265,266.787413 209.410887,211.787747 217.585482,150.021854 C218.89041,151.303974 220.374935,152.270578 222.041945,152.91886 C223.917588,153.648277 225.963778,154.18134 228.182474,154.548897 C231.468569,155.093284 234.280326,155.233078 238.866692,155.215998 L239.95761,155.209384 L241.797106,155.203846 L242.703109,155.213452 C243.76362,155.233408 244.254163,155.282178 244.414794,155.362494 C244.661161,155.485677 244.832092,155.614872 245.103883,155.893529 L245.601106,156.425677 C247.025978,157.914037 248.485188,158.520853 251.585615,158.520853 C257.272365,158.520853 260.585615,154.544953 260.585615,148.520853 C260.585615,142.840811 258.555651,140.520853 253.585615,140.520853 C251.86222,140.520853 250.841282,140.708773 249.24135,141.223244 L248.517528,141.460618 C247.303951,141.851495 246.577413,141.996517 245.414335,142.017973 L244.31728,142.02698 C242.292172,142.027021 241.045827,141.75987 239.621001,140.768119 C239.283143,140.532952 238.954048,140.260588 238.633594,139.947661 C237.564436,138.903622 236.852392,136.250132 234.584369,132.072786 L233.910369,130.817272 C233.521792,130.085631 231.613675,129.807522 230.882034,130.196099 C230.150392,130.584676 229.872283,131.492792 230.26086,132.224434 L230.739199,133.118678 C233.251975,137.781457 234.152923,140.741863 235.537636,142.094045 C235.976123,142.52223 236.432955,142.900314 236.907146,143.230374 C238.952791,144.654247 241.727954,146.028349 244.322859,146.02702 L245.471435,146.017454 C246.969503,145.99001 247.953019,145.793359 249.42988,145.318462 L250.153701,145.081088 C251.477604,144.654677 252.221889,144.520853 253.585615,144.520853 L253.792014,144.522145 C256.701411,144.559516 256.514512,144.422382 256.581041,148.003352 L256.585615,148.520853 C256.585615,152.996753 256.482198,154.520853 252.585615,154.520853 C250.315225,154.520853 249.624286,154.250798 248.762985,153.34593 L248.384314,152.937401 C247.819576,152.338801 246.413718,152.007854 245.756435,151.679212 L245.578569,151.595361 C244.83438,151.266957 244.008346,151.195922 241.475959,151.200636 L238.877139,151.215916 L237.280556,151.214683 C234.067629,151.19513 231.795855,151.062156 229.377807,150.700436 L228.672783,150.589235 C226.647381,150.2537 224.798914,149.772147 223.129284,149.122846 C217.960025,147.112579 215.746577,141.804865 214.678559,130.976007 L214.580433,129.896285 C214.511636,129.070719 212.786612,128.457237 211.961046,128.526034 C211.135481,128.594832 210.521999,129.319856 210.590796,130.145421 C210.798246,132.634823 211.112813,134.932703 211.536143,137.037119 L206.812815,137.175253 C121.461348,139.605653 73.8856147,137.554186 64.0856147,131.020853 C54.0856147,124.354186 45.2522813,109.68752 37.5856147,87.0208531 L15.3944125,90.3704685 C12.7565606,90.7686348 10.1217176,89.6328413 8.60005389,87.4416456 L1.25041254,76.858162 C-0.362958721,74.5349074 -0.419603631,71.4689936 1.10684833,69.0877286 L8.53129337,57.5055943 C10.0680073,55.1044561 12.9084114,53.8775804 15.7103922,54.4027965 L19.0521593,55.0211951 C34.4995712,57.8374171 42.510723,58.6706364 43.0856147,57.5208531 C43.3058646,57.0803532 39.1013317,54.6806871 40.0856147,52.0208531 L40.8354876,49.9924345 C43.1991548,43.6443475 48.0009993,31.4977762 55.5856147,23.0208531 C64.0006147,13.6158531 81.3383827,3.43086253 108.751819,2.54484536 L109.585615,2.52085308 C137.481678,1.8166806 259.085615,-7.97914692 313.085615,16.5208531 Z M269.442026,268.680106 C257.070477,302.67338 245.377376,334.544717 247.085615,335.520853 C249.302281,336.78752 260.316313,311.565228 280.12771,259.853979 C293.048801,223.952217 301.388015,196.946753 297.585615,195.520853 C296.621552,195.15933 293.649961,203.453167 289.419125,216.052271 L269.442026,268.680106 Z M218.085615,318.520853 C222.585615,318.520853 236.585615,211.520853 231.085615,210.020853 C225.585615,208.520853 213.585615,318.520853 218.085615,318.520853 Z M80.7148853,83.5644531 C74.5048462,89.4091958 72.3810186,95.3945279 74.7286613,101.263634 C77.0433983,107.050477 85.3237006,111.63107 99.5673575,115.452539 C100.634198,115.738764 101.731075,115.105951 102.0173,114.03911 C102.303526,112.97227 101.670712,111.875393 100.603872,111.589167 L99.4296128,111.268338 C87.0717721,107.829545 82.0767624,103.863558 80.442568,99.7780717 C78.7902107,95.6471783 78.3330498,91.299177 83.4563441,86.4772531 C84.2606916,85.7202201 84.2990476,84.4544712 83.5420146,83.6501237 C82.7849817,82.8457762 81.5192328,82.8074202 80.7148853,83.5644531 Z M331.444151,73.7908471 C330.764838,73.3166904 329.829765,73.4830028 329.355609,74.1623164 L328.812885,74.9316523 C324.239837,81.3440885 320.694688,84.5208531 318.585615,84.5208531 C317.681396,84.5208531 317.103603,84.1446916 316.119063,82.9841843 L315.408097,82.129659 C313.477712,79.8860199 311.699712,79.238579 308.89648,80.6885266 C304.248948,83.0924224 301.909765,89.4507792 302.604753,93.7597017 C303.083494,96.727894 307.15927,98.8871529 310.839016,99.500444 C312.536839,99.7834145 313.722514,99.2496806 315.503614,97.8584467 L316.453374,97.1044962 L316.715357,96.9076725 L316.890376,96.7882575 C316.870717,96.8037205 316.873497,96.8081435 316.894627,96.8065451 L317.132176,96.771013 L317.425775,96.740555 C317.588334,96.7269919 317.77455,96.7159517 317.984507,96.707542 L318.198787,96.6998036 C318.592387,96.6872195 319.004088,96.6833583 319.664224,96.6866864 L322.531379,96.7129309 L323.704025,96.71708 C324.675216,96.7164414 325.477865,96.7037004 326.281718,96.6743368 L327.118013,96.6379794 C330.774512,96.4547604 333.622319,95.9295521 335.756435,94.8624939 C339.667443,92.9069897 343.937973,88.410519 348.662733,81.3658556 L349.340799,80.3421397 C349.794383,79.6489204 349.600121,78.7192525 348.906901,78.2656685 C348.213682,77.8120844 346.284014,78.0063472 345.83043,78.6995665 C341.101077,85.9275077 337.926234,89.4234924 334.414794,91.1792123 C332.817794,91.9777122 330.479699,92.4329154 327.430576,92.6162659 L326.967878,92.6417385 C325.616608,92.7094476 324.41723,92.7260577 322.536082,92.7128763 L320.231752,92.6907096 L318.832694,92.6856011 L318.311643,92.6897953 C316.596903,92.7128439 315.991754,92.828013 315.417674,93.1690705 L315.253564,93.2727776 L314.98289,93.4575577 C314.899352,93.5167178 314.815943,93.5783964 314.712994,93.657449 L313.678756,94.4770436 C312.529292,95.3763948 311.943064,95.6430707 311.332213,95.5412622 C308.832054,95.124569 306.762682,94.4984817 306.566476,93.2820044 C306.060061,90.1422315 306.919164,86.088827 310.274749,84.3531795 C311.162732,83.893878 312.017106,84.4202862 312.837872,85.9324044 C314.353232,87.7146388 316.573438,88.5208531 318.585615,88.5208531 C322.026735,88.5208531 326.105175,83.8969874 331.230859,76.7084155 L331.815621,75.8793898 C332.289777,75.2000762 332.123465,74.2650038 331.444151,73.7908471 Z M42.9706734,62.517406 C42.4164849,63.133171 42.4664025,64.0816058 43.0821676,64.6357943 C46.1213913,67.3710956 46.5856147,70.1531201 46.5856147,73.0208531 C46.5856147,75.8885861 46.1213913,78.6706105 43.0821676,81.4059119 C42.4664025,81.9601004 42.4164849,82.9085351 42.9706734,83.5243002 C43.524862,84.1400652 45.4732967,84.1899828 46.0890618,83.6357943 C49.7165047,80.3710956 51.5856147,76.8197867 51.5856147,73.0208531 C51.5856147,69.2219194 49.7165047,65.6706105 46.0890618,62.4059119 C45.4732967,61.8517233 43.524862,61.9016409 42.9706734,62.517406 Z M15.2994685,62.2433656 C14.5939317,62.6775421 14.3739507,63.6014624 14.8081272,64.3069992 L15.267315,65.0640955 C17.4883025,68.782077 17.5856072,71.4842302 17.5856072,73.0208531 C17.5856072,74.4264299 16.9255049,77.1309143 13.5744467,80.8550698 L12.9834095,81.5034329 C12.4215039,82.112164 12.4594634,83.0611526 13.0681945,83.6230582 C13.6769256,84.1849639 14.6259142,84.1470043 15.1878198,83.5382732 L15.8516439,82.8098852 C19.4032554,78.8602986 21.3139154,76.8391724 21.5586519,74.520297 L38.0856072,73.5208531 L38.0856072,70.5208531 L22.1752504,69.5209914 C21.5696891,67.4504428 19.2954849,65.8748289 17.3631021,62.7347069 C16.9289256,62.0291701 16.0050054,61.8091891 15.2994685,62.2433656 Z M95.5972424,22.7821408 L94.3788449,23.4787583 C81.7450094,30.7449186 74.1287477,35.4916026 71.3804122,39.975729 C68.1827774,45.1929225 70.0220358,51.7106977 76.2894723,57.0440127 C77.1306902,57.7598523 78.3929346,57.6582132 79.1087742,56.8169954 C79.8246139,55.9757776 79.7229748,54.7135331 78.881757,53.9976935 C73.9552042,49.8054121 74.7944626,46.3231873 76.7908172,43.0659772 C79.0040897,39.4548484 83.8769969,34.2159292 95.2736959,27.5824382 L96.4092668,26.9254745 L97.5739869,26.2595653 C98.5342512,25.7137024 98.8701898,24.4927451 98.3243269,23.5324808 C97.778464,22.5722166 96.5575066,22.2362779 95.5972424,22.7821408 Z" id="Shape" fill="#FCD900"></path>
            <rect id="mouth" stroke="#000000" stroke-width="6" fill="#F2ABCA" x="182.085615" y="55.0208531" width="65" height="19" rx="8"></rect>
            <ellipse id="Oval" stroke="#000000" stroke-width="5.5" fill="#FFFFFF" transform="translate(146.500000, 89.500000) rotate(-3.000000) translate(-146.500000, -89.500000) " cx="146.5" cy="89.5" rx="22.75" ry="12.75"></ellipse>
            <ellipse id="Oval" stroke="#000000" stroke-width="5.5" fill="#FFFFFF" transform="translate(143.500000, 44.500000) rotate(-3.000000) translate(-143.500000, -44.500000) " cx="143.5" cy="44.5" rx="22.75" ry="12.75"></ellipse>
            <path d="M146.925798,96.0119451 C154.922952,95.592832 161.253621,92.3469128 161.065743,88.7619817 C160.877865,85.1770506 154.242585,82.610648 146.245431,83.0297611 C138.248277,83.4488742 131.917608,86.6947933 132.105486,90.2797244 C132.293365,93.8646556 138.928644,96.4310581 146.925798,96.0119451 Z M143.978134,52.0105746 C151.42376,51.6203659 157.283896,47.9507766 157.067113,43.8143177 C156.850331,39.6778587 150.638721,36.6409228 143.193095,37.0311316 C135.747469,37.4213403 129.887333,41.0909295 130.104116,45.2273885 C130.320899,49.3638475 136.532508,52.4007833 143.978134,52.0105746 Z" id="Combined-Shape" fill="#000000"></path>
        </g>
    </g>
</svg>