<?xml version="1.0" encoding="UTF-8"?>
<svg width="960px" height="960px" viewBox="0 0 960 960" version="1.1" xmlns="http://www.w3.org/2000/svg" xmlns:xlink="http://www.w3.org/1999/xlink">
    <title>PHAME</title>
    <defs>
        <linearGradient x1="92.7467511%" y1="25.0074929%" x2="7.35653113%" y2="74.9041072%" id="linearGradient-1">
            <stop stop-color="#731ACF" offset="0%"></stop>
            <stop stop-color="#E33471" offset="48.7287822%"></stop>
            <stop stop-color="#F46C70" offset="100%"></stop>
        </linearGradient>
    </defs>
    <g id="Page-1" stroke="none" stroke-width="1" fill="none" fill-rule="evenodd">
        <g id="PHAME" transform="translate(0.000000, -0.000000)">
            <path d="M510,17.3205081 L865.692194,222.679492 C884.256258,233.39746 895.692194,253.205081 895.692194,274.641016 L895.692194,685.358984 C895.692194,706.794919 884.256258,726.60254 865.692194,737.320508 L510,942.679492 C491.435935,953.39746 468.564065,953.39746 450,942.679492 L94.3078062,737.320508 C75.7437416,726.60254 64.3078062,706.794919 64.3078062,685.358984 L64.3078062,274.641016 C64.3078062,253.205081 75.7437416,233.39746 94.3078062,222.679492 L450,17.3205081 C468.564065,6.60254038 491.435935,6.60254038 510,17.3205081 Z" id="Polygon" fill="url(#linearGradient-1)" transform="translate(480.000000, 480.000000) rotate(90.000000) translate(-480.000000, -480.000000) "></path>
            <path d="M452.629187,195 L508.889952,195 L508.889952,765 L452.629187,765 L452.629187,195 Z M311.027021,351.000095 C298.233967,389.31982 303.129469,435.602659 323.910824,472.839185 C336.556719,495.497955 373.768417,524.854878 401.596254,534.124709 C435.27858,545.347248 435.163305,545.322685 437.436918,541.748863 C438.604382,539.914056 439.296031,472.65988 438.97228,392.299233 C438.459675,264.602022 437.922543,246.116396 434.707111,245.639886 C432.68367,245.342682 424.957803,247.05959 417.538519,249.459332 C367.850158,265.528022 326.353669,305.088146 311.027021,351.000095 Z M523.002731,316.735614 L523.002731,383.668023 L531.143097,390.172133 L539.28101,396.676244 L551.37751,385.227732 C558.029113,378.932401 576.164053,362.566506 591.677103,348.860714 C607.190153,335.152465 623.743129,320.45681 628.459586,316.200154 L637.036525,308.460557 L630.912243,303.53335 C610.231446,286.892356 593.528858,275.365244 580.64015,268.839027 C562.012227,259.404628 535.729564,249.803205 528.531018,249.803205 L523.002731,249.803205 L523.002731,316.735614 M523.002731,586.354094 L523.002731,733.774874 L529.747536,732.222534 C563.863982,724.365037 591.039412,709.598151 614.253802,686.303217 C633.362446,667.127389 648.264785,639.35965 653.170097,613.790241 C656.753427,595.108116 654.832998,555.828003 649.508281,538.909455 C638.662636,504.443563 613.061811,475.08664 577.863743,456.745932 C560.319894,447.606281 535.150737,438.933314 526.166658,438.933314 C523.618348,438.933314 523.002731,467.622141 523.002731,586.354094 M385.63682,611.358569 C368.78462,626.339147 346.850517,645.984116 336.895185,655.013237 L318.794583,671.428256 L327.084561,679.388915 C348.253436,699.716717 389.747472,722.206006 419.870994,729.677874 C432.266718,732.75308 436.110031,732.947123 437.615961,730.571943 C438.673056,728.90416 439.55356,699.105114 439.575634,664.349387 L439.612424,601.157824 L432.867619,596.962574 C429.159203,594.656169 423.908066,590.821986 421.200334,588.441894 C416.402939,584.226995 415.495456,584.811579 385.63682,611.358569" id="Shape" fill="#FFFFFF"></path>
        </g>
    </g>
</svg>