<?xml version="1.0" encoding="UTF-8"?>
<svg width="1000px" height="1000px" viewBox="0 0 1000 1000" version="1.1" xmlns="http://www.w3.org/2000/svg" xmlns:xlink="http://www.w3.org/1999/xlink">
    <defs>
        <linearGradient x1="75.1294452%" y1="2.06743302%" x2="22.0955102%" y2="100%" id="linearGradient-1">
            <stop stop-color="#00EAFF" offset="0%"></stop>
            <stop stop-color="#0080FF" offset="24.5593622%"></stop>
            <stop stop-color="#8000FF" offset="46.9243604%"></stop>
            <stop stop-color="#E619E6" offset="72.3341803%"></stop>
            <stop stop-color="#FF0000" offset="99.9136118%"></stop>
        </linearGradient>
    </defs>
    <g stroke="none" stroke-width="1" fill="none" fill-rule="evenodd">
        <circle fill="url(#linearGradient-1)" cx="500" cy="500" r="500"></circle>
        <path d="M541.463085,396.769316 L603.16129,458.861948 L280.154901,781.441644 C268.79973,792.781814 250.429403,792.859647 238.978548,781.616103 L217.763222,760.784868 C206.23258,749.462982 206.06335,730.937347 217.385237,719.406705 L217.619587,719.170732 L541.463085,396.769316 Z M729.114585,391.145148 C763.826555,447.384736 777.206912,501.535015 776.997585,546.355838 C776.780978,592.735661 763.250291,628.456478 749.868433,650.057556 C740.606194,665.008721 733.100822,673.554096 727.179913,673.155568 C725.263487,673.026576 716.824172,672.712065 712.080142,665.815237 C708.906169,661.200943 707.448748,652.510439 707.01441,642.759274 C705.76236,614.649991 691.465751,566.521558 682.809855,544.134036 C671.027433,513.660099 658.900079,494.305996 639.511562,463.969137 C642.481283,465.111509 659.402694,451.953818 678.130913,436.719121 L679.410494,435.677316 C680.051542,435.154948 680.694369,434.630489 681.338494,434.104424 L682.628332,433.050293 L683.920775,431.992739 L685.214969,430.932623 C685.430766,430.755771 685.646601,430.578848 685.862455,430.401872 C707.388846,412.752677 727.645765,398.917236 729.114585,391.145148 Z M636.796987,293.004462 C637.277787,293.389782 637.736921,293.801385 638.172286,294.237387 L704.648542,360.810787 C711.581139,367.753515 711.572926,379.001688 704.630198,385.934285 C704.163647,386.400155 703.671522,386.839692 703.156108,387.250854 L635.833528,440.956192 C628.780384,446.582706 618.62984,446.028703 612.230942,439.667995 L559.877443,387.626942 C553.438921,381.226845 552.861693,371.002065 558.538982,363.917985 L613.293716,295.595422 C619.068492,288.389699 629.591264,287.229687 636.796987,293.004462 Z M453.920739,223.002417 C498.703225,222.792911 552.807187,236.184723 608.998672,270.926408 C601.233232,272.396485 587.409625,292.670746 569.775526,314.215565 L568.715358,315.511421 L567.657321,316.805954 C550.750356,337.503322 534.991814,357.363668 536.236971,360.606138 C505.926061,341.201022 486.588513,329.063286 456.140641,317.270778 C433.772267,308.607472 385.685,294.298624 357.59976,293.045503 C347.856936,292.610792 339.173864,291.152124 334.563517,287.975434 C327.672588,283.227342 327.358346,274.780802 327.229465,272.862736 C326.831277,266.936759 335.369343,259.424962 350.30772,250.154793 C371.890323,236.761479 407.580586,223.219209 453.920739,223.002417 Z M672.547602,265.109682 C683.931169,253.87981 702.221598,253.868364 713.619211,265.08398 L734.712958,285.840901 C734.839986,285.965901 734.96587,286.092059 735.090593,286.219359 C746.39991,297.762328 746.210497,316.287767 734.667527,327.597085 L720.515037,341.4631 L658.173593,279.289621 Z" fill="#FFFFFF" fill-rule="nonzero"></path>
    </g>
</svg>