<?xml version="1.0" encoding="UTF-8"?>
<svg width="200px" height="200px" viewBox="0 0 200 200" version="1.1" xmlns="http://www.w3.org/2000/svg" xmlns:xlink="http://www.w3.org/1999/xlink">
    <title>pENS</title>
    <defs>
        <linearGradient x1="73.6006985%" y1="5.84814095%" x2="26.493776%" y2="94.2390042%" id="linearGradient-1">
            <stop stop-color="#00EAFF" offset="0%"></stop>
            <stop stop-color="#0080FF" offset="25.2530882%"></stop>
            <stop stop-color="#8000FF" offset="49.7394282%"></stop>
            <stop stop-color="#E619E6" offset="74.9912298%"></stop>
            <stop stop-color="#FF0000" offset="99.9136118%"></stop>
        </linearGradient>
    </defs>
    <g id="Page-1" stroke="none" stroke-width="1" fill="none" fill-rule="evenodd">
        <g id="pENS">
            <circle id="Oval" fill="url(#linearGradient-1)" cx="100" cy="100" r="100"></circle>
            <path d="M56.397055,64.9091912 C57.6267596,62.6275102 59.4014502,60.6823059 61.5646036,59.2452009 L97.8676797,34 L60.6707866,95.2518872 C60.6707866,95.2518872 57.4207469,89.7823894 56.1532138,87.0147978 C54.5737164,83.5350822 53.7771152,79.7537751 53.8191914,75.9352198 C53.8613075,72.1167044 54.7411793,68.3535409 56.397055,64.9091912 Z M41.4142816,107.162544 C41.8241671,113.020145 43.4860216,118.722746 46.2885677,123.888649 C49.0911178,129.054954 52.9696545,133.564806 57.6645079,137.117016 L97.8187912,165 C97.8187912,165 72.6959414,128.944811 51.505686,93.0674524 C49.3603649,89.2769334 47.9181558,85.1327555 47.2481036,80.8331759 C46.951487,78.8862493 46.951487,76.9056791 47.2481036,74.9587526 C46.695584,75.9784759 45.6230837,78.0659849 45.6230837,78.0659849 C43.4744727,82.4296476 42.0111654,87.0961033 41.2842812,91.9023404 C40.8658935,96.9825331 40.9094042,102.089961 41.4142816,107.162544 Z M143.790759,112.017244 C142.490407,109.250053 139.272986,103.780154 139.272986,103.780154 L102.141411,165 L138.444287,139.77086 C140.6074,138.333795 142.382211,136.388871 143.612036,134.10711 C145.267832,130.66264 146.147423,126.899356 146.1899,123.081202 C146.231976,119.262646 145.435335,115.480939 143.855677,112.001223 L143.790759,112.017244 Z M158.529423,91.853477 C158.119482,85.9962761 156.457675,80.2932752 153.655406,75.1273714 C150.852735,69.9614275 146.974118,65.4513347 142.279225,61.8992051 L102.189899,34 C102.189899,34 127.29652,70.0553093 148.503285,105.932548 C150.642755,109.724268 152.079354,113.868446 152.744558,118.166824 C153.041094,120.113751 153.041094,122.094321 152.744558,124.041247 C153.297157,123.021524 154.369497,120.934015 154.369497,120.934015 C156.518185,116.570352 157.981632,111.903897 158.708146,107.09766 C159.132113,102.017867 159.094045,96.9104395 158.594741,91.8374562 L158.529423,91.853477 Z" id="ENS" fill="#FFFFFF" fill-rule="nonzero"></path>
        </g>
    </g>
</svg>