<?xml version="1.0" encoding="UTF-8"?>
<svg width="500px" height="500px" viewBox="0 0 500 500" version="1.1" xmlns="http://www.w3.org/2000/svg" xmlns:xlink="http://www.w3.org/1999/xlink">
    <title>TSFi</title>
    <defs>
        <linearGradient x1="72.1722131%" y1="4.86576398%" x2="25.7710972%" y2="94.3609314%" id="linearGradient-1">
            <stop stop-color="#00EAFF" offset="0%"></stop>
            <stop stop-color="#0080FF" offset="25.2530882%"></stop>
            <stop stop-color="#8000FF" offset="49.7394282%"></stop>
            <stop stop-color="#E619E6" offset="74.9912298%"></stop>
            <stop stop-color="#FF0000" offset="99.9136118%"></stop>
        </linearGradient>
        <path d="M500,250.005208 C500,388.067708 388.067708,500 250,500 C111.927083,500 0,388.067708 0,250.005208 C0,111.932292 111.927083,0 250,0 C388.072917,0 500,111.932292 500,250.005208" id="path-2"></path>
        <polygon id="path-4" points="0 0 467.197917 0 467.197917 467.197917 0 467.197917"></polygon>
        <path d="M233.598959,0 C104.588543,0 0,104.588543 0,233.598959 C0,362.609375 104.588543,467.197917 233.598959,467.197917 C362.609375,467.197917 467.197917,362.609375 467.197917,233.598959 C467.197917,104.588543 362.609375,0 233.598959,0" id="path-6"></path>
        <polygon id="path-8" points="0 0 451.281251 0 451.281251 451.281251 0 451.281251"></polygon>
        <path d="M225.640625,0 C101.020833,0 0,101.020833 0,225.640625 C0,350.260417 101.020833,451.281251 225.640625,451.281251 C350.260417,451.281251 451.281251,350.260417 451.281251,225.640625 C451.281251,101.020833 350.260417,0 225.640625,0" id="path-10"></path>
        <polygon id="path-12" points="0 0 435.031251 0 435.031251 435.031251 0 435.031251"></polygon>
        <polyline id="path-14" points="217.515625 0 289.348959 44.0885427 371.322917 63.7083333 390.942708 145.682292 435.031251 217.515625 390.942708 289.348959 371.322917 371.322917 289.348959 390.942708 217.515625 435.031251 145.682292 390.942708 63.7083333 371.322917 44.0885427 289.348959 0 217.515625 44.0885427 145.682292 63.7083333 63.7083333 145.682292 44.0885427 217.515625 0"></polyline>
        <polygon id="path-16" points="0 0 421 0 421 421 0 421"></polygon>
        <polyline id="path-18" points="210.5 0 280.015625 42.6666667 359.343749 61.6562507 378.333333 140.984375 421 210.5 378.333333 280.020833 359.343749 359.343749 280.015625 378.333333 210.5 421 140.979167 378.333333 61.6562507 359.343749 42.6666667 280.020833 0 210.5 42.6666667 140.984375 61.6562507 61.6562507 140.979167 42.6666667 210.5 0"></polyline>
        <linearGradient x1="0.000142937642%" y1="0.000376563737%" x2="99.9996165%" y2="0.000376563737%" id="linearGradient-20">
            <stop stop-color="#000000" offset="0%"></stop>
            <stop stop-color="#000000" offset="0.78125%"></stop>
            <stop stop-color="#010101" offset="1.5625%"></stop>
            <stop stop-color="#020202" offset="2.34375%"></stop>
            <stop stop-color="#030303" offset="3.125%"></stop>
            <stop stop-color="#040404" offset="3.90625%"></stop>
            <stop stop-color="#050505" offset="4.6875%"></stop>
            <stop stop-color="#060606" offset="5.46875%"></stop>
            <stop stop-color="#070707" offset="6.25%"></stop>
            <stop stop-color="#080808" offset="7.03125%"></stop>
            <stop stop-color="#090909" offset="7.8125%"></stop>
            <stop stop-color="#090909" offset="8.59375%"></stop>
            <stop stop-color="#0A0A0A" offset="9.375%"></stop>
            <stop stop-color="#0B0B0B" offset="10.1563%"></stop>
            <stop stop-color="#0C0C0C" offset="10.9375%"></stop>
            <stop stop-color="#0D0D0D" offset="11.7188%"></stop>
            <stop stop-color="#0E0E0E" offset="12.5%"></stop>
            <stop stop-color="#0F0F0F" offset="13.2813%"></stop>
            <stop stop-color="#101010" offset="14.0625%"></stop>
            <stop stop-color="#111111" offset="14.8438%"></stop>
            <stop stop-color="#121212" offset="15.625%"></stop>
            <stop stop-color="#121212" offset="16.4063%"></stop>
            <stop stop-color="#131313" offset="17.1875%"></stop>
            <stop stop-color="#141414" offset="17.9688%"></stop>
            <stop stop-color="#151515" offset="18.75%"></stop>
            <stop stop-color="#161616" offset="19.5313%"></stop>
            <stop stop-color="#171717" offset="20.3125%"></stop>
            <stop stop-color="#181818" offset="21.0938%"></stop>
            <stop stop-color="#191919" offset="21.875%"></stop>
            <stop stop-color="#1A1A1A" offset="22.6562%"></stop>
            <stop stop-color="#1B1B1B" offset="23.4375%"></stop>
            <stop stop-color="#1B1B1B" offset="24.2188%"></stop>
            <stop stop-color="#1C1C1C" offset="25%"></stop>
            <stop stop-color="#1D1D1D" offset="25.7813%"></stop>
            <stop stop-color="#1E1E1E" offset="26.5625%"></stop>
            <stop stop-color="#1F1F1F" offset="27.3438%"></stop>
            <stop stop-color="#202020" offset="28.125%"></stop>
            <stop stop-color="#212121" offset="28.9063%"></stop>
            <stop stop-color="#222222" offset="29.6875%"></stop>
            <stop stop-color="#232323" offset="30.4688%"></stop>
            <stop stop-color="#232323" offset="31.25%"></stop>
            <stop stop-color="#242424" offset="32.0312%"></stop>
            <stop stop-color="#252525" offset="32.8125%"></stop>
            <stop stop-color="#262626" offset="33.5938%"></stop>
            <stop stop-color="#272727" offset="34.375%"></stop>
            <stop stop-color="#282828" offset="35.1562%"></stop>
            <stop stop-color="#292929" offset="35.9375%"></stop>
            <stop stop-color="#2A2A2A" offset="36.7188%"></stop>
            <stop stop-color="#2B2B2B" offset="37.5%"></stop>
            <stop stop-color="#2C2C2C" offset="38.2813%"></stop>
            <stop stop-color="#2C2C2C" offset="39.0625%"></stop>
            <stop stop-color="#2D2D2D" offset="39.8438%"></stop>
            <stop stop-color="#2E2E2E" offset="40.625%"></stop>
            <stop stop-color="#2F2F2F" offset="41.4063%"></stop>
            <stop stop-color="#303030" offset="42.1875%"></stop>
            <stop stop-color="#313131" offset="42.9688%"></stop>
            <stop stop-color="#323232" offset="43.75%"></stop>
            <stop stop-color="#333333" offset="44.5313%"></stop>
            <stop stop-color="#343434" offset="45.3125%"></stop>
            <stop stop-color="#353535" offset="46.0938%"></stop>
            <stop stop-color="#353535" offset="46.875%"></stop>
            <stop stop-color="#363636" offset="47.6563%"></stop>
            <stop stop-color="#373737" offset="48.4375%"></stop>
            <stop stop-color="#383838" offset="49.2188%"></stop>
            <stop stop-color="#393939" offset="50%"></stop>
            <stop stop-color="#3A3A3A" offset="50.7812%"></stop>
            <stop stop-color="#3B3B3B" offset="51.5625%"></stop>
            <stop stop-color="#3C3C3C" offset="52.3438%"></stop>
            <stop stop-color="#3D3D3D" offset="53.125%"></stop>
            <stop stop-color="#3E3E3E" offset="53.9063%"></stop>
            <stop stop-color="#3E3E3E" offset="54.6875%"></stop>
            <stop stop-color="#3F3F3F" offset="55.4688%"></stop>
            <stop stop-color="#404040" offset="56.25%"></stop>
            <stop stop-color="#414141" offset="57.0313%"></stop>
            <stop stop-color="#424242" offset="57.8125%"></stop>
            <stop stop-color="#434343" offset="58.5938%"></stop>
            <stop stop-color="#444444" offset="59.375%"></stop>
            <stop stop-color="#454545" offset="60.1563%"></stop>
            <stop stop-color="#464646" offset="60.9375%"></stop>
            <stop stop-color="#474747" offset="61.7188%"></stop>
            <stop stop-color="#474747" offset="62.5%"></stop>
            <stop stop-color="#484848" offset="63.2813%"></stop>
            <stop stop-color="#494949" offset="64.0625%"></stop>
            <stop stop-color="#4A4A4A" offset="64.8438%"></stop>
            <stop stop-color="#4B4B4B" offset="65.625%"></stop>
            <stop stop-color="#4C4C4C" offset="66.4063%"></stop>
            <stop stop-color="#4D4D4D" offset="67.1875%"></stop>
            <stop stop-color="#4E4E4E" offset="67.9688%"></stop>
            <stop stop-color="#4F4F4F" offset="68.75%"></stop>
            <stop stop-color="#505050" offset="69.5313%"></stop>
            <stop stop-color="#505050" offset="70.3125%"></stop>
            <stop stop-color="#515151" offset="71.0938%"></stop>
            <stop stop-color="#525252" offset="71.875%"></stop>
            <stop stop-color="#535353" offset="72.6563%"></stop>
            <stop stop-color="#545454" offset="73.4375%"></stop>
            <stop stop-color="#555555" offset="74.2188%"></stop>
            <stop stop-color="#565656" offset="75%"></stop>
            <stop stop-color="#575757" offset="75.7813%"></stop>
            <stop stop-color="#585858" offset="76.5625%"></stop>
            <stop stop-color="#585858" offset="77.3438%"></stop>
            <stop stop-color="#595959" offset="78.125%"></stop>
            <stop stop-color="#5A5A5A" offset="78.9063%"></stop>
            <stop stop-color="#5B5B5B" offset="79.6875%"></stop>
            <stop stop-color="#5C5C5C" offset="80.4688%"></stop>
            <stop stop-color="#5D5D5D" offset="81.25%"></stop>
            <stop stop-color="#5E5E5E" offset="82.0313%"></stop>
            <stop stop-color="#5F5F5F" offset="82.8125%"></stop>
            <stop stop-color="#606060" offset="83.5938%"></stop>
            <stop stop-color="#616161" offset="84.375%"></stop>
            <stop stop-color="#616161" offset="85.1563%"></stop>
            <stop stop-color="#626262" offset="85.9375%"></stop>
            <stop stop-color="#636363" offset="86.7188%"></stop>
            <stop stop-color="#646464" offset="87.5%"></stop>
            <stop stop-color="#656565" offset="88.2813%"></stop>
            <stop stop-color="#666666" offset="89.0625%"></stop>
            <stop stop-color="#676767" offset="89.8438%"></stop>
            <stop stop-color="#686868" offset="90.625%"></stop>
            <stop stop-color="#696969" offset="91.4063%"></stop>
            <stop stop-color="#6A6A6A" offset="92.1875%"></stop>
            <stop stop-color="#6A6A6A" offset="92.9688%"></stop>
            <stop stop-color="#6B6B6B" offset="93.75%"></stop>
            <stop stop-color="#6C6C6C" offset="94.5313%"></stop>
            <stop stop-color="#6D6D6D" offset="95.3125%"></stop>
            <stop stop-color="#6E6E6E" offset="96.0938%"></stop>
            <stop stop-color="#6F6F6F" offset="96.875%"></stop>
            <stop stop-color="#707070" offset="97.6563%"></stop>
            <stop stop-color="#717171" offset="98.4375%"></stop>
            <stop stop-color="#727272" offset="99.2188%"></stop>
            <stop stop-color="#737373" offset="100%"></stop>
        </linearGradient>
    </defs>
    <g id="Page-1" stroke="none" stroke-width="1" fill="none" fill-rule="evenodd">
        <g id="TSFi">
            <g id="Clipped">
                <mask id="mask-3" fill="white">
                    <use xlink:href="#path-2"></use>
                </mask>
                <use id="Path" fill="url(#linearGradient-1)" xlink:href="#path-2"></use>
            </g>
            <g id="Clipped" transform="translate(16.401041, 16.401041)">
                <mask id="mask-5" fill="white">
                    <use xlink:href="#path-4"></use>
                </mask>
                <g id="Path"></g>
                <g mask="url(#mask-5)">
                    <mask id="mask-7" fill="white">
                        <use xlink:href="#path-6"></use>
                    </mask>
                    <g id="Path"></g>
                    <polygon id="Path" fill="#000000" fill-rule="nonzero" mask="url(#mask-7)" points="0 0 467.197917 0 467.197917 467.197917 0 467.197917"></polygon>
                </g>
            </g>
            <g id="Clipped" transform="translate(24.359375, 24.359375)">
                <mask id="mask-9" fill="white">
                    <use xlink:href="#path-8"></use>
                </mask>
                <g id="Path"></g>
                <g mask="url(#mask-9)">
                    <mask id="mask-11" fill="white">
                        <use xlink:href="#path-10"></use>
                    </mask>
                    <g id="Path"></g>
                    <polygon id="Path" fill="#A6A6A6" fill-rule="nonzero" mask="url(#mask-11)" points="0 0 451.281251 0 451.281251 451.281251 0 451.281251"></polygon>
                </g>
            </g>
            <g id="Clipped" transform="translate(32.484375, 32.484375)">
                <mask id="mask-13" fill="white">
                    <use xlink:href="#path-12"></use>
                </mask>
                <g id="Path"></g>
                <g mask="url(#mask-13)">
                    <mask id="mask-15" fill="white">
                        <use xlink:href="#path-14"></use>
                    </mask>
                    <g id="Path"></g>
                    <polygon id="Path" fill="#000000" fill-rule="nonzero" mask="url(#mask-15)" points="0 0 435.031251 0 435.031251 435.031251 0 435.031251"></polygon>
                </g>
            </g>
            <g id="Clipped" transform="translate(39.500000, 39.500000)">
                <mask id="mask-17" fill="white">
                    <use xlink:href="#path-16"></use>
                </mask>
                <g id="Path"></g>
                <g mask="url(#mask-17)">
                    <mask id="mask-19" fill="white">
                        <use xlink:href="#path-18"></use>
                    </mask>
                    <g id="Path"></g>
                    <polygon id="Path" fill="url(#linearGradient-20)" fill-rule="nonzero" mask="url(#mask-19)" points="0 0 0 421 421 421 421 0"></polygon>
                </g>
            </g>
            <path d="M120.95333,296.13789 L120.951122,296.489976 C120.954812,297.547685 120.954333,298.373383 121.18636,299.079268 C121.306187,300.021829 121.541147,300.370471 121.893728,300.257037 C122.246539,300.254088 123.42454,297.900481 125.542876,293.312356 C127.545077,288.839379 130.01425,282.954151 132.955552,275.6574 C134.484156,271.896207 136.132062,267.773107 137.897093,263.303574 C139.545988,258.949189 141.31102,254.479654 143.078491,249.76852 C145.782131,242.590855 148.490928,235.413915 151.195787,228.115449 C153.784278,220.821647 156.254423,213.99508 158.374212,207.639916 C160.020157,202.932719 161.200845,199.401329 162.020875,197.049947 C167.674046,195.6364 172.025698,194.57619 174.848978,193.874211 C176.967099,193.399102 179.205789,192.814727 181.556183,192.109321 C183.795597,191.519788 185.909549,190.812667 188.028658,190.106273 C191.913076,188.927717 195.327819,187.872417 198.386539,186.693384 C201.328891,185.519013 203.327693,184.695755 204.269019,183.986673 C204.622819,183.752438 204.74067,183.400847 204.742384,183.164403 C204.740654,182.690791 204.032807,182.338721 202.740369,182.104255 C200.623947,181.632866 196.975217,181.397996 191.678533,181.39971 L191.44209,181.397996 C188.265257,181.397996 183.792063,181.75212 178.028886,182.3402 C172.02289,183.04664 164.726909,183.987069 156.256589,185.161979 C152.491242,185.868142 149.195338,186.340565 146.37354,186.695615 C143.54609,187.165583 141.07661,187.633326 139.075351,187.98813 C135.310004,188.694292 132.718998,189.165974 131.3065,189.635185 C129.894003,190.104395 128.837529,190.69734 128.129929,191.16581 C126.717447,192.345076 126.130894,193.635307 126.131651,195.050259 C126.133133,196.460054 126.720195,197.520959 128.130731,198.224375 C128.601409,198.579889 130.251091,198.817289 132.839395,198.813337 C135.310111,198.934847 138.250996,198.81746 141.662048,198.461175 C144.839376,198.345501 147.664617,198.22762 150.138267,197.991887 C152.489403,197.991379 153.667912,197.988908 153.903136,198.111422 C154.018284,198.227559 153.551312,199.639809 152.607052,202.462858 C151.431507,205.284919 150.135671,208.700172 148.606341,212.466522 C140.019341,232.822737 133.3069,250.360584 128.364647,265.186346 C123.422396,280.012108 120.95523,290.368321 120.95333,296.13789 Z M194.497167,282.134701 C197.320942,283.073803 200.264281,283.42487 203.324745,283.429503 C207.795731,283.427496 212.619282,282.602 217.91669,280.838591 C226.626126,277.777556 234.743588,272.718707 242.274962,265.657612 C247.804847,260.597557 251.21783,255.891813 252.630776,251.42007 C253.103632,250.003389 253.338098,248.710951 253.336134,247.416798 C253.337327,244.82922 252.27934,242.59226 250.393941,240.591264 C248.277751,238.473638 245.452247,237.060924 242.159031,236.355562 C238.62937,235.648488 232.862009,235.294502 224.624936,235.297774 C220.622404,235.297325 216.973179,235.178285 213.682417,234.941378 C210.385772,234.708903 208.499647,234.469788 208.032907,234.2358 C205.679301,233.0578 205.442348,230.704951 207.09027,227.291906 C208.736972,223.999662 212.268053,219.762866 217.682295,214.702317 C220.50309,212.111775 223.565485,209.523671 227.096335,206.933113 C230.388302,204.582441 233.568301,202.578929 236.507703,201.051747 C237.923134,200.225293 239.332188,199.518913 240.5134,199.048714 C241.689455,198.577789 242.748152,198.342813 243.568692,198.342566 C244.867275,198.346473 244.513723,199.401248 242.62837,201.287141 C240.6281,203.167382 237.80485,205.289471 234.271777,207.52206 C230.976135,209.525078 228.97758,211.168875 228.154352,212.346906 C227.215482,213.524442 227.330152,214.466277 228.626033,214.937913 C229.565165,215.290972 231.801137,214.464271 235.095559,212.582053 C238.274339,210.699341 241.450169,208.463819 244.628206,205.876209 C246.748288,204.228474 248.515065,202.69933 250.040734,201.052104 C251.570573,199.636889 252.515095,198.344435 252.869373,197.284503 C253.455417,195.399861 253.217985,193.872709 252.042163,192.697397 C250.865847,191.637725 248.866287,191.046031 246.277983,191.049964 C242.039009,191.047821 236.8624,192.81245 230.62785,196.227007 C224.388143,199.640839 218.623282,203.642195 213.327618,208.345994 C210.386022,210.935317 207.796019,213.642491 205.559321,216.231073 C203.205267,219.055605 201.441456,221.647615 200.264181,223.996063 C198.499891,227.41377 197.677651,230.117239 197.673991,232.236363 C197.67549,234.356213 198.498747,236.355016 200.263346,238.354792 C202.14703,240.59223 204.620448,242.002736 207.913665,242.708097 C211.090514,243.418122 216.974738,243.651802 225.563897,243.650738 C231.922721,243.651402 236.156044,243.768482 238.27418,244.003427 C240.276673,244.237879 241.803346,244.826145 242.865008,245.654036 C244.277273,246.831063 244.747704,248.12276 244.159931,249.53379 C243.450633,250.948758 241.33645,253.302117 237.802403,256.476046 C234.743451,259.301318 230.744873,261.889175 226.037228,264.245761 C221.329089,266.717989 216.620934,268.480162 212.031619,269.659459 C207.443029,270.833598 202.61653,271.306283 197.438423,270.951061 C192.143454,270.716146 188.498646,269.892933 186.379027,268.248193 C184.258421,266.834738 182.964747,266.011017 182.497019,266.008315 C182.023406,266.010044 181.788199,266.597585 181.78895,268.012537 C181.786037,270.836559 182.967279,273.543193 185.552664,276.363262 C188.026839,279.18872 190.969221,281.191182 194.497167,282.134701 Z M258.9784,286.485251 C258.745431,289.897539 258.7435,292.490274 258.747932,294.252882 C258.746997,295.194222 258.743036,295.782751 258.861135,296.251699 C258.865335,297.90382 259.097361,298.609706 259.570973,298.608471 L259.686616,298.608471 C260.039922,298.489879 261.101059,296.256579 262.866322,291.897531 C264.513997,287.663946 266.510299,282.485345 268.631817,276.603793 C272.16063,266.365416 275.100697,258.47941 277.219513,253.065587 C279.33833,247.651763 280.63418,244.946565 281.102635,244.94411 C281.339078,244.945824 282.871387,244.709119 285.931837,244.003697 C288.991792,243.413917 292.047084,242.707769 295.343976,242.004061 C297.461371,241.53411 299.578766,241.064157 301.464875,240.593217 C303.230184,240.121057 304.520167,239.88707 305.347578,239.651105 C306.406276,239.416129 307.345393,239.059133 308.168636,238.591157 C308.876236,238.122688 309.346898,237.768146 309.349107,237.416061 C309.346157,237.063249 308.290888,236.825339 306.403543,236.707024 C304.288851,236.709248 301.112018,236.709279 296.640044,236.942571 C292.987884,237.180773 289.931357,237.297667 287.576284,237.176649 C285.225149,237.177159 284.04786,237.058829 284.04491,236.706017 C284.045898,236.474732 284.75495,234.239224 286.401636,230.236925 C287.93146,226.354931 289.695503,222.116684 291.694261,217.406537 C292.636311,214.935575 293.694005,212.465106 294.756857,209.995363 C295.698414,207.640043 296.638257,205.521166 297.581543,203.639458 C298.7561,201.048683 299.699387,199.166975 300.638751,197.873796 C301.582779,196.696985 302.524598,195.87226 303.463483,195.404779 C304.170095,195.167595 306.523439,194.814999 310.409092,194.225699 C314.173944,193.635179 318.527326,193.04858 323.232299,192.579833 C328.058799,192.107148 332.175737,191.518836 335.47263,190.815128 C338.768534,190.342706 340.413043,189.869325 340.651694,189.518954 L340.648251,189.281786 C340.648003,188.461245 338.885382,187.755621 335.591671,187.165903 C331.944653,186.694777 327.82353,186.341023 323.116596,186.225357 L321.470357,186.225357 C319.351233,186.221781 317.351689,186.340141 315.347482,186.342132 C312.75819,186.577371 310.406066,186.809166 308.289166,187.163475 C306.051465,187.516564 303.581258,187.989465 300.99442,188.693158 C298.401699,189.401282 295.813642,190.225775 293.225585,191.050268 C288.281482,192.695085 283.931064,194.34455 280.163031,196.228497 C276.395722,198.107286 274.514291,199.40465 274.514539,200.22519 C274.51579,201.524499 274.984985,202.226942 276.162769,202.229629 C277.219257,202.346739 279.336653,201.876787 282.516173,200.698973 C284.166333,200.110675 285.931642,199.638515 287.574931,199.285936 C289.223377,198.934082 290.402381,198.815968 291.107278,198.815228 C292.168431,199.048706 292.639109,199.40422 292.520038,199.876612 C292.28483,200.464153 291.343257,202.109418 289.462089,204.937376 C288.399717,206.581422 286.755717,209.405937 284.397261,213.644695 C282.044689,217.879021 279.812918,222.114567 277.691631,226.349881 C276.513631,228.703487 275.458639,230.706227 274.632709,232.351986 C273.690411,234.002409 272.985776,235.533745 272.39456,236.707607 C270.866203,239.532616 269.687463,241.181325 268.867663,241.886469 C267.927064,242.590394 266.628495,243.296542 265.099135,243.886059 C261.924772,245.064599 260.155047,246.24093 259.921074,247.417726 C259.450659,248.592807 260.629678,249.184749 263.454425,249.18251 C265.100663,249.182742 266.041509,249.299358 266.513407,249.534072 C266.863779,249.772723 266.86574,250.35682 266.629312,251.065161 C264.392151,256.946219 262.626656,262.951506 261.335993,268.834262 C259.922815,274.952242 259.215524,280.838195 258.9784,286.485251 Z M311.695789,284.131142 C312.052058,285.075417 313.106834,285.42897 314.758229,285.429927 L315.700295,285.425743 C317.815482,285.307877 322.170578,284.484836 328.645276,282.839756 C331.700568,282.133609 334.761018,281.428186 337.938824,280.486816 C340.999273,279.781393 344.056279,278.838803 347.118443,277.896937 C352.651801,276.250886 357.590979,274.715828 361.830185,273.071753 C366.063739,271.542594 368.654005,270.366015 369.833487,269.422205 C370.299487,268.951295 370.653781,268.601417 370.655495,268.364974 C370.657209,268.128531 370.300954,267.894311 369.830276,267.538797 C369.242735,267.30359 367.596497,267.303358 364.771749,267.305596 C361.830371,267.538626 358.767466,267.775594 355.588919,268.012068 C353.357595,268.245083 351.235537,268.598666 349.3563,268.833889 C347.355042,269.188692 345.706596,269.540546 344.532256,269.775028 C343.351538,270.129584 342.29284,270.36456 341.35028,270.484387 C340.408445,270.599057 339.824348,270.601018 339.705262,270.363356 C339.469313,270.245999 339.940949,268.950117 340.999136,266.364005 C341.942407,263.772242 343.355616,260.831095 344.99838,257.417325 C345.468796,256.242244 346.177369,254.832433 346.99936,253.065148 C347.704489,251.418169 348.531639,249.65161 349.471483,247.532733 C351.120392,243.888402 352.882721,239.886597 354.769279,235.413127 C356.649459,231.059729 358.41866,226.822207 360.065347,222.819908 C362.41937,216.818544 364.652609,211.526015 366.771672,206.932731 C368.652347,202.463692 369.830347,200.110085 370.064567,199.753831 C370.302723,199.519101 371.598358,199.170197 374.184207,198.69779 C376.654414,198.224889 379.480644,197.875721 382.776054,197.518942 C388.897694,196.812995 392.778683,196.107326 394.544981,195.403881 C395.482878,195.167685 395.837898,194.81265 395.835455,194.344195 C395.837651,193.99211 395.367467,193.520953 394.545197,193.047587 C392.543183,191.987438 389.249966,191.282077 384.775537,191.046915 L381.245892,191.049895 C377.832615,191.048211 374.301982,191.282476 370.654487,191.637048 C368.064699,191.987929 365.47885,192.460336 363.003486,192.932511 C360.418363,193.399761 358.178948,193.989293 356.059839,194.695689 C352.295234,196.106749 350.294716,197.16645 350.294238,197.992147 C350.178117,198.817351 351.943672,199.165732 355.709034,199.169623 C357.592442,199.166412 359.121816,199.28695 360.062169,199.519208 C361.006953,199.75735 361.594494,199.992558 361.591791,200.460286 C361.594015,200.818256 360.771529,202.701184 359.124333,206.10907 C357.475191,209.642915 355.476419,213.643007 353.237775,218.11427 C348.76736,226.821078 345.117238,234.7071 342.292798,241.883545 C339.351496,249.180297 337.000437,256.244528 335.235189,263.070355 C334.525642,265.421506 333.939105,267.421791 333.232262,269.305213 C332.525419,271.188635 331.939854,272.247579 331.701698,272.482309 C331.351835,272.83807 330.175287,273.424637 328.291632,274.364032 C326.17081,275.30687 323.935563,276.128414 321.583455,277.070263 C316.990218,278.838088 314.051804,280.133985 312.873541,280.956996 C311.932942,281.660921 311.580499,282.368768 311.580499,283.189308 C311.578184,283.546551 311.580499,283.899363 311.695789,284.131142 Z" id="Shape" stroke="#000000" stroke-width="5.72398568" transform="translate(258.393294, 240.837840) rotate(-8.009993) translate(-258.393294, -240.837840) "></path>
            <path d="M129.998571,314.748471 L130.050655,315.097429 C130.196488,316.149512 130.311072,316.962013 130.644405,317.62868 C130.889196,318.545347 131.170447,318.863055 131.50378,318.696388 C131.852739,318.644304 132.69128,316.154721 134.149613,311.310971 C135.508988,306.607845 137.133988,300.435971 139.029821,292.800555 C140.024613,288.857845 141.081904,284.550555 142.206904,279.873471 C143.227739,275.331804 144.352739,270.659929 145.446488,265.75368 C147.123571,258.264096 148.805863,250.779721 150.467321,243.180763 C152.014196,235.592221 153.514196,228.488055 154.722529,221.904721 C155.701696,217.008888 156.373571,213.352637 156.863155,210.904721 C162.258988,208.722429 166.420447,207.066179 169.118363,205.972429 C171.154821,205.212013 173.285029,204.316179 175.514196,203.290137 C177.649613,202.394304 179.649613,201.399512 181.649613,200.404721 C185.326696,198.701596 188.561072,197.175555 191.425655,195.581804 C194.175655,194.008888 196.040237,192.915137 196.873571,192.081804 C197.19128,191.800555 197.258988,191.435971 197.227739,191.201596 C197.160029,190.738055 196.415237,190.482845 195.097529,190.430763 C192.936072,190.264096 189.290237,190.534929 184.045447,191.274512 L183.811072,191.305763 C180.665237,191.748471 176.290237,192.722429 170.660029,194.107845 C164.81628,195.644304 157.722529,197.592221 149.493363,199.941179 C145.863155,201.165137 142.665237,202.087013 139.920447,202.831804 C137.186072,203.691179 134.805863,204.50368 132.873571,205.12868 C129.243363,206.352637 126.748571,207.180763 125.415237,207.842221 C124.081904,208.508888 123.113155,209.238055 122.477739,209.800555 C121.243363,211.165137 120.842321,212.529721 121.040237,213.925555 C121.238155,215.326596 121.967321,216.290137 123.462113,216.795347 C123.977739,217.076596 125.644405,217.081804 128.206905,216.722429 C130.670447,216.493263 133.56628,215.967221 136.899613,215.139096 C140.029821,214.581804 142.805863,214.071388 145.222529,213.493263 C147.555863,213.165137 148.717321,213.00368 148.967321,213.087013 C149.102739,213.185971 148.831904,214.649512 148.295447,217.576596 C147.519405,220.540137 146.717321,224.097429 145.722529,228.040137 C140.055863,249.399512 135.857947,267.696388 133.029821,283.066179 C130.201696,298.441179 129.196488,309.040137 129.998571,314.748471 Z" id="Path" fill="#FFFFFF" fill-rule="nonzero"></path>
            <path d="M200.874731,290.634293 C203.801813,291.170752 206.765356,291.11346 209.796605,290.686377 C214.223689,290.061377 218.885147,288.571793 223.885147,286.087419 C232.083064,281.842627 239.416397,275.702001 245.890356,267.660335 C250.661188,261.879085 253.385147,256.743668 254.161188,252.118668 C254.432023,250.655127 254.484105,249.337419 254.301813,248.056168 C253.942439,245.493668 252.583064,243.42596 250.437231,241.707209 C248.046605,239.905127 245.051813,238.899919 241.692439,238.660335 C238.098689,238.452001 232.338272,238.905127 224.182023,240.056168 C220.21848,240.61346 216.588272,241.004085 213.296605,241.233252 C209.999731,241.457209 208.103897,241.48846 207.603897,241.316585 C205.109105,240.483252 204.546605,238.181168 205.702855,234.577001 C206.874731,231.082209 209.78098,226.394711 214.437231,220.629085 C216.869521,217.670752 219.541397,214.681168 222.676813,211.629085 C225.609105,208.837419 228.478897,206.415543 231.176813,204.48846 C232.463272,203.478044 233.760147,202.582209 234.864313,201.952001 C235.963272,201.321793 236.978897,200.941585 237.791397,200.827001 C239.077855,200.644711 238.874731,201.743668 237.270564,203.868668 C235.551813,206.014501 233.051813,208.504085 229.864313,211.207209 C226.885147,213.649919 225.129939,215.561377 224.478897,216.837419 C223.713272,218.134293 223.958064,219.05096 225.307023,219.337419 C226.286188,219.556168 228.385147,218.431168 231.385147,216.103044 C234.270564,213.795752 237.103897,211.139501 239.890356,208.134293 C241.760147,206.207209 243.296605,204.446793 244.577855,202.603044 C245.900772,200.993668 246.650772,199.577001 246.853897,198.478044 C247.171605,196.535335 246.723689,195.05096 245.395564,194.05096 C244.083064,193.165543 242.020564,192.86346 239.458064,193.222835 C235.260147,193.811377 230.379939,196.280127 224.682023,200.530127 C218.978897,204.780127 213.827855,209.545752 209.239313,214.941585 C206.687231,217.915543 204.499731,220.957209 202.645564,223.832209 C200.708064,226.957209 199.322647,229.769711 198.484105,232.264501 C197.213272,235.889501 196.775772,238.681168 197.067439,240.780127 C197.364313,242.879085 198.458064,244.743668 200.484105,246.478044 C202.661188,248.431168 205.307023,249.483252 208.666397,249.728044 C211.911188,249.983252 217.770564,249.394711 226.275772,248.196793 C232.572647,247.311377 236.78098,246.837419 238.911188,246.774919 C240.926813,246.733252 242.520564,247.103044 243.687231,247.769711 C245.249731,248.73846 245.895564,249.952001 245.510147,251.431168 C245.004939,252.931168 243.239313,255.556168 240.182023,259.196793 C237.546605,262.415543 233.947647,265.540543 229.614313,268.524919 C225.296605,271.629085 220.879939,274.030127 216.499731,275.837419 C212.119521,277.644711 207.40598,278.780127 202.228897,279.155127 C196.952855,279.655127 193.228897,279.347835 190.900772,278.014501 C188.603897,276.910335 187.208064,276.274919 186.744521,276.342627 C186.275772,276.405127 186.124731,277.019711 186.322647,278.420752 C186.71848,281.217627 188.260147,283.733252 191.213272,286.170752 C194.057023,288.623876 197.249731,290.191585 200.874731,290.634293 Z" id="Path" fill="#FFFFFF" fill-rule="nonzero"></path>
            <path d="M265.334608,285.961223 C265.5794,289.372681 265.938775,291.935181 266.183565,293.685181 C266.313775,294.617472 266.397108,295.195597 266.5794,295.648723 C266.808565,297.278931 267.141899,297.945597 267.605441,297.877889 L267.725232,297.862264 C268.058565,297.695597 268.792941,295.336223 269.933565,290.778931 C270.975232,286.351848 272.235649,280.945597 273.511691,274.825805 C275.584608,264.195597 277.397108,255.976848 278.740857,250.320597 C280.084608,244.669556 280.990857,241.804973 281.4544,241.742472 C281.688775,241.706015 283.167941,241.263307 286.100232,240.138307 C289.048149,239.127889 291.980441,238.002889 295.147108,236.841431 C297.178357,236.081015 299.209608,235.320597 301.006483,234.591431 C302.688775,233.877889 303.938775,233.466431 304.725232,233.117472 C305.740857,232.737264 306.621067,232.258097 307.371067,231.674764 C308.006483,231.112264 308.423149,230.695597 308.371067,230.34664 C308.324191,229.997681 307.240857,229.914348 305.360649,230.060181 C303.261691,230.351848 300.115857,230.794556 295.720024,231.653931 C292.141899,232.393515 289.131483,232.935181 286.782524,233.148723 C284.449191,233.476848 283.272108,233.523723 283.220024,233.174764 C283.188775,232.940389 283.574191,230.627889 284.647108,226.435181 C285.621067,222.377889 286.782524,217.935181 288.105441,212.997681 C288.693983,210.419556 289.397108,207.825805 290.100232,205.226848 C290.7044,202.768515 291.345024,200.539348 292.011691,198.544556 C292.818983,195.815389 293.490857,193.820597 294.240857,192.403931 C295.006483,191.107056 295.824191,190.164348 296.693983,189.565389 C297.360649,189.232056 299.641899,188.554973 303.402316,187.429973 C307.053357,186.325805 311.282524,185.138307 315.876275,184.013307 C320.589816,182.872681 324.584608,181.716431 327.751275,180.560181 C330.949191,179.633097 332.511691,178.940389 332.699191,178.554973 L332.662733,178.325805 C332.548149,177.508097 330.7044,177.054973 327.355441,176.929973 C323.678357,176.97164 319.553357,177.195597 314.876275,177.737264 L313.240857,177.966431 C311.147108,178.263307 309.178357,178.659139 307.199191,178.935181 C304.667941,179.528931 302.371067,180.091431 300.324191,180.737264 C298.157524,181.398723 295.777316,182.206015 293.308565,183.268515 C290.845024,184.325805 288.397108,185.502889 285.949191,186.679973 C281.282524,189.002889 277.199191,191.237264 273.735649,193.627889 C270.266899,196.018515 268.584608,197.560181 268.699191,198.377889 C268.876275,199.659139 269.443983,200.294556 270.610649,200.127889 C271.673149,200.09664 273.7044,199.336223 276.688775,197.726848 C278.235649,196.914348 279.917941,196.206015 281.501275,195.622681 C283.084608,195.044556 284.235649,194.763307 284.933565,194.664348 C286.011691,194.752889 286.527316,195.034139 286.480441,195.518515 C286.3294,196.133097 285.626275,197.898723 284.152316,200.956015 C283.334608,202.737264 282.095024,205.763307 280.355441,210.284139 C278.615857,214.804973 276.990857,219.315389 275.485649,223.804973 C274.647108,226.299764 273.876275,228.429973 273.292941,230.174764 C272.589816,231.935181 272.100232,233.549764 271.683565,234.794556 C270.563775,237.804973 269.626275,239.601848 268.907524,240.414348 C268.074191,241.247681 266.891899,242.127889 265.459608,242.919556 C262.475232,244.528931 260.891899,245.940389 260.824191,247.138307 C260.522108,248.372681 261.766899,248.789348 264.563775,248.393515 C266.199191,248.164348 267.147108,248.153931 267.647108,248.320597 C268.027316,248.502889 268.110649,249.086223 267.975232,249.815389 C266.5794,255.956015 265.667941,262.143515 265.2044,268.153931 C264.662733,274.409139 264.782524,280.331015 265.334608,285.961223 Z" id="Path" fill="#FFFFFF" fill-rule="nonzero"></path>
            <path d="M317.210767,276.284545 C317.689933,277.164753 318.788892,277.367879 320.4191,277.138712 L321.351392,277.008503 C323.434725,276.597045 327.632641,275.175169 333.809725,272.638712 C336.742017,271.513712 339.674308,270.388712 342.689933,269.013712 C345.617017,267.888712 348.518059,266.529337 351.4191,265.169961 C356.663892,262.76892 361.346183,260.565795 365.309725,258.341836 C369.2941,256.237671 371.695141,254.711628 372.726392,253.617879 C373.127433,253.08142 373.429516,252.685587 373.393059,252.451212 C373.361808,252.216836 372.9816,252.034545 372.465975,251.753295 C371.851392,251.602253 370.215975,251.83142 367.4191,252.222045 C364.538892,252.867879 361.5441,253.524128 358.429516,254.201212 C356.247225,254.748087 354.200351,255.388712 352.367017,255.888712 C350.434725,256.513712 348.8566,257.091836 347.721183,257.492879 C346.6066,258.003295 345.590975,258.383503 344.674308,258.633503 C343.757641,258.878295 343.174308,258.961628 343.023267,258.748087 C342.778475,258.664753 343.059725,257.315795 343.752433,254.602253 C344.320141,251.909545 345.309725,248.800169 346.465975,245.190795 C346.768059,243.95642 347.268059,242.461628 347.840975,240.597045 C348.309725,238.867879 348.877433,237.008503 349.518059,234.779337 C350.637849,230.935587 351.830559,226.727253 353.070141,222.034545 C354.330559,217.461628 355.486808,213.024128 356.559725,208.83142 C358.054516,202.560587 359.533684,197.003295 360.992017,192.164753 C362.2316,187.472045 363.070141,184.977253 363.252433,184.597045 C363.450351,184.33142 364.684725,183.800169 367.184725,182.972045 C369.564933,182.164753 372.309725,181.419961 375.528475,180.612671 C381.486808,179.060587 385.236808,177.821004 386.882641,176.873087 C387.783684,176.508503 388.085767,176.112671 388.018059,175.64392 C387.971183,175.294961 387.434725,174.89392 386.554516,174.544961 C384.429516,173.774128 381.064933,173.534545 376.6066,173.925169 L373.1066,174.414753 C369.7316,174.888712 366.268059,175.617879 362.705559,176.472045 C360.189933,177.185587 357.689933,178.008503 355.309725,178.821004 C352.809725,179.649128 350.679516,180.544961 348.679516,181.534545 C345.148267,183.461628 343.314933,184.789753 343.429516,185.602253 C343.429516,186.435587 345.226392,186.539753 348.955559,186.013712 C350.820141,185.753295 352.351392,185.654337 353.314933,185.758503 C354.278475,185.857461 354.893059,186.008503 354.960767,186.477253 C355.007641,186.826212 354.455559,188.805379 353.299308,192.414753 C352.158684,196.138712 350.736808,200.378295 349.148267,205.117879 C345.929516,214.367879 343.4191,222.680379 341.622225,230.185587 C339.726392,237.821004 338.377433,245.138712 337.580559,252.14392 C337.210767,254.571004 336.903475,256.638712 336.471183,258.597045 C336.033684,260.560587 335.596183,261.690795 335.398267,261.95642 C335.096183,262.357461 334.012849,263.102253 332.278475,264.300169 C330.314933,265.524128 328.215975,266.654337 326.012849,267.914753 C321.715975,270.300169 318.9816,271.992879 317.934725,272.972045 C317.096183,273.805379 316.846183,274.55017 316.960767,275.367879 C317.012849,275.716836 317.059725,276.065795 317.210767,276.284545 Z" id="Path" fill="#FFFFFF" fill-rule="nonzero"></path>
        </g>
    </g>
</svg>