<?xml version="1.0" encoding="UTF-8"?>
<svg width="339px" height="339px" viewBox="0 0 339 339" version="1.1" xmlns="http://www.w3.org/2000/svg" xmlns:xlink="http://www.w3.org/1999/xlink">
    <title>pUSDT</title>
    <defs>
        <linearGradient x1="76.2262818%" y1="0.519209642%" x2="23.6511094%" y2="99.5097915%" id="linearGradient-1">
            <stop stop-color="#00EAFF" offset="0%"></stop>
            <stop stop-color="#0080FF" offset="25.2530882%"></stop>
            <stop stop-color="#8000FF" offset="49.7394282%"></stop>
            <stop stop-color="#E619E6" offset="74.9912298%"></stop>
            <stop stop-color="#FF0000" offset="99.9136118%"></stop>
        </linearGradient>
    </defs>
    <g id="Page-1" stroke="none" stroke-width="1" fill="none" fill-rule="evenodd">
        <g id="pUSDT" fill-rule="nonzero">
            <circle id="Oval" fill="url(#linearGradient-1)" cx="169.5" cy="169.5" r="169.5"></circle>
            <path d="M267.867579,79 L267.867579,114.628573 L194.394112,114.628573 L194.394112,139.331116 C245.996689,141.970902 284.712722,152.813143 285,165.808702 L285,192.900068 C284.711099,205.895626 245.996689,216.73746 194.394112,219.377246 L194.394112,280 L145.606294,280 L145.606294,219.377246 C94.0033114,216.73746 55.2872784,205.895626 55,192.900068 L55,165.808702 C55.2889014,152.813143 94.0033114,141.970902 145.606294,139.331116 L145.606294,114.628573 L72.1324208,114.628573 L72.1324208,79 L267.867579,79 Z M194.394112,158.557221 L194.394112,184.420619 C186.531693,184.822891 178.370228,185.034806 170.000203,185.034806 C161.629772,185.034806 153.468307,184.822891 145.606294,184.420619 L145.606294,158.557221 C101.741162,160.801242 67.1894478,168.971971 57.6370367,179.354181 C68.9017566,191.597258 114.930403,200.765329 170.000203,200.765329 C225.069597,200.765329 271.098649,191.597258 282.362963,179.354181 C272.810552,168.971971 238.258838,160.801242 194.394112,158.557221 Z" id="USDT" fill="#FFFFFF"></path>
        </g>
    </g>
</svg>