<svg width="1024" height="1024" viewBox="0 0 1024 1024" fill="none" xmlns="http://www.w3.org/2000/svg">
<g clip-path="url(#clip0_159_122)">
<path d="M512 1024C794.77 1024 1024 794.77 1024 512C1024 229.23 794.77 0 512 0C229.23 0 0 229.23 0 512C0 794.77 229.23 1024 512 1024Z" fill="#00FF55"/>
<path d="M512 956C757.215 956 956 757.215 956 512C956 266.785 757.215 68 512 68C266.785 68 68 266.785 68 512C68 757.215 266.785 956 512 956Z" fill="black"/>
<path fill-rule="evenodd" clip-rule="evenodd" d="M506.594 282.444C547.938 282.444 581.455 249.885 581.455 209.722C581.455 169.559 547.938 137 506.594 137C465.249 137 431.733 169.559 431.733 209.722C431.733 249.885 465.249 282.444 506.594 282.444ZM827.975 324.608H196L254.537 427.091H450.215V492.33H292.63L351.229 597.343H450.215V769.14L511.988 876.152L572.606 769.14V597.343H671.061L731.92 492.33H572.606V427.091H768.829L827.975 324.608Z" fill="white"/>
</g>
<defs>
<clipPath id="clip0_159_122">
<rect width="1024" height="1024" fill="white"/>
</clipPath>
</defs>
</svg>
