<?xml version="1.0" encoding="UTF-8"?>
<svg width="1024px" height="1024px" viewBox="0 0 1024 1024" version="1.1" xmlns="http://www.w3.org/2000/svg" xmlns:xlink="http://www.w3.org/1999/xlink">
    <title>eHEX</title>
    <defs>
        <linearGradient x1="75%" y1="11.8521234%" x2="25.0657%" y2="88.2593389%" id="linearGradient-1">
            <stop stop-color="#FF00FF" offset="0%"></stop>
            <stop stop-color="#FF3333" offset="50%"></stop>
            <stop stop-color="#FFDD00" offset="100%"></stop>
        </linearGradient>
    </defs>
    <g id="Page-1" stroke="none" stroke-width="1" fill="none" fill-rule="evenodd">
        <g id="eHEX" fill-rule="nonzero">
            <circle id="Oval" fill="#627EEA" cx="512" cy="512" r="512"></circle>
            <circle id="Oval" fill="#FFFFFF" cx="512" cy="512" r="425"></circle>
            <path d="M316.211709,823.029323 L266.061662,736.188839 C264.504302,732.970211 264.504302,729.21579 266.061662,725.997161 L321.781003,629.519467 C323.760968,626.488195 327.062138,624.577404 330.676038,624.370822 L442.06193,624.370822 C445.681608,624.581663 448.989045,626.490419 450.983359,629.519467 L506.676306,725.997161 C508.288228,729.240223 508.288228,733.05139 506.676306,736.294452 L450.824991,832.719337 C448.830229,835.666228 445.607712,837.549873 442.06193,837.84158 L341.99939,837.84158 C331.57313,837.169021 322.048086,831.697906 316.211709,823.029323 Z M677.819938,624.450033 L566.96194,432.233939 C564.222642,428.122929 559.722854,425.525681 554.793955,425.210659 L332.814013,425.210659 C327.885115,425.525681 323.385326,428.122929 320.646028,432.233939 L209.656058,624.555645 C207.467548,628.981932 207.467548,634.17592 209.656058,638.602207 L242.306377,694.999675 L299.213482,596.462524 C302.330769,591.706592 307.502751,588.694332 313.176311,588.330305 L459.403289,588.330305 C465.118588,588.649338 470.341514,591.668444 473.471694,596.462524 L546.611579,723.19841 C549.19862,728.311067 549.19862,734.350193 546.611579,739.462849 L489.704474,838 L554.71477,838 C559.657085,837.707428 564.169627,835.093028 566.882755,830.950316 L677.819938,638.655013 C680.061034,634.185373 680.061034,628.919673 677.819938,624.450033 Z M879.211966,497.265291 L709.097729,202.181903 C703.218863,193.204871 693.416288,187.566565 682.702968,187 L342.210548,187 C331.497229,187.566565 321.694654,193.204871 315.815787,202.181903 L145.622367,497.265291 C140.792544,506.791386 140.792544,518.050194 145.622367,527.576289 L184.660219,595.195165 L297.735376,399.097785 C301.612592,393.181004 308.068064,389.457373 315.129523,389.064528 L572.240892,389.064528 C579.295345,389.457226 585.742837,393.181907 589.608646,399.097785 L718.124737,621.756894 C721.318364,628.064283 721.318364,635.516024 718.124737,641.82341 L604.944002,837.84158 L682.808546,837.84158 C693.521866,837.275016 703.324441,831.63671 709.203307,822.659676 L879.396729,527.602694 C884.20109,518.070522 884.20109,506.823863 879.396729,497.291694 L879.211966,497.265291 Z" id="HEX" fill="url(#linearGradient-1)"></path>
        </g>
    </g>
</svg>