<?xml version="1.0" encoding="UTF-8"?>
<svg width="1000px" height="1000px" viewBox="0 0 1000 1000" version="1.1" xmlns="http://www.w3.org/2000/svg" xmlns:xlink="http://www.w3.org/1999/xlink">
    <title>pDAI</title>
    <defs>
        <linearGradient x1="76.2262818%" y1="0.519209642%" x2="23.6511094%" y2="99.5097915%" id="linearGradient-1">
            <stop stop-color="#00EAFF" offset="0%"></stop>
            <stop stop-color="#0080FF" offset="25.2530882%"></stop>
            <stop stop-color="#8000FF" offset="49.7394282%"></stop>
            <stop stop-color="#E619E6" offset="74.9912298%"></stop>
            <stop stop-color="#FF0000" offset="99.9136118%"></stop>
        </linearGradient>
    </defs>
    <g id="Page-1" stroke="none" stroke-width="1" fill="none" fill-rule="evenodd">
        <g id="pDAI" fill-rule="nonzero">
            <path d="M500,0 C776.167762,0 1000,223.877239 1000,500 C1000,776.167762 776.167762,1000 500,1000 C223.877239,1000 0,776.145261 0,500 C0,223.877239 223.877239,0 500,0 Z" id="Path" fill="url(#linearGradient-1)"></path>
            <path d="M518.427684,535.302853 L708.419584,535.302853 C712.469625,535.302853 714.382144,535.302853 714.674647,529.9928 C716.227162,510.665107 716.227162,491.224912 714.674647,471.874719 C714.674647,468.117181 712.807128,466.564666 708.734587,466.564666 L330.618306,466.564666 C325.938259,466.564666 324.678247,468.117181 324.678247,472.504725 L324.678247,528.125281 C324.678247,535.302853 324.678247,535.302853 332.170822,535.302853 L518.427684,535.302853 L518.427684,535.302853 Z M693.456935,401.561516 C693.99694,400.144001 693.99694,398.591486 693.456935,397.196472 C690.284403,390.288903 686.526865,383.696337 682.161822,377.508775 C675.591756,366.933669 667.851679,357.191072 659.03159,348.438484 C654.869049,343.150932 650.054001,338.403384 644.653947,334.375844 C617.608676,311.358114 585.455855,295.067951 550.895509,286.877869 C533.457835,282.96283 515.637656,281.095311 497.772478,281.252813 L329.9658,281.252813 C325.285753,281.252813 324.655747,283.120331 324.655747,287.192872 L324.655747,398.118981 C324.655747,402.799028 324.655747,404.059041 330.595806,404.059041 L691.206912,404.059041 C691.206912,404.059041 694.334443,403.429034 694.96445,401.561516 L693.434434,401.561516 L693.456935,401.561516 Z M693.456935,600.306003 C688.146881,599.720997 682.791828,599.720997 677.481775,600.306003 L330.933309,600.306003 C326.253263,600.306003 324.678247,600.306003 324.678247,606.561066 L324.678247,715.01215 C324.678247,720.0072 324.678247,721.267213 330.933309,721.267213 L490.932409,721.267213 C498.582486,721.852219 506.232562,721.312213 513.725137,719.714697 C536.945369,718.04968 559.783098,713.00963 581.563316,704.707047 C589.483395,701.96202 597.133471,698.384484 604.356044,694.086941 L606.538565,694.086941 C644.04644,674.579246 674.511745,643.933939 693.726937,606.313563 C693.726937,606.313563 695.909459,601.588516 693.456935,600.351004 L693.456935,600.306003 Z M261.880119,777.495275 L261.880119,775.627756 L261.880119,702.817028 L261.880119,678.134281 L261.880119,604.693547 C261.880119,600.621006 261.880119,600.0135 256.885069,600.0135 L189.069391,600.0135 C185.311853,600.0135 183.759338,600.0135 183.759338,595.01845 L183.759338,535.640356 L256.255063,535.640356 C260.305103,535.640356 261.880119,535.640356 261.880119,530.330303 L261.880119,471.582216 C261.880119,467.824678 261.880119,466.902169 256.885069,466.902169 L189.069391,466.902169 C185.311853,466.902169 183.759338,466.902169 183.759338,461.907119 L183.759338,406.916569 C183.759338,403.474035 183.759338,402.551526 188.754388,402.551526 L255.940059,402.551526 C260.620106,402.551526 261.880119,402.551526 261.880119,396.611466 L261.880119,228.174782 C261.880119,223.179732 261.880119,221.919719 268.135181,221.919719 L502.497525,221.919719 C519.507695,222.594726 536.405364,224.462245 553.123031,227.544775 C587.570876,233.912339 620.668707,246.219962 650.931509,263.792638 C671.00171,275.605256 689.474395,289.870399 705.922059,306.295563 C718.297183,319.143191 729.457295,333.04833 739.357394,347.853479 C749.189992,362.861129 757.357574,378.903789 763.770138,395.666457 C764.557646,400.0315 768.742687,402.97903 773.107731,402.236522 L829.04329,402.236522 C836.220862,402.236522 836.220862,402.236522 836.535865,409.121591 L836.535865,460.377104 C836.535865,465.372154 834.668347,466.632166 829.650797,466.632166 L786.517865,466.632166 C782.152822,466.632166 780.892809,466.632166 781.207812,472.257223 C782.917829,491.292413 782.917829,510.395104 781.207812,529.430294 C781.207812,534.740347 781.207812,535.370354 787.170372,535.370354 L836.513365,535.370354 C838.695887,538.182882 836.513365,540.99541 836.513365,543.830438 C836.828368,547.452975 836.828368,551.120511 836.513365,554.743047 L836.513365,592.565926 C836.513365,597.875979 834.96085,599.450995 830.258303,599.450995 L771.195212,599.450995 C767.077671,598.663487 763.072631,601.296013 762.127621,605.391054 C748.064981,641.95392 725.564756,674.736747 696.494465,701.01701 C685.874359,710.579606 674.714247,719.579696 663.059131,727.882279 C650.549005,735.082351 638.376384,742.574926 625.551256,748.514985 C601.948519,759.135091 577.198272,766.96517 551.795518,771.937719 C527.675277,776.257763 503.217532,778.215282 478.669787,777.877779 L261.790118,777.877779 L261.790118,777.562776 L261.880119,777.495275 Z" id="DAI" fill="#FEFEFD"></path>
        </g>
    </g>
</svg>