<?xml version="1.0" encoding="UTF-8"?>
<svg width="741px" height="884px" viewBox="0 0 741 884" version="1.1" xmlns="http://www.w3.org/2000/svg" xmlns:xlink="http://www.w3.org/1999/xlink">
    <title>GENI</title>
    <defs>
        <linearGradient x1="-4.54544989e-16%" y1="43.0872482%" x2="100%" y2="43.0872482%" id="linearGradient-1">
            <stop stop-color="#F17E68" offset="0%"></stop>
            <stop stop-color="#FED933" offset="100%"></stop>
        </linearGradient>
        <linearGradient x1="100%" y1="45.8068172%" x2="2.43837014e-15%" y2="45.8068172%" id="linearGradient-2">
            <stop stop-color="#FCA74E" offset="0%"></stop>
            <stop stop-color="#FA5744" offset="100%"></stop>
        </linearGradient>
    </defs>
    <g id="Page-1" stroke="none" stroke-width="1" fill="none" fill-rule="evenodd">
        <g id="GENI" transform="translate(0.500000, 0.000000)">
            <path d="M364.5,0 C416.5,12 458.166667,33 489.5,63 C520.833333,93 537.833333,126.666667 540.5,164 C579.403676,189.444026 606.070343,209.77736 620.5,225 C655.07654,261.476697 677.730022,307.469762 676.5,321 C674.5,343 669.5,356.666667 661.5,362 C714.166667,408.666667 740.5,445.333333 740.5,472 C740.5,498.666667 720.166667,516.666667 679.5,526 C684.833333,510.666667 678.833333,493.666667 661.5,475 C644.166667,456.333333 612.166667,435.666667 565.5,413 C566.833333,425.666667 576.5,439.333333 594.5,454 C612.5,468.666667 632.5,485.666667 654.5,505 C611.374306,500.568748 583.040973,495.235415 569.5,489 C517.208098,464.920365 498.825458,440.234061 482.5,458 C471.2858,470.203688 471.934704,500.69719 482.5,532 C488.121513,548.655392 497.756908,566.183423 507.726495,583.628706 L509.302881,586.382397 C509.565896,586.841185 509.829009,587.29988 510.092151,587.758466 L511.670834,590.508528 C517.982724,601.502401 524.23479,612.413123 529.5,623 C546.636851,657.457454 555.5,688.209335 555.5,703 C555.5,730.333333 552.166667,749.333333 545.5,760 C537.5,721.333333 525.5,690.333333 509.5,667 C485.5,632 459.5,615 421.5,575 C396.166667,548.333333 362.833333,493.333333 321.5,410 C334.833333,464.666667 357.833333,515.666667 390.5,563 C439.5,634 510.5,670 516.5,754 C520.5,810 512.166667,853.333333 491.5,884 C426.833333,828.666667 391.5,796.333333 385.5,787 C376.5,773 381.329982,717.84947 364.5,653 C356.883502,623.652026 325.810274,572.365145 301.5,495 C293.832275,470.59819 285.498941,427.931524 276.5,367 C272.674401,407.603147 276.007734,450.269813 286.5,495 C302.238399,562.09528 344.5,603 352.5,691 C357.833333,749.666667 349.166667,811.333333 326.5,876 C307.362755,827.624012 292.029422,791.624012 280.5,768 C268.970578,744.375988 250.303911,710.709322 224.5,667 C231.204155,658.148408 235.204155,627.481741 236.5,575 C237.295499,542.7823 228.686132,500.94852 227.5,450 C227.002637,428.636527 228.669304,392.969861 232.5,343 C223.890618,383.120427 218.890618,416.120427 217.5,442 C214.527506,497.318474 220.242286,578.061711 217.5,600 C212.833333,637.333333 199.166667,679.666667 176.5,727 C115.303462,654.187999 83.9701285,589.187999 82.5,532 C81.0298715,474.812001 109.029871,410.145334 166.5,338 C131.363043,365.853824 108.02971,390.853824 96.5,413 C84.97029,435.146176 74.6369567,474.812842 65.5,532 C42.8333333,512 30.1666667,494.666667 27.5,480 C24.8333333,465.333333 31.8333333,436.333333 48.5,393 L12.5,454 C2.5,436 -1.5,414 0.5,388 C3.5,349 70.5,278 110.5,245 C137.166667,223 171.5,205.333333 213.5,192 L107.5,169 L267.5,94 L200.5,59 C239.882762,52.3802098 271.882762,48.7135431 296.5,48 C321.117238,47.2864569 358.117238,48.9531235 407.5,53 Z M530.5,259 C530.853338,274.448063 530.853338,285.448063 530.5,292 C529.255755,315.072007 527.006907,330.714579 541.5,341 C562.166667,355.666667 587.5,357.666667 617.5,347 C600.166667,345 588.833333,336.666667 583.5,322 C578.166667,307.333333 560.5,286.333333 530.5,259 Z" id="Head" fill="url(#linearGradient-1)"></path>
            <path d="M385.5,733 L386.5848,734.1584 C396.2616,744.3728 429.9,777.32 487.5,833 L517.030567,762.766825 C519.585358,814.541917 511.075169,854.952975 491.5,884 L483.8808,877.4704 C424.0536,826.1168 391.26,795.96 385.5,787 C379.650111,777.900173 379.643167,751.414907 375.733298,716.181104 L376.271745,717.372705 C379.6652,724.802603 382.741166,730.011263 385.5,733 Z M283.5,733 L284.569123,735.065987 C295.677017,756.694611 308.653976,787.005948 323.5,826 C331.951098,807.257484 338.284431,785.590817 342.5,761 L342.861476,758.853663 C346.022537,739.751845 348.870297,713.757398 351.404756,680.870321 C351.820481,684.176203 352.186541,687.55195 352.5,691 C357.833333,749.666667 349.166667,811.333333 326.5,876 L323.096378,867.425983 C305.723257,823.817474 291.640139,790.912957 280.847024,768.712433 L279.443081,765.846724 C267.844155,742.34695 249.529794,709.398042 224.5,667 C227.094394,663.574584 229.283826,656.882231 231.068294,646.922941 L234.658104,652.396352 C257.070817,686.671453 273.351322,713.539648 283.5,733 Z M304.5,346 C342.5,431.333333 376.833333,492 407.5,528 L410.240904,531.209024 C454.6988,583.1208 484.04,610.6 510.5,640 C527.241924,658.602138 540.811819,693.929519 551.209685,745.982145 C549.703647,751.647151 547.80024,756.319616 545.5,760 C537.5,721.333333 525.5,690.333333 509.5,667 C485.5,632 459.5,615 421.5,575 C396.166667,548.333333 362.833333,493.333333 321.5,410 C322.339114,413.440369 323.216515,416.866216 324.132202,420.27754 L323.5,419 L304.5,346 Z M123.5,610 C139.5,632.666667 155.833333,655.333333 172.5,678 C185.349687,655.136687 195.016354,633.136687 201.5,612 L201.900041,610.683832 C206.84194,594.276437 212.081868,571.406537 217.619827,542.074132 L217.933275,555.513384 C218.370306,575.580357 218.518875,591.849001 217.5,600 C212.833333,637.333333 199.166667,679.666667 176.5,727 C115.303462,654.187999 83.9701285,589.187999 82.5,532 C82.3209712,525.03578 82.5789784,517.960652 83.2740216,510.774618 C95.248949,555.897878 108.657337,588.972894 123.5,610 Z M201.5,294 L165.548,338.756 L165.449432,338.834759 C130.897557,366.353539 107.914413,391.075286 96.5,413 C84.97029,435.146176 74.6369567,474.812842 65.5,532 L64.152,530.8032 C42.3306667,511.307733 30.1133333,494.373333 27.5,480 C26.1510933,472.581013 27.2756364,461.494498 30.8736291,446.740453 L62.5,481 C76.0744482,432.661234 91.4077816,396.994567 108.5,374 C125.592218,351.005433 156.592218,324.338766 201.5,294 Z M565.604348,413.050692 L564.5,412 L566.855559,412.454968 C605.084502,419.907783 631.299315,428.422794 645.5,438 C667.235742,452.658989 687.460022,483.023284 693.5,499 C696.094617,505.863181 697.017364,513.286408 696.268242,521.269681 C691.127041,523.037603 685.537616,524.614318 679.5,526 C684.833333,510.666667 678.833333,493.666667 661.5,475 C644.179589,456.34725 612.214372,435.69748 565.604348,413.050692 Z M512.5,419 C523.33509,419 549.708308,444.592209 591.619652,495.776628 C582.069281,493.652285 574.695715,491.392549 569.5,489 C517.208098,464.920365 498.825458,440.234061 482.5,458 C476.716899,464.293374 474.088682,475.450755 474.348367,489.074794 L473.996412,486.552209 C472.332437,474.399248 471.5,464.881599 471.5,458 C471.5,442 495.5,419 512.5,419 Z M14.5,423 L52.5,386 L45.2219546,401.6739 C46.2695905,398.849392 47.3622722,395.958092 48.5,393 L12.5,454 C2.5,436 -1.5,414 0.5,388 C0.774047976,384.437376 1.5821567,380.607722 2.85495846,376.564398 C6.27483727,394.344043 10.1558269,409.822889 14.5,423 Z M319.392277,164.281585 C320.496712,164.264643 321.405969,165.14603 321.423404,166.250465 C321.437732,167.186766 320.800704,168.007831 319.890147,168.226365 L196.061696,197.945817 C201.71969,195.876397 207.532458,193.894458 213.5,192 L107.5,169 L110.634,167.531 L319.392277,164.281585 Z M364.5,0 C416.5,12 458.166667,33 489.5,63 C520.833333,93 537.833333,126.666667 540.5,164 C542.2143,165.121198 543.90484,166.232471 545.571618,167.333822 L512.5,154 C510.355281,119.643942 497.688615,95.6439424 480.5,78 C463.655157,60.7089365 427.261994,33.7128486 365.320509,1.01173619 L364.5,0 Z M385.168577,51.2708147 L385.5,52 L370.179908,53.8637828 C334.619242,58.2173753 306.492795,61.8630621 285.800565,64.8008432 L280.788741,65.5196194 L277.5,66 C257.885635,68.8880046 241.98883,71.658756 229.809585,74.3122541 L200.5,59 L203.235656,58.5429456 C241.367141,52.2112643 272.455256,48.6969491 296.5,48 L297.851214,47.9635357 C318.529835,47.4460953 347.635623,48.5485216 385.168577,51.2708147 Z" id="Shadow" fill="url(#linearGradient-2)" opacity="0.6"></path>
        </g>
    </g>
</svg>