<?xml version="1.0" encoding="UTF-8"?>
<svg width="693px" height="647px" viewBox="0 0 693 647" version="1.1" xmlns="http://www.w3.org/2000/svg" xmlns:xlink="http://www.w3.org/1999/xlink">
    <title>YEP</title>
    <defs>
        <linearGradient x1="76.2262818%" y1="6.87007329%" x2="23.6511094%" y2="93.1552056%" id="linearGradient-1">
            <stop stop-color="#00EAFF" offset="0%"></stop>
            <stop stop-color="#0080FF" offset="25%"></stop>
            <stop stop-color="#8000FF" offset="50%"></stop>
            <stop stop-color="#E619E6" offset="75%"></stop>
            <stop stop-color="#FF0000" offset="100%"></stop>
        </linearGradient>
        <path d="M138.03087,438 L138.03087,348.978516 L50.9781355,200.347656 L111.230089,200.347656 L163.157823,294.371094 L214.950792,200.347656 L273.230089,200.347656 L185.853136,350.302734 L185.853136,438 L138.03087,438 Z M279.309118,438 L279.309118,200.347656 L436.522009,200.347656 L436.522009,240.550781 L327.293493,240.550781 L327.293493,293.236328 L421.605993,293.236328 L422.605993,336.277344 L328.293493,336.277344 L327.293493,397.958984 L433.061071,397.958984 L433.061071,438 L279.309118,438 Z M459.999476,438 L459.999476,200.347656 L537.001429,200.347656 C566.181116,200.347656 585.20195,201.536458 594.063929,203.914062 C607.681116,207.480469 619.082809,215.234701 628.269007,227.176758 C637.455205,239.118815 642.048304,254.546224 642.048304,273.458984 C642.048304,288.048828 639.400517,300.315104 634.104944,310.257812 C628.809371,320.200521 622.081832,328.008789 613.922327,333.682617 C605.762822,339.356445 597.468226,343.111979 589.038538,344.949219 C577.582809,347.21875 560.993616,348.353516 539.27096,348.353516 L507.983851,348.353516 L507.983851,438 L459.999476,438 Z M507.983851,240.550781 L507.983851,307.988281 L534.245569,307.988281 C553.15833,307.988281 565.802861,306.745443 572.179163,304.259766 C578.555465,301.774089 583.553838,297.883464 587.17428,292.587891 C590.794723,287.292318 592.604944,281.132161 592.604944,274.107422 C592.604944,265.461589 590.065231,258.328776 584.985804,252.708984 C579.906377,247.089193 573.476038,243.576823 565.694788,242.171875 C559.966924,241.091146 548.457158,240.550781 531.165491,240.550781 L507.983851,240.550781 Z" id="path-2"></path>
        <filter x="-2.3%" y="-2.1%" width="104.0%" height="108.4%" filterUnits="objectBoundingBox" id="filter-3">
            <feMorphology radius="2.5" operator="dilate" in="SourceAlpha" result="shadowSpreadOuter1"></feMorphology>
            <feOffset dx="0" dy="5" in="shadowSpreadOuter1" result="shadowOffsetOuter1"></feOffset>
            <feColorMatrix values="0 0 0 0 0   0 0 0 0 0   0 0 0 0 0  0 0 0 0.5 0" type="matrix" in="shadowOffsetOuter1"></feColorMatrix>
        </filter>
    </defs>
    <g id="Page-1" stroke="none" stroke-width="1" fill="none" fill-rule="evenodd">
        <g id="YEP" fill-rule="nonzero">
            <path d="M693,360.854563 C693,364.167273 692.238405,367.316425 690.794061,370.049339 L542.178003,629.236432 C535.875195,640.228567 524.227126,647 511.62151,647 L181.378491,647 C168.772875,647 157.124804,640.228567 150.821997,629.236432 L2.1920578,370.02464 C0.751932009,367.296269 0,364.162259 0,360.854563 C0,350.126777 8.63697302,341.430191 19.2912201,341.430191 L182.351005,341.430191 L223.67458,412.105557 L223.928579,412.527849 C229.443044,421.443045 241.045818,424.348713 250.085864,418.989884 L250.085864,418.989884 L250.5537,418.70349 C254.721868,416.069647 257.739393,411.926024 258.975248,407.115537 L258.975248,407.115537 L311.630377,202.155946 L356.842852,532.129032 L356.911355,532.589047 C358.581344,542.969547 368.188257,550.161338 378.589573,548.71643 L378.589573,548.71643 L379.06206,548.644818 C386.592847,547.407731 392.711081,541.806315 394.629518,534.338928 L394.629518,534.338928 L458.098228,287.289982 L484.157927,331.860444 L484.41667,332.290207 C487.933624,337.96537 494.115191,341.430191 500.78214,341.430191 L500.78214,341.430191 L673.708779,341.430191 L673.708779,341.430191 C684.363028,341.430191 693,350.126777 693,360.854563 Z M511.62151,0 C524.227126,0 535.875195,6.77143309 542.178003,17.7635673 L690.80334,276.962452 C692.240629,279.692508 693,282.839897 693,286.145437 C693,296.873223 684.363028,305.569809 673.708779,305.569809 L510.114777,305.569809 L468.791201,234.894443 L468.506771,234.423381 C465.890982,230.22644 461.775764,227.188088 456.998252,225.943704 L456.998252,225.943704 L456.549677,225.832504 C446.380113,223.438839 436.120095,229.649066 433.490532,239.884465 L433.490532,239.884465 L380.833923,444.84256 L335.622931,114.870968 L335.551808,114.395217 C334.323202,106.812449 328.760184,100.651989 321.343984,98.7203114 C311.029262,96.033664 300.504497,102.275155 297.836265,112.661072 L297.836265,112.661072 L234.36607,359.708525 L208.307855,315.139556 L208.049113,314.709796 C204.532159,309.034633 198.350591,305.569809 191.683644,305.569809 L191.683644,305.569809 L19.2912201,305.569809 L19.2912201,305.569809 C8.63697302,305.569809 0,296.873223 0,286.145437 C0,282.865239 0.731743373,279.76289 2.1453359,277.051105 L150.821997,17.7635673 C157.124804,6.77143309 168.772875,0 181.378491,0 L511.62151,0 Z" id="PLS" fill="url(#linearGradient-1)"></path>
            <g>
                <use fill="black" fill-opacity="1" filter="url(#filter-3)" xlink:href="#path-2"></use>
                <use fill="#03A103" xlink:href="#path-2"></use>
            </g>
        </g>
    </g>
</svg>