<?xml version="1.0" encoding="UTF-8"?>
<svg width="180px" height="180px" viewBox="0 0 180 180" version="1.1" xmlns="http://www.w3.org/2000/svg" xmlns:xlink="http://www.w3.org/1999/xlink">
    <title>WBNB</title>
    <g id="Page-1" stroke="none" stroke-width="1" fill="none" fill-rule="evenodd">
        <g id="WBNB" fill-rule="nonzero">
            <circle id="Oval" fill="#F0B90B" cx="90" cy="90" r="90"></circle>
            <path d="M114.905724,100.496 L129.220724,114.795 L129.213724,114.803 L90.3057238,153.711 L51.4097238,114.816 L51.3897238,114.796 L65.7177238,100.508 L90.3057238,125.095 L114.905724,100.496 Z M90.3057238,75.88 L104.823724,90.398 L104.823724,90.413 L90.3057238,104.931 L75.8007238,90.426 L75.7807238,90.405 L78.3437238,87.842 L79.5757238,86.609 L90.3057238,75.88 Z M139.306084,76.1032478 L153.612838,90.4100021 L139.305377,104.717463 L124.998622,90.4107092 L139.306084,76.1032478 Z M41.3074614,76.0965072 L55.6142157,90.4032615 L41.3067543,104.710723 L27,90.4039686 L41.3074614,76.0965072 Z M90.3057238,27.1 L129.213724,66.009 L114.906724,80.316 L90.3057238,55.716 L65.7177238,80.303 L51.4107238,65.996 L90.3057238,27.1 Z" id="Shape" fill="#FFFFFF"></path>
            <g id="TokensExpress" transform="translate(135.000000, 123.000000)" fill="#FFFFFF">
                <path d="M39.9582396,11.6173622 C38.6746057,10.0864491 35.5701532,6.9772529 35.4061932,6.813611 C34.543246,5.94372507 33.6802989,5.07599233 32.8173517,4.21256595 C31.6221698,3.01754939 30.426988,1.82037966 29.2339635,0.61890355 C28.8647797,0.209582134 28.3335865,-0.0165050923 27.7820549,0.00094003345 C26.2891563,0.0181654973 24.798415,0.0160123143 23.2990443,0.0117059484 L21.6465004,0.0117059484 C21.3833015,0.0117059484 21.1718795,0.227024247 21.1718795,0.489712571 L21.1718795,0.526316682 C21.2107121,0.909583253 21.4113473,1.2583989 21.7241657,1.48448311 L21.8277193,1.58568271 C25.8943579,5.648739 29.9674686,9.70748893 34.0427367,13.7640857 C36.7545482,16.4426453 38.3984626,19.6724198 38.9248603,23.3091458 C38.9442766,23.4491027 38.9787945,23.5869064 39.0111551,23.7268633 L39.0413582,23.8495948 C39.093135,25.8111445 39.0564598,27.9104979 38.4847573,29.9732472 C37.7297943,32.7256119 36.2712185,35.2349565 34.2520014,37.255312 C33.5594862,37.9550965 32.860499,38.6462682 32.1615118,39.33744 C31.2511025,40.2374705 30.3406933,41.1353478 29.4453856,42.0504505 C29.3720351,42.1322715 29.2857403,42.2054797 29.1929735,42.2657688 C29.1088362,42.220552 29.0354857,42.1581097 28.9772367,42.0805951 C28.2372595,41.2473133 27.4282465,40.3881933 26.5048931,39.4537119 L25.8943579,38.8357483 C24.3302662,37.255312 22.7165549,35.618893 21.0834274,34.0513758 C20.4987807,33.489395 19.9227634,32.9144951 19.357533,32.3417485 C18.9260595,31.9111119 18.4881138,31.4804753 18.0458533,31.0498387 C16.5148755,29.6158003 15.6053369,27.6418743 15.510946,25.5484561 C15.6641191,23.4383368 16.5766858,21.6727268 18.3004227,20.1762646 C18.6218706,19.8920444 18.91743,19.5776797 19.1827862,19.2417832 C20.1039824,18.1092089 20.0392613,16.4684835 19.0317705,15.4112707 C18.002706,14.3066878 16.2746542,14.1538118 15.1808687,15.0710677 C11.4378353,18.2168681 9.70762621,21.5306167 9.73998673,25.5032393 C9.52424994,27.2753089 10.0118151,28.9009621 10.5166392,30.2596205 C11.1576697,31.9495886 12.159588,33.4800423 13.452817,34.7447007 L17.8991523,39.1781044 C21.3940884,42.6641077 24.8847097,46.1522641 28.3710163,49.6468801 C28.5976876,49.9249094 28.9278766,50.0990105 29.2857403,50.1291931 C29.6654371,50.1291931 29.9588391,49.8837302 30.2198807,49.6188887 C31.8292772,47.9910824 33.4473031,46.3718888 35.0718012,44.7613079 C36.185003,43.6524187 37.2960475,42.5413763 38.407092,41.4303338 C41.8308301,38.033714 44.0508872,33.6150644 44.7303375,28.8449793 C44.9741201,27.2257857 45.1510242,25.4860138 44.8123175,23.7160974 C44.3830012,18.9554098 42.7887063,15.0000127 39.9582396,11.6173622 Z" id="Path"></path>
                <path d="M25.7886469,52.4826221 C25.2514623,51.9809305 24.7250645,51.4447879 24.2159257,50.9258708 C23.4565321,50.1550313 22.6734076,49.3562004 21.8190899,48.6370373 C21.4070326,48.268843 21.0208637,47.8726573 20.664898,47.4484803 C20.4491612,47.1965579 20.2161655,46.9446355 19.978855,46.7056322 C18.647759,45.3448205 17.2692009,43.9904684 15.9381048,42.67918 C15.3405139,42.091361 14.742923,41.5056952 14.1496468,40.9157231 C13.4096696,40.1836409 12.6740071,39.4214141 11.9642331,38.6828724 C11.3170227,38.019692 10.6849139,37.3543584 10.0226019,36.701944 C8.26650442,34.9449467 7.08858152,32.6948705 6.19974593,29.4091132 C5.98618209,28.5115815 5.86545638,27.5945473 5.83946548,26.6724177 C5.8114197,26.2417811 5.78121654,25.793919 5.73591182,25.3546697 C5.97322229,21.263622 7.28274464,17.8788184 9.73782936,15.0193914 C10.0528051,14.6511971 10.4044561,14.2937687 10.7453202,13.9427999 C10.8984933,13.7877707 11.0538238,13.6305883 11.2048396,13.4712528 C11.6945621,12.9609484 12.2144878,12.4549504 12.7149971,11.9640247 C13.6577669,11.0812197 14.5509173,10.1467383 15.3922908,9.16488682 C15.4224939,9.12612952 15.4721134,9.06799358 15.5131034,9.02492992 C15.5282049,9.03784902 15.5476212,9.0529213 15.5691949,9.07445313 C18.0140102,11.5428706 20.4712836,13.9989659 22.9409212,16.4426453 L27.5015971,20.9966273 C28.2307874,21.7265563 28.6708905,22.6438123 29.0117546,23.4491027 C29.7970365,26.4269548 29.054902,28.9009621 26.7400462,31.0132346 C26.3882389,31.3270351 26.0560967,31.6621285 25.7454995,32.0166178 C24.8264037,33.1322391 24.8372966,34.7439853 25.771388,35.8471304 C26.7831935,37.0141555 28.4637832,37.2294738 29.594244,36.3380561 C34.0578382,32.8240614 35.9218042,28.2786922 34.9876638,23.1885676 C34.9704049,23.0981339 34.9315723,23.0120066 34.8754807,22.9387984 C34.1959098,19.4226506 31.9436177,17.039077 29.6977976,14.8988131 C28.3192395,13.5896778 26.7033709,12.026467 25.1673249,10.3771288 C23.7175737,8.82253072 22.0822888,7.20333712 20.1708608,5.42480797 C19.0274557,4.36328876 17.9358276,3.19195722 16.8808746,2.05938297 L16.4709747,1.62874637 C16.2683887,1.37455404 15.9708456,1.21363272 15.6468602,1.18303749 C15.3097837,1.20939888 14.9980939,1.37194085 14.783913,1.63305274 C13.7354322,2.64289556 12.708525,3.64843201 11.6902474,4.65612165 C9.82843882,6.4712549 7.91269608,8.34667728 6.1069791,10.2716229 C2.06838631,14.5779888 0.0188867543,19.6595007 0.0167293863,25.3568229 C-0.186063201,30.5072366 1.45569381,35.3562046 4.89453832,39.7723829 C5.50723082,40.5303034 6.16738541,41.2494665 6.87068736,41.9255659 L9.53287941,44.5610619 C13.452817,48.4669358 17.5151408,52.5041539 21.473911,56.4918488 C21.7371099,56.7566903 22.0348267,57 22.4188382,57 L22.4404118,57 C22.797648,56.9616265 23.1231633,56.7777594 23.3400343,56.4918488 C24.0627525,55.6930179 24.863136,54.9243316 25.6354738,54.1836367 L25.7972764,54.0264543 C26.0320577,53.8350839 26.1747066,53.5534687 26.1899173,53.2513084 C26.1683437,52.9498628 26.0216426,52.6721022 25.7886469,52.4826221 L25.7886469,52.4826221 Z" id="Path"></path>
            </g>
        </g>
    </g>
</svg>