<svg width="1024" height="1024" viewBox="0 0 1024 1024" fill="none" xmlns="http://www.w3.org/2000/svg">
<g clip-path="url(#clip0_215_66)">
<path d="M512 1024C794.77 1024 1024 794.77 1024 512C1024 229.23 794.77 0 512 0C229.23 0 0 229.23 0 512C0 794.77 229.23 1024 512 1024Z" fill="black"/>
<path d="M838.607 677.558L729.819 791.183C727.454 793.651 724.592 795.619 721.413 796.964C718.233 798.309 714.803 799.002 711.337 799H195.63C193.169 799 190.762 798.299 188.704 796.986C186.646 795.671 185.028 793.801 184.047 791.603C183.066 789.405 182.766 786.976 183.183 784.614C183.6 782.252 184.717 780.061 186.396 778.309L295.266 664.684C297.624 662.222 300.476 660.258 303.645 658.914C306.815 657.569 310.234 656.872 313.691 656.867H829.371C831.831 656.867 834.238 657.567 836.297 658.881C838.353 660.195 839.971 662.066 840.956 664.264C841.935 666.462 842.235 668.891 841.817 671.252C841.4 673.614 840.284 675.806 838.607 677.558ZM729.819 448.75C727.454 446.282 724.592 444.314 721.413 442.969C718.233 441.625 714.803 440.932 711.337 440.934H195.63C193.169 440.934 190.762 441.633 188.704 442.948C186.646 444.262 185.028 446.133 184.047 448.33C183.066 450.529 182.766 452.958 183.183 455.319C183.6 457.681 184.717 459.872 186.396 461.625L295.266 575.25C297.624 577.711 300.476 579.675 303.645 581.02C306.815 582.364 310.234 583.061 313.691 583.066H829.371C831.831 583.066 834.238 582.367 836.297 581.052C838.353 579.738 839.971 577.867 840.956 575.67C841.935 573.471 842.235 571.042 841.817 568.681C841.4 566.319 840.284 564.128 838.607 562.375L729.819 448.75ZM195.63 367.133H711.337C714.803 367.135 718.233 366.442 721.413 365.097C724.592 363.752 727.454 361.784 729.819 359.316L838.607 245.691C840.284 243.939 841.4 241.748 841.817 239.386C842.235 237.024 841.935 234.595 840.956 232.397C839.971 230.199 838.353 228.329 836.297 227.014C834.238 225.7 831.831 225 829.371 225H313.691C310.234 225.006 306.815 225.702 303.645 227.047C300.476 228.392 297.624 230.356 295.266 232.817L186.424 346.442C184.747 348.192 183.63 350.382 183.212 352.74C182.794 355.1 183.092 357.527 184.069 359.724C185.046 361.921 186.661 363.791 188.714 365.108C190.768 366.424 193.171 367.128 195.63 367.133Z" fill="url(#paint0_linear_215_66)"/>
</g>
<defs>
<linearGradient id="paint0_linear_215_66" x1="238.627" y1="812.68" x2="763.473" y2="205.165" gradientUnits="userSpaceOnUse">
<stop offset="0.08" stop-color="#9945FF"/>
<stop offset="0.3" stop-color="#8752F3"/>
<stop offset="0.5" stop-color="#5497D5"/>
<stop offset="0.6" stop-color="#43B4CA"/>
<stop offset="0.72" stop-color="#28E0B9"/>
<stop offset="0.97" stop-color="#19FB9B"/>
</linearGradient>
<clipPath id="clip0_215_66">
<rect width="1024" height="1024" fill="white"/>
</clipPath>
</defs>
</svg>
