<?xml version="1.0" encoding="UTF-8"?>
<svg id="Layer_2" data-name="Layer 2" xmlns="http://www.w3.org/2000/svg" xmlns:xlink="http://www.w3.org/1999/xlink" viewBox="0 0 2390.26 2472.82">
  <defs>
    <style>
      .cls-1, .cls-2 {
        fill: #fff;
      }

      .cls-3 {
        fill: #020300;
      }

      .cls-4 {
        fill: #010103;
      }

      .cls-5, .cls-2 {
        stroke-width: 22px;
      }

      .cls-5, .cls-2, .cls-6, .cls-7, .cls-8, .cls-9, .cls-10, .cls-11, .cls-12 {
        stroke: #000;
        stroke-miterlimit: 10;
      }

      .cls-5, .cls-9 {
        fill: none;
      }

      .cls-6, .cls-7, .cls-9, .cls-10, .cls-11, .cls-12 {
        stroke-width: 15px;
      }

      .cls-6, .cls-8 {
        fill: #fdda00;
      }

      .cls-7, .cls-13 {
        fill: #ab0000;
      }

      .cls-14 {
        fill: #179fcd;
      }

      .cls-8 {
        stroke-width: 10px;
      }

      .cls-15, .cls-12 {
        fill: #fe0000;
      }

      .cls-10 {
        fill: url(#linear-gradient);
      }

      .cls-11 {
        fill: url(#linear-gradient-2);
      }
    </style>
    <linearGradient id="linear-gradient" x1="1895.64" y1="1625.73" x2="1581.47" y2="2157.41" gradientUnits="userSpaceOnUse">
      <stop offset=".03" stop-color="#fe0000"/>
      <stop offset=".47" stop-color="#d40000"/>
      <stop offset="1" stop-color="#a40000"/>
    </linearGradient>
    <linearGradient id="linear-gradient-2" x1="1564.24" y1="2363.32" x2="-175.43" y2="-79.47" gradientUnits="userSpaceOnUse">
      <stop offset=".03" stop-color="#fe0000"/>
      <stop offset=".21" stop-color="#ec0000"/>
      <stop offset="1" stop-color="#a40000"/>
    </linearGradient>
  </defs>
  <g id="Layer_1-2" data-name="Layer 1">
    <g>
      <path class="cls-6" d="M1627.91,1085.18s29.04-48.22,43.55-100.46c14.52-52.24,26.8-137.11,26.8-137.11l-52.49-5.58-5.58-45.79-62.54,22.33v27.92l-49.14,29.04,23.45,37.97-33.5,32.39s39.09,40.2,52.49,74.82c13.4,34.62,5.58,91.57,5.58,91.57l45.79-13.4,5.58-13.69Z"/>
      <path class="cls-6" d="M2171.76,757.7s50.81,55.28,74.26,95.48c23.45,40.2,41.35,86.87,41.35,86.87l67.38-6.94s16.21-43.08,24.37-93.33,0-93.25,0-93.25l-42.09-15.63-5.03-23.45-60.61-12.28-29.85-51.93-59.75,59.75,21.22,30.71-31.27,24.01Z"/>
      <path class="cls-6" d="M2300.41,1014.31c-8.12,1.76-16.33-2.51-19.57-10.16-4.25-10.05-9.41-23.12-9.41-29.41-.01-31.1,19.83-45.61,52.22-46.73,32.39-1.12,52.49,13.4,55.28,37.97,1.23,10.85-3.1,25.54-7.19,36.46-3.17,8.45-12.11,13.26-20.92,11.27-9.67-2.18-22.09-4.26-30.52-3.06-6.75,.96-13.92,2.37-19.88,3.66Z"/>
      <path class="cls-6" d="M1557.98,1130.98c1.68-13.46,10-25.16,21.78-31.87,16.56-9.43,45.86-21.42,71.6-7.8,33.03,17.47,3.24,72.71,3.24,72.71,0,0-22.18-22.7-37.3-16.02-15.11,6.69-20.24,32.32-20.24,32.32,0,0-27.23-15.57-35.05-27.85-3.91-6.14-5.03-13.68-4.05-21.5Z"/>
      <path class="cls-6" d="M1640.2,1150.24s88.5,87.38,192.36,90.74c103.86,3.35,242.05-30.15,323.58-90.74,82.55-61.35,120.61-113.91,141.83-149.64,21.22-35.74,62.54,0,62.54,0,0,0,13.96,442.21-24.57,633.19-46.18,228.92-92.97,346.75-155.23,431.06,0,0-46.9,70.35-173.09,17.87-126.19-52.49-142.94-68.12-250.15-161.93-107.21-93.81-283.17-403.63-283.17-403.63,0,0,103.37-105.61,123.47-344.59,3.97-47.21,42.44-22.33,42.44-22.33Z"/>
      <path class="cls-7" d="M1631.26,1204.96s-27.92,180.91-62.54,246.8-77.4,94.77-77.4,94.77c0,0,154.42,262.1,221.39,327.9,66.96,65.8,229.19,232.46,356.31,218.34,98.31-10.92,141.94-194.32,171.42-277.23,16.06-45.18,51.09-198.38,67-318.27,9.84-74.13,24.51-391.7,19.54-446.42,0,0-12.28,20.1-50.25,62.54-37.97,42.44-88.79,91.79-174.21,126.19-80.41,32.39-163.04,44.67-280.3,39.09-117.26-5.58-190.96-73.7-190.96-73.7Z"/>
      <g>
        <path class="cls-10" d="M1658.06,1273.08s-29.04,155.23-74.82,222.23c-45.79,67-74.82,81.52-74.82,81.52l157.93,241.46,153.66,156.28s119.47,91.4,176.42,100.33c56.95,8.93,74.82,6.7,74.82,6.7,0,0,56.95-79.29,107.21-240.1s78.42-287.28,92.69-427.71c9.6-94.5,11.17-244.01,11.17-244.01,0,0-47.26,44.72-75.94,61.31-74.87,43.29-111.67,69.91-213.3,84.43-101.62,14.52-267.25-4.17-335.02-42.44Z"/>
        <path d="M2064.55,2088.01c-9.97,0-30.95-1.04-69.07-7.02-57.84-9.07-174.28-97.76-179.21-101.53l-.35-.26-.3-.31-154.09-156.71-.33-.51-161.72-247.25,6.19-3.1c.25-.13,28.54-15.17,72.49-79.49,44.52-65.16,73.56-218.35,73.85-219.89l1.59-8.47,7.51,4.24c31.07,17.54,86.67,32.22,152.53,40.26,64.65,7.89,129.75,8.42,178.59,1.44,90.17-12.88,127.54-34.77,189.45-71.04,6.92-4.05,14.07-8.24,21.64-12.62,27.73-16.03,74.32-60,74.79-60.45l10.55-9.99-.15,14.53c-.02,1.5-1.68,150.87-11.2,244.57-14.06,138.41-40.99,262.68-92.94,428.93-26.09,83.49-54.02,144.69-72.85,181.33-20.49,39.87-34.64,59.7-35.23,60.52l-1.57,2.19-2.67,.33c-.26,.03-2.49,.29-7.47,.29Zm-240.45-118.08c7.08,5.37,120,90.52,173.29,98.88,43.32,6.8,63.75,7.03,70.49,6.82,9.63-14.32,60.09-93.2,104.7-235.96,51.69-165.4,78.47-288.96,92.44-426.49,7.73-76.12,10.25-189.44,10.93-229.12-15.75,14.27-45.59,40.3-66.48,52.38-7.54,4.36-14.68,8.54-21.58,12.58-61.04,35.76-101.37,59.39-193.94,72.61-49.87,7.12-116.14,6.61-181.83-1.41-62.49-7.63-116.26-21.27-149.61-37.81-6.73,33.31-33.73,157.19-74.19,216.39-34.89,51.05-60.4,72.31-71.32,79.92l154.16,235.7,152.93,155.52Z"/>
      </g>
      <path class="cls-8" d="M1798.38,1312.19c-16.21-2.02-19.68-2.84-34.93-5.71l7.37,2.66c-2.13,.97-4.6,2.12-7.49,1.96-10.86-.6-86.28-25.36-86.28-25.36l33.5,42.81c12.01,18.33,31.98,51.02,33.19,108.07-7.17-5.13-14.35-10.28-21.48-15.99-25.89-20.73-44.61-49.08-53.95-80.92l-13.74-46.88,3.74-19.6c-.08-.05-.17-.09-.25-.14,0,0-21.64,115.66-57,190.4h7.33c4.2-.02,19.93-1.6,45.81-21.74,8.91-6.93,15.1-15.6,19.4-24.38,29.73,35.78,73.89,61.03,76.32,62.4l20.3,11.47,3.99-22.97c8.8-50.65-7.5-95.53-22.3-123.75,22.85-1.27,40.08-19.96,46.47-32.31Zm-174.94,102.72l26.07-95.62s-22.76,80.4-26.07,95.62Z"/>
      <path class="cls-8" d="M2271.9,1358.7c1.86-31.27,4.05-106.09,4.05-106.09l-40.9,57.7c-19.47,23.51-41.27,46.42-79.16,74.91,2.13-12.87,5.44-28.25,10.54-43.56,4.22-12.66,21.59-79.46,33.27-100.91l1.85-3.4-33.5,20.1c-.18,.03-8.3,8.43-18.68,9.84-22.15,12.47-43.77,22.13-69.25,29.96,2.77,2.65,6.64,4.67,11.83,5.28,16.01,1.88,36.94,.34,53.57-1.61-2.77,7.99-6.19,18.02-10.3,30.34-13.97,41.92-15.83,83.18-15.91,84.92l-1.13,27.05,24.52-11.47c34.02-15.91,67.5-49.11,88.64-72.84,1.26,5.67,2.61,11.6,3.99,17.38,7.25,30.34,23.86,59.13,32.55,72.82,1.23-11.69,2.32-23.45,3.26-35.32,.71-8.9,1.39-17.72,2.04-26.43-2.32-6.09-1.68-22.18-1.29-28.66Z"/>
      <path class="cls-6" d="M1943.36,2083.54l-107.74-44.9-1.35-.91-105.43-70.86-113.08-201.6,41.63,15.86c1.34,.35,11.46,2.67,27.73-1.08,16.6-3.83,43.05-14.88,74.83-45.81,59.84-58.25,81.65-106.62,81.86-107.1l24.81-56.04,6.57,60.93c.13,1.22,11.46,103,43.91,176,25.13,56.55,87.63,114.62,88.26,115.2l19.96,18.43-25.58,9.14c-11.57,4.17-44.51,19.53-57.51,40.16-14.87,23.6-6.52,60.75-6.43,61.12l7.56,31.47Zm-92.09-74.01l49.26,20.53c-.2-17.03,2.46-38.54,13.88-56.65,12.51-19.85,34.48-34.34,51.3-43.21-22.02-22.86-59.34-65.38-78.65-108.83-20.48-46.07-32.86-101.16-39.65-139.37-14.13,20.58-35.06,47.12-64.52,75.8-31.08,30.25-62.65,48.77-93.82,55.03-2.85,.57-5.57,1.01-8.17,1.35l72.79,129.77,97.58,65.59Z"/>
      <path class="cls-13" d="M2051.03,1305.01c-1.6,.37-3.22,.73-4.85,1.09,1.59,11.73,2.24,28.83-3.08,45.91-5.83,18.7-24.31,35.79-37.55,46.1,2.7-7.04,5.92-16.44,9.32-28.5,7.14-25.34-6.26-32.85-10.54-34.54-10.14-4.02-22.86,.55-27.77,9.99-4.78,9.18-4.5,15.8-4.15,24.17,.26,6.18,.59,13.88-.96,25.48-2.59,19.41-18.38,35.69-29.74,45.1,5.29-19.27,9.67-46.07,1.97-57.24-2.5-3.62-6.07-5.54-10.34-5.54-19.5,0-21.84,16.36-25.07,39-.32,2.26-.66,4.62-1.03,7.08-1.87,12.53-2.03,22.13-2.17,30.6-.17,10.07-.31,18.77-3.3,29.69-3.66,13.4-16.43,29.39-24.09,38.1-2.44-10.02-5.82-27.36-4.76-43.18,.76-11.34,3.71-18.29,6.84-25.65,3.6-8.46,7.32-17.21,8.23-32.45,1.1-18.38-6.09-34.94-16.03-36.9-.52-.1-1.17-.19-1.92-.19-3.44,0-8.88,1.77-12.29,11.74-3.79,11.07-6.47,25.31-8.15,36.17-3.12-6.79-6.04-13.87-6.56-17.55-2.32-16.15,3.49-29.58,7.34-38.47,2.14-4.95,3.68-8.52,3.57-11.68-.37-9.88-7.92-18.78-17.56-20.69-8.55-1.7-16.35,2.68-20.35,11.42-2.98,6.52-3.51,18.63-3.13,30.47-2.37-6.51-4.92-14.04-7.48-22.52-5.3-17.54,.23-35.02,7-48.01-1.75-.21-3.5-.43-5.25-.66l73.1,1.58,105.53-2.79,65.21-7.15Z"/>
      <path d="M2064.55,2088.01c-9.97,0-30.95-1.04-69.07-7.02-57.84-9.07-174.28-97.76-179.21-101.53l-.35-.26-.3-.31-154.09-156.71-.33-.51-161.72-247.25,6.19-3.1c.25-.13,28.54-15.17,72.49-79.49,44.52-65.16,73.56-218.35,73.85-219.89l1.59-8.47,7.51,4.24c31.07,17.54,86.67,32.22,152.53,40.26,64.65,7.89,129.75,8.42,178.59,1.44,90.17-12.88,127.54-34.77,189.45-71.04,6.92-4.05,14.07-8.24,21.64-12.62,27.73-16.03,74.32-60,74.79-60.45l10.55-9.99-.15,14.53c-.02,1.5-1.68,150.87-11.2,244.57-14.06,138.41-40.99,262.68-92.94,428.93-26.09,83.49-54.02,144.69-72.85,181.33-20.49,39.87-34.64,59.7-35.23,60.52l-1.57,2.19-2.67,.33c-.26,.03-2.49,.29-7.47,.29Zm-240.45-118.08c7.08,5.37,120,90.52,173.29,98.88,43.32,6.8,63.75,7.03,70.49,6.82,9.63-14.32,60.09-93.2,104.7-235.96,51.69-165.4,78.47-288.96,92.44-426.49,7.73-76.12,10.25-189.44,10.93-229.12-15.75,14.27-45.59,40.3-66.48,52.38-7.54,4.36-14.68,8.54-21.58,12.58-61.04,35.76-101.37,59.39-193.94,72.61-49.87,7.12-116.14,6.61-181.83-1.41-62.49-7.63-116.26-21.27-149.61-37.81-6.73,33.31-33.73,157.19-74.19,216.39-34.89,51.05-60.4,72.31-71.32,79.92l154.16,235.7,152.93,155.52Z"/>
      <path d="M1800.72,1363.47c10.03,33.23,19.81,52,19.81,52,0,0-6.27-45.62,0-59.33,7.69-16.81,27.94-7.22,28.49,7.4,.25,6.52-14.52,25.13-10.85,50.66,1.31,9.17,14.21,33.65,14.21,33.65,0,0,3.21-31.41,10.05-51.37,6.83-19.93,22.15-1.34,20.66,23.45-1.67,27.92-13.4,32.94-15.08,58.07-1.68,25.13,7.26,53.42,7.26,53.42,0,0,25.55-25.78,31.27-46.72,5.72-20.94,1.54-33.73,5.58-60.86,4.04-27.13,4.47-41.88,21.22-41.88s8.26,46.66-.95,70.78c0,0,39.48-23.88,43.95-57.38,3.67-27.51-2.83-33.78,4.59-48.02,7.42-14.24,38.97-13.76,29.19,20.94-8.78,31.18-16.34,44.19-16.34,44.19,0,0,43.98-26.74,54.03-58.98,5.67-18.2,4.94-36.22,3.23-48.47-1.6,.37-3.22,.73-4.85,1.09,1.59,11.73,2.24,28.83-3.08,45.91-5.83,18.7-24.31,35.79-37.55,46.1,2.7-7.04,5.92-16.44,9.32-28.5,7.14-25.34-6.26-32.85-10.54-34.54-10.14-4.02-22.86,.55-27.77,9.99-4.78,9.18-4.5,15.8-4.15,24.17,.26,6.18,.59,13.88-.96,25.48-2.59,19.41-18.38,35.69-29.74,45.1,5.29-19.27,9.67-46.07,1.97-57.24-2.5-3.62-6.07-5.54-10.34-5.54-19.5,0-21.84,16.36-25.07,39-.32,2.26-.66,4.62-1.03,7.08-1.87,12.53-2.03,22.13-2.17,30.6-.17,10.07-.31,18.77-3.3,29.69-3.66,13.4-16.43,29.39-24.09,38.1-2.44-10.02-5.82-27.36-4.76-43.18,.76-11.34,3.71-18.29,6.84-25.65,3.6-8.46,7.32-17.21,8.23-32.45,1.1-18.38-6.09-34.94-16.03-36.9-.52-.1-1.17-.19-1.92-.19-3.44,0-8.88,1.77-12.29,11.74-3.79,11.07-6.47,25.31-8.15,36.17-3.12-6.79-6.04-13.87-6.56-17.55-2.32-16.15,3.49-29.58,7.34-38.47,2.14-4.95,3.68-8.52,3.57-11.68-.37-9.88-7.92-18.78-17.56-20.69-8.55-1.7-16.35,2.68-20.35,11.42-2.98,6.52-3.51,18.63-3.13,30.47-2.37-6.51-4.92-14.04-7.48-22.52-5.3-17.54,.23-35.02,7-48.01-1.75-.21-3.5-.43-5.25-.66-6.81,13.65-12.03,31.68-6.47,50.09Z"/>
      <polygon class="cls-6" points="1160.86 233.95 1184.32 25.12 1032.44 8.37 1032.44 35.17 993.82 85.73 1012.34 127.86 987.77 162.48 1065.94 277.51 1153.05 255.17 1160.86 233.95"/>
      <polyline class="cls-6" points="1032.44 8.37 1068.43 169.74 1169.02 161.32"/>
      <path d="M991.72,156.91c16.01-26.09,34.44-50.52,53.43-74.47,0,0,7.6-9.5,7.6-9.5l2.94,12.02c4.12,17.19,7.88,34.87,11.19,52.26,2.03,10.97,4.13,22.85,5.73,33.84-2.63,2.78-5.31,5.55-8,8.28-6.93,7.03-13.95,13.96-21.32,20.55,3.43-5.64,7.05-11.13,10.76-16.58,3.7-5.43,7.47-10.8,11.32-16.11,0,0-.82,3.4-.82,3.4-2.04-6.85-3.95-13.72-5.83-20.6-4.55-16.98-8.88-34.81-12.58-51.96-.76-3.48-1.52-6.96-2.23-10.46,0,0,10.54,2.52,10.54,2.52-19.83,23.26-40.24,46.06-62.75,66.81h0Z"/>
      <line class="cls-6" x1="1113.83" y1="17.35" x2="1116.81" y2="165.69"/>
      <polygon class="cls-6" points="178.38 1047.5 178.38 890.04 147.12 897.86 137.07 837.55 68.94 858.77 68.94 881.1 25.39 922.42 36.56 952.58 9.76 989.43 115.85 1099.99 170.57 1075.42 178.38 1047.5"/>
      <path class="cls-6" d="M1094.28,292.02s0,50.81-92.69,216.09c-75.54,134.7-197.1,333.35-314.36,432.18-117.26,98.83-168.88,131.84-234.46,159.69-57.84,24.57-177.68,50.25-243.4,12.28s-36.39,8.93-36.39,8.93c0,0-30.19-56.5-31.43,11.55-1.98,107.61,47.32,335.25,82.64,451.9,42.92,141.76,147.16,348.1,261.32,471.26,131.45,141.83,277.12,239.54,399.4,293.14,122.28,53.6,312.29,142.46,594.66,108.88,225.42-26.8,485.78-152.43,581.26-241.22s142.46-177.88,177.13-250.73c34.67-72.85-15.43,31.59-15.43,31.59,0,0-35.6,71.66-94.46,84.26-58.86,12.59-208.85-38.81-327.96-148.22-125.83-115.58-212.94-227.81-353.65-525.23-72.89-154.05-136.08-287.2-181.3-468.11-45.23-180.91-113.16-572.55-96.32-675.07,11.28-68.68-74.54,26.8-74.54,26.8Z"/>
      <path class="cls-6" d="M212.72,1116.18s12.84-40.2-14.24-56.95c-22.57-13.96-36.85-10.61-64.77,5.03-27.92,15.63-40.42,37.81-26.8,67,7.82,16.75,17.39,27.23,27.44,27.23s14.16-29.19,33.14-41.47c18.98-12.28,45.23-.84,45.23-.84Z"/>
      <path class="cls-6" d="M1070.97,338.93s-24.01-20.1-25.13-42.44,42.44-52.49,63.65-58.07c21.22-5.58,67-7.82,74.82,7.82,7.82,15.63,1.12,45.79-6.7,63.65-7.82,17.87-22.84-15.67-60.81-3.39-37.97,12.28-24.62,31.31-45.84,32.42Z"/>
      <path class="cls-15" d="M259.91,1261.91s169.74-2.36,294.82-81.59c125.07-79.22,326.09-286.94,361.82-331.61,35.74-44.67,147.41-241.22,147.41-241.22,0,0,20.1,189.37,44.67,332.55,24.57,143.18,169.74,500.79,276.95,677.11s295.94,424.24,412.64,493.47,191.62,79.37,239.54,69.24c47.92-10.13,77.94-33.56,77.94-33.56,0,0-57.65,68.35-183.94,150.34-126.28,81.99-171.2,125.4-338.46,144.53-167.27,19.13-274.57,26.8-405.3-24.57-130.73-51.37-395.65-192.96-533.88-318.6-145.45-132.2-231.17-291.14-287-405.05s-107.21-337.26-107.21-431.06Z"/>
      <path class="cls-15" d="M259.91,1261.91s169.74-2.36,294.82-81.59c125.07-79.22,326.09-286.94,361.82-331.61,35.74-44.67,147.41-241.22,147.41-241.22,0,0,20.1,189.37,44.67,332.55,24.57,143.18,169.74,500.79,276.95,677.11s295.94,424.24,412.64,493.47,191.62,79.37,239.54,69.24c47.92-10.13,77.94-33.56,77.94-33.56,0,0-57.65,68.35-183.94,150.34-126.28,81.99-171.2,125.4-338.46,144.53-167.27,19.13-274.57,26.8-405.3-24.57-130.73-51.37-395.65-192.96-533.88-318.6-145.45-132.2-231.17-291.14-287-405.05s-107.21-337.26-107.21-431.06Z"/>
      <path class="cls-15" d="M259.91,1261.91s169.74-2.36,294.82-81.59c125.07-79.22,326.09-286.94,361.82-331.61,35.74-44.67,147.41-241.22,147.41-241.22,0,0,20.1,189.37,44.67,332.55,24.57,143.18,169.74,500.79,276.95,677.11s295.94,424.24,412.64,493.47,191.62,79.37,239.54,69.24c47.92-10.13,77.94-33.56,77.94-33.56,0,0-57.65,68.35-183.94,150.34-126.28,81.99-171.2,125.4-338.46,144.53-167.27,19.13-274.57,26.8-405.3-24.57-130.73-51.37-395.65-192.96-533.88-318.6-145.45-132.2-231.17-291.14-287-405.05s-107.21-337.26-107.21-431.06Z"/>
      <path d="M141.57,856.53c7.3,42.74,10.06,86.02,11.73,129.28,0,0,.12,3.34,.12,3.34l-2.62,1.85c-13.55,9.61-28.43,19.89-42.34,28.87-14.4,9.31-28.93,18.36-44.05,26.52,18.62-17.75,38.57-33.93,58.8-49.75,5.05-3.92,15.28-11.68,20.4-15.49,0,0-2.5,5.19-2.5,5.19-2.09-43.24-3.11-86.6,.45-129.81h0Z"/>
      <path class="cls-15" d="M259.91,1261.91s169.74-2.36,294.82-81.59c125.07-79.22,326.09-286.94,361.82-331.61,35.74-44.67,147.41-241.22,147.41-241.22,0,0,20.1,189.37,44.67,332.55,24.57,143.18,169.74,500.79,276.95,677.11s295.94,424.24,412.64,493.47,191.62,79.37,239.54,69.24c47.92-10.13,77.94-33.56,77.94-33.56,0,0-57.65,68.35-183.94,150.34-126.28,81.99-171.2,125.4-338.46,144.53-167.27,19.13-274.57,26.8-405.3-24.57-130.73-51.37-395.65-192.96-533.88-318.6-145.45-132.2-231.17-291.14-287-405.05s-107.21-337.26-107.21-431.06Z"/>
      <path class="cls-15" d="M259.91,1261.91s169.74-2.36,294.82-81.59c125.07-79.22,326.09-286.94,361.82-331.61,35.74-44.67,147.41-241.22,147.41-241.22,0,0,20.1,189.37,44.67,332.55,24.57,143.18,169.74,500.79,276.95,677.11s295.94,424.24,412.64,493.47,191.62,79.37,239.54,69.24c47.92-10.13,77.94-33.56,77.94-33.56,0,0-57.65,68.35-183.94,150.34-126.28,81.99-171.2,125.4-338.46,144.53-167.27,19.13-274.57,26.8-405.3-24.57-130.73-51.37-395.65-192.96-533.88-318.6-145.45-132.2-231.17-291.14-287-405.05s-107.21-337.26-107.21-431.06Z"/>
      <path class="cls-15" d="M259.91,1261.91s169.74-2.36,294.82-81.59c125.07-79.22,326.09-286.94,361.82-331.61,35.74-44.67,147.41-241.22,147.41-241.22,0,0,20.1,189.37,44.67,332.55,24.57,143.18,169.74,500.79,276.95,677.11s295.94,424.24,412.64,493.47,191.62,79.37,239.54,69.24c47.92-10.13,77.94-33.56,77.94-33.56,0,0-57.65,68.35-183.94,150.34-126.28,81.99-240.17,131.27-365.25,148.02-166.87,22.35-247.78,23.31-378.52-28.06-130.73-51.37-395.65-192.96-533.88-318.6-145.45-132.2-231.17-291.14-287-405.05s-107.21-337.26-107.21-431.06Z"/>
      <path class="cls-15" d="M259.91,1261.91s169.74-2.36,294.82-81.59c125.07-79.22,326.09-286.94,361.82-331.61,35.74-44.67,147.41-241.22,147.41-241.22,0,0,20.1,189.37,44.67,332.55,24.57,143.18,169.74,500.79,276.95,677.11s295.94,424.24,412.64,493.47,191.62,79.37,239.54,69.24c47.92-10.13,77.94-33.56,77.94-33.56,0,0-57.65,68.35-183.94,150.34-126.28,81.99-244.04,124.98-338.46,144.53-164.86,34.13-274.57,26.8-405.3-24.57-130.73-51.37-395.65-192.96-533.88-318.6-145.45-132.2-231.17-291.14-287-405.05s-107.21-337.26-107.21-431.06Z"/>
      <path class="cls-7" d="M196.81,1170.31s118.03,23.87,210.51,0c92.48-23.87,335.02-197.6,460.1-384.09,125.07-186.5,221.11-358.47,221.11-358.47,0,0,41.85,360.62,99.47,546.95,92.95,300.62,220.31,545.42,320.43,713.69,97.87,164.48,244.56,291.89,346.14,367.52,72.92,54.29,148.57,78.17,230.1,69.27,49.59-5.41,102.48-69.26,102.48-69.26,0,0-79.96,115.22-255.38,230.72-175.42,115.49-399.15,151.2-399.15,151.2l-224.08,17.89s-251.27-27.94-520.93-213.85c-143.45-98.89-278.93-209.42-378.05-369.08-78.42-126.33-126.47-251.55-154.62-339.38-47.61-148.57-60.66-276.34-58.12-363.11Z"/>
      <g>
        <path class="cls-11" d="M259.91,1261.91s169.74-2.36,294.82-81.59c125.07-79.22,326.09-286.94,361.82-331.61,35.74-44.67,147.41-241.22,147.41-241.22,0,0,20.1,189.37,44.67,332.55,24.57,143.18,169.74,500.79,276.95,677.11s295.94,424.24,412.64,493.47,191.62,79.37,239.54,69.24c47.92-10.13,88.22-43.55,88.22-43.55,0,0-42.44,69.24-194.22,160.34-129.1,77.49-213.39,128.89-338.46,144.53-167.06,20.88-274.57,26.8-405.3-24.57-130.73-51.37-395.65-192.96-533.88-318.6-145.45-132.2-231.17-291.14-287-405.05s-107.21-337.26-107.21-431.06Z"/>
        <path d="M1403.48,2462.64c-8.99,0-17.87-.15-26.68-.48-67.49-2.45-128.2-15.1-191.06-39.8-70.03-27.52-171.55-78.04-264.95-131.85-79.81-45.98-191.57-115.9-270.82-187.93-65.65-59.67-123.91-128.54-178.1-210.55-48.18-72.91-84.25-143.23-110.29-196.35-25.94-52.91-53.27-134.68-75-224.33-20.56-84.85-32.84-163.15-32.84-209.44v-6.08l6.08-.09c.42,0,42.78-.72,99.74-11.03,52.37-9.48,128.17-29.25,191.87-69.6,123.91-78.49,324.88-285.97,360.31-330.25,35.02-43.78,145.75-238.45,146.86-240.41l9.47-16.66,2.02,19.06c.2,1.89,20.36,190.81,44.62,332.16,24.66,143.73,171.77,503.28,276.14,674.95,115.86,190.56,301.1,426.46,410.51,491.38,97.47,57.83,176.58,80.88,235.12,68.51,45.9-9.7,85.17-41.94,85.56-42.27l28.62-23.74-19.43,31.7c-.45,.73-11.36,18.3-41.16,47.21-27.22,26.41-76.24,67.83-155.15,115.2l-5.17,3.11c-127.07,76.28-211.01,126.67-335.7,142.25-74.96,9.37-134.85,15.33-190.58,15.33ZM266.14,1267.88c2.1,95.49,52.76,312.74,106.51,422.38,59.11,120.59,144.99,275.39,285.61,403.2,135.26,122.94,400.41,265.72,531.99,317.42,133.78,52.57,246.14,43.71,402.28,24.19,122.1-15.26,205.16-65.12,330.88-140.59l5.18-3.11c77.51-46.52,125.63-87.09,152.35-112.93,5.28-5.11,9.96-9.86,14.08-14.21-15.48,8.55-34.94,17.22-55.98,21.67-61.66,13.04-143.74-10.51-243.96-69.97-68.2-40.46-152.67-135.44-211.52-208-72.04-88.82-146.12-193.63-203.24-287.57-50.92-83.74-112.84-211.99-169.91-351.85-55.84-136.89-96.16-259.28-107.85-327.41-19.81-115.46-36.89-262.48-42.65-314.06-27.82,48.52-108.61,188.13-138.54,225.53-16.61,20.76-73.49,82.09-147.96,153.45-60.53,58-147.02,136.22-215.38,179.52-65.45,41.46-142.99,61.69-196.52,71.36-45.21,8.17-81.45,10.4-95.37,10.98Z"/>
      </g>
      <path class="cls-6" d="M481.34,1470.49l-6.88-60.51c-6.24-54.88-38.93-94.99-62.83-117.52,10.18-4.31,21.8-10.57,33.53-19.67,27.25-21.13,22.21-40.83,24.77-51.27-14.48,5.81-15.05,6.61-29.66,10.03-33.55,7.86-139.63,27.64-139.63,27.64,0,0,45.25,13.61,72.32,32.87,.64,.46,60.78,50.81,68.83,121.63l1.45,12.8c-36.31-10.36-79.3-29.54-95.41-36.67-42.99-19.03-83.25-66.34-83.25-66.34h0c7.97,62.51,25.5,144.28,47.66,220.28,7.8-10.97,12.42-31.58,14.05-62.39,1.36-25.7,1.86-48.07,1.98-65.12,29.18,22.29,119.64,45.73,129.98,48.36l23.08,5.87Z"/>
      <g>
        <path class="cls-13" d="M609.95,1212.1c12.66,2.61,24.57,.74,35.74,53.23,11.17,52.49,100.13,167.46,100.13,167.46,0,0-3.4-104.88-32.97-169.49-29.57-64.61-36.27-82.48-16.17-91.41s55.84,56.82,51.37,109.44c0,0,41.51-91.21,18.98-128.43-22.52-37.22-61.98-52.84-54.85-67.73,15.63-32.64,72.72,15.25,85,69.97,0,0,3.23-116.87-33.01-143.86-8.17-6.09-17.55-7.21-27.19-5.33-63.02,59.86-131.86,119.58-186.74,154.34-25.63,16.24-53.6,28.64-81.87,38.11,.6,20.22,5.64,50.12,27.28,71.77,35.74,35.74,63.84,46.9,63.84,46.9,0,0-32.93-43.45-39.28-66.45-7.22-26.17,3.1-60.7,23.45-53.05,15.86,5.97,7.82,41.32,23.45,70.35,18.74,34.8,68.49,62.91,79.29,63.65,0,0-35.93-55.96-41.32-73.7-9.26-30.49-7.82-48.39,4.84-45.79Z"/>
        <path d="M532.78,1204.95c2.62-2.39,5.31-2.89,8.74-1.6,5.05,1.9,6.54,12.3,8.27,24.33,1.83,12.77,4.11,28.67,11.92,43.18,19.01,35.3,70.16,65.91,84.29,66.88l12.24,.84-6.63-10.33c-9.86-15.37-36.39-58.28-40.61-72.17-7.64-25.14-6.03-35.75-4.11-37.85,.24-.27,.85-.3,1.81-.1,.98,.2,1.96,.38,2.93,.56,5.34,.96,9.2,1.66,13.24,6.7,5.49,6.84,10.33,20.32,14.77,41.22,11.33,53.25,97.62,165.21,101.29,169.95l11.66,15.06-.62-19.04c-.14-4.33-3.79-106.86-33.53-171.85-18.85-41.19-30.21-66.94-26.41-76.98,.65-1.71,2.05-3.97,7.14-6.23,2.13-.95,5.11,.65,7.24,2.16,16.73,11.91,39.01,59.62,35.48,101.12l-3.02,35.53,14.77-32.46c.43-.95,10.67-23.56,18.27-51.17,10.5-38.13,10.63-66.06,.38-83-11.19-18.49-26.03-31.58-37.96-42.1-9.02-7.95-18.34-16.17-16.61-19.78,2.61-5.45,6.51-7.68,12.28-7.03,20.4,2.31,52.62,37.69,61.15,75.68l10.82,48.18,1.36-49.36c.03-1.21,.78-30.03-2.95-62.68-5.14-45.01-16.09-74.05-32.53-86.3-.71-.53-1.43-1.02-2.16-1.49-3.1,2.96-6.22,5.93-9.35,8.9,1.42,.67,2.81,1.49,4.14,2.48,20.31,15.13,27.73,66.01,29.88,104.43-15.09-27.54-38.89-49.81-58.97-52.09-11.07-1.25-19.88,3.7-24.79,13.96-2.77,5.78-1.58,12.07,3.55,18.69,3.76,4.85,9.44,9.86,16.02,15.66,11.3,9.96,25.35,22.36,35.57,39.23,12.63,20.87,2.12,64.55-8.73,95.81-5.24-35.43-22.79-70.41-39.45-82.27-8.58-6.11-15.29-5.22-19.4-3.39-7.04,3.13-11.51,7.42-13.67,13.14-5.31,14.03,3.11,34.86,26.73,86.47,20.96,45.81,28.58,113.32,31.17,146.78-24.63-33.44-78.42-109.68-86.7-148.61-4.92-23.15-10.4-37.88-17.22-46.38-6.93-8.63-14.55-10.01-20.66-11.11-.88-.16-1.75-.32-2.64-.5-1.21-.25-2.39-.37-3.52-.37-3.91,0-7.34,1.45-9.88,4.24-6.81,7.47-6.33,24.21,1.42,49.75,3.73,12.28,20.63,40.79,31.84,59-17.93-9.85-45.52-29.59-58.49-53.66-6.77-12.58-8.79-26.66-10.58-39.08-2.28-15.91-4.25-29.65-16.13-34.12-2.67-1-5.32-1.48-7.89-1.46-5.48,3.09-11.01,6.05-16.6,8.88-9.19,11.84-12.34,33.94-7.07,53.04,3.55,12.86,14.57,31.22,24.2,45.72-10.51-7.15-23.86-17.56-38.47-32.17-13.66-13.66-20.21-31.09-23.2-46.88-3.95,1.52-7.89,2.98-11.84,4.4,3.55,17.15,11.08,35.97,26.32,51.2,36.22,36.22,64.73,47.8,65.93,48.27l20.53,8.16-13.34-17.61c-.32-.43-32.29-42.78-38.25-64.36-4.46-16.17-1.38-36.75,6.6-44.04Z"/>
      </g>
      <path class="cls-6" d="M1108.63,940.05c-3-17.47-5.93-35.64-8.77-54.06l-12.73-60.45-5.95-72.96-28.39,157.56c-.02,.34-2.51,26.8-26.84,84.79-10.83,25.83-36.08,64.44-56.59,87.46-8.13-15.16-19.03-39.37-25.27-69.25-10.82-51.8,4.79-120.38,4.95-121.06l17.07-118.35s-30.68,50.48-42.78,65.97c-27.53,35.28-43.91,46.98-69.43,77.5-5.94,7.1-18.87,16.38-28.07,28.65-10.79,10.87-22.18,22.19-34.02,33.76,5.75,.38,13.02,.63,21,.34,26.26-.96,46.96-7.1,61.52-18.24,11.05-8.45,23.67-19.21,35.12-29.36-2.65,25.88-3.63,58.42,2.45,87.51,12.31,58.89,40.15,97.65,41.32,99.28l11.32,15.56,13.61-13.61c2.73-2.73,67.02-67.46,79.7-118.19,1.53-6.13,2.9-12.07,4.12-17.76,3.56,6.55,7.61,12.95,12.18,18.84,25.1,32.27,49.6,46.87,50.63,47.48l15.62,9.18c-15.26-47.7-26.4-89.28-31.78-120.6Z"/>
      <path class="cls-9" d="M259.91,1261.91s169.74-2.36,294.82-81.59c125.07-79.22,326.09-286.94,361.82-331.61,35.74-44.67,147.41-241.22,147.41-241.22,0,0,20.1,189.37,44.67,332.55,24.57,143.18,169.74,500.79,276.95,677.11s295.94,424.24,412.64,493.47,191.62,79.37,239.54,69.24c47.92-10.13,77.94-33.56,77.94-33.56,0,0-57.65,68.35-183.94,150.34-126.28,81.99-235.72,133.36-338.46,144.53-167.37,18.19-274.57,26.8-405.3-24.57-130.73-51.37-395.65-192.96-533.88-318.6-145.45-132.2-231.17-291.14-287-405.05s-107.21-337.26-107.21-431.06Z"/>
      <path class="cls-6" d="M1384.05,2455.54c62.05,1.42,129.8,1.83,209.24-14.35,90.01-18.33,212.18-62.54,338.46-144.53,14.47-9.4,28.03-18.61,40.72-27.57-24.36,2.1-72.13,2.16-134.05-17.77-88.07-28.34-135.51-163.3-135.97-164.65l-9.58-31.8h0c-17.31,24.77-45.27,40.05-75.47,40.96-8.51,.26-18.38,.13-29.89-.51-111.98-6.26-188.06-118.92-215.57-167.07-46.53-81.43-52.52-181.58-52.58-182.57l-1.08-20-19.41,4.96c-1.38,.35-139.26,35.08-222.97,13.41-82.17-21.26-149.21-80.73-150.03-81.46l-64.58-58.23,38.74,77.51c.63,1.42,11.31,26.39,19.2,91.26,3.97,32.6-5.53,95.32-26.06,172.05-18.45,68.98-37.86,120.32-42.66,127.37l-14.92,21.77,26.12,3.79c1.87,.27,188.22,28.16,316.47,120.77,142.33,102.77,186.08,170.63,198.28,195.04,11.35,22.7,10.83,33.46,10.55,35.69l-2.95,5.92Zm-186.63-263.31c-70.59-50.97-156.82-82.69-216.73-100.31-39.38-11.59-72.42-18.72-92.7-22.59,10.64-26.56,24.98-70.99,36.9-115.53,15.5-57.93,32.76-136.98,26.96-184.63-2.53-20.82-5.34-37.84-8.09-51.6,29.77,20.25,73.8,45.37,123.89,58.33,73.35,18.98,178.22,.12,220.65-9.05,4.09,34.98,16.9,110.94,55.08,177.74,28.05,49.08,62.35,91.36,99.2,122.26,45.21,37.91,93.36,58.55,143.09,61.33,47.51,2.66,76.34-4.27,93.19-11.7,6.3,14.81,16.56,36.66,30.85,59.91,14.92,24.28,31.17,45.08,48.32,61.83,22.06,21.56,45.72,36.5,70.33,44.42,34.9,11.23,65.71,16.67,91.18,18.95-86.38,56.48-137.27,81.3-227.71,105.48-72.31,19.34-205.73,53.11-271.54,48.45-1.32-9.92-5.97-39.42-14.41-56.29-16.51-33.01-65.54-103.8-208.44-206.99Z"/>
      <path class="cls-6" d="M1280.94,2098.03s95.7,89.66,138.14,161.14c42.44,71.47,50.25,154.11,50.25,154.11,0,0,32.39-2.23,60.3,7.82,27.92,10.05,44.16,16.75,44.16,16.75l102.08-18.41c28.04-6.39,80.53-23.95,106.38-36.56l84.4-48.16s-87.99,41.15-152.76-15.24c-47.17-41.07-82.64-123.96-82.64-123.96,0,0-48.58,16.19-139.94-8.93-51.53-14.17-210.38-88.55-210.38-88.55Z"/>
      <path class="cls-7" d="M1152.72,2046.98s41.68-21.89,65.8-75.72c24.12-53.83,23-186.72,23-186.72,0,0-8.93-151.88-16.75-199.9,0,0-36.99,86.25-103.86,167.07-77.06,93.13-117.97,118.82-199.9,146.73-46.92,15.99-137.36,35.74-137.36,35.74,0,0,53.8,37.97,112.89,75.94,59.09,37.97,85.89,50.25,133.91,58.07,48.02,7.82,99.95-4.92,122.27-21.22Z"/>
      <path class="cls-12" d="M1043.86,2068.2s-14.52-30.15,0-55.84c14.52-25.69,50.25-32.39,50.25-32.39,0,0,12.53-41.67,46.92-61.13,42.97-24.3,89.32-20.4,89.32-20.4,0,0,9.27,54.23-36.85,108.32-59.04,69.24-149.64,61.42-149.64,61.42Z"/>
      <path class="cls-2" d="M918.78,2010.13s92.48-36.04,163.04-100.51c70.9-64.77,125.07-146.85,142.94-237.87l-6.7-63.65s-106.09,178.68-184.26,236.75c-78.17,58.07-237.87,94.92-237.87,94.92l109.44,70.35h13.4Z"/>
      <ellipse class="cls-2" cx="976.52" cy="1440.83" rx="139.94" ry="213.58" transform="translate(-763.75 1408.68) rotate(-54.81)"/>
      <ellipse class="cls-2" cx="673.22" cy="1648.84" rx="139.94" ry="213.58" transform="translate(-465.48 279.44) rotate(-17.53)"/>
      <ellipse class="cls-14" cx="639.04" cy="1609.22" rx="106.05" ry="165.43" transform="translate(-489.58 296.14) rotate(-19.02)"/>
      <ellipse class="cls-14" cx="923.54" cy="1415.29" rx="106.05" ry="165.43" transform="translate(-730.26 1067.57) rotate(-45)"/>
      <ellipse class="cls-3" cx="616.94" cy="1597.3" rx="73.57" ry="125.64" transform="translate(-577.2 370.11) rotate(-23.1)"/>
      <ellipse class="cls-4" cx="890.07" cy="1412.49" rx="79.86" ry="125.64" transform="translate(-703.84 915.71) rotate(-40.47)"/>
      <circle class="cls-1" cx="558.27" cy="1570.12" r="27.17"/>
      <circle class="cls-1" cx="823.58" cy="1387.65" r="27.64"/>
      <circle class="cls-1" cx="991.37" cy="1468.55" r="11.58"/>
      <circle class="cls-1" cx="692.64" cy="1681.81" r="11.58"/>
      <ellipse class="cls-5" cx="976.52" cy="1440.83" rx="139.94" ry="213.58" transform="translate(-763.75 1408.68) rotate(-54.81)"/>
      <ellipse class="cls-5" cx="673.22" cy="1648.84" rx="139.94" ry="213.58" transform="translate(-465.48 279.44) rotate(-17.53)"/>
      <path d="M475.82,1606.05c-.76-5.19-.98-10.95-1.12-16.19-.42-26.7,3.39-53.22,10.35-78.97,13.02-48.15,39.02-95.22,89.3-111.33,5.21-1.59,10.54-2.85,15.93-3.15-8.84,5.6-16.79,12.14-24.2,19.29-14.24,13.76-25.42,29.65-33.87,47.34-4.08,8.81-7.56,18.2-10.99,27.41-14.32,38.72-26.42,78.65-45.39,115.61h0Z"/>
      <path d="M872.36,1201.64c13.79-6.37,29.2-8.25,44.23-8.3,42.34,.42,88.61,19.72,111.59,56.61,.96,1.66,1.92,3.31,2.76,5.06-5.38-1.63-10.54-3.66-15.77-5.61-6.44-2.35-13.35-5.02-19.77-7.32-14.24-5.31-28.63-10.24-43.07-14.95-26.35-8.6-53.65-15.95-79.98-25.49h0Z"/>
      <line class="cls-9" x1="26.71" y1="927.37" x2="82.31" y2="1033.36"/>
      <line class="cls-9" x1="71.18" y1="862.68" x2="116.82" y2="1008.22"/>
      <path d="M1641.89,806.5c8.94,28.85,10.34,64.4,6.28,94.27-1.29,8.87-3.14,17.67-6.28,26.12-2.85-20.21-3.65-39.92-3.91-60.13-.06-20.2,.35-40.15,3.91-60.26h0Z"/>
      <path d="M2327.99,706.64c19.65,30.13,27.99,77.34,15.71,111.6-1.97,5.23-4.39,10.28-7.53,14.84,.63-5.52,1.24-10.82,1.61-16.11,2.41-37.26-4.92-73.41-9.78-110.33h0Z"/>
      <path d="M2187.13,710.68c42.08,39.39,95.21,112.39,109.06,168.51,1.04,4.6,1.9,9.22,2.45,13.88,.18,2.35,.33,4.69,.42,7.01-2.81-8.9-6.36-17.32-10.36-25.55-11.02-22.56-24.32-44.01-37.74-65.2-20.74-32.64-43.58-65.62-63.83-98.65h0Z"/>
      <path d="M2250.17,660.1c29,37.48,58.23,99.03,62.8,146.39,.3,3.6,.42,7.21,.34,10.81-19.26-53.25-45.19-103.39-63.15-157.2h0Z"/>
      <path d="M1530.75,879.13c24.9,17.14,48.33,49.64,52.71,79.96,1.51,10.87,.49,23.08-5.8,32.29,.56-5.42,.46-10.56-.23-15.57-2.2-15.08-8.5-28.78-15.46-42.34-9.62-18.53-20.95-35.82-31.22-54.34h0Z"/>
      <path d="M1577.66,827.43c22.81,50.77,49.17,147.09,39.14,201.82-.93,4.58-2.34,9.14-4.51,13.23,.91-4.54,1.13-9.06,1.09-13.58-.23-13.56-2.28-26.97-4.47-40.36-9.21-53.94-22.85-106.91-31.25-161.12h0Z"/>
    </g>
  </g>
</svg>