<?xml version="1.0" encoding="UTF-8"?>
<svg width="90px" height="90px" viewBox="0 0 90 90" version="1.1" xmlns="http://www.w3.org/2000/svg" xmlns:xlink="http://www.w3.org/1999/xlink">
    <title>pPAXG</title>
    <defs>
        <linearGradient x1="73.520722%" y1="5.7505426%" x2="26.0855017%" y2="94.1661125%" id="linearGradient-1">
            <stop stop-color="#00EAFF" offset="0%"></stop>
            <stop stop-color="#0080FF" offset="25.2530882%"></stop>
            <stop stop-color="#8000FF" offset="49.7394282%"></stop>
            <stop stop-color="#E619E6" offset="74.9912298%"></stop>
            <stop stop-color="#FF0000" offset="99.9136118%"></stop>
        </linearGradient>
    </defs>
    <g id="Page-1" stroke="none" stroke-width="1" fill="none" fill-rule="evenodd">
        <g id="pPAXG" fill-rule="nonzero">
            <circle id="Oval" fill="url(#linearGradient-1)" cx="45" cy="45" r="45"></circle>
            <path d="M77.788,38.097 L77.9399988,38.3553071 C82.8108055,46.7402694 82.6583224,55.757291 71.8928487,60.3979226 C52.5128487,68.7479226 51.3628487,85.1979226 33.0428487,76.3379226 C30.1321089,74.9131501 27.553097,72.8928673 25.4728487,70.4079226 C29.2196127,70.967831 33.0046331,71.23198 36.7928487,71.1979226 C43.2813054,71.2708065 49.6517518,69.4610995 55.1328487,65.9879226 C59.8523647,63.1224854 64.0546633,59.4813948 67.5628487,55.2179226 C71.7638485,50.3462497 75.1219476,44.8096708 77.5006251,38.8367887 L77.788,38.097 Z M32.8728487,15.8279226 C31.6728487,16.9479226 30.4128487,18.2679226 29.0428487,19.8279226 C16.2928487,34.2479226 12.9828487,53.0779226 21.1528487,63.4079226 C22.2222546,65.9417389 23.6649043,68.3012127 25.4328487,70.4079226 C12.7728487,68.3679226 4.27284875,61.8379226 11.8728487,44.6979226 C18.5128487,29.8279226 12.6128487,15.1779226 32.8728487,15.8279226 Z M32.8828487,15.8379226 C38.4628487,10.6479226 44.9028487,8.98792257 52.2428487,14.0879226 C58.2028487,18.2479226 64.4028487,18.7179226 72.3428487,20.1679226 C79.5528487,21.4879226 81.0928487,28.7879226 77.7928487,38.0879226 C74.0478504,32.0914899 68.8553634,27.1328368 62.6928487,23.6679226 C60.3404782,22.3580452 57.7850047,21.4521366 55.1328487,20.9879226 L55.0928487,20.9679226 C49.2328487,17.8879226 41.8328487,16.3479226 34.0928487,15.8879226 Z" id="Shape" fill="#FFFFFF"></path>
            <path d="M29.0428487,19.8279226 C16.2928487,34.2479226 12.9828487,53.0779226 21.1928487,63.4079226 C17.342181,54.3163599 17.997975,43.9422171 22.9628487,35.4079226 C29.8728487,23.8879226 43.7428487,18.8879226 55.1328487,20.9879226 C49.2328487,17.8679226 41.8328487,16.3679226 34.1328487,15.9079226 L32.9228487,15.8479226 C31.6828487,16.9879226 30.4228487,18.2679226 29.0428487,19.8279226 M62.6928487,23.6479226 C60.3392045,22.3450105 57.7837907,21.4458834 55.1328487,20.9879226 C62.8928487,25.0679226 68.0428487,31.9879226 68.0428487,42.9279226 C67.9514926,52.3126482 63.0855208,61.0043066 55.1328487,65.9879226 C59.8546329,63.1255987 64.0574219,59.4840832 67.5628487,55.2179226 C71.9388902,50.1432633 75.4003259,44.3471349 77.7928487,38.0879226 C74.0504625,32.084168 68.857758,27.1184294 62.6928487,23.6479226" id="Shape" fill="#FFFFFF" opacity="0.9"></path>
            <path d="M55.1328487,20.9879226 C43.7428487,18.8879226 29.8728487,23.8879226 22.9628487,35.3579226 C17.9767818,43.9039028 17.3205842,54.3029674 21.1928487,63.4079226 C22.2584619,65.9436831 23.7014452,68.3037025 25.4728487,70.4079226 C29.2196127,70.967831 33.0046331,71.23198 36.7928487,71.1979226 C43.2813054,71.2708065 49.6517518,69.4610995 55.1328487,65.9879226 C63.0869159,61.0056345 67.9533539,52.3131434 68.0428487,42.9279226 C68.0428487,31.9879226 62.8928487,25.0679226 55.1328487,20.9879226 M53.8528487,60.7879226 C45.0830052,66.4209219 33.4098847,63.909324 27.7328487,55.1679226 C22.0728487,46.4379226 24.8728487,35.1679226 33.3628487,29.1679226 C42.8628487,22.4179226 55.0428487,25.0779226 59.4828487,34.7879226 C63.8128487,44.2479226 62.6228487,55.1779226 53.8528487,60.7879226" id="Shape" fill="#FFFFFF" opacity="0.8"></path>
        </g>
    </g>
</svg>