<?xml version="1.0" encoding="UTF-8"?>
<svg width="448px" height="754px" viewBox="0 0 448 754" version="1.1" xmlns="http://www.w3.org/2000/svg" xmlns:xlink="http://www.w3.org/1999/xlink">
    <title>iBURN</title>
    <defs>
        <linearGradient x1="48.409576%" y1="2.18436713e-16%" x2="39.0284679%" y2="100%" id="linearGradient-1">
            <stop stop-color="#7560AA" offset="0%"></stop>
            <stop stop-color="#62B3E4" offset="100%"></stop>
        </linearGradient>
        <linearGradient x1="56.9786089%" y1="1.05909967e-14%" x2="31.1385966%" y2="100%" id="linearGradient-2">
            <stop stop-color="#7560AA" offset="0%"></stop>
            <stop stop-color="#65B1E3" offset="100%"></stop>
        </linearGradient>
    </defs>
    <g id="Page-1" stroke="none" stroke-width="1" fill="none" fill-rule="evenodd">
        <g id="iBURN" transform="translate(0.000000, -0.000629)" fill-rule="nonzero">
            <path d="M202,0 L286,117.500629 L305.5,229.500629 L273.546,340.591629 L368.340789,245.916299 L420.048532,318.798705 L447.558065,437.516115 L438.89544,535.086869 L404.277391,617.51721 L356.006775,696.068726 L252.595991,744.750028 L310.545,668.455629 L350.844,600.635629 L361.872,540.496629 L361.57,538.868 L347.269,464.028 L308.272,402.678629 L260.958,371.879629 L189.44,446.239629 L142.618,507.354629 L84.963,635.477629 L81.8552947,753.58494 L27.9423112,653.460828 L0,559.000629 L0,443.500629 L53.5,326.500629 L131.761,236.122629 L203,125.115629 L202,0 Z M318.874,679.079 L295.405,711.249629 L337.612,691.003 L318.874,679.079 Z M71.747,643.538629 L43.23,654.432629 L70.144,704.415629 L71.747,643.538629 Z M360.576,611.028629 L326.319,668.408629 L349.097,682.903 L386.953,617.952 L360.576,611.028629 Z M124.507,514.146629 L14.599,559.204629 L38.307,642.395629 L73.653,628.892629 L124.507,514.146629 Z M421.187,540.773629 L374.041,546.387 L364.405,598.592 L393.105,606.125 L404.716,580.013 L421.187,540.773629 Z M173.962,445.066629 L13,451.736629 L13,545.809629 L135.142,495.736629 L173.962,445.066629 Z M432.613,447.759 L361.371,466.659 L373.789,533.324 L426.538,527.045 L432.613,447.759 Z M409.4,332.179629 L321.017,398.496 L356.598,454.471 L432.752,433.807629 L409.4,332.179629 Z M63,337.000629 L15.879,439.564629 L184.645,432.612629 L246.741,367.803629 L63,337.000629 Z M366.659,266.084629 L270.233,362.405629 L311.58,389.32 L405.174,319.361 L366.659,266.084629 Z M290.162,238.473629 L140.116,246.345629 L71.5,326.000629 L255.405,356.109629 L290.162,238.473629 Z M273.66,127.519629 L212.282,133.178629 L149.215,232.849629 L291.295,225.394629 L273.66,127.519629 Z M215,41.0016287 L215,119.873629 L267.211,115.059629 L215,41.0016287 Z" id="Shape" fill="url(#linearGradient-1)"></path>
            <path d="M254.065156,417.212802 L258.934185,422.331525 C312.73,478.886099 329.750083,545.403362 309.750048,620.920733 C295.865934,673.345234 252.939477,720.222902 199.260733,741.474032 C182.215925,748.221981 156.198868,751.323352 120.931306,751.000314 L113.71378,750.934204 L113.435815,741.363288 L113.281886,735.545091 L113.17709,731.102526 C112.970614,721.834531 112.857642,713.267819 112.838642,705.399441 L112.835976,702.397194 L112.842773,699.432763 L112.86669,695.590303 C112.999031,680.157081 113.556315,667.86917 114.543038,658.698309 L114.727086,657.026248 C118.485511,623.634802 126.889934,593.207422 139.540211,561.705753 C149.635405,536.566741 166.182322,509.961087 191.744761,476.567503 L192.815835,475.172922 L193.397902,474.430098 C196.884217,470.02389 201.495464,464.940064 207.239767,459.166549 L208.207644,458.197909 C218.133657,448.30578 231.300563,436.439794 247.747628,422.541592 L254.065156,417.212802 Z M252.872,437.868629 L250.523579,439.881459 L248.326848,441.774198 L245.438704,444.280245 C225.758391,461.428397 212.222102,474.728346 204.932561,484.027422 C220.502085,495.175275 232.524658,510.166535 241,529.000629 C254.5,559.000629 248.715486,600.222261 232,624.000629 C209.657929,655.783011 175.284728,670.038562 128.880396,666.767281 L128.780448,668.167623 L128.682881,669.648912 C128.160877,677.910133 127.879947,688.054198 127.840865,700.066804 L127.83647,703.817771 L127.841372,706.19371 L127.852784,708.736723 C127.896648,716.439921 128.027193,724.810458 128.244855,733.845597 L128.298,736.016629 L129.998336,736.005125 L131.958937,735.983965 L133.895944,735.954657 C160.527944,735.492948 180.38315,732.696229 193.286152,727.704552 L193.739267,727.527226 C243.066171,707.998966 282.607003,664.818556 295.249952,617.080525 C313.169919,549.4172 299.466826,490.355377 253.924456,439.043424 L252.872,437.868629 Z M190.5,503.500629 L189.156872,505.433688 C184.632116,511.966002 181.156976,517.196286 178.731452,521.12454 L177.850732,522.568973 C175.25275,526.88069 171.802506,533.024575 167.5,541.000629 L169.899572,542.199382 C181.449442,547.984225 190.515475,552.746269 197.097674,556.485512 L198.799371,557.461342 C205.837337,561.535184 215.737547,567.714947 228.5,576.000629 C224.833333,561.667295 220.333333,549.333962 215,539.000629 C209.666667,528.667295 201.5,516.833962 190.5,503.500629 Z" id="Shape" fill="url(#linearGradient-2)"></path>
        </g>
    </g>
</svg>