<?xml version="1.0" encoding="UTF-8"?>
<svg width="400px" height="400px" viewBox="0 0 400 400" version="1.1" xmlns="http://www.w3.org/2000/svg" xmlns:xlink="http://www.w3.org/1999/xlink">
    <title>LAUNCH</title>
    <defs>
        <linearGradient x1="22.2855621%" y1="7.95640294%" x2="79.5715704%" y2="90.3899677%" id="linearGradient-1">
            <stop stop-color="#2EECB6" offset="0%"></stop>
            <stop stop-color="#0AB180" offset="100%"></stop>
        </linearGradient>
    </defs>
    <g id="Page-1" stroke="none" stroke-width="1" fill="none" fill-rule="evenodd">
        <g id="LAUNCH">
            <circle id="Oval" fill="url(#linearGradient-1)" cx="200" cy="200" r="200"></circle>
            <path d="M74.8541931,331.007404 L176.923536,206.326256 L108.748987,251.831386 L79.8495049,222.616341 L130.760282,172.195338 C134.5053,168.486349 139.563059,166.405662 144.833899,166.405662 L171.619209,166.405662 L171.619209,166.405662 C194.359932,141.575089 217.600317,122.397091 241.340363,108.871669 C265.080409,95.3462461 289.211903,85.8451749 313.734846,80.3684552 C308.103474,104.933077 298.92771,128.784011 286.207554,151.921257 C273.487399,175.058503 254.177883,198.623531 228.279007,222.616341 L228.279007,248.454641 C228.279007,253.690737 226.225588,258.718018 222.559759,262.456788 L171.619209,314.410923 L171.619209,314.410923 L142.88209,286.507884 L74.8541931,331.007404 Z" id="Path" fill="#000000"></path>
        </g>
    </g>
</svg>