<?xml version="1.0" encoding="UTF-8"?>
<svg width="100px" height="100px" viewBox="0 0 100 100" version="1.1" xmlns="http://www.w3.org/2000/svg" xmlns:xlink="http://www.w3.org/1999/xlink">
    <title>DECI</title>
    <g id="DECI" stroke="none" stroke-width="1" fill="none" fill-rule="evenodd">
        <circle id="Oval" fill="#FF0000" cx="50" cy="50" r="50"></circle>
        <circle id="Oval-Copy-2" fill="#000000" cx="50" cy="50" r="42"></circle>
        <g id="Group" transform="translate(26.000000, 22.000000)">
            <path d="M25.1041454,0.437057536 L46.7360969,8.99970502 C47.4989414,9.30166431 48,10.0388847 48,10.8593182 L48,31 L48,31 C48,37 44.5,45 37,49.5 C34.2177744,51.1693353 30.2156677,53.4820208 24.9936796,56.4380564 C24.3788317,56.7872583 23.6252986,56.7840869 23.0129395,56.430542 L11,49.5 L11,49.5 C2,44 0,36 0,31 C0,24.2864394 0,17.5728788 0,10.8593182 C1.2317935e-15,10.0388847 0.501058589,9.30166431 1.2639031,8.99970502 L22.8958546,0.437057536 C23.6051773,0.156283988 24.3948227,0.156283988 25.1041454,0.437057536 Z" id="Path-2" fill="#FFFFFF"></path>
            <path d="M24,0.226477375 L24.0003775,56.6978204 C23.6592609,56.6961455 23.3185222,56.6069698 23.0129395,56.430542 L11,49.5 C2,44 0,36 0,31 L0,10.8593182 C1.2317935e-15,10.0388847 0.501058589,9.30166431 1.2639031,8.99970502 L22.8958546,0.437057536 C23.250516,0.296670762 23.625258,0.226477375 24,0.226477375 Z" id="Combined-Shape" fill="#FF0000"></path>
        </g>
    </g>
</svg>