<svg xmlns="http://www.w3.org/2000/svg" xmlns:xlink="http://www.w3.org/1999/xlink" width="467" height="467" xmlns:v="https://vecta.io/nano"><defs><linearGradient x1="75.5342453%" y1="93.1392522%" x2="25.0970895%" y2="6.42057557%" id="A"><stop stop-color="#0071bf" offset="0%"/><stop stop-color="#00cee9" offset="100%"/></linearGradient><path d="M233.396 460.399c-125.373 0-227.003-101.63-227.003-227.003 0-125.367 101.63-226.997 227.003-226.997 125.367 0 227.003 101.63 227.003 226.997 0 125.373-101.635 227.003-227.003 227.003zM0 233.396c0 128.901 104.495 233.396 233.396 233.396s233.396-104.495 233.396-233.396S362.297 0 233.396 0 0 104.495 0 233.396z" id="B"/></defs><g fill-rule="nonzero"><use fill="url(#A)" xlink:href="#B"/><path d="M52.51 232.656c.052 49.297 20.099 93.938 52.464 126.24 32.344 32.276 76.984 52.234 126.245 52.188 49.219-.052 93.792-20.068 126.042-52.385 32.229-32.292 52.151-76.859 52.104-126.042-.052-49.141-20.037-93.646-52.302-125.844-32.24-32.177-76.745-52.073-125.844-52.021-49.068.047-93.5 20-125.651 52.219-32.125 32.187-51.99 76.62-51.938 125.646h-1.12v-.001zm1.12 0c.047-48.984 19.969-93.349 52.135-125.448 32.141-32.078 76.5-51.911 125.453-51.859 48.906.047 93.203 19.938 125.25 52.052 32.026 32.094 51.828 76.385 51.776 125.255-.047 48.833-19.906 93.057-51.974 125.057-32.036 31.974-76.26 51.74-125.052 51.693-48.76-.047-92.911-19.88-124.859-51.891-31.922-31.99-51.661-76.141-51.615-124.859H53.63z" fill="#0097b2"/><path d="M231.193 13.503c60.552-.206 115.479 24.221 155.338 63.804 39.958 39.693 64.76 94.625 64.971 155.339.206 60.881-24.351 116.099-64.148 156.167-39.901 40.172-95.125 65.099-156.161 65.307v-4.661c-59.912.208-114.261-23.953-153.693-63.12-39.542-39.271-64.084-93.62-64.289-153.693-.206-60.234 24.091-114.87 63.466-154.51 39.474-39.756 94.12-64.422 154.516-64.633zm-.001 4.661c-59.271-.201-113.037 23.695-152.047 62.44-39.114 38.849-63.401 92.615-63.606 152.042-.2 59.594 23.831 113.651 62.784 152.87 39.057 39.328 93.115 63.74 152.87 63.943v-4.661c58.624.202 111.807-23.433 150.39-61.756 38.693-38.427 62.724-91.61 62.924-150.396.201-58.943-23.565-112.422-62.096-151.219-38.641-38.901-92.115-63.058-151.219-63.263zm.012 56.476v1.807c43.136-.078 82.245 17.37 110.594 45.615 28.391 28.287 45.99 67.396 46.068 110.599.078 43.266-17.422 82.485-45.745 110.917-28.37 28.474-67.594 46.12-110.917 46.198-43.391.078-82.724-17.469-111.24-45.88-28.552-28.448-46.25-67.781-46.334-111.234-.078-43.515 17.526-82.963 46.016-111.557 28.531-28.636 67.979-46.386 111.557-46.465zm-.001 1.807v1.807c-42.641-.078-81.302 17.166-109.323 45.083-28.063 27.964-45.459 66.62-45.537 109.323-.078 42.766 17.219 81.537 45.219 109.641 28.042 28.141 66.813 45.589 109.641 45.667 42.885.083 81.771-17.271 109.953-45.349 28.23-28.125 45.724-67.005 45.808-109.958.078-43.016-17.324-82.01-45.485-110.276-28.203-28.307-67.203-45.859-110.276-45.938z" fill="#004aad"/><path d="M82.547 232.667c.214 40.948 16.979 77.969 43.974 104.688 26.891 26.609 63.906 43.016 104.688 42.811 40.62-.212 77.349-16.853 103.859-43.634 26.401-26.677 42.672-63.401 42.468-103.865-.212-40.297-16.723-76.734-43.29-103.036-26.464-26.187-62.901-42.328-103.036-42.124-39.979.207-76.125 16.593-102.214 42.952-25.984 26.25-41.99 62.396-41.786 102.208h-4.663 0zm4.66 0c.209-39.656 16.465-75.505 42.61-101.385 26.042-25.776 61.891-41.646 101.391-41.447 39.333.207 74.896 16.337 100.562 42.27 25.563 25.828 41.302 61.391 41.103 100.563-.202 39.016-16.202 74.286-41.926 99.745-25.62 25.354-60.891 40.958-99.74 40.759-38.693-.202-73.672-16.077-98.917-41.587-25.146-25.401-40.62-60.385-40.422-98.917h-4.661v-.001zM231.208 26.51c-56.812.208-108.214 23.422-145.339 60.823C48.844 124.63 26 176.021 26.206 232.672c.211 56.49 23.294 107.594 60.487 144.516 37.083 36.813 88.187 59.521 144.516 59.315 56.167-.206 106.984-23.164 143.687-60.143 36.604-36.87 59.182-87.682 58.982-143.688-.211-55.849-23.039-106.37-59.804-142.87-36.661-36.391-87.177-58.839-142.865-58.63V26.51h-.001zm0 4.661c55.526.203 105.755 22.901 142.042 59.458 36.182 36.448 58.495 86.677 58.294 142.042-.206 55.203-22.773 105.141-59.117 141.219-36.24 35.969-86.177 58.156-141.219 57.956-54.885-.206-104.531-22.648-140.396-58.778C55.052 337.042 33 287.391 33.201 232.672c.2-54.562 22.518-103.917 58.435-139.573 35.812-35.552 85.172-57.469 139.573-57.266v-4.662h-.001z" fill="#3ac4ff"/><path d="M234.286 140.75h-3.495V98.896h3.495v41.854zm-14.375.828l-6.552-41.349-3.432.573 6.552 41.349 3.432-.573h0zm-27.417 8.396l-19.02-37.276-3.115 1.589 19.021 37.276 3.115-1.589h-.001zm-12.469 7.25l-24.551-33.838-2.802 2.036 24.557 33.839 2.797-2.036-.001-.001zm-11.067 9.162l-29.641-29.579-2.484 2.479 29.578 29.578 2.547-2.479v.001zm-9.604 10.75l-33.844-24.615-2.036 2.797 33.844 24.62 2.036-2.802h0zm-7.76 12.151l-37.277-19.021-1.594 3.12 37.344 19.016 1.526-3.115h.001zm-5.724 13.167l-39.824-12.912-1.083 3.307 39.823 12.911 1.083-3.307.001.001zm-3.63 13.932l-41.344-6.552-.573 3.438 41.344 6.552.573-3.437v-.001zm-1.396 14.375h-41.86v3.5h41.859v-3.5h.001zm1.396 17.813l-.573-3.432-41.344 6.552.573 3.432 41.344-6.552zm3.63 13.932l-1.083-3.307-39.823 12.911 1.083 3.307 39.823-12.911zm23.088 36.068l-2.479-2.479-29.583 29.578 2.484 2.479 29.578-29.578zm11.068 9.161l-2.797-2.036-24.62 33.839 2.802 2.036 24.615-33.839zm12.469 7.25l-3.115-1.589-19.021 37.276 3.115 1.589 19.021-37.276zm13.359 5.281l-3.307-1.083-12.917 39.823 3.313 1.078 12.911-39.818zm14.057 3.115l-3.432-.573-6.552 41.349 3.432.573 6.552-41.349h0zm14.375.828h-3.495v41.859h3.495v-41.859zm20.932 39.948l-6.552-41.349-3.437.573 6.552 41.349 3.438-.573h-.001zm57.313-24.62l-24.62-33.839-2.797 2.036 24.62 33.839 2.797-2.036zm15.714-13.802l-29.578-29.641-2.484 2.479 29.578 29.578 2.484-2.417v.001zm31.932-53.625l-39.823-12.911-1.078 3.307 39.818 12.911 1.083-3.307zm4.578-20.484l-41.344-6.552-.573 3.438 41.344 6.552.573-3.437v-.001zm1.401-20.865h-41.854v3.5h41.854v-3.5zm-1.401-17.427l-.573-3.437-41.344 6.552.573 3.438 41.344-6.552v-.001zm-4.578-20.484l-1.083-3.307-39.818 12.911 1.078 3.307 39.823-12.911zm-7.76-19.464l-1.589-3.12-37.281 19.021 1.594 3.115 37.276-19.016zm-10.75-18.005l-2.036-2.797-33.844 24.552 2.036 2.802 33.844-24.557zm-13.423-16.157l-2.484-2.479-29.578 29.641 2.484 2.479 29.578-29.641h0zm-15.714-13.802l-2.797-2.036-24.62 33.839 2.797 2.036 24.62-33.839zm-17.75-11.198l-3.115-1.589-19.021 37.339 3.12 1.589 19.016-37.339h0z" fill="#d9d9d9"/><path d="M235.979 428.338v.688h-6.906v-.688h6.906zm0-13.64v8.63h-6.906v-8.63h6.906zm0-17.271v5.182h-6.906v-5.182h6.906zm0-13.813v5.182h-6.906v-5.182h6.906zm0-13.812v8.635h-6.906v-8.635h6.906zm0-17.266v5.177h-6.906v-5.177h6.906zm0-13.812v5.177h-6.906v-5.177h6.906zm0-13.812v8.63h-6.906v-8.63h6.906zm0-17.271v5.182h-6.906v-5.182h6.906zm0-13.812v5.182h-6.906v-5.182h6.906zm198.219-71.657c7.599 6.563 19.688 12.776 29.526 16.401-9.667 3.63-21.927 9.844-29.526 16.406l4.633-12.948h-1.003v-6.911h1.004zM232.349 235.12l3.63.002v8.635h-6.906v-1.726h-5.354v-6.911h8.63zm134.682 0v6.911h-8.63v-6.911h8.63zm62.162 0v6.911h-5.182v-6.911h5.182zm-17.266 0v6.911h-8.635v-6.911h8.635zm-13.812 0v6.911h-5.182v-6.911h5.182zm-13.818 0v6.911h-5.177v-6.911h5.177zm-31.078 0v6.911h-5.182v-6.911h5.182zm-13.812 0v6.911h-5.182v-6.911h5.182zm-17.266 0v6.911h-8.635v-6.911h8.635zm-27.63 0v6.911h-5.177v-6.911h5.177zm-17.266 0v6.911h-8.635v-6.911h8.635zm-13.812 0v6.911h-5.182v-6.911h5.182zm-13.813 0v6.911h-5.182v-6.911h5.182zm-31.083 0v6.911h-5.177v-6.911h5.177zm-13.812 0v6.911h-5.182v-6.911h5.182zm-17.266 0v6.911h-8.635v-6.911h8.635zm-58.708 0v6.911h-5.177v-6.911h5.177zm-13.812 0v6.911h-5.182v-6.911h5.182zm-17.266 0v6.911h-8.635v-6.911h8.635zm-13.812 0v6.911h-5.182v-6.911h5.182zm-13.818 0v6.911h-5.177v-6.911h5.177zm-17.266 0v6.911h-8.63v-6.911h8.63zm-13.813 0v6.911h-5.182v-6.911h5.182zm-13.812 0v6.911H19.97v-6.911h5.182zm283.171 0v6.911h-5.177v-6.911h5.177zm-72.344-75.972v5.182h-6.906v-5.182h6.906zm0-13.812v8.635h-6.906v-8.635h6.906zm0-17.266v5.182h-6.906v-5.182h6.906zm0-13.813v5.177h-6.906v-5.177h6.906zM232.526 3.573c-3.631 9.844-9.844 21.932-16.407 29.526l16.406-5.87 16.401 5.87c-6.562-7.594-12.604-19.682-16.4-29.526z" fill="#00fcfe"/><path d="M335.271 246.996c3.297-.011 4.375 1.661 5.427 4.109l40.177 92.828 19.687 45.656 1.224 3.224h-48.995c-1.12-.625-1.865-1.682-2.521-3.203l-40.286-93.24c-1.672-3.907-3.823-5.084-7.901-5.063l-119.042.094h-6.708l4.047-9.677 13.474-31.37c1.047-2.52 2.437-3.312 5.052-3.312zM197.047 84.911l1.255.286 62.328 143.866-6.083.495-40.109.036c-2.839.031-4.36-1.016-5.438-3.547l-10.333-23.516-1.891-3.089-9.979 22.964L114.12 390.14c-.516 1.188-1.083 2.073-1.849 2.672H62.917l134.13-307.901zm57.9 224.109l37.141.115c1.552.026 3.922 1.239 4.495 2.531l34.401 79.167.714 1.979h-48.854c-.625-.468-1.146-1.14-1.589-2.161l-34.506-79.11-.661-2.521h8.859zM233.489 3.865l98.198 225.442h-7.854c-12.802 0-25.609-.115-38.411.065-3.307.044-4.984-1.065-6.292-4.091L220.937 91.625 208.89 63.776c-.568-1.365-.74-3.354-.177-4.661l22.766-52.589c.359-.818 1.104-1.474 2.01-2.661z" fill="#3ac4ff"/><path d="M191.859 133.401c-.896-.37-1.526-1.255-1.526-2.286 0-1.362 1.104-2.466 2.466-2.466s2.466 1.104 2.466 2.466a2.47 2.47 0 0 1-1.526 2.286l-.089 10.88a9.67 9.67 0 0 1-.766 3.698c-.49 1.161-1.203 2.224-2.115 3.12l-5.302 5.214c-.766.75-1.37 1.651-1.781 2.62a8.12 8.12 0 0 0-.651 3.115l-.146 18.104c-.01 1.234-.266 2.453-.745 3.573-.469 1.115-1.161 2.141-2.042 3.01l-11.849 11.651a8.66 8.66 0 0 0-1.87 2.75 8.52 8.52 0 0 0-.677 3.266l-.276 33.943-.276-33.943c-.016-1.208.224-2.401.667-3.5a9.2 9.2 0 0 1 1.964-2.984l11.651-11.849c.776-.786 1.385-1.719 1.792-2.729a8.28 8.28 0 0 0 .604-3.187l-.146-18.104a9.5 9.5 0 0 1 .698-3.656 9.53 9.53 0 0 1 2.052-3.115l5.214-5.297c.745-.76 1.323-1.661 1.719-2.625a7.98 7.98 0 0 0 .578-3.073l-.089-10.88.001-.002zm11.047 0c-.906-.37-1.536-1.255-1.536-2.286 0-1.365 1.109-2.464 2.474-2.464 1.359 0 2.469 1.099 2.469 2.464 0 1.031-.635 1.917-1.531 2.286l-.089 10.88a8 8 0 0 0 .583 3.073 8.03 8.03 0 0 0 1.714 2.625l5.219 5.297a9.6 9.6 0 0 1 2.047 3.115c.464 1.151.714 2.396.703 3.656l-.151 18.104c-.01 1.099.203 2.187.609 3.187a8.29 8.29 0 0 0 1.786 2.729l11.651 11.849a9.12 9.12 0 0 1 1.964 2.984c.45 1.112.679 2.301.672 3.5l-.281 33.943-.276-33.943a8.53 8.53 0 0 0-.682-3.266 8.32 8.32 0 0 0-1.87-2.75l-11.844-11.651a9.5 9.5 0 0 1-2.047-3.01 9.38 9.38 0 0 1-.734-3.573l-.151-18.104a8.21 8.21 0 0 0-.646-3.115c-.411-.969-1.021-1.87-1.786-2.62l-5.302-5.214a9.61 9.61 0 0 1-2.115-3.12 9.57 9.57 0 0 1-.76-3.698l-.089-10.88-.001.002z" fill="#004aad"/><path d="M171.693 155.438c-.865-.12-1.531-.859-1.531-1.755a1.78 1.78 0 0 1 1.776-1.781c.979 0 1.771.797 1.771 1.781 0 .896-.667 1.635-1.531 1.755l-.052 20.938a8.61 8.61 0 0 0 .646 3.313 8.72 8.72 0 0 0 1.875 2.823l9.151 9.203a8.92 8.92 0 0 1 2.615 6.349l-.016 8.589a9.05 9.05 0 0 1-.693 3.411 8.85 8.85 0 0 1-1.948 2.891l-5.401 5.375c-.828.828-1.474 1.792-1.911 2.849a8.81 8.81 0 0 0-.682 3.37l-.031 13.797-.036-13.797c-.005-1.182.224-2.333.667-3.406a8.71 8.71 0 0 1 1.917-2.885l5.375-5.411a8.64 8.64 0 0 0 1.896-2.844 8.8 8.8 0 0 0 .656-3.349l-.021-8.589c-.005-1.156-.234-2.286-.672-3.339a8.68 8.68 0 0 0-1.901-2.818l-9.203-9.156a8.99 8.99 0 0 1-1.964-2.927c-.453-1.078-.698-2.25-.698-3.448l-.052-20.937-.002-.002zm52.771 0c-.87-.12-1.536-.859-1.536-1.755a1.78 1.78 0 0 1 1.781-1.781 1.78 1.78 0 0 1 1.776 1.781c0 .896-.667 1.635-1.531 1.755l-.062 20.938a8.9 8.9 0 0 1-.693 3.448c-.448 1.089-1.115 2.083-1.958 2.927l-9.214 9.156a8.74 8.74 0 0 0-1.891 2.818c-.437 1.052-.672 2.182-.672 3.339l-.026 8.589c-.005 1.161.224 2.297.656 3.349a8.8 8.8 0 0 0 1.891 2.844l5.38 5.411a8.89 8.89 0 0 1 1.922 2.885 9 9 0 0 1 .667 3.406l-.036 13.797-.042-13.797a8.71 8.71 0 0 0-.677-3.37c-.437-1.057-1.083-2.021-1.911-2.849l-5.406-5.375a8.9 8.9 0 0 1-1.937-2.891 8.85 8.85 0 0 1-.693-3.411l-.021-8.589a8.92 8.92 0 0 1 .672-3.432 9.08 9.08 0 0 1 1.937-2.917l9.156-9.203c.807-.818 1.448-1.776 1.87-2.823a8.62 8.62 0 0 0 .656-3.312l-.057-20.937-.001-.001z" fill="#050505"/><path d="M253.323 113.771c-.844.219-1.74-.219-2.078-1.042a1.77 1.77 0 0 1 .979-2.307 1.76 1.76 0 0 1 2.302.964 1.78 1.78 0 0 1-.75 2.203l13.604 33.25 6.547 2.745 13.234 32.344-.453.182-13.151-32.151-6.552-2.745-13.682-33.443h0z" fill="#fff"/><path d="M257.682 95.484c-.844.214-1.74-.214-2.078-1.042a1.77 1.77 0 0 1 .964-2.307 1.77 1.77 0 0 1 2.307.969c.339.828.01 1.755-.745 2.193l34.526 84.38-.453.188-34.521-84.38v-.001z" fill="#004aad"/><path d="M248.464 133.234c-.745-.443-1.073-1.38-.724-2.203.375-.901 1.411-1.323 2.313-.948a1.77 1.77 0 0 1 .948 2.318 1.77 1.77 0 0 1-2.078 1.026l-3.599 8.568 19.995 48.87-.453.182-20.073-49.057 3.672-8.755-.001-.001zm2.724-64.74a1.76 1.76 0 0 1-2.203.724 1.76 1.76 0 0 1-.948-2.312c.38-.896 1.417-1.318 2.318-.948.823.344 1.245 1.25 1.026 2.089l9.901 4.151 34.333 83.911-3.177 7.573 5.641 13.776-.453.188-5.714-13.969 3.177-7.573-34.177-83.531-9.724-4.078v-.001z" fill="#000"/><path d="M134.786 252.823c-.729-.703-1.016-1.792-.635-2.792.505-1.312 2-1.979 3.312-1.474a2.57 2.57 0 0 1 1.474 3.313 2.58 2.58 0 0 1-2.333 1.651l-24.677 63.125 13.536 30.911.052.141-21.677 55.469 20.901-55.448-13.943-30.828-.089-.214 24.078-63.854h.001zm35.245-16.292a1.84 1.84 0 0 1-.828-2.266c.365-.948 1.422-1.422 2.37-1.057s1.422 1.422 1.057 2.37c-.333.865-1.25 1.339-2.13 1.13l-7.365 19.125-.031.083-23.312 10.344-12.031 31.203 16.599 37.427.016.036-28.141 73 27.927-72.995-16.708-37.396-.031-.062 12.031-31.432.031-.078.073-.031 23.193-10.359 7.281-19.042h-.001z" fill="#004aad"/><path d="M135.375 236.396c-.792-.432-1.156-1.401-.828-2.26a1.84 1.84 0 0 1 2.375-1.057 1.83 1.83 0 0 1 1.052 2.37 1.83 1.83 0 0 1-2.13 1.13l-22.62 58.656 12.771 28.792.016.036-29.427 76.318 29.172-76.307-12.849-28.771-.026-.057 22.495-58.849-.001-.001z" fill="#fff"/><path d="M203.167 273.531a2.43 2.43 0 0 1-2.401 2.094c-1.338 0-2.422-1.084-2.422-2.422s1.084-2.422 2.422-2.422c1.224 0 2.234.906 2.401 2.083l61.188.161h.078l17.979 18.073 45.609.115-45.656.109h-.047l-.036-.036-18-17.901-61.115.146h0z" fill="#050505"/><path d="M203.167 262.12a2.43 2.43 0 0 1-2.401 2.094c-1.338 0-2.422-1.084-2.422-2.422s1.084-2.422 2.422-2.422c1.224 0 2.234.917 2.401 2.094l61.188.151h.078l.047.057 17.932 18.016 45.609.115-45.656.109h-.047l-.036-.026-18-17.917-61.115.151h0z" fill="#fff"/><path d="M203.167 251.474c-.167 1.177-1.177 2.094-2.401 2.094-1.339 0-2.422-1.089-2.422-2.422a2.42 2.42 0 0 1 2.422-2.422 2.42 2.42 0 0 1 2.401 2.089l61.188.151h.078l17.979 18.073 45.609.115-45.656.115h-.047l-18.036-17.943-61.115.151v-.001zm112.291 36.823c-.901.01-1.766-.5-2.151-1.375a2.3 2.3 0 0 1 1.182-3.01c1.156-.505 2.505.031 3.01 1.182a2.3 2.3 0 0 1-.448 2.505l23.859 55.557 27.958 11.156.12.052 20.974 48.813-21.453-48.312-28.161-10.844-.193-.083-24.698-55.641h.001zm12.183-32.422a1.64 1.64 0 0 1-1.943-.922c-.365-.828.016-1.792.844-2.156a1.64 1.64 0 0 1 2.156.849c.328.755.042 1.63-.646 2.047l7.297 16.76.036.078-8.333 21.167 11.901 27.359 33.984 13.375.031.01 27.849 63.995-27.979-63.854-34.036-13.292-.052-.021-12.047-27.5-.031-.068.026-.068 8.245-21.104-7.302-16.656v.001z" fill="#004aad"/><path d="M305.547 277.495c-.776.224-1.615-.167-1.943-.917a1.63 1.63 0 0 1 .844-2.156c.828-.365 1.792.016 2.156.844.328.755.042 1.63-.646 2.052l22.365 51.427 26.146 10.286.031.016 29.109 66.901-29.26-66.734-26.182-10.229-.052-.021-22.568-51.469h0z" fill="#050505"/><path d="M274.547 319.802c-1.146.146-2.26-.562-2.573-1.708-.344-1.245.385-2.542 1.641-2.885a2.35 2.35 0 0 1 2.891 1.635 2.36 2.36 0 0 1-1.333 2.786l12.797 46.76a10.14 10.14 0 0 0 1.745 3.51c.807 1.042 1.818 1.917 2.969 2.578a10.13 10.13 0 0 0 3.734 1.25c1.307.161 2.641.068 3.938-.281a10.38 10.38 0 0 1 4.036-.286 10.29 10.29 0 0 1 3.839 1.276 10.47 10.47 0 0 1 3.057 2.651 10.46 10.46 0 0 1 1.807 3.609l9.281 33.948-9.474-33.896c-.365-1.292-.979-2.49-1.792-3.526a10.07 10.07 0 0 0-6.75-3.802c-1.307-.156-2.641-.062-3.932.297-1.328.375-2.698.469-4.047.307-1.339-.161-2.651-.583-3.849-1.26-1.208-.677-2.25-1.578-3.089-2.651a10.19 10.19 0 0 1-1.833-3.625l-13.063-46.687h0z" fill="#000"/><path d="M268.734 337.443a2.35 2.35 0 0 1-2.573-1.698c-.344-1.25.391-2.547 1.635-2.891a2.35 2.35 0 0 1 2.885 1.635c.318 1.146-.271 2.328-1.333 2.781l3.682 13.453a9.18 9.18 0 0 0 4.323 5.573 9.22 9.22 0 0 0 7.016.891c1.25-.344 2.536-.427 3.786-.271a9.81 9.81 0 0 1 3.594 1.198c1.115.635 2.089 1.484 2.859 2.484a9.65 9.65 0 0 1 1.693 3.38l3.385 12.396c.333 1.234.422 2.5.266 3.75a9.64 9.64 0 0 1-1.193 3.568 9.52 9.52 0 0 1-2.458 2.828c-.984.766-2.12 1.339-3.354 1.672-2.5.682-4.49 2.318-5.672 4.411a9.38 9.38 0 0 0-.906 7.141l6.323 23.115-6.458-23.078c-.714-2.547-.318-5.135.875-7.271a9.61 9.61 0 0 1 5.776-4.536 9.17 9.17 0 0 0 3.266-1.651c.953-.75 1.771-1.687 2.38-2.771a9.51 9.51 0 0 0 1.135-3.469c.141-1.203.052-2.443-.286-3.625l-3.453-12.375c-.333-1.182-.896-2.281-1.641-3.234-.745-.948-1.677-1.75-2.755-2.359-1.062-.604-2.234-.974-3.432-1.12a9.1 9.1 0 0 0-3.604.276c-2.589.724-5.219.328-7.396-.901a9.7 9.7 0 0 1-4.609-5.875l-3.755-13.427h-.001z" fill="#004aad"/></g></svg>