<?xml version="1.0" encoding="UTF-8"?>
<svg width="100px" height="100px" viewBox="0 0 100 100" version="1.1" xmlns="http://www.w3.org/2000/svg" xmlns:xlink="http://www.w3.org/1999/xlink">
    <title>ATROPA</title>
    <g id="main" stroke="none" stroke-width="1" fill="none" fill-rule="evenodd">
        <g id="ATROPA">
            <circle id="Oval" fill="#00CCFF" fill-rule="nonzero" cx="50" cy="50" r="50"></circle>
            <g id="Group" transform="translate(26.000000, 17.000000)" stroke="#FFFFFF" stroke-linecap="round" stroke-linejoin="round" stroke-width="7">
                <path d="M23.5,10.05 C23.5,4.49953826 28.0091322,0 33.5714286,0 C39.133725,0 43.6428571,4.49953826 43.6428571,10.05 C43.6428571,15.6004617 39.133725,20.1 33.5714286,20.1 M23.5,10.05 C23.5,4.49953826 18.9908678,0 13.4285714,0 C7.86627502,0 3.35714286,4.49953826 3.35714286,10.05 C3.35714286,15.6004617 7.86627502,20.1 13.4285714,20.1 M23.5,10.05 L23.5,13.4 M13.4285714,20.1 C7.86627502,20.1 3.35714286,24.5995383 3.35714286,30.15 C3.35714286,35.7004617 7.86627502,40.2 13.4285714,40.2 C18.9908678,40.2 23.5,35.7004617 23.5,30.15 M13.4285714,20.1 L16.7857143,20.1 M33.5714286,20.1 C39.133725,20.1 43.6428571,24.5995383 43.6428571,30.15 C43.6428571,35.7004617 39.133725,40.2 33.5714286,40.2 C28.0091322,40.2 23.5,35.7004617 23.5,30.15 M33.5714286,20.1 L30.2142857,20.1 M23.5,30.15 L23.5,26.8" id="Shape"></path>
                <ellipse id="Oval" cx="23.5" cy="20.1" rx="6.71428571" ry="6.7"></ellipse>
                <line x1="23.5" y1="26.8" x2="23.5" y2="67" id="Path"></line>
                <path d="M23.5,67 C37.6,67 47,61.41555 47,50.25 C32.9,50.25 23.5,55.83445 23.5,67 Z" id="Path"></path>
                <path d="M23.5,67 C9.4,67 0,61.41555 0,50.25 C14.1,50.25 23.5,55.83445 23.5,67 Z" id="Path"></path>
            </g>
        </g>
    </g>
</svg>