<?xml version="1.0" encoding="UTF-8"?>
<svg width="510px" height="510px" viewBox="0 0 510 510" version="1.1" xmlns="http://www.w3.org/2000/svg" xmlns:xlink="http://www.w3.org/1999/xlink">
    <title>Artboard</title>
    <g id="Artboard" stroke="none" stroke-width="1" fill="none" fill-rule="evenodd">
        <path d="M254.8,0.4 L254.8,0.4 C395.2,0.4 509,114.2 509,254.6 L509,254.6 C509,395 395.2,508.7 254.9,508.7 L254.9,508.7 C114.5,508.7 0.799934145,394.9 0.799934145,254.6 L0.799934145,254.6 C0.7,114.2 114.5,0.4 254.8,0.4 Z" id="Path" fill="#8247E5" fill-rule="nonzero"></path>
        <path d="M338.1,199.2 C332,195.7 324.2,195.7 317.3,199.2 L268.7,228 L235.7,246.3 L188,275 C181.9,278.5 174.1,278.5 167.2,275 L129.9,252.3 C123.8,248.8 119.5,241.8 119.5,234 L119.5,190.4 C119.5,183.4 123,176.5 129.9,172.1 L167.2,150.3 C173.3,146.8 181.1,146.8 188,150.3 L225.3,173 C231.4,176.5 235.7,183.5 235.7,191.3 L235.7,220.1 L268.7,200.9 L268.7,171.3 C268.7,164.3 265.2,157.4 258.3,153 L188.9,112 C182.8,108.5 175,108.5 168.1,112 L97,153.9 C90.1,157.4 86.6,164.4 86.6,171.3 L86.6,253.2 C86.6,260.2 90.1,267.1 97,271.5 L167.3,312.5 C173.4,316 181.2,316 188.1,312.5 L235.8,284.6 L268.8,265.4 L316.5,237.5 C322.6,234 330.4,234 337.3,237.5 L374.6,259.3 C380.7,262.8 385,269.8 385,277.6 L385,321.2 C385,328.2 381.5,335.1 374.6,339.5 L338.2,361.3 C332.1,364.8 324.3,364.8 317.4,361.3 L280,339.5 C273.9,336 269.6,329 269.6,321.2 L269.6,293.3 L236.6,312.5 L236.6,341.3 C236.6,348.3 240.1,355.2 247,359.6 L317.3,400.6 C323.4,404.1 331.2,404.1 338.1,400.6 L408.4,359.6 C414.5,356.1 418.8,349.1 418.8,341.3 L418.8,258.5 C418.8,251.5 415.3,244.6 408.4,240.2 L338.1,199.2 Z" id="Path" fill="#FFFFFF" fill-rule="nonzero"></path>
    </g>
</svg>