<?xml version="1.0" encoding="UTF-8"?>
<svg width="600px" height="600px" viewBox="0 0 600 600" version="1.1" xmlns="http://www.w3.org/2000/svg" xmlns:xlink="http://www.w3.org/1999/xlink">
    <title>pGNO</title>
    <defs>
        <linearGradient x1="73.4244952%" y1="5.73164909%" x2="25.9214831%" y2="93.9375009%" id="linearGradient-1">
            <stop stop-color="#00EAFF" offset="0%"></stop>
            <stop stop-color="#0080FF" offset="25.2530882%"></stop>
            <stop stop-color="#8000FF" offset="49.7394282%"></stop>
            <stop stop-color="#E619E6" offset="74.9912298%"></stop>
            <stop stop-color="#FF0000" offset="99.9136118%"></stop>
        </linearGradient>
    </defs>
    <g id="Page-1" stroke="none" stroke-width="1" fill="none" fill-rule="evenodd">
        <g id="pGNO">
            <circle id="Oval" fill="url(#linearGradient-1)" cx="300" cy="300" r="300"></circle>
            <path d="M479.675716,191.162252 C499.498052,223.939047 510.096132,261.622548 509.999343,299.992988 C509.999343,415.987515 415.989103,510 299.999001,510 C184.008898,510 90,415.987515 90,299.992988 C90,261.622548 100.49995,223.939047 120.420416,191.162252 L136.906319,207.746918 L154.275395,225.116657 C130.331584,253.771819 130.331584,295.380685 154.275395,324.035847 C181.555639,356.714508 230.228305,361.032409 262.905719,333.751125 L299.999001,370.845821 L337.190413,333.652991 C365.844482,357.597715 407.451761,357.597715 436.10583,333.652991 C468.783244,306.371706 473.100981,257.697184 445.820737,225.018522 L479.675716,191.162252 Z M451.90482,155.048896 C457.10573,160.544407 462.110379,166.236186 466.624376,172.222367 L299.999001,338.952233 L133.373625,172.222367 C137.985753,166.236186 142.892272,160.544407 148.093182,155.048896 C150.35018,152.693677 152.705309,150.338458 155.158568,147.98324 C239.060038,68.0039338 371.928565,71.1442256 451.90482,155.048896 Z M170.270646,241.210652 L246.812338,317.755264 C237.293692,325.115322 225.518047,329.138821 213.448011,329.138821 C201.377975,329.138821 189.70046,325.115322 180.083684,317.853398 C156.238003,299.404184 151.822136,265.057242 170.270646,241.210652 Z M429.727356,241.112518 C437.087134,250.631527 441.110479,262.407621 441.110479,274.478118 C441.110479,286.548614 437.087134,298.324708 429.727356,307.843718 C411.278845,331.690308 377.031345,336.106344 353.185664,317.657129 L429.727356,241.112518 Z M299.999001,117.463529 C250.933814,117.463529 205.205059,136.403414 170.859428,170.946623 L299.999001,300.091122 L429.138573,170.946623 C394.792942,136.403414 349.064188,117.463529 299.999001,117.463529 Z" id="GNO" fill="#FFFFFF" fill-rule="nonzero"></path>
        </g>
    </g>
</svg>