<?xml version="1.0" encoding="UTF-8"?>
<svg id="svg28" xmlns="http://www.w3.org/2000/svg" xmlns:xlink="http://www.w3.org/1999/xlink" viewBox="0 0 1044.42 1044.42">
  <defs>
    <linearGradient id="linear-gradient" x1="-297.7" y1="485.11" x2="746.46" y2="485.11" gradientTransform="translate(830.12 959.09) rotate(-60) scale(1 -1)" gradientUnits="userSpaceOnUse">
      <stop offset="0" stop-color="#56bef0"/>
      <stop offset=".33" stop-color="#5a9cfa"/>
      <stop offset=".67" stop-color="#6d5afa"/>
      <stop offset="1" stop-color="#9256f0"/>
    </linearGradient>
  </defs>
  <g id="g20">
    <path id="path16" d="M387.11,17.91c278.52-74.61,564.78,90.68,639.4,369.2s-90.68,564.78-369.2,639.4C378.8,1101.12,92.53,935.83,17.91,657.31-56.7,378.8,108.59,92.53,387.11,17.91Z" fill="url(#linear-gradient)"/>
  </g>
  <g id="g26">
    <g id="g24">
      <path id="path22" d="M541.34,929.43v-181h313.5l-313.5,181Zm-351.84-181H503.36v181.21l-313.86-181.21Zm150.17-390.01l-154.46-60.07L472.52,132.47l-132.85,225.95Zm360.63,.97l-135.97-231.24,294.67,170.14-158.7,61.11Zm-6.68,63.57l169.03,287.49h-309.86l140.83-287.49Zm-201.9,287.49H176.73l170.74-290.39,144.23,290.39Zm-111.21-346.54l139.19-236.74,139.19,236.74H380.5Zm141.73,322.6l-141.36-284.62h280.77l-139.41,284.62Zm362.24-355.51v341.6l-164.65-280.02,164.59-63.38c.03,.6,.06,1.2,.06,1.8h0Zm-724.58,0c0-.58,.03-1.15,.06-1.73l160.24,62.32-160.3,272.62V331Zm-33.87,405.68c5.47,15.17,16.15,28.26,30.49,36.55l331.09,191.15c10.67,6.16,22.63,9.24,34.59,9.24s23.92-3.08,34.59-9.24l331.09-191.15c21.34-12.32,34.59-35.28,34.59-59.92V331.01c0-12.79-3.58-25.13-10-35.76-.32-.58-.67-1.14-1.04-1.67-5.87-9.12-13.87-16.9-23.54-22.48L556.77,79.94c-11.37-6.57-24.21-9.63-36.95-9.2-.04,0-.07,0-.11,0-.61,0-1.21,.04-1.81,.1-10.52,.65-20.92,3.68-30.31,9.1L156.49,271.09c-9.67,5.58-17.67,13.36-23.54,22.48-.38,.55-.74,1.12-1.07,1.72-6.41,10.62-9.98,22.94-9.98,35.72v382.3c0,7.31,1.17,14.47,3.37,21.25,.2,.72,.44,1.43,.73,2.12" fill="#fff"/>
    </g>
  </g>
</svg>