<?xml version="1.0" encoding="UTF-8"?>
<svg width="30px" height="31px" viewBox="0 0 30 31" version="1.1" xmlns="http://www.w3.org/2000/svg" xmlns:xlink="http://www.w3.org/1999/xlink">
    <title>DEX</title>
    <g id="Page-1" stroke="none" stroke-width="1" fill="none" fill-rule="evenodd">
        <g id="DEX" fill-rule="nonzero">
            <path d="M30,16 L30,26 L29,26 L29,27 L27,27 L27,29 L26,29 L26,30 L25,30 L25,31 L0,31 L0,29 L1,29 L1,28 L2,28 L2,27 L3,27 L3,20 L4,20 L4,19 L26,19 L26,18 L27,18 L27,17 L28,17 L28,16 L30,16 Z M27,0 L27,17 L26,17 L26,18 L6,18 L6,3 L7,3 L7,2 L8,2 L8,1 L9,1 L9,0 L27,0 Z" id="bg" fill="#898989"></path>
            <path d="M25,1 L25,17 L8,17 L8,3 L9,3 L9,1 L25,1 Z M23,4 L9,4 L9,5 L22,5 L22,14 L9,14 L9,15 L23,15 L23,4 Z M1,31 L1,30 L24,30 L24,29 L25,29 L25,30 L24,30 L24,31 L1,31 Z M27,21 L27,26 L5,26 L5,21 L27,21 Z M25,22 L15,22 L15,24 L21,24 L21,25 L22,25 L22,24 L25,24 L25,22 Z M27,20 L28,20 L28,19 L29,19 L29,18 L30,18 L30,17 L29,17 L29,18 L28,18 L28,19 L27,19 L27,20 Z" id="lightgray" fill="#CECDCE"></path>
            <path d="M22,6 L10,6 L10,14 L9,14 L9,5 L22,5 L22,6 Z M5,28 L5,29 L4,29 L4,28 L5,28 Z M8,28 L8,29 L7,29 L7,28 L8,28 Z M11,28 L11,29 L10,29 L10,28 L11,28 Z M14,28 L14,29 L13,29 L13,28 L14,28 Z M17,28 L17,29 L16,29 L16,28 L17,28 Z M20,28 L20,29 L19,29 L19,28 L20,28 Z M23,28 L23,29 L22,29 L22,28 L23,28 Z M6,27 L6,28 L5,28 L5,27 L6,27 Z M9,27 L9,28 L8,28 L8,27 L9,27 Z M12,27 L12,28 L11,28 L11,27 L12,27 Z M15,27 L15,28 L14,28 L14,27 L15,27 Z M18,27 L18,28 L17,28 L17,27 L18,27 Z M21,27 L21,28 L20,28 L20,27 L21,27 Z M24,27 L24,28 L23,28 L23,27 L24,27 Z M7,26 L7,27 L6,27 L6,26 L7,26 Z M10,26 L10,27 L9,27 L9,26 L10,26 Z M13,26 L13,27 L12,27 L12,26 L13,26 Z M16,26 L16,27 L15,27 L15,26 L16,26 Z M19,26 L19,27 L18,27 L18,26 L19,26 Z M22,26 L22,27 L21,27 L21,26 L22,26 Z M25,26 L25,27 L24,27 L24,26 L25,26 Z M26,26 L27,26 L27,27 L26,27 L26,26 Z M15,23 L25,23 L25,24 L15,24 L15,23 Z" id="black" fill="#000000"></path>
            <path d="M8,3 L8,17 L7,17 L7,3 L8,3 Z M24,4 L24,16 L9,16 L9,15 L23,15 L23,4 L24,4 Z M25,2 L25,3 L8,3 L8,2 L25,2 Z M26,1 L26,2 L25,2 L25,1 L26,1 Z M3,28 L3,29 L24,29 L24,30 L1,30 L1,29 L2,29 L2,28 L3,28 Z M4,27 L4,28 L3,28 L3,27 L4,27 Z M7,27 L7,28 L6,28 L6,27 L7,27 Z M10,27 L10,28 L9,28 L9,27 L10,27 Z M13,27 L13,28 L12,28 L12,27 L13,27 Z M16,27 L16,28 L15,28 L15,27 L16,27 Z M19,27 L19,28 L18,28 L18,27 L19,27 Z M22,27 L22,28 L21,28 L21,27 L22,27 Z M25,27 L25,28 L24,28 L24,27 L25,27 Z M8,26 L8,27 L7,27 L7,26 L8,26 Z M11,26 L11,27 L10,27 L10,26 L11,26 Z M14,26 L14,27 L13,27 L13,26 L14,26 Z M17,26 L17,27 L16,27 L16,26 L17,26 Z M20,26 L20,27 L19,27 L19,26 L20,26 Z M23,26 L23,27 L22,27 L22,26 L23,26 Z M26,26 L26,27 L25,27 L25,26 L26,26 Z M27,20 L27,21 L5,21 L5,26 L4,26 L4,20 L27,20 Z" id="white" fill="#FFFFFF"></path>
            <path d="M10,6 L22,6 L22,14 L10,14 L10,6 Z M7,23 L9,23 L9,24 L7,24 L7,23 Z" id="pink" fill="#C50EB7"></path>
            <rect id="purple" fill="#7B1573" x="7" y="24" width="2" height="1"></rect>
        </g>
    </g>
</svg>