<?xml version="1.0" encoding="UTF-8"?>
<svg width="219px" height="295px" viewBox="0 0 219 295" version="1.1" xmlns="http://www.w3.org/2000/svg" xmlns:xlink="http://www.w3.org/1999/xlink">
    <title>BLAST</title>
    <defs>
        <path d="M121.576855,2.84217094e-14 C145.460267,2.84217094e-14 169.41644,10.7600782 185.498725,28.2110924 C213.546012,58.6454243 219.76973,107.719464 175.141357,143.283599 C246.096112,185.547092 227.80601,294.110371 129.838357,294.110371 L0,294.110371 L0,2.84217094e-14 L121.576855,2.84217094e-14 Z M110.808934,178.599389 L71.5136891,178.599389 L71.5136891,229.392792 L110.808934,229.392792 C129.184492,229.392792 142.269054,222.237472 142.269054,203.996091 C142.269054,185.754709 129.184492,178.599389 110.808934,178.599389 Z M110.808934,62.5993892 L71.5136891,62.5993892 L71.5136891,117.392792 L110.808934,117.392792 C122.648532,117.392792 134.117818,103.506801 134.277862,89.9960905 C134.442293,76.1151058 122.973008,62.5993892 110.808934,62.5993892 Z" id="path-1"></path>
    </defs>
    <g id="Page-1" stroke="none" stroke-width="1" fill="none" fill-rule="evenodd">
        <g id="BLAST" transform="translate(0.148563, 0.162812)">
            <mask id="mask-2" fill="white">
                <use xlink:href="#path-1"></use>
            </mask>
            <use id="Mask" fill="#FFFFFF" xlink:href="#path-1"></use>
            <path d="M78.9466289,-86.7393176 L113.391381,-31.6161913 L99.4833923,-22.9255154 L116.705768,4.63604776 L102.79778,13.3267237 L111.408968,27.1075053 L125.316956,18.4168293 L133.928144,32.1976109 L106.112167,49.5789627 L97.5009789,35.7981812 L41.8690237,70.5608849 L50.4802118,84.3416665 L22.6642342,101.723018 L14.0530462,87.9422368 L27.961035,79.2515609 L19.3498469,65.4707793 L5.44185815,74.1614552 L-11.6653817,46.6055815 L-25.653618,55.3464016 L-60.1332589,0.167441782 L78.9466289,-86.7393176 Z M56.8625449,3.69764551 L29.7247748,20.6552063 L38.3801228,34.5066586 L65.5178929,17.5490977 L56.8625449,3.69764551 Z M21.0694268,6.80375408 L7.50054177,15.2825345 L16.1558898,29.1339867 L29.7247748,20.6552063 L21.0694268,6.80375408 Z M61.7760819,-18.6325871 L48.2071969,-10.1538067 L56.8625449,3.69764551 L70.4314299,-4.78113489 L61.7760819,-18.6325871 Z M66.688926,-40.9623867 L53.1207339,-32.4840394 L61.7760819,-18.6325871 L75.344274,-27.1109345 L66.688926,-40.9623867 Z M-1.15480621,1.43108224 L-14.7236913,9.90986264 L-6.06834327,23.7613149 L7.50054177,15.2825345 L-1.15480621,1.43108224 Z M93.2150131,264.558408 L104.437396,256.700411 L135.869385,301.589943 L158.314151,285.873948 L126.882162,240.984416 L171.771694,209.552428 L203.203683,254.44196 L225.648449,238.725965 L194.21646,193.836433 L205.438843,185.978436 L284.018815,298.202266 L171.794985,376.782238 L93.2150131,264.558408 Z" id="Combined-Shape" fill="#338CF0" mask="url(#mask-2)"></path>
        </g>
    </g>
</svg>