<?xml version="1.0" encoding="UTF-8"?>
<svg width="335px" height="429px" viewBox="0 0 335 429" version="1.1" xmlns="http://www.w3.org/2000/svg" xmlns:xlink="http://www.w3.org/1999/xlink">
    <title>Group</title>
    <defs>
        <linearGradient x1="100%" y1="50%" x2="100%" y2="97.2365214%" id="linearGradient-1">
            <stop stop-color="#733BAD" offset="0%"></stop>
            <stop stop-color="#3F205F" offset="100%"></stop>
        </linearGradient>
    </defs>
    <g id="Page-1" stroke="none" stroke-width="1" fill="none" fill-rule="evenodd">
        <g id="Group" transform="translate(0.903663, 0.080259)">
            <path d="M257.852218,246.446333 L256.391901,447.128896 C256.371807,449.890246 254.117001,452.112474 251.35565,452.092381 C251.202702,452.091268 251.049886,452.083137 250.897683,452.068015 L197.267559,446.739498 C193.165164,446.331897 190.044262,442.873505 190.058567,438.750937 L190.604783,281.331001 C190.614643,278.489134 192.13141,275.86582 194.589401,274.439431 L250.342767,242.08537 C252.731166,240.699366 255.790926,241.511967 257.17693,243.900367 C257.625534,244.673412 257.858722,245.552575 257.852218,246.446333 Z" id="Path" fill="url(#linearGradient-1)" transform="translate(223.974637, 345.150275) rotate(60.000000) translate(-223.974637, -345.150275) "></path>
            <path d="M153.295227,126.682443 L153.295227,419.940171 C153.295227,422.701594 151.056651,424.940171 148.295227,424.940171 C147.400947,424.940171 146.523034,424.700325 145.752977,424.245628 L89.932399,391.285156 C87.4953588,389.846153 86,387.2266 86,384.396424 L86,161.658881 C86,158.807085 87.5181026,156.170917 89.9846666,154.739553 L145.785644,122.357863 C148.174044,120.971858 151.233803,121.78446 152.619807,124.172859 C153.062216,124.93523 153.295227,125.801004 153.295227,126.682443 Z" id="Path" fill="#733BAD"></path>
            <path d="M143.911028,-15.1551047 L142.450711,185.527458 C142.430617,188.288809 140.175811,190.511037 137.41446,190.490943 C137.261512,190.48983 137.108696,190.4817 136.956493,190.466577 L83.3263687,185.13806 C79.2239744,184.73046 76.1030722,181.272068 76.1173767,177.149499 L76.6635925,19.7295632 C76.6734533,16.8876961 78.1902199,14.2643827 80.648211,12.8379936 L136.401577,-19.5160673 C138.789977,-20.902072 141.849736,-20.0894704 143.23574,-17.7010708 C143.684344,-16.9280251 143.917532,-16.0488623 143.911028,-15.1551047 Z" id="Path" fill="url(#linearGradient-1)" transform="translate(110.033447, 83.548838) rotate(240.000000) translate(-110.033447, -83.548838) "></path>
            <path d="M248.008083,8.68244267 L248.008083,301.940171 C248.008083,304.701594 245.769507,306.940171 243.008083,306.940171 C242.113803,306.940171 241.235889,306.700325 240.465833,306.245628 L184.645255,273.285156 C182.208215,271.846153 180.712856,269.2266 180.712856,266.396424 L180.712856,43.6588808 C180.712856,40.8070848 182.230958,38.170917 184.697522,36.739553 L240.4985,4.35786278 C242.886899,2.97185815 245.946658,3.78445976 247.332663,6.17285928 C247.775072,6.93522959 248.008083,7.80100409 248.008083,8.68244267 Z" id="Path" fill="#733BAD" transform="translate(214.360469, 155.349557) rotate(180.000000) translate(-214.360469, -155.349557) "></path>
        </g>
    </g>
</svg>