<svg width="40" height="40" viewBox="0 0 40 40" fill="none" xmlns="http://www.w3.org/2000/svg">
<g clip-path="url(#clip0_61_337)">
<path d="M20 40C31.0457 40 40 31.0457 40 20C40 8.95431 31.0457 0 20 0C8.95431 0 0 8.95431 0 20C0 31.0457 8.95431 40 20 40Z" fill="#2470FF"/>
<path d="M39.875 20C39.875 9.02334 30.9767 0.125 20 0.125C9.02334 0.125 0.125 9.02334 0.125 20C0.125 30.9767 9.02334 39.875 20 39.875C30.9767 39.875 39.875 30.9767 39.875 20Z" stroke="black" stroke-opacity="0.1" stroke-width="0.25"/>
<g opacity="0.8">
<path d="M11.6577 23.6399V29.5965C11.6577 29.9633 11.968 30.1155 12.0645 30.15C12.1611 30.1916 12.4852 30.2815 12.7749 30.0117L17.2811 25.6812C17.6648 25.3124 18.0352 24.9248 18.3136 24.4713C18.4445 24.2581 18.4988 24.138 18.4988 24.138C18.7748 23.5776 18.7748 23.038 18.5057 22.4983C18.1059 21.6957 17.0851 20.8793 15.5472 20.1045L12.9197 21.5712C12.1404 22.014 11.6577 22.7959 11.6577 23.6399Z" fill="white"/>
<path d="M28.4181 23.6399V29.5965C28.4181 29.9633 28.1079 30.1155 28.0112 30.15C27.9148 30.1916 27.5904 30.2815 27.3009 30.0117L22.6897 25.5805C22.3759 25.2788 22.0761 24.9597 21.8397 24.5941C21.6524 24.3047 21.5769 24.138 21.5769 24.138C21.3011 23.5776 21.3011 23.038 21.5699 22.4983C21.97 21.6957 22.9907 20.8793 24.5284 20.1045L27.156 21.5712C27.9423 22.014 28.4181 22.7959 28.4181 23.6399Z" fill="white"/>
</g>
<path d="M9.06668 10.391V16.6384C9.06668 17.4201 9.59081 18.112 10.3356 18.3333C12.8735 19.0667 17.294 20.6441 18.3631 22.9617C18.5008 23.2661 18.5836 23.5637 18.6113 23.8749C19.3217 22.5812 19.6457 21.0937 19.4941 19.5856C19.2871 17.4477 18.156 15.5037 16.3907 14.2653L10.0943 9.85831C9.98389 9.77528 9.85287 9.73377 9.72184 9.73377C9.61149 9.73377 9.51495 9.75453 9.41151 9.80988C9.2046 9.92749 9.06668 10.142 9.06668 10.391Z" fill="white"/>
<path d="M31.0133 10.3906V16.6379C31.0133 17.4197 30.4891 18.1115 29.7443 18.3329C27.2064 19.0663 22.786 20.6437 21.7169 22.9613C21.5789 23.2657 21.4961 23.5632 21.4687 23.8745C20.7583 22.5808 20.4343 21.0933 20.5859 19.5852C20.7927 17.4473 21.9237 15.5033 23.6893 14.2649L29.9857 9.85787C30.0961 9.77484 30.2271 9.73333 30.3581 9.73333C30.4684 9.73333 30.5651 9.75409 30.6683 9.80944C30.8753 9.92705 31.0133 10.1415 31.0133 10.3906Z" fill="white"/>
<g style="mix-blend-mode:soft-light" opacity="0.25">
<path d="M40 20C40 8.9543 31.0457 0 20 0C8.9543 0 0 8.9543 0 20C0 31.0457 8.9543 40 20 40C31.0457 40 40 31.0457 40 20Z" fill="url(#paint0_linear_61_337)"/>
</g>
</g>
<defs>
<linearGradient id="paint0_linear_61_337" x1="20" y1="0" x2="20" y2="40" gradientUnits="userSpaceOnUse">
<stop stop-color="white"/>
<stop offset="0.0666667" stop-color="#FDFDFD"/>
<stop offset="0.133333" stop-color="#F6F6F6"/>
<stop offset="0.2" stop-color="#EAEAEA"/>
<stop offset="0.266667" stop-color="#D9D9D9"/>
<stop offset="0.333333" stop-color="#C4C4C4"/>
<stop offset="0.4" stop-color="#AAAAAA"/>
<stop offset="0.466667" stop-color="#8E8E8E"/>
<stop offset="0.533333" stop-color="#717171"/>
<stop offset="0.6" stop-color="#555555"/>
<stop offset="0.666667" stop-color="#3B3B3B"/>
<stop offset="0.733333" stop-color="#262626"/>
<stop offset="0.8" stop-color="#151515"/>
<stop offset="0.866667" stop-color="#090909"/>
<stop offset="0.933333" stop-color="#020202"/>
<stop offset="1"/>
</linearGradient>
<clipPath id="clip0_61_337">
<rect width="40" height="40" fill="white"/>
</clipPath>
</defs>
</svg>
