<?xml version="1.0" encoding="UTF-8"?>
<svg width="400px" height="400px" viewBox="0 0 400 400" version="1.1" xmlns="http://www.w3.org/2000/svg" xmlns:xlink="http://www.w3.org/1999/xlink">
    <title>pRNDR Copy</title>
    <defs>
        <linearGradient x1="73.520722%" y1="5.7505426%" x2="26.0855017%" y2="94.1661125%" id="linearGradient-1">
            <stop stop-color="#00EAFF" offset="0%"></stop>
            <stop stop-color="#0080FF" offset="25.2530882%"></stop>
            <stop stop-color="#8000FF" offset="49.7394282%"></stop>
            <stop stop-color="#E619E6" offset="74.9912298%"></stop>
            <stop stop-color="#FF0000" offset="99.9136118%"></stop>
        </linearGradient>
    </defs>
    <g id="Page-1" stroke="none" stroke-width="1" fill="none" fill-rule="evenodd">
        <g id="pRNDR-Copy">
            <circle id="Oval" fill="url(#linearGradient-1)" fill-rule="nonzero" cx="200" cy="200" r="200"></circle>
            <path d="M200,42 C287.26099,42 358,112.73901 358,200 C358,287.26099 287.26099,358 200,358 C112.73901,358 42,287.26099 42,200 C42,164.075758 53.9893027,130.951768 74.1848925,104.411045 C70.9243854,99.9497974 69,94.4496309 69,88.5 C69,73.5883118 81.0883118,61.5 96,61.5 C110.911688,61.5 123,73.5883118 123,88.5 C123,103.411688 110.911688,115.5 96,115.5 C91.3566547,115.5 86.9870739,114.327875 83.1709977,112.263365 C64.5514287,136.771395 53.5,167.345098 53.5,200.5 C53.5,281.133573 118.866427,346.5 199.5,346.5 C280.133573,346.5 345.5,281.133573 345.5,200.5 C345.5,119.866427 280.133573,54.5 199.5,54.5 L199.499258,42 L200,42 Z M200.5,126 C241.092929,126 274,158.907071 274,199.5 C274,240.092929 241.092929,273 200.5,273 C159.907071,273 127,240.092929 127,199.5 C127,158.907071 159.907071,126 200.5,126 Z M96,72.5 C87.163444,72.5 80,79.663444 80,88.5 C80,97.336556 87.163444,104.5 96,104.5 C104.836556,104.5 112,97.336556 112,88.5 C112,79.663444 104.836556,72.5 96,72.5 Z" id="logo" fill="#FFFFFF"></path>
        </g>
    </g>
</svg>