<svg width="40" height="40" viewBox="0 0 40 40" fill="none" xmlns="http://www.w3.org/2000/svg">
<g clip-path="url(#clip0_47_89)">
<path d="M40 20C40 8.9543 31.0457 0 20 0C8.9543 0 0 8.9543 0 20C0 31.0457 8.9543 40 20 40C31.0457 40 40 31.0457 40 20Z" fill="#F59A31"/>
<path d="M39.875 20C39.875 9.02334 30.9767 0.125 20 0.125C9.02334 0.125 0.125 9.02334 0.125 20C0.125 30.9767 9.02334 39.875 20 39.875C30.9767 39.875 39.875 30.9767 39.875 20Z" stroke="black" stroke-opacity="0.1" stroke-width="0.25"/>
<path d="M27.1999 15.7663C26.9695 13.3624 24.8959 12.5559 22.2731 12.3102V9H20.2455V12.2487C19.7117 12.2487 19.1664 12.2487 18.625 12.2487V9H16.6128V12.3332H12.5V14.5029C12.5 14.5029 13.9976 14.476 13.9746 14.5029C14.2446 14.4732 14.5157 14.5495 14.7306 14.7156C14.9455 14.8818 15.0875 15.125 15.1266 15.3938V24.5179C15.1209 24.6127 15.0961 24.7054 15.0539 24.7905C15.0117 24.8756 14.9529 24.9513 14.8809 25.0133C14.8102 25.0764 14.7275 25.1246 14.6378 25.1549C14.548 25.1853 14.4531 25.1972 14.3586 25.1899C14.3855 25.213 12.884 25.1899 12.884 25.1899L12.5 27.613H16.5744V31H18.6019V27.6629H20.2225V30.9846H22.2539V27.6361C25.6793 27.4287 28.0678 26.5839 28.3673 23.3774C28.6093 20.7968 27.3958 19.6448 25.4565 19.1801C26.6355 18.6003 27.3651 17.525 27.1999 15.7663ZM24.3583 22.978C24.3583 25.4971 20.042 25.2091 18.6672 25.2091V20.7392C20.042 20.7431 24.3583 20.3475 24.3583 22.978ZM23.4174 16.6802C23.4174 18.9843 19.8154 18.704 18.6711 18.704V14.6411C19.8154 14.6411 23.4174 14.2802 23.4174 16.6802Z" fill="white"/>
<path d="M10.8455 6.52708C16.352 2.77656 23.648 2.77656 29.1545 6.52708M6.52705 10.8455C2.77654 16.352 2.77654 23.648 6.52705 29.1545M29.1545 33.4729C23.648 37.2234 16.352 37.2234 10.8455 33.4729M33.4729 29.1545C37.2234 23.648 37.2234 16.352 33.4729 10.8455" stroke="white" stroke-width="1.5" stroke-linecap="round"/>
<g style="mix-blend-mode:soft-light" opacity="0.25">
<path d="M40 20C40 8.9543 31.0457 0 20 0C8.9543 0 0 8.9543 0 20C0 31.0457 8.9543 40 20 40C31.0457 40 40 31.0457 40 20Z" fill="url(#paint0_linear_47_89)"/>
</g>
</g>
<defs>
<linearGradient id="paint0_linear_47_89" x1="20" y1="0" x2="20" y2="40" gradientUnits="userSpaceOnUse">
<stop stop-color="white"/>
<stop offset="0.0666667" stop-color="#FDFDFD"/>
<stop offset="0.133333" stop-color="#F6F6F6"/>
<stop offset="0.2" stop-color="#EAEAEA"/>
<stop offset="0.266667" stop-color="#D9D9D9"/>
<stop offset="0.333333" stop-color="#C4C4C4"/>
<stop offset="0.4" stop-color="#AAAAAA"/>
<stop offset="0.466667" stop-color="#8E8E8E"/>
<stop offset="0.533333" stop-color="#717171"/>
<stop offset="0.6" stop-color="#555555"/>
<stop offset="0.666667" stop-color="#3B3B3B"/>
<stop offset="0.733333" stop-color="#262626"/>
<stop offset="0.8" stop-color="#151515"/>
<stop offset="0.866667" stop-color="#090909"/>
<stop offset="0.933333" stop-color="#020202"/>
<stop offset="1"/>
</linearGradient>
<clipPath id="clip0_47_89">
<rect width="40" height="40" fill="white"/>
</clipPath>
</defs>
</svg>
