<svg width="60" height="56" viewBox="0 0 60 56" fill="none" xmlns="http://www.w3.org/2000/svg">
<path fill-rule="evenodd" clip-rule="evenodd" d="M60 31.0287C60 31.3135 59.9341 31.5843 59.809 31.8193L46.9418 54.1059C46.3961 55.0511 45.3876 55.6333 44.2962 55.6333H15.7038C14.6124 55.6333 13.6039 55.0511 13.0582 54.1059L0.189789 31.8172C0.0651024 31.5826 0 31.3131 0 31.0287C0 30.1062 0.74779 29.3584 1.67024 29.3584H15.788L19.3658 35.4356L19.3878 35.4719C19.8652 36.2385 20.8698 36.4883 21.6525 36.0275L21.693 36.0029C22.0538 35.7764 22.3151 35.4201 22.4221 35.0065L26.981 17.3827L30.8955 45.756L30.9014 45.7955C31.046 46.6881 31.8778 47.3065 32.7783 47.1823L32.8192 47.1761C33.4712 47.0697 34.001 46.5881 34.1671 45.946L39.6622 24.7031L41.9184 28.5355L41.9408 28.5725C42.2453 29.0605 42.7805 29.3584 43.3578 29.3584H58.3298C59.2522 29.3584 60 30.1062 60 31.0287ZM44.2962 0C45.3876 0 46.3961 0.582252 46.9418 1.52743L59.8098 23.8151C59.9343 24.0498 60 24.3204 60 24.6047C60 25.5271 59.2522 26.2749 58.3298 26.2749H44.1658L40.588 20.1978L40.5634 20.1573C40.3369 19.7964 39.9806 19.5351 39.5669 19.4281L39.5281 19.4186C38.6476 19.2127 37.7593 19.7467 37.5316 20.6268L32.9726 38.2505L29.0583 9.87736L29.0521 9.83646C28.9457 9.18444 28.4641 8.65472 27.822 8.48862C26.9289 8.25761 26.0177 8.79429 25.7867 9.68734L20.2914 30.9301L18.0353 27.0978L18.0129 27.0608C17.7084 26.5728 17.1732 26.2749 16.596 26.2749H1.67024C0.74779 26.2749 0 25.5271 0 24.6047C0 24.3226 0.0633549 24.0559 0.185744 23.8227L13.0582 1.52743C13.6039 0.582252 14.6124 0 15.7038 0H44.2962Z" fill="url(#paint0_linear_3050_298)"/>
<defs>
<linearGradient id="paint0_linear_3050_298" x1="45.7358" y1="4.14988" x2="17.5221" y2="53.4056" gradientUnits="userSpaceOnUse">
<stop stop-color="#00EAFF"/>
<stop offset="0.252531" stop-color="#0080FF"/>
<stop offset="0.497394" stop-color="#8000FF"/>
<stop offset="0.749912" stop-color="#E619E6"/>
<stop offset="0.999136" stop-color="#FF0000"/>
</linearGradient>
</defs>
</svg>
