<svg xmlns="http://www.w3.org/2000/svg" xmlns:xlink="http://www.w3.org/1999/xlink" width="2000" height="2000" xmlns:v="https://vecta.io/nano"><style><![CDATA[.B{fill-rule:nonzero}.C{fill:#0f141c}.D{fill:#ea15c0}.E{stroke:#0f141c}.F{fill:#b60df1}.G{stroke-linejoin:round}.H{stroke-linecap:round}]]></style><defs><circle id="A" cx="1000" cy="1000" r="1000"/><linearGradient x1="45.039928%" y1="9.66981801%" x2="55.4231644%" y2="80.1267899%" id="B"><stop stop-color="#1b1515" offset="0%"/><stop stop-color="#652d90" offset="100%"/></linearGradient><linearGradient x1="48.6820588%" y1="22.2646687%" x2="54.0118517%" y2="74.0610926%" id="C"><stop stop-color="#1b1515" offset="0%"/><stop stop-color="#652d90" offset="100%"/></linearGradient><path d="M304.313 122.723c11.67-77.33 8.27-119.61-37.1-121.99-35.67-1.87-61.46.43-61.46.43-28.51.92-59.66-.51-88.33 1.77-44.06 3.5-55.05 2.45-90.35 18.19-50.25 22.41-18.48 119.63-.67 170.86 12.08 39.49 39.25 55.13 78.94 57.36 43.43 4.25 90.21 3.05 134.47-13.06 38.76-14.11 60.28-85.63 64.5-113.57h0v.01z" id="D"/><path d="M182.19 174.677c-.69-43.18 6.25-119.52-14.48-160.01-3.03-5.91-8.31-10.37-14.75-12.01-31.26-7.98-106.34 3.3-134.08 16.81-3.03 1.48-5.6 3.72-7.45 6.54-19.24 29.42-8.71 66.63-7.21 98.9 1.52 56.01 40.73 89.29 90.84 84.75 55.27-5 87.54-8.42 87.12-34.98h0 .01z" id="E"/></defs><g fill="none" fill-rule="evenodd"><mask id="F" fill="#fff"><use xlink:href="#A"/></mask><g mask="url(#F)"><g class="B"><path fill="#180e1e" d="M0 0h2000v2000H0z"/><g transform="translate(26.614 1165.781)"><path d="M118.666 136.159c-17.11 19.25-32 41.86-44.29 67.28-26.47 54.81-41.07 123.93-43.38 205.43l-2.19 78c-47.82 105.98-35.67 232.47 33.23 340.49 63.81 100.05 163.78 162.41 248.77 155.19h.02l3.6-.35c10.53-1.14 20.99-3.38 31.08-6.65l52.97-17.25-44.52-35.46c-1.17-.93-116.54-94.4-82.37-205.74l7.49-24.39c16.1-8.48 34.02-13.9 52.45-15.46 37.92-3.22 95.42 7.64 154.03 77.67l73.16 87.42-23.8-113.41c-15.48-73.77-18.88-144.36-10.38-215.95.52-4.56 1.13-9.13 2-15.06 5.03-36.11 13.22-73.95 25.03-115.71 3.5-12.42 7.56-25.92 12.4-41.31l8.02-24.65c11.53-34.83 24.22-70.13 37.66-107.49l10.18-28.36 21.89-62.21 15.9-47.45 8.84-27.25-25.61-10.64c-3.87-1.61-95.79-39.31-183.29-31.88-34.73 2.95-64.62 12.69-88.84 28.95l-23.09 15.5c-12.48-.16-25.38.23-38.52 1.34-73.81 6.27-134.37 33.31-180.13 80.41l-8.31 9h0v-.01z" class="C"/><path d="M630.526 60.799l-15.74 46.95-21.77 61.86-48.07 136.52-8.17 25.09-12.67 42.2c-11.23 39.72-20.24 79.29-25.9 119.87l-2.09 15.85c-8.32 69.99-6.5 143.38 10.84 226.01-156.43-186.92-356.42-38.39-316.54 85.19 20.09-99.6 53.91-112.71 53.91-112.71-41.05 133.76 92.5 239.16 92.5 239.16-8.33 2.7-16.89 4.54-25.6 5.48-155.14 16.7-361.07-239.22-252.68-460.61 12.49-25.49 25.75-47.71 39.41-67.03 7.75-10.98 15.61-21.01 23.56-30.22 97.35-112.7 205.57-99.32 209.04-98.84-2.38-.95-4.68-1.79-7.01-2.58-60.33-20.87-115.02-5.8-158.72 19.61-64.51 37.44-105.23 97.42-105.23 97.42 2.33-82.31 17.3-145.12 40.32-192.79 12.04-24.89 26.19-45.67 41.92-62.86 6.993-7.64 7.003-7.657.03-.05l1.21-1.36c120.05-129.83 327.24-57.72 331.98-56.03.04-.01.09.02.09.02-.01-.72-.02-1.43-.11-2.09-3.51-29.72-90.78-39.57-90.78-39.57 89.11-59.82 246.26 5.5 246.26 5.5h.01v.01z" fill="#8530a5"/><path d="M524.126 373.419c-11.23 39.72-20.24 79.29-25.9 119.87l-2.09 15.85c-3.6-7.18-7.7-14.77-12.39-22.79-52.93-90.86-288.33-74.63-288.33-74.63 56.57-39.26 157.53-39.42 157.53-39.42-64.71-40.22-174.83-2.27-231.41 22.1 97.35-112.7 205.57-99.32 209.04-98.84 29.34 1.26 137.05 40.47 193.55 77.85h0v.01z" fill="#49185e"/><path d="M311.256 952.269c-155.14 16.7-361.07-239.22-252.68-460.61 12.49-25.49 25.75-47.71 39.41-67.03-31.93 105.36-26.27 96.87-26.82 175.33-.59 78.48 7.16-27.94 44.64-50.22 37.36-22.24-121.19 260.74 195.46 402.53h-.01z" fill="#a868aa"/><g fill="#49185e"><path d="M593.026 169.609l-48.07 136.52c-50.53-116.59-244.71-136.48-244.71-136.48 24.25-17.7 73.36-20.45 73.36-20.45-50.42-21.35-115.86-53.01-230.52 3.75 120.05-129.83 327.24-57.72 331.98-56.03.04-.01.09.02.09.02-.01-.72-.02-1.43-.11-2.09 42.97 23.43 109.8 59.98 117.98 74.75h0v.01zm37.5-108.81l-15.74 46.95c-69.65-76.62-230.53-52.45-230.53-52.45 89.11-59.82 246.26 5.5 246.26 5.5h.01z"/></g><path d="M164.836 312.599c-64.51 37.44-105.23 97.42-105.23 97.42 2.33-82.31 17.3-145.12 40.32-192.79 12.04-24.89 26.19-45.67 41.92-62.86-24.13 70.15-23.71 112.73-22.75 130.48.97 18.94 8.05-49.6 59.39-79.26 48.98-28.32-37.05 30.13-13.64 107h0l-.01.01z" fill="#a868aa"/></g><path d="M1421.17 947.16c36.95 54.49 46.22 78.32 51.32 94.84s-16.9-3.86-26.66-13.63c-9.76-9.76 28.42 43.42 40.23 75.12 11.81 31.69-9.34 10.47-18.95 1.61-9.62-8.86 7.02 19.47 27.25 58.98 20.23 39.52 26.33 108.49 9.17 107.99-17.16-.49-30.87 19.05-30.87 19.05l-97.64-130.68-43.49-88.94s-37.56-73.67-34.61-79.22c2.96-5.55 10.05-51.26 10.05-51.26l45.61-7.39 36.87 3.17 31.71 10.35h.01v.01z" class="F"/><g class="D"><path d="M1446.32 1255.87l26.34 35.26s1.82-2.57 4.92-5.81l-31.27-29.44h.01v-.01zm48.04-91.79c-20.23-39.52-36.87-67.84-27.25-58.98s30.77 30.08 18.95-1.61-50-84.88-40.23-75.12c9.76 9.76 31.76 30.14 26.66 13.63-5.1-16.52-14.37-40.34-51.32-94.84l-31.71-10.35-36.87-3.17-45.61 7.39-.49 3.13 69.5-5.9 14.57 55.72 6.94-19.21 20.98 59.85 21.93 63.1c.43 2.97 15.15 60.32 15.15 60.32s.78 25.47 3.59 27.24 8.52-23.84 8.52-23.84l11.83 21.16s17.94 41.38 6.37 95.54c4.99-3.48 11.07-6.26 17.67-6.07 17.16.49 11.05-68.48-9.17-107.99h-.01 0z"/></g></g><path d="M1375.76 935.63c11.06 39.49 15.75 65.67 15.75 65.67l3.41-33.79s61.06 170.17 63.18 209.19 8.6-21.92 8.6-21.92 41.38 67.92 16.14 135.48" stroke-width="10.06" class="E G H"/><g class="B"><path d="M1447.42 1251.76c-.23-52.95-26.78-100.48-26.78-100.48s8.51 35.3-1.98 23.47c-10.48-11.82-41.01-120.46-41.01-120.46s-8.46 25.08-11.98 21.14c-3.36-3.77-10.44-62.53-38.12-137.74l-20.58 3.33s-7.09 45.71-10.05 51.26 34.61 79.22 34.61 79.22l43.49 88.94 78.89 105.58.81.08-7.29-14.34h-.01 0z" fill="#552bff"/><path d="M1090.04 2361.26c-358.86 26.14-637.41-191.52-599.31-564.66 15.52-153.1 76.97-304.17 104.28-453.16 7.12-39.43 11.26-78.15 14.94-117.68 7.37-92.91 28.31-180.76 39.18-277.05 9.72-83.47 10.43-176.18-2.54-261.61-7.2-61.91-22.28-129.24 10.85-176.58 36.7-48.24 129.97-57.9 188.74-68.15 72.5-10.16 148.87-22.82 220.38-20.52 83.77 1.89 173.13 30.27 216.98 103.43 30.84 48.68 50.7 107.88 56.37 165.94 7.2 72.43-3.79 145.07-14.04 213.73-3.69 25.57-6.71 50.56-6.75 76.56 1 127.37 76.35 247.07 146.21 354.14 124.35 181.42 278.33 403.88 209.97 629.43-20.21 65.92-57.74 124.6-104.5 175.63-123.03 133.67-298.58 207.38-479.98 220.51l-.78.06v-.02z" class="C"/><path d="M1098.44 2330.42l-9.78.77-.74.05c-181.9 13.25-345.36-40.07-448.52-146.27-93.58-96.33-134.63-229.57-118.72-385.32 8.76-86.39 33.23-174.49 56.89-259.69 17.38-62.59 35.36-127.32 47.05-191.11 7.01-38.85 11.19-76.18 15.3-120.31l.03-.41c4-50.46 12.04-98.96 20.55-150.3 6.7-40.47 13.64-82.31 18.54-125.76 7.55-64.85 13.23-164.22-2.62-268.99l-3.23-25.43c-6.66-50.42-12.95-98.07 8.55-129.39 25.52-32.78 96.14-44.25 147.76-52.63l21.35-3.54 25.99-3.7c37.1-5.32 75.47-10.82 112.69-13.98 28.42-2.41 53.3-3.23 76.06-2.5 42.54.96 145.81 11.53 192.14 88.82l.39.63c28.15 44.44 46.56 98.69 51.84 152.76 6.78 68.23-3.6 137.68-13.63 204.85l-.23 1.51c-3.66 25.35-7.03 52.59-7.08 80.96 1.1 140.74 87.8 273.61 151.1 370.63l2.84 4.16c119.07 173.69 267.25 389.86 203.53 600.11-17.47 57.01-50.42 112.22-97.88 164.02-110.62 120.18-270.52 194.8-450.19 210.06h.02 0z" fill="#26213a"/><path d="M1231.37 796.76l-151.76-20.94-126.48 37.39 65.96 17.3s-102.79 232.16-95.1 345.32c0 0 38.79-85.61 101.47-133.3-53.39 92.14-86.72 147.21-92.89 234.21s-14.98 200.04-63.32 280.3c0 0 15.99-68.01 16.18-145.01 0 0-20.51 116.89-44.7 159.34-21.34 37.44-76.62 62.82-87.78 122.26l-1.95 25.79c.17 5.92-.08 10.51-.69 13.99-9.22 272.95 253.75 429.94 417.87 391.78 0 0-90.07 69.57-249.75 10.74 0 0 161.3 163.94 404.37-34.35 0 0-51.65 102.2-152.75 151.1 0 0 385.61-72.03 382.19-426.62s-359.43-523.92-320.87-1029.31h0v.01z" fill="#423a59"/><path d="M1529.08 1342.4c-20.39-28.63-42.17-56.33-63.23-83.13l-40.21-51.84c-52.45-69.48-91.87-144.57-117.16-223.19-4.1-12.74-7.77-25.66-11.18-37.8l-12.4-44.22-35.59 29.03c-1.75 1.43-3.61 2.75-5.53 3.93l-.52.32-22.7 2.9c-18.46 2.36-36.89 3.61-56.4 4.93l-34.24 2.35-1.28 26.74-.25 5.96-.21 5.24c-5.81 96.12-13.3 189.85-40.75 279.85-16.22 53.11-25.21 105.8-26.75 156.62l-.02.77 1.37 64.75.27 1.84c4.39 30.02 9.84 67.38 27.72 101.27l2.52 4.78 1.55 1.39c6.79 15.14 16.24 28.53 28.17 39.9 11.52 10.99 25.31 20.18 42.16 28.08 29.43 13.78 61.85 17.6 99.11 11.66 8.89-1.42 18.05-3.37 28.01-5.96 29.4-7.68 53.34-20.25 71.97-37.89l31.11 2.98c14.71 1.41 28.12 1.1 40.99-.95h0c22.07-3.51 42.28-12.37 60.07-26.34 71.66-56.25 88.19-186.99 33.38-263.96h.02v-.01z" class="C"/><path d="M1320.78 1240.59c-25.64-52.05-50.77-104.43-68.7-160.49-11.35-35.49-20.13-71.45-23.86-108.23-21.82 2.76-43.74 4.09-65.67 5.6l-.5 11.58c1.6 6.5 3.57 12.91 4.75 19.5 12.99 72.12 32.22 141.89 61.86 208.03l65.8 151.76c19.3 47.7 28.59 96.89 10.72 148.54-19.47 56.25-67.11 79.12-121.34 80.07-16.01.28-36.18-3.89-66.34-22.62 11.2 29.37 38.42 53.16 63.52 64.91 34.91 16.35 71.14 13.13 106.74 3.83 60.85-15.89 90.81-54.49 97.86-122.73 3.8-36.84-.03-72.82-7.14-108.92-11.83-60.11-31.13-116.89-57.7-170.84h0v.01z" fill="#862c4f"/><path d="M1477.13 1582.68c-16.63 13.04-34.68 19.63-54.59 21.32l-1.01.09c-7.73.58-15.74.43-24.04-.37 23-49.18 25.56-100.32 20.56-152.18-4.82-50.1-17.7-98.19-33.78-145.26-10.3-30.19-23.31-58.87-36.86-87.28l-21.83-45.44c-30.44-64.19-56.82-130.31-65.25-203.28-.38-3.14-.61-6.29-.8-9.44 3.09-1.89 6-3.98 8.79-6.26l11.49 38.89c27.59 85.72 69.26 162.51 121.79 232.11 34.03 45.05 70.16 88.22 102.95 134.28 45.56 63.96 30.61 177.27-27.43 222.82h.01 0z" fill="#591735"/><path d="M1504.56 1359.86c-32.79-46.06-68.92-89.23-102.95-134.28-26.03-34.49-49.39-70.75-69.69-108.99 28.01 91.55 63.78 171.07 117.56 231.51 49.51 55.65 89.62 163.1-11.08 253.37 13.77-3.26 26.63-9.29 38.73-18.78 58.04-45.55 72.99-158.86 27.43-222.82h0v-.01z" fill="#361321"/><path d="M1183.43 1606.12c121.16 17.92 162.97-143.25 113.93-232.58-54.03-125.61-113.04-247.63-134.22-384.51-5.94 98.44-13.76 196.27-42.58 290.78-23.54 99.33-72.77 285.78 62.88 326.3" fill="#b24669"/><path d="M530.67 784.18c142.39-49.16 295.38-104.87 458.98-120.68 164.83-15.94 265.59-2.26 350.28-23.57 95.93-24.14 214.23-63.23 179.88 46.7-18.93 61.24-19.45 107.29-9.14 148.35 7.36 29.34-33.12 38.17-59.35 54.95-10.74 6.87-33.19 6.75-44.7 1.27l-94.26-44.87s6.45-82.29-49.94-103c-35.51.91-28.48 81.73-46.76 132.77-18.29 51.04-39.46 82.37-147.3 84.05s-148.67 27.51-185.8-141.22c-25.78-112.07-246.61-27.9-246.61-27.9l-89.83 25.01-15.44-31.85h-.01v-.01z" fill="#bde4ea"/><g fill="#90cacd"><path d="M791.26 763.1c1.56-23.68 14.5-39.05 47.4-42.56 32.89-3.51 72.48-24.71 83.32-39.9s192.57-26.35 198.95-26.89 5.3 28.81 59.87 35.8c34.85 4.47 20.59 69.26 20.59 69.26l29.47 16.64-19.31 102.93-55.56 64.76-47.05 14.71-137.27 5.36-43.87-18.33-27.64-59.02-18.63-73.09c.02-3.11-38.91-45.47-38.91-45.47l-51.37-4.2h.01 0zm514.09-57.55c17.67-33.29 13.28-42.91 49.64-51.7 36.36-8.8 92.15-30.92 102.87-39.91s32.72-1.98 33 34.95 2.75 65.97-19.47 56.44-72.61-21.66-72.61-21.66l-93.43 21.88h0 0zm172.4 18.65c35.34-15.28 38.13-36.92 38.31-20.17s-8.39 63.07-6.36 67.93 9.16 62.02 5.41 64.52c-3.74 2.49-45.6 43.49-45.6 43.49l-21.88-22.01 15.98-34.23s8.25-62.46 11.56-73.96c3.3-11.5 2.58-25.56 2.58-25.56h0v-.01z"/></g><g fill="#5c909c"><path d="M946.12 687.64c-3.82-2.66-56.71 29.56-59.53 63.7-5.18 62.76 11.81 91.61 15.67 100.47 11.53 26.48 38.6 42.73 38.3 39.19s-13.26-97.35-17.35-103.42c-4.08-6.08-59.5-11.58 22.91-99.93h0v-.01zm524.15 196.62c2.66-1.39 37.31-17.89 41.18-44.62 3.86-26.73-26.5-42.78-30.52-70.55-4.01-27.77-6.46 49.43-5.51 51.49s-13.45 26.66-18.26 26.97-8.67 20.48-8.67 20.48l21.78 16.24h0v-.01z"/></g></g><path d="M530.67 784.18c142.39-49.16 295.06-108.63 458.98-120.68 154.69-11.38 214.54-12.32 327.44-26.9 138.66-17.9 231.31-67.58 202.72 50.02-18.93 61.24-5.15 111.68-9.14 148.35-4.59 42.09-86.28 64.68-86.28 64.68l-57.5-23.04c-31.88-12.77-40.02-42.3-47.22-75.88-5.86-27.32-29.24-49.5-57.26-57.41-35.51.91-28.48 81.73-46.76 132.77-18.29 51.04-39.46 82.37-147.3 84.05s-148.67 27.51-185.8-141.22c-25.78-112.07-246.61-27.9-246.61-27.9l-89.83 25.01-15.44-31.85h0 0z" stroke-width="16.77" class="E G"/><g class="B"><path d="M1485.21 832.47c-.69-43.18 6.25-119.52-14.48-160.01-3.03-5.91-8.31-10.37-14.75-12.01-31.26-7.98-106.34 3.3-134.08 16.81-3.03 1.48-5.6 3.72-7.45 6.54-19.24 29.42-8.71 66.63-7.21 98.9 1.52 56.01 40.73 89.29 90.84 84.75 55.27-5 87.54-8.42 87.12-34.98h0 .01z" fill="url(#B)"/><path d="M1203.99 809.16c11.67-77.33 8.27-119.61-37.1-121.99-35.67-1.87-61.46.43-61.46.43-28.51.92-59.66-.51-88.33 1.77-44.06 3.5-55.05 2.45-90.35 18.19-50.25 22.41-18.48 119.63-.67 170.86 12.08 39.49 39.25 55.13 78.94 57.36 43.43 4.25 90.21 3.05 134.47-13.06 38.76-14.11 60.28-85.63 64.5-113.57h0v.01z" fill="url(#C)"/></g><g opacity=".8" style="mix-blend-mode:overlay" transform="translate(899.677 686.437)"><mask id="G" fill="#fff"><use xlink:href="#D"/></mask><path d="M231.283 110.843c-3.48.32-5.57-.72-7.49-3.56-5.16-7.61-10.67-14.99-15.92-22.54-2.34-3.37-4.94-5.68-9.45-4.74-4.7.98-5.69 4.6-6.35 8.44l-13.4 78.57c-.26 1.53-.64 3.03-2.03 4.73-.97-3.45-2.1-6.87-2.88-10.36l-14.25-64.39-13.39-58.28c-1-4.43-3.08-7.28-7.89-7.25-4.85.04-6.98 3.02-7.73 7.44l-14.74 86.56-2.9 16.64-1.49.38-10.63-14.98c-2.56-3.85-5.67-5.32-10.42-4.87-18.88 1.78-78.57 6.08-97.47 7.65-.52 1.82-.98 3.65-1.4 5.49-.51 2.27-.94 4.55-1.31 6.84l-.25 1.68c18.71-1.71 78.24-5.94 96.98-7.33 1.7-.13 4.11 1.48 5.24 2.99 5.53 7.36 10.79 14.91 16.03 22.48 2.48 3.59 5.09 6.5 10.08 5.32 4.9-1.16 5.59-5.2 6.26-9.1l13.49-79.08c.2-1.19.58-2.36.88-3.53l1.23-.12 7.7 33.67 14.91 65.73 7.63 33.8c.97 4.35 3.14 7.28 7.98 7.211 4.28-.061 6.75-2.601 7.7-8.121l11.58-67.84 5.15-30.4c.26-1.51.66-3 1.29-5.86 4.19 5.72 7.94 10.34 11.12 15.32 2.91 4.56 6.38 6.12 11.89 5.58l92.99-7.99-.46-13.7-88.29 7.51h.01v.01z" mask="url(#G)" class="B D"/></g><g class="B"><g transform="translate(1211.44 750.805)"><g fill="#ffe44c"><path d="M248.1 205.385c-16.11-14.71-43.55-19.3-64.47-27.5-4.44-1.76-8.86-2.72-13.34-4.44-3.77-1.46-2.6-2.37-2.75-2.44-24.44-9.29-47.29-19.03-72.3-27.06-9.81-3.12-24.92-9.15-32.06-11.13 9.99-21.49 21.95-46.51 29.8-68.63 5.63-15.77 4.12-39.78 13.82-30.97 3.64 3.73 5.15 2.07 5.39 2.28 39.47 35.32 111.01 42.97 163.67 110.56 14.25 18.24 13.46 13.99 14.01 14.88.72 1.11-3.86-3.56 9.26 23 49.27 99.93-23.72 25.09-51.03 21.46h0v-.01zM63.03 1.795c26 45.47 5.44 76.29-44.37 44.63-.06-1.33 3.18-25.17 3.62-26.43.59-1.71 11.27-15.07 14.52-19.23 9.04-1.02 17.31-1.32 26.22 1.02h.01v.01z"/></g><path d="M90.37 21.095c-6.28 20.23-10.49 34.47-20.27 53.65-18.46-2.49-24.75-12.75-46.25-7.66-1.45-.45-4.95-17.1-5.02-18.04-.07-.87-.12-1.74-.16-2.61 49.81 31.66 70.37.84 44.37-44.63 12.06 3.16 18.4 11.95 27.34 19.3h0l-.01-.01z" fill="#e99a23"/><path d="M101.11 25.675c-3.78.67-8.15-2.46-10.74-4.59-6.28 20.23-10.49 34.47-20.27 53.65-18.46-2.49-24.75-12.75-46.25-7.66-1.45-.45-4.95-17.1-5.02-18.04-5.99 9.65-5.99 21.31-8.51 31.97-3.48 14.72-6.2 30.81-10.32 45.18 5.39-1.24 4.59-7.73 6.04-8.23.33-.12.21 1.79 6.68 2.21 3.99.26 10.17 4.48 10.74 4.59 10.46 1.97 21.47 3.21 31.75 5.92l7.98 2.13c10.01-21.49 21.95-46.52 29.82-68.64 5.61-15.77 4.13-39.79 13.81-30.98-.33-.34.97-6.12-5.69-7.51h-.02z" fill="#b57129"/></g><path d="M1374.49 920.68c-55.22-46.92-113.85-49.15-160.05-42.38l-104.04 89.88c-9.81 8.8 8.45 32.45 21.6 33.21 62.18 3.57 46.77-31.62 242.49-80.7h0v-.01z" fill="#e99a23"/></g><g opacity=".8" style="mix-blend-mode:overlay" transform="translate(1303.02 657.793)"><mask id="H" fill="#fff"><use xlink:href="#E"/></mask><path d="M159.22 95.357c-2.8.26-4.47-.58-6.02-2.86-4.15-6.11-8.57-12.04-12.79-18.11-1.88-2.71-3.97-4.56-7.59-3.81-3.78.79-4.57 3.7-5.1 6.78l-10.76 63.12c-.21 1.23-.51 2.44-1.63 3.8-.78-2.77-1.69-5.52-2.32-8.33l-11.44-51.73-10.76-46.82c-.8-3.56-2.48-5.85-6.34-5.82-3.89.03-5.61 2.43-6.21 5.98l-11.84 69.54-2.33 13.37-1.2.31-8.54-12.03c-2.06-3.09-4.56-4.27-8.37-3.91-15.17 1.43-63.12 4.88-78.3 6.15a83.7 83.7 0 0 0-1.12 4.41c-.41 1.82-.76 3.65-1.05 5.5l-.2 1.35c15.03-1.37 62.85-4.77 77.91-5.89 1.36-.1 3.3 1.19 4.21 2.4 4.44 5.91 8.67 11.98 12.87 18.06 1.99 2.88 4.09 5.22 8.1 4.27 3.93-.93 4.49-4.18 5.03-7.31l10.84-63.53c.16-.96.47-1.89.71-2.84l.99-.09 6.18 27.05 11.97 52.81 6.13 27.16c.78 3.49 2.52 5.85 6.41 5.791 3.44-.051 5.42-2.091 6.19-6.531l9.31-54.5 4.13-24.42c.21-1.21.53-2.41 1.04-4.71 3.36 4.59 6.38 8.3 8.93 12.31 2.34 3.66 5.13 4.92 9.55 4.48l74.7-6.42c-.18-3.67-.32-7.34-.37-11.01l-70.93 6.04h0l.01-.01z" mask="url(#H)" class="B D"/></g><g stroke-width="20.13" class="E G"><path d="M1117.98 972.95c8.84-23.61 36.91-13.73 71.61-66.19 39.05-59.03 38.91-84.18 41.36-133.14 3.03-60.46 81-17.44 85.35 10.92 0 0 158.67 40.83 225.03 216.93 0 0-67.97-41.82-170.68-70.11 0 0-98.26 7.54-202.75 66.96-16.02 9.11-58.67-2.01-49.92-25.38h0v.01z"/><path d="M1439.16 953.7c-61.87-35.28-125.45-78.91-227.67-75.33" class="H"/></g><g class="B"><g class="C"><path d="M1357.85 839.13c7.09 6.36-18.34 13.91-27.49 2.88-4.67-5.63-28.44-11.39-23.26-13.77 16.72-7.7 37.65-.87 50.75 10.88h0v.01zM382.44 964.44c-35.11 27.27-77.48 64.46 14.8 95.25 0 0 21.95-19.22 42.54 15.42 0 0 14.11-14.82 27.99 14.61 0 0 20.85-32.54 38.6 54.59 17.74 87.13 28.77 175.21 31.29 195.15s23.41 75.47 23.41 75.47-10.38-59.78-6.32-71.88c0 0 1.07 40.23 19.74 75.59 18.68 35.36 48.1 51.63 61.19 56.27s43.04 7.03 48.46 18.39 15.97 40.63 24.08 75.78 57.55 41.02 63.65-21.08c6.11-62.1-5.91-65.25 15.25-83.97 21.17-18.72 48.3-66.16 56.1-97.04 7.81-30.88 17.26-108.88 11.28-152.51l12.07 21.46s11.56-91.64-14.13-219.93c0 0 13.68 25.96 13.14 29.97-.55 4.01 1.33-60.71-18.12-154.42-12.9-62.17-21.28-146-10.01-176.63 11.28-30.63 57.09-52.23 85.45-68.59s73.71-54.43 107.36-58.26c0 0-25.04 9.02-30.62 23.77 0 0 64.78-41.24 171.62-56.38 0 0-14.26 6.34-20.94 14.75 0 0 105.41-13.12 150.09 51.23 0 0 17.3-25.14 13.83-65.16s9.05-66.83 9.05-66.83-6.12 15.08 1.94 22.79c8.05 7.71 18.96-33.42 18.52-82.09-.43-48.66 1.44-125.08-61.15-178.55s-186.56-65.93-221.1-83.97c0 0-1.24 12.2 7.82 18.41 0 0-28-10.68-66.12-9.55-38.13 1.13-206.13 14.66-248.33 27.35s-178.76 46.24-236.72 156.01C460.19 469.62 407.01 557.72 392.91 702c-3.91 49.92-50.89 5.2-47.33 74.32s.03 131.14 36.87 188.13h0l-.01-.01z"/></g><path d="M966.17 184.8c-79.89 27.17-209.26 108.39-225.16 166.81-.85 3.11 2.59 5.61 5.32 3.89 3.21-2.02 7.85-3.92 14.53-4.94 2.98-.46 5.14 2.8 3.56 5.37-11.6 18.91-58.61 67.32-43.03 147.19 0 0 4.84 3.71 8.68-3.87 1.92-3.78 7.64-1.64 6.6 2.47-2.98 11.8-5.48 27.93-3.72 45.68.37 3.77 5.6 4.4 6.86.83.05-.15.11-.3.16-.45 1.47-4.03 7.51-2.57 6.87 1.67-2.05 13.65-3.96 34.55-.42 52.93.7 3.65 5.88 3.84 6.88.26 1.05-3.77 2.74-7.68 5.43-11.17 2.23-2.88 6.82-.99 6.35 2.62-2.52 19.18-5.63 64.13 12.74 103.52 1.43 3.06 5.86 2.68 6.67-.6 1.7-6.87 5.87-15.41 15.86-21.22 19.24-11.2-2.92 57.06 20.2 14.43 17.22-31.75 17.65-8.67 16.75 5.18-.2 3.1 3.42 4.9 5.8 2.92l40.8-34.09c.17-.14.35-.27.55-.38l124.83-69.62c.32-.18.66-.31 1.02-.38l145.67-29.52c.47-.1.93-.1 1.4 0l77.01 16.34c2.83.98 54.81 27.03 58.09 30.81 2.91 3.36 19.89-19.36 23.6-24.42.47-.64.71-1.41.68-2.2l-2.56-85.55a3.55 3.55 0 0 1 1.28-2.83l20.67-17.16c.81-.67 1.28-1.67 1.28-2.72l.12-150.42c0-.51-.1-.99-.31-1.45-4.5-9.85-58.97-121.88-215.09-138.74-.09 0-.17-.02-.26-.04l-62.18-12.21c-1.03-.2-2.1.06-2.92.73l-8.02 6.52c-.6.49-1.34.76-2.11.79l-79.43 2.82a3.03 3.03 0 0 0-1.03.19h-.02v.01z" class="F"/><path d="M487.68 727.24C377.01 763.61 458.8 571 497.81 497.82s48.42-211.42 259.15-231.49c0 0-183.64 209.96-69.11 147.88 0 0-39.23 52.51-19.03 135.72s135.12 108.72-1.71 129.75c-83.08 12.77-102.62 22.31-179.43 47.55h0v.01z" fill="#0086ff"/><path d="M408.45 765.64c109.03-6.43 101.99-23.52 176.02-40.61s187.34-56.04 173.93-20.39c-13.41 35.66-49.49 215.51-14.37 155.1 0 0 8.74 16-5.4 119.1s9.8 74.41 17.25 49.33c0 0 12.64 20.92.29 124.82s8.38 51.16 16.54 22.36c0 0 8.91 37.42 2.76 83.43s17.53 8.86 19.27-12.37c0 0 22.48 111.48-25.85 149.93s-94.97 49.22-130.58-24.19-20.35-170.46-33.89-265.07c0 0-1.06 44.73-4.68 49.19 0 0 1.11-83.48-43.22-135.34s-127.66-45.66-140.41-63.9-61.73-188.2-7.67-191.39h.01 0z" fill="#552bff"/><path d="M826.74 750.1c-3.18-4.1-6.06-7.54-8.67-10.49-7.75-8.75-19.15-12.14-30.84-12.48-.71-.02-1.45-.18-2.23-.52 0 0 4.73 75.39-3.14 95.52-7.86 20.13 13.61-2.87 7.41 25.08-6.2 27.94-23.11 128.41-2.84 94s11.42 1.13 4.29 89.78-6.49 112.64 17.76 61.12-19.51 74.47-10.08 103.2c9.42 28.74.64 10.41 24.17-26.36s-13.02 42.59-8.91 82.76c4.11 40.18 10.94 77.23 1.74 105.64-9.2 28.4-31.97 72.67-69.83 87.27s-93.64 18.59-125.92-42.52c-32.29-61.1-20.62-63.47-36.18-131.53s-20.79-141.11-46.76-190.42-53.45-74.48-90.81-84-98.17-2.18-98.17-2.18l7.57 45.37s45.51 17.65 48.07 16.77 30.8 9.11 32.27 10.51c1.46 1.39 28.9 12.11 31.1 13.3s24.46 11.64 23.81 14.8 35.03 143.69 37.46 147.6c2.43 3.92 25.98 152.9 26.77 156.4s30.69 47.2 33.71 45.9 88.41 48.67 88.41 48.67l32.42 70.66 20 32.04 35.81-13.89 8.08-108.15 54.09-63.93 25.64-103.31c1.53-2.13 13.81-85.6 13.81-85.6l-7.98-192.53-11.34-160.94-15.05-95.65c-.06-2.05-5.64-21.88-5.64-21.88h0v-.01z" class="F"/><g class="D"><path d="M954.26 189.13c37.47 14.91 43 18.61 43 18.61s-131.51 49.1-175.44 109.31c0 0 42.19-31.63 89.7-31.4 0 0-66.33 36.8-70.62 84.3 0 0 6.14-13.97 24.71-16.58 0 0-32.72 32.51-30.43 59.55 0 0 20.26-19.82 43.21-29.06 0 0-76.22 79.22-61.87 163.94 0 0 31-75.61 67.81-84.5 0 0-34.41 46.5-21.66 93.65 0 0 15.75-40.38 41.83-52.87 0 0-31.39 41.69-12.57 88.35 0 0 29.14-76.23 100.9-92.17 0 0-41.95 33.77-37.54 61.12 0 0 36.25-52.38 100.93-52.73 0 0-14.59 10.07-18.99 27.08 0 0 92.22-37.4 172.01-19.54 0 0-30.83 5.7-34.36 13.19 0 0 91.57 7.25 103.7 58.77l34.31 36.9 12.08-57.13-2.67-60.12 23.45-45.4-12.47-134.27s-38.8-126.14-255.15-152.96l-33.2 3.83-90.65 10.15-.02-.02h0zM828.42 761.97c-14.97 35.04-26.89 90.99-22.22 117.73s27.61-57.66 16.56 30.53c-11.05 88.18-14.28 151.65-6 190.1 8.27 38.45 27.33 50.58 23.29 93.5s-12.07 54.7-4.41 77.99 10.03 56.13 10.03 56.13 7.75-99.64 15.37-110.49c7.62-10.84 5.25-105.54 4.95-107.58s-.4-63.92-.4-63.92l-5.5-77.03-21.84-160.33-9.82-46.64h-.01v.01z"/></g></g><path d="M380.63 965.86c-34.54 27-73.69 63.22 15.3 93.4.78.26 1.64.15 2.31-.33 4.38-3.13 22.49-13.49 40.03 13.75.78 1.21 2.35 1.6 3.56.82 4.17-2.69 14.12-6.07 24.25 12.87.8 1.49 2.78 1.82 4.02.66 5.92-5.54 22.09-12.35 36.27 57.29 17.74 87.13 28.77 175.21 31.29 195.15 1.4 11.02 8.4 32.93 14.39 50.31 1.02 2.95 5.41 1.9 5-1.19l-.13-.96c-.43-3.19 4.17-4.14 5.04-1.04 2.88 10.31 6.91 21.41 12.54 32.06 18.68 35.36 48.1 51.63 61.19 56.27s43.04 7.03 48.46 18.39 15.97 40.63 24.08 75.78 57.55 41.02 63.65-21.08c6.11-62.1-5.91-65.25 15.25-83.97 21.17-18.72 48.3-66.16 56.1-97.04 7.13-28.19 15.62-95.62 12.5-140.35-.19-2.75 3.46-3.82 4.81-1.42l2.01 3.57c1.25 2.22 4.61 1.51 4.82-1.02 1.98-23.65 5.77-96.67-11.46-193.37-.53-2.99 3.61-4.3 4.88-1.54 2.72 5.88 5 11.44 4.78 13.12-.55 4.01 1.33-60.71-18.12-154.42-12.9-62.17-21.28-146-10.01-176.63 11.28-30.63 57.09-52.23 85.45-68.59 22.41-12.93 55.43-39.42 84.91-51.85 2.78-1.17 4.91 2.6 2.52 4.43-4.65 3.56-8.79 7.91-10.69 12.93 0 0 59.17-37.66 157.66-54.22 2.7-.45 4.2 3.1 1.95 4.66a56.62 56.62 0 0 0-3.62 2.7c-1.97 1.6-.8 4.78 1.73 4.62 23.84-1.56 112.56 4.6 151.17 55.73 1.14 1.51 3.43 1.38 4.34-.28 4.47-8.16 14.5-30.38 11.78-61.72-1.53-17.67-12.64-37-12.94-45.2-.25-7.03 8.16-10.95 13.26-6.11.08.08.16.15.24.23 8.05 7.71 18.96-33.42 18.52-82.09-.43-48.66 1.44-125.08-61.15-178.55-60.53-51.71-178.47-65.07-217.41-82.21-1.84-.81-3.81.68-3.58 2.68.25 2.21.86 4.97 2.22 7.64 1.02 2.01-.79 4.26-2.97 3.66-11.06-3.08-32.08-7.64-57.66-6.88-38.13 1.13-206.13 14.66-248.33 27.35s-178.76 46.24-236.72 156.01c-57.96 109.76-111.14 197.86-125.24 342.14-3.91 49.92-50.89 5.2-47.33 74.32 3.52 68.33.11 129.72 35.62 186.17.7 1.11.47 2.56-.57 3.37l.03-.02h0z" stroke-width="26.84" class="E"/></g></g></svg>